{
  "header": {
    "keySignatures": [
      {
        "key": "F",
        "scale": "major",
        "ticks": 0
      },
      {
        "key": "Bb",
        "scale": "major",
        "ticks": 186840
      },
      {
        "key": "F",
        "scale": "major",
        "ticks": 202200
      },
      {
        "key": "G",
        "scale": "major",
        "ticks": 261720
      },
      {
        "key": "F",
        "scale": "major",
        "ticks": 0
      },
      {
        "key": "Bb",
        "scale": "major",
        "ticks": 186840
      },
      {
        "key": "F",
        "scale": "major",
        "ticks": 202200
      },
      {
        "key": "G",
        "scale": "major",
        "ticks": 261720
      }
    ],
    "meta": [],
    "name": "Piano",
    "ppq": 480,
    "tempos": [
      {
        "bpm": 120,
        "ticks": 0
      }
    ],
    "timeSignatures": [
      {
        "ticks": 0,
        "timeSignature": [
          4,
          4
        ],
        "measures": 0
      },
      {
        "ticks": 21120,
        "timeSignature": [
          17,
          16
        ],
        "measures": 11
      },
      {
        "ticks": 23160,
        "timeSignature": [
          4,
          4
        ],
        "measures": 11.0625
      },
      {
        "ticks": 50040,
        "timeSignature": [
          9,
          8
        ],
        "measures": 25.0625
      },
      {
        "ticks": 52200,
        "timeSignature": [
          4,
          4
        ],
        "measures": 25.3125
      },
      {
        "ticks": 100200,
        "timeSignature": [
          4,
          4
        ],
        "measures": 50.3125
      },
      {
        "ticks": 127080,
        "timeSignature": [
          9,
          8
        ],
        "measures": 64.3125
      },
      {
        "ticks": 129240,
        "timeSignature": [
          4,
          4
        ],
        "measures": 64.5625
      },
      {
        "ticks": 275160,
        "timeSignature": [
          17,
          16
        ],
        "measures": 140.5625
      },
      {
        "ticks": 277200,
        "timeSignature": [
          4,
          4
        ],
        "measures": 140.625
      },
      {
        "ticks": 290640,
        "timeSignature": [
          9,
          8
        ],
        "measures": 147.625
      },
      {
        "ticks": 292800,
        "timeSignature": [
          4,
          4
        ],
        "measures": 147.875
      }
    ]
  },
  "tracks": [
    {
      "channel": 0,
      "controlChanges": {
        "6": [
          {
            "number": 6,
            "ticks": 0,
            "time": 0,
            "value": 0.09448818897637795
          }
        ],
        "7": [
          {
            "number": 7,
            "ticks": 0,
            "time": 0,
            "value": 0.7795275590551181
          }
        ],
        "10": [
          {
            "number": 10,
            "ticks": 0,
            "time": 0,
            "value": 0.49606299212598426
          }
        ],
        "91": [
          {
            "number": 91,
            "ticks": 0,
            "time": 0,
            "value": 0
          }
        ],
        "93": [
          {
            "number": 93,
            "ticks": 0,
            "time": 0,
            "value": 0
          }
        ],
        "100": [
          {
            "number": 100,
            "ticks": 0,
            "time": 0,
            "value": 0
          },
          {
            "number": 100,
            "ticks": 0,
            "time": 0,
            "value": 1
          }
        ],
        "101": [
          {
            "number": 101,
            "ticks": 0,
            "time": 0,
            "value": 0
          },
          {
            "number": 101,
            "ticks": 0,
            "time": 0,
            "value": 1
          }
        ],
        "121": [
          {
            "number": 121,
            "ticks": 0,
            "time": 0,
            "value": 0
          }
        ]
      },
      "pitchBends": [],
      "instrument": {
        "family": "piano",
        "number": 0,
        "name": "acoustic grand piano"
      },
      "name": "Piano",
      "notes": [
        {
          "duration": 0.35520833333333335,
          "durationTicks": 341,
          "midi": 62,
          "name": "D4",
          "ticks": 0,
          "time": 0,
          "velocity": 0.6299212598425197
        },
        {
          "duration": 0.35520833333333335,
          "durationTicks": 341,
          "midi": 69,
          "name": "A4",
          "ticks": 0,
          "time": 0,
          "velocity": 0.6299212598425197
        },
        {
          "duration": 0.35520833333333335,
          "durationTicks": 341,
          "midi": 74,
          "name": "D5",
          "ticks": 0,
          "time": 0,
          "velocity": 0.6299212598425197
        },
        {
          "duration": 0.35520833333333335,
          "durationTicks": 341,
          "midi": 62,
          "name": "D4",
          "ticks": 360,
          "time": 0.375,
          "velocity": 0.6299212598425197
        },
        {
          "duration": 0.35520833333333335,
          "durationTicks": 341,
          "midi": 69,
          "name": "A4",
          "ticks": 360,
          "time": 0.375,
          "velocity": 0.6299212598425197
        },
        {
          "duration": 0.35520833333333335,
          "durationTicks": 341,
          "midi": 74,
          "name": "D5",
          "ticks": 360,
          "time": 0.375,
          "velocity": 0.6299212598425197
        },
        {
          "duration": 0.23645833333333333,
          "durationTicks": 227,
          "midi": 60,
          "name": "C4",
          "ticks": 720,
          "time": 0.75,
          "velocity": 0.6299212598425197
        },
        {
          "duration": 0.23645833333333333,
          "durationTicks": 227,
          "midi": 67,
          "name": "G4",
          "ticks": 720,
          "time": 0.75,
          "velocity": 0.6299212598425197
        },
        {
          "duration": 0.23645833333333333,
          "durationTicks": 227,
          "midi": 72,
          "name": "C5",
          "ticks": 720,
          "time": 0.75,
          "velocity": 0.6299212598425197
        },
        {
          "duration": 0.35520833333333335,
          "durationTicks": 341,
          "midi": 62,
          "name": "D4",
          "ticks": 960,
          "time": 1,
          "velocity": 0.6299212598425197
        },
        {
          "duration": 0.35520833333333335,
          "durationTicks": 341,
          "midi": 69,
          "name": "A4",
          "ticks": 960,
          "time": 1,
          "velocity": 0.6299212598425197
        },
        {
          "duration": 0.35520833333333335,
          "durationTicks": 341,
          "midi": 74,
          "name": "D5",
          "ticks": 960,
          "time": 1,
          "velocity": 0.6299212598425197
        },
        {
          "duration": 0.35520833333333335,
          "durationTicks": 341,
          "midi": 62,
          "name": "D4",
          "ticks": 1320,
          "time": 1.375,
          "velocity": 0.6299212598425197
        },
        {
          "duration": 0.35520833333333335,
          "durationTicks": 341,
          "midi": 69,
          "name": "A4",
          "ticks": 1320,
          "time": 1.375,
          "velocity": 0.6299212598425197
        },
        {
          "duration": 0.35520833333333335,
          "durationTicks": 341,
          "midi": 74,
          "name": "D5",
          "ticks": 1320,
          "time": 1.375,
          "velocity": 0.6299212598425197
        },
        {
          "duration": 0.23645833333333344,
          "durationTicks": 227,
          "midi": 60,
          "name": "C4",
          "ticks": 1680,
          "time": 1.75,
          "velocity": 0.6299212598425197
        },
        {
          "duration": 0.23645833333333344,
          "durationTicks": 227,
          "midi": 67,
          "name": "G4",
          "ticks": 1680,
          "time": 1.75,
          "velocity": 0.6299212598425197
        },
        {
          "duration": 0.23645833333333344,
          "durationTicks": 227,
          "midi": 72,
          "name": "C5",
          "ticks": 1680,
          "time": 1.75,
          "velocity": 0.6299212598425197
        },
        {
          "duration": 0.3552083333333331,
          "durationTicks": 341,
          "midi": 62,
          "name": "D4",
          "ticks": 1920,
          "time": 2,
          "velocity": 0.6299212598425197
        },
        {
          "duration": 0.3552083333333331,
          "durationTicks": 341,
          "midi": 69,
          "name": "A4",
          "ticks": 1920,
          "time": 2,
          "velocity": 0.6299212598425197
        },
        {
          "duration": 0.3552083333333331,
          "durationTicks": 341,
          "midi": 74,
          "name": "D5",
          "ticks": 1920,
          "time": 2,
          "velocity": 0.6299212598425197
        },
        {
          "duration": 0.3552083333333331,
          "durationTicks": 341,
          "midi": 62,
          "name": "D4",
          "ticks": 2280,
          "time": 2.375,
          "velocity": 0.6299212598425197
        },
        {
          "duration": 0.3552083333333331,
          "durationTicks": 341,
          "midi": 69,
          "name": "A4",
          "ticks": 2280,
          "time": 2.375,
          "velocity": 0.6299212598425197
        },
        {
          "duration": 0.3552083333333331,
          "durationTicks": 341,
          "midi": 74,
          "name": "D5",
          "ticks": 2280,
          "time": 2.375,
          "velocity": 0.6299212598425197
        },
        {
          "duration": 0.23645833333333321,
          "durationTicks": 227,
          "midi": 60,
          "name": "C4",
          "ticks": 2640,
          "time": 2.75,
          "velocity": 0.6299212598425197
        },
        {
          "duration": 0.23645833333333321,
          "durationTicks": 227,
          "midi": 67,
          "name": "G4",
          "ticks": 2640,
          "time": 2.75,
          "velocity": 0.6299212598425197
        },
        {
          "duration": 0.23645833333333321,
          "durationTicks": 227,
          "midi": 72,
          "name": "C5",
          "ticks": 2640,
          "time": 2.75,
          "velocity": 0.6299212598425197
        },
        {
          "duration": 0.4739583333333335,
          "durationTicks": 455,
          "midi": 62,
          "name": "D4",
          "ticks": 2880,
          "time": 3,
          "velocity": 0.6299212598425197
        },
        {
          "duration": 0.4739583333333335,
          "durationTicks": 455,
          "midi": 69,
          "name": "A4",
          "ticks": 2880,
          "time": 3,
          "velocity": 0.6299212598425197
        },
        {
          "duration": 0.4739583333333335,
          "durationTicks": 455,
          "midi": 74,
          "name": "D5",
          "ticks": 2880,
          "time": 3,
          "velocity": 0.6299212598425197
        },
        {
          "duration": 0.4739583333333335,
          "durationTicks": 455,
          "midi": 65,
          "name": "F4",
          "ticks": 3360,
          "time": 3.5,
          "velocity": 0.6299212598425197
        },
        {
          "duration": 0.4739583333333335,
          "durationTicks": 455,
          "midi": 69,
          "name": "A4",
          "ticks": 3360,
          "time": 3.5,
          "velocity": 0.6299212598425197
        },
        {
          "duration": 0.4739583333333335,
          "durationTicks": 455,
          "midi": 74,
          "name": "D5",
          "ticks": 3360,
          "time": 3.5,
          "velocity": 0.6299212598425197
        },
        {
          "duration": 0.4739583333333335,
          "durationTicks": 455,
          "midi": 79,
          "name": "G5",
          "ticks": 3360,
          "time": 3.5,
          "velocity": 0.6299212598425197
        },
        {
          "duration": 0.35520833333333357,
          "durationTicks": 341,
          "midi": 69,
          "name": "A4",
          "ticks": 3840,
          "time": 4,
          "velocity": 0.6299212598425197
        },
        {
          "duration": 0.35520833333333357,
          "durationTicks": 341,
          "midi": 74,
          "name": "D5",
          "ticks": 3840,
          "time": 4,
          "velocity": 0.6299212598425197
        },
        {
          "duration": 0.35520833333333357,
          "durationTicks": 341,
          "midi": 81,
          "name": "A5",
          "ticks": 3840,
          "time": 4,
          "velocity": 0.6299212598425197
        },
        {
          "duration": 0.35520833333333357,
          "durationTicks": 341,
          "midi": 62,
          "name": "D4",
          "ticks": 4200,
          "time": 4.375,
          "velocity": 0.6299212598425197
        },
        {
          "duration": 0.35520833333333357,
          "durationTicks": 341,
          "midi": 69,
          "name": "A4",
          "ticks": 4200,
          "time": 4.375,
          "velocity": 0.6299212598425197
        },
        {
          "duration": 0.35520833333333357,
          "durationTicks": 341,
          "midi": 74,
          "name": "D5",
          "ticks": 4200,
          "time": 4.375,
          "velocity": 0.6299212598425197
        },
        {
          "duration": 0.23645833333333321,
          "durationTicks": 227,
          "midi": 60,
          "name": "C4",
          "ticks": 4560,
          "time": 4.75,
          "velocity": 0.6299212598425197
        },
        {
          "duration": 0.23645833333333321,
          "durationTicks": 227,
          "midi": 67,
          "name": "G4",
          "ticks": 4560,
          "time": 4.75,
          "velocity": 0.6299212598425197
        },
        {
          "duration": 0.23645833333333321,
          "durationTicks": 227,
          "midi": 72,
          "name": "C5",
          "ticks": 4560,
          "time": 4.75,
          "velocity": 0.6299212598425197
        },
        {
          "duration": 0.35520833333333357,
          "durationTicks": 341,
          "midi": 62,
          "name": "D4",
          "ticks": 4800,
          "time": 5,
          "velocity": 0.6299212598425197
        },
        {
          "duration": 0.35520833333333357,
          "durationTicks": 341,
          "midi": 69,
          "name": "A4",
          "ticks": 4800,
          "time": 5,
          "velocity": 0.6299212598425197
        },
        {
          "duration": 0.35520833333333357,
          "durationTicks": 341,
          "midi": 74,
          "name": "D5",
          "ticks": 4800,
          "time": 5,
          "velocity": 0.6299212598425197
        },
        {
          "duration": 0.35520833333333357,
          "durationTicks": 341,
          "midi": 62,
          "name": "D4",
          "ticks": 5160,
          "time": 5.375,
          "velocity": 0.6299212598425197
        },
        {
          "duration": 0.35520833333333357,
          "durationTicks": 341,
          "midi": 69,
          "name": "A4",
          "ticks": 5160,
          "time": 5.375,
          "velocity": 0.6299212598425197
        },
        {
          "duration": 0.35520833333333357,
          "durationTicks": 341,
          "midi": 74,
          "name": "D5",
          "ticks": 5160,
          "time": 5.375,
          "velocity": 0.6299212598425197
        },
        {
          "duration": 0.23645833333333321,
          "durationTicks": 227,
          "midi": 60,
          "name": "C4",
          "ticks": 5520,
          "time": 5.75,
          "velocity": 0.6299212598425197
        },
        {
          "duration": 0.23645833333333321,
          "durationTicks": 227,
          "midi": 67,
          "name": "G4",
          "ticks": 5520,
          "time": 5.75,
          "velocity": 0.6299212598425197
        },
        {
          "duration": 0.23645833333333321,
          "durationTicks": 227,
          "midi": 72,
          "name": "C5",
          "ticks": 5520,
          "time": 5.75,
          "velocity": 0.6299212598425197
        },
        {
          "duration": 0,
          "durationTicks": 0,
          "midi": 62,
          "name": "D4",
          "ticks": 5760,
          "time": 6,
          "velocity": 0.6299212598425197
        },
        {
          "duration": 0.47395833333333304,
          "durationTicks": 455,
          "midi": 69,
          "name": "A4",
          "ticks": 5760,
          "time": 6,
          "velocity": 0.6299212598425197
        },
        {
          "duration": 0.47395833333333304,
          "durationTicks": 455,
          "midi": 74,
          "name": "D5",
          "ticks": 5760,
          "time": 6,
          "velocity": 0.6299212598425197
        },
        {
          "duration": 0.47395833333333304,
          "durationTicks": 455,
          "midi": 65,
          "name": "F4",
          "ticks": 6240,
          "time": 6.5,
          "velocity": 0.6299212598425197
        },
        {
          "duration": 0.47395833333333304,
          "durationTicks": 455,
          "midi": 69,
          "name": "A4",
          "ticks": 6240,
          "time": 6.5,
          "velocity": 0.6299212598425197
        },
        {
          "duration": 0.47395833333333304,
          "durationTicks": 455,
          "midi": 72,
          "name": "C5",
          "ticks": 6240,
          "time": 6.5,
          "velocity": 0.6299212598425197
        },
        {
          "duration": 0.47395833333333304,
          "durationTicks": 455,
          "midi": 77,
          "name": "F5",
          "ticks": 6240,
          "time": 6.5,
          "velocity": 0.6299212598425197
        },
        {
          "duration": 0.47395833333333304,
          "durationTicks": 455,
          "midi": 67,
          "name": "G4",
          "ticks": 6720,
          "time": 7,
          "velocity": 0.6299212598425197
        },
        {
          "duration": 0.47395833333333304,
          "durationTicks": 455,
          "midi": 74,
          "name": "D5",
          "ticks": 6720,
          "time": 7,
          "velocity": 0.6299212598425197
        },
        {
          "duration": 0.47395833333333304,
          "durationTicks": 455,
          "midi": 79,
          "name": "G5",
          "ticks": 6720,
          "time": 7,
          "velocity": 0.6299212598425197
        },
        {
          "duration": 0.47395833333333304,
          "durationTicks": 455,
          "midi": 69,
          "name": "A4",
          "ticks": 7200,
          "time": 7.5,
          "velocity": 0.6299212598425197
        },
        {
          "duration": 0.47395833333333304,
          "durationTicks": 455,
          "midi": 74,
          "name": "D5",
          "ticks": 7200,
          "time": 7.5,
          "velocity": 0.6299212598425197
        },
        {
          "duration": 0.47395833333333304,
          "durationTicks": 455,
          "midi": 81,
          "name": "A5",
          "ticks": 7200,
          "time": 7.5,
          "velocity": 0.6299212598425197
        },
        {
          "duration": 0.23645833333333321,
          "durationTicks": 227,
          "midi": 67,
          "name": "G4",
          "ticks": 7680,
          "time": 8,
          "velocity": 0.6299212598425197
        },
        {
          "duration": 0.23645833333333321,
          "durationTicks": 227,
          "midi": 79,
          "name": "G5",
          "ticks": 7680,
          "time": 8,
          "velocity": 0.6299212598425197
        },
        {
          "duration": 0.23645833333333321,
          "durationTicks": 227,
          "midi": 69,
          "name": "A4",
          "ticks": 7920,
          "time": 8.25,
          "velocity": 0.6299212598425197
        },
        {
          "duration": 0.23645833333333321,
          "durationTicks": 227,
          "midi": 81,
          "name": "A5",
          "ticks": 7920,
          "time": 8.25,
          "velocity": 0.6299212598425197
        },
        {
          "duration": 0.11770833333333286,
          "durationTicks": 113,
          "midi": 74,
          "name": "D5",
          "ticks": 8160,
          "time": 8.5,
          "velocity": 0.6299212598425197
        },
        {
          "duration": 0.11770833333333286,
          "durationTicks": 113,
          "midi": 72,
          "name": "C5",
          "ticks": 8280,
          "time": 8.625,
          "velocity": 0.6299212598425197
        },
        {
          "duration": 0.11770833333333286,
          "durationTicks": 113,
          "midi": 74,
          "name": "D5",
          "ticks": 8400,
          "time": 8.75,
          "velocity": 0.6299212598425197
        },
        {
          "duration": 0.11770833333333286,
          "durationTicks": 113,
          "midi": 72,
          "name": "C5",
          "ticks": 8520,
          "time": 8.875,
          "velocity": 0.6299212598425197
        },
        {
          "duration": 0.23645833333333321,
          "durationTicks": 227,
          "midi": 67,
          "name": "G4",
          "ticks": 8640,
          "time": 9,
          "velocity": 0.6299212598425197
        },
        {
          "duration": 0.23645833333333321,
          "durationTicks": 227,
          "midi": 79,
          "name": "G5",
          "ticks": 8640,
          "time": 9,
          "velocity": 0.6299212598425197
        },
        {
          "duration": 0.23645833333333321,
          "durationTicks": 227,
          "midi": 69,
          "name": "A4",
          "ticks": 8880,
          "time": 9.25,
          "velocity": 0.6299212598425197
        },
        {
          "duration": 0.23645833333333321,
          "durationTicks": 227,
          "midi": 81,
          "name": "A5",
          "ticks": 8880,
          "time": 9.25,
          "velocity": 0.6299212598425197
        },
        {
          "duration": 0.11770833333333286,
          "durationTicks": 113,
          "midi": 74,
          "name": "D5",
          "ticks": 9120,
          "time": 9.5,
          "velocity": 0.6299212598425197
        },
        {
          "duration": 0.11770833333333286,
          "durationTicks": 113,
          "midi": 72,
          "name": "C5",
          "ticks": 9240,
          "time": 9.625,
          "velocity": 0.6299212598425197
        },
        {
          "duration": 0.11770833333333286,
          "durationTicks": 113,
          "midi": 74,
          "name": "D5",
          "ticks": 9360,
          "time": 9.75,
          "velocity": 0.6299212598425197
        },
        {
          "duration": 0.11770833333333286,
          "durationTicks": 113,
          "midi": 72,
          "name": "C5",
          "ticks": 9480,
          "time": 9.875,
          "velocity": 0.6299212598425197
        },
        {
          "duration": 0.23645833333333321,
          "durationTicks": 227,
          "midi": 67,
          "name": "G4",
          "ticks": 9600,
          "time": 10,
          "velocity": 0.6299212598425197
        },
        {
          "duration": 0.23645833333333321,
          "durationTicks": 227,
          "midi": 79,
          "name": "G5",
          "ticks": 9600,
          "time": 10,
          "velocity": 0.6299212598425197
        },
        {
          "duration": 0.23645833333333321,
          "durationTicks": 227,
          "midi": 69,
          "name": "A4",
          "ticks": 9840,
          "time": 10.25,
          "velocity": 0.6299212598425197
        },
        {
          "duration": 0.23645833333333321,
          "durationTicks": 227,
          "midi": 81,
          "name": "A5",
          "ticks": 9840,
          "time": 10.25,
          "velocity": 0.6299212598425197
        },
        {
          "duration": 0.11770833333333286,
          "durationTicks": 113,
          "midi": 74,
          "name": "D5",
          "ticks": 10080,
          "time": 10.5,
          "velocity": 0.6299212598425197
        },
        {
          "duration": 0.11770833333333286,
          "durationTicks": 113,
          "midi": 72,
          "name": "C5",
          "ticks": 10200,
          "time": 10.625,
          "velocity": 0.6299212598425197
        },
        {
          "duration": 0.11770833333333286,
          "durationTicks": 113,
          "midi": 74,
          "name": "D5",
          "ticks": 10320,
          "time": 10.75,
          "velocity": 0.6299212598425197
        },
        {
          "duration": 0.11770833333333286,
          "durationTicks": 113,
          "midi": 72,
          "name": "C5",
          "ticks": 10440,
          "time": 10.875,
          "velocity": 0.6299212598425197
        },
        {
          "duration": 0.23645833333333321,
          "durationTicks": 227,
          "midi": 69,
          "name": "A4",
          "ticks": 10560,
          "time": 11,
          "velocity": 0.6299212598425197
        },
        {
          "duration": 0.23645833333333321,
          "durationTicks": 227,
          "midi": 77,
          "name": "F5",
          "ticks": 10560,
          "time": 11,
          "velocity": 0.6299212598425197
        },
        {
          "duration": 0.078125,
          "durationTicks": 75,
          "midi": 76,
          "name": "E5",
          "ticks": 10800,
          "time": 11.25,
          "velocity": 0.6299212598425197
        },
        {
          "duration": 0.078125,
          "durationTicks": 75,
          "midi": 77,
          "name": "F5",
          "ticks": 10880,
          "time": 11.333333333333334,
          "velocity": 0.6299212598425197
        },
        {
          "duration": 0.078125,
          "durationTicks": 75,
          "midi": 76,
          "name": "E5",
          "ticks": 10960,
          "time": 11.416666666666666,
          "velocity": 0.6299212598425197
        },
        {
          "duration": 0.23645833333333321,
          "durationTicks": 227,
          "midi": 74,
          "name": "D5",
          "ticks": 11040,
          "time": 11.5,
          "velocity": 0.6299212598425197
        },
        {
          "duration": 0.23645833333333321,
          "durationTicks": 227,
          "midi": 72,
          "name": "C5",
          "ticks": 11280,
          "time": 11.75,
          "velocity": 0.6299212598425197
        },
        {
          "duration": 0.23645833333333321,
          "durationTicks": 227,
          "midi": 79,
          "name": "G5",
          "ticks": 11520,
          "time": 12,
          "velocity": 0.6299212598425197
        },
        {
          "duration": 0.23645833333333321,
          "durationTicks": 227,
          "midi": 81,
          "name": "A5",
          "ticks": 11760,
          "time": 12.25,
          "velocity": 0.6299212598425197
        },
        {
          "duration": 0.11770833333333286,
          "durationTicks": 113,
          "midi": 74,
          "name": "D5",
          "ticks": 12000,
          "time": 12.5,
          "velocity": 0.6299212598425197
        },
        {
          "duration": 0.11770833333333286,
          "durationTicks": 113,
          "midi": 72,
          "name": "C5",
          "ticks": 12120,
          "time": 12.625,
          "velocity": 0.6299212598425197
        },
        {
          "duration": 0.11770833333333286,
          "durationTicks": 113,
          "midi": 74,
          "name": "D5",
          "ticks": 12240,
          "time": 12.75,
          "velocity": 0.6299212598425197
        },
        {
          "duration": 0.11770833333333286,
          "durationTicks": 113,
          "midi": 72,
          "name": "C5",
          "ticks": 12360,
          "time": 12.875,
          "velocity": 0.6299212598425197
        },
        {
          "duration": 0.23645833333333321,
          "durationTicks": 227,
          "midi": 67,
          "name": "G4",
          "ticks": 12480,
          "time": 13,
          "velocity": 0.6299212598425197
        },
        {
          "duration": 0.23645833333333321,
          "durationTicks": 227,
          "midi": 79,
          "name": "G5",
          "ticks": 12480,
          "time": 13,
          "velocity": 0.6299212598425197
        },
        {
          "duration": 0.23645833333333321,
          "durationTicks": 227,
          "midi": 69,
          "name": "A4",
          "ticks": 12720,
          "time": 13.25,
          "velocity": 0.6299212598425197
        },
        {
          "duration": 0.23645833333333321,
          "durationTicks": 227,
          "midi": 81,
          "name": "A5",
          "ticks": 12720,
          "time": 13.25,
          "velocity": 0.6299212598425197
        },
        {
          "duration": 0.11770833333333286,
          "durationTicks": 113,
          "midi": 74,
          "name": "D5",
          "ticks": 12960,
          "time": 13.5,
          "velocity": 0.6299212598425197
        },
        {
          "duration": 0.11770833333333286,
          "durationTicks": 113,
          "midi": 72,
          "name": "C5",
          "ticks": 13080,
          "time": 13.625,
          "velocity": 0.6299212598425197
        },
        {
          "duration": 0.11770833333333286,
          "durationTicks": 113,
          "midi": 74,
          "name": "D5",
          "ticks": 13200,
          "time": 13.75,
          "velocity": 0.6299212598425197
        },
        {
          "duration": 0.11770833333333286,
          "durationTicks": 113,
          "midi": 72,
          "name": "C5",
          "ticks": 13320,
          "time": 13.875,
          "velocity": 0.6299212598425197
        },
        {
          "duration": 0.11770833333333286,
          "durationTicks": 113,
          "midi": 74,
          "name": "D5",
          "ticks": 13320,
          "time": 13.875,
          "velocity": 0.6299212598425197
        },
        {
          "duration": 0.23645833333333321,
          "durationTicks": 227,
          "midi": 77,
          "name": "F5",
          "ticks": 13440,
          "time": 14,
          "velocity": 0.6299212598425197
        },
        {
          "duration": 0.23645833333333321,
          "durationTicks": 227,
          "midi": 81,
          "name": "A5",
          "ticks": 13680,
          "time": 14.25,
          "velocity": 0.6299212598425197
        },
        {
          "duration": 0.23645833333333321,
          "durationTicks": 227,
          "midi": 84,
          "name": "C6",
          "ticks": 13920,
          "time": 14.5,
          "velocity": 0.6299212598425197
        },
        {
          "duration": 0.23645833333333321,
          "durationTicks": 227,
          "midi": 81,
          "name": "A5",
          "ticks": 14160,
          "time": 14.75,
          "velocity": 0.6299212598425197
        },
        {
          "duration": 0.23645833333333321,
          "durationTicks": 227,
          "midi": 89,
          "name": "F6",
          "ticks": 14160,
          "time": 14.75,
          "velocity": 0.6299212598425197
        },
        {
          "duration": 0.11770833333333286,
          "durationTicks": 113,
          "midi": 88,
          "name": "E6",
          "ticks": 14400,
          "time": 15,
          "velocity": 0.6299212598425197
        },
        {
          "duration": 0.11770833333333286,
          "durationTicks": 113,
          "midi": 93,
          "name": "A6",
          "ticks": 14400,
          "time": 15,
          "velocity": 0.6299212598425197
        },
        {
          "duration": 0.11770833333333286,
          "durationTicks": 113,
          "midi": 91,
          "name": "G6",
          "ticks": 14520,
          "time": 15.125,
          "velocity": 0.6299212598425197
        },
        {
          "duration": 0.11770833333333286,
          "durationTicks": 113,
          "midi": 88,
          "name": "E6",
          "ticks": 14640,
          "time": 15.25,
          "velocity": 0.6299212598425197
        },
        {
          "duration": 0.11770833333333286,
          "durationTicks": 113,
          "midi": 86,
          "name": "D6",
          "ticks": 14760,
          "time": 15.375,
          "velocity": 0.6299212598425197
        },
        {
          "duration": 0.23645833333333321,
          "durationTicks": 227,
          "midi": 84,
          "name": "C6",
          "ticks": 14880,
          "time": 15.5,
          "velocity": 0.6299212598425197
        },
        {
          "duration": 0.11770833333333286,
          "durationTicks": 113,
          "midi": 81,
          "name": "A5",
          "ticks": 15120,
          "time": 15.75,
          "velocity": 0.6299212598425197
        },
        {
          "duration": 0.11770833333333286,
          "durationTicks": 113,
          "midi": 78,
          "name": "F#5",
          "ticks": 15240,
          "time": 15.875,
          "velocity": 0.6299212598425197
        },
        {
          "duration": 0.236458333333335,
          "durationTicks": 227,
          "midi": 67,
          "name": "G4",
          "ticks": 15360,
          "time": 16,
          "velocity": 0.6299212598425197
        },
        {
          "duration": 0.236458333333335,
          "durationTicks": 227,
          "midi": 79,
          "name": "G5",
          "ticks": 15360,
          "time": 16,
          "velocity": 0.6299212598425197
        },
        {
          "duration": 0.236458333333335,
          "durationTicks": 227,
          "midi": 69,
          "name": "A4",
          "ticks": 15600,
          "time": 16.25,
          "velocity": 0.6299212598425197
        },
        {
          "duration": 0.236458333333335,
          "durationTicks": 227,
          "midi": 81,
          "name": "A5",
          "ticks": 15600,
          "time": 16.25,
          "velocity": 0.6299212598425197
        },
        {
          "duration": 0.11770833333333286,
          "durationTicks": 113,
          "midi": 74,
          "name": "D5",
          "ticks": 15840,
          "time": 16.5,
          "velocity": 0.6299212598425197
        },
        {
          "duration": 0.11770833333333286,
          "durationTicks": 113,
          "midi": 72,
          "name": "C5",
          "ticks": 15960,
          "time": 16.625,
          "velocity": 0.6299212598425197
        },
        {
          "duration": 0.11770833333333286,
          "durationTicks": 113,
          "midi": 74,
          "name": "D5",
          "ticks": 16080,
          "time": 16.75,
          "velocity": 0.6299212598425197
        },
        {
          "duration": 0.11770833333333286,
          "durationTicks": 113,
          "midi": 72,
          "name": "C5",
          "ticks": 16200,
          "time": 16.875,
          "velocity": 0.6299212598425197
        },
        {
          "duration": 0.236458333333335,
          "durationTicks": 227,
          "midi": 67,
          "name": "G4",
          "ticks": 16320,
          "time": 17,
          "velocity": 0.6299212598425197
        },
        {
          "duration": 0.236458333333335,
          "durationTicks": 227,
          "midi": 79,
          "name": "G5",
          "ticks": 16320,
          "time": 17,
          "velocity": 0.6299212598425197
        },
        {
          "duration": 0.236458333333335,
          "durationTicks": 227,
          "midi": 69,
          "name": "A4",
          "ticks": 16560,
          "time": 17.25,
          "velocity": 0.6299212598425197
        },
        {
          "duration": 0.236458333333335,
          "durationTicks": 227,
          "midi": 81,
          "name": "A5",
          "ticks": 16560,
          "time": 17.25,
          "velocity": 0.6299212598425197
        },
        {
          "duration": 0.11770833333333286,
          "durationTicks": 113,
          "midi": 74,
          "name": "D5",
          "ticks": 16800,
          "time": 17.5,
          "velocity": 0.6299212598425197
        },
        {
          "duration": 0.11770833333333286,
          "durationTicks": 113,
          "midi": 72,
          "name": "C5",
          "ticks": 16920,
          "time": 17.625,
          "velocity": 0.6299212598425197
        },
        {
          "duration": 0.11770833333333286,
          "durationTicks": 113,
          "midi": 74,
          "name": "D5",
          "ticks": 17040,
          "time": 17.75,
          "velocity": 0.6299212598425197
        },
        {
          "duration": 0.11770833333333286,
          "durationTicks": 113,
          "midi": 72,
          "name": "C5",
          "ticks": 17160,
          "time": 17.875,
          "velocity": 0.6299212598425197
        },
        {
          "duration": 0.236458333333335,
          "durationTicks": 227,
          "midi": 67,
          "name": "G4",
          "ticks": 17280,
          "time": 18,
          "velocity": 0.6299212598425197
        },
        {
          "duration": 0.236458333333335,
          "durationTicks": 227,
          "midi": 79,
          "name": "G5",
          "ticks": 17280,
          "time": 18,
          "velocity": 0.6299212598425197
        },
        {
          "duration": 0.236458333333335,
          "durationTicks": 227,
          "midi": 69,
          "name": "A4",
          "ticks": 17520,
          "time": 18.25,
          "velocity": 0.6299212598425197
        },
        {
          "duration": 0.236458333333335,
          "durationTicks": 227,
          "midi": 81,
          "name": "A5",
          "ticks": 17520,
          "time": 18.25,
          "velocity": 0.6299212598425197
        },
        {
          "duration": 0.11770833333333286,
          "durationTicks": 113,
          "midi": 74,
          "name": "D5",
          "ticks": 17760,
          "time": 18.5,
          "velocity": 0.6299212598425197
        },
        {
          "duration": 0.11770833333333286,
          "durationTicks": 113,
          "midi": 72,
          "name": "C5",
          "ticks": 17880,
          "time": 18.625,
          "velocity": 0.6299212598425197
        },
        {
          "duration": 0.11770833333333286,
          "durationTicks": 113,
          "midi": 74,
          "name": "D5",
          "ticks": 18000,
          "time": 18.75,
          "velocity": 0.6299212598425197
        },
        {
          "duration": 0.11770833333333286,
          "durationTicks": 113,
          "midi": 72,
          "name": "C5",
          "ticks": 18120,
          "time": 18.875,
          "velocity": 0.6299212598425197
        },
        {
          "duration": 0.236458333333335,
          "durationTicks": 227,
          "midi": 77,
          "name": "F5",
          "ticks": 18240,
          "time": 19,
          "velocity": 0.6299212598425197
        },
        {
          "duration": 0.078125,
          "durationTicks": 75,
          "midi": 76,
          "name": "E5",
          "ticks": 18480,
          "time": 19.25,
          "velocity": 0.6299212598425197
        },
        {
          "duration": 0.078125,
          "durationTicks": 75,
          "midi": 77,
          "name": "F5",
          "ticks": 18560,
          "time": 19.333333333333332,
          "velocity": 0.6299212598425197
        },
        {
          "duration": 0.078125,
          "durationTicks": 75,
          "midi": 76,
          "name": "E5",
          "ticks": 18640,
          "time": 19.416666666666668,
          "velocity": 0.6299212598425197
        },
        {
          "duration": 0.236458333333335,
          "durationTicks": 227,
          "midi": 74,
          "name": "D5",
          "ticks": 18720,
          "time": 19.5,
          "velocity": 0.6299212598425197
        },
        {
          "duration": 0.236458333333335,
          "durationTicks": 227,
          "midi": 72,
          "name": "C5",
          "ticks": 18960,
          "time": 19.75,
          "velocity": 0.6299212598425197
        },
        {
          "duration": 0.236458333333335,
          "durationTicks": 227,
          "midi": 74,
          "name": "D5",
          "ticks": 19200,
          "time": 20,
          "velocity": 0.6299212598425197
        },
        {
          "duration": 0.11770833333333286,
          "durationTicks": 113,
          "midi": 72,
          "name": "C5",
          "ticks": 19440,
          "time": 20.25,
          "velocity": 0.6299212598425197
        },
        {
          "duration": 0.11770833333333286,
          "durationTicks": 113,
          "midi": 74,
          "name": "D5",
          "ticks": 19560,
          "time": 20.375,
          "velocity": 0.6299212598425197
        },
        {
          "duration": 0.236458333333335,
          "durationTicks": 227,
          "midi": 77,
          "name": "F5",
          "ticks": 19680,
          "time": 20.5,
          "velocity": 0.6299212598425197
        },
        {
          "duration": 0.11770833333333286,
          "durationTicks": 113,
          "midi": 74,
          "name": "D5",
          "ticks": 19920,
          "time": 20.75,
          "velocity": 0.6299212598425197
        },
        {
          "duration": 0.11770833333333286,
          "durationTicks": 113,
          "midi": 77,
          "name": "F5",
          "ticks": 20040,
          "time": 20.875,
          "velocity": 0.6299212598425197
        },
        {
          "duration": 0.11770833333333286,
          "durationTicks": 113,
          "midi": 79,
          "name": "G5",
          "ticks": 20160,
          "time": 21,
          "velocity": 0.6299212598425197
        },
        {
          "duration": 0.11770833333333286,
          "durationTicks": 113,
          "midi": 84,
          "name": "C6",
          "ticks": 20280,
          "time": 21.125,
          "velocity": 0.6299212598425197
        },
        {
          "duration": 0.11770833333333286,
          "durationTicks": 113,
          "midi": 79,
          "name": "G5",
          "ticks": 20400,
          "time": 21.25,
          "velocity": 0.6299212598425197
        },
        {
          "duration": 0.11770833333333286,
          "durationTicks": 113,
          "midi": 81,
          "name": "A5",
          "ticks": 20520,
          "time": 21.375,
          "velocity": 0.6299212598425197
        },
        {
          "duration": 0.11770833333333286,
          "durationTicks": 113,
          "midi": 84,
          "name": "C6",
          "ticks": 20640,
          "time": 21.5,
          "velocity": 0.6299212598425197
        },
        {
          "duration": 0.11770833333333286,
          "durationTicks": 113,
          "midi": 89,
          "name": "F6",
          "ticks": 20760,
          "time": 21.625,
          "velocity": 0.6299212598425197
        },
        {
          "duration": 0.11770833333333286,
          "durationTicks": 113,
          "midi": 81,
          "name": "A5",
          "ticks": 20880,
          "time": 21.75,
          "velocity": 0.6299212598425197
        },
        {
          "duration": 0.11770833333333286,
          "durationTicks": 113,
          "midi": 84,
          "name": "C6",
          "ticks": 21000,
          "time": 21.875,
          "velocity": 0.6299212598425197
        },
        {
          "duration": 0.236458333333335,
          "durationTicks": 227,
          "midi": 89,
          "name": "F6",
          "ticks": 21120,
          "time": 22,
          "velocity": 0.6299212598425197
        },
        {
          "duration": 0.11770833333333286,
          "durationTicks": 113,
          "midi": 88,
          "name": "E6",
          "ticks": 21360,
          "time": 22.25,
          "velocity": 0.6299212598425197
        },
        {
          "duration": 0.11770833333333286,
          "durationTicks": 113,
          "midi": 89,
          "name": "F6",
          "ticks": 21480,
          "time": 22.375,
          "velocity": 0.6299212598425197
        },
        {
          "duration": 0.11770833333333286,
          "durationTicks": 113,
          "midi": 88,
          "name": "E6",
          "ticks": 21600,
          "time": 22.5,
          "velocity": 0.6299212598425197
        },
        {
          "duration": 0.236458333333335,
          "durationTicks": 227,
          "midi": 86,
          "name": "D6",
          "ticks": 21720,
          "time": 22.625,
          "velocity": 0.6299212598425197
        },
        {
          "duration": 0.236458333333335,
          "durationTicks": 227,
          "midi": 84,
          "name": "C6",
          "ticks": 21960,
          "time": 22.875,
          "velocity": 0.6299212598425197
        },
        {
          "duration": 0.236458333333335,
          "durationTicks": 227,
          "midi": 86,
          "name": "D6",
          "ticks": 22200,
          "time": 23.125,
          "velocity": 0.6299212598425197
        },
        {
          "duration": 0.236458333333335,
          "durationTicks": 227,
          "midi": 84,
          "name": "C6",
          "ticks": 22440,
          "time": 23.375,
          "velocity": 0.6299212598425197
        },
        {
          "duration": 0.236458333333335,
          "durationTicks": 227,
          "midi": 81,
          "name": "A5",
          "ticks": 22680,
          "time": 23.625,
          "velocity": 0.6299212598425197
        },
        {
          "duration": 0.236458333333335,
          "durationTicks": 227,
          "midi": 86,
          "name": "D6",
          "ticks": 22680,
          "time": 23.625,
          "velocity": 0.6299212598425197
        },
        {
          "duration": 0.236458333333335,
          "durationTicks": 227,
          "midi": 84,
          "name": "C6",
          "ticks": 22920,
          "time": 23.875,
          "velocity": 0.6299212598425197
        },
        {
          "duration": 0.236458333333335,
          "durationTicks": 227,
          "midi": 89,
          "name": "F6",
          "ticks": 22920,
          "time": 23.875,
          "velocity": 0.6299212598425197
        },
        {
          "duration": 0.236458333333335,
          "durationTicks": 227,
          "midi": 67,
          "name": "G4",
          "ticks": 23160,
          "time": 24.125,
          "velocity": 0.6299212598425197
        },
        {
          "duration": 0.236458333333335,
          "durationTicks": 227,
          "midi": 79,
          "name": "G5",
          "ticks": 23160,
          "time": 24.125,
          "velocity": 0.6299212598425197
        },
        {
          "duration": 0.236458333333335,
          "durationTicks": 227,
          "midi": 69,
          "name": "A4",
          "ticks": 23400,
          "time": 24.375,
          "velocity": 0.6299212598425197
        },
        {
          "duration": 0.236458333333335,
          "durationTicks": 227,
          "midi": 81,
          "name": "A5",
          "ticks": 23400,
          "time": 24.375,
          "velocity": 0.6299212598425197
        },
        {
          "duration": 0.11770833333333286,
          "durationTicks": 113,
          "midi": 74,
          "name": "D5",
          "ticks": 23640,
          "time": 24.625,
          "velocity": 0.6299212598425197
        },
        {
          "duration": 0.11770833333333286,
          "durationTicks": 113,
          "midi": 72,
          "name": "C5",
          "ticks": 23760,
          "time": 24.75,
          "velocity": 0.6299212598425197
        },
        {
          "duration": 0.11770833333333286,
          "durationTicks": 113,
          "midi": 74,
          "name": "D5",
          "ticks": 23880,
          "time": 24.875,
          "velocity": 0.6299212598425197
        },
        {
          "duration": 0.11770833333333286,
          "durationTicks": 113,
          "midi": 72,
          "name": "C5",
          "ticks": 24000,
          "time": 25,
          "velocity": 0.6299212598425197
        },
        {
          "duration": 0.236458333333335,
          "durationTicks": 227,
          "midi": 67,
          "name": "G4",
          "ticks": 24120,
          "time": 25.125,
          "velocity": 0.6299212598425197
        },
        {
          "duration": 0.236458333333335,
          "durationTicks": 227,
          "midi": 79,
          "name": "G5",
          "ticks": 24120,
          "time": 25.125,
          "velocity": 0.6299212598425197
        },
        {
          "duration": 0.236458333333335,
          "durationTicks": 227,
          "midi": 69,
          "name": "A4",
          "ticks": 24360,
          "time": 25.375,
          "velocity": 0.6299212598425197
        },
        {
          "duration": 0.236458333333335,
          "durationTicks": 227,
          "midi": 81,
          "name": "A5",
          "ticks": 24360,
          "time": 25.375,
          "velocity": 0.6299212598425197
        },
        {
          "duration": 0.11770833333333286,
          "durationTicks": 113,
          "midi": 74,
          "name": "D5",
          "ticks": 24600,
          "time": 25.625,
          "velocity": 0.6299212598425197
        },
        {
          "duration": 0.11770833333333286,
          "durationTicks": 113,
          "midi": 72,
          "name": "C5",
          "ticks": 24720,
          "time": 25.75,
          "velocity": 0.6299212598425197
        },
        {
          "duration": 0.11770833333333286,
          "durationTicks": 113,
          "midi": 74,
          "name": "D5",
          "ticks": 24840,
          "time": 25.875,
          "velocity": 0.6299212598425197
        },
        {
          "duration": 0.11770833333333286,
          "durationTicks": 113,
          "midi": 72,
          "name": "C5",
          "ticks": 24960,
          "time": 26,
          "velocity": 0.6299212598425197
        },
        {
          "duration": 0.236458333333335,
          "durationTicks": 227,
          "midi": 67,
          "name": "G4",
          "ticks": 25080,
          "time": 26.125,
          "velocity": 0.6299212598425197
        },
        {
          "duration": 0.236458333333335,
          "durationTicks": 227,
          "midi": 79,
          "name": "G5",
          "ticks": 25080,
          "time": 26.125,
          "velocity": 0.6299212598425197
        },
        {
          "duration": 0.236458333333335,
          "durationTicks": 227,
          "midi": 69,
          "name": "A4",
          "ticks": 25320,
          "time": 26.375,
          "velocity": 0.6299212598425197
        },
        {
          "duration": 0.236458333333335,
          "durationTicks": 227,
          "midi": 81,
          "name": "A5",
          "ticks": 25320,
          "time": 26.375,
          "velocity": 0.6299212598425197
        },
        {
          "duration": 0.11770833333333286,
          "durationTicks": 113,
          "midi": 74,
          "name": "D5",
          "ticks": 25560,
          "time": 26.625,
          "velocity": 0.6299212598425197
        },
        {
          "duration": 0.11770833333333286,
          "durationTicks": 113,
          "midi": 72,
          "name": "C5",
          "ticks": 25680,
          "time": 26.75,
          "velocity": 0.6299212598425197
        },
        {
          "duration": 0.11770833333333286,
          "durationTicks": 113,
          "midi": 74,
          "name": "D5",
          "ticks": 25800,
          "time": 26.875,
          "velocity": 0.6299212598425197
        },
        {
          "duration": 0.11770833333333286,
          "durationTicks": 113,
          "midi": 72,
          "name": "C5",
          "ticks": 25920,
          "time": 27,
          "velocity": 0.6299212598425197
        },
        {
          "duration": 0.236458333333335,
          "durationTicks": 227,
          "midi": 72,
          "name": "C5",
          "ticks": 26040,
          "time": 27.125,
          "velocity": 0.6299212598425197
        },
        {
          "duration": 0.236458333333335,
          "durationTicks": 227,
          "midi": 77,
          "name": "F5",
          "ticks": 26040,
          "time": 27.125,
          "velocity": 0.6299212598425197
        },
        {
          "duration": 0.078125,
          "durationTicks": 75,
          "midi": 76,
          "name": "E5",
          "ticks": 26280,
          "time": 27.375,
          "velocity": 0.6299212598425197
        },
        {
          "duration": 0.078125,
          "durationTicks": 75,
          "midi": 77,
          "name": "F5",
          "ticks": 26360,
          "time": 27.458333333333332,
          "velocity": 0.6299212598425197
        },
        {
          "duration": 0.078125,
          "durationTicks": 75,
          "midi": 76,
          "name": "E5",
          "ticks": 26440,
          "time": 27.541666666666668,
          "velocity": 0.6299212598425197
        },
        {
          "duration": 0.236458333333335,
          "durationTicks": 227,
          "midi": 74,
          "name": "D5",
          "ticks": 26520,
          "time": 27.625,
          "velocity": 0.6299212598425197
        },
        {
          "duration": 0.236458333333335,
          "durationTicks": 227,
          "midi": 72,
          "name": "C5",
          "ticks": 26760,
          "time": 27.875,
          "velocity": 0.6299212598425197
        },
        {
          "duration": 0.236458333333335,
          "durationTicks": 227,
          "midi": 67,
          "name": "G4",
          "ticks": 27000,
          "time": 28.125,
          "velocity": 0.6299212598425197
        },
        {
          "duration": 0.236458333333335,
          "durationTicks": 227,
          "midi": 79,
          "name": "G5",
          "ticks": 27000,
          "time": 28.125,
          "velocity": 0.6299212598425197
        },
        {
          "duration": 0.236458333333335,
          "durationTicks": 227,
          "midi": 69,
          "name": "A4",
          "ticks": 27240,
          "time": 28.375,
          "velocity": 0.6299212598425197
        },
        {
          "duration": 0.236458333333335,
          "durationTicks": 227,
          "midi": 81,
          "name": "A5",
          "ticks": 27240,
          "time": 28.375,
          "velocity": 0.6299212598425197
        },
        {
          "duration": 0.11770833333333286,
          "durationTicks": 113,
          "midi": 74,
          "name": "D5",
          "ticks": 27480,
          "time": 28.625,
          "velocity": 0.6299212598425197
        },
        {
          "duration": 0.11770833333333286,
          "durationTicks": 113,
          "midi": 72,
          "name": "C5",
          "ticks": 27600,
          "time": 28.75,
          "velocity": 0.6299212598425197
        },
        {
          "duration": 0.11770833333333286,
          "durationTicks": 113,
          "midi": 74,
          "name": "D5",
          "ticks": 27720,
          "time": 28.875,
          "velocity": 0.6299212598425197
        },
        {
          "duration": 0.11770833333333286,
          "durationTicks": 113,
          "midi": 72,
          "name": "C5",
          "ticks": 27840,
          "time": 29,
          "velocity": 0.6299212598425197
        },
        {
          "duration": 0.236458333333335,
          "durationTicks": 227,
          "midi": 67,
          "name": "G4",
          "ticks": 27960,
          "time": 29.125,
          "velocity": 0.6299212598425197
        },
        {
          "duration": 0.236458333333335,
          "durationTicks": 227,
          "midi": 79,
          "name": "G5",
          "ticks": 27960,
          "time": 29.125,
          "velocity": 0.6299212598425197
        },
        {
          "duration": 0.236458333333335,
          "durationTicks": 227,
          "midi": 69,
          "name": "A4",
          "ticks": 28200,
          "time": 29.375,
          "velocity": 0.6299212598425197
        },
        {
          "duration": 0.236458333333335,
          "durationTicks": 227,
          "midi": 81,
          "name": "A5",
          "ticks": 28200,
          "time": 29.375,
          "velocity": 0.6299212598425197
        },
        {
          "duration": 0.11770833333333286,
          "durationTicks": 113,
          "midi": 74,
          "name": "D5",
          "ticks": 28440,
          "time": 29.625,
          "velocity": 0.6299212598425197
        },
        {
          "duration": 0.11770833333333286,
          "durationTicks": 113,
          "midi": 72,
          "name": "C5",
          "ticks": 28560,
          "time": 29.75,
          "velocity": 0.6299212598425197
        },
        {
          "duration": 0.11770833333333286,
          "durationTicks": 113,
          "midi": 74,
          "name": "D5",
          "ticks": 28680,
          "time": 29.875,
          "velocity": 0.6299212598425197
        },
        {
          "duration": 0.11770833333333286,
          "durationTicks": 113,
          "midi": 72,
          "name": "C5",
          "ticks": 28800,
          "time": 30,
          "velocity": 0.6299212598425197
        },
        {
          "duration": 0.236458333333335,
          "durationTicks": 227,
          "midi": 67,
          "name": "G4",
          "ticks": 28920,
          "time": 30.125,
          "velocity": 0.6299212598425197
        },
        {
          "duration": 0.236458333333335,
          "durationTicks": 227,
          "midi": 69,
          "name": "A4",
          "ticks": 29160,
          "time": 30.375,
          "velocity": 0.6299212598425197
        },
        {
          "duration": 0.236458333333335,
          "durationTicks": 227,
          "midi": 72,
          "name": "C5",
          "ticks": 29400,
          "time": 30.625,
          "velocity": 0.6299212598425197
        },
        {
          "duration": 0.236458333333335,
          "durationTicks": 227,
          "midi": 77,
          "name": "F5",
          "ticks": 29640,
          "time": 30.875,
          "velocity": 0.6299212598425197
        },
        {
          "duration": 0.11770833333333286,
          "durationTicks": 113,
          "midi": 76,
          "name": "E5",
          "ticks": 29880,
          "time": 31.125,
          "velocity": 0.6299212598425197
        },
        {
          "duration": 0.11770833333333286,
          "durationTicks": 113,
          "midi": 77,
          "name": "F5",
          "ticks": 30000,
          "time": 31.25,
          "velocity": 0.6299212598425197
        },
        {
          "duration": 0.11770833333333286,
          "durationTicks": 113,
          "midi": 76,
          "name": "E5",
          "ticks": 30120,
          "time": 31.375,
          "velocity": 0.6299212598425197
        },
        {
          "duration": 0.11770833333333286,
          "durationTicks": 113,
          "midi": 74,
          "name": "D5",
          "ticks": 30240,
          "time": 31.5,
          "velocity": 0.6299212598425197
        },
        {
          "duration": 0.236458333333335,
          "durationTicks": 227,
          "midi": 72,
          "name": "C5",
          "ticks": 30360,
          "time": 31.625,
          "velocity": 0.6299212598425197
        },
        {
          "duration": 0.23645833333333144,
          "durationTicks": 227,
          "midi": 69,
          "name": "A4",
          "ticks": 30600,
          "time": 31.875,
          "velocity": 0.6299212598425197
        },
        {
          "duration": 0.23645833333333144,
          "durationTicks": 227,
          "midi": 67,
          "name": "G4",
          "ticks": 30840,
          "time": 32.125,
          "velocity": 0.6299212598425197
        },
        {
          "duration": 0.23645833333333144,
          "durationTicks": 227,
          "midi": 79,
          "name": "G5",
          "ticks": 30840,
          "time": 32.125,
          "velocity": 0.6299212598425197
        },
        {
          "duration": 0.23645833333333144,
          "durationTicks": 227,
          "midi": 69,
          "name": "A4",
          "ticks": 31080,
          "time": 32.375,
          "velocity": 0.6299212598425197
        },
        {
          "duration": 0.23645833333333144,
          "durationTicks": 227,
          "midi": 81,
          "name": "A5",
          "ticks": 31080,
          "time": 32.375,
          "velocity": 0.6299212598425197
        },
        {
          "duration": 0.11770833333333286,
          "durationTicks": 113,
          "midi": 74,
          "name": "D5",
          "ticks": 31320,
          "time": 32.625,
          "velocity": 0.6299212598425197
        },
        {
          "duration": 0.11770833333333286,
          "durationTicks": 113,
          "midi": 72,
          "name": "C5",
          "ticks": 31440,
          "time": 32.75,
          "velocity": 0.6299212598425197
        },
        {
          "duration": 0.11770833333333286,
          "durationTicks": 113,
          "midi": 74,
          "name": "D5",
          "ticks": 31560,
          "time": 32.875,
          "velocity": 0.6299212598425197
        },
        {
          "duration": 0.11770833333333286,
          "durationTicks": 113,
          "midi": 72,
          "name": "C5",
          "ticks": 31680,
          "time": 33,
          "velocity": 0.6299212598425197
        },
        {
          "duration": 0.23645833333333144,
          "durationTicks": 227,
          "midi": 67,
          "name": "G4",
          "ticks": 31800,
          "time": 33.125,
          "velocity": 0.6299212598425197
        },
        {
          "duration": 0.23645833333333144,
          "durationTicks": 227,
          "midi": 79,
          "name": "G5",
          "ticks": 31800,
          "time": 33.125,
          "velocity": 0.6299212598425197
        },
        {
          "duration": 0.23645833333333144,
          "durationTicks": 227,
          "midi": 69,
          "name": "A4",
          "ticks": 32040,
          "time": 33.375,
          "velocity": 0.6299212598425197
        },
        {
          "duration": 0.23645833333333144,
          "durationTicks": 227,
          "midi": 81,
          "name": "A5",
          "ticks": 32040,
          "time": 33.375,
          "velocity": 0.6299212598425197
        },
        {
          "duration": 0.11770833333333286,
          "durationTicks": 113,
          "midi": 74,
          "name": "D5",
          "ticks": 32280,
          "time": 33.625,
          "velocity": 0.6299212598425197
        },
        {
          "duration": 0.11770833333333286,
          "durationTicks": 113,
          "midi": 72,
          "name": "C5",
          "ticks": 32400,
          "time": 33.75,
          "velocity": 0.6299212598425197
        },
        {
          "duration": 0.11770833333333286,
          "durationTicks": 113,
          "midi": 74,
          "name": "D5",
          "ticks": 32520,
          "time": 33.875,
          "velocity": 0.6299212598425197
        },
        {
          "duration": 0.11770833333333286,
          "durationTicks": 113,
          "midi": 72,
          "name": "C5",
          "ticks": 32640,
          "time": 34,
          "velocity": 0.6299212598425197
        },
        {
          "duration": 0.23645833333333144,
          "durationTicks": 227,
          "midi": 67,
          "name": "G4",
          "ticks": 32760,
          "time": 34.125,
          "velocity": 0.6299212598425197
        },
        {
          "duration": 0.23645833333333144,
          "durationTicks": 227,
          "midi": 79,
          "name": "G5",
          "ticks": 32760,
          "time": 34.125,
          "velocity": 0.6299212598425197
        },
        {
          "duration": 0.23645833333333144,
          "durationTicks": 227,
          "midi": 69,
          "name": "A4",
          "ticks": 33000,
          "time": 34.375,
          "velocity": 0.6299212598425197
        },
        {
          "duration": 0.23645833333333144,
          "durationTicks": 227,
          "midi": 81,
          "name": "A5",
          "ticks": 33000,
          "time": 34.375,
          "velocity": 0.6299212598425197
        },
        {
          "duration": 0.11770833333333286,
          "durationTicks": 113,
          "midi": 74,
          "name": "D5",
          "ticks": 33240,
          "time": 34.625,
          "velocity": 0.6299212598425197
        },
        {
          "duration": 0.11770833333333286,
          "durationTicks": 113,
          "midi": 72,
          "name": "C5",
          "ticks": 33360,
          "time": 34.75,
          "velocity": 0.6299212598425197
        },
        {
          "duration": 0.11770833333333286,
          "durationTicks": 113,
          "midi": 74,
          "name": "D5",
          "ticks": 33480,
          "time": 34.875,
          "velocity": 0.6299212598425197
        },
        {
          "duration": 0.11770833333333286,
          "durationTicks": 113,
          "midi": 72,
          "name": "C5",
          "ticks": 33600,
          "time": 35,
          "velocity": 0.6299212598425197
        },
        {
          "duration": 0.23645833333333144,
          "durationTicks": 227,
          "midi": 72,
          "name": "C5",
          "ticks": 33720,
          "time": 35.125,
          "velocity": 0.6299212598425197
        },
        {
          "duration": 0.23645833333333144,
          "durationTicks": 227,
          "midi": 77,
          "name": "F5",
          "ticks": 33720,
          "time": 35.125,
          "velocity": 0.6299212598425197
        },
        {
          "duration": 0.078125,
          "durationTicks": 75,
          "midi": 76,
          "name": "E5",
          "ticks": 33960,
          "time": 35.375,
          "velocity": 0.6299212598425197
        },
        {
          "duration": 0.078125,
          "durationTicks": 75,
          "midi": 77,
          "name": "F5",
          "ticks": 34040,
          "time": 35.458333333333336,
          "velocity": 0.6299212598425197
        },
        {
          "duration": 0.078125,
          "durationTicks": 75,
          "midi": 76,
          "name": "E5",
          "ticks": 34120,
          "time": 35.541666666666664,
          "velocity": 0.6299212598425197
        },
        {
          "duration": 0.23645833333333144,
          "durationTicks": 227,
          "midi": 74,
          "name": "D5",
          "ticks": 34200,
          "time": 35.625,
          "velocity": 0.6299212598425197
        },
        {
          "duration": 0.23645833333333144,
          "durationTicks": 227,
          "midi": 72,
          "name": "C5",
          "ticks": 34440,
          "time": 35.875,
          "velocity": 0.6299212598425197
        },
        {
          "duration": 0.23645833333333144,
          "durationTicks": 227,
          "midi": 74,
          "name": "D5",
          "ticks": 34680,
          "time": 36.125,
          "velocity": 0.6299212598425197
        },
        {
          "duration": 0.23645833333333144,
          "durationTicks": 227,
          "midi": 77,
          "name": "F5",
          "ticks": 34680,
          "time": 36.125,
          "velocity": 0.6299212598425197
        },
        {
          "duration": 0.23645833333333144,
          "durationTicks": 227,
          "midi": 79,
          "name": "G5",
          "ticks": 34680,
          "time": 36.125,
          "velocity": 0.6299212598425197
        },
        {
          "duration": 0.11770833333333286,
          "durationTicks": 113,
          "midi": 81,
          "name": "A5",
          "ticks": 34920,
          "time": 36.375,
          "velocity": 0.6299212598425197
        },
        {
          "duration": 0.11770833333333286,
          "durationTicks": 113,
          "midi": 84,
          "name": "C6",
          "ticks": 35040,
          "time": 36.5,
          "velocity": 0.6299212598425197
        },
        {
          "duration": 0.11770833333333286,
          "durationTicks": 113,
          "midi": 86,
          "name": "D6",
          "ticks": 35160,
          "time": 36.625,
          "velocity": 0.6299212598425197
        },
        {
          "duration": 0.11770833333333286,
          "durationTicks": 113,
          "midi": 84,
          "name": "C6",
          "ticks": 35280,
          "time": 36.75,
          "velocity": 0.6299212598425197
        },
        {
          "duration": 0.11770833333333286,
          "durationTicks": 113,
          "midi": 81,
          "name": "A5",
          "ticks": 35400,
          "time": 36.875,
          "velocity": 0.6299212598425197
        },
        {
          "duration": 0.11770833333333286,
          "durationTicks": 113,
          "midi": 79,
          "name": "G5",
          "ticks": 35520,
          "time": 37,
          "velocity": 0.6299212598425197
        },
        {
          "duration": 0.23645833333333144,
          "durationTicks": 227,
          "midi": 74,
          "name": "D5",
          "ticks": 35640,
          "time": 37.125,
          "velocity": 0.6299212598425197
        },
        {
          "duration": 0.23645833333333144,
          "durationTicks": 227,
          "midi": 77,
          "name": "F5",
          "ticks": 35880,
          "time": 37.375,
          "velocity": 0.6299212598425197
        },
        {
          "duration": 0.23645833333333144,
          "durationTicks": 227,
          "midi": 74,
          "name": "D5",
          "ticks": 36120,
          "time": 37.625,
          "velocity": 0.6299212598425197
        },
        {
          "duration": 0.23645833333333144,
          "durationTicks": 227,
          "midi": 79,
          "name": "G5",
          "ticks": 36120,
          "time": 37.625,
          "velocity": 0.6299212598425197
        },
        {
          "duration": 0.23645833333333144,
          "durationTicks": 227,
          "midi": 72,
          "name": "C5",
          "ticks": 36360,
          "time": 37.875,
          "velocity": 0.6299212598425197
        },
        {
          "duration": 0.23645833333333144,
          "durationTicks": 227,
          "midi": 81,
          "name": "A5",
          "ticks": 36360,
          "time": 37.875,
          "velocity": 0.6299212598425197
        },
        {
          "duration": 0.35520833333333,
          "durationTicks": 341,
          "midi": 81,
          "name": "A5",
          "ticks": 36600,
          "time": 38.125,
          "velocity": 0.6299212598425197
        },
        {
          "duration": 0.35520833333333,
          "durationTicks": 341,
          "midi": 86,
          "name": "D6",
          "ticks": 36600,
          "time": 38.125,
          "velocity": 0.6299212598425197
        },
        {
          "duration": 0.35520833333333,
          "durationTicks": 341,
          "midi": 89,
          "name": "F6",
          "ticks": 36600,
          "time": 38.125,
          "velocity": 0.6299212598425197
        },
        {
          "duration": 0.36145833333333144,
          "durationTicks": 347,
          "midi": 81,
          "name": "A5",
          "ticks": 36960,
          "time": 38.5,
          "velocity": 0.6299212598425197
        },
        {
          "duration": 0.12395833333333428,
          "durationTicks": 119,
          "midi": 86,
          "name": "D6",
          "ticks": 36960,
          "time": 38.5,
          "velocity": 0.6299212598425197
        },
        {
          "duration": 0.36145833333333144,
          "durationTicks": 347,
          "midi": 89,
          "name": "F6",
          "ticks": 36960,
          "time": 38.5,
          "velocity": 0.6299212598425197
        },
        {
          "duration": 0.23645833333333144,
          "durationTicks": 227,
          "midi": 86,
          "name": "D6",
          "ticks": 37080,
          "time": 38.625,
          "velocity": 0.6299212598425197
        },
        {
          "duration": 0.23645833333333144,
          "durationTicks": 227,
          "midi": 84,
          "name": "C6",
          "ticks": 37320,
          "time": 38.875,
          "velocity": 0.6299212598425197
        },
        {
          "duration": 0.4739583333333357,
          "durationTicks": 455,
          "midi": 81,
          "name": "A5",
          "ticks": 37560,
          "time": 39.125,
          "velocity": 0.6299212598425197
        },
        {
          "duration": 0.4739583333333357,
          "durationTicks": 455,
          "midi": 86,
          "name": "D6",
          "ticks": 37560,
          "time": 39.125,
          "velocity": 0.6299212598425197
        },
        {
          "duration": 0.23645833333333144,
          "durationTicks": 227,
          "midi": 93,
          "name": "A6",
          "ticks": 38040,
          "time": 39.625,
          "velocity": 0.6299212598425197
        },
        {
          "duration": 0.23645833333333144,
          "durationTicks": 227,
          "midi": 69,
          "name": "A4",
          "ticks": 38280,
          "time": 39.875,
          "velocity": 0.6299212598425197
        },
        {
          "duration": 0.4739583333333357,
          "durationTicks": 455,
          "midi": 69,
          "name": "A4",
          "ticks": 38520,
          "time": 40.125,
          "velocity": 0.6299212598425197
        },
        {
          "duration": 0.4739583333333357,
          "durationTicks": 455,
          "midi": 74,
          "name": "D5",
          "ticks": 38520,
          "time": 40.125,
          "velocity": 0.6299212598425197
        },
        {
          "duration": 0.35520833333333,
          "durationTicks": 341,
          "midi": 69,
          "name": "A4",
          "ticks": 39000,
          "time": 40.625,
          "velocity": 0.6299212598425197
        },
        {
          "duration": 0.35520833333333,
          "durationTicks": 341,
          "midi": 74,
          "name": "D5",
          "ticks": 39000,
          "time": 40.625,
          "velocity": 0.6299212598425197
        },
        {
          "duration": 0.11770833333333286,
          "durationTicks": 113,
          "midi": 72,
          "name": "C5",
          "ticks": 39360,
          "time": 41,
          "velocity": 0.6299212598425197
        },
        {
          "duration": 0.23645833333333144,
          "durationTicks": 227,
          "midi": 74,
          "name": "D5",
          "ticks": 39480,
          "time": 41.125,
          "velocity": 0.6299212598425197
        },
        {
          "duration": 0.23645833333333144,
          "durationTicks": 227,
          "midi": 77,
          "name": "F5",
          "ticks": 39720,
          "time": 41.375,
          "velocity": 0.6299212598425197
        },
        {
          "duration": 0.23645833333333144,
          "durationTicks": 227,
          "midi": 67,
          "name": "G4",
          "ticks": 39960,
          "time": 41.625,
          "velocity": 0.6299212598425197
        },
        {
          "duration": 0.23645833333333144,
          "durationTicks": 227,
          "midi": 79,
          "name": "G5",
          "ticks": 39960,
          "time": 41.625,
          "velocity": 0.6299212598425197
        },
        {
          "duration": 0.23645833333333144,
          "durationTicks": 227,
          "midi": 69,
          "name": "A4",
          "ticks": 40200,
          "time": 41.875,
          "velocity": 0.6299212598425197
        },
        {
          "duration": 0.23645833333333144,
          "durationTicks": 227,
          "midi": 81,
          "name": "A5",
          "ticks": 40200,
          "time": 41.875,
          "velocity": 0.6299212598425197
        },
        {
          "duration": 0.4739583333333357,
          "durationTicks": 455,
          "midi": 69,
          "name": "A4",
          "ticks": 40440,
          "time": 42.125,
          "velocity": 0.6299212598425197
        },
        {
          "duration": 0.4739583333333357,
          "durationTicks": 455,
          "midi": 74,
          "name": "D5",
          "ticks": 40440,
          "time": 42.125,
          "velocity": 0.6299212598425197
        },
        {
          "duration": 0.35520833333333,
          "durationTicks": 341,
          "midi": 69,
          "name": "A4",
          "ticks": 40920,
          "time": 42.625,
          "velocity": 0.6299212598425197
        },
        {
          "duration": 0.35520833333333,
          "durationTicks": 341,
          "midi": 74,
          "name": "D5",
          "ticks": 40920,
          "time": 42.625,
          "velocity": 0.6299212598425197
        },
        {
          "duration": 0.11770833333333286,
          "durationTicks": 113,
          "midi": 72,
          "name": "C5",
          "ticks": 41280,
          "time": 43,
          "velocity": 0.6299212598425197
        },
        {
          "duration": 0.23645833333333144,
          "durationTicks": 227,
          "midi": 74,
          "name": "D5",
          "ticks": 41400,
          "time": 43.125,
          "velocity": 0.6299212598425197
        },
        {
          "duration": 0.23645833333333144,
          "durationTicks": 227,
          "midi": 72,
          "name": "C5",
          "ticks": 41640,
          "time": 43.375,
          "velocity": 0.6299212598425197
        },
        {
          "duration": 0.23645833333333144,
          "durationTicks": 227,
          "midi": 69,
          "name": "A4",
          "ticks": 41880,
          "time": 43.625,
          "velocity": 0.6299212598425197
        },
        {
          "duration": 0.23645833333333144,
          "durationTicks": 227,
          "midi": 72,
          "name": "C5",
          "ticks": 42120,
          "time": 43.875,
          "velocity": 0.6299212598425197
        },
        {
          "duration": 0.4739583333333357,
          "durationTicks": 455,
          "midi": 69,
          "name": "A4",
          "ticks": 42360,
          "time": 44.125,
          "velocity": 0.6299212598425197
        },
        {
          "duration": 0.4739583333333357,
          "durationTicks": 455,
          "midi": 74,
          "name": "D5",
          "ticks": 42360,
          "time": 44.125,
          "velocity": 0.6299212598425197
        },
        {
          "duration": 0.35520833333333,
          "durationTicks": 341,
          "midi": 69,
          "name": "A4",
          "ticks": 42840,
          "time": 44.625,
          "velocity": 0.6299212598425197
        },
        {
          "duration": 0.35520833333333,
          "durationTicks": 341,
          "midi": 74,
          "name": "D5",
          "ticks": 42840,
          "time": 44.625,
          "velocity": 0.6299212598425197
        },
        {
          "duration": 0.23645833333333144,
          "durationTicks": 227,
          "midi": 67,
          "name": "G4",
          "ticks": 43320,
          "time": 45.125,
          "velocity": 0.6299212598425197
        },
        {
          "duration": 0.23645833333333144,
          "durationTicks": 227,
          "midi": 69,
          "name": "A4",
          "ticks": 43560,
          "time": 45.375,
          "velocity": 0.6299212598425197
        },
        {
          "duration": 0.23645833333333144,
          "durationTicks": 227,
          "midi": 72,
          "name": "C5",
          "ticks": 43800,
          "time": 45.625,
          "velocity": 0.6299212598425197
        },
        {
          "duration": 0.23645833333333144,
          "durationTicks": 227,
          "midi": 74,
          "name": "D5",
          "ticks": 44040,
          "time": 45.875,
          "velocity": 0.6299212598425197
        },
        {
          "duration": 0.4739583333333357,
          "durationTicks": 455,
          "midi": 74,
          "name": "D5",
          "ticks": 44280,
          "time": 46.125,
          "velocity": 0.6299212598425197
        },
        {
          "duration": 0.4739583333333357,
          "durationTicks": 455,
          "midi": 77,
          "name": "F5",
          "ticks": 44280,
          "time": 46.125,
          "velocity": 0.6299212598425197
        },
        {
          "duration": 0.4739583333333357,
          "durationTicks": 455,
          "midi": 81,
          "name": "A5",
          "ticks": 44280,
          "time": 46.125,
          "velocity": 0.6299212598425197
        },
        {
          "duration": 0.11770833333333286,
          "durationTicks": 113,
          "midi": 79,
          "name": "G5",
          "ticks": 44760,
          "time": 46.625,
          "velocity": 0.6299212598425197
        },
        {
          "duration": 0.11770833333333286,
          "durationTicks": 113,
          "midi": 81,
          "name": "A5",
          "ticks": 44880,
          "time": 46.75,
          "velocity": 0.6299212598425197
        },
        {
          "duration": 0.23645833333333144,
          "durationTicks": 227,
          "midi": 79,
          "name": "G5",
          "ticks": 45000,
          "time": 46.875,
          "velocity": 0.6299212598425197
        },
        {
          "duration": 0.4739583333333357,
          "durationTicks": 455,
          "midi": 72,
          "name": "C5",
          "ticks": 45240,
          "time": 47.125,
          "velocity": 0.6299212598425197
        },
        {
          "duration": 0.4739583333333357,
          "durationTicks": 455,
          "midi": 77,
          "name": "F5",
          "ticks": 45240,
          "time": 47.125,
          "velocity": 0.6299212598425197
        },
        {
          "duration": 0.4739583333333357,
          "durationTicks": 455,
          "midi": 74,
          "name": "D5",
          "ticks": 45720,
          "time": 47.625,
          "velocity": 0.6299212598425197
        },
        {
          "duration": 0.23645833333333144,
          "durationTicks": 227,
          "midi": 74,
          "name": "D5",
          "ticks": 46200,
          "time": 48.125,
          "velocity": 0.6299212598425197
        },
        {
          "duration": 0.11770833333333286,
          "durationTicks": 113,
          "midi": 74,
          "name": "D5",
          "ticks": 46560,
          "time": 48.5,
          "velocity": 0.6299212598425197
        },
        {
          "duration": 0.35520833333333,
          "durationTicks": 341,
          "midi": 74,
          "name": "D5",
          "ticks": 46680,
          "time": 48.625,
          "velocity": 0.6299212598425197
        },
        {
          "duration": 0.11770833333333286,
          "durationTicks": 113,
          "midi": 72,
          "name": "C5",
          "ticks": 47040,
          "time": 49,
          "velocity": 0.6299212598425197
        },
        {
          "duration": 0.23645833333333144,
          "durationTicks": 227,
          "midi": 72,
          "name": "C5",
          "ticks": 47160,
          "time": 49.125,
          "velocity": 0.6299212598425197
        },
        {
          "duration": 0.23645833333333144,
          "durationTicks": 227,
          "midi": 74,
          "name": "D5",
          "ticks": 47400,
          "time": 49.375,
          "velocity": 0.6299212598425197
        },
        {
          "duration": 0.23645833333333144,
          "durationTicks": 227,
          "midi": 77,
          "name": "F5",
          "ticks": 47640,
          "time": 49.625,
          "velocity": 0.6299212598425197
        },
        {
          "duration": 0.23645833333333144,
          "durationTicks": 227,
          "midi": 79,
          "name": "G5",
          "ticks": 47880,
          "time": 49.875,
          "velocity": 0.6299212598425197
        },
        {
          "duration": 0.23645833333333144,
          "durationTicks": 227,
          "midi": 74,
          "name": "D5",
          "ticks": 48120,
          "time": 50.125,
          "velocity": 0.6299212598425197
        },
        {
          "duration": 0.11770833333333286,
          "durationTicks": 113,
          "midi": 72,
          "name": "C5",
          "ticks": 48480,
          "time": 50.5,
          "velocity": 0.6299212598425197
        },
        {
          "duration": 0.35520833333333,
          "durationTicks": 341,
          "midi": 69,
          "name": "A4",
          "ticks": 48600,
          "time": 50.625,
          "velocity": 0.6299212598425197
        },
        {
          "duration": 0.11770833333333286,
          "durationTicks": 113,
          "midi": 72,
          "name": "C5",
          "ticks": 48960,
          "time": 51,
          "velocity": 0.6299212598425197
        },
        {
          "duration": 0.23645833333333144,
          "durationTicks": 227,
          "midi": 74,
          "name": "D5",
          "ticks": 49080,
          "time": 51.125,
          "velocity": 0.6299212598425197
        },
        {
          "duration": 0.23645833333333144,
          "durationTicks": 227,
          "midi": 72,
          "name": "C5",
          "ticks": 49320,
          "time": 51.375,
          "velocity": 0.6299212598425197
        },
        {
          "duration": 0.23645833333333144,
          "durationTicks": 227,
          "midi": 69,
          "name": "A4",
          "ticks": 49560,
          "time": 51.625,
          "velocity": 0.6299212598425197
        },
        {
          "duration": 0.23645833333333144,
          "durationTicks": 227,
          "midi": 72,
          "name": "C5",
          "ticks": 49800,
          "time": 51.875,
          "velocity": 0.6299212598425197
        },
        {
          "duration": 0.4739583333333357,
          "durationTicks": 455,
          "midi": 69,
          "name": "A4",
          "ticks": 50040,
          "time": 52.125,
          "velocity": 0.6299212598425197
        },
        {
          "duration": 0.4739583333333357,
          "durationTicks": 455,
          "midi": 74,
          "name": "D5",
          "ticks": 50040,
          "time": 52.125,
          "velocity": 0.6299212598425197
        },
        {
          "duration": 0.35520833333333,
          "durationTicks": 341,
          "midi": 69,
          "name": "A4",
          "ticks": 50760,
          "time": 52.875,
          "velocity": 0.6299212598425197
        },
        {
          "duration": 0.35520833333333,
          "durationTicks": 341,
          "midi": 74,
          "name": "D5",
          "ticks": 50760,
          "time": 52.875,
          "velocity": 0.6299212598425197
        },
        {
          "duration": 0.11770833333333286,
          "durationTicks": 113,
          "midi": 72,
          "name": "C5",
          "ticks": 51120,
          "time": 53.25,
          "velocity": 0.6299212598425197
        },
        {
          "duration": 0.23645833333333144,
          "durationTicks": 227,
          "midi": 72,
          "name": "C5",
          "ticks": 51240,
          "time": 53.375,
          "velocity": 0.6299212598425197
        },
        {
          "duration": 0.23645833333333144,
          "durationTicks": 227,
          "midi": 74,
          "name": "D5",
          "ticks": 51480,
          "time": 53.625,
          "velocity": 0.6299212598425197
        },
        {
          "duration": 0.23645833333333144,
          "durationTicks": 227,
          "midi": 77,
          "name": "F5",
          "ticks": 51720,
          "time": 53.875,
          "velocity": 0.6299212598425197
        },
        {
          "duration": 0.23645833333333144,
          "durationTicks": 227,
          "midi": 79,
          "name": "G5",
          "ticks": 51960,
          "time": 54.125,
          "velocity": 0.6299212598425197
        },
        {
          "duration": 0.23645833333333144,
          "durationTicks": 227,
          "midi": 74,
          "name": "D5",
          "ticks": 52200,
          "time": 54.375,
          "velocity": 0.6299212598425197
        },
        {
          "duration": 0.23645833333333144,
          "durationTicks": 227,
          "midi": 81,
          "name": "A5",
          "ticks": 52200,
          "time": 54.375,
          "velocity": 0.6299212598425197
        },
        {
          "duration": 0.11770833333333286,
          "durationTicks": 113,
          "midi": 86,
          "name": "D6",
          "ticks": 52440,
          "time": 54.625,
          "velocity": 0.6299212598425197
        },
        {
          "duration": 0.23645833333333144,
          "durationTicks": 227,
          "midi": 74,
          "name": "D5",
          "ticks": 52680,
          "time": 54.875,
          "velocity": 0.6299212598425197
        },
        {
          "duration": 0.23645833333333144,
          "durationTicks": 227,
          "midi": 79,
          "name": "G5",
          "ticks": 52680,
          "time": 54.875,
          "velocity": 0.6299212598425197
        },
        {
          "duration": 0.23645833333333144,
          "durationTicks": 227,
          "midi": 84,
          "name": "C6",
          "ticks": 52680,
          "time": 54.875,
          "velocity": 0.6299212598425197
        },
        {
          "duration": 0.11770833333333286,
          "durationTicks": 113,
          "midi": 81,
          "name": "A5",
          "ticks": 52920,
          "time": 55.125,
          "velocity": 0.6299212598425197
        },
        {
          "duration": 0.11770833333333286,
          "durationTicks": 113,
          "midi": 79,
          "name": "G5",
          "ticks": 53040,
          "time": 55.25,
          "velocity": 0.6299212598425197
        },
        {
          "duration": 0.23645833333333144,
          "durationTicks": 227,
          "midi": 77,
          "name": "F5",
          "ticks": 53160,
          "time": 55.375,
          "velocity": 0.6299212598425197
        },
        {
          "duration": 0.23645833333333144,
          "durationTicks": 227,
          "midi": 74,
          "name": "D5",
          "ticks": 53640,
          "time": 55.875,
          "velocity": 0.6299212598425197
        },
        {
          "duration": 0.23645833333333144,
          "durationTicks": 227,
          "midi": 72,
          "name": "C5",
          "ticks": 53880,
          "time": 56.125,
          "velocity": 0.6299212598425197
        },
        {
          "duration": 0.4739583333333357,
          "durationTicks": 455,
          "midi": 69,
          "name": "A4",
          "ticks": 54120,
          "time": 56.375,
          "velocity": 0.6299212598425197
        },
        {
          "duration": 0.4739583333333357,
          "durationTicks": 455,
          "midi": 74,
          "name": "D5",
          "ticks": 54120,
          "time": 56.375,
          "velocity": 0.6299212598425197
        },
        {
          "duration": 0.4739583333333357,
          "durationTicks": 455,
          "midi": 77,
          "name": "F5",
          "ticks": 54120,
          "time": 56.375,
          "velocity": 0.6299212598425197
        },
        {
          "duration": 0.4739583333333357,
          "durationTicks": 455,
          "midi": 69,
          "name": "A4",
          "ticks": 54600,
          "time": 56.875,
          "velocity": 0.6299212598425197
        },
        {
          "duration": 0.4739583333333357,
          "durationTicks": 455,
          "midi": 72,
          "name": "C5",
          "ticks": 54600,
          "time": 56.875,
          "velocity": 0.6299212598425197
        },
        {
          "duration": 0.4739583333333357,
          "durationTicks": 455,
          "midi": 76,
          "name": "E5",
          "ticks": 54600,
          "time": 56.875,
          "velocity": 0.6299212598425197
        },
        {
          "duration": 0.4739583333333357,
          "durationTicks": 455,
          "midi": 65,
          "name": "F4",
          "ticks": 55080,
          "time": 57.375,
          "velocity": 0.6299212598425197
        },
        {
          "duration": 0.4739583333333357,
          "durationTicks": 455,
          "midi": 70,
          "name": "A#4",
          "ticks": 55080,
          "time": 57.375,
          "velocity": 0.6299212598425197
        },
        {
          "duration": 0.4739583333333357,
          "durationTicks": 455,
          "midi": 74,
          "name": "D5",
          "ticks": 55080,
          "time": 57.375,
          "velocity": 0.6299212598425197
        },
        {
          "duration": 0.4739583333333357,
          "durationTicks": 455,
          "midi": 65,
          "name": "F4",
          "ticks": 55560,
          "time": 57.875,
          "velocity": 0.6299212598425197
        },
        {
          "duration": 0.4739583333333357,
          "durationTicks": 455,
          "midi": 72,
          "name": "C5",
          "ticks": 55560,
          "time": 57.875,
          "velocity": 0.6299212598425197
        },
        {
          "duration": 0.23645833333333144,
          "durationTicks": 227,
          "midi": 65,
          "name": "F4",
          "ticks": 56040,
          "time": 58.375,
          "velocity": 0.6299212598425197
        },
        {
          "duration": 0.23645833333333144,
          "durationTicks": 227,
          "midi": 72,
          "name": "C5",
          "ticks": 56040,
          "time": 58.375,
          "velocity": 0.6299212598425197
        },
        {
          "duration": 0.11770833333333286,
          "durationTicks": 113,
          "midi": 74,
          "name": "D5",
          "ticks": 56280,
          "time": 58.625,
          "velocity": 0.6299212598425197
        },
        {
          "duration": 0.11770833333333286,
          "durationTicks": 113,
          "midi": 72,
          "name": "C5",
          "ticks": 56400,
          "time": 58.75,
          "velocity": 0.6299212598425197
        },
        {
          "duration": 0.23645833333333144,
          "durationTicks": 227,
          "midi": 69,
          "name": "A4",
          "ticks": 56520,
          "time": 58.875,
          "velocity": 0.6299212598425197
        },
        {
          "duration": 0.23645833333333144,
          "durationTicks": 227,
          "midi": 67,
          "name": "G4",
          "ticks": 56760,
          "time": 59.125,
          "velocity": 0.6299212598425197
        },
        {
          "duration": 0.11770833333333286,
          "durationTicks": 113,
          "midi": 69,
          "name": "A4",
          "ticks": 57000,
          "time": 59.375,
          "velocity": 0.6299212598425197
        },
        {
          "duration": 0.11770833333333286,
          "durationTicks": 113,
          "midi": 77,
          "name": "F5",
          "ticks": 57120,
          "time": 59.5,
          "velocity": 0.6299212598425197
        },
        {
          "duration": 0.11770833333333286,
          "durationTicks": 113,
          "midi": 76,
          "name": "E5",
          "ticks": 57240,
          "time": 59.625,
          "velocity": 0.6299212598425197
        },
        {
          "duration": 0.11770833333333286,
          "durationTicks": 113,
          "midi": 74,
          "name": "D5",
          "ticks": 57360,
          "time": 59.75,
          "velocity": 0.6299212598425197
        },
        {
          "duration": 0.11770833333333286,
          "durationTicks": 113,
          "midi": 72,
          "name": "C5",
          "ticks": 57480,
          "time": 59.875,
          "velocity": 0.6299212598425197
        },
        {
          "duration": 0.11770833333333286,
          "durationTicks": 113,
          "midi": 69,
          "name": "A4",
          "ticks": 57600,
          "time": 60,
          "velocity": 0.6299212598425197
        },
        {
          "duration": 0.11770833333333286,
          "durationTicks": 113,
          "midi": 65,
          "name": "F4",
          "ticks": 57720,
          "time": 60.125,
          "velocity": 0.6299212598425197
        },
        {
          "duration": 0.23645833333333144,
          "durationTicks": 227,
          "midi": 67,
          "name": "G4",
          "ticks": 57960,
          "time": 60.375,
          "velocity": 0.6299212598425197
        },
        {
          "duration": 0.23645833333333144,
          "durationTicks": 227,
          "midi": 70,
          "name": "A#4",
          "ticks": 57960,
          "time": 60.375,
          "velocity": 0.6299212598425197
        },
        {
          "duration": 0.23645833333333144,
          "durationTicks": 227,
          "midi": 67,
          "name": "G4",
          "ticks": 58200,
          "time": 60.625,
          "velocity": 0.6299212598425197
        },
        {
          "duration": 0.23645833333333144,
          "durationTicks": 227,
          "midi": 70,
          "name": "A#4",
          "ticks": 58200,
          "time": 60.625,
          "velocity": 0.6299212598425197
        },
        {
          "duration": 0.4739583333333357,
          "durationTicks": 455,
          "midi": 67,
          "name": "G4",
          "ticks": 58440,
          "time": 60.875,
          "velocity": 0.6299212598425197
        },
        {
          "duration": 0.4739583333333357,
          "durationTicks": 455,
          "midi": 70,
          "name": "A#4",
          "ticks": 58440,
          "time": 60.875,
          "velocity": 0.6299212598425197
        },
        {
          "duration": 0.4739583333333357,
          "durationTicks": 455,
          "midi": 74,
          "name": "D5",
          "ticks": 58440,
          "time": 60.875,
          "velocity": 0.6299212598425197
        },
        {
          "duration": 0.4739583333333357,
          "durationTicks": 455,
          "midi": 67,
          "name": "G4",
          "ticks": 58920,
          "time": 61.375,
          "velocity": 0.6299212598425197
        },
        {
          "duration": 0.4739583333333357,
          "durationTicks": 455,
          "midi": 79,
          "name": "G5",
          "ticks": 58920,
          "time": 61.375,
          "velocity": 0.6299212598425197
        },
        {
          "duration": 0.4739583333333357,
          "durationTicks": 455,
          "midi": 67,
          "name": "G4",
          "ticks": 59400,
          "time": 61.875,
          "velocity": 0.6299212598425197
        },
        {
          "duration": 0.4739583333333357,
          "durationTicks": 455,
          "midi": 72,
          "name": "C5",
          "ticks": 59400,
          "time": 61.875,
          "velocity": 0.6299212598425197
        },
        {
          "duration": 0.4739583333333357,
          "durationTicks": 455,
          "midi": 76,
          "name": "E5",
          "ticks": 59400,
          "time": 61.875,
          "velocity": 0.6299212598425197
        },
        {
          "duration": 0.4739583333333357,
          "durationTicks": 455,
          "midi": 69,
          "name": "A4",
          "ticks": 59880,
          "time": 62.375,
          "velocity": 0.6299212598425197
        },
        {
          "duration": 0.4739583333333357,
          "durationTicks": 455,
          "midi": 72,
          "name": "C5",
          "ticks": 59880,
          "time": 62.375,
          "velocity": 0.6299212598425197
        },
        {
          "duration": 0.4739583333333357,
          "durationTicks": 455,
          "midi": 74,
          "name": "D5",
          "ticks": 59880,
          "time": 62.375,
          "velocity": 0.6299212598425197
        },
        {
          "duration": 0.4739583333333357,
          "durationTicks": 455,
          "midi": 77,
          "name": "F5",
          "ticks": 59880,
          "time": 62.375,
          "velocity": 0.6299212598425197
        },
        {
          "duration": 0.23645833333333144,
          "durationTicks": 227,
          "midi": 69,
          "name": "A4",
          "ticks": 60360,
          "time": 62.875,
          "velocity": 0.6299212598425197
        },
        {
          "duration": 0.23645833333333144,
          "durationTicks": 227,
          "midi": 74,
          "name": "D5",
          "ticks": 60360,
          "time": 62.875,
          "velocity": 0.6299212598425197
        },
        {
          "duration": 0.23645833333333144,
          "durationTicks": 227,
          "midi": 76,
          "name": "E5",
          "ticks": 60360,
          "time": 62.875,
          "velocity": 0.6299212598425197
        },
        {
          "duration": 0.23645833333333144,
          "durationTicks": 227,
          "midi": 72,
          "name": "C5",
          "ticks": 60600,
          "time": 63.125,
          "velocity": 0.6299212598425197
        },
        {
          "duration": 0.23645833333333144,
          "durationTicks": 227,
          "midi": 69,
          "name": "A4",
          "ticks": 60840,
          "time": 63.375,
          "velocity": 0.6299212598425197
        },
        {
          "duration": 0.23645833333333144,
          "durationTicks": 227,
          "midi": 74,
          "name": "D5",
          "ticks": 60840,
          "time": 63.375,
          "velocity": 0.6299212598425197
        },
        {
          "duration": 0.23645833333333144,
          "durationTicks": 227,
          "midi": 81,
          "name": "A5",
          "ticks": 60840,
          "time": 63.375,
          "velocity": 0.6299212598425197
        },
        {
          "duration": 0.23645833333333144,
          "durationTicks": 227,
          "midi": 79,
          "name": "G5",
          "ticks": 61080,
          "time": 63.625,
          "velocity": 0.6299212598425197
        },
        {
          "duration": 0.23645833333333144,
          "durationTicks": 227,
          "midi": 77,
          "name": "F5",
          "ticks": 61320,
          "time": 63.875,
          "velocity": 0.6299212598425197
        },
        {
          "duration": 0.23645833333333144,
          "durationTicks": 227,
          "midi": 76,
          "name": "E5",
          "ticks": 61560,
          "time": 64.125,
          "velocity": 0.6299212598425197
        },
        {
          "duration": 0.4739583333333286,
          "durationTicks": 455,
          "midi": 69,
          "name": "A4",
          "ticks": 61800,
          "time": 64.375,
          "velocity": 0.6299212598425197
        },
        {
          "duration": 0.4739583333333286,
          "durationTicks": 455,
          "midi": 77,
          "name": "F5",
          "ticks": 61800,
          "time": 64.375,
          "velocity": 0.6299212598425197
        },
        {
          "duration": 0.4739583333333286,
          "durationTicks": 455,
          "midi": 76,
          "name": "E5",
          "ticks": 62280,
          "time": 64.875,
          "velocity": 0.6299212598425197
        },
        {
          "duration": 0.4739583333333286,
          "durationTicks": 455,
          "midi": 65,
          "name": "F4",
          "ticks": 62760,
          "time": 65.375,
          "velocity": 0.6299212598425197
        },
        {
          "duration": 0.4739583333333286,
          "durationTicks": 455,
          "midi": 74,
          "name": "D5",
          "ticks": 62760,
          "time": 65.375,
          "velocity": 0.6299212598425197
        },
        {
          "duration": 0.4739583333333286,
          "durationTicks": 455,
          "midi": 72,
          "name": "C5",
          "ticks": 63240,
          "time": 65.875,
          "velocity": 0.6299212598425197
        },
        {
          "duration": 0.23645833333333144,
          "durationTicks": 227,
          "midi": 72,
          "name": "C5",
          "ticks": 63720,
          "time": 66.375,
          "velocity": 0.6299212598425197
        },
        {
          "duration": 0.11770833333333997,
          "durationTicks": 113,
          "midi": 74,
          "name": "D5",
          "ticks": 63960,
          "time": 66.625,
          "velocity": 0.6299212598425197
        },
        {
          "duration": 0.11770833333333997,
          "durationTicks": 113,
          "midi": 72,
          "name": "C5",
          "ticks": 64080,
          "time": 66.75,
          "velocity": 0.6299212598425197
        },
        {
          "duration": 0.23645833333333144,
          "durationTicks": 227,
          "midi": 69,
          "name": "A4",
          "ticks": 64200,
          "time": 66.875,
          "velocity": 0.6299212598425197
        },
        {
          "duration": 0.23645833333333144,
          "durationTicks": 227,
          "midi": 67,
          "name": "G4",
          "ticks": 64440,
          "time": 67.125,
          "velocity": 0.6299212598425197
        },
        {
          "duration": 0.11770833333333997,
          "durationTicks": 113,
          "midi": 69,
          "name": "A4",
          "ticks": 64680,
          "time": 67.375,
          "velocity": 0.6299212598425197
        },
        {
          "duration": 0.11770833333333997,
          "durationTicks": 113,
          "midi": 72,
          "name": "C5",
          "ticks": 64800,
          "time": 67.5,
          "velocity": 0.6299212598425197
        },
        {
          "duration": 0.11770833333333997,
          "durationTicks": 113,
          "midi": 74,
          "name": "D5",
          "ticks": 64920,
          "time": 67.625,
          "velocity": 0.6299212598425197
        },
        {
          "duration": 0.11770833333333997,
          "durationTicks": 113,
          "midi": 77,
          "name": "F5",
          "ticks": 65040,
          "time": 67.75,
          "velocity": 0.6299212598425197
        },
        {
          "duration": 0.23645833333333144,
          "durationTicks": 227,
          "midi": 69,
          "name": "A4",
          "ticks": 65160,
          "time": 67.875,
          "velocity": 0.6299212598425197
        },
        {
          "duration": 0.23645833333333144,
          "durationTicks": 227,
          "midi": 72,
          "name": "C5",
          "ticks": 65400,
          "time": 68.125,
          "velocity": 0.6299212598425197
        },
        {
          "duration": 0.23645833333333144,
          "durationTicks": 227,
          "midi": 67,
          "name": "G4",
          "ticks": 65640,
          "time": 68.375,
          "velocity": 0.6299212598425197
        },
        {
          "duration": 0.23645833333333144,
          "durationTicks": 227,
          "midi": 71,
          "name": "B4",
          "ticks": 65640,
          "time": 68.375,
          "velocity": 0.6299212598425197
        },
        {
          "duration": 0.23645833333333144,
          "durationTicks": 227,
          "midi": 74,
          "name": "D5",
          "ticks": 65640,
          "time": 68.375,
          "velocity": 0.6299212598425197
        },
        {
          "duration": 0.23645833333333144,
          "durationTicks": 227,
          "midi": 67,
          "name": "G4",
          "ticks": 65880,
          "time": 68.625,
          "velocity": 0.6299212598425197
        },
        {
          "duration": 0.23645833333333144,
          "durationTicks": 227,
          "midi": 71,
          "name": "B4",
          "ticks": 65880,
          "time": 68.625,
          "velocity": 0.6299212598425197
        },
        {
          "duration": 0.23645833333333144,
          "durationTicks": 227,
          "midi": 74,
          "name": "D5",
          "ticks": 65880,
          "time": 68.625,
          "velocity": 0.6299212598425197
        },
        {
          "duration": 0.23645833333333144,
          "durationTicks": 227,
          "midi": 67,
          "name": "G4",
          "ticks": 66360,
          "time": 69.125,
          "velocity": 0.6299212598425197
        },
        {
          "duration": 0.23645833333333144,
          "durationTicks": 227,
          "midi": 71,
          "name": "B4",
          "ticks": 66360,
          "time": 69.125,
          "velocity": 0.6299212598425197
        },
        {
          "duration": 0.23645833333333144,
          "durationTicks": 227,
          "midi": 74,
          "name": "D5",
          "ticks": 66360,
          "time": 69.125,
          "velocity": 0.6299212598425197
        },
        {
          "duration": 0.4739583333333286,
          "durationTicks": 455,
          "midi": 71,
          "name": "B4",
          "ticks": 66600,
          "time": 69.375,
          "velocity": 0.6299212598425197
        },
        {
          "duration": 0.4739583333333286,
          "durationTicks": 455,
          "midi": 74,
          "name": "D5",
          "ticks": 66600,
          "time": 69.375,
          "velocity": 0.6299212598425197
        },
        {
          "duration": 0.4739583333333286,
          "durationTicks": 455,
          "midi": 77,
          "name": "F5",
          "ticks": 66600,
          "time": 69.375,
          "velocity": 0.6299212598425197
        },
        {
          "duration": 0.4739583333333286,
          "durationTicks": 455,
          "midi": 71,
          "name": "B4",
          "ticks": 67080,
          "time": 69.875,
          "velocity": 0.6299212598425197
        },
        {
          "duration": 0.4739583333333286,
          "durationTicks": 455,
          "midi": 74,
          "name": "D5",
          "ticks": 67080,
          "time": 69.875,
          "velocity": 0.6299212598425197
        },
        {
          "duration": 0.4739583333333286,
          "durationTicks": 455,
          "midi": 79,
          "name": "G5",
          "ticks": 67080,
          "time": 69.875,
          "velocity": 0.6299212598425197
        },
        {
          "duration": 0.4739583333333286,
          "durationTicks": 455,
          "midi": 69,
          "name": "A4",
          "ticks": 67560,
          "time": 70.375,
          "velocity": 0.6299212598425197
        },
        {
          "duration": 0.4739583333333286,
          "durationTicks": 455,
          "midi": 73,
          "name": "C#5",
          "ticks": 67560,
          "time": 70.375,
          "velocity": 0.6299212598425197
        },
        {
          "duration": 0.4739583333333286,
          "durationTicks": 455,
          "midi": 76,
          "name": "E5",
          "ticks": 67560,
          "time": 70.375,
          "velocity": 0.6299212598425197
        },
        {
          "duration": 0.4739583333333286,
          "durationTicks": 455,
          "midi": 76,
          "name": "E5",
          "ticks": 68040,
          "time": 70.875,
          "velocity": 0.6299212598425197
        },
        {
          "duration": 0.4739583333333286,
          "durationTicks": 455,
          "midi": 81,
          "name": "A5",
          "ticks": 68040,
          "time": 70.875,
          "velocity": 0.6299212598425197
        },
        {
          "duration": 0.23645833333333144,
          "durationTicks": 227,
          "midi": 62,
          "name": "D4",
          "ticks": 69000,
          "time": 71.875,
          "velocity": 0.6299212598425197
        },
        {
          "duration": 0.23645833333333144,
          "durationTicks": 227,
          "midi": 74,
          "name": "D5",
          "ticks": 69000,
          "time": 71.875,
          "velocity": 0.6299212598425197
        },
        {
          "duration": 0.23645833333333144,
          "durationTicks": 227,
          "midi": 65,
          "name": "F4",
          "ticks": 69240,
          "time": 72.125,
          "velocity": 0.6299212598425197
        },
        {
          "duration": 0.23645833333333144,
          "durationTicks": 227,
          "midi": 77,
          "name": "F5",
          "ticks": 69240,
          "time": 72.125,
          "velocity": 0.6299212598425197
        },
        {
          "duration": 0.3552083333333371,
          "durationTicks": 341,
          "midi": 79,
          "name": "G5",
          "ticks": 69480,
          "time": 72.375,
          "velocity": 0.6299212598425197
        },
        {
          "duration": 0.3552083333333371,
          "durationTicks": 341,
          "midi": 79,
          "name": "G5",
          "ticks": 69840,
          "time": 72.75,
          "velocity": 0.6299212598425197
        },
        {
          "duration": 0.11770833333333997,
          "durationTicks": 113,
          "midi": 69,
          "name": "A4",
          "ticks": 70200,
          "time": 73.125,
          "velocity": 0.6299212598425197
        },
        {
          "duration": 0.11770833333333997,
          "durationTicks": 113,
          "midi": 81,
          "name": "A5",
          "ticks": 70200,
          "time": 73.125,
          "velocity": 0.6299212598425197
        },
        {
          "duration": 0.71145833333334,
          "durationTicks": 683,
          "midi": 69,
          "name": "A4",
          "ticks": 70440,
          "time": 73.375,
          "velocity": 0.6299212598425197
        },
        {
          "duration": 0.71145833333334,
          "durationTicks": 683,
          "midi": 74,
          "name": "D5",
          "ticks": 70440,
          "time": 73.375,
          "velocity": 0.6299212598425197
        },
        {
          "duration": 0.71145833333334,
          "durationTicks": 683,
          "midi": 81,
          "name": "A5",
          "ticks": 70440,
          "time": 73.375,
          "velocity": 0.6299212598425197
        },
        {
          "duration": 0.23645833333333144,
          "durationTicks": 227,
          "midi": 69,
          "name": "A4",
          "ticks": 71160,
          "time": 74.125,
          "velocity": 0.6299212598425197
        },
        {
          "duration": 0.23645833333333144,
          "durationTicks": 227,
          "midi": 74,
          "name": "D5",
          "ticks": 71160,
          "time": 74.125,
          "velocity": 0.6299212598425197
        },
        {
          "duration": 0.23645833333333144,
          "durationTicks": 227,
          "midi": 81,
          "name": "A5",
          "ticks": 71160,
          "time": 74.125,
          "velocity": 0.6299212598425197
        },
        {
          "duration": 0.23645833333333144,
          "durationTicks": 227,
          "midi": 76,
          "name": "E5",
          "ticks": 71400,
          "time": 74.375,
          "velocity": 0.6299212598425197
        },
        {
          "duration": 0.23645833333333144,
          "durationTicks": 227,
          "midi": 84,
          "name": "C6",
          "ticks": 71400,
          "time": 74.375,
          "velocity": 0.6299212598425197
        },
        {
          "duration": 0.23645833333333144,
          "durationTicks": 227,
          "midi": 86,
          "name": "D6",
          "ticks": 71640,
          "time": 74.625,
          "velocity": 0.6299212598425197
        },
        {
          "duration": 0.23645833333333144,
          "durationTicks": 227,
          "midi": 79,
          "name": "G5",
          "ticks": 71880,
          "time": 74.875,
          "velocity": 0.6299212598425197
        },
        {
          "duration": 0.23645833333333144,
          "durationTicks": 227,
          "midi": 77,
          "name": "F5",
          "ticks": 72120,
          "time": 75.125,
          "velocity": 0.6299212598425197
        },
        {
          "duration": 0.23645833333333144,
          "durationTicks": 227,
          "midi": 81,
          "name": "A5",
          "ticks": 72360,
          "time": 75.375,
          "velocity": 0.6299212598425197
        },
        {
          "duration": 0.23645833333333144,
          "durationTicks": 227,
          "midi": 89,
          "name": "F6",
          "ticks": 72360,
          "time": 75.375,
          "velocity": 0.6299212598425197
        },
        {
          "duration": 0.23645833333333144,
          "durationTicks": 227,
          "midi": 88,
          "name": "E6",
          "ticks": 72600,
          "time": 75.625,
          "velocity": 0.6299212598425197
        },
        {
          "duration": 0.23645833333333144,
          "durationTicks": 227,
          "midi": 74,
          "name": "D5",
          "ticks": 72840,
          "time": 75.875,
          "velocity": 0.6299212598425197
        },
        {
          "duration": 0.23645833333333144,
          "durationTicks": 227,
          "midi": 86,
          "name": "D6",
          "ticks": 72840,
          "time": 75.875,
          "velocity": 0.6299212598425197
        },
        {
          "duration": 0.23645833333333144,
          "durationTicks": 227,
          "midi": 77,
          "name": "F5",
          "ticks": 73080,
          "time": 76.125,
          "velocity": 0.6299212598425197
        },
        {
          "duration": 0.23645833333333144,
          "durationTicks": 227,
          "midi": 84,
          "name": "C6",
          "ticks": 73080,
          "time": 76.125,
          "velocity": 0.6299212598425197
        },
        {
          "duration": 0.3552083333333371,
          "durationTicks": 341,
          "midi": 74,
          "name": "D5",
          "ticks": 73320,
          "time": 76.375,
          "velocity": 0.6299212598425197
        },
        {
          "duration": 0.3552083333333371,
          "durationTicks": 341,
          "midi": 79,
          "name": "G5",
          "ticks": 73320,
          "time": 76.375,
          "velocity": 0.6299212598425197
        },
        {
          "duration": 0.3552083333333371,
          "durationTicks": 341,
          "midi": 84,
          "name": "C6",
          "ticks": 73320,
          "time": 76.375,
          "velocity": 0.6299212598425197
        },
        {
          "duration": 0.3552083333333371,
          "durationTicks": 341,
          "midi": 74,
          "name": "D5",
          "ticks": 73680,
          "time": 76.75,
          "velocity": 0.6299212598425197
        },
        {
          "duration": 0.3552083333333371,
          "durationTicks": 341,
          "midi": 79,
          "name": "G5",
          "ticks": 73680,
          "time": 76.75,
          "velocity": 0.6299212598425197
        },
        {
          "duration": 0.23645833333333144,
          "durationTicks": 227,
          "midi": 74,
          "name": "D5",
          "ticks": 74040,
          "time": 77.125,
          "velocity": 0.6299212598425197
        },
        {
          "duration": 0.23645833333333144,
          "durationTicks": 227,
          "midi": 77,
          "name": "F5",
          "ticks": 74040,
          "time": 77.125,
          "velocity": 0.6299212598425197
        },
        {
          "duration": 0.23645833333333144,
          "durationTicks": 227,
          "midi": 81,
          "name": "A5",
          "ticks": 74040,
          "time": 77.125,
          "velocity": 0.6299212598425197
        },
        {
          "duration": 0.71145833333334,
          "durationTicks": 683,
          "midi": 74,
          "name": "D5",
          "ticks": 74280,
          "time": 77.375,
          "velocity": 0.6299212598425197
        },
        {
          "duration": 0.71145833333334,
          "durationTicks": 683,
          "midi": 77,
          "name": "F5",
          "ticks": 74280,
          "time": 77.375,
          "velocity": 0.6299212598425197
        },
        {
          "duration": 0.71145833333334,
          "durationTicks": 683,
          "midi": 81,
          "name": "A5",
          "ticks": 74280,
          "time": 77.375,
          "velocity": 0.6299212598425197
        },
        {
          "duration": 0.23645833333333144,
          "durationTicks": 227,
          "midi": 74,
          "name": "D5",
          "ticks": 75000,
          "time": 78.125,
          "velocity": 0.6299212598425197
        },
        {
          "duration": 0.23645833333333144,
          "durationTicks": 227,
          "midi": 77,
          "name": "F5",
          "ticks": 75000,
          "time": 78.125,
          "velocity": 0.6299212598425197
        },
        {
          "duration": 0.23645833333333144,
          "durationTicks": 227,
          "midi": 81,
          "name": "A5",
          "ticks": 75000,
          "time": 78.125,
          "velocity": 0.6299212598425197
        },
        {
          "duration": 0.23645833333333144,
          "durationTicks": 227,
          "midi": 72,
          "name": "C5",
          "ticks": 75240,
          "time": 78.375,
          "velocity": 0.6299212598425197
        },
        {
          "duration": 0.23645833333333144,
          "durationTicks": 227,
          "midi": 82,
          "name": "A#5",
          "ticks": 75240,
          "time": 78.375,
          "velocity": 0.6299212598425197
        },
        {
          "duration": 0.23645833333333144,
          "durationTicks": 227,
          "midi": 74,
          "name": "D5",
          "ticks": 75480,
          "time": 78.625,
          "velocity": 0.6299212598425197
        },
        {
          "duration": 0.23645833333333144,
          "durationTicks": 227,
          "midi": 81,
          "name": "A5",
          "ticks": 75480,
          "time": 78.625,
          "velocity": 0.6299212598425197
        },
        {
          "duration": 0.23645833333333144,
          "durationTicks": 227,
          "midi": 72,
          "name": "C5",
          "ticks": 75720,
          "time": 78.875,
          "velocity": 0.6299212598425197
        },
        {
          "duration": 0.23645833333333144,
          "durationTicks": 227,
          "midi": 79,
          "name": "G5",
          "ticks": 75720,
          "time": 78.875,
          "velocity": 0.6299212598425197
        },
        {
          "duration": 0.23645833333333144,
          "durationTicks": 227,
          "midi": 77,
          "name": "F5",
          "ticks": 75960,
          "time": 79.125,
          "velocity": 0.6299212598425197
        },
        {
          "duration": 0.4739583333333286,
          "durationTicks": 455,
          "midi": 69,
          "name": "A4",
          "ticks": 76200,
          "time": 79.375,
          "velocity": 0.6299212598425197
        },
        {
          "duration": 0.4739583333333286,
          "durationTicks": 455,
          "midi": 72,
          "name": "C5",
          "ticks": 76200,
          "time": 79.375,
          "velocity": 0.6299212598425197
        },
        {
          "duration": 0.4739583333333286,
          "durationTicks": 455,
          "midi": 77,
          "name": "F5",
          "ticks": 76200,
          "time": 79.375,
          "velocity": 0.6299212598425197
        },
        {
          "duration": 0.23645833333333144,
          "durationTicks": 227,
          "midi": 74,
          "name": "D5",
          "ticks": 76680,
          "time": 79.875,
          "velocity": 0.6299212598425197
        },
        {
          "duration": 0.23645833333333144,
          "durationTicks": 227,
          "midi": 77,
          "name": "F5",
          "ticks": 76920,
          "time": 80.125,
          "velocity": 0.6299212598425197
        },
        {
          "duration": 0.3552083333333371,
          "durationTicks": 341,
          "midi": 74,
          "name": "D5",
          "ticks": 77160,
          "time": 80.375,
          "velocity": 0.6299212598425197
        },
        {
          "duration": 0.3552083333333371,
          "durationTicks": 341,
          "midi": 79,
          "name": "G5",
          "ticks": 77160,
          "time": 80.375,
          "velocity": 0.6299212598425197
        },
        {
          "duration": 0.11770833333333997,
          "durationTicks": 113,
          "midi": 74,
          "name": "D5",
          "ticks": 77520,
          "time": 80.75,
          "velocity": 0.6299212598425197
        },
        {
          "duration": 0.11770833333333997,
          "durationTicks": 113,
          "midi": 79,
          "name": "G5",
          "ticks": 77520,
          "time": 80.75,
          "velocity": 0.6299212598425197
        },
        {
          "duration": 0.23645833333333144,
          "durationTicks": 227,
          "midi": 84,
          "name": "C6",
          "ticks": 77640,
          "time": 80.875,
          "velocity": 0.6299212598425197
        },
        {
          "duration": 0.23645833333333144,
          "durationTicks": 227,
          "midi": 74,
          "name": "D5",
          "ticks": 77880,
          "time": 81.125,
          "velocity": 0.6299212598425197
        },
        {
          "duration": 0.23645833333333144,
          "durationTicks": 227,
          "midi": 77,
          "name": "F5",
          "ticks": 77880,
          "time": 81.125,
          "velocity": 0.6299212598425197
        },
        {
          "duration": 0.23645833333333144,
          "durationTicks": 227,
          "midi": 81,
          "name": "A5",
          "ticks": 77880,
          "time": 81.125,
          "velocity": 0.6299212598425197
        },
        {
          "duration": 0.71145833333334,
          "durationTicks": 683,
          "midi": 74,
          "name": "D5",
          "ticks": 78120,
          "time": 81.375,
          "velocity": 0.6299212598425197
        },
        {
          "duration": 0.71145833333334,
          "durationTicks": 683,
          "midi": 77,
          "name": "F5",
          "ticks": 78120,
          "time": 81.375,
          "velocity": 0.6299212598425197
        },
        {
          "duration": 0.71145833333334,
          "durationTicks": 683,
          "midi": 81,
          "name": "A5",
          "ticks": 78120,
          "time": 81.375,
          "velocity": 0.6299212598425197
        },
        {
          "duration": 0.71145833333334,
          "durationTicks": 683,
          "midi": 86,
          "name": "D6",
          "ticks": 78120,
          "time": 81.375,
          "velocity": 0.6299212598425197
        },
        {
          "duration": 0.23645833333333144,
          "durationTicks": 227,
          "midi": 74,
          "name": "D5",
          "ticks": 78840,
          "time": 82.125,
          "velocity": 0.6299212598425197
        },
        {
          "duration": 0.23645833333333144,
          "durationTicks": 227,
          "midi": 77,
          "name": "F5",
          "ticks": 78840,
          "time": 82.125,
          "velocity": 0.6299212598425197
        },
        {
          "duration": 0.23645833333333144,
          "durationTicks": 227,
          "midi": 81,
          "name": "A5",
          "ticks": 78840,
          "time": 82.125,
          "velocity": 0.6299212598425197
        },
        {
          "duration": 0.23645833333333144,
          "durationTicks": 227,
          "midi": 76,
          "name": "E5",
          "ticks": 79080,
          "time": 82.375,
          "velocity": 0.6299212598425197
        },
        {
          "duration": 0.23645833333333144,
          "durationTicks": 227,
          "midi": 84,
          "name": "C6",
          "ticks": 79080,
          "time": 82.375,
          "velocity": 0.6299212598425197
        },
        {
          "duration": 0.23645833333333144,
          "durationTicks": 227,
          "midi": 74,
          "name": "D5",
          "ticks": 79320,
          "time": 82.625,
          "velocity": 0.6299212598425197
        },
        {
          "duration": 0.23645833333333144,
          "durationTicks": 227,
          "midi": 86,
          "name": "D6",
          "ticks": 79320,
          "time": 82.625,
          "velocity": 0.6299212598425197
        },
        {
          "duration": 0.23645833333333144,
          "durationTicks": 227,
          "midi": 79,
          "name": "G5",
          "ticks": 79560,
          "time": 82.875,
          "velocity": 0.6299212598425197
        },
        {
          "duration": 0.23645833333333144,
          "durationTicks": 227,
          "midi": 77,
          "name": "F5",
          "ticks": 79800,
          "time": 83.125,
          "velocity": 0.6299212598425197
        },
        {
          "duration": 0.4739583333333286,
          "durationTicks": 455,
          "midi": 77,
          "name": "F5",
          "ticks": 80040,
          "time": 83.375,
          "velocity": 0.6299212598425197
        },
        {
          "duration": 0.4739583333333286,
          "durationTicks": 455,
          "midi": 81,
          "name": "A5",
          "ticks": 80040,
          "time": 83.375,
          "velocity": 0.6299212598425197
        },
        {
          "duration": 0.4739583333333286,
          "durationTicks": 455,
          "midi": 86,
          "name": "D6",
          "ticks": 80040,
          "time": 83.375,
          "velocity": 0.6299212598425197
        },
        {
          "duration": 0.23645833333333144,
          "durationTicks": 227,
          "midi": 74,
          "name": "D5",
          "ticks": 80520,
          "time": 83.875,
          "velocity": 0.6299212598425197
        },
        {
          "duration": 0.23645833333333144,
          "durationTicks": 227,
          "midi": 77,
          "name": "F5",
          "ticks": 80760,
          "time": 84.125,
          "velocity": 0.6299212598425197
        },
        {
          "duration": 0.4739583333333286,
          "durationTicks": 455,
          "midi": 74,
          "name": "D5",
          "ticks": 81000,
          "time": 84.375,
          "velocity": 0.6299212598425197
        },
        {
          "duration": 0.4739583333333286,
          "durationTicks": 455,
          "midi": 82,
          "name": "A#5",
          "ticks": 81000,
          "time": 84.375,
          "velocity": 0.6299212598425197
        },
        {
          "duration": 0.4739583333333286,
          "durationTicks": 455,
          "midi": 74,
          "name": "D5",
          "ticks": 81480,
          "time": 84.875,
          "velocity": 0.6299212598425197
        },
        {
          "duration": 0.4739583333333286,
          "durationTicks": 455,
          "midi": 81,
          "name": "A5",
          "ticks": 81480,
          "time": 84.875,
          "velocity": 0.6299212598425197
        },
        {
          "duration": 0.4739583333333286,
          "durationTicks": 455,
          "midi": 72,
          "name": "C5",
          "ticks": 81960,
          "time": 85.375,
          "velocity": 0.6299212598425197
        },
        {
          "duration": 0.4739583333333286,
          "durationTicks": 455,
          "midi": 76,
          "name": "E5",
          "ticks": 81960,
          "time": 85.375,
          "velocity": 0.6299212598425197
        },
        {
          "duration": 0.4739583333333286,
          "durationTicks": 455,
          "midi": 79,
          "name": "G5",
          "ticks": 81960,
          "time": 85.375,
          "velocity": 0.6299212598425197
        },
        {
          "duration": 0.4739583333333286,
          "durationTicks": 455,
          "midi": 72,
          "name": "C5",
          "ticks": 82440,
          "time": 85.875,
          "velocity": 0.6299212598425197
        },
        {
          "duration": 0.4739583333333286,
          "durationTicks": 455,
          "midi": 77,
          "name": "F5",
          "ticks": 82440,
          "time": 85.875,
          "velocity": 0.6299212598425197
        },
        {
          "duration": 0.4739583333333286,
          "durationTicks": 455,
          "midi": 81,
          "name": "A5",
          "ticks": 82440,
          "time": 85.875,
          "velocity": 0.6299212598425197
        },
        {
          "duration": 0.23645833333333144,
          "durationTicks": 227,
          "midi": 72,
          "name": "C5",
          "ticks": 82920,
          "time": 86.375,
          "velocity": 0.6299212598425197
        },
        {
          "duration": 0.23645833333333144,
          "durationTicks": 227,
          "midi": 79,
          "name": "G5",
          "ticks": 82920,
          "time": 86.375,
          "velocity": 0.6299212598425197
        },
        {
          "duration": 0.23645833333333144,
          "durationTicks": 227,
          "midi": 81,
          "name": "A5",
          "ticks": 83160,
          "time": 86.625,
          "velocity": 0.6299212598425197
        },
        {
          "duration": 0.23645833333333144,
          "durationTicks": 227,
          "midi": 72,
          "name": "C5",
          "ticks": 83400,
          "time": 86.875,
          "velocity": 0.6299212598425197
        },
        {
          "duration": 0.23645833333333144,
          "durationTicks": 227,
          "midi": 76,
          "name": "E5",
          "ticks": 83400,
          "time": 86.875,
          "velocity": 0.6299212598425197
        },
        {
          "duration": 0.23645833333333144,
          "durationTicks": 227,
          "midi": 72,
          "name": "C5",
          "ticks": 83640,
          "time": 87.125,
          "velocity": 0.6299212598425197
        },
        {
          "duration": 0.4739583333333286,
          "durationTicks": 455,
          "midi": 74,
          "name": "D5",
          "ticks": 83880,
          "time": 87.375,
          "velocity": 0.6299212598425197
        },
        {
          "duration": 0.23645833333333144,
          "durationTicks": 227,
          "midi": 62,
          "name": "D4",
          "ticks": 84360,
          "time": 87.875,
          "velocity": 0.6299212598425197
        },
        {
          "duration": 0.23645833333333144,
          "durationTicks": 227,
          "midi": 74,
          "name": "D5",
          "ticks": 84360,
          "time": 87.875,
          "velocity": 0.6299212598425197
        },
        {
          "duration": 0.23645833333333144,
          "durationTicks": 227,
          "midi": 65,
          "name": "F4",
          "ticks": 84600,
          "time": 88.125,
          "velocity": 0.6299212598425197
        },
        {
          "duration": 0.23645833333333144,
          "durationTicks": 227,
          "midi": 77,
          "name": "F5",
          "ticks": 84600,
          "time": 88.125,
          "velocity": 0.6299212598425197
        },
        {
          "duration": 0.3552083333333371,
          "durationTicks": 341,
          "midi": 67,
          "name": "G4",
          "ticks": 84840,
          "time": 88.375,
          "velocity": 0.6299212598425197
        },
        {
          "duration": 0.3552083333333371,
          "durationTicks": 341,
          "midi": 72,
          "name": "C5",
          "ticks": 84840,
          "time": 88.375,
          "velocity": 0.6299212598425197
        },
        {
          "duration": 0.3552083333333371,
          "durationTicks": 341,
          "midi": 79,
          "name": "G5",
          "ticks": 84840,
          "time": 88.375,
          "velocity": 0.6299212598425197
        },
        {
          "duration": 0.3552083333333371,
          "durationTicks": 341,
          "midi": 67,
          "name": "G4",
          "ticks": 85200,
          "time": 88.75,
          "velocity": 0.6299212598425197
        },
        {
          "duration": 0.3552083333333371,
          "durationTicks": 341,
          "midi": 74,
          "name": "D5",
          "ticks": 85200,
          "time": 88.75,
          "velocity": 0.6299212598425197
        },
        {
          "duration": 0.3552083333333371,
          "durationTicks": 341,
          "midi": 79,
          "name": "G5",
          "ticks": 85200,
          "time": 88.75,
          "velocity": 0.6299212598425197
        },
        {
          "duration": 0.23645833333333144,
          "durationTicks": 227,
          "midi": 69,
          "name": "A4",
          "ticks": 85560,
          "time": 89.125,
          "velocity": 0.6299212598425197
        },
        {
          "duration": 0.23645833333333144,
          "durationTicks": 227,
          "midi": 79,
          "name": "G5",
          "ticks": 85560,
          "time": 89.125,
          "velocity": 0.6299212598425197
        },
        {
          "duration": 0.23645833333333144,
          "durationTicks": 227,
          "midi": 81,
          "name": "A5",
          "ticks": 85560,
          "time": 89.125,
          "velocity": 0.6299212598425197
        },
        {
          "duration": 0.71145833333334,
          "durationTicks": 683,
          "midi": 69,
          "name": "A4",
          "ticks": 85800,
          "time": 89.375,
          "velocity": 0.6299212598425197
        },
        {
          "duration": 0.71145833333334,
          "durationTicks": 683,
          "midi": 74,
          "name": "D5",
          "ticks": 85800,
          "time": 89.375,
          "velocity": 0.6299212598425197
        },
        {
          "duration": 0.71145833333334,
          "durationTicks": 683,
          "midi": 81,
          "name": "A5",
          "ticks": 85800,
          "time": 89.375,
          "velocity": 0.6299212598425197
        },
        {
          "duration": 0.23645833333333144,
          "durationTicks": 227,
          "midi": 69,
          "name": "A4",
          "ticks": 86520,
          "time": 90.125,
          "velocity": 0.6299212598425197
        },
        {
          "duration": 0.23645833333333144,
          "durationTicks": 227,
          "midi": 72,
          "name": "C5",
          "ticks": 86520,
          "time": 90.125,
          "velocity": 0.6299212598425197
        },
        {
          "duration": 0.23645833333333144,
          "durationTicks": 227,
          "midi": 81,
          "name": "A5",
          "ticks": 86520,
          "time": 90.125,
          "velocity": 0.6299212598425197
        },
        {
          "duration": 0.15729166666666572,
          "durationTicks": 151,
          "midi": 76,
          "name": "E5",
          "ticks": 86760,
          "time": 90.375,
          "velocity": 0.6299212598425197
        },
        {
          "duration": 0.15729166666666572,
          "durationTicks": 151,
          "midi": 84,
          "name": "C6",
          "ticks": 86760,
          "time": 90.375,
          "velocity": 0.6299212598425197
        },
        {
          "duration": 0.15729166666666572,
          "durationTicks": 151,
          "midi": 86,
          "name": "D6",
          "ticks": 86920,
          "time": 90.54166666666667,
          "velocity": 0.6299212598425197
        },
        {
          "duration": 0.15729166666666572,
          "durationTicks": 151,
          "midi": 74,
          "name": "D5",
          "ticks": 87080,
          "time": 90.70833333333333,
          "velocity": 0.6299212598425197
        },
        {
          "duration": 0.23645833333333144,
          "durationTicks": 227,
          "midi": 77,
          "name": "F5",
          "ticks": 87240,
          "time": 90.875,
          "velocity": 0.6299212598425197
        },
        {
          "duration": 0.4739583333333286,
          "durationTicks": 455,
          "midi": 72,
          "name": "C5",
          "ticks": 87480,
          "time": 91.125,
          "velocity": 0.6299212598425197
        },
        {
          "duration": 0.4739583333333286,
          "durationTicks": 455,
          "midi": 77,
          "name": "F5",
          "ticks": 87480,
          "time": 91.125,
          "velocity": 0.6299212598425197
        },
        {
          "duration": 0.4739583333333286,
          "durationTicks": 455,
          "midi": 81,
          "name": "A5",
          "ticks": 87480,
          "time": 91.125,
          "velocity": 0.6299212598425197
        },
        {
          "duration": 0.23645833333333144,
          "durationTicks": 227,
          "midi": 74,
          "name": "D5",
          "ticks": 88200,
          "time": 91.875,
          "velocity": 0.6299212598425197
        },
        {
          "duration": 0.23645833333333144,
          "durationTicks": 227,
          "midi": 77,
          "name": "F5",
          "ticks": 88440,
          "time": 92.125,
          "velocity": 0.6299212598425197
        },
        {
          "duration": 0.3552083333333371,
          "durationTicks": 341,
          "midi": 74,
          "name": "D5",
          "ticks": 88680,
          "time": 92.375,
          "velocity": 0.6299212598425197
        },
        {
          "duration": 0.3552083333333371,
          "durationTicks": 341,
          "midi": 79,
          "name": "G5",
          "ticks": 88680,
          "time": 92.375,
          "velocity": 0.6299212598425197
        },
        {
          "duration": 0.3552083333333371,
          "durationTicks": 341,
          "midi": 74,
          "name": "D5",
          "ticks": 89040,
          "time": 92.75,
          "velocity": 0.6299212598425197
        },
        {
          "duration": 0.3552083333333371,
          "durationTicks": 341,
          "midi": 79,
          "name": "G5",
          "ticks": 89040,
          "time": 92.75,
          "velocity": 0.6299212598425197
        },
        {
          "duration": 0.23645833333333144,
          "durationTicks": 227,
          "midi": 74,
          "name": "D5",
          "ticks": 89400,
          "time": 93.125,
          "velocity": 0.6299212598425197
        },
        {
          "duration": 0.23645833333333144,
          "durationTicks": 227,
          "midi": 77,
          "name": "F5",
          "ticks": 89400,
          "time": 93.125,
          "velocity": 0.6299212598425197
        },
        {
          "duration": 0.23645833333333144,
          "durationTicks": 227,
          "midi": 81,
          "name": "A5",
          "ticks": 89400,
          "time": 93.125,
          "velocity": 0.6299212598425197
        },
        {
          "duration": 0.71145833333334,
          "durationTicks": 683,
          "midi": 74,
          "name": "D5",
          "ticks": 89640,
          "time": 93.375,
          "velocity": 0.6299212598425197
        },
        {
          "duration": 0.71145833333334,
          "durationTicks": 683,
          "midi": 77,
          "name": "F5",
          "ticks": 89640,
          "time": 93.375,
          "velocity": 0.6299212598425197
        },
        {
          "duration": 0.71145833333334,
          "durationTicks": 683,
          "midi": 81,
          "name": "A5",
          "ticks": 89640,
          "time": 93.375,
          "velocity": 0.6299212598425197
        },
        {
          "duration": 0.23645833333333144,
          "durationTicks": 227,
          "midi": 74,
          "name": "D5",
          "ticks": 90360,
          "time": 94.125,
          "velocity": 0.6299212598425197
        },
        {
          "duration": 0.23645833333333144,
          "durationTicks": 227,
          "midi": 77,
          "name": "F5",
          "ticks": 90360,
          "time": 94.125,
          "velocity": 0.6299212598425197
        },
        {
          "duration": 0.23645833333333144,
          "durationTicks": 227,
          "midi": 81,
          "name": "A5",
          "ticks": 90360,
          "time": 94.125,
          "velocity": 0.6299212598425197
        },
        {
          "duration": 0.23645833333333144,
          "durationTicks": 227,
          "midi": 74,
          "name": "D5",
          "ticks": 90600,
          "time": 94.375,
          "velocity": 0.6299212598425197
        },
        {
          "duration": 0.23645833333333144,
          "durationTicks": 227,
          "midi": 82,
          "name": "A#5",
          "ticks": 90600,
          "time": 94.375,
          "velocity": 0.6299212598425197
        },
        {
          "duration": 0.23645833333333144,
          "durationTicks": 227,
          "midi": 72,
          "name": "C5",
          "ticks": 90840,
          "time": 94.625,
          "velocity": 0.6299212598425197
        },
        {
          "duration": 0.23645833333333144,
          "durationTicks": 227,
          "midi": 81,
          "name": "A5",
          "ticks": 90840,
          "time": 94.625,
          "velocity": 0.6299212598425197
        },
        {
          "duration": 0.23645833333333144,
          "durationTicks": 227,
          "midi": 69,
          "name": "A4",
          "ticks": 91080,
          "time": 94.875,
          "velocity": 0.6299212598425197
        },
        {
          "duration": 0.23645833333333144,
          "durationTicks": 227,
          "midi": 79,
          "name": "G5",
          "ticks": 91080,
          "time": 94.875,
          "velocity": 0.6299212598425197
        },
        {
          "duration": 0.23645833333333144,
          "durationTicks": 227,
          "midi": 72,
          "name": "C5",
          "ticks": 91320,
          "time": 95.125,
          "velocity": 0.6299212598425197
        },
        {
          "duration": 0.23645833333333144,
          "durationTicks": 227,
          "midi": 77,
          "name": "F5",
          "ticks": 91320,
          "time": 95.125,
          "velocity": 0.6299212598425197
        },
        {
          "duration": 0.4739583333333286,
          "durationTicks": 455,
          "midi": 69,
          "name": "A4",
          "ticks": 91560,
          "time": 95.375,
          "velocity": 0.6299212598425197
        },
        {
          "duration": 0.4739583333333286,
          "durationTicks": 455,
          "midi": 72,
          "name": "C5",
          "ticks": 91560,
          "time": 95.375,
          "velocity": 0.6299212598425197
        },
        {
          "duration": 0.4739583333333286,
          "durationTicks": 455,
          "midi": 77,
          "name": "F5",
          "ticks": 91560,
          "time": 95.375,
          "velocity": 0.6299212598425197
        },
        {
          "duration": 0.23645833333333144,
          "durationTicks": 227,
          "midi": 74,
          "name": "D5",
          "ticks": 92040,
          "time": 95.875,
          "velocity": 0.6299212598425197
        },
        {
          "duration": 0.23645833333333144,
          "durationTicks": 227,
          "midi": 77,
          "name": "F5",
          "ticks": 92280,
          "time": 96.125,
          "velocity": 0.6299212598425197
        },
        {
          "duration": 0.3552083333333371,
          "durationTicks": 341,
          "midi": 74,
          "name": "D5",
          "ticks": 92520,
          "time": 96.375,
          "velocity": 0.6299212598425197
        },
        {
          "duration": 0.3552083333333371,
          "durationTicks": 341,
          "midi": 79,
          "name": "G5",
          "ticks": 92520,
          "time": 96.375,
          "velocity": 0.6299212598425197
        },
        {
          "duration": 0.3552083333333371,
          "durationTicks": 341,
          "midi": 74,
          "name": "D5",
          "ticks": 92880,
          "time": 96.75,
          "velocity": 0.6299212598425197
        },
        {
          "duration": 0.3552083333333371,
          "durationTicks": 341,
          "midi": 79,
          "name": "G5",
          "ticks": 92880,
          "time": 96.75,
          "velocity": 0.6299212598425197
        },
        {
          "duration": 0.23645833333333144,
          "durationTicks": 227,
          "midi": 74,
          "name": "D5",
          "ticks": 93240,
          "time": 97.125,
          "velocity": 0.6299212598425197
        },
        {
          "duration": 0.23645833333333144,
          "durationTicks": 227,
          "midi": 77,
          "name": "F5",
          "ticks": 93240,
          "time": 97.125,
          "velocity": 0.6299212598425197
        },
        {
          "duration": 0.23645833333333144,
          "durationTicks": 227,
          "midi": 81,
          "name": "A5",
          "ticks": 93240,
          "time": 97.125,
          "velocity": 0.6299212598425197
        },
        {
          "duration": 0.71145833333334,
          "durationTicks": 683,
          "midi": 74,
          "name": "D5",
          "ticks": 93480,
          "time": 97.375,
          "velocity": 0.6299212598425197
        },
        {
          "duration": 0.71145833333334,
          "durationTicks": 683,
          "midi": 77,
          "name": "F5",
          "ticks": 93480,
          "time": 97.375,
          "velocity": 0.6299212598425197
        },
        {
          "duration": 0.71145833333334,
          "durationTicks": 683,
          "midi": 81,
          "name": "A5",
          "ticks": 93480,
          "time": 97.375,
          "velocity": 0.6299212598425197
        },
        {
          "duration": 0.23645833333333144,
          "durationTicks": 227,
          "midi": 74,
          "name": "D5",
          "ticks": 94200,
          "time": 98.125,
          "velocity": 0.6299212598425197
        },
        {
          "duration": 0.23645833333333144,
          "durationTicks": 227,
          "midi": 77,
          "name": "F5",
          "ticks": 94200,
          "time": 98.125,
          "velocity": 0.6299212598425197
        },
        {
          "duration": 0.23645833333333144,
          "durationTicks": 227,
          "midi": 81,
          "name": "A5",
          "ticks": 94200,
          "time": 98.125,
          "velocity": 0.6299212598425197
        },
        {
          "duration": 0.23645833333333144,
          "durationTicks": 227,
          "midi": 76,
          "name": "E5",
          "ticks": 94440,
          "time": 98.375,
          "velocity": 0.6299212598425197
        },
        {
          "duration": 0.23645833333333144,
          "durationTicks": 227,
          "midi": 84,
          "name": "C6",
          "ticks": 94440,
          "time": 98.375,
          "velocity": 0.6299212598425197
        },
        {
          "duration": 0.23645833333333144,
          "durationTicks": 227,
          "midi": 86,
          "name": "D6",
          "ticks": 94680,
          "time": 98.625,
          "velocity": 0.6299212598425197
        },
        {
          "duration": 0.23645833333333144,
          "durationTicks": 227,
          "midi": 79,
          "name": "G5",
          "ticks": 94920,
          "time": 98.875,
          "velocity": 0.6299212598425197
        },
        {
          "duration": 0.23645833333333144,
          "durationTicks": 227,
          "midi": 77,
          "name": "F5",
          "ticks": 95160,
          "time": 99.125,
          "velocity": 0.6299212598425197
        },
        {
          "duration": 0.4739583333333286,
          "durationTicks": 455,
          "midi": 72,
          "name": "C5",
          "ticks": 95400,
          "time": 99.375,
          "velocity": 0.6299212598425197
        },
        {
          "duration": 0.4739583333333286,
          "durationTicks": 455,
          "midi": 81,
          "name": "A5",
          "ticks": 95400,
          "time": 99.375,
          "velocity": 0.6299212598425197
        },
        {
          "duration": 0.23645833333333144,
          "durationTicks": 227,
          "midi": 74,
          "name": "D5",
          "ticks": 95880,
          "time": 99.875,
          "velocity": 0.6299212598425197
        },
        {
          "duration": 0.23645833333333144,
          "durationTicks": 227,
          "midi": 77,
          "name": "F5",
          "ticks": 96120,
          "time": 100.125,
          "velocity": 0.6299212598425197
        },
        {
          "duration": 0.4739583333333286,
          "durationTicks": 455,
          "midi": 74,
          "name": "D5",
          "ticks": 96360,
          "time": 100.375,
          "velocity": 0.6299212598425197
        },
        {
          "duration": 0.4739583333333286,
          "durationTicks": 455,
          "midi": 82,
          "name": "A#5",
          "ticks": 96360,
          "time": 100.375,
          "velocity": 0.6299212598425197
        },
        {
          "duration": 0.4739583333333286,
          "durationTicks": 455,
          "midi": 74,
          "name": "D5",
          "ticks": 96840,
          "time": 100.875,
          "velocity": 0.6299212598425197
        },
        {
          "duration": 0.4739583333333286,
          "durationTicks": 455,
          "midi": 81,
          "name": "A5",
          "ticks": 96840,
          "time": 100.875,
          "velocity": 0.6299212598425197
        },
        {
          "duration": 0.4739583333333286,
          "durationTicks": 455,
          "midi": 72,
          "name": "C5",
          "ticks": 97320,
          "time": 101.375,
          "velocity": 0.6299212598425197
        },
        {
          "duration": 0.4739583333333286,
          "durationTicks": 455,
          "midi": 76,
          "name": "E5",
          "ticks": 97320,
          "time": 101.375,
          "velocity": 0.6299212598425197
        },
        {
          "duration": 0.4739583333333286,
          "durationTicks": 455,
          "midi": 79,
          "name": "G5",
          "ticks": 97320,
          "time": 101.375,
          "velocity": 0.6299212598425197
        },
        {
          "duration": 0.23645833333333144,
          "durationTicks": 227,
          "midi": 77,
          "name": "F5",
          "ticks": 97800,
          "time": 101.875,
          "velocity": 0.6299212598425197
        },
        {
          "duration": 0.23645833333333144,
          "durationTicks": 227,
          "midi": 81,
          "name": "A5",
          "ticks": 97800,
          "time": 101.875,
          "velocity": 0.6299212598425197
        },
        {
          "duration": 0.23645833333333144,
          "durationTicks": 227,
          "midi": 86,
          "name": "D6",
          "ticks": 98040,
          "time": 102.125,
          "velocity": 0.6299212598425197
        },
        {
          "duration": 0.12395833333333428,
          "durationTicks": 119,
          "midi": 74,
          "name": "D5",
          "ticks": 98280,
          "time": 102.375,
          "velocity": 0.6299212598425197
        },
        {
          "duration": 0.12395833333333428,
          "durationTicks": 119,
          "midi": 79,
          "name": "G5",
          "ticks": 98280,
          "time": 102.375,
          "velocity": 0.6299212598425197
        },
        {
          "duration": 0.23645833333333144,
          "durationTicks": 227,
          "midi": 77,
          "name": "F5",
          "ticks": 98520,
          "time": 102.625,
          "velocity": 0.6299212598425197
        },
        {
          "duration": 0.23645833333333144,
          "durationTicks": 227,
          "midi": 81,
          "name": "A5",
          "ticks": 98760,
          "time": 102.875,
          "velocity": 0.6299212598425197
        },
        {
          "duration": 0.23645833333333144,
          "durationTicks": 227,
          "midi": 84,
          "name": "C6",
          "ticks": 99000,
          "time": 103.125,
          "velocity": 0.6299212598425197
        },
        {
          "duration": 0.23645833333333144,
          "durationTicks": 227,
          "midi": 77,
          "name": "F5",
          "ticks": 99240,
          "time": 103.375,
          "velocity": 0.6299212598425197
        },
        {
          "duration": 0.23645833333333144,
          "durationTicks": 227,
          "midi": 81,
          "name": "A5",
          "ticks": 99240,
          "time": 103.375,
          "velocity": 0.6299212598425197
        },
        {
          "duration": 0.23645833333333144,
          "durationTicks": 227,
          "midi": 86,
          "name": "D6",
          "ticks": 99240,
          "time": 103.375,
          "velocity": 0.6299212598425197
        },
        {
          "duration": 0.11770833333333997,
          "durationTicks": 113,
          "midi": 81,
          "name": "A5",
          "ticks": 99480,
          "time": 103.625,
          "velocity": 0.6299212598425197
        },
        {
          "duration": 0.11770833333333997,
          "durationTicks": 113,
          "midi": 83,
          "name": "B5",
          "ticks": 99480,
          "time": 103.625,
          "velocity": 0.6299212598425197
        },
        {
          "duration": 0.11770833333333997,
          "durationTicks": 113,
          "midi": 84,
          "name": "C6",
          "ticks": 99480,
          "time": 103.625,
          "velocity": 0.6299212598425197
        },
        {
          "duration": 0.11770833333333997,
          "durationTicks": 113,
          "midi": 77,
          "name": "F5",
          "ticks": 99600,
          "time": 103.75,
          "velocity": 0.6299212598425197
        },
        {
          "duration": 0.11770833333333997,
          "durationTicks": 113,
          "midi": 79,
          "name": "G5",
          "ticks": 99600,
          "time": 103.75,
          "velocity": 0.6299212598425197
        },
        {
          "duration": 0.11770833333333997,
          "durationTicks": 113,
          "midi": 69,
          "name": "A4",
          "ticks": 99720,
          "time": 103.875,
          "velocity": 0.6299212598425197
        },
        {
          "duration": 0.11770833333333997,
          "durationTicks": 113,
          "midi": 71,
          "name": "B4",
          "ticks": 99720,
          "time": 103.875,
          "velocity": 0.6299212598425197
        },
        {
          "duration": 0.11770833333333997,
          "durationTicks": 113,
          "midi": 72,
          "name": "C5",
          "ticks": 99720,
          "time": 103.875,
          "velocity": 0.6299212598425197
        },
        {
          "duration": 0.11770833333333997,
          "durationTicks": 113,
          "midi": 74,
          "name": "D5",
          "ticks": 99720,
          "time": 103.875,
          "velocity": 0.6299212598425197
        },
        {
          "duration": 0.11770833333333997,
          "durationTicks": 113,
          "midi": 76,
          "name": "E5",
          "ticks": 99720,
          "time": 103.875,
          "velocity": 0.6299212598425197
        },
        {
          "duration": 0.11770833333333997,
          "durationTicks": 113,
          "midi": 65,
          "name": "F4",
          "ticks": 99840,
          "time": 104,
          "velocity": 0.6299212598425197
        },
        {
          "duration": 0.11770833333333997,
          "durationTicks": 113,
          "midi": 67,
          "name": "G4",
          "ticks": 99840,
          "time": 104,
          "velocity": 0.6299212598425197
        },
        {
          "duration": 0.11770833333333997,
          "durationTicks": 113,
          "midi": 62,
          "name": "D4",
          "ticks": 99960,
          "time": 104.125,
          "velocity": 0.6299212598425197
        },
        {
          "duration": 0.11770833333333997,
          "durationTicks": 113,
          "midi": 64,
          "name": "E4",
          "ticks": 99960,
          "time": 104.125,
          "velocity": 0.6299212598425197
        },
        {
          "duration": 0.11770833333333997,
          "durationTicks": 113,
          "midi": 71,
          "name": "B4",
          "ticks": 100080,
          "time": 104.25,
          "velocity": 0.6299212598425197
        },
        {
          "duration": 0.23645833333333144,
          "durationTicks": 227,
          "midi": 67,
          "name": "G4",
          "ticks": 100200,
          "time": 104.375,
          "velocity": 0.6299212598425197
        },
        {
          "duration": 0.23645833333333144,
          "durationTicks": 227,
          "midi": 79,
          "name": "G5",
          "ticks": 100200,
          "time": 104.375,
          "velocity": 0.6299212598425197
        },
        {
          "duration": 0.23645833333333144,
          "durationTicks": 227,
          "midi": 69,
          "name": "A4",
          "ticks": 100440,
          "time": 104.625,
          "velocity": 0.6299212598425197
        },
        {
          "duration": 0.23645833333333144,
          "durationTicks": 227,
          "midi": 81,
          "name": "A5",
          "ticks": 100440,
          "time": 104.625,
          "velocity": 0.6299212598425197
        },
        {
          "duration": 0.11770833333333997,
          "durationTicks": 113,
          "midi": 74,
          "name": "D5",
          "ticks": 100680,
          "time": 104.875,
          "velocity": 0.6299212598425197
        },
        {
          "duration": 0.11770833333333997,
          "durationTicks": 113,
          "midi": 72,
          "name": "C5",
          "ticks": 100800,
          "time": 105,
          "velocity": 0.6299212598425197
        },
        {
          "duration": 0.11770833333333997,
          "durationTicks": 113,
          "midi": 74,
          "name": "D5",
          "ticks": 100920,
          "time": 105.125,
          "velocity": 0.6299212598425197
        },
        {
          "duration": 0.11770833333333997,
          "durationTicks": 113,
          "midi": 72,
          "name": "C5",
          "ticks": 101040,
          "time": 105.25,
          "velocity": 0.6299212598425197
        },
        {
          "duration": 0.23645833333333144,
          "durationTicks": 227,
          "midi": 67,
          "name": "G4",
          "ticks": 101160,
          "time": 105.375,
          "velocity": 0.6299212598425197
        },
        {
          "duration": 0.23645833333333144,
          "durationTicks": 227,
          "midi": 79,
          "name": "G5",
          "ticks": 101160,
          "time": 105.375,
          "velocity": 0.6299212598425197
        },
        {
          "duration": 0.23645833333333144,
          "durationTicks": 227,
          "midi": 69,
          "name": "A4",
          "ticks": 101400,
          "time": 105.625,
          "velocity": 0.6299212598425197
        },
        {
          "duration": 0.23645833333333144,
          "durationTicks": 227,
          "midi": 81,
          "name": "A5",
          "ticks": 101400,
          "time": 105.625,
          "velocity": 0.6299212598425197
        },
        {
          "duration": 0.11770833333333997,
          "durationTicks": 113,
          "midi": 74,
          "name": "D5",
          "ticks": 101640,
          "time": 105.875,
          "velocity": 0.6299212598425197
        },
        {
          "duration": 0.11770833333333997,
          "durationTicks": 113,
          "midi": 72,
          "name": "C5",
          "ticks": 101760,
          "time": 106,
          "velocity": 0.6299212598425197
        },
        {
          "duration": 0.11770833333333997,
          "durationTicks": 113,
          "midi": 74,
          "name": "D5",
          "ticks": 101880,
          "time": 106.125,
          "velocity": 0.6299212598425197
        },
        {
          "duration": 0.11770833333333997,
          "durationTicks": 113,
          "midi": 72,
          "name": "C5",
          "ticks": 102000,
          "time": 106.25,
          "velocity": 0.6299212598425197
        },
        {
          "duration": 0.23645833333333144,
          "durationTicks": 227,
          "midi": 67,
          "name": "G4",
          "ticks": 102120,
          "time": 106.375,
          "velocity": 0.6299212598425197
        },
        {
          "duration": 0.23645833333333144,
          "durationTicks": 227,
          "midi": 79,
          "name": "G5",
          "ticks": 102120,
          "time": 106.375,
          "velocity": 0.6299212598425197
        },
        {
          "duration": 0.23645833333333144,
          "durationTicks": 227,
          "midi": 69,
          "name": "A4",
          "ticks": 102360,
          "time": 106.625,
          "velocity": 0.6299212598425197
        },
        {
          "duration": 0.23645833333333144,
          "durationTicks": 227,
          "midi": 81,
          "name": "A5",
          "ticks": 102360,
          "time": 106.625,
          "velocity": 0.6299212598425197
        },
        {
          "duration": 0.11770833333333997,
          "durationTicks": 113,
          "midi": 74,
          "name": "D5",
          "ticks": 102600,
          "time": 106.875,
          "velocity": 0.6299212598425197
        },
        {
          "duration": 0.11770833333333997,
          "durationTicks": 113,
          "midi": 72,
          "name": "C5",
          "ticks": 102720,
          "time": 107,
          "velocity": 0.6299212598425197
        },
        {
          "duration": 0.11770833333333997,
          "durationTicks": 113,
          "midi": 74,
          "name": "D5",
          "ticks": 102840,
          "time": 107.125,
          "velocity": 0.6299212598425197
        },
        {
          "duration": 0.11770833333333997,
          "durationTicks": 113,
          "midi": 72,
          "name": "C5",
          "ticks": 102960,
          "time": 107.25,
          "velocity": 0.6299212598425197
        },
        {
          "duration": 0.23645833333333144,
          "durationTicks": 227,
          "midi": 72,
          "name": "C5",
          "ticks": 103080,
          "time": 107.375,
          "velocity": 0.6299212598425197
        },
        {
          "duration": 0.23645833333333144,
          "durationTicks": 227,
          "midi": 77,
          "name": "F5",
          "ticks": 103080,
          "time": 107.375,
          "velocity": 0.6299212598425197
        },
        {
          "duration": 0.078125,
          "durationTicks": 75,
          "midi": 76,
          "name": "E5",
          "ticks": 103320,
          "time": 107.625,
          "velocity": 0.6299212598425197
        },
        {
          "duration": 0.078125,
          "durationTicks": 75,
          "midi": 77,
          "name": "F5",
          "ticks": 103400,
          "time": 107.70833333333333,
          "velocity": 0.6299212598425197
        },
        {
          "duration": 0.078125,
          "durationTicks": 75,
          "midi": 76,
          "name": "E5",
          "ticks": 103480,
          "time": 107.79166666666667,
          "velocity": 0.6299212598425197
        },
        {
          "duration": 0.23645833333333144,
          "durationTicks": 227,
          "midi": 74,
          "name": "D5",
          "ticks": 103560,
          "time": 107.875,
          "velocity": 0.6299212598425197
        },
        {
          "duration": 0.23645833333333144,
          "durationTicks": 227,
          "midi": 72,
          "name": "C5",
          "ticks": 103800,
          "time": 108.125,
          "velocity": 0.6299212598425197
        },
        {
          "duration": 0.23645833333333144,
          "durationTicks": 227,
          "midi": 67,
          "name": "G4",
          "ticks": 104040,
          "time": 108.375,
          "velocity": 0.6299212598425197
        },
        {
          "duration": 0.23645833333333144,
          "durationTicks": 227,
          "midi": 79,
          "name": "G5",
          "ticks": 104040,
          "time": 108.375,
          "velocity": 0.6299212598425197
        },
        {
          "duration": 0.23645833333333144,
          "durationTicks": 227,
          "midi": 69,
          "name": "A4",
          "ticks": 104280,
          "time": 108.625,
          "velocity": 0.6299212598425197
        },
        {
          "duration": 0.23645833333333144,
          "durationTicks": 227,
          "midi": 81,
          "name": "A5",
          "ticks": 104280,
          "time": 108.625,
          "velocity": 0.6299212598425197
        },
        {
          "duration": 0.11770833333333997,
          "durationTicks": 113,
          "midi": 74,
          "name": "D5",
          "ticks": 104520,
          "time": 108.875,
          "velocity": 0.6299212598425197
        },
        {
          "duration": 0.11770833333333997,
          "durationTicks": 113,
          "midi": 72,
          "name": "C5",
          "ticks": 104640,
          "time": 109,
          "velocity": 0.6299212598425197
        },
        {
          "duration": 0.11770833333333997,
          "durationTicks": 113,
          "midi": 74,
          "name": "D5",
          "ticks": 104760,
          "time": 109.125,
          "velocity": 0.6299212598425197
        },
        {
          "duration": 0.11770833333333997,
          "durationTicks": 113,
          "midi": 72,
          "name": "C5",
          "ticks": 104880,
          "time": 109.25,
          "velocity": 0.6299212598425197
        },
        {
          "duration": 0.23645833333333144,
          "durationTicks": 227,
          "midi": 67,
          "name": "G4",
          "ticks": 105000,
          "time": 109.375,
          "velocity": 0.6299212598425197
        },
        {
          "duration": 0.23645833333333144,
          "durationTicks": 227,
          "midi": 79,
          "name": "G5",
          "ticks": 105000,
          "time": 109.375,
          "velocity": 0.6299212598425197
        },
        {
          "duration": 0.23645833333333144,
          "durationTicks": 227,
          "midi": 69,
          "name": "A4",
          "ticks": 105240,
          "time": 109.625,
          "velocity": 0.6299212598425197
        },
        {
          "duration": 0.23645833333333144,
          "durationTicks": 227,
          "midi": 81,
          "name": "A5",
          "ticks": 105240,
          "time": 109.625,
          "velocity": 0.6299212598425197
        },
        {
          "duration": 0.11770833333333997,
          "durationTicks": 113,
          "midi": 74,
          "name": "D5",
          "ticks": 105480,
          "time": 109.875,
          "velocity": 0.6299212598425197
        },
        {
          "duration": 0.11770833333333997,
          "durationTicks": 113,
          "midi": 72,
          "name": "C5",
          "ticks": 105600,
          "time": 110,
          "velocity": 0.6299212598425197
        },
        {
          "duration": 0.11770833333333997,
          "durationTicks": 113,
          "midi": 74,
          "name": "D5",
          "ticks": 105720,
          "time": 110.125,
          "velocity": 0.6299212598425197
        },
        {
          "duration": 0.11770833333333997,
          "durationTicks": 113,
          "midi": 72,
          "name": "C5",
          "ticks": 105840,
          "time": 110.25,
          "velocity": 0.6299212598425197
        },
        {
          "duration": 0.23645833333333144,
          "durationTicks": 227,
          "midi": 67,
          "name": "G4",
          "ticks": 105960,
          "time": 110.375,
          "velocity": 0.6299212598425197
        },
        {
          "duration": 0.23645833333333144,
          "durationTicks": 227,
          "midi": 69,
          "name": "A4",
          "ticks": 106200,
          "time": 110.625,
          "velocity": 0.6299212598425197
        },
        {
          "duration": 0.23645833333333144,
          "durationTicks": 227,
          "midi": 72,
          "name": "C5",
          "ticks": 106440,
          "time": 110.875,
          "velocity": 0.6299212598425197
        },
        {
          "duration": 0.23645833333333144,
          "durationTicks": 227,
          "midi": 77,
          "name": "F5",
          "ticks": 106680,
          "time": 111.125,
          "velocity": 0.6299212598425197
        },
        {
          "duration": 0.11770833333333997,
          "durationTicks": 113,
          "midi": 76,
          "name": "E5",
          "ticks": 106920,
          "time": 111.375,
          "velocity": 0.6299212598425197
        },
        {
          "duration": 0.11770833333333997,
          "durationTicks": 113,
          "midi": 77,
          "name": "F5",
          "ticks": 107040,
          "time": 111.5,
          "velocity": 0.6299212598425197
        },
        {
          "duration": 0.11770833333333997,
          "durationTicks": 113,
          "midi": 76,
          "name": "E5",
          "ticks": 107160,
          "time": 111.625,
          "velocity": 0.6299212598425197
        },
        {
          "duration": 0.11770833333333997,
          "durationTicks": 113,
          "midi": 74,
          "name": "D5",
          "ticks": 107280,
          "time": 111.75,
          "velocity": 0.6299212598425197
        },
        {
          "duration": 0.23645833333333144,
          "durationTicks": 227,
          "midi": 72,
          "name": "C5",
          "ticks": 107400,
          "time": 111.875,
          "velocity": 0.6299212598425197
        },
        {
          "duration": 0.23645833333333144,
          "durationTicks": 227,
          "midi": 69,
          "name": "A4",
          "ticks": 107640,
          "time": 112.125,
          "velocity": 0.6299212598425197
        },
        {
          "duration": 0.23645833333333144,
          "durationTicks": 227,
          "midi": 67,
          "name": "G4",
          "ticks": 107880,
          "time": 112.375,
          "velocity": 0.6299212598425197
        },
        {
          "duration": 0.23645833333333144,
          "durationTicks": 227,
          "midi": 79,
          "name": "G5",
          "ticks": 107880,
          "time": 112.375,
          "velocity": 0.6299212598425197
        },
        {
          "duration": 0.23645833333333144,
          "durationTicks": 227,
          "midi": 69,
          "name": "A4",
          "ticks": 108120,
          "time": 112.625,
          "velocity": 0.6299212598425197
        },
        {
          "duration": 0.23645833333333144,
          "durationTicks": 227,
          "midi": 81,
          "name": "A5",
          "ticks": 108120,
          "time": 112.625,
          "velocity": 0.6299212598425197
        },
        {
          "duration": 0.11770833333333997,
          "durationTicks": 113,
          "midi": 74,
          "name": "D5",
          "ticks": 108360,
          "time": 112.875,
          "velocity": 0.6299212598425197
        },
        {
          "duration": 0.11770833333333997,
          "durationTicks": 113,
          "midi": 72,
          "name": "C5",
          "ticks": 108480,
          "time": 113,
          "velocity": 0.6299212598425197
        },
        {
          "duration": 0.11770833333333997,
          "durationTicks": 113,
          "midi": 74,
          "name": "D5",
          "ticks": 108600,
          "time": 113.125,
          "velocity": 0.6299212598425197
        },
        {
          "duration": 0.11770833333333997,
          "durationTicks": 113,
          "midi": 72,
          "name": "C5",
          "ticks": 108720,
          "time": 113.25,
          "velocity": 0.6299212598425197
        },
        {
          "duration": 0.23645833333333144,
          "durationTicks": 227,
          "midi": 67,
          "name": "G4",
          "ticks": 108840,
          "time": 113.375,
          "velocity": 0.6299212598425197
        },
        {
          "duration": 0.23645833333333144,
          "durationTicks": 227,
          "midi": 79,
          "name": "G5",
          "ticks": 108840,
          "time": 113.375,
          "velocity": 0.6299212598425197
        },
        {
          "duration": 0.23645833333333144,
          "durationTicks": 227,
          "midi": 69,
          "name": "A4",
          "ticks": 109080,
          "time": 113.625,
          "velocity": 0.6299212598425197
        },
        {
          "duration": 0.23645833333333144,
          "durationTicks": 227,
          "midi": 81,
          "name": "A5",
          "ticks": 109080,
          "time": 113.625,
          "velocity": 0.6299212598425197
        },
        {
          "duration": 0.11770833333333997,
          "durationTicks": 113,
          "midi": 74,
          "name": "D5",
          "ticks": 109320,
          "time": 113.875,
          "velocity": 0.6299212598425197
        },
        {
          "duration": 0.11770833333333997,
          "durationTicks": 113,
          "midi": 72,
          "name": "C5",
          "ticks": 109440,
          "time": 114,
          "velocity": 0.6299212598425197
        },
        {
          "duration": 0.11770833333333997,
          "durationTicks": 113,
          "midi": 74,
          "name": "D5",
          "ticks": 109560,
          "time": 114.125,
          "velocity": 0.6299212598425197
        },
        {
          "duration": 0.11770833333333997,
          "durationTicks": 113,
          "midi": 72,
          "name": "C5",
          "ticks": 109680,
          "time": 114.25,
          "velocity": 0.6299212598425197
        },
        {
          "duration": 0.23645833333333144,
          "durationTicks": 227,
          "midi": 67,
          "name": "G4",
          "ticks": 109800,
          "time": 114.375,
          "velocity": 0.6299212598425197
        },
        {
          "duration": 0.23645833333333144,
          "durationTicks": 227,
          "midi": 79,
          "name": "G5",
          "ticks": 109800,
          "time": 114.375,
          "velocity": 0.6299212598425197
        },
        {
          "duration": 0.23645833333333144,
          "durationTicks": 227,
          "midi": 69,
          "name": "A4",
          "ticks": 110040,
          "time": 114.625,
          "velocity": 0.6299212598425197
        },
        {
          "duration": 0.23645833333333144,
          "durationTicks": 227,
          "midi": 81,
          "name": "A5",
          "ticks": 110040,
          "time": 114.625,
          "velocity": 0.6299212598425197
        },
        {
          "duration": 0.11770833333333997,
          "durationTicks": 113,
          "midi": 74,
          "name": "D5",
          "ticks": 110280,
          "time": 114.875,
          "velocity": 0.6299212598425197
        },
        {
          "duration": 0.11770833333333997,
          "durationTicks": 113,
          "midi": 72,
          "name": "C5",
          "ticks": 110400,
          "time": 115,
          "velocity": 0.6299212598425197
        },
        {
          "duration": 0.11770833333333997,
          "durationTicks": 113,
          "midi": 74,
          "name": "D5",
          "ticks": 110520,
          "time": 115.125,
          "velocity": 0.6299212598425197
        },
        {
          "duration": 0.11770833333333997,
          "durationTicks": 113,
          "midi": 72,
          "name": "C5",
          "ticks": 110640,
          "time": 115.25,
          "velocity": 0.6299212598425197
        },
        {
          "duration": 0.23645833333333144,
          "durationTicks": 227,
          "midi": 72,
          "name": "C5",
          "ticks": 110760,
          "time": 115.375,
          "velocity": 0.6299212598425197
        },
        {
          "duration": 0.23645833333333144,
          "durationTicks": 227,
          "midi": 77,
          "name": "F5",
          "ticks": 110760,
          "time": 115.375,
          "velocity": 0.6299212598425197
        },
        {
          "duration": 0.078125,
          "durationTicks": 75,
          "midi": 76,
          "name": "E5",
          "ticks": 111000,
          "time": 115.625,
          "velocity": 0.6299212598425197
        },
        {
          "duration": 0.078125,
          "durationTicks": 75,
          "midi": 77,
          "name": "F5",
          "ticks": 111080,
          "time": 115.70833333333333,
          "velocity": 0.6299212598425197
        },
        {
          "duration": 0.078125,
          "durationTicks": 75,
          "midi": 76,
          "name": "E5",
          "ticks": 111160,
          "time": 115.79166666666667,
          "velocity": 0.6299212598425197
        },
        {
          "duration": 0.23645833333333144,
          "durationTicks": 227,
          "midi": 74,
          "name": "D5",
          "ticks": 111240,
          "time": 115.875,
          "velocity": 0.6299212598425197
        },
        {
          "duration": 0.23645833333333144,
          "durationTicks": 227,
          "midi": 72,
          "name": "C5",
          "ticks": 111480,
          "time": 116.125,
          "velocity": 0.6299212598425197
        },
        {
          "duration": 0.23645833333333144,
          "durationTicks": 227,
          "midi": 74,
          "name": "D5",
          "ticks": 111720,
          "time": 116.375,
          "velocity": 0.6299212598425197
        },
        {
          "duration": 0.23645833333333144,
          "durationTicks": 227,
          "midi": 77,
          "name": "F5",
          "ticks": 111720,
          "time": 116.375,
          "velocity": 0.6299212598425197
        },
        {
          "duration": 0.23645833333333144,
          "durationTicks": 227,
          "midi": 79,
          "name": "G5",
          "ticks": 111720,
          "time": 116.375,
          "velocity": 0.6299212598425197
        },
        {
          "duration": 0.11770833333333997,
          "durationTicks": 113,
          "midi": 81,
          "name": "A5",
          "ticks": 111960,
          "time": 116.625,
          "velocity": 0.6299212598425197
        },
        {
          "duration": 0.11770833333333997,
          "durationTicks": 113,
          "midi": 84,
          "name": "C6",
          "ticks": 112080,
          "time": 116.75,
          "velocity": 0.6299212598425197
        },
        {
          "duration": 0.11770833333333997,
          "durationTicks": 113,
          "midi": 86,
          "name": "D6",
          "ticks": 112200,
          "time": 116.875,
          "velocity": 0.6299212598425197
        },
        {
          "duration": 0.11770833333333997,
          "durationTicks": 113,
          "midi": 84,
          "name": "C6",
          "ticks": 112320,
          "time": 117,
          "velocity": 0.6299212598425197
        },
        {
          "duration": 0.11770833333333997,
          "durationTicks": 113,
          "midi": 81,
          "name": "A5",
          "ticks": 112440,
          "time": 117.125,
          "velocity": 0.6299212598425197
        },
        {
          "duration": 0.11770833333333997,
          "durationTicks": 113,
          "midi": 79,
          "name": "G5",
          "ticks": 112560,
          "time": 117.25,
          "velocity": 0.6299212598425197
        },
        {
          "duration": 0.23645833333333144,
          "durationTicks": 227,
          "midi": 74,
          "name": "D5",
          "ticks": 112680,
          "time": 117.375,
          "velocity": 0.6299212598425197
        },
        {
          "duration": 0.23645833333333144,
          "durationTicks": 227,
          "midi": 77,
          "name": "F5",
          "ticks": 112920,
          "time": 117.625,
          "velocity": 0.6299212598425197
        },
        {
          "duration": 0.23645833333333144,
          "durationTicks": 227,
          "midi": 74,
          "name": "D5",
          "ticks": 113160,
          "time": 117.875,
          "velocity": 0.6299212598425197
        },
        {
          "duration": 0.23645833333333144,
          "durationTicks": 227,
          "midi": 79,
          "name": "G5",
          "ticks": 113160,
          "time": 117.875,
          "velocity": 0.6299212598425197
        },
        {
          "duration": 0.23645833333333144,
          "durationTicks": 227,
          "midi": 72,
          "name": "C5",
          "ticks": 113400,
          "time": 118.125,
          "velocity": 0.6299212598425197
        },
        {
          "duration": 0.23645833333333144,
          "durationTicks": 227,
          "midi": 81,
          "name": "A5",
          "ticks": 113400,
          "time": 118.125,
          "velocity": 0.6299212598425197
        },
        {
          "duration": 0.3552083333333371,
          "durationTicks": 341,
          "midi": 81,
          "name": "A5",
          "ticks": 113640,
          "time": 118.375,
          "velocity": 0.6299212598425197
        },
        {
          "duration": 0.3552083333333371,
          "durationTicks": 341,
          "midi": 86,
          "name": "D6",
          "ticks": 113640,
          "time": 118.375,
          "velocity": 0.6299212598425197
        },
        {
          "duration": 0.3552083333333371,
          "durationTicks": 341,
          "midi": 89,
          "name": "F6",
          "ticks": 113640,
          "time": 118.375,
          "velocity": 0.6299212598425197
        },
        {
          "duration": 0.36145833333333144,
          "durationTicks": 347,
          "midi": 81,
          "name": "A5",
          "ticks": 114000,
          "time": 118.75,
          "velocity": 0.6299212598425197
        },
        {
          "duration": 0.12395833333333428,
          "durationTicks": 119,
          "midi": 86,
          "name": "D6",
          "ticks": 114000,
          "time": 118.75,
          "velocity": 0.6299212598425197
        },
        {
          "duration": 0.36145833333333144,
          "durationTicks": 347,
          "midi": 89,
          "name": "F6",
          "ticks": 114000,
          "time": 118.75,
          "velocity": 0.6299212598425197
        },
        {
          "duration": 0.23645833333333144,
          "durationTicks": 227,
          "midi": 86,
          "name": "D6",
          "ticks": 114120,
          "time": 118.875,
          "velocity": 0.6299212598425197
        },
        {
          "duration": 0.23645833333333144,
          "durationTicks": 227,
          "midi": 84,
          "name": "C6",
          "ticks": 114360,
          "time": 119.125,
          "velocity": 0.6299212598425197
        },
        {
          "duration": 0.4739583333333286,
          "durationTicks": 455,
          "midi": 81,
          "name": "A5",
          "ticks": 114600,
          "time": 119.375,
          "velocity": 0.6299212598425197
        },
        {
          "duration": 0.4739583333333286,
          "durationTicks": 455,
          "midi": 86,
          "name": "D6",
          "ticks": 114600,
          "time": 119.375,
          "velocity": 0.6299212598425197
        },
        {
          "duration": 0.23645833333333144,
          "durationTicks": 227,
          "midi": 93,
          "name": "A6",
          "ticks": 115080,
          "time": 119.875,
          "velocity": 0.6299212598425197
        },
        {
          "duration": 0.23645833333333144,
          "durationTicks": 227,
          "midi": 69,
          "name": "A4",
          "ticks": 115320,
          "time": 120.125,
          "velocity": 0.6299212598425197
        },
        {
          "duration": 0.4739583333333286,
          "durationTicks": 455,
          "midi": 69,
          "name": "A4",
          "ticks": 115560,
          "time": 120.375,
          "velocity": 0.6299212598425197
        },
        {
          "duration": 0.4739583333333286,
          "durationTicks": 455,
          "midi": 74,
          "name": "D5",
          "ticks": 115560,
          "time": 120.375,
          "velocity": 0.6299212598425197
        },
        {
          "duration": 0.3552083333333371,
          "durationTicks": 341,
          "midi": 69,
          "name": "A4",
          "ticks": 116040,
          "time": 120.875,
          "velocity": 0.6299212598425197
        },
        {
          "duration": 0.3552083333333371,
          "durationTicks": 341,
          "midi": 74,
          "name": "D5",
          "ticks": 116040,
          "time": 120.875,
          "velocity": 0.6299212598425197
        },
        {
          "duration": 0.11770833333333997,
          "durationTicks": 113,
          "midi": 72,
          "name": "C5",
          "ticks": 116400,
          "time": 121.25,
          "velocity": 0.6299212598425197
        },
        {
          "duration": 0.23645833333333144,
          "durationTicks": 227,
          "midi": 74,
          "name": "D5",
          "ticks": 116520,
          "time": 121.375,
          "velocity": 0.6299212598425197
        },
        {
          "duration": 0.23645833333333144,
          "durationTicks": 227,
          "midi": 77,
          "name": "F5",
          "ticks": 116760,
          "time": 121.625,
          "velocity": 0.6299212598425197
        },
        {
          "duration": 0.23645833333333144,
          "durationTicks": 227,
          "midi": 67,
          "name": "G4",
          "ticks": 117000,
          "time": 121.875,
          "velocity": 0.6299212598425197
        },
        {
          "duration": 0.23645833333333144,
          "durationTicks": 227,
          "midi": 79,
          "name": "G5",
          "ticks": 117000,
          "time": 121.875,
          "velocity": 0.6299212598425197
        },
        {
          "duration": 0.23645833333333144,
          "durationTicks": 227,
          "midi": 69,
          "name": "A4",
          "ticks": 117240,
          "time": 122.125,
          "velocity": 0.6299212598425197
        },
        {
          "duration": 0.23645833333333144,
          "durationTicks": 227,
          "midi": 81,
          "name": "A5",
          "ticks": 117240,
          "time": 122.125,
          "velocity": 0.6299212598425197
        },
        {
          "duration": 0.4739583333333286,
          "durationTicks": 455,
          "midi": 69,
          "name": "A4",
          "ticks": 117480,
          "time": 122.375,
          "velocity": 0.6299212598425197
        },
        {
          "duration": 0.4739583333333286,
          "durationTicks": 455,
          "midi": 74,
          "name": "D5",
          "ticks": 117480,
          "time": 122.375,
          "velocity": 0.6299212598425197
        },
        {
          "duration": 0.3552083333333371,
          "durationTicks": 341,
          "midi": 69,
          "name": "A4",
          "ticks": 117960,
          "time": 122.875,
          "velocity": 0.6299212598425197
        },
        {
          "duration": 0.3552083333333371,
          "durationTicks": 341,
          "midi": 74,
          "name": "D5",
          "ticks": 117960,
          "time": 122.875,
          "velocity": 0.6299212598425197
        },
        {
          "duration": 0.11770833333333997,
          "durationTicks": 113,
          "midi": 72,
          "name": "C5",
          "ticks": 118320,
          "time": 123.25,
          "velocity": 0.6299212598425197
        },
        {
          "duration": 0.23645833333333144,
          "durationTicks": 227,
          "midi": 74,
          "name": "D5",
          "ticks": 118440,
          "time": 123.375,
          "velocity": 0.6299212598425197
        },
        {
          "duration": 0.23645833333333144,
          "durationTicks": 227,
          "midi": 72,
          "name": "C5",
          "ticks": 118680,
          "time": 123.625,
          "velocity": 0.6299212598425197
        },
        {
          "duration": 0.23645833333333144,
          "durationTicks": 227,
          "midi": 69,
          "name": "A4",
          "ticks": 118920,
          "time": 123.875,
          "velocity": 0.6299212598425197
        },
        {
          "duration": 0.23645833333333144,
          "durationTicks": 227,
          "midi": 72,
          "name": "C5",
          "ticks": 119160,
          "time": 124.125,
          "velocity": 0.6299212598425197
        },
        {
          "duration": 0.4739583333333286,
          "durationTicks": 455,
          "midi": 69,
          "name": "A4",
          "ticks": 119400,
          "time": 124.375,
          "velocity": 0.6299212598425197
        },
        {
          "duration": 0.4739583333333286,
          "durationTicks": 455,
          "midi": 74,
          "name": "D5",
          "ticks": 119400,
          "time": 124.375,
          "velocity": 0.6299212598425197
        },
        {
          "duration": 0.3552083333333371,
          "durationTicks": 341,
          "midi": 69,
          "name": "A4",
          "ticks": 119880,
          "time": 124.875,
          "velocity": 0.6299212598425197
        },
        {
          "duration": 0.3552083333333371,
          "durationTicks": 341,
          "midi": 74,
          "name": "D5",
          "ticks": 119880,
          "time": 124.875,
          "velocity": 0.6299212598425197
        },
        {
          "duration": 0.23645833333333144,
          "durationTicks": 227,
          "midi": 67,
          "name": "G4",
          "ticks": 120360,
          "time": 125.375,
          "velocity": 0.6299212598425197
        },
        {
          "duration": 0.23645833333333144,
          "durationTicks": 227,
          "midi": 69,
          "name": "A4",
          "ticks": 120600,
          "time": 125.625,
          "velocity": 0.6299212598425197
        },
        {
          "duration": 0.23645833333333144,
          "durationTicks": 227,
          "midi": 72,
          "name": "C5",
          "ticks": 120840,
          "time": 125.875,
          "velocity": 0.6299212598425197
        },
        {
          "duration": 0.23645833333333144,
          "durationTicks": 227,
          "midi": 74,
          "name": "D5",
          "ticks": 121080,
          "time": 126.125,
          "velocity": 0.6299212598425197
        },
        {
          "duration": 0.4739583333333286,
          "durationTicks": 455,
          "midi": 74,
          "name": "D5",
          "ticks": 121320,
          "time": 126.375,
          "velocity": 0.6299212598425197
        },
        {
          "duration": 0.4739583333333286,
          "durationTicks": 455,
          "midi": 77,
          "name": "F5",
          "ticks": 121320,
          "time": 126.375,
          "velocity": 0.6299212598425197
        },
        {
          "duration": 0.4739583333333286,
          "durationTicks": 455,
          "midi": 81,
          "name": "A5",
          "ticks": 121320,
          "time": 126.375,
          "velocity": 0.6299212598425197
        },
        {
          "duration": 0.11770833333333997,
          "durationTicks": 113,
          "midi": 79,
          "name": "G5",
          "ticks": 121800,
          "time": 126.875,
          "velocity": 0.6299212598425197
        },
        {
          "duration": 0.11770833333333997,
          "durationTicks": 113,
          "midi": 81,
          "name": "A5",
          "ticks": 121920,
          "time": 127,
          "velocity": 0.6299212598425197
        },
        {
          "duration": 0.23645833333333144,
          "durationTicks": 227,
          "midi": 79,
          "name": "G5",
          "ticks": 122040,
          "time": 127.125,
          "velocity": 0.6299212598425197
        },
        {
          "duration": 0.4739583333333286,
          "durationTicks": 455,
          "midi": 72,
          "name": "C5",
          "ticks": 122280,
          "time": 127.375,
          "velocity": 0.6299212598425197
        },
        {
          "duration": 0.4739583333333286,
          "durationTicks": 455,
          "midi": 77,
          "name": "F5",
          "ticks": 122280,
          "time": 127.375,
          "velocity": 0.6299212598425197
        },
        {
          "duration": 0.4739583333333428,
          "durationTicks": 455,
          "midi": 74,
          "name": "D5",
          "ticks": 122760,
          "time": 127.875,
          "velocity": 0.6299212598425197
        },
        {
          "duration": 0.23645833333333144,
          "durationTicks": 227,
          "midi": 74,
          "name": "D5",
          "ticks": 123240,
          "time": 128.375,
          "velocity": 0.6299212598425197
        },
        {
          "duration": 0.11770833333332575,
          "durationTicks": 113,
          "midi": 74,
          "name": "D5",
          "ticks": 123600,
          "time": 128.75,
          "velocity": 0.6299212598425197
        },
        {
          "duration": 0.3552083333333371,
          "durationTicks": 341,
          "midi": 74,
          "name": "D5",
          "ticks": 123720,
          "time": 128.875,
          "velocity": 0.6299212598425197
        },
        {
          "duration": 0.11770833333332575,
          "durationTicks": 113,
          "midi": 72,
          "name": "C5",
          "ticks": 124080,
          "time": 129.25,
          "velocity": 0.6299212598425197
        },
        {
          "duration": 0.23645833333333144,
          "durationTicks": 227,
          "midi": 72,
          "name": "C5",
          "ticks": 124200,
          "time": 129.375,
          "velocity": 0.6299212598425197
        },
        {
          "duration": 0.23645833333333144,
          "durationTicks": 227,
          "midi": 74,
          "name": "D5",
          "ticks": 124440,
          "time": 129.625,
          "velocity": 0.6299212598425197
        },
        {
          "duration": 0.23645833333333144,
          "durationTicks": 227,
          "midi": 77,
          "name": "F5",
          "ticks": 124680,
          "time": 129.875,
          "velocity": 0.6299212598425197
        },
        {
          "duration": 0.23645833333333144,
          "durationTicks": 227,
          "midi": 79,
          "name": "G5",
          "ticks": 124920,
          "time": 130.125,
          "velocity": 0.6299212598425197
        },
        {
          "duration": 0.23645833333333144,
          "durationTicks": 227,
          "midi": 74,
          "name": "D5",
          "ticks": 125160,
          "time": 130.375,
          "velocity": 0.6299212598425197
        },
        {
          "duration": 0.11770833333332575,
          "durationTicks": 113,
          "midi": 72,
          "name": "C5",
          "ticks": 125520,
          "time": 130.75,
          "velocity": 0.6299212598425197
        },
        {
          "duration": 0.3552083333333371,
          "durationTicks": 341,
          "midi": 69,
          "name": "A4",
          "ticks": 125640,
          "time": 130.875,
          "velocity": 0.6299212598425197
        },
        {
          "duration": 0.11770833333332575,
          "durationTicks": 113,
          "midi": 72,
          "name": "C5",
          "ticks": 126000,
          "time": 131.25,
          "velocity": 0.6299212598425197
        },
        {
          "duration": 0.23645833333333144,
          "durationTicks": 227,
          "midi": 74,
          "name": "D5",
          "ticks": 126120,
          "time": 131.375,
          "velocity": 0.6299212598425197
        },
        {
          "duration": 0.23645833333333144,
          "durationTicks": 227,
          "midi": 72,
          "name": "C5",
          "ticks": 126360,
          "time": 131.625,
          "velocity": 0.6299212598425197
        },
        {
          "duration": 0.23645833333333144,
          "durationTicks": 227,
          "midi": 69,
          "name": "A4",
          "ticks": 126600,
          "time": 131.875,
          "velocity": 0.6299212598425197
        },
        {
          "duration": 0.23645833333333144,
          "durationTicks": 227,
          "midi": 72,
          "name": "C5",
          "ticks": 126840,
          "time": 132.125,
          "velocity": 0.6299212598425197
        },
        {
          "duration": 0.4739583333333428,
          "durationTicks": 455,
          "midi": 69,
          "name": "A4",
          "ticks": 127080,
          "time": 132.375,
          "velocity": 0.6299212598425197
        },
        {
          "duration": 0.4739583333333428,
          "durationTicks": 455,
          "midi": 74,
          "name": "D5",
          "ticks": 127080,
          "time": 132.375,
          "velocity": 0.6299212598425197
        },
        {
          "duration": 0.3552083333333371,
          "durationTicks": 341,
          "midi": 69,
          "name": "A4",
          "ticks": 127800,
          "time": 133.125,
          "velocity": 0.6299212598425197
        },
        {
          "duration": 0.3552083333333371,
          "durationTicks": 341,
          "midi": 74,
          "name": "D5",
          "ticks": 127800,
          "time": 133.125,
          "velocity": 0.6299212598425197
        },
        {
          "duration": 0.11770833333332575,
          "durationTicks": 113,
          "midi": 72,
          "name": "C5",
          "ticks": 128160,
          "time": 133.5,
          "velocity": 0.6299212598425197
        },
        {
          "duration": 0.23645833333333144,
          "durationTicks": 227,
          "midi": 72,
          "name": "C5",
          "ticks": 128280,
          "time": 133.625,
          "velocity": 0.6299212598425197
        },
        {
          "duration": 0.23645833333333144,
          "durationTicks": 227,
          "midi": 74,
          "name": "D5",
          "ticks": 128520,
          "time": 133.875,
          "velocity": 0.6299212598425197
        },
        {
          "duration": 0.23645833333333144,
          "durationTicks": 227,
          "midi": 77,
          "name": "F5",
          "ticks": 128760,
          "time": 134.125,
          "velocity": 0.6299212598425197
        },
        {
          "duration": 0.23645833333333144,
          "durationTicks": 227,
          "midi": 79,
          "name": "G5",
          "ticks": 129000,
          "time": 134.375,
          "velocity": 0.6299212598425197
        },
        {
          "duration": 0.23645833333333144,
          "durationTicks": 227,
          "midi": 74,
          "name": "D5",
          "ticks": 129240,
          "time": 134.625,
          "velocity": 0.6299212598425197
        },
        {
          "duration": 0.23645833333333144,
          "durationTicks": 227,
          "midi": 81,
          "name": "A5",
          "ticks": 129240,
          "time": 134.625,
          "velocity": 0.6299212598425197
        },
        {
          "duration": 0.11770833333332575,
          "durationTicks": 113,
          "midi": 86,
          "name": "D6",
          "ticks": 129480,
          "time": 134.875,
          "velocity": 0.6299212598425197
        },
        {
          "duration": 0.23645833333333144,
          "durationTicks": 227,
          "midi": 74,
          "name": "D5",
          "ticks": 129720,
          "time": 135.125,
          "velocity": 0.6299212598425197
        },
        {
          "duration": 0.23645833333333144,
          "durationTicks": 227,
          "midi": 79,
          "name": "G5",
          "ticks": 129720,
          "time": 135.125,
          "velocity": 0.6299212598425197
        },
        {
          "duration": 0.23645833333333144,
          "durationTicks": 227,
          "midi": 84,
          "name": "C6",
          "ticks": 129720,
          "time": 135.125,
          "velocity": 0.6299212598425197
        },
        {
          "duration": 0.11770833333332575,
          "durationTicks": 113,
          "midi": 81,
          "name": "A5",
          "ticks": 129960,
          "time": 135.375,
          "velocity": 0.6299212598425197
        },
        {
          "duration": 0.11770833333332575,
          "durationTicks": 113,
          "midi": 79,
          "name": "G5",
          "ticks": 130080,
          "time": 135.5,
          "velocity": 0.6299212598425197
        },
        {
          "duration": 0.23645833333333144,
          "durationTicks": 227,
          "midi": 77,
          "name": "F5",
          "ticks": 130200,
          "time": 135.625,
          "velocity": 0.6299212598425197
        },
        {
          "duration": 0.23645833333333144,
          "durationTicks": 227,
          "midi": 74,
          "name": "D5",
          "ticks": 130680,
          "time": 136.125,
          "velocity": 0.6299212598425197
        },
        {
          "duration": 0.23645833333333144,
          "durationTicks": 227,
          "midi": 72,
          "name": "C5",
          "ticks": 130920,
          "time": 136.375,
          "velocity": 0.6299212598425197
        },
        {
          "duration": 0.4739583333333428,
          "durationTicks": 455,
          "midi": 69,
          "name": "A4",
          "ticks": 131160,
          "time": 136.625,
          "velocity": 0.6299212598425197
        },
        {
          "duration": 0.4739583333333428,
          "durationTicks": 455,
          "midi": 74,
          "name": "D5",
          "ticks": 131160,
          "time": 136.625,
          "velocity": 0.6299212598425197
        },
        {
          "duration": 0.4739583333333428,
          "durationTicks": 455,
          "midi": 77,
          "name": "F5",
          "ticks": 131160,
          "time": 136.625,
          "velocity": 0.6299212598425197
        },
        {
          "duration": 0.4739583333333428,
          "durationTicks": 455,
          "midi": 69,
          "name": "A4",
          "ticks": 131640,
          "time": 137.125,
          "velocity": 0.6299212598425197
        },
        {
          "duration": 0.4739583333333428,
          "durationTicks": 455,
          "midi": 72,
          "name": "C5",
          "ticks": 131640,
          "time": 137.125,
          "velocity": 0.6299212598425197
        },
        {
          "duration": 0.4739583333333428,
          "durationTicks": 455,
          "midi": 76,
          "name": "E5",
          "ticks": 131640,
          "time": 137.125,
          "velocity": 0.6299212598425197
        },
        {
          "duration": 0.4739583333333428,
          "durationTicks": 455,
          "midi": 65,
          "name": "F4",
          "ticks": 132120,
          "time": 137.625,
          "velocity": 0.6299212598425197
        },
        {
          "duration": 0.4739583333333428,
          "durationTicks": 455,
          "midi": 70,
          "name": "A#4",
          "ticks": 132120,
          "time": 137.625,
          "velocity": 0.6299212598425197
        },
        {
          "duration": 0.4739583333333428,
          "durationTicks": 455,
          "midi": 74,
          "name": "D5",
          "ticks": 132120,
          "time": 137.625,
          "velocity": 0.6299212598425197
        },
        {
          "duration": 0.4739583333333428,
          "durationTicks": 455,
          "midi": 65,
          "name": "F4",
          "ticks": 132600,
          "time": 138.125,
          "velocity": 0.6299212598425197
        },
        {
          "duration": 0.4739583333333428,
          "durationTicks": 455,
          "midi": 72,
          "name": "C5",
          "ticks": 132600,
          "time": 138.125,
          "velocity": 0.6299212598425197
        },
        {
          "duration": 0.23645833333333144,
          "durationTicks": 227,
          "midi": 65,
          "name": "F4",
          "ticks": 133080,
          "time": 138.625,
          "velocity": 0.6299212598425197
        },
        {
          "duration": 0.23645833333333144,
          "durationTicks": 227,
          "midi": 72,
          "name": "C5",
          "ticks": 133080,
          "time": 138.625,
          "velocity": 0.6299212598425197
        },
        {
          "duration": 0.11770833333332575,
          "durationTicks": 113,
          "midi": 74,
          "name": "D5",
          "ticks": 133320,
          "time": 138.875,
          "velocity": 0.6299212598425197
        },
        {
          "duration": 0.11770833333332575,
          "durationTicks": 113,
          "midi": 72,
          "name": "C5",
          "ticks": 133440,
          "time": 139,
          "velocity": 0.6299212598425197
        },
        {
          "duration": 0.23645833333333144,
          "durationTicks": 227,
          "midi": 69,
          "name": "A4",
          "ticks": 133560,
          "time": 139.125,
          "velocity": 0.6299212598425197
        },
        {
          "duration": 0.23645833333333144,
          "durationTicks": 227,
          "midi": 67,
          "name": "G4",
          "ticks": 133800,
          "time": 139.375,
          "velocity": 0.6299212598425197
        },
        {
          "duration": 0.11770833333332575,
          "durationTicks": 113,
          "midi": 69,
          "name": "A4",
          "ticks": 134040,
          "time": 139.625,
          "velocity": 0.6299212598425197
        },
        {
          "duration": 0.11770833333332575,
          "durationTicks": 113,
          "midi": 77,
          "name": "F5",
          "ticks": 134160,
          "time": 139.75,
          "velocity": 0.6299212598425197
        },
        {
          "duration": 0.11770833333332575,
          "durationTicks": 113,
          "midi": 76,
          "name": "E5",
          "ticks": 134280,
          "time": 139.875,
          "velocity": 0.6299212598425197
        },
        {
          "duration": 0.11770833333332575,
          "durationTicks": 113,
          "midi": 74,
          "name": "D5",
          "ticks": 134400,
          "time": 140,
          "velocity": 0.6299212598425197
        },
        {
          "duration": 0.11770833333332575,
          "durationTicks": 113,
          "midi": 72,
          "name": "C5",
          "ticks": 134520,
          "time": 140.125,
          "velocity": 0.6299212598425197
        },
        {
          "duration": 0.11770833333332575,
          "durationTicks": 113,
          "midi": 69,
          "name": "A4",
          "ticks": 134640,
          "time": 140.25,
          "velocity": 0.6299212598425197
        },
        {
          "duration": 0.11770833333332575,
          "durationTicks": 113,
          "midi": 65,
          "name": "F4",
          "ticks": 134760,
          "time": 140.375,
          "velocity": 0.6299212598425197
        },
        {
          "duration": 0.23645833333333144,
          "durationTicks": 227,
          "midi": 67,
          "name": "G4",
          "ticks": 135000,
          "time": 140.625,
          "velocity": 0.6299212598425197
        },
        {
          "duration": 0.23645833333333144,
          "durationTicks": 227,
          "midi": 70,
          "name": "A#4",
          "ticks": 135000,
          "time": 140.625,
          "velocity": 0.6299212598425197
        },
        {
          "duration": 0.23645833333333144,
          "durationTicks": 227,
          "midi": 67,
          "name": "G4",
          "ticks": 135240,
          "time": 140.875,
          "velocity": 0.6299212598425197
        },
        {
          "duration": 0.23645833333333144,
          "durationTicks": 227,
          "midi": 70,
          "name": "A#4",
          "ticks": 135240,
          "time": 140.875,
          "velocity": 0.6299212598425197
        },
        {
          "duration": 0.4739583333333428,
          "durationTicks": 455,
          "midi": 67,
          "name": "G4",
          "ticks": 135480,
          "time": 141.125,
          "velocity": 0.6299212598425197
        },
        {
          "duration": 0.4739583333333428,
          "durationTicks": 455,
          "midi": 70,
          "name": "A#4",
          "ticks": 135480,
          "time": 141.125,
          "velocity": 0.6299212598425197
        },
        {
          "duration": 0.4739583333333428,
          "durationTicks": 455,
          "midi": 74,
          "name": "D5",
          "ticks": 135480,
          "time": 141.125,
          "velocity": 0.6299212598425197
        },
        {
          "duration": 0.4739583333333428,
          "durationTicks": 455,
          "midi": 67,
          "name": "G4",
          "ticks": 135960,
          "time": 141.625,
          "velocity": 0.6299212598425197
        },
        {
          "duration": 0.4739583333333428,
          "durationTicks": 455,
          "midi": 79,
          "name": "G5",
          "ticks": 135960,
          "time": 141.625,
          "velocity": 0.6299212598425197
        },
        {
          "duration": 0.4739583333333428,
          "durationTicks": 455,
          "midi": 67,
          "name": "G4",
          "ticks": 136440,
          "time": 142.125,
          "velocity": 0.6299212598425197
        },
        {
          "duration": 0.4739583333333428,
          "durationTicks": 455,
          "midi": 72,
          "name": "C5",
          "ticks": 136440,
          "time": 142.125,
          "velocity": 0.6299212598425197
        },
        {
          "duration": 0.4739583333333428,
          "durationTicks": 455,
          "midi": 76,
          "name": "E5",
          "ticks": 136440,
          "time": 142.125,
          "velocity": 0.6299212598425197
        },
        {
          "duration": 0.4739583333333428,
          "durationTicks": 455,
          "midi": 69,
          "name": "A4",
          "ticks": 136920,
          "time": 142.625,
          "velocity": 0.6299212598425197
        },
        {
          "duration": 0.4739583333333428,
          "durationTicks": 455,
          "midi": 72,
          "name": "C5",
          "ticks": 136920,
          "time": 142.625,
          "velocity": 0.6299212598425197
        },
        {
          "duration": 0.4739583333333428,
          "durationTicks": 455,
          "midi": 74,
          "name": "D5",
          "ticks": 136920,
          "time": 142.625,
          "velocity": 0.6299212598425197
        },
        {
          "duration": 0.4739583333333428,
          "durationTicks": 455,
          "midi": 77,
          "name": "F5",
          "ticks": 136920,
          "time": 142.625,
          "velocity": 0.6299212598425197
        },
        {
          "duration": 0.23645833333333144,
          "durationTicks": 227,
          "midi": 69,
          "name": "A4",
          "ticks": 137400,
          "time": 143.125,
          "velocity": 0.6299212598425197
        },
        {
          "duration": 0.23645833333333144,
          "durationTicks": 227,
          "midi": 74,
          "name": "D5",
          "ticks": 137400,
          "time": 143.125,
          "velocity": 0.6299212598425197
        },
        {
          "duration": 0.23645833333333144,
          "durationTicks": 227,
          "midi": 76,
          "name": "E5",
          "ticks": 137400,
          "time": 143.125,
          "velocity": 0.6299212598425197
        },
        {
          "duration": 0.23645833333333144,
          "durationTicks": 227,
          "midi": 72,
          "name": "C5",
          "ticks": 137640,
          "time": 143.375,
          "velocity": 0.6299212598425197
        },
        {
          "duration": 0.23645833333333144,
          "durationTicks": 227,
          "midi": 69,
          "name": "A4",
          "ticks": 137880,
          "time": 143.625,
          "velocity": 0.6299212598425197
        },
        {
          "duration": 0.23645833333333144,
          "durationTicks": 227,
          "midi": 74,
          "name": "D5",
          "ticks": 137880,
          "time": 143.625,
          "velocity": 0.6299212598425197
        },
        {
          "duration": 0.23645833333333144,
          "durationTicks": 227,
          "midi": 81,
          "name": "A5",
          "ticks": 137880,
          "time": 143.625,
          "velocity": 0.6299212598425197
        },
        {
          "duration": 0.23645833333333144,
          "durationTicks": 227,
          "midi": 79,
          "name": "G5",
          "ticks": 138120,
          "time": 143.875,
          "velocity": 0.6299212598425197
        },
        {
          "duration": 0.23645833333333144,
          "durationTicks": 227,
          "midi": 77,
          "name": "F5",
          "ticks": 138360,
          "time": 144.125,
          "velocity": 0.6299212598425197
        },
        {
          "duration": 0.23645833333333144,
          "durationTicks": 227,
          "midi": 76,
          "name": "E5",
          "ticks": 138600,
          "time": 144.375,
          "velocity": 0.6299212598425197
        },
        {
          "duration": 0.4739583333333428,
          "durationTicks": 455,
          "midi": 69,
          "name": "A4",
          "ticks": 138840,
          "time": 144.625,
          "velocity": 0.6299212598425197
        },
        {
          "duration": 0.4739583333333428,
          "durationTicks": 455,
          "midi": 77,
          "name": "F5",
          "ticks": 138840,
          "time": 144.625,
          "velocity": 0.6299212598425197
        },
        {
          "duration": 0.4739583333333428,
          "durationTicks": 455,
          "midi": 76,
          "name": "E5",
          "ticks": 139320,
          "time": 145.125,
          "velocity": 0.6299212598425197
        },
        {
          "duration": 0.4739583333333428,
          "durationTicks": 455,
          "midi": 65,
          "name": "F4",
          "ticks": 139800,
          "time": 145.625,
          "velocity": 0.6299212598425197
        },
        {
          "duration": 0.4739583333333428,
          "durationTicks": 455,
          "midi": 74,
          "name": "D5",
          "ticks": 139800,
          "time": 145.625,
          "velocity": 0.6299212598425197
        },
        {
          "duration": 0.4739583333333428,
          "durationTicks": 455,
          "midi": 72,
          "name": "C5",
          "ticks": 140280,
          "time": 146.125,
          "velocity": 0.6299212598425197
        },
        {
          "duration": 0.23645833333333144,
          "durationTicks": 227,
          "midi": 72,
          "name": "C5",
          "ticks": 140760,
          "time": 146.625,
          "velocity": 0.6299212598425197
        },
        {
          "duration": 0.11770833333332575,
          "durationTicks": 113,
          "midi": 74,
          "name": "D5",
          "ticks": 141000,
          "time": 146.875,
          "velocity": 0.6299212598425197
        },
        {
          "duration": 0.11770833333332575,
          "durationTicks": 113,
          "midi": 72,
          "name": "C5",
          "ticks": 141120,
          "time": 147,
          "velocity": 0.6299212598425197
        },
        {
          "duration": 0.23645833333333144,
          "durationTicks": 227,
          "midi": 69,
          "name": "A4",
          "ticks": 141240,
          "time": 147.125,
          "velocity": 0.6299212598425197
        },
        {
          "duration": 0.23645833333333144,
          "durationTicks": 227,
          "midi": 67,
          "name": "G4",
          "ticks": 141480,
          "time": 147.375,
          "velocity": 0.6299212598425197
        },
        {
          "duration": 0.11770833333332575,
          "durationTicks": 113,
          "midi": 69,
          "name": "A4",
          "ticks": 141720,
          "time": 147.625,
          "velocity": 0.6299212598425197
        },
        {
          "duration": 0.11770833333332575,
          "durationTicks": 113,
          "midi": 72,
          "name": "C5",
          "ticks": 141840,
          "time": 147.75,
          "velocity": 0.6299212598425197
        },
        {
          "duration": 0.11770833333332575,
          "durationTicks": 113,
          "midi": 74,
          "name": "D5",
          "ticks": 141960,
          "time": 147.875,
          "velocity": 0.6299212598425197
        },
        {
          "duration": 0.11770833333332575,
          "durationTicks": 113,
          "midi": 77,
          "name": "F5",
          "ticks": 142080,
          "time": 148,
          "velocity": 0.6299212598425197
        },
        {
          "duration": 0.23645833333333144,
          "durationTicks": 227,
          "midi": 69,
          "name": "A4",
          "ticks": 142200,
          "time": 148.125,
          "velocity": 0.6299212598425197
        },
        {
          "duration": 0.23645833333333144,
          "durationTicks": 227,
          "midi": 72,
          "name": "C5",
          "ticks": 142440,
          "time": 148.375,
          "velocity": 0.6299212598425197
        },
        {
          "duration": 0.23645833333333144,
          "durationTicks": 227,
          "midi": 67,
          "name": "G4",
          "ticks": 142680,
          "time": 148.625,
          "velocity": 0.6299212598425197
        },
        {
          "duration": 0.23645833333333144,
          "durationTicks": 227,
          "midi": 71,
          "name": "B4",
          "ticks": 142680,
          "time": 148.625,
          "velocity": 0.6299212598425197
        },
        {
          "duration": 0.23645833333333144,
          "durationTicks": 227,
          "midi": 74,
          "name": "D5",
          "ticks": 142680,
          "time": 148.625,
          "velocity": 0.6299212598425197
        },
        {
          "duration": 0.23645833333333144,
          "durationTicks": 227,
          "midi": 67,
          "name": "G4",
          "ticks": 142920,
          "time": 148.875,
          "velocity": 0.6299212598425197
        },
        {
          "duration": 0.23645833333333144,
          "durationTicks": 227,
          "midi": 71,
          "name": "B4",
          "ticks": 142920,
          "time": 148.875,
          "velocity": 0.6299212598425197
        },
        {
          "duration": 0.23645833333333144,
          "durationTicks": 227,
          "midi": 74,
          "name": "D5",
          "ticks": 142920,
          "time": 148.875,
          "velocity": 0.6299212598425197
        },
        {
          "duration": 0.23645833333333144,
          "durationTicks": 227,
          "midi": 67,
          "name": "G4",
          "ticks": 143400,
          "time": 149.375,
          "velocity": 0.6299212598425197
        },
        {
          "duration": 0.23645833333333144,
          "durationTicks": 227,
          "midi": 71,
          "name": "B4",
          "ticks": 143400,
          "time": 149.375,
          "velocity": 0.6299212598425197
        },
        {
          "duration": 0.23645833333333144,
          "durationTicks": 227,
          "midi": 74,
          "name": "D5",
          "ticks": 143400,
          "time": 149.375,
          "velocity": 0.6299212598425197
        },
        {
          "duration": 0.4739583333333428,
          "durationTicks": 455,
          "midi": 71,
          "name": "B4",
          "ticks": 143640,
          "time": 149.625,
          "velocity": 0.6299212598425197
        },
        {
          "duration": 0.4739583333333428,
          "durationTicks": 455,
          "midi": 74,
          "name": "D5",
          "ticks": 143640,
          "time": 149.625,
          "velocity": 0.6299212598425197
        },
        {
          "duration": 0.4739583333333428,
          "durationTicks": 455,
          "midi": 77,
          "name": "F5",
          "ticks": 143640,
          "time": 149.625,
          "velocity": 0.6299212598425197
        },
        {
          "duration": 0.4739583333333428,
          "durationTicks": 455,
          "midi": 71,
          "name": "B4",
          "ticks": 144120,
          "time": 150.125,
          "velocity": 0.6299212598425197
        },
        {
          "duration": 0.4739583333333428,
          "durationTicks": 455,
          "midi": 74,
          "name": "D5",
          "ticks": 144120,
          "time": 150.125,
          "velocity": 0.6299212598425197
        },
        {
          "duration": 0.4739583333333428,
          "durationTicks": 455,
          "midi": 79,
          "name": "G5",
          "ticks": 144120,
          "time": 150.125,
          "velocity": 0.6299212598425197
        },
        {
          "duration": 0.4739583333333428,
          "durationTicks": 455,
          "midi": 69,
          "name": "A4",
          "ticks": 144600,
          "time": 150.625,
          "velocity": 0.6299212598425197
        },
        {
          "duration": 0.4739583333333428,
          "durationTicks": 455,
          "midi": 73,
          "name": "C#5",
          "ticks": 144600,
          "time": 150.625,
          "velocity": 0.6299212598425197
        },
        {
          "duration": 0.4739583333333428,
          "durationTicks": 455,
          "midi": 76,
          "name": "E5",
          "ticks": 144600,
          "time": 150.625,
          "velocity": 0.6299212598425197
        },
        {
          "duration": 0.4739583333333428,
          "durationTicks": 455,
          "midi": 76,
          "name": "E5",
          "ticks": 145080,
          "time": 151.125,
          "velocity": 0.6299212598425197
        },
        {
          "duration": 0.4739583333333428,
          "durationTicks": 455,
          "midi": 81,
          "name": "A5",
          "ticks": 145080,
          "time": 151.125,
          "velocity": 0.6299212598425197
        },
        {
          "duration": 0.23645833333333144,
          "durationTicks": 227,
          "midi": 62,
          "name": "D4",
          "ticks": 146040,
          "time": 152.125,
          "velocity": 0.6299212598425197
        },
        {
          "duration": 0.23645833333333144,
          "durationTicks": 227,
          "midi": 74,
          "name": "D5",
          "ticks": 146040,
          "time": 152.125,
          "velocity": 0.6299212598425197
        },
        {
          "duration": 0.23645833333333144,
          "durationTicks": 227,
          "midi": 65,
          "name": "F4",
          "ticks": 146280,
          "time": 152.375,
          "velocity": 0.6299212598425197
        },
        {
          "duration": 0.23645833333333144,
          "durationTicks": 227,
          "midi": 77,
          "name": "F5",
          "ticks": 146280,
          "time": 152.375,
          "velocity": 0.6299212598425197
        },
        {
          "duration": 0.3552083333333371,
          "durationTicks": 341,
          "midi": 79,
          "name": "G5",
          "ticks": 146520,
          "time": 152.625,
          "velocity": 0.6299212598425197
        },
        {
          "duration": 0.3552083333333371,
          "durationTicks": 341,
          "midi": 79,
          "name": "G5",
          "ticks": 146880,
          "time": 153,
          "velocity": 0.6299212598425197
        },
        {
          "duration": 0.11770833333332575,
          "durationTicks": 113,
          "midi": 69,
          "name": "A4",
          "ticks": 147240,
          "time": 153.375,
          "velocity": 0.6299212598425197
        },
        {
          "duration": 0.11770833333332575,
          "durationTicks": 113,
          "midi": 81,
          "name": "A5",
          "ticks": 147240,
          "time": 153.375,
          "velocity": 0.6299212598425197
        },
        {
          "duration": 0.7114583333333258,
          "durationTicks": 683,
          "midi": 69,
          "name": "A4",
          "ticks": 147480,
          "time": 153.625,
          "velocity": 0.6299212598425197
        },
        {
          "duration": 0.7114583333333258,
          "durationTicks": 683,
          "midi": 74,
          "name": "D5",
          "ticks": 147480,
          "time": 153.625,
          "velocity": 0.6299212598425197
        },
        {
          "duration": 0.7114583333333258,
          "durationTicks": 683,
          "midi": 81,
          "name": "A5",
          "ticks": 147480,
          "time": 153.625,
          "velocity": 0.6299212598425197
        },
        {
          "duration": 0.23645833333333144,
          "durationTicks": 227,
          "midi": 69,
          "name": "A4",
          "ticks": 148200,
          "time": 154.375,
          "velocity": 0.6299212598425197
        },
        {
          "duration": 0.23645833333333144,
          "durationTicks": 227,
          "midi": 74,
          "name": "D5",
          "ticks": 148200,
          "time": 154.375,
          "velocity": 0.6299212598425197
        },
        {
          "duration": 0.23645833333333144,
          "durationTicks": 227,
          "midi": 81,
          "name": "A5",
          "ticks": 148200,
          "time": 154.375,
          "velocity": 0.6299212598425197
        },
        {
          "duration": 0.23645833333333144,
          "durationTicks": 227,
          "midi": 76,
          "name": "E5",
          "ticks": 148440,
          "time": 154.625,
          "velocity": 0.6299212598425197
        },
        {
          "duration": 0.23645833333333144,
          "durationTicks": 227,
          "midi": 84,
          "name": "C6",
          "ticks": 148440,
          "time": 154.625,
          "velocity": 0.6299212598425197
        },
        {
          "duration": 0.23645833333333144,
          "durationTicks": 227,
          "midi": 86,
          "name": "D6",
          "ticks": 148680,
          "time": 154.875,
          "velocity": 0.6299212598425197
        },
        {
          "duration": 0.23645833333333144,
          "durationTicks": 227,
          "midi": 79,
          "name": "G5",
          "ticks": 148920,
          "time": 155.125,
          "velocity": 0.6299212598425197
        },
        {
          "duration": 0.23645833333333144,
          "durationTicks": 227,
          "midi": 77,
          "name": "F5",
          "ticks": 149160,
          "time": 155.375,
          "velocity": 0.6299212598425197
        },
        {
          "duration": 0.23645833333333144,
          "durationTicks": 227,
          "midi": 81,
          "name": "A5",
          "ticks": 149400,
          "time": 155.625,
          "velocity": 0.6299212598425197
        },
        {
          "duration": 0.23645833333333144,
          "durationTicks": 227,
          "midi": 89,
          "name": "F6",
          "ticks": 149400,
          "time": 155.625,
          "velocity": 0.6299212598425197
        },
        {
          "duration": 0.23645833333333144,
          "durationTicks": 227,
          "midi": 88,
          "name": "E6",
          "ticks": 149640,
          "time": 155.875,
          "velocity": 0.6299212598425197
        },
        {
          "duration": 0.23645833333333144,
          "durationTicks": 227,
          "midi": 74,
          "name": "D5",
          "ticks": 149880,
          "time": 156.125,
          "velocity": 0.6299212598425197
        },
        {
          "duration": 0.23645833333333144,
          "durationTicks": 227,
          "midi": 86,
          "name": "D6",
          "ticks": 149880,
          "time": 156.125,
          "velocity": 0.6299212598425197
        },
        {
          "duration": 0.23645833333333144,
          "durationTicks": 227,
          "midi": 77,
          "name": "F5",
          "ticks": 150120,
          "time": 156.375,
          "velocity": 0.6299212598425197
        },
        {
          "duration": 0.23645833333333144,
          "durationTicks": 227,
          "midi": 84,
          "name": "C6",
          "ticks": 150120,
          "time": 156.375,
          "velocity": 0.6299212598425197
        },
        {
          "duration": 0.3552083333333371,
          "durationTicks": 341,
          "midi": 74,
          "name": "D5",
          "ticks": 150360,
          "time": 156.625,
          "velocity": 0.6299212598425197
        },
        {
          "duration": 0.3552083333333371,
          "durationTicks": 341,
          "midi": 79,
          "name": "G5",
          "ticks": 150360,
          "time": 156.625,
          "velocity": 0.6299212598425197
        },
        {
          "duration": 0.3552083333333371,
          "durationTicks": 341,
          "midi": 84,
          "name": "C6",
          "ticks": 150360,
          "time": 156.625,
          "velocity": 0.6299212598425197
        },
        {
          "duration": 0.3552083333333371,
          "durationTicks": 341,
          "midi": 74,
          "name": "D5",
          "ticks": 150720,
          "time": 157,
          "velocity": 0.6299212598425197
        },
        {
          "duration": 0.3552083333333371,
          "durationTicks": 341,
          "midi": 79,
          "name": "G5",
          "ticks": 150720,
          "time": 157,
          "velocity": 0.6299212598425197
        },
        {
          "duration": 0.23645833333333144,
          "durationTicks": 227,
          "midi": 74,
          "name": "D5",
          "ticks": 151080,
          "time": 157.375,
          "velocity": 0.6299212598425197
        },
        {
          "duration": 0.23645833333333144,
          "durationTicks": 227,
          "midi": 77,
          "name": "F5",
          "ticks": 151080,
          "time": 157.375,
          "velocity": 0.6299212598425197
        },
        {
          "duration": 0.23645833333333144,
          "durationTicks": 227,
          "midi": 81,
          "name": "A5",
          "ticks": 151080,
          "time": 157.375,
          "velocity": 0.6299212598425197
        },
        {
          "duration": 0.7114583333333258,
          "durationTicks": 683,
          "midi": 74,
          "name": "D5",
          "ticks": 151320,
          "time": 157.625,
          "velocity": 0.6299212598425197
        },
        {
          "duration": 0.7114583333333258,
          "durationTicks": 683,
          "midi": 77,
          "name": "F5",
          "ticks": 151320,
          "time": 157.625,
          "velocity": 0.6299212598425197
        },
        {
          "duration": 0.7114583333333258,
          "durationTicks": 683,
          "midi": 81,
          "name": "A5",
          "ticks": 151320,
          "time": 157.625,
          "velocity": 0.6299212598425197
        },
        {
          "duration": 0.23645833333333144,
          "durationTicks": 227,
          "midi": 74,
          "name": "D5",
          "ticks": 152040,
          "time": 158.375,
          "velocity": 0.6299212598425197
        },
        {
          "duration": 0.23645833333333144,
          "durationTicks": 227,
          "midi": 77,
          "name": "F5",
          "ticks": 152040,
          "time": 158.375,
          "velocity": 0.6299212598425197
        },
        {
          "duration": 0.23645833333333144,
          "durationTicks": 227,
          "midi": 81,
          "name": "A5",
          "ticks": 152040,
          "time": 158.375,
          "velocity": 0.6299212598425197
        },
        {
          "duration": 0.23645833333333144,
          "durationTicks": 227,
          "midi": 72,
          "name": "C5",
          "ticks": 152280,
          "time": 158.625,
          "velocity": 0.6299212598425197
        },
        {
          "duration": 0.23645833333333144,
          "durationTicks": 227,
          "midi": 82,
          "name": "A#5",
          "ticks": 152280,
          "time": 158.625,
          "velocity": 0.6299212598425197
        },
        {
          "duration": 0.23645833333333144,
          "durationTicks": 227,
          "midi": 74,
          "name": "D5",
          "ticks": 152520,
          "time": 158.875,
          "velocity": 0.6299212598425197
        },
        {
          "duration": 0.23645833333333144,
          "durationTicks": 227,
          "midi": 81,
          "name": "A5",
          "ticks": 152520,
          "time": 158.875,
          "velocity": 0.6299212598425197
        },
        {
          "duration": 0.23645833333333144,
          "durationTicks": 227,
          "midi": 72,
          "name": "C5",
          "ticks": 152760,
          "time": 159.125,
          "velocity": 0.6299212598425197
        },
        {
          "duration": 0.23645833333333144,
          "durationTicks": 227,
          "midi": 79,
          "name": "G5",
          "ticks": 152760,
          "time": 159.125,
          "velocity": 0.6299212598425197
        },
        {
          "duration": 0.23645833333333144,
          "durationTicks": 227,
          "midi": 77,
          "name": "F5",
          "ticks": 153000,
          "time": 159.375,
          "velocity": 0.6299212598425197
        },
        {
          "duration": 0.4739583333333428,
          "durationTicks": 455,
          "midi": 69,
          "name": "A4",
          "ticks": 153240,
          "time": 159.625,
          "velocity": 0.6299212598425197
        },
        {
          "duration": 0.4739583333333428,
          "durationTicks": 455,
          "midi": 72,
          "name": "C5",
          "ticks": 153240,
          "time": 159.625,
          "velocity": 0.6299212598425197
        },
        {
          "duration": 0.4739583333333428,
          "durationTicks": 455,
          "midi": 77,
          "name": "F5",
          "ticks": 153240,
          "time": 159.625,
          "velocity": 0.6299212598425197
        },
        {
          "duration": 0.23645833333333144,
          "durationTicks": 227,
          "midi": 74,
          "name": "D5",
          "ticks": 153720,
          "time": 160.125,
          "velocity": 0.6299212598425197
        },
        {
          "duration": 0.23645833333333144,
          "durationTicks": 227,
          "midi": 77,
          "name": "F5",
          "ticks": 153960,
          "time": 160.375,
          "velocity": 0.6299212598425197
        },
        {
          "duration": 0.3552083333333371,
          "durationTicks": 341,
          "midi": 74,
          "name": "D5",
          "ticks": 154200,
          "time": 160.625,
          "velocity": 0.6299212598425197
        },
        {
          "duration": 0.3552083333333371,
          "durationTicks": 341,
          "midi": 79,
          "name": "G5",
          "ticks": 154200,
          "time": 160.625,
          "velocity": 0.6299212598425197
        },
        {
          "duration": 0.11770833333332575,
          "durationTicks": 113,
          "midi": 74,
          "name": "D5",
          "ticks": 154560,
          "time": 161,
          "velocity": 0.6299212598425197
        },
        {
          "duration": 0.11770833333332575,
          "durationTicks": 113,
          "midi": 79,
          "name": "G5",
          "ticks": 154560,
          "time": 161,
          "velocity": 0.6299212598425197
        },
        {
          "duration": 0.23645833333333144,
          "durationTicks": 227,
          "midi": 84,
          "name": "C6",
          "ticks": 154680,
          "time": 161.125,
          "velocity": 0.6299212598425197
        },
        {
          "duration": 0.23645833333333144,
          "durationTicks": 227,
          "midi": 74,
          "name": "D5",
          "ticks": 154920,
          "time": 161.375,
          "velocity": 0.6299212598425197
        },
        {
          "duration": 0.23645833333333144,
          "durationTicks": 227,
          "midi": 77,
          "name": "F5",
          "ticks": 154920,
          "time": 161.375,
          "velocity": 0.6299212598425197
        },
        {
          "duration": 0.23645833333333144,
          "durationTicks": 227,
          "midi": 81,
          "name": "A5",
          "ticks": 154920,
          "time": 161.375,
          "velocity": 0.6299212598425197
        },
        {
          "duration": 0.7114583333333258,
          "durationTicks": 683,
          "midi": 74,
          "name": "D5",
          "ticks": 155160,
          "time": 161.625,
          "velocity": 0.6299212598425197
        },
        {
          "duration": 0.7114583333333258,
          "durationTicks": 683,
          "midi": 77,
          "name": "F5",
          "ticks": 155160,
          "time": 161.625,
          "velocity": 0.6299212598425197
        },
        {
          "duration": 0.7114583333333258,
          "durationTicks": 683,
          "midi": 81,
          "name": "A5",
          "ticks": 155160,
          "time": 161.625,
          "velocity": 0.6299212598425197
        },
        {
          "duration": 0.7114583333333258,
          "durationTicks": 683,
          "midi": 86,
          "name": "D6",
          "ticks": 155160,
          "time": 161.625,
          "velocity": 0.6299212598425197
        },
        {
          "duration": 0.23645833333333144,
          "durationTicks": 227,
          "midi": 74,
          "name": "D5",
          "ticks": 155880,
          "time": 162.375,
          "velocity": 0.6299212598425197
        },
        {
          "duration": 0.23645833333333144,
          "durationTicks": 227,
          "midi": 77,
          "name": "F5",
          "ticks": 155880,
          "time": 162.375,
          "velocity": 0.6299212598425197
        },
        {
          "duration": 0.23645833333333144,
          "durationTicks": 227,
          "midi": 81,
          "name": "A5",
          "ticks": 155880,
          "time": 162.375,
          "velocity": 0.6299212598425197
        },
        {
          "duration": 0.23645833333333144,
          "durationTicks": 227,
          "midi": 76,
          "name": "E5",
          "ticks": 156120,
          "time": 162.625,
          "velocity": 0.6299212598425197
        },
        {
          "duration": 0.23645833333333144,
          "durationTicks": 227,
          "midi": 84,
          "name": "C6",
          "ticks": 156120,
          "time": 162.625,
          "velocity": 0.6299212598425197
        },
        {
          "duration": 0.23645833333333144,
          "durationTicks": 227,
          "midi": 74,
          "name": "D5",
          "ticks": 156360,
          "time": 162.875,
          "velocity": 0.6299212598425197
        },
        {
          "duration": 0.23645833333333144,
          "durationTicks": 227,
          "midi": 86,
          "name": "D6",
          "ticks": 156360,
          "time": 162.875,
          "velocity": 0.6299212598425197
        },
        {
          "duration": 0.23645833333333144,
          "durationTicks": 227,
          "midi": 79,
          "name": "G5",
          "ticks": 156600,
          "time": 163.125,
          "velocity": 0.6299212598425197
        },
        {
          "duration": 0.23645833333333144,
          "durationTicks": 227,
          "midi": 77,
          "name": "F5",
          "ticks": 156840,
          "time": 163.375,
          "velocity": 0.6299212598425197
        },
        {
          "duration": 0.4739583333333428,
          "durationTicks": 455,
          "midi": 77,
          "name": "F5",
          "ticks": 157080,
          "time": 163.625,
          "velocity": 0.6299212598425197
        },
        {
          "duration": 0.4739583333333428,
          "durationTicks": 455,
          "midi": 81,
          "name": "A5",
          "ticks": 157080,
          "time": 163.625,
          "velocity": 0.6299212598425197
        },
        {
          "duration": 0.4739583333333428,
          "durationTicks": 455,
          "midi": 86,
          "name": "D6",
          "ticks": 157080,
          "time": 163.625,
          "velocity": 0.6299212598425197
        },
        {
          "duration": 0.23645833333333144,
          "durationTicks": 227,
          "midi": 74,
          "name": "D5",
          "ticks": 157560,
          "time": 164.125,
          "velocity": 0.6299212598425197
        },
        {
          "duration": 0.23645833333333144,
          "durationTicks": 227,
          "midi": 77,
          "name": "F5",
          "ticks": 157800,
          "time": 164.375,
          "velocity": 0.6299212598425197
        },
        {
          "duration": 0.4739583333333428,
          "durationTicks": 455,
          "midi": 74,
          "name": "D5",
          "ticks": 158040,
          "time": 164.625,
          "velocity": 0.6299212598425197
        },
        {
          "duration": 0.4739583333333428,
          "durationTicks": 455,
          "midi": 82,
          "name": "A#5",
          "ticks": 158040,
          "time": 164.625,
          "velocity": 0.6299212598425197
        },
        {
          "duration": 0.4739583333333428,
          "durationTicks": 455,
          "midi": 74,
          "name": "D5",
          "ticks": 158520,
          "time": 165.125,
          "velocity": 0.6299212598425197
        },
        {
          "duration": 0.4739583333333428,
          "durationTicks": 455,
          "midi": 81,
          "name": "A5",
          "ticks": 158520,
          "time": 165.125,
          "velocity": 0.6299212598425197
        },
        {
          "duration": 0.4739583333333428,
          "durationTicks": 455,
          "midi": 72,
          "name": "C5",
          "ticks": 159000,
          "time": 165.625,
          "velocity": 0.6299212598425197
        },
        {
          "duration": 0.4739583333333428,
          "durationTicks": 455,
          "midi": 76,
          "name": "E5",
          "ticks": 159000,
          "time": 165.625,
          "velocity": 0.6299212598425197
        },
        {
          "duration": 0.4739583333333428,
          "durationTicks": 455,
          "midi": 79,
          "name": "G5",
          "ticks": 159000,
          "time": 165.625,
          "velocity": 0.6299212598425197
        },
        {
          "duration": 0.4739583333333428,
          "durationTicks": 455,
          "midi": 72,
          "name": "C5",
          "ticks": 159480,
          "time": 166.125,
          "velocity": 0.6299212598425197
        },
        {
          "duration": 0.4739583333333428,
          "durationTicks": 455,
          "midi": 77,
          "name": "F5",
          "ticks": 159480,
          "time": 166.125,
          "velocity": 0.6299212598425197
        },
        {
          "duration": 0.4739583333333428,
          "durationTicks": 455,
          "midi": 81,
          "name": "A5",
          "ticks": 159480,
          "time": 166.125,
          "velocity": 0.6299212598425197
        },
        {
          "duration": 0.23645833333333144,
          "durationTicks": 227,
          "midi": 72,
          "name": "C5",
          "ticks": 159960,
          "time": 166.625,
          "velocity": 0.6299212598425197
        },
        {
          "duration": 0.23645833333333144,
          "durationTicks": 227,
          "midi": 79,
          "name": "G5",
          "ticks": 159960,
          "time": 166.625,
          "velocity": 0.6299212598425197
        },
        {
          "duration": 0.23645833333333144,
          "durationTicks": 227,
          "midi": 81,
          "name": "A5",
          "ticks": 160200,
          "time": 166.875,
          "velocity": 0.6299212598425197
        },
        {
          "duration": 0.23645833333333144,
          "durationTicks": 227,
          "midi": 72,
          "name": "C5",
          "ticks": 160440,
          "time": 167.125,
          "velocity": 0.6299212598425197
        },
        {
          "duration": 0.23645833333333144,
          "durationTicks": 227,
          "midi": 76,
          "name": "E5",
          "ticks": 160440,
          "time": 167.125,
          "velocity": 0.6299212598425197
        },
        {
          "duration": 0.23645833333333144,
          "durationTicks": 227,
          "midi": 72,
          "name": "C5",
          "ticks": 160680,
          "time": 167.375,
          "velocity": 0.6299212598425197
        },
        {
          "duration": 0.4739583333333428,
          "durationTicks": 455,
          "midi": 74,
          "name": "D5",
          "ticks": 160920,
          "time": 167.625,
          "velocity": 0.6299212598425197
        },
        {
          "duration": 0.23645833333333144,
          "durationTicks": 227,
          "midi": 62,
          "name": "D4",
          "ticks": 161400,
          "time": 168.125,
          "velocity": 0.6299212598425197
        },
        {
          "duration": 0.23645833333333144,
          "durationTicks": 227,
          "midi": 74,
          "name": "D5",
          "ticks": 161400,
          "time": 168.125,
          "velocity": 0.6299212598425197
        },
        {
          "duration": 0.23645833333333144,
          "durationTicks": 227,
          "midi": 65,
          "name": "F4",
          "ticks": 161640,
          "time": 168.375,
          "velocity": 0.6299212598425197
        },
        {
          "duration": 0.23645833333333144,
          "durationTicks": 227,
          "midi": 77,
          "name": "F5",
          "ticks": 161640,
          "time": 168.375,
          "velocity": 0.6299212598425197
        },
        {
          "duration": 0.3552083333333371,
          "durationTicks": 341,
          "midi": 67,
          "name": "G4",
          "ticks": 161880,
          "time": 168.625,
          "velocity": 0.6299212598425197
        },
        {
          "duration": 0.3552083333333371,
          "durationTicks": 341,
          "midi": 72,
          "name": "C5",
          "ticks": 161880,
          "time": 168.625,
          "velocity": 0.6299212598425197
        },
        {
          "duration": 0.3552083333333371,
          "durationTicks": 341,
          "midi": 79,
          "name": "G5",
          "ticks": 161880,
          "time": 168.625,
          "velocity": 0.6299212598425197
        },
        {
          "duration": 0.3552083333333371,
          "durationTicks": 341,
          "midi": 67,
          "name": "G4",
          "ticks": 162240,
          "time": 169,
          "velocity": 0.6299212598425197
        },
        {
          "duration": 0.3552083333333371,
          "durationTicks": 341,
          "midi": 74,
          "name": "D5",
          "ticks": 162240,
          "time": 169,
          "velocity": 0.6299212598425197
        },
        {
          "duration": 0.3552083333333371,
          "durationTicks": 341,
          "midi": 79,
          "name": "G5",
          "ticks": 162240,
          "time": 169,
          "velocity": 0.6299212598425197
        },
        {
          "duration": 0.23645833333333144,
          "durationTicks": 227,
          "midi": 69,
          "name": "A4",
          "ticks": 162600,
          "time": 169.375,
          "velocity": 0.6299212598425197
        },
        {
          "duration": 0.23645833333333144,
          "durationTicks": 227,
          "midi": 79,
          "name": "G5",
          "ticks": 162600,
          "time": 169.375,
          "velocity": 0.6299212598425197
        },
        {
          "duration": 0.23645833333333144,
          "durationTicks": 227,
          "midi": 81,
          "name": "A5",
          "ticks": 162600,
          "time": 169.375,
          "velocity": 0.6299212598425197
        },
        {
          "duration": 0.7114583333333258,
          "durationTicks": 683,
          "midi": 69,
          "name": "A4",
          "ticks": 162840,
          "time": 169.625,
          "velocity": 0.6299212598425197
        },
        {
          "duration": 0.7114583333333258,
          "durationTicks": 683,
          "midi": 74,
          "name": "D5",
          "ticks": 162840,
          "time": 169.625,
          "velocity": 0.6299212598425197
        },
        {
          "duration": 0.7114583333333258,
          "durationTicks": 683,
          "midi": 81,
          "name": "A5",
          "ticks": 162840,
          "time": 169.625,
          "velocity": 0.6299212598425197
        },
        {
          "duration": 0.23645833333333144,
          "durationTicks": 227,
          "midi": 69,
          "name": "A4",
          "ticks": 163560,
          "time": 170.375,
          "velocity": 0.6299212598425197
        },
        {
          "duration": 0.23645833333333144,
          "durationTicks": 227,
          "midi": 72,
          "name": "C5",
          "ticks": 163560,
          "time": 170.375,
          "velocity": 0.6299212598425197
        },
        {
          "duration": 0.23645833333333144,
          "durationTicks": 227,
          "midi": 81,
          "name": "A5",
          "ticks": 163560,
          "time": 170.375,
          "velocity": 0.6299212598425197
        },
        {
          "duration": 0.15729166666667993,
          "durationTicks": 151,
          "midi": 76,
          "name": "E5",
          "ticks": 163800,
          "time": 170.625,
          "velocity": 0.6299212598425197
        },
        {
          "duration": 0.15729166666667993,
          "durationTicks": 151,
          "midi": 84,
          "name": "C6",
          "ticks": 163800,
          "time": 170.625,
          "velocity": 0.6299212598425197
        },
        {
          "duration": 0.15729166666667993,
          "durationTicks": 151,
          "midi": 86,
          "name": "D6",
          "ticks": 163960,
          "time": 170.79166666666666,
          "velocity": 0.6299212598425197
        },
        {
          "duration": 0.1572916666666515,
          "durationTicks": 151,
          "midi": 74,
          "name": "D5",
          "ticks": 164120,
          "time": 170.95833333333334,
          "velocity": 0.6299212598425197
        },
        {
          "duration": 0.23645833333333144,
          "durationTicks": 227,
          "midi": 77,
          "name": "F5",
          "ticks": 164280,
          "time": 171.125,
          "velocity": 0.6299212598425197
        },
        {
          "duration": 0.4739583333333428,
          "durationTicks": 455,
          "midi": 72,
          "name": "C5",
          "ticks": 164520,
          "time": 171.375,
          "velocity": 0.6299212598425197
        },
        {
          "duration": 0.4739583333333428,
          "durationTicks": 455,
          "midi": 77,
          "name": "F5",
          "ticks": 164520,
          "time": 171.375,
          "velocity": 0.6299212598425197
        },
        {
          "duration": 0.4739583333333428,
          "durationTicks": 455,
          "midi": 81,
          "name": "A5",
          "ticks": 164520,
          "time": 171.375,
          "velocity": 0.6299212598425197
        },
        {
          "duration": 0.23645833333333144,
          "durationTicks": 227,
          "midi": 74,
          "name": "D5",
          "ticks": 165240,
          "time": 172.125,
          "velocity": 0.6299212598425197
        },
        {
          "duration": 0.23645833333333144,
          "durationTicks": 227,
          "midi": 77,
          "name": "F5",
          "ticks": 165480,
          "time": 172.375,
          "velocity": 0.6299212598425197
        },
        {
          "duration": 0.3552083333333371,
          "durationTicks": 341,
          "midi": 74,
          "name": "D5",
          "ticks": 165720,
          "time": 172.625,
          "velocity": 0.6299212598425197
        },
        {
          "duration": 0.3552083333333371,
          "durationTicks": 341,
          "midi": 79,
          "name": "G5",
          "ticks": 165720,
          "time": 172.625,
          "velocity": 0.6299212598425197
        },
        {
          "duration": 0.3552083333333371,
          "durationTicks": 341,
          "midi": 74,
          "name": "D5",
          "ticks": 166080,
          "time": 173,
          "velocity": 0.6299212598425197
        },
        {
          "duration": 0.3552083333333371,
          "durationTicks": 341,
          "midi": 79,
          "name": "G5",
          "ticks": 166080,
          "time": 173,
          "velocity": 0.6299212598425197
        },
        {
          "duration": 0.23645833333333144,
          "durationTicks": 227,
          "midi": 74,
          "name": "D5",
          "ticks": 166440,
          "time": 173.375,
          "velocity": 0.6299212598425197
        },
        {
          "duration": 0.23645833333333144,
          "durationTicks": 227,
          "midi": 77,
          "name": "F5",
          "ticks": 166440,
          "time": 173.375,
          "velocity": 0.6299212598425197
        },
        {
          "duration": 0.23645833333333144,
          "durationTicks": 227,
          "midi": 81,
          "name": "A5",
          "ticks": 166440,
          "time": 173.375,
          "velocity": 0.6299212598425197
        },
        {
          "duration": 0.7114583333333258,
          "durationTicks": 683,
          "midi": 74,
          "name": "D5",
          "ticks": 166680,
          "time": 173.625,
          "velocity": 0.6299212598425197
        },
        {
          "duration": 0.7114583333333258,
          "durationTicks": 683,
          "midi": 77,
          "name": "F5",
          "ticks": 166680,
          "time": 173.625,
          "velocity": 0.6299212598425197
        },
        {
          "duration": 0.7114583333333258,
          "durationTicks": 683,
          "midi": 81,
          "name": "A5",
          "ticks": 166680,
          "time": 173.625,
          "velocity": 0.6299212598425197
        },
        {
          "duration": 0.23645833333333144,
          "durationTicks": 227,
          "midi": 74,
          "name": "D5",
          "ticks": 167400,
          "time": 174.375,
          "velocity": 0.6299212598425197
        },
        {
          "duration": 0.23645833333333144,
          "durationTicks": 227,
          "midi": 77,
          "name": "F5",
          "ticks": 167400,
          "time": 174.375,
          "velocity": 0.6299212598425197
        },
        {
          "duration": 0.23645833333333144,
          "durationTicks": 227,
          "midi": 81,
          "name": "A5",
          "ticks": 167400,
          "time": 174.375,
          "velocity": 0.6299212598425197
        },
        {
          "duration": 0.23645833333333144,
          "durationTicks": 227,
          "midi": 74,
          "name": "D5",
          "ticks": 167640,
          "time": 174.625,
          "velocity": 0.6299212598425197
        },
        {
          "duration": 0.23645833333333144,
          "durationTicks": 227,
          "midi": 82,
          "name": "A#5",
          "ticks": 167640,
          "time": 174.625,
          "velocity": 0.6299212598425197
        },
        {
          "duration": 0.23645833333333144,
          "durationTicks": 227,
          "midi": 72,
          "name": "C5",
          "ticks": 167880,
          "time": 174.875,
          "velocity": 0.6299212598425197
        },
        {
          "duration": 0.23645833333333144,
          "durationTicks": 227,
          "midi": 81,
          "name": "A5",
          "ticks": 167880,
          "time": 174.875,
          "velocity": 0.6299212598425197
        },
        {
          "duration": 0.23645833333333144,
          "durationTicks": 227,
          "midi": 69,
          "name": "A4",
          "ticks": 168120,
          "time": 175.125,
          "velocity": 0.6299212598425197
        },
        {
          "duration": 0.23645833333333144,
          "durationTicks": 227,
          "midi": 79,
          "name": "G5",
          "ticks": 168120,
          "time": 175.125,
          "velocity": 0.6299212598425197
        },
        {
          "duration": 0.23645833333333144,
          "durationTicks": 227,
          "midi": 72,
          "name": "C5",
          "ticks": 168360,
          "time": 175.375,
          "velocity": 0.6299212598425197
        },
        {
          "duration": 0.23645833333333144,
          "durationTicks": 227,
          "midi": 77,
          "name": "F5",
          "ticks": 168360,
          "time": 175.375,
          "velocity": 0.6299212598425197
        },
        {
          "duration": 0.4739583333333428,
          "durationTicks": 455,
          "midi": 69,
          "name": "A4",
          "ticks": 168600,
          "time": 175.625,
          "velocity": 0.6299212598425197
        },
        {
          "duration": 0.4739583333333428,
          "durationTicks": 455,
          "midi": 72,
          "name": "C5",
          "ticks": 168600,
          "time": 175.625,
          "velocity": 0.6299212598425197
        },
        {
          "duration": 0.4739583333333428,
          "durationTicks": 455,
          "midi": 77,
          "name": "F5",
          "ticks": 168600,
          "time": 175.625,
          "velocity": 0.6299212598425197
        },
        {
          "duration": 0.23645833333333144,
          "durationTicks": 227,
          "midi": 74,
          "name": "D5",
          "ticks": 169080,
          "time": 176.125,
          "velocity": 0.6299212598425197
        },
        {
          "duration": 0.23645833333333144,
          "durationTicks": 227,
          "midi": 77,
          "name": "F5",
          "ticks": 169320,
          "time": 176.375,
          "velocity": 0.6299212598425197
        },
        {
          "duration": 0.3552083333333371,
          "durationTicks": 341,
          "midi": 74,
          "name": "D5",
          "ticks": 169560,
          "time": 176.625,
          "velocity": 0.6299212598425197
        },
        {
          "duration": 0.3552083333333371,
          "durationTicks": 341,
          "midi": 79,
          "name": "G5",
          "ticks": 169560,
          "time": 176.625,
          "velocity": 0.6299212598425197
        },
        {
          "duration": 0.3552083333333371,
          "durationTicks": 341,
          "midi": 74,
          "name": "D5",
          "ticks": 169920,
          "time": 177,
          "velocity": 0.6299212598425197
        },
        {
          "duration": 0.3552083333333371,
          "durationTicks": 341,
          "midi": 79,
          "name": "G5",
          "ticks": 169920,
          "time": 177,
          "velocity": 0.6299212598425197
        },
        {
          "duration": 0.23645833333333144,
          "durationTicks": 227,
          "midi": 74,
          "name": "D5",
          "ticks": 170280,
          "time": 177.375,
          "velocity": 0.6299212598425197
        },
        {
          "duration": 0.23645833333333144,
          "durationTicks": 227,
          "midi": 77,
          "name": "F5",
          "ticks": 170280,
          "time": 177.375,
          "velocity": 0.6299212598425197
        },
        {
          "duration": 0.23645833333333144,
          "durationTicks": 227,
          "midi": 81,
          "name": "A5",
          "ticks": 170280,
          "time": 177.375,
          "velocity": 0.6299212598425197
        },
        {
          "duration": 0.7114583333333258,
          "durationTicks": 683,
          "midi": 74,
          "name": "D5",
          "ticks": 170520,
          "time": 177.625,
          "velocity": 0.6299212598425197
        },
        {
          "duration": 0.7114583333333258,
          "durationTicks": 683,
          "midi": 77,
          "name": "F5",
          "ticks": 170520,
          "time": 177.625,
          "velocity": 0.6299212598425197
        },
        {
          "duration": 0.7114583333333258,
          "durationTicks": 683,
          "midi": 81,
          "name": "A5",
          "ticks": 170520,
          "time": 177.625,
          "velocity": 0.6299212598425197
        },
        {
          "duration": 0.23645833333333144,
          "durationTicks": 227,
          "midi": 74,
          "name": "D5",
          "ticks": 171240,
          "time": 178.375,
          "velocity": 0.6299212598425197
        },
        {
          "duration": 0.23645833333333144,
          "durationTicks": 227,
          "midi": 77,
          "name": "F5",
          "ticks": 171240,
          "time": 178.375,
          "velocity": 0.6299212598425197
        },
        {
          "duration": 0.23645833333333144,
          "durationTicks": 227,
          "midi": 81,
          "name": "A5",
          "ticks": 171240,
          "time": 178.375,
          "velocity": 0.6299212598425197
        },
        {
          "duration": 0.23645833333333144,
          "durationTicks": 227,
          "midi": 76,
          "name": "E5",
          "ticks": 171480,
          "time": 178.625,
          "velocity": 0.6299212598425197
        },
        {
          "duration": 0.23645833333333144,
          "durationTicks": 227,
          "midi": 84,
          "name": "C6",
          "ticks": 171480,
          "time": 178.625,
          "velocity": 0.6299212598425197
        },
        {
          "duration": 0.23645833333333144,
          "durationTicks": 227,
          "midi": 86,
          "name": "D6",
          "ticks": 171720,
          "time": 178.875,
          "velocity": 0.6299212598425197
        },
        {
          "duration": 0.23645833333333144,
          "durationTicks": 227,
          "midi": 79,
          "name": "G5",
          "ticks": 171960,
          "time": 179.125,
          "velocity": 0.6299212598425197
        },
        {
          "duration": 0.23645833333333144,
          "durationTicks": 227,
          "midi": 77,
          "name": "F5",
          "ticks": 172200,
          "time": 179.375,
          "velocity": 0.6299212598425197
        },
        {
          "duration": 0.4739583333333428,
          "durationTicks": 455,
          "midi": 72,
          "name": "C5",
          "ticks": 172440,
          "time": 179.625,
          "velocity": 0.6299212598425197
        },
        {
          "duration": 0.4739583333333428,
          "durationTicks": 455,
          "midi": 81,
          "name": "A5",
          "ticks": 172440,
          "time": 179.625,
          "velocity": 0.6299212598425197
        },
        {
          "duration": 0.23645833333333144,
          "durationTicks": 227,
          "midi": 74,
          "name": "D5",
          "ticks": 172920,
          "time": 180.125,
          "velocity": 0.6299212598425197
        },
        {
          "duration": 0.23645833333333144,
          "durationTicks": 227,
          "midi": 77,
          "name": "F5",
          "ticks": 173160,
          "time": 180.375,
          "velocity": 0.6299212598425197
        },
        {
          "duration": 0.4739583333333428,
          "durationTicks": 455,
          "midi": 74,
          "name": "D5",
          "ticks": 173400,
          "time": 180.625,
          "velocity": 0.6299212598425197
        },
        {
          "duration": 0.4739583333333428,
          "durationTicks": 455,
          "midi": 82,
          "name": "A#5",
          "ticks": 173400,
          "time": 180.625,
          "velocity": 0.6299212598425197
        },
        {
          "duration": 0.4739583333333428,
          "durationTicks": 455,
          "midi": 74,
          "name": "D5",
          "ticks": 173880,
          "time": 181.125,
          "velocity": 0.6299212598425197
        },
        {
          "duration": 0.4739583333333428,
          "durationTicks": 455,
          "midi": 81,
          "name": "A5",
          "ticks": 173880,
          "time": 181.125,
          "velocity": 0.6299212598425197
        },
        {
          "duration": 0.4739583333333428,
          "durationTicks": 455,
          "midi": 72,
          "name": "C5",
          "ticks": 174360,
          "time": 181.625,
          "velocity": 0.6299212598425197
        },
        {
          "duration": 0.4739583333333428,
          "durationTicks": 455,
          "midi": 76,
          "name": "E5",
          "ticks": 174360,
          "time": 181.625,
          "velocity": 0.6299212598425197
        },
        {
          "duration": 0.4739583333333428,
          "durationTicks": 455,
          "midi": 79,
          "name": "G5",
          "ticks": 174360,
          "time": 181.625,
          "velocity": 0.6299212598425197
        },
        {
          "duration": 0.23645833333333144,
          "durationTicks": 227,
          "midi": 77,
          "name": "F5",
          "ticks": 174840,
          "time": 182.125,
          "velocity": 0.6299212598425197
        },
        {
          "duration": 0.23645833333333144,
          "durationTicks": 227,
          "midi": 81,
          "name": "A5",
          "ticks": 174840,
          "time": 182.125,
          "velocity": 0.6299212598425197
        },
        {
          "duration": 0.23645833333333144,
          "durationTicks": 227,
          "midi": 86,
          "name": "D6",
          "ticks": 175080,
          "time": 182.375,
          "velocity": 0.6299212598425197
        },
        {
          "duration": 0.23645833333333144,
          "durationTicks": 227,
          "midi": 74,
          "name": "D5",
          "ticks": 175320,
          "time": 182.625,
          "velocity": 0.6299212598425197
        },
        {
          "duration": 0.23645833333333144,
          "durationTicks": 227,
          "midi": 79,
          "name": "G5",
          "ticks": 175320,
          "time": 182.625,
          "velocity": 0.6299212598425197
        },
        {
          "duration": 0.23645833333333144,
          "durationTicks": 227,
          "midi": 77,
          "name": "F5",
          "ticks": 175560,
          "time": 182.875,
          "velocity": 0.6299212598425197
        },
        {
          "duration": 0.23645833333333144,
          "durationTicks": 227,
          "midi": 81,
          "name": "A5",
          "ticks": 175800,
          "time": 183.125,
          "velocity": 0.6299212598425197
        },
        {
          "duration": 0.23645833333333144,
          "durationTicks": 227,
          "midi": 84,
          "name": "C6",
          "ticks": 176040,
          "time": 183.375,
          "velocity": 0.6299212598425197
        },
        {
          "duration": 0.23645833333333144,
          "durationTicks": 227,
          "midi": 77,
          "name": "F5",
          "ticks": 176280,
          "time": 183.625,
          "velocity": 0.6299212598425197
        },
        {
          "duration": 0.23645833333333144,
          "durationTicks": 227,
          "midi": 81,
          "name": "A5",
          "ticks": 176280,
          "time": 183.625,
          "velocity": 0.6299212598425197
        },
        {
          "duration": 0.23645833333333144,
          "durationTicks": 227,
          "midi": 86,
          "name": "D6",
          "ticks": 176280,
          "time": 183.625,
          "velocity": 0.6299212598425197
        },
        {
          "duration": 0.11770833333332575,
          "durationTicks": 113,
          "midi": 81,
          "name": "A5",
          "ticks": 176520,
          "time": 183.875,
          "velocity": 0.6299212598425197
        },
        {
          "duration": 0.11770833333332575,
          "durationTicks": 113,
          "midi": 82,
          "name": "A#5",
          "ticks": 176520,
          "time": 183.875,
          "velocity": 0.6299212598425197
        },
        {
          "duration": 0.11770833333332575,
          "durationTicks": 113,
          "midi": 84,
          "name": "C6",
          "ticks": 176520,
          "time": 183.875,
          "velocity": 0.6299212598425197
        },
        {
          "duration": 0.11770833333332575,
          "durationTicks": 113,
          "midi": 77,
          "name": "F5",
          "ticks": 176640,
          "time": 184,
          "velocity": 0.6299212598425197
        },
        {
          "duration": 0.11770833333332575,
          "durationTicks": 113,
          "midi": 79,
          "name": "G5",
          "ticks": 176640,
          "time": 184,
          "velocity": 0.6299212598425197
        },
        {
          "duration": 0.11770833333332575,
          "durationTicks": 113,
          "midi": 69,
          "name": "A4",
          "ticks": 176760,
          "time": 184.125,
          "velocity": 0.6299212598425197
        },
        {
          "duration": 0.11770833333332575,
          "durationTicks": 113,
          "midi": 71,
          "name": "B4",
          "ticks": 176760,
          "time": 184.125,
          "velocity": 0.6299212598425197
        },
        {
          "duration": 0.11770833333332575,
          "durationTicks": 113,
          "midi": 72,
          "name": "C5",
          "ticks": 176760,
          "time": 184.125,
          "velocity": 0.6299212598425197
        },
        {
          "duration": 0.11770833333332575,
          "durationTicks": 113,
          "midi": 74,
          "name": "D5",
          "ticks": 176760,
          "time": 184.125,
          "velocity": 0.6299212598425197
        },
        {
          "duration": 0.11770833333332575,
          "durationTicks": 113,
          "midi": 76,
          "name": "E5",
          "ticks": 176760,
          "time": 184.125,
          "velocity": 0.6299212598425197
        },
        {
          "duration": 0.11770833333332575,
          "durationTicks": 113,
          "midi": 65,
          "name": "F4",
          "ticks": 176880,
          "time": 184.25,
          "velocity": 0.6299212598425197
        },
        {
          "duration": 0.11770833333332575,
          "durationTicks": 113,
          "midi": 67,
          "name": "G4",
          "ticks": 176880,
          "time": 184.25,
          "velocity": 0.6299212598425197
        },
        {
          "duration": 0.11770833333332575,
          "durationTicks": 113,
          "midi": 62,
          "name": "D4",
          "ticks": 177000,
          "time": 184.375,
          "velocity": 0.6299212598425197
        },
        {
          "duration": 0.11770833333332575,
          "durationTicks": 113,
          "midi": 64,
          "name": "E4",
          "ticks": 177000,
          "time": 184.375,
          "velocity": 0.6299212598425197
        },
        {
          "duration": 0.11770833333332575,
          "durationTicks": 113,
          "midi": 71,
          "name": "B4",
          "ticks": 177120,
          "time": 184.5,
          "velocity": 0.6299212598425197
        },
        {
          "duration": 0.23645833333333144,
          "durationTicks": 227,
          "midi": 81,
          "name": "A5",
          "ticks": 177240,
          "time": 184.625,
          "velocity": 0.6299212598425197
        },
        {
          "duration": 0.23645833333333144,
          "durationTicks": 227,
          "midi": 86,
          "name": "D6",
          "ticks": 177240,
          "time": 184.625,
          "velocity": 0.6299212598425197
        },
        {
          "duration": 0.23645833333333144,
          "durationTicks": 227,
          "midi": 81,
          "name": "A5",
          "ticks": 177480,
          "time": 184.875,
          "velocity": 0.6299212598425197
        },
        {
          "duration": 0.23645833333333144,
          "durationTicks": 227,
          "midi": 86,
          "name": "D6",
          "ticks": 177480,
          "time": 184.875,
          "velocity": 0.6299212598425197
        },
        {
          "duration": 0.23645833333333144,
          "durationTicks": 227,
          "midi": 81,
          "name": "A5",
          "ticks": 177720,
          "time": 185.125,
          "velocity": 0.6299212598425197
        },
        {
          "duration": 0.23645833333333144,
          "durationTicks": 227,
          "midi": 86,
          "name": "D6",
          "ticks": 177720,
          "time": 185.125,
          "velocity": 0.6299212598425197
        },
        {
          "duration": 0.23645833333333144,
          "durationTicks": 227,
          "midi": 81,
          "name": "A5",
          "ticks": 177960,
          "time": 185.375,
          "velocity": 0.6299212598425197
        },
        {
          "duration": 0.23645833333333144,
          "durationTicks": 227,
          "midi": 86,
          "name": "D6",
          "ticks": 177960,
          "time": 185.375,
          "velocity": 0.6299212598425197
        },
        {
          "duration": 0.23645833333333144,
          "durationTicks": 227,
          "midi": 81,
          "name": "A5",
          "ticks": 178200,
          "time": 185.625,
          "velocity": 0.6299212598425197
        },
        {
          "duration": 0.23645833333333144,
          "durationTicks": 227,
          "midi": 86,
          "name": "D6",
          "ticks": 178200,
          "time": 185.625,
          "velocity": 0.6299212598425197
        },
        {
          "duration": 0.23645833333333144,
          "durationTicks": 227,
          "midi": 81,
          "name": "A5",
          "ticks": 178440,
          "time": 185.875,
          "velocity": 0.6299212598425197
        },
        {
          "duration": 0.23645833333333144,
          "durationTicks": 227,
          "midi": 86,
          "name": "D6",
          "ticks": 178440,
          "time": 185.875,
          "velocity": 0.6299212598425197
        },
        {
          "duration": 0.11770833333332575,
          "durationTicks": 113,
          "midi": 81,
          "name": "A5",
          "ticks": 178680,
          "time": 186.125,
          "velocity": 0.6299212598425197
        },
        {
          "duration": 0.11770833333332575,
          "durationTicks": 113,
          "midi": 86,
          "name": "D6",
          "ticks": 178680,
          "time": 186.125,
          "velocity": 0.6299212598425197
        },
        {
          "duration": 0.11770833333332575,
          "durationTicks": 113,
          "midi": 84,
          "name": "C6",
          "ticks": 178800,
          "time": 186.25,
          "velocity": 0.6299212598425197
        },
        {
          "duration": 0.11770833333332575,
          "durationTicks": 113,
          "midi": 81,
          "name": "A5",
          "ticks": 178920,
          "time": 186.375,
          "velocity": 0.6299212598425197
        },
        {
          "duration": 0.11770833333332575,
          "durationTicks": 113,
          "midi": 76,
          "name": "E5",
          "ticks": 179040,
          "time": 186.5,
          "velocity": 0.6299212598425197
        },
        {
          "duration": 0.11770833333332575,
          "durationTicks": 113,
          "midi": 77,
          "name": "F5",
          "ticks": 179040,
          "time": 186.5,
          "velocity": 0.6299212598425197
        },
        {
          "duration": 0.23645833333333144,
          "durationTicks": 227,
          "midi": 74,
          "name": "D5",
          "ticks": 179160,
          "time": 186.625,
          "velocity": 0.6299212598425197
        },
        {
          "duration": 0.23645833333333144,
          "durationTicks": 227,
          "midi": 79,
          "name": "G5",
          "ticks": 179160,
          "time": 186.625,
          "velocity": 0.6299212598425197
        },
        {
          "duration": 0.23645833333333144,
          "durationTicks": 227,
          "midi": 74,
          "name": "D5",
          "ticks": 179400,
          "time": 186.875,
          "velocity": 0.6299212598425197
        },
        {
          "duration": 0.23645833333333144,
          "durationTicks": 227,
          "midi": 79,
          "name": "G5",
          "ticks": 179400,
          "time": 186.875,
          "velocity": 0.6299212598425197
        },
        {
          "duration": 0.23645833333333144,
          "durationTicks": 227,
          "midi": 74,
          "name": "D5",
          "ticks": 179640,
          "time": 187.125,
          "velocity": 0.6299212598425197
        },
        {
          "duration": 0.23645833333333144,
          "durationTicks": 227,
          "midi": 79,
          "name": "G5",
          "ticks": 179640,
          "time": 187.125,
          "velocity": 0.6299212598425197
        },
        {
          "duration": 0.23645833333333144,
          "durationTicks": 227,
          "midi": 74,
          "name": "D5",
          "ticks": 179880,
          "time": 187.375,
          "velocity": 0.6299212598425197
        },
        {
          "duration": 0.23645833333333144,
          "durationTicks": 227,
          "midi": 79,
          "name": "G5",
          "ticks": 179880,
          "time": 187.375,
          "velocity": 0.6299212598425197
        },
        {
          "duration": 0.23645833333333144,
          "durationTicks": 227,
          "midi": 74,
          "name": "D5",
          "ticks": 180120,
          "time": 187.625,
          "velocity": 0.6299212598425197
        },
        {
          "duration": 0.23645833333333144,
          "durationTicks": 227,
          "midi": 79,
          "name": "G5",
          "ticks": 180120,
          "time": 187.625,
          "velocity": 0.6299212598425197
        },
        {
          "duration": 0.23645833333333144,
          "durationTicks": 227,
          "midi": 74,
          "name": "D5",
          "ticks": 180360,
          "time": 187.875,
          "velocity": 0.6299212598425197
        },
        {
          "duration": 0.23645833333333144,
          "durationTicks": 227,
          "midi": 79,
          "name": "G5",
          "ticks": 180360,
          "time": 187.875,
          "velocity": 0.6299212598425197
        },
        {
          "duration": 0.11770833333332575,
          "durationTicks": 113,
          "midi": 74,
          "name": "D5",
          "ticks": 180600,
          "time": 188.125,
          "velocity": 0.6299212598425197
        },
        {
          "duration": 0.11770833333332575,
          "durationTicks": 113,
          "midi": 79,
          "name": "G5",
          "ticks": 180600,
          "time": 188.125,
          "velocity": 0.6299212598425197
        },
        {
          "duration": 0.11770833333332575,
          "durationTicks": 113,
          "midi": 77,
          "name": "F5",
          "ticks": 180720,
          "time": 188.25,
          "velocity": 0.6299212598425197
        },
        {
          "duration": 0.11770833333332575,
          "durationTicks": 113,
          "midi": 74,
          "name": "D5",
          "ticks": 180840,
          "time": 188.375,
          "velocity": 0.6299212598425197
        },
        {
          "duration": 0.11770833333332575,
          "durationTicks": 113,
          "midi": 73,
          "name": "C#5",
          "ticks": 180960,
          "time": 188.5,
          "velocity": 0.6299212598425197
        },
        {
          "duration": 0.23645833333333144,
          "durationTicks": 227,
          "midi": 69,
          "name": "A4",
          "ticks": 181080,
          "time": 188.625,
          "velocity": 0.6299212598425197
        },
        {
          "duration": 0.23645833333333144,
          "durationTicks": 227,
          "midi": 74,
          "name": "D5",
          "ticks": 181080,
          "time": 188.625,
          "velocity": 0.6299212598425197
        },
        {
          "duration": 0.23645833333333144,
          "durationTicks": 227,
          "midi": 69,
          "name": "A4",
          "ticks": 181320,
          "time": 188.875,
          "velocity": 0.6299212598425197
        },
        {
          "duration": 0.23645833333333144,
          "durationTicks": 227,
          "midi": 74,
          "name": "D5",
          "ticks": 181320,
          "time": 188.875,
          "velocity": 0.6299212598425197
        },
        {
          "duration": 0.23645833333333144,
          "durationTicks": 227,
          "midi": 69,
          "name": "A4",
          "ticks": 181560,
          "time": 189.125,
          "velocity": 0.6299212598425197
        },
        {
          "duration": 0.23645833333333144,
          "durationTicks": 227,
          "midi": 74,
          "name": "D5",
          "ticks": 181560,
          "time": 189.125,
          "velocity": 0.6299212598425197
        },
        {
          "duration": 0.23645833333333144,
          "durationTicks": 227,
          "midi": 69,
          "name": "A4",
          "ticks": 181800,
          "time": 189.375,
          "velocity": 0.6299212598425197
        },
        {
          "duration": 0.23645833333333144,
          "durationTicks": 227,
          "midi": 74,
          "name": "D5",
          "ticks": 181800,
          "time": 189.375,
          "velocity": 0.6299212598425197
        },
        {
          "duration": 0.23645833333333144,
          "durationTicks": 227,
          "midi": 69,
          "name": "A4",
          "ticks": 182040,
          "time": 189.625,
          "velocity": 0.6299212598425197
        },
        {
          "duration": 0.23645833333333144,
          "durationTicks": 227,
          "midi": 74,
          "name": "D5",
          "ticks": 182040,
          "time": 189.625,
          "velocity": 0.6299212598425197
        },
        {
          "duration": 0.23645833333333144,
          "durationTicks": 227,
          "midi": 69,
          "name": "A4",
          "ticks": 182280,
          "time": 189.875,
          "velocity": 0.6299212598425197
        },
        {
          "duration": 0.23645833333333144,
          "durationTicks": 227,
          "midi": 74,
          "name": "D5",
          "ticks": 182280,
          "time": 189.875,
          "velocity": 0.6299212598425197
        },
        {
          "duration": 0.11770833333332575,
          "durationTicks": 113,
          "midi": 69,
          "name": "A4",
          "ticks": 182520,
          "time": 190.125,
          "velocity": 0.6299212598425197
        },
        {
          "duration": 0.11770833333332575,
          "durationTicks": 113,
          "midi": 74,
          "name": "D5",
          "ticks": 182520,
          "time": 190.125,
          "velocity": 0.6299212598425197
        },
        {
          "duration": 0.11770833333332575,
          "durationTicks": 113,
          "midi": 72,
          "name": "C5",
          "ticks": 182640,
          "time": 190.25,
          "velocity": 0.6299212598425197
        },
        {
          "duration": 0.23645833333333144,
          "durationTicks": 227,
          "midi": 69,
          "name": "A4",
          "ticks": 182760,
          "time": 190.375,
          "velocity": 0.6299212598425197
        },
        {
          "duration": 0.23645833333333144,
          "durationTicks": 227,
          "midi": 60,
          "name": "C4",
          "ticks": 183000,
          "time": 190.625,
          "velocity": 0.6299212598425197
        },
        {
          "duration": 0.23645833333333144,
          "durationTicks": 227,
          "midi": 67,
          "name": "G4",
          "ticks": 183000,
          "time": 190.625,
          "velocity": 0.6299212598425197
        },
        {
          "duration": 0.11770833333332575,
          "durationTicks": 113,
          "midi": 69,
          "name": "A4",
          "ticks": 183240,
          "time": 190.875,
          "velocity": 0.6299212598425197
        },
        {
          "duration": 0.11770833333332575,
          "durationTicks": 113,
          "midi": 67,
          "name": "G4",
          "ticks": 183360,
          "time": 191,
          "velocity": 0.6299212598425197
        },
        {
          "duration": 0.11770833333332575,
          "durationTicks": 113,
          "midi": 69,
          "name": "A4",
          "ticks": 183480,
          "time": 191.125,
          "velocity": 0.6299212598425197
        },
        {
          "duration": 0.11770833333332575,
          "durationTicks": 113,
          "midi": 72,
          "name": "C5",
          "ticks": 183600,
          "time": 191.25,
          "velocity": 0.6299212598425197
        },
        {
          "duration": 0.11770833333332575,
          "durationTicks": 113,
          "midi": 74,
          "name": "D5",
          "ticks": 183720,
          "time": 191.375,
          "velocity": 0.6299212598425197
        },
        {
          "duration": 0.11770833333332575,
          "durationTicks": 113,
          "midi": 77,
          "name": "F5",
          "ticks": 183840,
          "time": 191.5,
          "velocity": 0.6299212598425197
        },
        {
          "duration": 0.11770833333332575,
          "durationTicks": 113,
          "midi": 79,
          "name": "G5",
          "ticks": 183960,
          "time": 191.625,
          "velocity": 0.6299212598425197
        },
        {
          "duration": 0.11770833333332575,
          "durationTicks": 113,
          "midi": 81,
          "name": "A5",
          "ticks": 184080,
          "time": 191.75,
          "velocity": 0.6299212598425197
        },
        {
          "duration": 0.11770833333332575,
          "durationTicks": 113,
          "midi": 81,
          "name": "A5",
          "ticks": 184200,
          "time": 191.875,
          "velocity": 0.6299212598425197
        },
        {
          "duration": 0.11770833333332575,
          "durationTicks": 113,
          "midi": 84,
          "name": "C6",
          "ticks": 184200,
          "time": 191.875,
          "velocity": 0.6299212598425197
        },
        {
          "duration": 0.11770833333332575,
          "durationTicks": 113,
          "midi": 89,
          "name": "F6",
          "ticks": 184320,
          "time": 192,
          "velocity": 0.6299212598425197
        },
        {
          "duration": 0.11770833333332575,
          "durationTicks": 113,
          "midi": 88,
          "name": "E6",
          "ticks": 184440,
          "time": 192.125,
          "velocity": 0.6299212598425197
        },
        {
          "duration": 0.11770833333332575,
          "durationTicks": 113,
          "midi": 81,
          "name": "A5",
          "ticks": 184560,
          "time": 192.25,
          "velocity": 0.6299212598425197
        },
        {
          "duration": 0.23645833333333144,
          "durationTicks": 227,
          "midi": 86,
          "name": "D6",
          "ticks": 184680,
          "time": 192.375,
          "velocity": 0.6299212598425197
        },
        {
          "duration": 0.11770833333332575,
          "durationTicks": 113,
          "midi": 81,
          "name": "A5",
          "ticks": 184920,
          "time": 192.625,
          "velocity": 0.6299212598425197
        },
        {
          "duration": 0.11770833333332575,
          "durationTicks": 113,
          "midi": 77,
          "name": "F5",
          "ticks": 185040,
          "time": 192.75,
          "velocity": 0.6299212598425197
        },
        {
          "duration": 0.11770833333332575,
          "durationTicks": 113,
          "midi": 74,
          "name": "D5",
          "ticks": 185160,
          "time": 192.875,
          "velocity": 0.6299212598425197
        },
        {
          "duration": 0.23645833333333144,
          "durationTicks": 227,
          "midi": 81,
          "name": "A5",
          "ticks": 185280,
          "time": 193,
          "velocity": 0.6299212598425197
        },
        {
          "duration": 0.11770833333332575,
          "durationTicks": 113,
          "midi": 81,
          "name": "A5",
          "ticks": 185520,
          "time": 193.25,
          "velocity": 0.6299212598425197
        },
        {
          "duration": 0.11770833333332575,
          "durationTicks": 113,
          "midi": 77,
          "name": "F5",
          "ticks": 185640,
          "time": 193.375,
          "velocity": 0.6299212598425197
        },
        {
          "duration": 0.11770833333332575,
          "durationTicks": 113,
          "midi": 74,
          "name": "D5",
          "ticks": 185760,
          "time": 193.5,
          "velocity": 0.6299212598425197
        },
        {
          "duration": 0.11770833333332575,
          "durationTicks": 113,
          "midi": 81,
          "name": "A5",
          "ticks": 185880,
          "time": 193.625,
          "velocity": 0.6299212598425197
        },
        {
          "duration": 0.11770833333332575,
          "durationTicks": 113,
          "midi": 77,
          "name": "F5",
          "ticks": 186000,
          "time": 193.75,
          "velocity": 0.6299212598425197
        },
        {
          "duration": 0.11770833333332575,
          "durationTicks": 113,
          "midi": 74,
          "name": "D5",
          "ticks": 186120,
          "time": 193.875,
          "velocity": 0.6299212598425197
        },
        {
          "duration": 0.23645833333333144,
          "durationTicks": 227,
          "midi": 81,
          "name": "A5",
          "ticks": 186240,
          "time": 194,
          "velocity": 0.6299212598425197
        },
        {
          "duration": 0.11770833333332575,
          "durationTicks": 113,
          "midi": 81,
          "name": "A5",
          "ticks": 186480,
          "time": 194.25,
          "velocity": 0.6299212598425197
        },
        {
          "duration": 0.11770833333332575,
          "durationTicks": 113,
          "midi": 77,
          "name": "F5",
          "ticks": 186600,
          "time": 194.375,
          "velocity": 0.6299212598425197
        },
        {
          "duration": 0.11770833333332575,
          "durationTicks": 113,
          "midi": 74,
          "name": "D5",
          "ticks": 186720,
          "time": 194.5,
          "velocity": 0.6299212598425197
        },
        {
          "duration": 0.11770833333332575,
          "durationTicks": 113,
          "midi": 82,
          "name": "A#5",
          "ticks": 186840,
          "time": 194.625,
          "velocity": 0.6299212598425197
        },
        {
          "duration": 0.11770833333332575,
          "durationTicks": 113,
          "midi": 79,
          "name": "G5",
          "ticks": 186960,
          "time": 194.75,
          "velocity": 0.6299212598425197
        },
        {
          "duration": 0.11770833333332575,
          "durationTicks": 113,
          "midi": 75,
          "name": "D#5",
          "ticks": 187080,
          "time": 194.875,
          "velocity": 0.6299212598425197
        },
        {
          "duration": 0.23645833333333144,
          "durationTicks": 227,
          "midi": 82,
          "name": "A#5",
          "ticks": 187200,
          "time": 195,
          "velocity": 0.6299212598425197
        },
        {
          "duration": 0.11770833333332575,
          "durationTicks": 113,
          "midi": 82,
          "name": "A#5",
          "ticks": 187440,
          "time": 195.25,
          "velocity": 0.6299212598425197
        },
        {
          "duration": 0.11770833333332575,
          "durationTicks": 113,
          "midi": 79,
          "name": "G5",
          "ticks": 187560,
          "time": 195.375,
          "velocity": 0.6299212598425197
        },
        {
          "duration": 0.11770833333332575,
          "durationTicks": 113,
          "midi": 75,
          "name": "D#5",
          "ticks": 187680,
          "time": 195.5,
          "velocity": 0.6299212598425197
        },
        {
          "duration": 0.11770833333332575,
          "durationTicks": 113,
          "midi": 82,
          "name": "A#5",
          "ticks": 187800,
          "time": 195.625,
          "velocity": 0.6299212598425197
        },
        {
          "duration": 0.11770833333332575,
          "durationTicks": 113,
          "midi": 79,
          "name": "G5",
          "ticks": 187920,
          "time": 195.75,
          "velocity": 0.6299212598425197
        },
        {
          "duration": 0.11770833333332575,
          "durationTicks": 113,
          "midi": 75,
          "name": "D#5",
          "ticks": 188040,
          "time": 195.875,
          "velocity": 0.6299212598425197
        },
        {
          "duration": 0.23645833333333144,
          "durationTicks": 227,
          "midi": 82,
          "name": "A#5",
          "ticks": 188160,
          "time": 196,
          "velocity": 0.6299212598425197
        },
        {
          "duration": 0.11770833333332575,
          "durationTicks": 113,
          "midi": 82,
          "name": "A#5",
          "ticks": 188400,
          "time": 196.25,
          "velocity": 0.6299212598425197
        },
        {
          "duration": 0.11770833333332575,
          "durationTicks": 113,
          "midi": 79,
          "name": "G5",
          "ticks": 188520,
          "time": 196.375,
          "velocity": 0.6299212598425197
        },
        {
          "duration": 0.11770833333332575,
          "durationTicks": 113,
          "midi": 75,
          "name": "D#5",
          "ticks": 188640,
          "time": 196.5,
          "velocity": 0.6299212598425197
        },
        {
          "duration": 0.11770833333332575,
          "durationTicks": 113,
          "midi": 82,
          "name": "A#5",
          "ticks": 188760,
          "time": 196.625,
          "velocity": 0.6299212598425197
        },
        {
          "duration": 0.11770833333332575,
          "durationTicks": 113,
          "midi": 77,
          "name": "F5",
          "ticks": 188880,
          "time": 196.75,
          "velocity": 0.6299212598425197
        },
        {
          "duration": 0.11770833333332575,
          "durationTicks": 113,
          "midi": 74,
          "name": "D5",
          "ticks": 189000,
          "time": 196.875,
          "velocity": 0.6299212598425197
        },
        {
          "duration": 0.23645833333333144,
          "durationTicks": 227,
          "midi": 82,
          "name": "A#5",
          "ticks": 189120,
          "time": 197,
          "velocity": 0.6299212598425197
        },
        {
          "duration": 0.11770833333332575,
          "durationTicks": 113,
          "midi": 82,
          "name": "A#5",
          "ticks": 189360,
          "time": 197.25,
          "velocity": 0.6299212598425197
        },
        {
          "duration": 0.11770833333332575,
          "durationTicks": 113,
          "midi": 77,
          "name": "F5",
          "ticks": 189480,
          "time": 197.375,
          "velocity": 0.6299212598425197
        },
        {
          "duration": 0.11770833333332575,
          "durationTicks": 113,
          "midi": 74,
          "name": "D5",
          "ticks": 189600,
          "time": 197.5,
          "velocity": 0.6299212598425197
        },
        {
          "duration": 0.11770833333332575,
          "durationTicks": 113,
          "midi": 82,
          "name": "A#5",
          "ticks": 189720,
          "time": 197.625,
          "velocity": 0.6299212598425197
        },
        {
          "duration": 0.11770833333332575,
          "durationTicks": 113,
          "midi": 77,
          "name": "F5",
          "ticks": 189840,
          "time": 197.75,
          "velocity": 0.6299212598425197
        },
        {
          "duration": 0.11770833333332575,
          "durationTicks": 113,
          "midi": 74,
          "name": "D5",
          "ticks": 189960,
          "time": 197.875,
          "velocity": 0.6299212598425197
        },
        {
          "duration": 0.23645833333333144,
          "durationTicks": 227,
          "midi": 82,
          "name": "A#5",
          "ticks": 190080,
          "time": 198,
          "velocity": 0.6299212598425197
        },
        {
          "duration": 0.11770833333332575,
          "durationTicks": 113,
          "midi": 82,
          "name": "A#5",
          "ticks": 190320,
          "time": 198.25,
          "velocity": 0.6299212598425197
        },
        {
          "duration": 0.11770833333332575,
          "durationTicks": 113,
          "midi": 77,
          "name": "F5",
          "ticks": 190440,
          "time": 198.375,
          "velocity": 0.6299212598425197
        },
        {
          "duration": 0.11770833333332575,
          "durationTicks": 113,
          "midi": 74,
          "name": "D5",
          "ticks": 190560,
          "time": 198.5,
          "velocity": 0.6299212598425197
        },
        {
          "duration": 0.11770833333332575,
          "durationTicks": 113,
          "midi": 79,
          "name": "G5",
          "ticks": 190680,
          "time": 198.625,
          "velocity": 0.6299212598425197
        },
        {
          "duration": 0.11770833333332575,
          "durationTicks": 113,
          "midi": 76,
          "name": "E5",
          "ticks": 190800,
          "time": 198.75,
          "velocity": 0.6299212598425197
        },
        {
          "duration": 0.11770833333332575,
          "durationTicks": 113,
          "midi": 72,
          "name": "C5",
          "ticks": 190920,
          "time": 198.875,
          "velocity": 0.6299212598425197
        },
        {
          "duration": 0.23645833333333144,
          "durationTicks": 227,
          "midi": 79,
          "name": "G5",
          "ticks": 191040,
          "time": 199,
          "velocity": 0.6299212598425197
        },
        {
          "duration": 0.11770833333332575,
          "durationTicks": 113,
          "midi": 79,
          "name": "G5",
          "ticks": 191280,
          "time": 199.25,
          "velocity": 0.6299212598425197
        },
        {
          "duration": 0.11770833333332575,
          "durationTicks": 113,
          "midi": 76,
          "name": "E5",
          "ticks": 191400,
          "time": 199.375,
          "velocity": 0.6299212598425197
        },
        {
          "duration": 0.11770833333332575,
          "durationTicks": 113,
          "midi": 72,
          "name": "C5",
          "ticks": 191520,
          "time": 199.5,
          "velocity": 0.6299212598425197
        },
        {
          "duration": 0.11770833333332575,
          "durationTicks": 113,
          "midi": 76,
          "name": "E5",
          "ticks": 191640,
          "time": 199.625,
          "velocity": 0.6299212598425197
        },
        {
          "duration": 0.11770833333332575,
          "durationTicks": 113,
          "midi": 81,
          "name": "A5",
          "ticks": 191640,
          "time": 199.625,
          "velocity": 0.6299212598425197
        },
        {
          "duration": 0.11770833333332575,
          "durationTicks": 113,
          "midi": 74,
          "name": "D5",
          "ticks": 191760,
          "time": 199.75,
          "velocity": 0.6299212598425197
        },
        {
          "duration": 0.11770833333332575,
          "durationTicks": 113,
          "midi": 69,
          "name": "A4",
          "ticks": 191880,
          "time": 199.875,
          "velocity": 0.6299212598425197
        },
        {
          "duration": 0.11770833333332575,
          "durationTicks": 113,
          "midi": 74,
          "name": "D5",
          "ticks": 191880,
          "time": 199.875,
          "velocity": 0.6299212598425197
        },
        {
          "duration": 0.11770833333332575,
          "durationTicks": 113,
          "midi": 76,
          "name": "E5",
          "ticks": 192000,
          "time": 200,
          "velocity": 0.6299212598425197
        },
        {
          "duration": 0.11770833333332575,
          "durationTicks": 113,
          "midi": 81,
          "name": "A5",
          "ticks": 192000,
          "time": 200,
          "velocity": 0.6299212598425197
        },
        {
          "duration": 0.11770833333332575,
          "durationTicks": 113,
          "midi": 81,
          "name": "A5",
          "ticks": 192120,
          "time": 200.125,
          "velocity": 0.6299212598425197
        },
        {
          "duration": 0.11770833333332575,
          "durationTicks": 113,
          "midi": 86,
          "name": "D6",
          "ticks": 192120,
          "time": 200.125,
          "velocity": 0.6299212598425197
        },
        {
          "duration": 0.11770833333332575,
          "durationTicks": 113,
          "midi": 88,
          "name": "E6",
          "ticks": 192240,
          "time": 200.25,
          "velocity": 0.6299212598425197
        },
        {
          "duration": 0.11770833333332575,
          "durationTicks": 113,
          "midi": 88,
          "name": "E6",
          "ticks": 192360,
          "time": 200.375,
          "velocity": 0.6299212598425197
        },
        {
          "duration": 0.11770833333332575,
          "durationTicks": 113,
          "midi": 93,
          "name": "A6",
          "ticks": 192360,
          "time": 200.375,
          "velocity": 0.6299212598425197
        },
        {
          "duration": 0.11770833333332575,
          "durationTicks": 113,
          "midi": 81,
          "name": "A5",
          "ticks": 192480,
          "time": 200.5,
          "velocity": 0.6299212598425197
        },
        {
          "duration": 0.11770833333332575,
          "durationTicks": 113,
          "midi": 86,
          "name": "D6",
          "ticks": 192480,
          "time": 200.5,
          "velocity": 0.6299212598425197
        },
        {
          "duration": 0.11770833333332575,
          "durationTicks": 113,
          "midi": 79,
          "name": "G5",
          "ticks": 192600,
          "time": 200.625,
          "velocity": 0.6299212598425197
        },
        {
          "duration": 0.11770833333332575,
          "durationTicks": 113,
          "midi": 81,
          "name": "A5",
          "ticks": 192600,
          "time": 200.625,
          "velocity": 0.6299212598425197
        },
        {
          "duration": 0.11770833333332575,
          "durationTicks": 113,
          "midi": 77,
          "name": "F5",
          "ticks": 192720,
          "time": 200.75,
          "velocity": 0.6299212598425197
        },
        {
          "duration": 0.11770833333332575,
          "durationTicks": 113,
          "midi": 74,
          "name": "D5",
          "ticks": 192840,
          "time": 200.875,
          "velocity": 0.6299212598425197
        },
        {
          "duration": 0.11770833333332575,
          "durationTicks": 113,
          "midi": 79,
          "name": "G5",
          "ticks": 192960,
          "time": 201,
          "velocity": 0.6299212598425197
        },
        {
          "duration": 0.11770833333332575,
          "durationTicks": 113,
          "midi": 81,
          "name": "A5",
          "ticks": 192960,
          "time": 201,
          "velocity": 0.6299212598425197
        },
        {
          "duration": 0.11770833333332575,
          "durationTicks": 113,
          "midi": 86,
          "name": "D6",
          "ticks": 193080,
          "time": 201.125,
          "velocity": 0.6299212598425197
        },
        {
          "duration": 0.11770833333332575,
          "durationTicks": 113,
          "midi": 81,
          "name": "A5",
          "ticks": 193200,
          "time": 201.25,
          "velocity": 0.6299212598425197
        },
        {
          "duration": 0.11770833333332575,
          "durationTicks": 113,
          "midi": 77,
          "name": "F5",
          "ticks": 193320,
          "time": 201.375,
          "velocity": 0.6299212598425197
        },
        {
          "duration": 0.11770833333332575,
          "durationTicks": 113,
          "midi": 79,
          "name": "G5",
          "ticks": 193320,
          "time": 201.375,
          "velocity": 0.6299212598425197
        },
        {
          "duration": 0.11770833333332575,
          "durationTicks": 113,
          "midi": 74,
          "name": "D5",
          "ticks": 193440,
          "time": 201.5,
          "velocity": 0.6299212598425197
        },
        {
          "duration": 0.11770833333332575,
          "durationTicks": 113,
          "midi": 79,
          "name": "G5",
          "ticks": 193560,
          "time": 201.625,
          "velocity": 0.6299212598425197
        },
        {
          "duration": 0.11770833333332575,
          "durationTicks": 113,
          "midi": 81,
          "name": "A5",
          "ticks": 193560,
          "time": 201.625,
          "velocity": 0.6299212598425197
        },
        {
          "duration": 0.11770833333332575,
          "durationTicks": 113,
          "midi": 77,
          "name": "F5",
          "ticks": 193680,
          "time": 201.75,
          "velocity": 0.6299212598425197
        },
        {
          "duration": 0.11770833333332575,
          "durationTicks": 113,
          "midi": 74,
          "name": "D5",
          "ticks": 193800,
          "time": 201.875,
          "velocity": 0.6299212598425197
        },
        {
          "duration": 0.11770833333332575,
          "durationTicks": 113,
          "midi": 79,
          "name": "G5",
          "ticks": 193920,
          "time": 202,
          "velocity": 0.6299212598425197
        },
        {
          "duration": 0.11770833333332575,
          "durationTicks": 113,
          "midi": 81,
          "name": "A5",
          "ticks": 193920,
          "time": 202,
          "velocity": 0.6299212598425197
        },
        {
          "duration": 0.11770833333332575,
          "durationTicks": 113,
          "midi": 89,
          "name": "F6",
          "ticks": 194040,
          "time": 202.125,
          "velocity": 0.6299212598425197
        },
        {
          "duration": 0.11770833333332575,
          "durationTicks": 113,
          "midi": 86,
          "name": "D6",
          "ticks": 194160,
          "time": 202.25,
          "velocity": 0.6299212598425197
        },
        {
          "duration": 0.11770833333332575,
          "durationTicks": 113,
          "midi": 81,
          "name": "A5",
          "ticks": 194280,
          "time": 202.375,
          "velocity": 0.6299212598425197
        },
        {
          "duration": 0.11770833333332575,
          "durationTicks": 113,
          "midi": 77,
          "name": "F5",
          "ticks": 194400,
          "time": 202.5,
          "velocity": 0.6299212598425197
        },
        {
          "duration": 0.11770833333332575,
          "durationTicks": 113,
          "midi": 82,
          "name": "A#5",
          "ticks": 194520,
          "time": 202.625,
          "velocity": 0.6299212598425197
        },
        {
          "duration": 0.11770833333332575,
          "durationTicks": 113,
          "midi": 79,
          "name": "G5",
          "ticks": 194640,
          "time": 202.75,
          "velocity": 0.6299212598425197
        },
        {
          "duration": 0.11770833333332575,
          "durationTicks": 113,
          "midi": 75,
          "name": "D#5",
          "ticks": 194760,
          "time": 202.875,
          "velocity": 0.6299212598425197
        },
        {
          "duration": 0.11770833333332575,
          "durationTicks": 113,
          "midi": 82,
          "name": "A#5",
          "ticks": 194880,
          "time": 203,
          "velocity": 0.6299212598425197
        },
        {
          "duration": 0.11770833333332575,
          "durationTicks": 113,
          "midi": 86,
          "name": "D6",
          "ticks": 195000,
          "time": 203.125,
          "velocity": 0.6299212598425197
        },
        {
          "duration": 0.11770833333332575,
          "durationTicks": 113,
          "midi": 82,
          "name": "A#5",
          "ticks": 195120,
          "time": 203.25,
          "velocity": 0.6299212598425197
        },
        {
          "duration": 0.11770833333332575,
          "durationTicks": 113,
          "midi": 79,
          "name": "G5",
          "ticks": 195240,
          "time": 203.375,
          "velocity": 0.6299212598425197
        },
        {
          "duration": 0.11770833333332575,
          "durationTicks": 113,
          "midi": 75,
          "name": "D#5",
          "ticks": 195360,
          "time": 203.5,
          "velocity": 0.6299212598425197
        },
        {
          "duration": 0.11770833333332575,
          "durationTicks": 113,
          "midi": 82,
          "name": "A#5",
          "ticks": 195480,
          "time": 203.625,
          "velocity": 0.6299212598425197
        },
        {
          "duration": 0.11770833333332575,
          "durationTicks": 113,
          "midi": 81,
          "name": "A5",
          "ticks": 195600,
          "time": 203.75,
          "velocity": 0.6299212598425197
        },
        {
          "duration": 0.11770833333332575,
          "durationTicks": 113,
          "midi": 79,
          "name": "G5",
          "ticks": 195720,
          "time": 203.875,
          "velocity": 0.6299212598425197
        },
        {
          "duration": 0.11770833333332575,
          "durationTicks": 113,
          "midi": 75,
          "name": "D#5",
          "ticks": 195840,
          "time": 204,
          "velocity": 0.6299212598425197
        },
        {
          "duration": 0.11770833333332575,
          "durationTicks": 113,
          "midi": 91,
          "name": "G6",
          "ticks": 195960,
          "time": 204.125,
          "velocity": 0.6299212598425197
        },
        {
          "duration": 0.11770833333332575,
          "durationTicks": 113,
          "midi": 86,
          "name": "D6",
          "ticks": 196080,
          "time": 204.25,
          "velocity": 0.6299212598425197
        },
        {
          "duration": 0.11770833333332575,
          "durationTicks": 113,
          "midi": 82,
          "name": "A#5",
          "ticks": 196200,
          "time": 204.375,
          "velocity": 0.6299212598425197
        },
        {
          "duration": 0.11770833333332575,
          "durationTicks": 113,
          "midi": 79,
          "name": "G5",
          "ticks": 196320,
          "time": 204.5,
          "velocity": 0.6299212598425197
        },
        {
          "duration": 0.11770833333332575,
          "durationTicks": 113,
          "midi": 86,
          "name": "D6",
          "ticks": 196440,
          "time": 204.625,
          "velocity": 0.6299212598425197
        },
        {
          "duration": 0.11770833333332575,
          "durationTicks": 113,
          "midi": 84,
          "name": "C6",
          "ticks": 196560,
          "time": 204.75,
          "velocity": 0.6299212598425197
        },
        {
          "duration": 0.11770833333332575,
          "durationTicks": 113,
          "midi": 82,
          "name": "A#5",
          "ticks": 196680,
          "time": 204.875,
          "velocity": 0.6299212598425197
        },
        {
          "duration": 0.078125,
          "durationTicks": 75,
          "midi": 77,
          "name": "F5",
          "ticks": 196800,
          "time": 205,
          "velocity": 0.6299212598425197
        },
        {
          "duration": 0.078125,
          "durationTicks": 75,
          "midi": 82,
          "name": "A#5",
          "ticks": 196880,
          "time": 205.08333333333334,
          "velocity": 0.6299212598425197
        },
        {
          "duration": 0.11770833333332575,
          "durationTicks": 113,
          "midi": 89,
          "name": "F6",
          "ticks": 196920,
          "time": 205.125,
          "velocity": 0.6299212598425197
        },
        {
          "duration": 0.078125,
          "durationTicks": 75,
          "midi": 84,
          "name": "C6",
          "ticks": 196960,
          "time": 205.16666666666666,
          "velocity": 0.6299212598425197
        },
        {
          "duration": 0.11770833333332575,
          "durationTicks": 113,
          "midi": 86,
          "name": "D6",
          "ticks": 197040,
          "time": 205.25,
          "velocity": 0.6299212598425197
        },
        {
          "duration": 0.11770833333332575,
          "durationTicks": 113,
          "midi": 82,
          "name": "A#5",
          "ticks": 197160,
          "time": 205.375,
          "velocity": 0.6299212598425197
        },
        {
          "duration": 0.11770833333332575,
          "durationTicks": 113,
          "midi": 84,
          "name": "C6",
          "ticks": 197160,
          "time": 205.375,
          "velocity": 0.6299212598425197
        },
        {
          "duration": 0.11770833333332575,
          "durationTicks": 113,
          "midi": 77,
          "name": "F5",
          "ticks": 197280,
          "time": 205.5,
          "velocity": 0.6299212598425197
        },
        {
          "duration": 0.11770833333332575,
          "durationTicks": 113,
          "midi": 94,
          "name": "A#6",
          "ticks": 197400,
          "time": 205.625,
          "velocity": 0.6299212598425197
        },
        {
          "duration": 0.11770833333332575,
          "durationTicks": 113,
          "midi": 91,
          "name": "G6",
          "ticks": 197520,
          "time": 205.75,
          "velocity": 0.6299212598425197
        },
        {
          "duration": 0.11770833333332575,
          "durationTicks": 113,
          "midi": 89,
          "name": "F6",
          "ticks": 197640,
          "time": 205.875,
          "velocity": 0.6299212598425197
        },
        {
          "duration": 0.11770833333332575,
          "durationTicks": 113,
          "midi": 86,
          "name": "D6",
          "ticks": 197760,
          "time": 206,
          "velocity": 0.6299212598425197
        },
        {
          "duration": 0.11770833333332575,
          "durationTicks": 113,
          "midi": 82,
          "name": "A#5",
          "ticks": 197880,
          "time": 206.125,
          "velocity": 0.6299212598425197
        },
        {
          "duration": 0.11770833333332575,
          "durationTicks": 113,
          "midi": 79,
          "name": "G5",
          "ticks": 198000,
          "time": 206.25,
          "velocity": 0.6299212598425197
        },
        {
          "duration": 0.11770833333332575,
          "durationTicks": 113,
          "midi": 77,
          "name": "F5",
          "ticks": 198120,
          "time": 206.375,
          "velocity": 0.6299212598425197
        },
        {
          "duration": 0.11770833333332575,
          "durationTicks": 113,
          "midi": 74,
          "name": "D5",
          "ticks": 198240,
          "time": 206.5,
          "velocity": 0.6299212598425197
        },
        {
          "duration": 0.11770833333332575,
          "durationTicks": 113,
          "midi": 79,
          "name": "G5",
          "ticks": 198360,
          "time": 206.625,
          "velocity": 0.6299212598425197
        },
        {
          "duration": 0.11770833333332575,
          "durationTicks": 113,
          "midi": 76,
          "name": "E5",
          "ticks": 198480,
          "time": 206.75,
          "velocity": 0.6299212598425197
        },
        {
          "duration": 0.11770833333332575,
          "durationTicks": 113,
          "midi": 72,
          "name": "C5",
          "ticks": 198600,
          "time": 206.875,
          "velocity": 0.6299212598425197
        },
        {
          "duration": 0.11770833333332575,
          "durationTicks": 113,
          "midi": 84,
          "name": "C6",
          "ticks": 198720,
          "time": 207,
          "velocity": 0.6299212598425197
        },
        {
          "duration": 0.11770833333332575,
          "durationTicks": 113,
          "midi": 79,
          "name": "G5",
          "ticks": 198840,
          "time": 207.125,
          "velocity": 0.6299212598425197
        },
        {
          "duration": 0.11770833333332575,
          "durationTicks": 113,
          "midi": 76,
          "name": "E5",
          "ticks": 198960,
          "time": 207.25,
          "velocity": 0.6299212598425197
        },
        {
          "duration": 0.23645833333333144,
          "durationTicks": 227,
          "midi": 72,
          "name": "C5",
          "ticks": 199080,
          "time": 207.375,
          "velocity": 0.6299212598425197
        },
        {
          "duration": 0.23645833333333144,
          "durationTicks": 227,
          "midi": 69,
          "name": "A4",
          "ticks": 199320,
          "time": 207.625,
          "velocity": 0.6299212598425197
        },
        {
          "duration": 0.23645833333333144,
          "durationTicks": 227,
          "midi": 73,
          "name": "C#5",
          "ticks": 199320,
          "time": 207.625,
          "velocity": 0.6299212598425197
        },
        {
          "duration": 0.23645833333333144,
          "durationTicks": 227,
          "midi": 76,
          "name": "E5",
          "ticks": 199320,
          "time": 207.625,
          "velocity": 0.6299212598425197
        },
        {
          "duration": 0.23645833333333144,
          "durationTicks": 227,
          "midi": 81,
          "name": "A5",
          "ticks": 199320,
          "time": 207.625,
          "velocity": 0.6299212598425197
        },
        {
          "duration": 0.4739583333333428,
          "durationTicks": 455,
          "midi": 62,
          "name": "D4",
          "ticks": 199560,
          "time": 207.875,
          "velocity": 0.6299212598425197
        },
        {
          "duration": 0.23645833333333144,
          "durationTicks": 227,
          "midi": 86,
          "name": "D6",
          "ticks": 200040,
          "time": 208.375,
          "velocity": 0.6299212598425197
        },
        {
          "duration": 0.3552083333333371,
          "durationTicks": 341,
          "midi": 74,
          "name": "D5",
          "ticks": 200520,
          "time": 208.875,
          "velocity": 0.6299212598425197
        },
        {
          "duration": 0.3552083333333371,
          "durationTicks": 341,
          "midi": 77,
          "name": "F5",
          "ticks": 200520,
          "time": 208.875,
          "velocity": 0.6299212598425197
        },
        {
          "duration": 0.3552083333333371,
          "durationTicks": 341,
          "midi": 81,
          "name": "A5",
          "ticks": 200520,
          "time": 208.875,
          "velocity": 0.6299212598425197
        },
        {
          "duration": 0.3552083333333371,
          "durationTicks": 341,
          "midi": 74,
          "name": "D5",
          "ticks": 200880,
          "time": 209.25,
          "velocity": 0.6299212598425197
        },
        {
          "duration": 0.3552083333333371,
          "durationTicks": 341,
          "midi": 77,
          "name": "F5",
          "ticks": 200880,
          "time": 209.25,
          "velocity": 0.6299212598425197
        },
        {
          "duration": 0.3552083333333371,
          "durationTicks": 341,
          "midi": 81,
          "name": "A5",
          "ticks": 200880,
          "time": 209.25,
          "velocity": 0.6299212598425197
        },
        {
          "duration": 0.3552083333333371,
          "durationTicks": 341,
          "midi": 72,
          "name": "C5",
          "ticks": 201240,
          "time": 209.625,
          "velocity": 0.6299212598425197
        },
        {
          "duration": 0.3552083333333371,
          "durationTicks": 341,
          "midi": 79,
          "name": "G5",
          "ticks": 201240,
          "time": 209.625,
          "velocity": 0.6299212598425197
        },
        {
          "duration": 0.3552083333333371,
          "durationTicks": 341,
          "midi": 72,
          "name": "C5",
          "ticks": 201600,
          "time": 210,
          "velocity": 0.6299212598425197
        },
        {
          "duration": 0.3552083333333371,
          "durationTicks": 341,
          "midi": 77,
          "name": "F5",
          "ticks": 201600,
          "time": 210,
          "velocity": 0.6299212598425197
        },
        {
          "duration": 0.23645833333333144,
          "durationTicks": 227,
          "midi": 72,
          "name": "C5",
          "ticks": 201960,
          "time": 210.375,
          "velocity": 0.6299212598425197
        },
        {
          "duration": 0.23645833333333144,
          "durationTicks": 227,
          "midi": 75,
          "name": "D#5",
          "ticks": 201960,
          "time": 210.375,
          "velocity": 0.6299212598425197
        },
        {
          "duration": 0.11770833333332575,
          "durationTicks": 113,
          "midi": 76,
          "name": "E5",
          "ticks": 202200,
          "time": 210.625,
          "velocity": 0.6299212598425197
        },
        {
          "duration": 0.11770833333332575,
          "durationTicks": 113,
          "midi": 77,
          "name": "F5",
          "ticks": 202320,
          "time": 210.75,
          "velocity": 0.6299212598425197
        },
        {
          "duration": 0.11770833333332575,
          "durationTicks": 113,
          "midi": 76,
          "name": "E5",
          "ticks": 202440,
          "time": 210.875,
          "velocity": 0.6299212598425197
        },
        {
          "duration": 0.11770833333332575,
          "durationTicks": 113,
          "midi": 72,
          "name": "C5",
          "ticks": 202560,
          "time": 211,
          "velocity": 0.6299212598425197
        },
        {
          "duration": 0.11770833333332575,
          "durationTicks": 113,
          "midi": 69,
          "name": "A4",
          "ticks": 202680,
          "time": 211.125,
          "velocity": 0.6299212598425197
        },
        {
          "duration": 0.11770833333332575,
          "durationTicks": 113,
          "midi": 67,
          "name": "G4",
          "ticks": 202800,
          "time": 211.25,
          "velocity": 0.6299212598425197
        },
        {
          "duration": 0.11770833333332575,
          "durationTicks": 113,
          "midi": 69,
          "name": "A4",
          "ticks": 202920,
          "time": 211.375,
          "velocity": 0.6299212598425197
        },
        {
          "duration": 0.11770833333332575,
          "durationTicks": 113,
          "midi": 72,
          "name": "C5",
          "ticks": 203040,
          "time": 211.5,
          "velocity": 0.6299212598425197
        },
        {
          "duration": 0.11770833333332575,
          "durationTicks": 113,
          "midi": 69,
          "name": "A4",
          "ticks": 203160,
          "time": 211.625,
          "velocity": 0.6299212598425197
        },
        {
          "duration": 0.11770833333332575,
          "durationTicks": 113,
          "midi": 72,
          "name": "C5",
          "ticks": 203280,
          "time": 211.75,
          "velocity": 0.6299212598425197
        },
        {
          "duration": 0.11770833333332575,
          "durationTicks": 113,
          "midi": 74,
          "name": "D5",
          "ticks": 203400,
          "time": 211.875,
          "velocity": 0.6299212598425197
        },
        {
          "duration": 0.11770833333332575,
          "durationTicks": 113,
          "midi": 77,
          "name": "F5",
          "ticks": 203400,
          "time": 211.875,
          "velocity": 0.6299212598425197
        },
        {
          "duration": 0.11770833333332575,
          "durationTicks": 113,
          "midi": 74,
          "name": "D5",
          "ticks": 203520,
          "time": 212,
          "velocity": 0.6299212598425197
        },
        {
          "duration": 0.11770833333332575,
          "durationTicks": 113,
          "midi": 77,
          "name": "F5",
          "ticks": 203640,
          "time": 212.125,
          "velocity": 0.6299212598425197
        },
        {
          "duration": 0.11770833333332575,
          "durationTicks": 113,
          "midi": 76,
          "name": "E5",
          "ticks": 203760,
          "time": 212.25,
          "velocity": 0.6299212598425197
        },
        {
          "duration": 0.11770833333332575,
          "durationTicks": 113,
          "midi": 77,
          "name": "F5",
          "ticks": 203760,
          "time": 212.25,
          "velocity": 0.6299212598425197
        },
        {
          "duration": 0.11770833333332575,
          "durationTicks": 113,
          "midi": 79,
          "name": "G5",
          "ticks": 203880,
          "time": 212.375,
          "velocity": 0.6299212598425197
        },
        {
          "duration": 0.11770833333332575,
          "durationTicks": 113,
          "midi": 80,
          "name": "G#5",
          "ticks": 204000,
          "time": 212.5,
          "velocity": 0.6299212598425197
        },
        {
          "duration": 0.5927083333333201,
          "durationTicks": 569,
          "midi": 74,
          "name": "D5",
          "ticks": 204120,
          "time": 212.625,
          "velocity": 0.6299212598425197
        },
        {
          "duration": 0.5927083333333201,
          "durationTicks": 569,
          "midi": 81,
          "name": "A5",
          "ticks": 204120,
          "time": 212.625,
          "velocity": 0.6299212598425197
        },
        {
          "duration": 0.3552083333333371,
          "durationTicks": 341,
          "midi": 74,
          "name": "D5",
          "ticks": 204720,
          "time": 213.25,
          "velocity": 0.6299212598425197
        },
        {
          "duration": 0.3552083333333371,
          "durationTicks": 341,
          "midi": 81,
          "name": "A5",
          "ticks": 204720,
          "time": 213.25,
          "velocity": 0.6299212598425197
        },
        {
          "duration": 0.3552083333333371,
          "durationTicks": 341,
          "midi": 76,
          "name": "E5",
          "ticks": 205080,
          "time": 213.625,
          "velocity": 0.6299212598425197
        },
        {
          "duration": 0.3552083333333371,
          "durationTicks": 341,
          "midi": 84,
          "name": "C6",
          "ticks": 205080,
          "time": 213.625,
          "velocity": 0.6299212598425197
        },
        {
          "duration": 0.3552083333333371,
          "durationTicks": 341,
          "midi": 76,
          "name": "E5",
          "ticks": 205440,
          "time": 214,
          "velocity": 0.6299212598425197
        },
        {
          "duration": 0.3552083333333371,
          "durationTicks": 341,
          "midi": 79,
          "name": "G5",
          "ticks": 205440,
          "time": 214,
          "velocity": 0.6299212598425197
        },
        {
          "duration": 0.23645833333333144,
          "durationTicks": 227,
          "midi": 76,
          "name": "E5",
          "ticks": 205800,
          "time": 214.375,
          "velocity": 0.6299212598425197
        },
        {
          "duration": 0.23645833333333144,
          "durationTicks": 227,
          "midi": 82,
          "name": "A#5",
          "ticks": 205800,
          "time": 214.375,
          "velocity": 0.6299212598425197
        },
        {
          "duration": 0.3552083333333371,
          "durationTicks": 341,
          "midi": 76,
          "name": "E5",
          "ticks": 206040,
          "time": 214.625,
          "velocity": 0.6299212598425197
        },
        {
          "duration": 0.3552083333333371,
          "durationTicks": 341,
          "midi": 82,
          "name": "A#5",
          "ticks": 206040,
          "time": 214.625,
          "velocity": 0.6299212598425197
        },
        {
          "duration": 0.3552083333333371,
          "durationTicks": 341,
          "midi": 81,
          "name": "A5",
          "ticks": 206400,
          "time": 215,
          "velocity": 0.6299212598425197
        },
        {
          "duration": 0.11770833333332575,
          "durationTicks": 113,
          "midi": 79,
          "name": "G5",
          "ticks": 206760,
          "time": 215.375,
          "velocity": 0.6299212598425197
        },
        {
          "duration": 0.11770833333332575,
          "durationTicks": 113,
          "midi": 89,
          "name": "F6",
          "ticks": 206760,
          "time": 215.375,
          "velocity": 0.6299212598425197
        },
        {
          "duration": 0.11770833333332575,
          "durationTicks": 113,
          "midi": 80,
          "name": "G#5",
          "ticks": 206880,
          "time": 215.5,
          "velocity": 0.6299212598425197
        },
        {
          "duration": 0.11770833333332575,
          "durationTicks": 113,
          "midi": 88,
          "name": "E6",
          "ticks": 206880,
          "time": 215.5,
          "velocity": 0.6299212598425197
        },
        {
          "duration": 0.11770833333332575,
          "durationTicks": 113,
          "midi": 81,
          "name": "A5",
          "ticks": 207000,
          "time": 215.625,
          "velocity": 0.6299212598425197
        },
        {
          "duration": 0.11770833333332575,
          "durationTicks": 113,
          "midi": 86,
          "name": "D6",
          "ticks": 207000,
          "time": 215.625,
          "velocity": 0.6299212598425197
        },
        {
          "duration": 0.11770833333332575,
          "durationTicks": 113,
          "midi": 84,
          "name": "C6",
          "ticks": 207120,
          "time": 215.75,
          "velocity": 0.6299212598425197
        },
        {
          "duration": 0.23645833333333144,
          "durationTicks": 227,
          "midi": 74,
          "name": "D5",
          "ticks": 207240,
          "time": 215.875,
          "velocity": 0.6299212598425197
        },
        {
          "duration": 0.23645833333333144,
          "durationTicks": 227,
          "midi": 84,
          "name": "C6",
          "ticks": 207240,
          "time": 215.875,
          "velocity": 0.6299212598425197
        },
        {
          "duration": 0.23645833333333144,
          "durationTicks": 227,
          "midi": 86,
          "name": "D6",
          "ticks": 207480,
          "time": 216.125,
          "velocity": 0.6299212598425197
        },
        {
          "duration": 0.23645833333333144,
          "durationTicks": 227,
          "midi": 84,
          "name": "C6",
          "ticks": 207720,
          "time": 216.375,
          "velocity": 0.6299212598425197
        },
        {
          "duration": 0.23645833333333144,
          "durationTicks": 227,
          "midi": 74,
          "name": "D5",
          "ticks": 207960,
          "time": 216.625,
          "velocity": 0.6299212598425197
        },
        {
          "duration": 0.23645833333333144,
          "durationTicks": 227,
          "midi": 65,
          "name": "F4",
          "ticks": 208200,
          "time": 216.875,
          "velocity": 0.6299212598425197
        },
        {
          "duration": 0.23645833333333144,
          "durationTicks": 227,
          "midi": 77,
          "name": "F5",
          "ticks": 208200,
          "time": 216.875,
          "velocity": 0.6299212598425197
        },
        {
          "duration": 0.23645833333333144,
          "durationTicks": 227,
          "midi": 67,
          "name": "G4",
          "ticks": 208440,
          "time": 217.125,
          "velocity": 0.6299212598425197
        },
        {
          "duration": 0.23645833333333144,
          "durationTicks": 227,
          "midi": 79,
          "name": "G5",
          "ticks": 208440,
          "time": 217.125,
          "velocity": 0.6299212598425197
        },
        {
          "duration": 0.23645833333333144,
          "durationTicks": 227,
          "midi": 65,
          "name": "F4",
          "ticks": 208680,
          "time": 217.375,
          "velocity": 0.6299212598425197
        },
        {
          "duration": 0.23645833333333144,
          "durationTicks": 227,
          "midi": 77,
          "name": "F5",
          "ticks": 208680,
          "time": 217.375,
          "velocity": 0.6299212598425197
        },
        {
          "duration": 0.3552083333333371,
          "durationTicks": 341,
          "midi": 79,
          "name": "G5",
          "ticks": 208920,
          "time": 217.625,
          "velocity": 0.6299212598425197
        },
        {
          "duration": 0.3552083333333371,
          "durationTicks": 341,
          "midi": 81,
          "name": "A5",
          "ticks": 208920,
          "time": 217.625,
          "velocity": 0.6299212598425197
        },
        {
          "duration": 0.3552083333333371,
          "durationTicks": 341,
          "midi": 86,
          "name": "D6",
          "ticks": 208920,
          "time": 217.625,
          "velocity": 0.6299212598425197
        },
        {
          "duration": 0.3552083333333371,
          "durationTicks": 341,
          "midi": 79,
          "name": "G5",
          "ticks": 209280,
          "time": 218,
          "velocity": 0.6299212598425197
        },
        {
          "duration": 0.3552083333333371,
          "durationTicks": 341,
          "midi": 86,
          "name": "D6",
          "ticks": 209280,
          "time": 218,
          "velocity": 0.6299212598425197
        },
        {
          "duration": 0.23645833333333144,
          "durationTicks": 227,
          "midi": 77,
          "name": "F5",
          "ticks": 209640,
          "time": 218.375,
          "velocity": 0.6299212598425197
        },
        {
          "duration": 0.23645833333333144,
          "durationTicks": 227,
          "midi": 86,
          "name": "D6",
          "ticks": 209880,
          "time": 218.625,
          "velocity": 0.6299212598425197
        },
        {
          "duration": 0.23645833333333144,
          "durationTicks": 227,
          "midi": 81,
          "name": "A5",
          "ticks": 210120,
          "time": 218.875,
          "velocity": 0.6299212598425197
        },
        {
          "duration": 0.23645833333333144,
          "durationTicks": 227,
          "midi": 89,
          "name": "F6",
          "ticks": 210120,
          "time": 218.875,
          "velocity": 0.6299212598425197
        },
        {
          "duration": 0.23645833333333144,
          "durationTicks": 227,
          "midi": 79,
          "name": "G5",
          "ticks": 210360,
          "time": 219.125,
          "velocity": 0.6299212598425197
        },
        {
          "duration": 0.23645833333333144,
          "durationTicks": 227,
          "midi": 86,
          "name": "D6",
          "ticks": 210360,
          "time": 219.125,
          "velocity": 0.6299212598425197
        },
        {
          "duration": 0.23645833333333144,
          "durationTicks": 227,
          "midi": 77,
          "name": "F5",
          "ticks": 210600,
          "time": 219.375,
          "velocity": 0.6299212598425197
        },
        {
          "duration": 0.23645833333333144,
          "durationTicks": 227,
          "midi": 79,
          "name": "G5",
          "ticks": 210840,
          "time": 219.625,
          "velocity": 0.6299212598425197
        },
        {
          "duration": 0.23645833333333144,
          "durationTicks": 227,
          "midi": 86,
          "name": "D6",
          "ticks": 210840,
          "time": 219.625,
          "velocity": 0.6299212598425197
        },
        {
          "duration": 0.11770833333332575,
          "durationTicks": 113,
          "midi": 77,
          "name": "F5",
          "ticks": 211080,
          "time": 219.875,
          "velocity": 0.6299212598425197
        },
        {
          "duration": 0.23645833333333144,
          "durationTicks": 227,
          "midi": 74,
          "name": "D5",
          "ticks": 211200,
          "time": 220,
          "velocity": 0.6299212598425197
        },
        {
          "duration": 0.11770833333332575,
          "durationTicks": 113,
          "midi": 74,
          "name": "D5",
          "ticks": 211440,
          "time": 220.25,
          "velocity": 0.6299212598425197
        },
        {
          "duration": 0.23645833333333144,
          "durationTicks": 227,
          "midi": 72,
          "name": "C5",
          "ticks": 211560,
          "time": 220.375,
          "velocity": 0.6299212598425197
        },
        {
          "duration": 0.7489583333333201,
          "durationTicks": 719,
          "midi": 84,
          "name": "C6",
          "ticks": 211800,
          "time": 220.625,
          "velocity": 0.6299212598425197
        },
        {
          "duration": 0.7489583333333201,
          "durationTicks": 719,
          "midi": 86,
          "name": "D6",
          "ticks": 211800,
          "time": 220.625,
          "velocity": 0.6299212598425197
        },
        {
          "duration": 0.8677083333333258,
          "durationTicks": 833,
          "midi": 89,
          "name": "F6",
          "ticks": 211800,
          "time": 220.625,
          "velocity": 0.6299212598425197
        },
        {
          "duration": 0.11770833333332575,
          "durationTicks": 113,
          "midi": 84,
          "name": "C6",
          "ticks": 212520,
          "time": 221.375,
          "velocity": 0.6299212598425197
        },
        {
          "duration": 0.11770833333332575,
          "durationTicks": 113,
          "midi": 86,
          "name": "D6",
          "ticks": 212520,
          "time": 221.375,
          "velocity": 0.6299212598425197
        },
        {
          "duration": 0.11770833333332575,
          "durationTicks": 113,
          "midi": 81,
          "name": "A5",
          "ticks": 212640,
          "time": 221.5,
          "velocity": 0.6299212598425197
        },
        {
          "duration": 0.3552083333333371,
          "durationTicks": 341,
          "midi": 81,
          "name": "A5",
          "ticks": 212760,
          "time": 221.625,
          "velocity": 0.6299212598425197
        },
        {
          "duration": 0.3552083333333371,
          "durationTicks": 341,
          "midi": 84,
          "name": "C6",
          "ticks": 212760,
          "time": 221.625,
          "velocity": 0.6299212598425197
        },
        {
          "duration": 0.3552083333333371,
          "durationTicks": 341,
          "midi": 86,
          "name": "D6",
          "ticks": 212760,
          "time": 221.625,
          "velocity": 0.6299212598425197
        },
        {
          "duration": 0.3552083333333371,
          "durationTicks": 341,
          "midi": 89,
          "name": "F6",
          "ticks": 212760,
          "time": 221.625,
          "velocity": 0.6299212598425197
        },
        {
          "duration": 0.3552083333333371,
          "durationTicks": 341,
          "midi": 81,
          "name": "A5",
          "ticks": 213120,
          "time": 222,
          "velocity": 0.6299212598425197
        },
        {
          "duration": 0.3552083333333371,
          "durationTicks": 341,
          "midi": 88,
          "name": "E6",
          "ticks": 213120,
          "time": 222,
          "velocity": 0.6299212598425197
        },
        {
          "duration": 0.11770833333332575,
          "durationTicks": 113,
          "midi": 81,
          "name": "A5",
          "ticks": 213480,
          "time": 222.375,
          "velocity": 0.6299212598425197
        },
        {
          "duration": 0.11770833333332575,
          "durationTicks": 113,
          "midi": 84,
          "name": "C6",
          "ticks": 213480,
          "time": 222.375,
          "velocity": 0.6299212598425197
        },
        {
          "duration": 0.11770833333332575,
          "durationTicks": 113,
          "midi": 89,
          "name": "F6",
          "ticks": 213480,
          "time": 222.375,
          "velocity": 0.6299212598425197
        },
        {
          "duration": 0.11770833333332575,
          "durationTicks": 113,
          "midi": 93,
          "name": "A6",
          "ticks": 213600,
          "time": 222.5,
          "velocity": 0.6299212598425197
        },
        {
          "duration": 0.3552083333333371,
          "durationTicks": 341,
          "midi": 81,
          "name": "A5",
          "ticks": 213720,
          "time": 222.625,
          "velocity": 0.6299212598425197
        },
        {
          "duration": 0.3552083333333371,
          "durationTicks": 341,
          "midi": 86,
          "name": "D6",
          "ticks": 213720,
          "time": 222.625,
          "velocity": 0.6299212598425197
        },
        {
          "duration": 0.3552083333333371,
          "durationTicks": 341,
          "midi": 89,
          "name": "F6",
          "ticks": 213720,
          "time": 222.625,
          "velocity": 0.6299212598425197
        },
        {
          "duration": 0.36145833333333144,
          "durationTicks": 347,
          "midi": 81,
          "name": "A5",
          "ticks": 214080,
          "time": 223,
          "velocity": 0.6299212598425197
        },
        {
          "duration": 0.12395833333332007,
          "durationTicks": 119,
          "midi": 86,
          "name": "D6",
          "ticks": 214080,
          "time": 223,
          "velocity": 0.6299212598425197
        },
        {
          "duration": 0.36145833333333144,
          "durationTicks": 347,
          "midi": 89,
          "name": "F6",
          "ticks": 214080,
          "time": 223,
          "velocity": 0.6299212598425197
        },
        {
          "duration": 0.23645833333333144,
          "durationTicks": 227,
          "midi": 86,
          "name": "D6",
          "ticks": 214200,
          "time": 223.125,
          "velocity": 0.6299212598425197
        },
        {
          "duration": 0.23645833333333144,
          "durationTicks": 227,
          "midi": 79,
          "name": "G5",
          "ticks": 214440,
          "time": 223.375,
          "velocity": 0.6299212598425197
        },
        {
          "duration": 0.23645833333333144,
          "durationTicks": 227,
          "midi": 84,
          "name": "C6",
          "ticks": 214440,
          "time": 223.375,
          "velocity": 0.6299212598425197
        },
        {
          "duration": 0.23645833333333144,
          "durationTicks": 227,
          "midi": 88,
          "name": "E6",
          "ticks": 214440,
          "time": 223.375,
          "velocity": 0.6299212598425197
        },
        {
          "duration": 0.23645833333333144,
          "durationTicks": 227,
          "midi": 81,
          "name": "A5",
          "ticks": 214680,
          "time": 223.625,
          "velocity": 0.6299212598425197
        },
        {
          "duration": 0.23645833333333144,
          "durationTicks": 227,
          "midi": 86,
          "name": "D6",
          "ticks": 214680,
          "time": 223.625,
          "velocity": 0.6299212598425197
        },
        {
          "duration": 0.23645833333333144,
          "durationTicks": 227,
          "midi": 89,
          "name": "F6",
          "ticks": 214680,
          "time": 223.625,
          "velocity": 0.6299212598425197
        },
        {
          "duration": 0.4739583333333428,
          "durationTicks": 455,
          "midi": 86,
          "name": "D6",
          "ticks": 214920,
          "time": 223.875,
          "velocity": 0.6299212598425197
        },
        {
          "duration": 0.23645833333333144,
          "durationTicks": 227,
          "midi": 62,
          "name": "D4",
          "ticks": 215400,
          "time": 224.375,
          "velocity": 0.6299212598425197
        },
        {
          "duration": 0.4739583333333428,
          "durationTicks": 455,
          "midi": 81,
          "name": "A5",
          "ticks": 215640,
          "time": 224.625,
          "velocity": 0.6299212598425197
        },
        {
          "duration": 0.4739583333333428,
          "durationTicks": 455,
          "midi": 84,
          "name": "C6",
          "ticks": 215640,
          "time": 224.625,
          "velocity": 0.6299212598425197
        },
        {
          "duration": 0.4739583333333428,
          "durationTicks": 455,
          "midi": 86,
          "name": "D6",
          "ticks": 215640,
          "time": 224.625,
          "velocity": 0.6299212598425197
        },
        {
          "duration": 0.4739583333333428,
          "durationTicks": 455,
          "midi": 89,
          "name": "F6",
          "ticks": 215640,
          "time": 224.625,
          "velocity": 0.6299212598425197
        },
        {
          "duration": 0.4739583333333428,
          "durationTicks": 455,
          "midi": 81,
          "name": "A5",
          "ticks": 216120,
          "time": 225.125,
          "velocity": 0.6299212598425197
        },
        {
          "duration": 0.4739583333333428,
          "durationTicks": 455,
          "midi": 84,
          "name": "C6",
          "ticks": 216120,
          "time": 225.125,
          "velocity": 0.6299212598425197
        },
        {
          "duration": 0.4739583333333428,
          "durationTicks": 455,
          "midi": 88,
          "name": "E6",
          "ticks": 216120,
          "time": 225.125,
          "velocity": 0.6299212598425197
        },
        {
          "duration": 0.4739583333333428,
          "durationTicks": 455,
          "midi": 77,
          "name": "F5",
          "ticks": 216600,
          "time": 225.625,
          "velocity": 0.6299212598425197
        },
        {
          "duration": 0.4739583333333428,
          "durationTicks": 455,
          "midi": 82,
          "name": "A#5",
          "ticks": 216600,
          "time": 225.625,
          "velocity": 0.6299212598425197
        },
        {
          "duration": 0.4739583333333428,
          "durationTicks": 455,
          "midi": 86,
          "name": "D6",
          "ticks": 216600,
          "time": 225.625,
          "velocity": 0.6299212598425197
        },
        {
          "duration": 0.4739583333333428,
          "durationTicks": 455,
          "midi": 77,
          "name": "F5",
          "ticks": 217080,
          "time": 226.125,
          "velocity": 0.6299212598425197
        },
        {
          "duration": 0.4739583333333428,
          "durationTicks": 455,
          "midi": 84,
          "name": "C6",
          "ticks": 217080,
          "time": 226.125,
          "velocity": 0.6299212598425197
        },
        {
          "duration": 0.23645833333333144,
          "durationTicks": 227,
          "midi": 77,
          "name": "F5",
          "ticks": 217560,
          "time": 226.625,
          "velocity": 0.6299212598425197
        },
        {
          "duration": 0.23645833333333144,
          "durationTicks": 227,
          "midi": 84,
          "name": "C6",
          "ticks": 217560,
          "time": 226.625,
          "velocity": 0.6299212598425197
        },
        {
          "duration": 0.11770833333332575,
          "durationTicks": 113,
          "midi": 86,
          "name": "D6",
          "ticks": 217800,
          "time": 226.875,
          "velocity": 0.6299212598425197
        },
        {
          "duration": 0.11770833333332575,
          "durationTicks": 113,
          "midi": 84,
          "name": "C6",
          "ticks": 217920,
          "time": 227,
          "velocity": 0.6299212598425197
        },
        {
          "duration": 0.23645833333333144,
          "durationTicks": 227,
          "midi": 81,
          "name": "A5",
          "ticks": 218040,
          "time": 227.125,
          "velocity": 0.6299212598425197
        },
        {
          "duration": 0.23645833333333144,
          "durationTicks": 227,
          "midi": 79,
          "name": "G5",
          "ticks": 218280,
          "time": 227.375,
          "velocity": 0.6299212598425197
        },
        {
          "duration": 0.11770833333332575,
          "durationTicks": 113,
          "midi": 81,
          "name": "A5",
          "ticks": 218520,
          "time": 227.625,
          "velocity": 0.6299212598425197
        },
        {
          "duration": 0.11770833333332575,
          "durationTicks": 113,
          "midi": 89,
          "name": "F6",
          "ticks": 218640,
          "time": 227.75,
          "velocity": 0.6299212598425197
        },
        {
          "duration": 0.11770833333332575,
          "durationTicks": 113,
          "midi": 88,
          "name": "E6",
          "ticks": 218760,
          "time": 227.875,
          "velocity": 0.6299212598425197
        },
        {
          "duration": 0.11770833333332575,
          "durationTicks": 113,
          "midi": 86,
          "name": "D6",
          "ticks": 218880,
          "time": 228,
          "velocity": 0.6299212598425197
        },
        {
          "duration": 0.11770833333332575,
          "durationTicks": 113,
          "midi": 84,
          "name": "C6",
          "ticks": 219000,
          "time": 228.125,
          "velocity": 0.6299212598425197
        },
        {
          "duration": 0.11770833333332575,
          "durationTicks": 113,
          "midi": 81,
          "name": "A5",
          "ticks": 219120,
          "time": 228.25,
          "velocity": 0.6299212598425197
        },
        {
          "duration": 0.11770833333332575,
          "durationTicks": 113,
          "midi": 79,
          "name": "G5",
          "ticks": 219240,
          "time": 228.375,
          "velocity": 0.6299212598425197
        },
        {
          "duration": 0.23645833333333144,
          "durationTicks": 227,
          "midi": 79,
          "name": "G5",
          "ticks": 219480,
          "time": 228.625,
          "velocity": 0.6299212598425197
        },
        {
          "duration": 0.23645833333333144,
          "durationTicks": 227,
          "midi": 82,
          "name": "A#5",
          "ticks": 219480,
          "time": 228.625,
          "velocity": 0.6299212598425197
        },
        {
          "duration": 0.23645833333333144,
          "durationTicks": 227,
          "midi": 79,
          "name": "G5",
          "ticks": 219720,
          "time": 228.875,
          "velocity": 0.6299212598425197
        },
        {
          "duration": 0.23645833333333144,
          "durationTicks": 227,
          "midi": 82,
          "name": "A#5",
          "ticks": 219720,
          "time": 228.875,
          "velocity": 0.6299212598425197
        },
        {
          "duration": 0.4739583333333428,
          "durationTicks": 455,
          "midi": 79,
          "name": "G5",
          "ticks": 219960,
          "time": 229.125,
          "velocity": 0.6299212598425197
        },
        {
          "duration": 0.4739583333333428,
          "durationTicks": 455,
          "midi": 82,
          "name": "A#5",
          "ticks": 219960,
          "time": 229.125,
          "velocity": 0.6299212598425197
        },
        {
          "duration": 0.4739583333333428,
          "durationTicks": 455,
          "midi": 86,
          "name": "D6",
          "ticks": 219960,
          "time": 229.125,
          "velocity": 0.6299212598425197
        },
        {
          "duration": 0.4739583333333428,
          "durationTicks": 455,
          "midi": 81,
          "name": "A5",
          "ticks": 220440,
          "time": 229.625,
          "velocity": 0.6299212598425197
        },
        {
          "duration": 0.4739583333333428,
          "durationTicks": 455,
          "midi": 85,
          "name": "C#6",
          "ticks": 220440,
          "time": 229.625,
          "velocity": 0.6299212598425197
        },
        {
          "duration": 0.4739583333333428,
          "durationTicks": 455,
          "midi": 91,
          "name": "G6",
          "ticks": 220440,
          "time": 229.625,
          "velocity": 0.6299212598425197
        },
        {
          "duration": 0.4739583333333428,
          "durationTicks": 455,
          "midi": 88,
          "name": "E6",
          "ticks": 220920,
          "time": 230.125,
          "velocity": 0.6299212598425197
        },
        {
          "duration": 0.23645833333333144,
          "durationTicks": 227,
          "midi": 84,
          "name": "C6",
          "ticks": 221400,
          "time": 230.625,
          "velocity": 0.6299212598425197
        },
        {
          "duration": 0.23645833333333144,
          "durationTicks": 227,
          "midi": 86,
          "name": "D6",
          "ticks": 221400,
          "time": 230.625,
          "velocity": 0.6299212598425197
        },
        {
          "duration": 0.23645833333333144,
          "durationTicks": 227,
          "midi": 89,
          "name": "F6",
          "ticks": 221400,
          "time": 230.625,
          "velocity": 0.6299212598425197
        },
        {
          "duration": 0.23645833333333144,
          "durationTicks": 227,
          "midi": 86,
          "name": "D6",
          "ticks": 221640,
          "time": 230.875,
          "velocity": 0.6299212598425197
        },
        {
          "duration": 0.23645833333333144,
          "durationTicks": 227,
          "midi": 98,
          "name": "D7",
          "ticks": 221640,
          "time": 230.875,
          "velocity": 0.6299212598425197
        },
        {
          "duration": 0.23645833333333144,
          "durationTicks": 227,
          "midi": 85,
          "name": "C#6",
          "ticks": 221880,
          "time": 231.125,
          "velocity": 0.6299212598425197
        },
        {
          "duration": 0.23645833333333144,
          "durationTicks": 227,
          "midi": 89,
          "name": "F6",
          "ticks": 221880,
          "time": 231.125,
          "velocity": 0.6299212598425197
        },
        {
          "duration": 0.23645833333333144,
          "durationTicks": 227,
          "midi": 97,
          "name": "C#7",
          "ticks": 221880,
          "time": 231.125,
          "velocity": 0.6299212598425197
        },
        {
          "duration": 0.23645833333333144,
          "durationTicks": 227,
          "midi": 85,
          "name": "C#6",
          "ticks": 222120,
          "time": 231.375,
          "velocity": 0.6299212598425197
        },
        {
          "duration": 0.23645833333333144,
          "durationTicks": 227,
          "midi": 95,
          "name": "B6",
          "ticks": 222120,
          "time": 231.375,
          "velocity": 0.6299212598425197
        },
        {
          "duration": 0.23645833333333144,
          "durationTicks": 227,
          "midi": 81,
          "name": "A5",
          "ticks": 222360,
          "time": 231.625,
          "velocity": 0.6299212598425197
        },
        {
          "duration": 0.23645833333333144,
          "durationTicks": 227,
          "midi": 86,
          "name": "D6",
          "ticks": 222360,
          "time": 231.625,
          "velocity": 0.6299212598425197
        },
        {
          "duration": 0.23645833333333144,
          "durationTicks": 227,
          "midi": 93,
          "name": "A6",
          "ticks": 222360,
          "time": 231.625,
          "velocity": 0.6299212598425197
        },
        {
          "duration": 0.23645833333333144,
          "durationTicks": 227,
          "midi": 80,
          "name": "G#5",
          "ticks": 222600,
          "time": 231.875,
          "velocity": 0.6299212598425197
        },
        {
          "duration": 0.23645833333333144,
          "durationTicks": 227,
          "midi": 92,
          "name": "G#6",
          "ticks": 222600,
          "time": 231.875,
          "velocity": 0.6299212598425197
        },
        {
          "duration": 0.23645833333333144,
          "durationTicks": 227,
          "midi": 79,
          "name": "G5",
          "ticks": 222840,
          "time": 232.125,
          "velocity": 0.6299212598425197
        },
        {
          "duration": 0.23645833333333144,
          "durationTicks": 227,
          "midi": 86,
          "name": "D6",
          "ticks": 222840,
          "time": 232.125,
          "velocity": 0.6299212598425197
        },
        {
          "duration": 0.23645833333333144,
          "durationTicks": 227,
          "midi": 91,
          "name": "G6",
          "ticks": 222840,
          "time": 232.125,
          "velocity": 0.6299212598425197
        },
        {
          "duration": 0.23645833333333144,
          "durationTicks": 227,
          "midi": 74,
          "name": "D5",
          "ticks": 223080,
          "time": 232.375,
          "velocity": 0.6299212598425197
        },
        {
          "duration": 0.23645833333333144,
          "durationTicks": 227,
          "midi": 86,
          "name": "D6",
          "ticks": 223080,
          "time": 232.375,
          "velocity": 0.6299212598425197
        },
        {
          "duration": 0.4739583333333428,
          "durationTicks": 455,
          "midi": 81,
          "name": "A5",
          "ticks": 223320,
          "time": 232.625,
          "velocity": 0.6299212598425197
        },
        {
          "duration": 0.4739583333333428,
          "durationTicks": 455,
          "midi": 84,
          "name": "C6",
          "ticks": 223320,
          "time": 232.625,
          "velocity": 0.6299212598425197
        },
        {
          "duration": 0.4739583333333428,
          "durationTicks": 455,
          "midi": 86,
          "name": "D6",
          "ticks": 223320,
          "time": 232.625,
          "velocity": 0.6299212598425197
        },
        {
          "duration": 0.4739583333333428,
          "durationTicks": 455,
          "midi": 89,
          "name": "F6",
          "ticks": 223320,
          "time": 232.625,
          "velocity": 0.6299212598425197
        },
        {
          "duration": 0.4739583333333428,
          "durationTicks": 455,
          "midi": 81,
          "name": "A5",
          "ticks": 223800,
          "time": 233.125,
          "velocity": 0.6299212598425197
        },
        {
          "duration": 0.4739583333333428,
          "durationTicks": 455,
          "midi": 84,
          "name": "C6",
          "ticks": 223800,
          "time": 233.125,
          "velocity": 0.6299212598425197
        },
        {
          "duration": 0.4739583333333428,
          "durationTicks": 455,
          "midi": 88,
          "name": "E6",
          "ticks": 223800,
          "time": 233.125,
          "velocity": 0.6299212598425197
        },
        {
          "duration": 0.4739583333333428,
          "durationTicks": 455,
          "midi": 77,
          "name": "F5",
          "ticks": 224280,
          "time": 233.625,
          "velocity": 0.6299212598425197
        },
        {
          "duration": 0.4739583333333428,
          "durationTicks": 455,
          "midi": 82,
          "name": "A#5",
          "ticks": 224280,
          "time": 233.625,
          "velocity": 0.6299212598425197
        },
        {
          "duration": 0.4739583333333428,
          "durationTicks": 455,
          "midi": 86,
          "name": "D6",
          "ticks": 224280,
          "time": 233.625,
          "velocity": 0.6299212598425197
        },
        {
          "duration": 0.4739583333333428,
          "durationTicks": 455,
          "midi": 77,
          "name": "F5",
          "ticks": 224760,
          "time": 234.125,
          "velocity": 0.6299212598425197
        },
        {
          "duration": 0.4739583333333428,
          "durationTicks": 455,
          "midi": 84,
          "name": "C6",
          "ticks": 224760,
          "time": 234.125,
          "velocity": 0.6299212598425197
        },
        {
          "duration": 0.23645833333333144,
          "durationTicks": 227,
          "midi": 77,
          "name": "F5",
          "ticks": 225240,
          "time": 234.625,
          "velocity": 0.6299212598425197
        },
        {
          "duration": 0.23645833333333144,
          "durationTicks": 227,
          "midi": 84,
          "name": "C6",
          "ticks": 225240,
          "time": 234.625,
          "velocity": 0.6299212598425197
        },
        {
          "duration": 0.11770833333332575,
          "durationTicks": 113,
          "midi": 86,
          "name": "D6",
          "ticks": 225480,
          "time": 234.875,
          "velocity": 0.6299212598425197
        },
        {
          "duration": 0.11770833333332575,
          "durationTicks": 113,
          "midi": 84,
          "name": "C6",
          "ticks": 225600,
          "time": 235,
          "velocity": 0.6299212598425197
        },
        {
          "duration": 0.23645833333333144,
          "durationTicks": 227,
          "midi": 81,
          "name": "A5",
          "ticks": 225720,
          "time": 235.125,
          "velocity": 0.6299212598425197
        },
        {
          "duration": 0.23645833333333144,
          "durationTicks": 227,
          "midi": 79,
          "name": "G5",
          "ticks": 225960,
          "time": 235.375,
          "velocity": 0.6299212598425197
        },
        {
          "duration": 0.4739583333333428,
          "durationTicks": 455,
          "midi": 81,
          "name": "A5",
          "ticks": 226200,
          "time": 235.625,
          "velocity": 0.6299212598425197
        },
        {
          "duration": 0.23645833333333144,
          "durationTicks": 227,
          "midi": 81,
          "name": "A5",
          "ticks": 226680,
          "time": 236.125,
          "velocity": 0.6299212598425197
        },
        {
          "duration": 0.23645833333333144,
          "durationTicks": 227,
          "midi": 84,
          "name": "C6",
          "ticks": 226920,
          "time": 236.375,
          "velocity": 0.6299212598425197
        },
        {
          "duration": 0.23645833333333144,
          "durationTicks": 227,
          "midi": 79,
          "name": "G5",
          "ticks": 227160,
          "time": 236.625,
          "velocity": 0.6299212598425197
        },
        {
          "duration": 0.23645833333333144,
          "durationTicks": 227,
          "midi": 83,
          "name": "B5",
          "ticks": 227160,
          "time": 236.625,
          "velocity": 0.6299212598425197
        },
        {
          "duration": 0.23645833333333144,
          "durationTicks": 227,
          "midi": 86,
          "name": "D6",
          "ticks": 227160,
          "time": 236.625,
          "velocity": 0.6299212598425197
        },
        {
          "duration": 0.4739583333333428,
          "durationTicks": 455,
          "midi": 79,
          "name": "G5",
          "ticks": 227400,
          "time": 236.875,
          "velocity": 0.6299212598425197
        },
        {
          "duration": 0.4739583333333428,
          "durationTicks": 455,
          "midi": 83,
          "name": "B5",
          "ticks": 227400,
          "time": 236.875,
          "velocity": 0.6299212598425197
        },
        {
          "duration": 0.4739583333333428,
          "durationTicks": 455,
          "midi": 86,
          "name": "D6",
          "ticks": 227400,
          "time": 236.875,
          "velocity": 0.6299212598425197
        },
        {
          "duration": 0.23645833333333144,
          "durationTicks": 227,
          "midi": 79,
          "name": "G5",
          "ticks": 227880,
          "time": 237.375,
          "velocity": 0.6299212598425197
        },
        {
          "duration": 0.23645833333333144,
          "durationTicks": 227,
          "midi": 83,
          "name": "B5",
          "ticks": 227880,
          "time": 237.375,
          "velocity": 0.6299212598425197
        },
        {
          "duration": 0.23645833333333144,
          "durationTicks": 227,
          "midi": 86,
          "name": "D6",
          "ticks": 227880,
          "time": 237.375,
          "velocity": 0.6299212598425197
        },
        {
          "duration": 0.4739583333333428,
          "durationTicks": 455,
          "midi": 83,
          "name": "B5",
          "ticks": 228120,
          "time": 237.625,
          "velocity": 0.6299212598425197
        },
        {
          "duration": 0.4739583333333428,
          "durationTicks": 455,
          "midi": 86,
          "name": "D6",
          "ticks": 228120,
          "time": 237.625,
          "velocity": 0.6299212598425197
        },
        {
          "duration": 0.4739583333333428,
          "durationTicks": 455,
          "midi": 89,
          "name": "F6",
          "ticks": 228120,
          "time": 237.625,
          "velocity": 0.6299212598425197
        },
        {
          "duration": 0.4739583333333428,
          "durationTicks": 455,
          "midi": 83,
          "name": "B5",
          "ticks": 228600,
          "time": 238.125,
          "velocity": 0.6299212598425197
        },
        {
          "duration": 0.4739583333333428,
          "durationTicks": 455,
          "midi": 86,
          "name": "D6",
          "ticks": 228600,
          "time": 238.125,
          "velocity": 0.6299212598425197
        },
        {
          "duration": 0.4739583333333428,
          "durationTicks": 455,
          "midi": 91,
          "name": "G6",
          "ticks": 228600,
          "time": 238.125,
          "velocity": 0.6299212598425197
        },
        {
          "duration": 0,
          "durationTicks": 0,
          "midi": 81,
          "name": "A5",
          "ticks": 229080,
          "time": 238.625,
          "velocity": 0.6299212598425197
        },
        {
          "duration": 0.23645833333333144,
          "durationTicks": 227,
          "midi": 81,
          "name": "A5",
          "ticks": 229080,
          "time": 238.625,
          "velocity": 0.6299212598425197
        },
        {
          "duration": 0.23645833333333144,
          "durationTicks": 227,
          "midi": 85,
          "name": "C#6",
          "ticks": 229080,
          "time": 238.625,
          "velocity": 0.6299212598425197
        },
        {
          "duration": 0.23645833333333144,
          "durationTicks": 227,
          "midi": 88,
          "name": "E6",
          "ticks": 229080,
          "time": 238.625,
          "velocity": 0.6299212598425197
        },
        {
          "duration": 0.23645833333333144,
          "durationTicks": 227,
          "midi": 85,
          "name": "C#6",
          "ticks": 229320,
          "time": 238.875,
          "velocity": 0.6299212598425197
        },
        {
          "duration": 0.23645833333333144,
          "durationTicks": 227,
          "midi": 88,
          "name": "E6",
          "ticks": 229560,
          "time": 239.125,
          "velocity": 0.6299212598425197
        },
        {
          "duration": 0.23645833333333144,
          "durationTicks": 227,
          "midi": 93,
          "name": "A6",
          "ticks": 229800,
          "time": 239.375,
          "velocity": 0.6299212598425197
        },
        {
          "duration": 0.23645833333333144,
          "durationTicks": 227,
          "midi": 97,
          "name": "C#7",
          "ticks": 230040,
          "time": 239.625,
          "velocity": 0.6299212598425197
        },
        {
          "duration": 0.23645833333333144,
          "durationTicks": 227,
          "midi": 100,
          "name": "E7",
          "ticks": 230280,
          "time": 239.875,
          "velocity": 0.6299212598425197
        },
        {
          "duration": 0.23645833333333144,
          "durationTicks": 227,
          "midi": 82,
          "name": "A#5",
          "ticks": 230520,
          "time": 240.125,
          "velocity": 0.6299212598425197
        },
        {
          "duration": 0.23645833333333144,
          "durationTicks": 227,
          "midi": 105,
          "name": "A7",
          "ticks": 230520,
          "time": 240.125,
          "velocity": 0.6299212598425197
        },
        {
          "duration": 0.23645833333333144,
          "durationTicks": 227,
          "midi": 86,
          "name": "D6",
          "ticks": 230760,
          "time": 240.375,
          "velocity": 0.6299212598425197
        },
        {
          "duration": 0.3552083333333371,
          "durationTicks": 341,
          "midi": 81,
          "name": "A5",
          "ticks": 231000,
          "time": 240.625,
          "velocity": 0.6299212598425197
        },
        {
          "duration": 0.3552083333333371,
          "durationTicks": 341,
          "midi": 86,
          "name": "D6",
          "ticks": 231000,
          "time": 240.625,
          "velocity": 0.6299212598425197
        },
        {
          "duration": 0.3552083333333371,
          "durationTicks": 341,
          "midi": 91,
          "name": "G6",
          "ticks": 231000,
          "time": 240.625,
          "velocity": 0.6299212598425197
        },
        {
          "duration": 0.3552083333333371,
          "durationTicks": 341,
          "midi": 81,
          "name": "A5",
          "ticks": 231360,
          "time": 241,
          "velocity": 0.6299212598425197
        },
        {
          "duration": 0.3552083333333371,
          "durationTicks": 341,
          "midi": 86,
          "name": "D6",
          "ticks": 231360,
          "time": 241,
          "velocity": 0.6299212598425197
        },
        {
          "duration": 0.3552083333333371,
          "durationTicks": 341,
          "midi": 91,
          "name": "G6",
          "ticks": 231360,
          "time": 241,
          "velocity": 0.6299212598425197
        },
        {
          "duration": 0.23645833333333144,
          "durationTicks": 227,
          "midi": 81,
          "name": "A5",
          "ticks": 231720,
          "time": 241.375,
          "velocity": 0.6299212598425197
        },
        {
          "duration": 0.23645833333333144,
          "durationTicks": 227,
          "midi": 86,
          "name": "D6",
          "ticks": 231720,
          "time": 241.375,
          "velocity": 0.6299212598425197
        },
        {
          "duration": 0.23645833333333144,
          "durationTicks": 227,
          "midi": 93,
          "name": "A6",
          "ticks": 231720,
          "time": 241.375,
          "velocity": 0.6299212598425197
        },
        {
          "duration": 0.7114583333333258,
          "durationTicks": 683,
          "midi": 81,
          "name": "A5",
          "ticks": 231960,
          "time": 241.625,
          "velocity": 0.6299212598425197
        },
        {
          "duration": 0.7114583333333258,
          "durationTicks": 683,
          "midi": 86,
          "name": "D6",
          "ticks": 231960,
          "time": 241.625,
          "velocity": 0.6299212598425197
        },
        {
          "duration": 0.7114583333333258,
          "durationTicks": 683,
          "midi": 93,
          "name": "A6",
          "ticks": 231960,
          "time": 241.625,
          "velocity": 0.6299212598425197
        },
        {
          "duration": 0.23645833333333144,
          "durationTicks": 227,
          "midi": 81,
          "name": "A5",
          "ticks": 232680,
          "time": 242.375,
          "velocity": 0.6299212598425197
        },
        {
          "duration": 0.23645833333333144,
          "durationTicks": 227,
          "midi": 86,
          "name": "D6",
          "ticks": 232680,
          "time": 242.375,
          "velocity": 0.6299212598425197
        },
        {
          "duration": 0.23645833333333144,
          "durationTicks": 227,
          "midi": 93,
          "name": "A6",
          "ticks": 232680,
          "time": 242.375,
          "velocity": 0.6299212598425197
        },
        {
          "duration": 0.23645833333333144,
          "durationTicks": 227,
          "midi": 88,
          "name": "E6",
          "ticks": 232920,
          "time": 242.625,
          "velocity": 0.6299212598425197
        },
        {
          "duration": 0.23645833333333144,
          "durationTicks": 227,
          "midi": 96,
          "name": "C7",
          "ticks": 232920,
          "time": 242.625,
          "velocity": 0.6299212598425197
        },
        {
          "duration": 0.23645833333333144,
          "durationTicks": 227,
          "midi": 98,
          "name": "D7",
          "ticks": 233160,
          "time": 242.875,
          "velocity": 0.6299212598425197
        },
        {
          "duration": 0.23645833333333144,
          "durationTicks": 227,
          "midi": 91,
          "name": "G6",
          "ticks": 233400,
          "time": 243.125,
          "velocity": 0.6299212598425197
        },
        {
          "duration": 0.23645833333333144,
          "durationTicks": 227,
          "midi": 89,
          "name": "F6",
          "ticks": 233640,
          "time": 243.375,
          "velocity": 0.6299212598425197
        },
        {
          "duration": 0.23645833333333144,
          "durationTicks": 227,
          "midi": 84,
          "name": "C6",
          "ticks": 233880,
          "time": 243.625,
          "velocity": 0.6299212598425197
        },
        {
          "duration": 0.23645833333333144,
          "durationTicks": 227,
          "midi": 89,
          "name": "F6",
          "ticks": 233880,
          "time": 243.625,
          "velocity": 0.6299212598425197
        },
        {
          "duration": 0.23645833333333144,
          "durationTicks": 227,
          "midi": 93,
          "name": "A6",
          "ticks": 233880,
          "time": 243.625,
          "velocity": 0.6299212598425197
        },
        {
          "duration": 0.23645833333333144,
          "durationTicks": 227,
          "midi": 96,
          "name": "C7",
          "ticks": 234120,
          "time": 243.875,
          "velocity": 0.6299212598425197
        },
        {
          "duration": 0.23645833333333144,
          "durationTicks": 227,
          "midi": 86,
          "name": "D6",
          "ticks": 234360,
          "time": 244.125,
          "velocity": 0.6299212598425197
        },
        {
          "duration": 0.23645833333333144,
          "durationTicks": 227,
          "midi": 89,
          "name": "F6",
          "ticks": 234600,
          "time": 244.375,
          "velocity": 0.6299212598425197
        },
        {
          "duration": 0.3552083333333371,
          "durationTicks": 341,
          "midi": 86,
          "name": "D6",
          "ticks": 234840,
          "time": 244.625,
          "velocity": 0.6299212598425197
        },
        {
          "duration": 0.3552083333333371,
          "durationTicks": 341,
          "midi": 91,
          "name": "G6",
          "ticks": 234840,
          "time": 244.625,
          "velocity": 0.6299212598425197
        },
        {
          "duration": 0.3552083333333371,
          "durationTicks": 341,
          "midi": 86,
          "name": "D6",
          "ticks": 235200,
          "time": 245,
          "velocity": 0.6299212598425197
        },
        {
          "duration": 0.3552083333333371,
          "durationTicks": 341,
          "midi": 91,
          "name": "G6",
          "ticks": 235200,
          "time": 245,
          "velocity": 0.6299212598425197
        },
        {
          "duration": 0.23645833333333144,
          "durationTicks": 227,
          "midi": 86,
          "name": "D6",
          "ticks": 235560,
          "time": 245.375,
          "velocity": 0.6299212598425197
        },
        {
          "duration": 0.23645833333333144,
          "durationTicks": 227,
          "midi": 89,
          "name": "F6",
          "ticks": 235560,
          "time": 245.375,
          "velocity": 0.6299212598425197
        },
        {
          "duration": 0.23645833333333144,
          "durationTicks": 227,
          "midi": 93,
          "name": "A6",
          "ticks": 235560,
          "time": 245.375,
          "velocity": 0.6299212598425197
        },
        {
          "duration": 0.7114583333333258,
          "durationTicks": 683,
          "midi": 86,
          "name": "D6",
          "ticks": 235800,
          "time": 245.625,
          "velocity": 0.6299212598425197
        },
        {
          "duration": 0.7114583333333258,
          "durationTicks": 683,
          "midi": 89,
          "name": "F6",
          "ticks": 235800,
          "time": 245.625,
          "velocity": 0.6299212598425197
        },
        {
          "duration": 0.7114583333333258,
          "durationTicks": 683,
          "midi": 93,
          "name": "A6",
          "ticks": 235800,
          "time": 245.625,
          "velocity": 0.6299212598425197
        },
        {
          "duration": 0.23645833333333144,
          "durationTicks": 227,
          "midi": 86,
          "name": "D6",
          "ticks": 236520,
          "time": 246.375,
          "velocity": 0.6299212598425197
        },
        {
          "duration": 0.23645833333333144,
          "durationTicks": 227,
          "midi": 89,
          "name": "F6",
          "ticks": 236520,
          "time": 246.375,
          "velocity": 0.6299212598425197
        },
        {
          "duration": 0.23645833333333144,
          "durationTicks": 227,
          "midi": 93,
          "name": "A6",
          "ticks": 236520,
          "time": 246.375,
          "velocity": 0.6299212598425197
        },
        {
          "duration": 0.23645833333333144,
          "durationTicks": 227,
          "midi": 84,
          "name": "C6",
          "ticks": 236760,
          "time": 246.625,
          "velocity": 0.6299212598425197
        },
        {
          "duration": 0.23645833333333144,
          "durationTicks": 227,
          "midi": 94,
          "name": "A#6",
          "ticks": 236760,
          "time": 246.625,
          "velocity": 0.6299212598425197
        },
        {
          "duration": 0.23645833333333144,
          "durationTicks": 227,
          "midi": 84,
          "name": "C6",
          "ticks": 237000,
          "time": 246.875,
          "velocity": 0.6299212598425197
        },
        {
          "duration": 0.23645833333333144,
          "durationTicks": 227,
          "midi": 93,
          "name": "A6",
          "ticks": 237000,
          "time": 246.875,
          "velocity": 0.6299212598425197
        },
        {
          "duration": 0.23645833333333144,
          "durationTicks": 227,
          "midi": 81,
          "name": "A5",
          "ticks": 237240,
          "time": 247.125,
          "velocity": 0.6299212598425197
        },
        {
          "duration": 0.23645833333333144,
          "durationTicks": 227,
          "midi": 91,
          "name": "G6",
          "ticks": 237240,
          "time": 247.125,
          "velocity": 0.6299212598425197
        },
        {
          "duration": 0.23645833333333144,
          "durationTicks": 227,
          "midi": 77,
          "name": "F5",
          "ticks": 237480,
          "time": 247.375,
          "velocity": 0.6299212598425197
        },
        {
          "duration": 0.23645833333333144,
          "durationTicks": 227,
          "midi": 89,
          "name": "F6",
          "ticks": 237480,
          "time": 247.375,
          "velocity": 0.6299212598425197
        },
        {
          "duration": 0.4739583333333428,
          "durationTicks": 455,
          "midi": 84,
          "name": "C6",
          "ticks": 237720,
          "time": 247.625,
          "velocity": 0.6299212598425197
        },
        {
          "duration": 0.4739583333333428,
          "durationTicks": 455,
          "midi": 89,
          "name": "F6",
          "ticks": 237720,
          "time": 247.625,
          "velocity": 0.6299212598425197
        },
        {
          "duration": 0.23645833333333144,
          "durationTicks": 227,
          "midi": 74,
          "name": "D5",
          "ticks": 238200,
          "time": 248.125,
          "velocity": 0.6299212598425197
        },
        {
          "duration": 0.23645833333333144,
          "durationTicks": 227,
          "midi": 77,
          "name": "F5",
          "ticks": 238440,
          "time": 248.375,
          "velocity": 0.6299212598425197
        },
        {
          "duration": 0.3552083333333371,
          "durationTicks": 341,
          "midi": 74,
          "name": "D5",
          "ticks": 238680,
          "time": 248.625,
          "velocity": 0.6299212598425197
        },
        {
          "duration": 0.3552083333333371,
          "durationTicks": 341,
          "midi": 79,
          "name": "G5",
          "ticks": 238680,
          "time": 248.625,
          "velocity": 0.6299212598425197
        },
        {
          "duration": 0.3552083333333371,
          "durationTicks": 341,
          "midi": 74,
          "name": "D5",
          "ticks": 239040,
          "time": 249,
          "velocity": 0.6299212598425197
        },
        {
          "duration": 0.3552083333333371,
          "durationTicks": 341,
          "midi": 79,
          "name": "G5",
          "ticks": 239040,
          "time": 249,
          "velocity": 0.6299212598425197
        },
        {
          "duration": 0.23645833333333144,
          "durationTicks": 227,
          "midi": 74,
          "name": "D5",
          "ticks": 239400,
          "time": 249.375,
          "velocity": 0.6299212598425197
        },
        {
          "duration": 0.23645833333333144,
          "durationTicks": 227,
          "midi": 77,
          "name": "F5",
          "ticks": 239400,
          "time": 249.375,
          "velocity": 0.6299212598425197
        },
        {
          "duration": 0.23645833333333144,
          "durationTicks": 227,
          "midi": 81,
          "name": "A5",
          "ticks": 239400,
          "time": 249.375,
          "velocity": 0.6299212598425197
        },
        {
          "duration": 0.7114583333333258,
          "durationTicks": 683,
          "midi": 74,
          "name": "D5",
          "ticks": 239640,
          "time": 249.625,
          "velocity": 0.6299212598425197
        },
        {
          "duration": 0.7114583333333258,
          "durationTicks": 683,
          "midi": 77,
          "name": "F5",
          "ticks": 239640,
          "time": 249.625,
          "velocity": 0.6299212598425197
        },
        {
          "duration": 0.7114583333333258,
          "durationTicks": 683,
          "midi": 81,
          "name": "A5",
          "ticks": 239640,
          "time": 249.625,
          "velocity": 0.6299212598425197
        },
        {
          "duration": 0.23645833333333144,
          "durationTicks": 227,
          "midi": 74,
          "name": "D5",
          "ticks": 240360,
          "time": 250.375,
          "velocity": 0.6299212598425197
        },
        {
          "duration": 0.23645833333333144,
          "durationTicks": 227,
          "midi": 77,
          "name": "F5",
          "ticks": 240360,
          "time": 250.375,
          "velocity": 0.6299212598425197
        },
        {
          "duration": 0.23645833333333144,
          "durationTicks": 227,
          "midi": 81,
          "name": "A5",
          "ticks": 240360,
          "time": 250.375,
          "velocity": 0.6299212598425197
        },
        {
          "duration": 0.23645833333333144,
          "durationTicks": 227,
          "midi": 76,
          "name": "E5",
          "ticks": 240600,
          "time": 250.625,
          "velocity": 0.6299212598425197
        },
        {
          "duration": 0.23645833333333144,
          "durationTicks": 227,
          "midi": 84,
          "name": "C6",
          "ticks": 240600,
          "time": 250.625,
          "velocity": 0.6299212598425197
        },
        {
          "duration": 0.23645833333333144,
          "durationTicks": 227,
          "midi": 81,
          "name": "A5",
          "ticks": 240840,
          "time": 250.875,
          "velocity": 0.6299212598425197
        },
        {
          "duration": 0.23645833333333144,
          "durationTicks": 227,
          "midi": 86,
          "name": "D6",
          "ticks": 240840,
          "time": 250.875,
          "velocity": 0.6299212598425197
        },
        {
          "duration": 0.23645833333333144,
          "durationTicks": 227,
          "midi": 79,
          "name": "G5",
          "ticks": 241080,
          "time": 251.125,
          "velocity": 0.6299212598425197
        },
        {
          "duration": 0.23645833333333144,
          "durationTicks": 227,
          "midi": 89,
          "name": "F6",
          "ticks": 241080,
          "time": 251.125,
          "velocity": 0.6299212598425197
        },
        {
          "duration": 0.23645833333333144,
          "durationTicks": 227,
          "midi": 77,
          "name": "F5",
          "ticks": 241320,
          "time": 251.375,
          "velocity": 0.6299212598425197
        },
        {
          "duration": 0.23645833333333144,
          "durationTicks": 227,
          "midi": 88,
          "name": "E6",
          "ticks": 241320,
          "time": 251.375,
          "velocity": 0.6299212598425197
        },
        {
          "duration": 0.4739583333333428,
          "durationTicks": 455,
          "midi": 72,
          "name": "C5",
          "ticks": 241560,
          "time": 251.625,
          "velocity": 0.6299212598425197
        },
        {
          "duration": 0.4739583333333428,
          "durationTicks": 455,
          "midi": 77,
          "name": "F5",
          "ticks": 241560,
          "time": 251.625,
          "velocity": 0.6299212598425197
        },
        {
          "duration": 0.4739583333333428,
          "durationTicks": 455,
          "midi": 81,
          "name": "A5",
          "ticks": 241560,
          "time": 251.625,
          "velocity": 0.6299212598425197
        },
        {
          "duration": 0.4739583333333428,
          "durationTicks": 455,
          "midi": 84,
          "name": "C6",
          "ticks": 241560,
          "time": 251.625,
          "velocity": 0.6299212598425197
        },
        {
          "duration": 0.23645833333333144,
          "durationTicks": 227,
          "midi": 74,
          "name": "D5",
          "ticks": 242040,
          "time": 252.125,
          "velocity": 0.6299212598425197
        },
        {
          "duration": 0.23645833333333144,
          "durationTicks": 227,
          "midi": 77,
          "name": "F5",
          "ticks": 242280,
          "time": 252.375,
          "velocity": 0.6299212598425197
        },
        {
          "duration": 0.4739583333333428,
          "durationTicks": 455,
          "midi": 74,
          "name": "D5",
          "ticks": 242520,
          "time": 252.625,
          "velocity": 0.6299212598425197
        },
        {
          "duration": 0.4739583333333428,
          "durationTicks": 455,
          "midi": 82,
          "name": "A#5",
          "ticks": 242520,
          "time": 252.625,
          "velocity": 0.6299212598425197
        },
        {
          "duration": 0.4739583333333428,
          "durationTicks": 455,
          "midi": 74,
          "name": "D5",
          "ticks": 243000,
          "time": 253.125,
          "velocity": 0.6299212598425197
        },
        {
          "duration": 0.4739583333333428,
          "durationTicks": 455,
          "midi": 81,
          "name": "A5",
          "ticks": 243000,
          "time": 253.125,
          "velocity": 0.6299212598425197
        },
        {
          "duration": 0.4739583333333428,
          "durationTicks": 455,
          "midi": 72,
          "name": "C5",
          "ticks": 243480,
          "time": 253.625,
          "velocity": 0.6299212598425197
        },
        {
          "duration": 0.4739583333333428,
          "durationTicks": 455,
          "midi": 76,
          "name": "E5",
          "ticks": 243480,
          "time": 253.625,
          "velocity": 0.6299212598425197
        },
        {
          "duration": 0.4739583333333428,
          "durationTicks": 455,
          "midi": 79,
          "name": "G5",
          "ticks": 243480,
          "time": 253.625,
          "velocity": 0.6299212598425197
        },
        {
          "duration": 0.4739583333333428,
          "durationTicks": 455,
          "midi": 72,
          "name": "C5",
          "ticks": 243960,
          "time": 254.125,
          "velocity": 0.6299212598425197
        },
        {
          "duration": 0.4739583333333428,
          "durationTicks": 455,
          "midi": 77,
          "name": "F5",
          "ticks": 243960,
          "time": 254.125,
          "velocity": 0.6299212598425197
        },
        {
          "duration": 0,
          "durationTicks": 0,
          "midi": 67,
          "name": "G4",
          "ticks": 244440,
          "time": 254.625,
          "velocity": 0.6299212598425197
        },
        {
          "duration": 0,
          "durationTicks": 0,
          "midi": 74,
          "name": "D5",
          "ticks": 244440,
          "time": 254.625,
          "velocity": 0.6299212598425197
        },
        {
          "duration": 0.23645833333333144,
          "durationTicks": 227,
          "midi": 79,
          "name": "G5",
          "ticks": 244440,
          "time": 254.625,
          "velocity": 0.6299212598425197
        },
        {
          "duration": 0,
          "durationTicks": 0,
          "midi": 81,
          "name": "A5",
          "ticks": 244680,
          "time": 254.875,
          "velocity": 0.6299212598425197
        },
        {
          "duration": 0,
          "durationTicks": 0,
          "midi": 67,
          "name": "G4",
          "ticks": 244920,
          "time": 255.125,
          "velocity": 0.6299212598425197
        },
        {
          "duration": 0,
          "durationTicks": 0,
          "midi": 74,
          "name": "D5",
          "ticks": 244920,
          "time": 255.125,
          "velocity": 0.6299212598425197
        },
        {
          "duration": 0.23645833333333144,
          "durationTicks": 227,
          "midi": 79,
          "name": "G5",
          "ticks": 244920,
          "time": 255.125,
          "velocity": 0.6299212598425197
        },
        {
          "duration": 0,
          "durationTicks": 0,
          "midi": 81,
          "name": "A5",
          "ticks": 245160,
          "time": 255.375,
          "velocity": 0.6299212598425197
        },
        {
          "duration": 0,
          "durationTicks": 0,
          "midi": 69,
          "name": "A4",
          "ticks": 245400,
          "time": 255.625,
          "velocity": 0.6299212598425197
        },
        {
          "duration": 0,
          "durationTicks": 0,
          "midi": 74,
          "name": "D5",
          "ticks": 245400,
          "time": 255.625,
          "velocity": 0.6299212598425197
        },
        {
          "duration": 0.4739583333333144,
          "durationTicks": 455,
          "midi": 81,
          "name": "A5",
          "ticks": 245400,
          "time": 255.625,
          "velocity": 0.6299212598425197
        },
        {
          "duration": 0,
          "durationTicks": 0,
          "midi": 64,
          "name": "E4",
          "ticks": 245880,
          "time": 256.125,
          "velocity": 0.6299212598425197
        },
        {
          "duration": 0.23645833333335986,
          "durationTicks": 227,
          "midi": 76,
          "name": "E5",
          "ticks": 245880,
          "time": 256.125,
          "velocity": 0.6299212598425197
        },
        {
          "duration": 0,
          "durationTicks": 0,
          "midi": 67,
          "name": "G4",
          "ticks": 246120,
          "time": 256.375,
          "velocity": 0.6299212598425197
        },
        {
          "duration": 0.23645833333335986,
          "durationTicks": 227,
          "midi": 79,
          "name": "G5",
          "ticks": 246120,
          "time": 256.375,
          "velocity": 0.6299212598425197
        },
        {
          "duration": 0.3552083333333371,
          "durationTicks": 341,
          "midi": 69,
          "name": "A4",
          "ticks": 246360,
          "time": 256.625,
          "velocity": 0.6299212598425197
        },
        {
          "duration": 0.3552083333333371,
          "durationTicks": 341,
          "midi": 76,
          "name": "E5",
          "ticks": 246360,
          "time": 256.625,
          "velocity": 0.6299212598425197
        },
        {
          "duration": 0.3552083333333371,
          "durationTicks": 341,
          "midi": 81,
          "name": "A5",
          "ticks": 246360,
          "time": 256.625,
          "velocity": 0.6299212598425197
        },
        {
          "duration": 0.11770833333332575,
          "durationTicks": 113,
          "midi": 69,
          "name": "A4",
          "ticks": 246720,
          "time": 257,
          "velocity": 0.6299212598425197
        },
        {
          "duration": 0.11770833333332575,
          "durationTicks": 113,
          "midi": 74,
          "name": "D5",
          "ticks": 246720,
          "time": 257,
          "velocity": 0.6299212598425197
        },
        {
          "duration": 0.3552083333333371,
          "durationTicks": 341,
          "midi": 81,
          "name": "A5",
          "ticks": 246720,
          "time": 257,
          "velocity": 0.6299212598425197
        },
        {
          "duration": 0.23645833333335986,
          "durationTicks": 227,
          "midi": 69,
          "name": "A4",
          "ticks": 246840,
          "time": 257.125,
          "velocity": 0.6299212598425197
        },
        {
          "duration": 0.23645833333335986,
          "durationTicks": 227,
          "midi": 74,
          "name": "D5",
          "ticks": 246840,
          "time": 257.125,
          "velocity": 0.6299212598425197
        },
        {
          "duration": 0.23645833333335986,
          "durationTicks": 227,
          "midi": 71,
          "name": "B4",
          "ticks": 247080,
          "time": 257.375,
          "velocity": 0.6299212598425197
        },
        {
          "duration": 0.23645833333335986,
          "durationTicks": 227,
          "midi": 83,
          "name": "B5",
          "ticks": 247080,
          "time": 257.375,
          "velocity": 0.6299212598425197
        },
        {
          "duration": 0.7114583333333258,
          "durationTicks": 683,
          "midi": 71,
          "name": "B4",
          "ticks": 247320,
          "time": 257.625,
          "velocity": 0.6299212598425197
        },
        {
          "duration": 0.7114583333333258,
          "durationTicks": 683,
          "midi": 83,
          "name": "B5",
          "ticks": 247320,
          "time": 257.625,
          "velocity": 0.6299212598425197
        },
        {
          "duration": 0.23645833333335986,
          "durationTicks": 227,
          "midi": 71,
          "name": "B4",
          "ticks": 248040,
          "time": 258.375,
          "velocity": 0.6299212598425197
        },
        {
          "duration": 0.23645833333335986,
          "durationTicks": 227,
          "midi": 83,
          "name": "B5",
          "ticks": 248040,
          "time": 258.375,
          "velocity": 0.6299212598425197
        },
        {
          "duration": 0,
          "durationTicks": 0,
          "midi": 74,
          "name": "D5",
          "ticks": 248280,
          "time": 258.625,
          "velocity": 0.6299212598425197
        },
        {
          "duration": 0.23645833333335986,
          "durationTicks": 227,
          "midi": 76,
          "name": "E5",
          "ticks": 248280,
          "time": 258.625,
          "velocity": 0.6299212598425197
        },
        {
          "duration": 0.23645833333335986,
          "durationTicks": 227,
          "midi": 77,
          "name": "F5",
          "ticks": 248280,
          "time": 258.625,
          "velocity": 0.6299212598425197
        },
        {
          "duration": 0.23645833333335986,
          "durationTicks": 227,
          "midi": 86,
          "name": "D6",
          "ticks": 248280,
          "time": 258.625,
          "velocity": 0.6299212598425197
        },
        {
          "duration": 0.23645833333335986,
          "durationTicks": 227,
          "midi": 88,
          "name": "E6",
          "ticks": 248520,
          "time": 258.875,
          "velocity": 0.6299212598425197
        },
        {
          "duration": 0.23645833333335986,
          "durationTicks": 227,
          "midi": 81,
          "name": "A5",
          "ticks": 248760,
          "time": 259.125,
          "velocity": 0.6299212598425197
        },
        {
          "duration": 0.23645833333335986,
          "durationTicks": 227,
          "midi": 79,
          "name": "G5",
          "ticks": 249000,
          "time": 259.375,
          "velocity": 0.6299212598425197
        },
        {
          "duration": 0.23645833333335986,
          "durationTicks": 227,
          "midi": 77,
          "name": "F5",
          "ticks": 249240,
          "time": 259.625,
          "velocity": 0.6299212598425197
        },
        {
          "duration": 0.23645833333335986,
          "durationTicks": 227,
          "midi": 81,
          "name": "A5",
          "ticks": 249240,
          "time": 259.625,
          "velocity": 0.6299212598425197
        },
        {
          "duration": 0.23645833333335986,
          "durationTicks": 227,
          "midi": 86,
          "name": "D6",
          "ticks": 249240,
          "time": 259.625,
          "velocity": 0.6299212598425197
        },
        {
          "duration": 0.11770833333332575,
          "durationTicks": 113,
          "midi": 91,
          "name": "G6",
          "ticks": 249480,
          "time": 259.875,
          "velocity": 0.6299212598425197
        },
        {
          "duration": 0.11770833333332575,
          "durationTicks": 113,
          "midi": 90,
          "name": "F#6",
          "ticks": 249600,
          "time": 260,
          "velocity": 0.6299212598425197
        },
        {
          "duration": 0.11770833333332575,
          "durationTicks": 113,
          "midi": 88,
          "name": "E6",
          "ticks": 249720,
          "time": 260.125,
          "velocity": 0.6299212598425197
        },
        {
          "duration": 0.11770833333332575,
          "durationTicks": 113,
          "midi": 76,
          "name": "E5",
          "ticks": 249840,
          "time": 260.25,
          "velocity": 0.6299212598425197
        },
        {
          "duration": 0.11770833333332575,
          "durationTicks": 113,
          "midi": 86,
          "name": "D6",
          "ticks": 249840,
          "time": 260.25,
          "velocity": 0.6299212598425197
        },
        {
          "duration": 0.11770833333332575,
          "durationTicks": 113,
          "midi": 83,
          "name": "B5",
          "ticks": 249960,
          "time": 260.375,
          "velocity": 0.6299212598425197
        },
        {
          "duration": 0.11770833333332575,
          "durationTicks": 113,
          "midi": 79,
          "name": "G5",
          "ticks": 250080,
          "time": 260.5,
          "velocity": 0.6299212598425197
        },
        {
          "duration": 0.3552083333333371,
          "durationTicks": 341,
          "midi": 69,
          "name": "A4",
          "ticks": 250200,
          "time": 260.625,
          "velocity": 0.6299212598425197
        },
        {
          "duration": 0.3552083333333371,
          "durationTicks": 341,
          "midi": 72,
          "name": "C5",
          "ticks": 250200,
          "time": 260.625,
          "velocity": 0.6299212598425197
        },
        {
          "duration": 0.3552083333333371,
          "durationTicks": 341,
          "midi": 81,
          "name": "A5",
          "ticks": 250200,
          "time": 260.625,
          "velocity": 0.6299212598425197
        },
        {
          "duration": 0.11770833333332575,
          "durationTicks": 113,
          "midi": 69,
          "name": "A4",
          "ticks": 250560,
          "time": 261,
          "velocity": 0.6299212598425197
        },
        {
          "duration": 0.11770833333332575,
          "durationTicks": 113,
          "midi": 74,
          "name": "D5",
          "ticks": 250560,
          "time": 261,
          "velocity": 0.6299212598425197
        },
        {
          "duration": 0.11770833333332575,
          "durationTicks": 113,
          "midi": 81,
          "name": "A5",
          "ticks": 250560,
          "time": 261,
          "velocity": 0.6299212598425197
        },
        {
          "duration": 0.23645833333335986,
          "durationTicks": 227,
          "midi": 69,
          "name": "A4",
          "ticks": 250680,
          "time": 261.125,
          "velocity": 0.6299212598425197
        },
        {
          "duration": 0.23645833333335986,
          "durationTicks": 227,
          "midi": 74,
          "name": "D5",
          "ticks": 250680,
          "time": 261.125,
          "velocity": 0.6299212598425197
        },
        {
          "duration": 0.23645833333335986,
          "durationTicks": 227,
          "midi": 81,
          "name": "A5",
          "ticks": 250680,
          "time": 261.125,
          "velocity": 0.6299212598425197
        },
        {
          "duration": 0.23645833333335986,
          "durationTicks": 227,
          "midi": 76,
          "name": "E5",
          "ticks": 250920,
          "time": 261.375,
          "velocity": 0.6299212598425197
        },
        {
          "duration": 0.23645833333335986,
          "durationTicks": 227,
          "midi": 81,
          "name": "A5",
          "ticks": 250920,
          "time": 261.375,
          "velocity": 0.6299212598425197
        },
        {
          "duration": 0.23645833333335986,
          "durationTicks": 227,
          "midi": 83,
          "name": "B5",
          "ticks": 250920,
          "time": 261.375,
          "velocity": 0.6299212598425197
        },
        {
          "duration": 0.11770833333332575,
          "durationTicks": 113,
          "midi": 76,
          "name": "E5",
          "ticks": 251160,
          "time": 261.625,
          "velocity": 0.6299212598425197
        },
        {
          "duration": 0.11770833333332575,
          "durationTicks": 113,
          "midi": 79,
          "name": "G5",
          "ticks": 251160,
          "time": 261.625,
          "velocity": 0.6299212598425197
        },
        {
          "duration": 0.11770833333332575,
          "durationTicks": 113,
          "midi": 83,
          "name": "B5",
          "ticks": 251160,
          "time": 261.625,
          "velocity": 0.6299212598425197
        },
        {
          "duration": 0.11770833333332575,
          "durationTicks": 113,
          "midi": 79,
          "name": "G5",
          "ticks": 251280,
          "time": 261.75,
          "velocity": 0.6299212598425197
        },
        {
          "duration": 0.11770833333332575,
          "durationTicks": 113,
          "midi": 81,
          "name": "A5",
          "ticks": 251400,
          "time": 261.875,
          "velocity": 0.6299212598425197
        },
        {
          "duration": 0.11770833333332575,
          "durationTicks": 113,
          "midi": 83,
          "name": "B5",
          "ticks": 251520,
          "time": 262,
          "velocity": 0.6299212598425197
        },
        {
          "duration": 0.11770833333332575,
          "durationTicks": 113,
          "midi": 79,
          "name": "G5",
          "ticks": 251640,
          "time": 262.125,
          "velocity": 0.6299212598425197
        },
        {
          "duration": 0.11770833333332575,
          "durationTicks": 113,
          "midi": 83,
          "name": "B5",
          "ticks": 251640,
          "time": 262.125,
          "velocity": 0.6299212598425197
        },
        {
          "duration": 0.11770833333332575,
          "durationTicks": 113,
          "midi": 86,
          "name": "D6",
          "ticks": 251640,
          "time": 262.125,
          "velocity": 0.6299212598425197
        },
        {
          "duration": 0.11770833333332575,
          "durationTicks": 113,
          "midi": 84,
          "name": "C6",
          "ticks": 251760,
          "time": 262.25,
          "velocity": 0.6299212598425197
        },
        {
          "duration": 0.11770833333332575,
          "durationTicks": 113,
          "midi": 83,
          "name": "B5",
          "ticks": 251880,
          "time": 262.375,
          "velocity": 0.6299212598425197
        },
        {
          "duration": 0.11770833333332575,
          "durationTicks": 113,
          "midi": 81,
          "name": "A5",
          "ticks": 252000,
          "time": 262.5,
          "velocity": 0.6299212598425197
        },
        {
          "duration": 0.23645833333335986,
          "durationTicks": 227,
          "midi": 74,
          "name": "D5",
          "ticks": 252120,
          "time": 262.625,
          "velocity": 0.6299212598425197
        },
        {
          "duration": 0.23645833333335986,
          "durationTicks": 227,
          "midi": 76,
          "name": "E5",
          "ticks": 252120,
          "time": 262.625,
          "velocity": 0.6299212598425197
        },
        {
          "duration": 0.23645833333335986,
          "durationTicks": 227,
          "midi": 77,
          "name": "F5",
          "ticks": 252120,
          "time": 262.625,
          "velocity": 0.6299212598425197
        },
        {
          "duration": 0.23645833333335986,
          "durationTicks": 227,
          "midi": 79,
          "name": "G5",
          "ticks": 252120,
          "time": 262.625,
          "velocity": 0.6299212598425197
        },
        {
          "duration": 0.23645833333335986,
          "durationTicks": 227,
          "midi": 84,
          "name": "C6",
          "ticks": 252120,
          "time": 262.625,
          "velocity": 0.6299212598425197
        },
        {
          "duration": 0.23645833333335986,
          "durationTicks": 227,
          "midi": 76,
          "name": "E5",
          "ticks": 252360,
          "time": 262.875,
          "velocity": 0.6299212598425197
        },
        {
          "duration": 0.23645833333335986,
          "durationTicks": 227,
          "midi": 83,
          "name": "B5",
          "ticks": 252360,
          "time": 262.875,
          "velocity": 0.6299212598425197
        },
        {
          "duration": 0.23645833333335986,
          "durationTicks": 227,
          "midi": 74,
          "name": "D5",
          "ticks": 252600,
          "time": 263.125,
          "velocity": 0.6299212598425197
        },
        {
          "duration": 0.23645833333335986,
          "durationTicks": 227,
          "midi": 81,
          "name": "A5",
          "ticks": 252600,
          "time": 263.125,
          "velocity": 0.6299212598425197
        },
        {
          "duration": 0.23645833333335986,
          "durationTicks": 227,
          "midi": 76,
          "name": "E5",
          "ticks": 252840,
          "time": 263.375,
          "velocity": 0.6299212598425197
        },
        {
          "duration": 0.23645833333335986,
          "durationTicks": 227,
          "midi": 79,
          "name": "G5",
          "ticks": 252840,
          "time": 263.375,
          "velocity": 0.6299212598425197
        },
        {
          "duration": 0.23645833333335986,
          "durationTicks": 227,
          "midi": 71,
          "name": "B4",
          "ticks": 253080,
          "time": 263.625,
          "velocity": 0.6299212598425197
        },
        {
          "duration": 0.23645833333335986,
          "durationTicks": 227,
          "midi": 74,
          "name": "D5",
          "ticks": 253080,
          "time": 263.625,
          "velocity": 0.6299212598425197
        },
        {
          "duration": 0.23645833333335986,
          "durationTicks": 227,
          "midi": 79,
          "name": "G5",
          "ticks": 253080,
          "time": 263.625,
          "velocity": 0.6299212598425197
        },
        {
          "duration": 0.23645833333335986,
          "durationTicks": 227,
          "midi": 81,
          "name": "A5",
          "ticks": 253080,
          "time": 263.625,
          "velocity": 0.6299212598425197
        },
        {
          "duration": 0.11770833333332575,
          "durationTicks": 113,
          "midi": 86,
          "name": "D6",
          "ticks": 253320,
          "time": 263.875,
          "velocity": 0.6299212598425197
        },
        {
          "duration": 0.11770833333332575,
          "durationTicks": 113,
          "midi": 88,
          "name": "E6",
          "ticks": 253440,
          "time": 264,
          "velocity": 0.6299212598425197
        },
        {
          "duration": 0.11770833333332575,
          "durationTicks": 113,
          "midi": 71,
          "name": "B4",
          "ticks": 253560,
          "time": 264.125,
          "velocity": 0.6299212598425197
        },
        {
          "duration": 0.11770833333332575,
          "durationTicks": 113,
          "midi": 74,
          "name": "D5",
          "ticks": 253560,
          "time": 264.125,
          "velocity": 0.6299212598425197
        },
        {
          "duration": 0.11770833333332575,
          "durationTicks": 113,
          "midi": 76,
          "name": "E5",
          "ticks": 253560,
          "time": 264.125,
          "velocity": 0.6299212598425197
        },
        {
          "duration": 0.11770833333332575,
          "durationTicks": 113,
          "midi": 91,
          "name": "G6",
          "ticks": 253560,
          "time": 264.125,
          "velocity": 0.6299212598425197
        },
        {
          "duration": 0.11770833333332575,
          "durationTicks": 113,
          "midi": 86,
          "name": "D6",
          "ticks": 253680,
          "time": 264.25,
          "velocity": 0.6299212598425197
        },
        {
          "duration": 0.11770833333332575,
          "durationTicks": 113,
          "midi": 84,
          "name": "C6",
          "ticks": 253800,
          "time": 264.375,
          "velocity": 0.6299212598425197
        },
        {
          "duration": 0.11770833333332575,
          "durationTicks": 113,
          "midi": 81,
          "name": "A5",
          "ticks": 253920,
          "time": 264.5,
          "velocity": 0.6299212598425197
        },
        {
          "duration": 0.11770833333332575,
          "durationTicks": 113,
          "midi": 79,
          "name": "G5",
          "ticks": 254040,
          "time": 264.625,
          "velocity": 0.6299212598425197
        },
        {
          "duration": 0.11770833333332575,
          "durationTicks": 113,
          "midi": 76,
          "name": "E5",
          "ticks": 254160,
          "time": 264.75,
          "velocity": 0.6299212598425197
        },
        {
          "duration": 0.3552083333333371,
          "durationTicks": 341,
          "midi": 71,
          "name": "B4",
          "ticks": 254280,
          "time": 264.875,
          "velocity": 0.6299212598425197
        },
        {
          "duration": 0.3552083333333371,
          "durationTicks": 341,
          "midi": 76,
          "name": "E5",
          "ticks": 254280,
          "time": 264.875,
          "velocity": 0.6299212598425197
        },
        {
          "duration": 0.3552083333333371,
          "durationTicks": 341,
          "midi": 81,
          "name": "A5",
          "ticks": 254280,
          "time": 264.875,
          "velocity": 0.6299212598425197
        },
        {
          "duration": 0.3552083333333371,
          "durationTicks": 341,
          "midi": 71,
          "name": "B4",
          "ticks": 254640,
          "time": 265.25,
          "velocity": 0.6299212598425197
        },
        {
          "duration": 0.3552083333333371,
          "durationTicks": 341,
          "midi": 76,
          "name": "E5",
          "ticks": 254640,
          "time": 265.25,
          "velocity": 0.6299212598425197
        },
        {
          "duration": 0.3552083333333371,
          "durationTicks": 341,
          "midi": 81,
          "name": "A5",
          "ticks": 254640,
          "time": 265.25,
          "velocity": 0.6299212598425197
        },
        {
          "duration": 0,
          "durationTicks": 0,
          "midi": 71,
          "name": "B4",
          "ticks": 255000,
          "time": 265.625,
          "velocity": 0.6299212598425197
        },
        {
          "duration": 0.23645833333335986,
          "durationTicks": 227,
          "midi": 76,
          "name": "E5",
          "ticks": 255000,
          "time": 265.625,
          "velocity": 0.6299212598425197
        },
        {
          "duration": 0.23645833333335986,
          "durationTicks": 227,
          "midi": 83,
          "name": "B5",
          "ticks": 255000,
          "time": 265.625,
          "velocity": 0.6299212598425197
        },
        {
          "duration": 0,
          "durationTicks": 0,
          "midi": 71,
          "name": "B4",
          "ticks": 255240,
          "time": 265.875,
          "velocity": 0.6299212598425197
        },
        {
          "duration": 0.11770833333332575,
          "durationTicks": 113,
          "midi": 76,
          "name": "E5",
          "ticks": 255240,
          "time": 265.875,
          "velocity": 0.6299212598425197
        },
        {
          "duration": 0.11770833333332575,
          "durationTicks": 113,
          "midi": 83,
          "name": "B5",
          "ticks": 255240,
          "time": 265.875,
          "velocity": 0.6299212598425197
        },
        {
          "duration": 0.11770833333332575,
          "durationTicks": 113,
          "midi": 81,
          "name": "A5",
          "ticks": 255360,
          "time": 266,
          "velocity": 0.6299212598425197
        },
        {
          "duration": 0.11770833333332575,
          "durationTicks": 113,
          "midi": 79,
          "name": "G5",
          "ticks": 255480,
          "time": 266.125,
          "velocity": 0.6299212598425197
        },
        {
          "duration": 0.11770833333332575,
          "durationTicks": 113,
          "midi": 81,
          "name": "A5",
          "ticks": 255600,
          "time": 266.25,
          "velocity": 0.6299212598425197
        },
        {
          "duration": 0.11770833333332575,
          "durationTicks": 113,
          "midi": 86,
          "name": "D6",
          "ticks": 255720,
          "time": 266.375,
          "velocity": 0.6299212598425197
        },
        {
          "duration": 0.11770833333332575,
          "durationTicks": 113,
          "midi": 83,
          "name": "B5",
          "ticks": 255840,
          "time": 266.5,
          "velocity": 0.6299212598425197
        },
        {
          "duration": 0,
          "durationTicks": 0,
          "midi": 71,
          "name": "B4",
          "ticks": 255960,
          "time": 266.625,
          "velocity": 0.6299212598425197
        },
        {
          "duration": 0.23645833333335986,
          "durationTicks": 227,
          "midi": 76,
          "name": "E5",
          "ticks": 255960,
          "time": 266.625,
          "velocity": 0.6299212598425197
        },
        {
          "duration": 0.23645833333335986,
          "durationTicks": 227,
          "midi": 83,
          "name": "B5",
          "ticks": 255960,
          "time": 266.625,
          "velocity": 0.6299212598425197
        },
        {
          "duration": 0,
          "durationTicks": 0,
          "midi": 74,
          "name": "D5",
          "ticks": 256200,
          "time": 266.875,
          "velocity": 0.6299212598425197
        },
        {
          "duration": 0.23645833333335986,
          "durationTicks": 227,
          "midi": 76,
          "name": "E5",
          "ticks": 256200,
          "time": 266.875,
          "velocity": 0.6299212598425197
        },
        {
          "duration": 0.23645833333335986,
          "durationTicks": 227,
          "midi": 77,
          "name": "F5",
          "ticks": 256200,
          "time": 266.875,
          "velocity": 0.6299212598425197
        },
        {
          "duration": 0.23645833333335986,
          "durationTicks": 227,
          "midi": 79,
          "name": "G5",
          "ticks": 256200,
          "time": 266.875,
          "velocity": 0.6299212598425197
        },
        {
          "duration": 0.23645833333335986,
          "durationTicks": 227,
          "midi": 86,
          "name": "D6",
          "ticks": 256200,
          "time": 266.875,
          "velocity": 0.6299212598425197
        },
        {
          "duration": 0.23645833333335986,
          "durationTicks": 227,
          "midi": 88,
          "name": "E6",
          "ticks": 256440,
          "time": 267.125,
          "velocity": 0.6299212598425197
        },
        {
          "duration": 0.23645833333335986,
          "durationTicks": 227,
          "midi": 76,
          "name": "E5",
          "ticks": 256680,
          "time": 267.375,
          "velocity": 0.6299212598425197
        },
        {
          "duration": 0.23645833333335986,
          "durationTicks": 227,
          "midi": 81,
          "name": "A5",
          "ticks": 256680,
          "time": 267.375,
          "velocity": 0.6299212598425197
        },
        {
          "duration": 0.23645833333335986,
          "durationTicks": 227,
          "midi": 74,
          "name": "D5",
          "ticks": 256920,
          "time": 267.625,
          "velocity": 0.6299212598425197
        },
        {
          "duration": 0.23645833333335986,
          "durationTicks": 227,
          "midi": 79,
          "name": "G5",
          "ticks": 256920,
          "time": 267.625,
          "velocity": 0.6299212598425197
        },
        {
          "duration": 0.4739583333333144,
          "durationTicks": 455,
          "midi": 74,
          "name": "D5",
          "ticks": 257160,
          "time": 267.875,
          "velocity": 0.6299212598425197
        },
        {
          "duration": 0.4739583333333144,
          "durationTicks": 455,
          "midi": 79,
          "name": "G5",
          "ticks": 257160,
          "time": 267.875,
          "velocity": 0.6299212598425197
        },
        {
          "duration": 0.4739583333333144,
          "durationTicks": 455,
          "midi": 83,
          "name": "B5",
          "ticks": 257160,
          "time": 267.875,
          "velocity": 0.6299212598425197
        },
        {
          "duration": 0.23645833333335986,
          "durationTicks": 227,
          "midi": 76,
          "name": "E5",
          "ticks": 257640,
          "time": 268.375,
          "velocity": 0.6299212598425197
        },
        {
          "duration": 0.23645833333335986,
          "durationTicks": 227,
          "midi": 79,
          "name": "G5",
          "ticks": 257880,
          "time": 268.625,
          "velocity": 0.6299212598425197
        },
        {
          "duration": 0.11770833333332575,
          "durationTicks": 113,
          "midi": 76,
          "name": "E5",
          "ticks": 258120,
          "time": 268.875,
          "velocity": 0.6299212598425197
        },
        {
          "duration": 0,
          "durationTicks": 0,
          "midi": 79,
          "name": "G5",
          "ticks": 258120,
          "time": 268.875,
          "velocity": 0.6299212598425197
        },
        {
          "duration": 0.11770833333332575,
          "durationTicks": 113,
          "midi": 79,
          "name": "G5",
          "ticks": 258120,
          "time": 268.875,
          "velocity": 0.6299212598425197
        },
        {
          "duration": 0.11770833333332575,
          "durationTicks": 113,
          "midi": 84,
          "name": "C6",
          "ticks": 258120,
          "time": 268.875,
          "velocity": 0.6299212598425197
        },
        {
          "duration": 0.11770833333332575,
          "durationTicks": 113,
          "midi": 76,
          "name": "E5",
          "ticks": 258240,
          "time": 269,
          "velocity": 0.6299212598425197
        },
        {
          "duration": 0.11770833333332575,
          "durationTicks": 113,
          "midi": 71,
          "name": "B4",
          "ticks": 258360,
          "time": 269.125,
          "velocity": 0.6299212598425197
        },
        {
          "duration": 0.11770833333332575,
          "durationTicks": 113,
          "midi": 74,
          "name": "D5",
          "ticks": 258480,
          "time": 269.25,
          "velocity": 0.6299212598425197
        },
        {
          "duration": 0.11770833333332575,
          "durationTicks": 113,
          "midi": 76,
          "name": "E5",
          "ticks": 258600,
          "time": 269.375,
          "velocity": 0.6299212598425197
        },
        {
          "duration": 0.11770833333332575,
          "durationTicks": 113,
          "midi": 77,
          "name": "F5",
          "ticks": 258600,
          "time": 269.375,
          "velocity": 0.6299212598425197
        },
        {
          "duration": 0.11770833333332575,
          "durationTicks": 113,
          "midi": 79,
          "name": "G5",
          "ticks": 258600,
          "time": 269.375,
          "velocity": 0.6299212598425197
        },
        {
          "duration": 0.11770833333332575,
          "durationTicks": 113,
          "midi": 83,
          "name": "B5",
          "ticks": 258600,
          "time": 269.375,
          "velocity": 0.6299212598425197
        },
        {
          "duration": 0.11770833333332575,
          "durationTicks": 113,
          "midi": 74,
          "name": "D5",
          "ticks": 258720,
          "time": 269.5,
          "velocity": 0.6299212598425197
        },
        {
          "duration": 0.11770833333332575,
          "durationTicks": 113,
          "midi": 67,
          "name": "G4",
          "ticks": 258840,
          "time": 269.625,
          "velocity": 0.6299212598425197
        },
        {
          "duration": 0.11770833333332575,
          "durationTicks": 113,
          "midi": 69,
          "name": "A4",
          "ticks": 258960,
          "time": 269.75,
          "velocity": 0.6299212598425197
        },
        {
          "duration": 0.11770833333332575,
          "durationTicks": 113,
          "midi": 74,
          "name": "D5",
          "ticks": 259080,
          "time": 269.875,
          "velocity": 0.6299212598425197
        },
        {
          "duration": 0.11770833333332575,
          "durationTicks": 113,
          "midi": 77,
          "name": "F5",
          "ticks": 259080,
          "time": 269.875,
          "velocity": 0.6299212598425197
        },
        {
          "duration": 0.11770833333332575,
          "durationTicks": 113,
          "midi": 81,
          "name": "A5",
          "ticks": 259080,
          "time": 269.875,
          "velocity": 0.6299212598425197
        },
        {
          "duration": 0.11770833333332575,
          "durationTicks": 113,
          "midi": 67,
          "name": "G4",
          "ticks": 259200,
          "time": 270,
          "velocity": 0.6299212598425197
        },
        {
          "duration": 0.11770833333332575,
          "durationTicks": 113,
          "midi": 71,
          "name": "B4",
          "ticks": 259320,
          "time": 270.125,
          "velocity": 0.6299212598425197
        },
        {
          "duration": 0.11770833333332575,
          "durationTicks": 113,
          "midi": 64,
          "name": "E4",
          "ticks": 259440,
          "time": 270.25,
          "velocity": 0.6299212598425197
        },
        {
          "duration": 0.11770833333332575,
          "durationTicks": 113,
          "midi": 69,
          "name": "A4",
          "ticks": 259560,
          "time": 270.375,
          "velocity": 0.6299212598425197
        },
        {
          "duration": 0.11770833333332575,
          "durationTicks": 113,
          "midi": 74,
          "name": "D5",
          "ticks": 259560,
          "time": 270.375,
          "velocity": 0.6299212598425197
        },
        {
          "duration": 0.11770833333332575,
          "durationTicks": 113,
          "midi": 79,
          "name": "G5",
          "ticks": 259560,
          "time": 270.375,
          "velocity": 0.6299212598425197
        },
        {
          "duration": 0.11770833333332575,
          "durationTicks": 113,
          "midi": 71,
          "name": "B4",
          "ticks": 259680,
          "time": 270.5,
          "velocity": 0.6299212598425197
        },
        {
          "duration": 0.11770833333332575,
          "durationTicks": 113,
          "midi": 69,
          "name": "A4",
          "ticks": 259800,
          "time": 270.625,
          "velocity": 0.6299212598425197
        },
        {
          "duration": 0.11770833333332575,
          "durationTicks": 113,
          "midi": 62,
          "name": "D4",
          "ticks": 259920,
          "time": 270.75,
          "velocity": 0.6299212598425197
        },
        {
          "duration": 0,
          "durationTicks": 0,
          "midi": 64,
          "name": "E4",
          "ticks": 260040,
          "time": 270.875,
          "velocity": 0.6299212598425197
        },
        {
          "duration": 0.23645833333335986,
          "durationTicks": 227,
          "midi": 76,
          "name": "E5",
          "ticks": 260040,
          "time": 270.875,
          "velocity": 0.6299212598425197
        },
        {
          "duration": 0.23645833333335986,
          "durationTicks": 227,
          "midi": 81,
          "name": "A5",
          "ticks": 260040,
          "time": 270.875,
          "velocity": 0.6299212598425197
        },
        {
          "duration": 0.23645833333335986,
          "durationTicks": 227,
          "midi": 79,
          "name": "G5",
          "ticks": 260280,
          "time": 271.125,
          "velocity": 0.6299212598425197
        },
        {
          "duration": 0.23645833333335986,
          "durationTicks": 227,
          "midi": 83,
          "name": "B5",
          "ticks": 260520,
          "time": 271.375,
          "velocity": 0.6299212598425197
        },
        {
          "duration": 0.23645833333335986,
          "durationTicks": 227,
          "midi": 86,
          "name": "D6",
          "ticks": 260760,
          "time": 271.625,
          "velocity": 0.6299212598425197
        },
        {
          "duration": 0.23645833333335986,
          "durationTicks": 227,
          "midi": 79,
          "name": "G5",
          "ticks": 261000,
          "time": 271.875,
          "velocity": 0.6299212598425197
        },
        {
          "duration": 0.23645833333335986,
          "durationTicks": 227,
          "midi": 83,
          "name": "B5",
          "ticks": 261000,
          "time": 271.875,
          "velocity": 0.6299212598425197
        },
        {
          "duration": 0.23645833333335986,
          "durationTicks": 227,
          "midi": 88,
          "name": "E6",
          "ticks": 261000,
          "time": 271.875,
          "velocity": 0.6299212598425197
        },
        {
          "duration": 0.23645833333335986,
          "durationTicks": 227,
          "midi": 88,
          "name": "E6",
          "ticks": 261240,
          "time": 272.125,
          "velocity": 0.6299212598425197
        },
        {
          "duration": 0.23645833333335986,
          "durationTicks": 227,
          "midi": 64,
          "name": "E4",
          "ticks": 261480,
          "time": 272.375,
          "velocity": 0.6299212598425197
        },
        {
          "duration": 0.23645833333335986,
          "durationTicks": 227,
          "midi": 69,
          "name": "A4",
          "ticks": 261720,
          "time": 272.625,
          "velocity": 0.6299212598425197
        },
        {
          "duration": 0.23645833333335986,
          "durationTicks": 227,
          "midi": 74,
          "name": "D5",
          "ticks": 261720,
          "time": 272.625,
          "velocity": 0.6299212598425197
        },
        {
          "duration": 0.23645833333335986,
          "durationTicks": 227,
          "midi": 81,
          "name": "A5",
          "ticks": 261720,
          "time": 272.625,
          "velocity": 0.6299212598425197
        },
        {
          "duration": 0.23645833333335986,
          "durationTicks": 227,
          "midi": 71,
          "name": "B4",
          "ticks": 261960,
          "time": 272.875,
          "velocity": 0.6299212598425197
        },
        {
          "duration": 0.23645833333335986,
          "durationTicks": 227,
          "midi": 83,
          "name": "B5",
          "ticks": 261960,
          "time": 272.875,
          "velocity": 0.6299212598425197
        },
        {
          "duration": 0.11770833333332575,
          "durationTicks": 113,
          "midi": 76,
          "name": "E5",
          "ticks": 262200,
          "time": 273.125,
          "velocity": 0.6299212598425197
        },
        {
          "duration": 0.11770833333332575,
          "durationTicks": 113,
          "midi": 74,
          "name": "D5",
          "ticks": 262320,
          "time": 273.25,
          "velocity": 0.6299212598425197
        },
        {
          "duration": 0.11770833333332575,
          "durationTicks": 113,
          "midi": 76,
          "name": "E5",
          "ticks": 262440,
          "time": 273.375,
          "velocity": 0.6299212598425197
        },
        {
          "duration": 0.11770833333332575,
          "durationTicks": 113,
          "midi": 74,
          "name": "D5",
          "ticks": 262560,
          "time": 273.5,
          "velocity": 0.6299212598425197
        },
        {
          "duration": 0.23645833333335986,
          "durationTicks": 227,
          "midi": 69,
          "name": "A4",
          "ticks": 262680,
          "time": 273.625,
          "velocity": 0.6299212598425197
        },
        {
          "duration": 0.23645833333335986,
          "durationTicks": 227,
          "midi": 81,
          "name": "A5",
          "ticks": 262680,
          "time": 273.625,
          "velocity": 0.6299212598425197
        },
        {
          "duration": 0.23645833333335986,
          "durationTicks": 227,
          "midi": 71,
          "name": "B4",
          "ticks": 262920,
          "time": 273.875,
          "velocity": 0.6299212598425197
        },
        {
          "duration": 0.23645833333335986,
          "durationTicks": 227,
          "midi": 83,
          "name": "B5",
          "ticks": 262920,
          "time": 273.875,
          "velocity": 0.6299212598425197
        },
        {
          "duration": 0.11770833333332575,
          "durationTicks": 113,
          "midi": 76,
          "name": "E5",
          "ticks": 263160,
          "time": 274.125,
          "velocity": 0.6299212598425197
        },
        {
          "duration": 0.11770833333332575,
          "durationTicks": 113,
          "midi": 74,
          "name": "D5",
          "ticks": 263280,
          "time": 274.25,
          "velocity": 0.6299212598425197
        },
        {
          "duration": 0.11770833333332575,
          "durationTicks": 113,
          "midi": 76,
          "name": "E5",
          "ticks": 263400,
          "time": 274.375,
          "velocity": 0.6299212598425197
        },
        {
          "duration": 0.11770833333332575,
          "durationTicks": 113,
          "midi": 74,
          "name": "D5",
          "ticks": 263520,
          "time": 274.5,
          "velocity": 0.6299212598425197
        },
        {
          "duration": 0.23645833333335986,
          "durationTicks": 227,
          "midi": 69,
          "name": "A4",
          "ticks": 263640,
          "time": 274.625,
          "velocity": 0.6299212598425197
        },
        {
          "duration": 0.23645833333335986,
          "durationTicks": 227,
          "midi": 81,
          "name": "A5",
          "ticks": 263640,
          "time": 274.625,
          "velocity": 0.6299212598425197
        },
        {
          "duration": 0.23645833333335986,
          "durationTicks": 227,
          "midi": 71,
          "name": "B4",
          "ticks": 263880,
          "time": 274.875,
          "velocity": 0.6299212598425197
        },
        {
          "duration": 0.23645833333335986,
          "durationTicks": 227,
          "midi": 83,
          "name": "B5",
          "ticks": 263880,
          "time": 274.875,
          "velocity": 0.6299212598425197
        },
        {
          "duration": 0.11770833333332575,
          "durationTicks": 113,
          "midi": 76,
          "name": "E5",
          "ticks": 264120,
          "time": 275.125,
          "velocity": 0.6299212598425197
        },
        {
          "duration": 0.11770833333332575,
          "durationTicks": 113,
          "midi": 74,
          "name": "D5",
          "ticks": 264240,
          "time": 275.25,
          "velocity": 0.6299212598425197
        },
        {
          "duration": 0.11770833333332575,
          "durationTicks": 113,
          "midi": 76,
          "name": "E5",
          "ticks": 264360,
          "time": 275.375,
          "velocity": 0.6299212598425197
        },
        {
          "duration": 0.11770833333332575,
          "durationTicks": 113,
          "midi": 74,
          "name": "D5",
          "ticks": 264480,
          "time": 275.5,
          "velocity": 0.6299212598425197
        },
        {
          "duration": 0.23645833333335986,
          "durationTicks": 227,
          "midi": 74,
          "name": "D5",
          "ticks": 264600,
          "time": 275.625,
          "velocity": 0.6299212598425197
        },
        {
          "duration": 0.23645833333335986,
          "durationTicks": 227,
          "midi": 79,
          "name": "G5",
          "ticks": 264600,
          "time": 275.625,
          "velocity": 0.6299212598425197
        },
        {
          "duration": 0.11770833333332575,
          "durationTicks": 113,
          "midi": 78,
          "name": "F#5",
          "ticks": 264840,
          "time": 275.875,
          "velocity": 0.6299212598425197
        },
        {
          "duration": 0.11770833333332575,
          "durationTicks": 113,
          "midi": 79,
          "name": "G5",
          "ticks": 264960,
          "time": 276,
          "velocity": 0.6299212598425197
        },
        {
          "duration": 0.11770833333332575,
          "durationTicks": 113,
          "midi": 78,
          "name": "F#5",
          "ticks": 265080,
          "time": 276.125,
          "velocity": 0.6299212598425197
        },
        {
          "duration": 0.23645833333335986,
          "durationTicks": 227,
          "midi": 76,
          "name": "E5",
          "ticks": 265080,
          "time": 276.125,
          "velocity": 0.6299212598425197
        },
        {
          "duration": 0.23645833333335986,
          "durationTicks": 227,
          "midi": 74,
          "name": "D5",
          "ticks": 265320,
          "time": 276.375,
          "velocity": 0.6299212598425197
        },
        {
          "duration": 0.23645833333335986,
          "durationTicks": 227,
          "midi": 69,
          "name": "A4",
          "ticks": 265560,
          "time": 276.625,
          "velocity": 0.6299212598425197
        },
        {
          "duration": 0.23645833333335986,
          "durationTicks": 227,
          "midi": 74,
          "name": "D5",
          "ticks": 265560,
          "time": 276.625,
          "velocity": 0.6299212598425197
        },
        {
          "duration": 0.23645833333335986,
          "durationTicks": 227,
          "midi": 81,
          "name": "A5",
          "ticks": 265560,
          "time": 276.625,
          "velocity": 0.6299212598425197
        },
        {
          "duration": 0.23645833333335986,
          "durationTicks": 227,
          "midi": 71,
          "name": "B4",
          "ticks": 265800,
          "time": 276.875,
          "velocity": 0.6299212598425197
        },
        {
          "duration": 0.23645833333335986,
          "durationTicks": 227,
          "midi": 83,
          "name": "B5",
          "ticks": 265800,
          "time": 276.875,
          "velocity": 0.6299212598425197
        },
        {
          "duration": 0.11770833333332575,
          "durationTicks": 113,
          "midi": 76,
          "name": "E5",
          "ticks": 266040,
          "time": 277.125,
          "velocity": 0.6299212598425197
        },
        {
          "duration": 0.11770833333332575,
          "durationTicks": 113,
          "midi": 74,
          "name": "D5",
          "ticks": 266160,
          "time": 277.25,
          "velocity": 0.6299212598425197
        },
        {
          "duration": 0.11770833333332575,
          "durationTicks": 113,
          "midi": 76,
          "name": "E5",
          "ticks": 266280,
          "time": 277.375,
          "velocity": 0.6299212598425197
        },
        {
          "duration": 0.11770833333332575,
          "durationTicks": 113,
          "midi": 74,
          "name": "D5",
          "ticks": 266400,
          "time": 277.5,
          "velocity": 0.6299212598425197
        },
        {
          "duration": 0.23645833333335986,
          "durationTicks": 227,
          "midi": 69,
          "name": "A4",
          "ticks": 266520,
          "time": 277.625,
          "velocity": 0.6299212598425197
        },
        {
          "duration": 0.23645833333335986,
          "durationTicks": 227,
          "midi": 81,
          "name": "A5",
          "ticks": 266520,
          "time": 277.625,
          "velocity": 0.6299212598425197
        },
        {
          "duration": 0.23645833333335986,
          "durationTicks": 227,
          "midi": 71,
          "name": "B4",
          "ticks": 266760,
          "time": 277.875,
          "velocity": 0.6299212598425197
        },
        {
          "duration": 0.23645833333335986,
          "durationTicks": 227,
          "midi": 83,
          "name": "B5",
          "ticks": 266760,
          "time": 277.875,
          "velocity": 0.6299212598425197
        },
        {
          "duration": 0.11770833333332575,
          "durationTicks": 113,
          "midi": 76,
          "name": "E5",
          "ticks": 267000,
          "time": 278.125,
          "velocity": 0.6299212598425197
        },
        {
          "duration": 0.11770833333332575,
          "durationTicks": 113,
          "midi": 74,
          "name": "D5",
          "ticks": 267120,
          "time": 278.25,
          "velocity": 0.6299212598425197
        },
        {
          "duration": 0.11770833333332575,
          "durationTicks": 113,
          "midi": 76,
          "name": "E5",
          "ticks": 267240,
          "time": 278.375,
          "velocity": 0.6299212598425197
        },
        {
          "duration": 0.11770833333332575,
          "durationTicks": 113,
          "midi": 74,
          "name": "D5",
          "ticks": 267360,
          "time": 278.5,
          "velocity": 0.6299212598425197
        },
        {
          "duration": 0.23645833333335986,
          "durationTicks": 227,
          "midi": 76,
          "name": "E5",
          "ticks": 267480,
          "time": 278.625,
          "velocity": 0.6299212598425197
        },
        {
          "duration": 0.23645833333335986,
          "durationTicks": 227,
          "midi": 79,
          "name": "G5",
          "ticks": 267480,
          "time": 278.625,
          "velocity": 0.6299212598425197
        },
        {
          "duration": 0.23645833333335986,
          "durationTicks": 227,
          "midi": 81,
          "name": "A5",
          "ticks": 267480,
          "time": 278.625,
          "velocity": 0.6299212598425197
        },
        {
          "duration": 0.23645833333335986,
          "durationTicks": 227,
          "midi": 83,
          "name": "B5",
          "ticks": 267720,
          "time": 278.875,
          "velocity": 0.6299212598425197
        },
        {
          "duration": 0.23645833333335986,
          "durationTicks": 227,
          "midi": 86,
          "name": "D6",
          "ticks": 267960,
          "time": 279.125,
          "velocity": 0.6299212598425197
        },
        {
          "duration": 0.23645833333335986,
          "durationTicks": 227,
          "midi": 83,
          "name": "B5",
          "ticks": 268200,
          "time": 279.375,
          "velocity": 0.6299212598425197
        },
        {
          "duration": 0.23645833333335986,
          "durationTicks": 227,
          "midi": 91,
          "name": "G6",
          "ticks": 268200,
          "time": 279.375,
          "velocity": 0.6299212598425197
        },
        {
          "duration": 0.11770833333332575,
          "durationTicks": 113,
          "midi": 83,
          "name": "B5",
          "ticks": 268440,
          "time": 279.625,
          "velocity": 0.6299212598425197
        },
        {
          "duration": 0.11770833333332575,
          "durationTicks": 113,
          "midi": 90,
          "name": "F#6",
          "ticks": 268440,
          "time": 279.625,
          "velocity": 0.6299212598425197
        },
        {
          "duration": 0.11770833333332575,
          "durationTicks": 113,
          "midi": 91,
          "name": "G6",
          "ticks": 268560,
          "time": 279.75,
          "velocity": 0.6299212598425197
        },
        {
          "duration": 0.11770833333332575,
          "durationTicks": 113,
          "midi": 90,
          "name": "F#6",
          "ticks": 268680,
          "time": 279.875,
          "velocity": 0.6299212598425197
        },
        {
          "duration": 0.11770833333332575,
          "durationTicks": 113,
          "midi": 88,
          "name": "E6",
          "ticks": 268800,
          "time": 280,
          "velocity": 0.6299212598425197
        },
        {
          "duration": 0.23645833333335986,
          "durationTicks": 227,
          "midi": 86,
          "name": "D6",
          "ticks": 268920,
          "time": 280.125,
          "velocity": 0.6299212598425197
        },
        {
          "duration": 0.23645833333335986,
          "durationTicks": 227,
          "midi": 83,
          "name": "B5",
          "ticks": 269160,
          "time": 280.375,
          "velocity": 0.6299212598425197
        },
        {
          "duration": 0.23645833333335986,
          "durationTicks": 227,
          "midi": 69,
          "name": "A4",
          "ticks": 269400,
          "time": 280.625,
          "velocity": 0.6299212598425197
        },
        {
          "duration": 0.23645833333335986,
          "durationTicks": 227,
          "midi": 74,
          "name": "D5",
          "ticks": 269400,
          "time": 280.625,
          "velocity": 0.6299212598425197
        },
        {
          "duration": 0.23645833333335986,
          "durationTicks": 227,
          "midi": 81,
          "name": "A5",
          "ticks": 269400,
          "time": 280.625,
          "velocity": 0.6299212598425197
        },
        {
          "duration": 0.23645833333335986,
          "durationTicks": 227,
          "midi": 71,
          "name": "B4",
          "ticks": 269640,
          "time": 280.875,
          "velocity": 0.6299212598425197
        },
        {
          "duration": 0.23645833333335986,
          "durationTicks": 227,
          "midi": 83,
          "name": "B5",
          "ticks": 269640,
          "time": 280.875,
          "velocity": 0.6299212598425197
        },
        {
          "duration": 0.11770833333332575,
          "durationTicks": 113,
          "midi": 76,
          "name": "E5",
          "ticks": 269880,
          "time": 281.125,
          "velocity": 0.6299212598425197
        },
        {
          "duration": 0.11770833333332575,
          "durationTicks": 113,
          "midi": 74,
          "name": "D5",
          "ticks": 270000,
          "time": 281.25,
          "velocity": 0.6299212598425197
        },
        {
          "duration": 0.11770833333332575,
          "durationTicks": 113,
          "midi": 76,
          "name": "E5",
          "ticks": 270120,
          "time": 281.375,
          "velocity": 0.6299212598425197
        },
        {
          "duration": 0.11770833333332575,
          "durationTicks": 113,
          "midi": 74,
          "name": "D5",
          "ticks": 270240,
          "time": 281.5,
          "velocity": 0.6299212598425197
        },
        {
          "duration": 0.23645833333335986,
          "durationTicks": 227,
          "midi": 69,
          "name": "A4",
          "ticks": 270360,
          "time": 281.625,
          "velocity": 0.6299212598425197
        },
        {
          "duration": 0.23645833333335986,
          "durationTicks": 227,
          "midi": 81,
          "name": "A5",
          "ticks": 270360,
          "time": 281.625,
          "velocity": 0.6299212598425197
        },
        {
          "duration": 0.23645833333335986,
          "durationTicks": 227,
          "midi": 71,
          "name": "B4",
          "ticks": 270600,
          "time": 281.875,
          "velocity": 0.6299212598425197
        },
        {
          "duration": 0.23645833333335986,
          "durationTicks": 227,
          "midi": 83,
          "name": "B5",
          "ticks": 270600,
          "time": 281.875,
          "velocity": 0.6299212598425197
        },
        {
          "duration": 0.11770833333332575,
          "durationTicks": 113,
          "midi": 76,
          "name": "E5",
          "ticks": 270840,
          "time": 282.125,
          "velocity": 0.6299212598425197
        },
        {
          "duration": 0.11770833333332575,
          "durationTicks": 113,
          "midi": 74,
          "name": "D5",
          "ticks": 270960,
          "time": 282.25,
          "velocity": 0.6299212598425197
        },
        {
          "duration": 0.11770833333332575,
          "durationTicks": 113,
          "midi": 76,
          "name": "E5",
          "ticks": 271080,
          "time": 282.375,
          "velocity": 0.6299212598425197
        },
        {
          "duration": 0.11770833333332575,
          "durationTicks": 113,
          "midi": 74,
          "name": "D5",
          "ticks": 271200,
          "time": 282.5,
          "velocity": 0.6299212598425197
        },
        {
          "duration": 0.23645833333335986,
          "durationTicks": 227,
          "midi": 69,
          "name": "A4",
          "ticks": 271320,
          "time": 282.625,
          "velocity": 0.6299212598425197
        },
        {
          "duration": 0.23645833333335986,
          "durationTicks": 227,
          "midi": 81,
          "name": "A5",
          "ticks": 271320,
          "time": 282.625,
          "velocity": 0.6299212598425197
        },
        {
          "duration": 0.23645833333335986,
          "durationTicks": 227,
          "midi": 71,
          "name": "B4",
          "ticks": 271560,
          "time": 282.875,
          "velocity": 0.6299212598425197
        },
        {
          "duration": 0.23645833333335986,
          "durationTicks": 227,
          "midi": 83,
          "name": "B5",
          "ticks": 271560,
          "time": 282.875,
          "velocity": 0.6299212598425197
        },
        {
          "duration": 0.11770833333332575,
          "durationTicks": 113,
          "midi": 76,
          "name": "E5",
          "ticks": 271800,
          "time": 283.125,
          "velocity": 0.6299212598425197
        },
        {
          "duration": 0.11770833333332575,
          "durationTicks": 113,
          "midi": 74,
          "name": "D5",
          "ticks": 271920,
          "time": 283.25,
          "velocity": 0.6299212598425197
        },
        {
          "duration": 0.11770833333332575,
          "durationTicks": 113,
          "midi": 76,
          "name": "E5",
          "ticks": 272040,
          "time": 283.375,
          "velocity": 0.6299212598425197
        },
        {
          "duration": 0.11770833333332575,
          "durationTicks": 113,
          "midi": 74,
          "name": "D5",
          "ticks": 272160,
          "time": 283.5,
          "velocity": 0.6299212598425197
        },
        {
          "duration": 0.23645833333335986,
          "durationTicks": 227,
          "midi": 74,
          "name": "D5",
          "ticks": 272280,
          "time": 283.625,
          "velocity": 0.6299212598425197
        },
        {
          "duration": 0.23645833333335986,
          "durationTicks": 227,
          "midi": 79,
          "name": "G5",
          "ticks": 272280,
          "time": 283.625,
          "velocity": 0.6299212598425197
        },
        {
          "duration": 0.078125,
          "durationTicks": 75,
          "midi": 78,
          "name": "F#5",
          "ticks": 272520,
          "time": 283.875,
          "velocity": 0.6299212598425197
        },
        {
          "duration": 0.078125,
          "durationTicks": 75,
          "midi": 79,
          "name": "G5",
          "ticks": 272600,
          "time": 283.9583333333333,
          "velocity": 0.6299212598425197
        },
        {
          "duration": 0.078125,
          "durationTicks": 75,
          "midi": 78,
          "name": "F#5",
          "ticks": 272680,
          "time": 284.0416666666667,
          "velocity": 0.6299212598425197
        },
        {
          "duration": 0.23645833333335986,
          "durationTicks": 227,
          "midi": 76,
          "name": "E5",
          "ticks": 272760,
          "time": 284.125,
          "velocity": 0.6299212598425197
        },
        {
          "duration": 0.23645833333335986,
          "durationTicks": 227,
          "midi": 74,
          "name": "D5",
          "ticks": 273000,
          "time": 284.375,
          "velocity": 0.6299212598425197
        },
        {
          "duration": 0.23645833333335986,
          "durationTicks": 227,
          "midi": 76,
          "name": "E5",
          "ticks": 273240,
          "time": 284.625,
          "velocity": 0.6299212598425197
        },
        {
          "duration": 0.11770833333332575,
          "durationTicks": 113,
          "midi": 74,
          "name": "D5",
          "ticks": 273480,
          "time": 284.875,
          "velocity": 0.6299212598425197
        },
        {
          "duration": 0.11770833333332575,
          "durationTicks": 113,
          "midi": 76,
          "name": "E5",
          "ticks": 273600,
          "time": 285,
          "velocity": 0.6299212598425197
        },
        {
          "duration": 0.23645833333335986,
          "durationTicks": 227,
          "midi": 79,
          "name": "G5",
          "ticks": 273720,
          "time": 285.125,
          "velocity": 0.6299212598425197
        },
        {
          "duration": 0.11770833333332575,
          "durationTicks": 113,
          "midi": 76,
          "name": "E5",
          "ticks": 273960,
          "time": 285.375,
          "velocity": 0.6299212598425197
        },
        {
          "duration": 0.11770833333332575,
          "durationTicks": 113,
          "midi": 79,
          "name": "G5",
          "ticks": 274080,
          "time": 285.5,
          "velocity": 0.6299212598425197
        },
        {
          "duration": 0.23645833333335986,
          "durationTicks": 227,
          "midi": 81,
          "name": "A5",
          "ticks": 274200,
          "time": 285.625,
          "velocity": 0.6299212598425197
        },
        {
          "duration": 0.11770833333332575,
          "durationTicks": 113,
          "midi": 81,
          "name": "A5",
          "ticks": 274440,
          "time": 285.875,
          "velocity": 0.6299212598425197
        },
        {
          "duration": 0.11770833333332575,
          "durationTicks": 113,
          "midi": 83,
          "name": "B5",
          "ticks": 274560,
          "time": 286,
          "velocity": 0.6299212598425197
        },
        {
          "duration": 0.11770833333332575,
          "durationTicks": 113,
          "midi": 86,
          "name": "D6",
          "ticks": 274680,
          "time": 286.125,
          "velocity": 0.6299212598425197
        },
        {
          "duration": 0.11770833333332575,
          "durationTicks": 113,
          "midi": 91,
          "name": "G6",
          "ticks": 274800,
          "time": 286.25,
          "velocity": 0.6299212598425197
        },
        {
          "duration": 0.11770833333332575,
          "durationTicks": 113,
          "midi": 83,
          "name": "B5",
          "ticks": 274920,
          "time": 286.375,
          "velocity": 0.6299212598425197
        },
        {
          "duration": 0.11770833333332575,
          "durationTicks": 113,
          "midi": 86,
          "name": "D6",
          "ticks": 275040,
          "time": 286.5,
          "velocity": 0.6299212598425197
        },
        {
          "duration": 0.23645833333335986,
          "durationTicks": 227,
          "midi": 91,
          "name": "G6",
          "ticks": 275160,
          "time": 286.625,
          "velocity": 0.6299212598425197
        },
        {
          "duration": 0.11770833333332575,
          "durationTicks": 113,
          "midi": 90,
          "name": "F#6",
          "ticks": 275400,
          "time": 286.875,
          "velocity": 0.6299212598425197
        },
        {
          "duration": 0.11770833333332575,
          "durationTicks": 113,
          "midi": 91,
          "name": "G6",
          "ticks": 275520,
          "time": 287,
          "velocity": 0.6299212598425197
        },
        {
          "duration": 0.11770833333332575,
          "durationTicks": 113,
          "midi": 90,
          "name": "F#6",
          "ticks": 275640,
          "time": 287.125,
          "velocity": 0.6299212598425197
        },
        {
          "duration": 0.23645833333335986,
          "durationTicks": 227,
          "midi": 88,
          "name": "E6",
          "ticks": 275760,
          "time": 287.25,
          "velocity": 0.6299212598425197
        },
        {
          "duration": 0.23645833333335986,
          "durationTicks": 227,
          "midi": 86,
          "name": "D6",
          "ticks": 276000,
          "time": 287.5,
          "velocity": 0.6299212598425197
        },
        {
          "duration": 0.4739583333333144,
          "durationTicks": 455,
          "midi": 88,
          "name": "E6",
          "ticks": 276240,
          "time": 287.75,
          "velocity": 0.6299212598425197
        },
        {
          "duration": 0,
          "durationTicks": 0,
          "midi": 86,
          "name": "D6",
          "ticks": 276720,
          "time": 288.25,
          "velocity": 0.6299212598425197
        },
        {
          "duration": 0.4739583333333144,
          "durationTicks": 455,
          "midi": 86,
          "name": "D6",
          "ticks": 276720,
          "time": 288.25,
          "velocity": 0.6299212598425197
        },
        {
          "duration": 0.4739583333333144,
          "durationTicks": 455,
          "midi": 88,
          "name": "E6",
          "ticks": 276720,
          "time": 288.25,
          "velocity": 0.6299212598425197
        },
        {
          "duration": 0.23645833333335986,
          "durationTicks": 227,
          "midi": 81,
          "name": "A5",
          "ticks": 277200,
          "time": 288.75,
          "velocity": 0.6299212598425197
        },
        {
          "duration": 0.23645833333335986,
          "durationTicks": 227,
          "midi": 86,
          "name": "D6",
          "ticks": 277200,
          "time": 288.75,
          "velocity": 0.6299212598425197
        },
        {
          "duration": 0.23645833333335986,
          "durationTicks": 227,
          "midi": 93,
          "name": "A6",
          "ticks": 277200,
          "time": 288.75,
          "velocity": 0.6299212598425197
        },
        {
          "duration": 0.23645833333335986,
          "durationTicks": 227,
          "midi": 83,
          "name": "B5",
          "ticks": 277440,
          "time": 289,
          "velocity": 0.6299212598425197
        },
        {
          "duration": 0.23645833333335986,
          "durationTicks": 227,
          "midi": 95,
          "name": "B6",
          "ticks": 277440,
          "time": 289,
          "velocity": 0.6299212598425197
        },
        {
          "duration": 0.11770833333332575,
          "durationTicks": 113,
          "midi": 83,
          "name": "B5",
          "ticks": 277680,
          "time": 289.25,
          "velocity": 0.6299212598425197
        },
        {
          "duration": 0.11770833333332575,
          "durationTicks": 113,
          "midi": 88,
          "name": "E6",
          "ticks": 277680,
          "time": 289.25,
          "velocity": 0.6299212598425197
        },
        {
          "duration": 0.11770833333332575,
          "durationTicks": 113,
          "midi": 81,
          "name": "A5",
          "ticks": 277800,
          "time": 289.375,
          "velocity": 0.6299212598425197
        },
        {
          "duration": 0.11770833333332575,
          "durationTicks": 113,
          "midi": 86,
          "name": "D6",
          "ticks": 277800,
          "time": 289.375,
          "velocity": 0.6299212598425197
        },
        {
          "duration": 0.11770833333332575,
          "durationTicks": 113,
          "midi": 83,
          "name": "B5",
          "ticks": 277920,
          "time": 289.5,
          "velocity": 0.6299212598425197
        },
        {
          "duration": 0.11770833333332575,
          "durationTicks": 113,
          "midi": 88,
          "name": "E6",
          "ticks": 277920,
          "time": 289.5,
          "velocity": 0.6299212598425197
        },
        {
          "duration": 0.11770833333332575,
          "durationTicks": 113,
          "midi": 81,
          "name": "A5",
          "ticks": 278040,
          "time": 289.625,
          "velocity": 0.6299212598425197
        },
        {
          "duration": 0.11770833333332575,
          "durationTicks": 113,
          "midi": 86,
          "name": "D6",
          "ticks": 278040,
          "time": 289.625,
          "velocity": 0.6299212598425197
        },
        {
          "duration": 0.23645833333335986,
          "durationTicks": 227,
          "midi": 81,
          "name": "A5",
          "ticks": 278160,
          "time": 289.75,
          "velocity": 0.6299212598425197
        },
        {
          "duration": 0.23645833333335986,
          "durationTicks": 227,
          "midi": 93,
          "name": "A6",
          "ticks": 278160,
          "time": 289.75,
          "velocity": 0.6299212598425197
        },
        {
          "duration": 0.23645833333335986,
          "durationTicks": 227,
          "midi": 83,
          "name": "B5",
          "ticks": 278400,
          "time": 290,
          "velocity": 0.6299212598425197
        },
        {
          "duration": 0.23645833333335986,
          "durationTicks": 227,
          "midi": 95,
          "name": "B6",
          "ticks": 278400,
          "time": 290,
          "velocity": 0.6299212598425197
        },
        {
          "duration": 0.11770833333332575,
          "durationTicks": 113,
          "midi": 83,
          "name": "B5",
          "ticks": 278640,
          "time": 290.25,
          "velocity": 0.6299212598425197
        },
        {
          "duration": 0.11770833333332575,
          "durationTicks": 113,
          "midi": 88,
          "name": "E6",
          "ticks": 278640,
          "time": 290.25,
          "velocity": 0.6299212598425197
        },
        {
          "duration": 0.12395833333334849,
          "durationTicks": 119,
          "midi": 81,
          "name": "A5",
          "ticks": 278760,
          "time": 290.375,
          "velocity": 0.6299212598425197
        },
        {
          "duration": 0.08020833333335986,
          "durationTicks": 77,
          "midi": 86,
          "name": "D6",
          "ticks": 278802,
          "time": 290.41875,
          "velocity": 0.6299212598425197
        },
        {
          "duration": 0.11770833333332575,
          "durationTicks": 113,
          "midi": 83,
          "name": "B5",
          "ticks": 278880,
          "time": 290.5,
          "velocity": 0.6299212598425197
        },
        {
          "duration": 0.11770833333332575,
          "durationTicks": 113,
          "midi": 88,
          "name": "E6",
          "ticks": 278880,
          "time": 290.5,
          "velocity": 0.6299212598425197
        },
        {
          "duration": 0.11770833333332575,
          "durationTicks": 113,
          "midi": 81,
          "name": "A5",
          "ticks": 279000,
          "time": 290.625,
          "velocity": 0.6299212598425197
        },
        {
          "duration": 0.11770833333332575,
          "durationTicks": 113,
          "midi": 86,
          "name": "D6",
          "ticks": 279000,
          "time": 290.625,
          "velocity": 0.6299212598425197
        },
        {
          "duration": 0.23645833333335986,
          "durationTicks": 227,
          "midi": 81,
          "name": "A5",
          "ticks": 279120,
          "time": 290.75,
          "velocity": 0.6299212598425197
        },
        {
          "duration": 0.23645833333335986,
          "durationTicks": 227,
          "midi": 93,
          "name": "A6",
          "ticks": 279120,
          "time": 290.75,
          "velocity": 0.6299212598425197
        },
        {
          "duration": 0.23645833333335986,
          "durationTicks": 227,
          "midi": 83,
          "name": "B5",
          "ticks": 279360,
          "time": 291,
          "velocity": 0.6299212598425197
        },
        {
          "duration": 0.23645833333335986,
          "durationTicks": 227,
          "midi": 95,
          "name": "B6",
          "ticks": 279360,
          "time": 291,
          "velocity": 0.6299212598425197
        },
        {
          "duration": 0.11770833333332575,
          "durationTicks": 113,
          "midi": 83,
          "name": "B5",
          "ticks": 279600,
          "time": 291.25,
          "velocity": 0.6299212598425197
        },
        {
          "duration": 0.11770833333332575,
          "durationTicks": 113,
          "midi": 88,
          "name": "E6",
          "ticks": 279600,
          "time": 291.25,
          "velocity": 0.6299212598425197
        },
        {
          "duration": 0.11770833333332575,
          "durationTicks": 113,
          "midi": 81,
          "name": "A5",
          "ticks": 279720,
          "time": 291.375,
          "velocity": 0.6299212598425197
        },
        {
          "duration": 0.11770833333332575,
          "durationTicks": 113,
          "midi": 86,
          "name": "D6",
          "ticks": 279720,
          "time": 291.375,
          "velocity": 0.6299212598425197
        },
        {
          "duration": 0.11770833333332575,
          "durationTicks": 113,
          "midi": 83,
          "name": "B5",
          "ticks": 279840,
          "time": 291.5,
          "velocity": 0.6299212598425197
        },
        {
          "duration": 0.11770833333332575,
          "durationTicks": 113,
          "midi": 88,
          "name": "E6",
          "ticks": 279840,
          "time": 291.5,
          "velocity": 0.6299212598425197
        },
        {
          "duration": 0.11770833333332575,
          "durationTicks": 113,
          "midi": 81,
          "name": "A5",
          "ticks": 279960,
          "time": 291.625,
          "velocity": 0.6299212598425197
        },
        {
          "duration": 0.11770833333332575,
          "durationTicks": 113,
          "midi": 86,
          "name": "D6",
          "ticks": 279960,
          "time": 291.625,
          "velocity": 0.6299212598425197
        },
        {
          "duration": 0.23645833333335986,
          "durationTicks": 227,
          "midi": 91,
          "name": "G6",
          "ticks": 280080,
          "time": 291.75,
          "velocity": 0.6299212598425197
        },
        {
          "duration": 0.11770833333332575,
          "durationTicks": 113,
          "midi": 90,
          "name": "F#6",
          "ticks": 280320,
          "time": 292,
          "velocity": 0.6299212598425197
        },
        {
          "duration": 0.11770833333332575,
          "durationTicks": 113,
          "midi": 91,
          "name": "G6",
          "ticks": 280440,
          "time": 292.125,
          "velocity": 0.6299212598425197
        },
        {
          "duration": 0.11770833333332575,
          "durationTicks": 113,
          "midi": 90,
          "name": "F#6",
          "ticks": 280560,
          "time": 292.25,
          "velocity": 0.6299212598425197
        },
        {
          "duration": 0.23645833333335986,
          "durationTicks": 227,
          "midi": 88,
          "name": "E6",
          "ticks": 280560,
          "time": 292.25,
          "velocity": 0.6299212598425197
        },
        {
          "duration": 0.23645833333335986,
          "durationTicks": 227,
          "midi": 86,
          "name": "D6",
          "ticks": 280800,
          "time": 292.5,
          "velocity": 0.6299212598425197
        },
        {
          "duration": 0.23645833333335986,
          "durationTicks": 227,
          "midi": 81,
          "name": "A5",
          "ticks": 281040,
          "time": 292.75,
          "velocity": 0.6299212598425197
        },
        {
          "duration": 0.23645833333335986,
          "durationTicks": 227,
          "midi": 86,
          "name": "D6",
          "ticks": 281040,
          "time": 292.75,
          "velocity": 0.6299212598425197
        },
        {
          "duration": 0.23645833333335986,
          "durationTicks": 227,
          "midi": 93,
          "name": "A6",
          "ticks": 281040,
          "time": 292.75,
          "velocity": 0.6299212598425197
        },
        {
          "duration": 0.23645833333335986,
          "durationTicks": 227,
          "midi": 83,
          "name": "B5",
          "ticks": 281280,
          "time": 293,
          "velocity": 0.6299212598425197
        },
        {
          "duration": 0.23645833333335986,
          "durationTicks": 227,
          "midi": 95,
          "name": "B6",
          "ticks": 281280,
          "time": 293,
          "velocity": 0.6299212598425197
        },
        {
          "duration": 0.11770833333332575,
          "durationTicks": 113,
          "midi": 83,
          "name": "B5",
          "ticks": 281520,
          "time": 293.25,
          "velocity": 0.6299212598425197
        },
        {
          "duration": 0.11770833333332575,
          "durationTicks": 113,
          "midi": 88,
          "name": "E6",
          "ticks": 281520,
          "time": 293.25,
          "velocity": 0.6299212598425197
        },
        {
          "duration": 0.11770833333332575,
          "durationTicks": 113,
          "midi": 81,
          "name": "A5",
          "ticks": 281640,
          "time": 293.375,
          "velocity": 0.6299212598425197
        },
        {
          "duration": 0.11770833333332575,
          "durationTicks": 113,
          "midi": 86,
          "name": "D6",
          "ticks": 281640,
          "time": 293.375,
          "velocity": 0.6299212598425197
        },
        {
          "duration": 0.11770833333332575,
          "durationTicks": 113,
          "midi": 83,
          "name": "B5",
          "ticks": 281760,
          "time": 293.5,
          "velocity": 0.6299212598425197
        },
        {
          "duration": 0.11770833333332575,
          "durationTicks": 113,
          "midi": 88,
          "name": "E6",
          "ticks": 281760,
          "time": 293.5,
          "velocity": 0.6299212598425197
        },
        {
          "duration": 0.11770833333332575,
          "durationTicks": 113,
          "midi": 81,
          "name": "A5",
          "ticks": 281880,
          "time": 293.625,
          "velocity": 0.6299212598425197
        },
        {
          "duration": 0.11770833333332575,
          "durationTicks": 113,
          "midi": 86,
          "name": "D6",
          "ticks": 281880,
          "time": 293.625,
          "velocity": 0.6299212598425197
        },
        {
          "duration": 0.23645833333335986,
          "durationTicks": 227,
          "midi": 93,
          "name": "A6",
          "ticks": 282000,
          "time": 293.75,
          "velocity": 0.6299212598425197
        },
        {
          "duration": 0.23645833333335986,
          "durationTicks": 227,
          "midi": 95,
          "name": "B6",
          "ticks": 282240,
          "time": 294,
          "velocity": 0.6299212598425197
        },
        {
          "duration": 0.11770833333332575,
          "durationTicks": 113,
          "midi": 83,
          "name": "B5",
          "ticks": 282480,
          "time": 294.25,
          "velocity": 0.6299212598425197
        },
        {
          "duration": 0.11770833333332575,
          "durationTicks": 113,
          "midi": 88,
          "name": "E6",
          "ticks": 282480,
          "time": 294.25,
          "velocity": 0.6299212598425197
        },
        {
          "duration": 0.11770833333332575,
          "durationTicks": 113,
          "midi": 81,
          "name": "A5",
          "ticks": 282600,
          "time": 294.375,
          "velocity": 0.6299212598425197
        },
        {
          "duration": 0.11770833333332575,
          "durationTicks": 113,
          "midi": 86,
          "name": "D6",
          "ticks": 282600,
          "time": 294.375,
          "velocity": 0.6299212598425197
        },
        {
          "duration": 0.11770833333332575,
          "durationTicks": 113,
          "midi": 83,
          "name": "B5",
          "ticks": 282720,
          "time": 294.5,
          "velocity": 0.6299212598425197
        },
        {
          "duration": 0.11770833333332575,
          "durationTicks": 113,
          "midi": 88,
          "name": "E6",
          "ticks": 282720,
          "time": 294.5,
          "velocity": 0.6299212598425197
        },
        {
          "duration": 0.11770833333332575,
          "durationTicks": 113,
          "midi": 81,
          "name": "A5",
          "ticks": 282840,
          "time": 294.625,
          "velocity": 0.6299212598425197
        },
        {
          "duration": 0.11770833333332575,
          "durationTicks": 113,
          "midi": 86,
          "name": "D6",
          "ticks": 282840,
          "time": 294.625,
          "velocity": 0.6299212598425197
        },
        {
          "duration": 0.4739583333333144,
          "durationTicks": 455,
          "midi": 79,
          "name": "G5",
          "ticks": 282960,
          "time": 294.75,
          "velocity": 0.6299212598425197
        },
        {
          "duration": 0.4739583333333144,
          "durationTicks": 455,
          "midi": 81,
          "name": "A5",
          "ticks": 282960,
          "time": 294.75,
          "velocity": 0.6299212598425197
        },
        {
          "duration": 0.23645833333335986,
          "durationTicks": 227,
          "midi": 83,
          "name": "B5",
          "ticks": 283200,
          "time": 295,
          "velocity": 0.6299212598425197
        },
        {
          "duration": 0.23645833333335986,
          "durationTicks": 227,
          "midi": 76,
          "name": "E5",
          "ticks": 283440,
          "time": 295.25,
          "velocity": 0.6299212598425197
        },
        {
          "duration": 0.23645833333335986,
          "durationTicks": 227,
          "midi": 86,
          "name": "D6",
          "ticks": 283440,
          "time": 295.25,
          "velocity": 0.6299212598425197
        },
        {
          "duration": 0.23645833333335986,
          "durationTicks": 227,
          "midi": 83,
          "name": "B5",
          "ticks": 283680,
          "time": 295.5,
          "velocity": 0.6299212598425197
        },
        {
          "duration": 0.23645833333335986,
          "durationTicks": 227,
          "midi": 91,
          "name": "G6",
          "ticks": 283680,
          "time": 295.5,
          "velocity": 0.6299212598425197
        },
        {
          "duration": 0.11770833333332575,
          "durationTicks": 113,
          "midi": 83,
          "name": "B5",
          "ticks": 283920,
          "time": 295.75,
          "velocity": 0.6299212598425197
        },
        {
          "duration": 0.11770833333332575,
          "durationTicks": 113,
          "midi": 90,
          "name": "F#6",
          "ticks": 283920,
          "time": 295.75,
          "velocity": 0.6299212598425197
        },
        {
          "duration": 0.11770833333332575,
          "durationTicks": 113,
          "midi": 91,
          "name": "G6",
          "ticks": 284040,
          "time": 295.875,
          "velocity": 0.6299212598425197
        },
        {
          "duration": 0.11770833333332575,
          "durationTicks": 113,
          "midi": 90,
          "name": "F#6",
          "ticks": 284160,
          "time": 296,
          "velocity": 0.6299212598425197
        },
        {
          "duration": 0.11770833333332575,
          "durationTicks": 113,
          "midi": 88,
          "name": "E6",
          "ticks": 284280,
          "time": 296.125,
          "velocity": 0.6299212598425197
        },
        {
          "duration": 0.23645833333335986,
          "durationTicks": 227,
          "midi": 86,
          "name": "D6",
          "ticks": 284400,
          "time": 296.25,
          "velocity": 0.6299212598425197
        },
        {
          "duration": 0.23645833333335986,
          "durationTicks": 227,
          "midi": 83,
          "name": "B5",
          "ticks": 284640,
          "time": 296.5,
          "velocity": 0.6299212598425197
        },
        {
          "duration": 0.23645833333335986,
          "durationTicks": 227,
          "midi": 81,
          "name": "A5",
          "ticks": 284880,
          "time": 296.75,
          "velocity": 0.6299212598425197
        },
        {
          "duration": 0.23645833333335986,
          "durationTicks": 227,
          "midi": 86,
          "name": "D6",
          "ticks": 284880,
          "time": 296.75,
          "velocity": 0.6299212598425197
        },
        {
          "duration": 0.23645833333335986,
          "durationTicks": 227,
          "midi": 93,
          "name": "A6",
          "ticks": 284880,
          "time": 296.75,
          "velocity": 0.6299212598425197
        },
        {
          "duration": 0.23645833333335986,
          "durationTicks": 227,
          "midi": 83,
          "name": "B5",
          "ticks": 285120,
          "time": 297,
          "velocity": 0.6299212598425197
        },
        {
          "duration": 0.23645833333335986,
          "durationTicks": 227,
          "midi": 95,
          "name": "B6",
          "ticks": 285120,
          "time": 297,
          "velocity": 0.6299212598425197
        },
        {
          "duration": 0.11770833333332575,
          "durationTicks": 113,
          "midi": 83,
          "name": "B5",
          "ticks": 285360,
          "time": 297.25,
          "velocity": 0.6299212598425197
        },
        {
          "duration": 0.11770833333332575,
          "durationTicks": 113,
          "midi": 88,
          "name": "E6",
          "ticks": 285360,
          "time": 297.25,
          "velocity": 0.6299212598425197
        },
        {
          "duration": 0.11770833333332575,
          "durationTicks": 113,
          "midi": 81,
          "name": "A5",
          "ticks": 285480,
          "time": 297.375,
          "velocity": 0.6299212598425197
        },
        {
          "duration": 0.11770833333332575,
          "durationTicks": 113,
          "midi": 86,
          "name": "D6",
          "ticks": 285480,
          "time": 297.375,
          "velocity": 0.6299212598425197
        },
        {
          "duration": 0.11770833333332575,
          "durationTicks": 113,
          "midi": 83,
          "name": "B5",
          "ticks": 285600,
          "time": 297.5,
          "velocity": 0.6299212598425197
        },
        {
          "duration": 0.11770833333332575,
          "durationTicks": 113,
          "midi": 88,
          "name": "E6",
          "ticks": 285600,
          "time": 297.5,
          "velocity": 0.6299212598425197
        },
        {
          "duration": 0.11770833333332575,
          "durationTicks": 113,
          "midi": 81,
          "name": "A5",
          "ticks": 285720,
          "time": 297.625,
          "velocity": 0.6299212598425197
        },
        {
          "duration": 0.11770833333332575,
          "durationTicks": 113,
          "midi": 86,
          "name": "D6",
          "ticks": 285720,
          "time": 297.625,
          "velocity": 0.6299212598425197
        },
        {
          "duration": 0.23645833333335986,
          "durationTicks": 227,
          "midi": 81,
          "name": "A5",
          "ticks": 285840,
          "time": 297.75,
          "velocity": 0.6299212598425197
        },
        {
          "duration": 0.23645833333335986,
          "durationTicks": 227,
          "midi": 93,
          "name": "A6",
          "ticks": 285840,
          "time": 297.75,
          "velocity": 0.6299212598425197
        },
        {
          "duration": 0.23645833333335986,
          "durationTicks": 227,
          "midi": 83,
          "name": "B5",
          "ticks": 286080,
          "time": 298,
          "velocity": 0.6299212598425197
        },
        {
          "duration": 0.23645833333335986,
          "durationTicks": 227,
          "midi": 95,
          "name": "B6",
          "ticks": 286080,
          "time": 298,
          "velocity": 0.6299212598425197
        },
        {
          "duration": 0.11770833333332575,
          "durationTicks": 113,
          "midi": 83,
          "name": "B5",
          "ticks": 286320,
          "time": 298.25,
          "velocity": 0.6299212598425197
        },
        {
          "duration": 0.11770833333332575,
          "durationTicks": 113,
          "midi": 88,
          "name": "E6",
          "ticks": 286320,
          "time": 298.25,
          "velocity": 0.6299212598425197
        },
        {
          "duration": 0.11770833333332575,
          "durationTicks": 113,
          "midi": 81,
          "name": "A5",
          "ticks": 286440,
          "time": 298.375,
          "velocity": 0.6299212598425197
        },
        {
          "duration": 0.11770833333332575,
          "durationTicks": 113,
          "midi": 86,
          "name": "D6",
          "ticks": 286440,
          "time": 298.375,
          "velocity": 0.6299212598425197
        },
        {
          "duration": 0.11770833333332575,
          "durationTicks": 113,
          "midi": 83,
          "name": "B5",
          "ticks": 286560,
          "time": 298.5,
          "velocity": 0.6299212598425197
        },
        {
          "duration": 0.11770833333332575,
          "durationTicks": 113,
          "midi": 88,
          "name": "E6",
          "ticks": 286560,
          "time": 298.5,
          "velocity": 0.6299212598425197
        },
        {
          "duration": 0.11770833333332575,
          "durationTicks": 113,
          "midi": 81,
          "name": "A5",
          "ticks": 286680,
          "time": 298.625,
          "velocity": 0.6299212598425197
        },
        {
          "duration": 0.11770833333332575,
          "durationTicks": 113,
          "midi": 86,
          "name": "D6",
          "ticks": 286680,
          "time": 298.625,
          "velocity": 0.6299212598425197
        },
        {
          "duration": 0.23645833333335986,
          "durationTicks": 227,
          "midi": 81,
          "name": "A5",
          "ticks": 286800,
          "time": 298.75,
          "velocity": 0.6299212598425197
        },
        {
          "duration": 0.23645833333335986,
          "durationTicks": 227,
          "midi": 93,
          "name": "A6",
          "ticks": 286800,
          "time": 298.75,
          "velocity": 0.6299212598425197
        },
        {
          "duration": 0.23645833333335986,
          "durationTicks": 227,
          "midi": 83,
          "name": "B5",
          "ticks": 287040,
          "time": 299,
          "velocity": 0.6299212598425197
        },
        {
          "duration": 0.23645833333335986,
          "durationTicks": 227,
          "midi": 95,
          "name": "B6",
          "ticks": 287040,
          "time": 299,
          "velocity": 0.6299212598425197
        },
        {
          "duration": 0.11770833333332575,
          "durationTicks": 113,
          "midi": 83,
          "name": "B5",
          "ticks": 287280,
          "time": 299.25,
          "velocity": 0.6299212598425197
        },
        {
          "duration": 0.11770833333332575,
          "durationTicks": 113,
          "midi": 88,
          "name": "E6",
          "ticks": 287280,
          "time": 299.25,
          "velocity": 0.6299212598425197
        },
        {
          "duration": 0.11770833333332575,
          "durationTicks": 113,
          "midi": 81,
          "name": "A5",
          "ticks": 287400,
          "time": 299.375,
          "velocity": 0.6299212598425197
        },
        {
          "duration": 0.11770833333332575,
          "durationTicks": 113,
          "midi": 86,
          "name": "D6",
          "ticks": 287400,
          "time": 299.375,
          "velocity": 0.6299212598425197
        },
        {
          "duration": 0.11770833333332575,
          "durationTicks": 113,
          "midi": 83,
          "name": "B5",
          "ticks": 287520,
          "time": 299.5,
          "velocity": 0.6299212598425197
        },
        {
          "duration": 0.11770833333332575,
          "durationTicks": 113,
          "midi": 88,
          "name": "E6",
          "ticks": 287520,
          "time": 299.5,
          "velocity": 0.6299212598425197
        },
        {
          "duration": 0.11770833333332575,
          "durationTicks": 113,
          "midi": 81,
          "name": "A5",
          "ticks": 287640,
          "time": 299.625,
          "velocity": 0.6299212598425197
        },
        {
          "duration": 0.11770833333332575,
          "durationTicks": 113,
          "midi": 86,
          "name": "D6",
          "ticks": 287640,
          "time": 299.625,
          "velocity": 0.6299212598425197
        },
        {
          "duration": 0.23645833333335986,
          "durationTicks": 227,
          "midi": 91,
          "name": "G6",
          "ticks": 287760,
          "time": 299.75,
          "velocity": 0.6299212598425197
        },
        {
          "duration": 0.11770833333332575,
          "durationTicks": 113,
          "midi": 90,
          "name": "F#6",
          "ticks": 288000,
          "time": 300,
          "velocity": 0.6299212598425197
        },
        {
          "duration": 0.11770833333332575,
          "durationTicks": 113,
          "midi": 91,
          "name": "G6",
          "ticks": 288120,
          "time": 300.125,
          "velocity": 0.6299212598425197
        },
        {
          "duration": 0.11770833333332575,
          "durationTicks": 113,
          "midi": 90,
          "name": "F#6",
          "ticks": 288240,
          "time": 300.25,
          "velocity": 0.6299212598425197
        },
        {
          "duration": 0.23645833333335986,
          "durationTicks": 227,
          "midi": 88,
          "name": "E6",
          "ticks": 288240,
          "time": 300.25,
          "velocity": 0.6299212598425197
        },
        {
          "duration": 0.23645833333335986,
          "durationTicks": 227,
          "midi": 86,
          "name": "D6",
          "ticks": 288480,
          "time": 300.5,
          "velocity": 0.6299212598425197
        },
        {
          "duration": 0.11770833333332575,
          "durationTicks": 113,
          "midi": 76,
          "name": "E5",
          "ticks": 288720,
          "time": 300.75,
          "velocity": 0.6299212598425197
        },
        {
          "duration": 0.11770833333332575,
          "durationTicks": 113,
          "midi": 83,
          "name": "B5",
          "ticks": 288720,
          "time": 300.75,
          "velocity": 0.6299212598425197
        },
        {
          "duration": 0.11770833333332575,
          "durationTicks": 113,
          "midi": 81,
          "name": "A5",
          "ticks": 288840,
          "time": 300.875,
          "velocity": 0.6299212598425197
        },
        {
          "duration": 0.11770833333332575,
          "durationTicks": 113,
          "midi": 83,
          "name": "B5",
          "ticks": 288960,
          "time": 301,
          "velocity": 0.6299212598425197
        },
        {
          "duration": 0.11770833333332575,
          "durationTicks": 113,
          "midi": 86,
          "name": "D6",
          "ticks": 289080,
          "time": 301.125,
          "velocity": 0.6299212598425197
        },
        {
          "duration": 0.11770833333332575,
          "durationTicks": 113,
          "midi": 88,
          "name": "E6",
          "ticks": 289200,
          "time": 301.25,
          "velocity": 0.6299212598425197
        },
        {
          "duration": 0.11770833333332575,
          "durationTicks": 113,
          "midi": 86,
          "name": "D6",
          "ticks": 289320,
          "time": 301.375,
          "velocity": 0.6299212598425197
        },
        {
          "duration": 0.11770833333332575,
          "durationTicks": 113,
          "midi": 83,
          "name": "B5",
          "ticks": 289440,
          "time": 301.5,
          "velocity": 0.6299212598425197
        },
        {
          "duration": 0.11770833333332575,
          "durationTicks": 113,
          "midi": 81,
          "name": "A5",
          "ticks": 289560,
          "time": 301.625,
          "velocity": 0.6299212598425197
        },
        {
          "duration": 0.23645833333335986,
          "durationTicks": 227,
          "midi": 76,
          "name": "E5",
          "ticks": 289680,
          "time": 301.75,
          "velocity": 0.6299212598425197
        },
        {
          "duration": 0.23645833333335986,
          "durationTicks": 227,
          "midi": 79,
          "name": "G5",
          "ticks": 289920,
          "time": 302,
          "velocity": 0.6299212598425197
        },
        {
          "duration": 0.23645833333335986,
          "durationTicks": 227,
          "midi": 76,
          "name": "E5",
          "ticks": 290160,
          "time": 302.25,
          "velocity": 0.6299212598425197
        },
        {
          "duration": 0.23645833333335986,
          "durationTicks": 227,
          "midi": 81,
          "name": "A5",
          "ticks": 290160,
          "time": 302.25,
          "velocity": 0.6299212598425197
        },
        {
          "duration": 0.23645833333335986,
          "durationTicks": 227,
          "midi": 76,
          "name": "E5",
          "ticks": 290400,
          "time": 302.5,
          "velocity": 0.6299212598425197
        },
        {
          "duration": 0.23645833333335986,
          "durationTicks": 227,
          "midi": 83,
          "name": "B5",
          "ticks": 290400,
          "time": 302.5,
          "velocity": 0.6299212598425197
        },
        {
          "duration": 0.3552083333333371,
          "durationTicks": 341,
          "midi": 83,
          "name": "B5",
          "ticks": 290640,
          "time": 302.75,
          "velocity": 0.6299212598425197
        },
        {
          "duration": 0.3552083333333371,
          "durationTicks": 341,
          "midi": 88,
          "name": "E6",
          "ticks": 290640,
          "time": 302.75,
          "velocity": 0.6299212598425197
        },
        {
          "duration": 0.3552083333333371,
          "durationTicks": 341,
          "midi": 83,
          "name": "B5",
          "ticks": 291000,
          "time": 303.125,
          "velocity": 0.6299212598425197
        },
        {
          "duration": 0.3552083333333371,
          "durationTicks": 341,
          "midi": 88,
          "name": "E6",
          "ticks": 291000,
          "time": 303.125,
          "velocity": 0.6299212598425197
        },
        {
          "duration": 0.23645833333335986,
          "durationTicks": 227,
          "midi": 81,
          "name": "A5",
          "ticks": 291360,
          "time": 303.5,
          "velocity": 0.6299212598425197
        },
        {
          "duration": 0.23645833333335986,
          "durationTicks": 227,
          "midi": 86,
          "name": "D6",
          "ticks": 291360,
          "time": 303.5,
          "velocity": 0.6299212598425197
        },
        {
          "duration": 0.23645833333335986,
          "durationTicks": 227,
          "midi": 83,
          "name": "B5",
          "ticks": 291600,
          "time": 303.75,
          "velocity": 0.6299212598425197
        },
        {
          "duration": 0.23645833333335986,
          "durationTicks": 227,
          "midi": 88,
          "name": "E6",
          "ticks": 291600,
          "time": 303.75,
          "velocity": 0.6299212598425197
        },
        {
          "duration": 0.4739583333333144,
          "durationTicks": 455,
          "midi": 88,
          "name": "E6",
          "ticks": 291840,
          "time": 304,
          "velocity": 0.6299212598425197
        },
        {
          "duration": 0.4739583333333144,
          "durationTicks": 455,
          "midi": 76,
          "name": "E5",
          "ticks": 292320,
          "time": 304.5,
          "velocity": 0.6299212598425197
        },
        {
          "duration": 0.36770833333332575,
          "durationTicks": 353,
          "midi": 71,
          "name": "B4",
          "ticks": 292800,
          "time": 305,
          "velocity": 0.6299212598425197
        },
        {
          "duration": 0.2489583333333485,
          "durationTicks": 239,
          "midi": 76,
          "name": "E5",
          "ticks": 292800,
          "time": 305,
          "velocity": 0.6299212598425197
        },
        {
          "duration": 0.36770833333332575,
          "durationTicks": 353,
          "midi": 79,
          "name": "G5",
          "ticks": 292800,
          "time": 305,
          "velocity": 0.6299212598425197
        },
        {
          "duration": 0.11770833333332575,
          "durationTicks": 113,
          "midi": 76,
          "name": "E5",
          "ticks": 293040,
          "time": 305.25,
          "velocity": 0.6299212598425197
        },
        {
          "duration": 0.3552083333333371,
          "durationTicks": 341,
          "midi": 71,
          "name": "B4",
          "ticks": 293160,
          "time": 305.375,
          "velocity": 0.6299212598425197
        },
        {
          "duration": 0.3552083333333371,
          "durationTicks": 341,
          "midi": 76,
          "name": "E5",
          "ticks": 293160,
          "time": 305.375,
          "velocity": 0.6299212598425197
        },
        {
          "duration": 0.3552083333333371,
          "durationTicks": 341,
          "midi": 79,
          "name": "G5",
          "ticks": 293160,
          "time": 305.375,
          "velocity": 0.6299212598425197
        },
        {
          "duration": 0.23645833333335986,
          "durationTicks": 227,
          "midi": 71,
          "name": "B4",
          "ticks": 293520,
          "time": 305.75,
          "velocity": 0.6299212598425197
        },
        {
          "duration": 0.23645833333335986,
          "durationTicks": 227,
          "midi": 74,
          "name": "D5",
          "ticks": 293520,
          "time": 305.75,
          "velocity": 0.6299212598425197
        },
        {
          "duration": 0.23645833333335986,
          "durationTicks": 227,
          "midi": 78,
          "name": "F#5",
          "ticks": 293520,
          "time": 305.75,
          "velocity": 0.6299212598425197
        },
        {
          "duration": 0.7489583333333485,
          "durationTicks": 719,
          "midi": 76,
          "name": "E5",
          "ticks": 293760,
          "time": 306,
          "velocity": 0.6299212598425197
        },
        {
          "duration": 0.7489583333333485,
          "durationTicks": 719,
          "midi": 79,
          "name": "G5",
          "ticks": 293760,
          "time": 306,
          "velocity": 0.6299212598425197
        },
        {
          "duration": 0.7489583333333485,
          "durationTicks": 719,
          "midi": 71,
          "name": "B4",
          "ticks": 293760,
          "time": 306,
          "velocity": 0.6299212598425197
        },
        {
          "duration": 1.9989583333333485,
          "durationTicks": 1919,
          "midi": 79,
          "name": "G5",
          "ticks": 294720,
          "time": 307,
          "velocity": 0.6299212598425197
        },
        {
          "duration": 1.9989583333333485,
          "durationTicks": 1919,
          "midi": 76,
          "name": "E5",
          "ticks": 294720,
          "time": 307,
          "velocity": 0.6299212598425197
        },
        {
          "duration": 1.9989583333333485,
          "durationTicks": 1919,
          "midi": 71,
          "name": "B4",
          "ticks": 294720,
          "time": 307,
          "velocity": 0.6299212598425197
        },
        {
          "duration": 0.23645833333335986,
          "durationTicks": 227,
          "midi": 71,
          "name": "B4",
          "ticks": 296640,
          "time": 309,
          "velocity": 0.6299212598425197
        },
        {
          "duration": 0.23645833333335986,
          "durationTicks": 227,
          "midi": 76,
          "name": "E5",
          "ticks": 296640,
          "time": 309,
          "velocity": 0.6299212598425197
        },
        {
          "duration": 0.23645833333335986,
          "durationTicks": 227,
          "midi": 79,
          "name": "G5",
          "ticks": 296640,
          "time": 309,
          "velocity": 0.6299212598425197
        }
      ],
      "endOfTrackTicks": 296868
    },
    {
      "channel": 0,
      "controlChanges": {},
      "pitchBends": [],
      "instrument": {
        "family": "piano",
        "number": 0,
        "name": "acoustic grand piano"
      },
      "name": "Piano",
      "notes": [
        {
          "duration": 0.35520833333333335,
          "durationTicks": 341,
          "midi": 50,
          "name": "D3",
          "ticks": 0,
          "time": 0,
          "velocity": 0.6299212598425197
        },
        {
          "duration": 0.35520833333333335,
          "durationTicks": 341,
          "midi": 57,
          "name": "A3",
          "ticks": 0,
          "time": 0,
          "velocity": 0.6299212598425197
        },
        {
          "duration": 0.35520833333333335,
          "durationTicks": 341,
          "midi": 50,
          "name": "D3",
          "ticks": 360,
          "time": 0.375,
          "velocity": 0.6299212598425197
        },
        {
          "duration": 0.35520833333333335,
          "durationTicks": 341,
          "midi": 57,
          "name": "A3",
          "ticks": 360,
          "time": 0.375,
          "velocity": 0.6299212598425197
        },
        {
          "duration": 0.23645833333333333,
          "durationTicks": 227,
          "midi": 48,
          "name": "C3",
          "ticks": 720,
          "time": 0.75,
          "velocity": 0.6299212598425197
        },
        {
          "duration": 0.23645833333333333,
          "durationTicks": 227,
          "midi": 55,
          "name": "G3",
          "ticks": 720,
          "time": 0.75,
          "velocity": 0.6299212598425197
        },
        {
          "duration": 0.35520833333333335,
          "durationTicks": 341,
          "midi": 50,
          "name": "D3",
          "ticks": 960,
          "time": 1,
          "velocity": 0.6299212598425197
        },
        {
          "duration": 0.35520833333333335,
          "durationTicks": 341,
          "midi": 57,
          "name": "A3",
          "ticks": 960,
          "time": 1,
          "velocity": 0.6299212598425197
        },
        {
          "duration": 0.35520833333333335,
          "durationTicks": 341,
          "midi": 50,
          "name": "D3",
          "ticks": 1320,
          "time": 1.375,
          "velocity": 0.6299212598425197
        },
        {
          "duration": 0.35520833333333335,
          "durationTicks": 341,
          "midi": 57,
          "name": "A3",
          "ticks": 1320,
          "time": 1.375,
          "velocity": 0.6299212598425197
        },
        {
          "duration": 0.23645833333333344,
          "durationTicks": 227,
          "midi": 48,
          "name": "C3",
          "ticks": 1680,
          "time": 1.75,
          "velocity": 0.6299212598425197
        },
        {
          "duration": 0.23645833333333344,
          "durationTicks": 227,
          "midi": 55,
          "name": "G3",
          "ticks": 1680,
          "time": 1.75,
          "velocity": 0.6299212598425197
        },
        {
          "duration": 0.3552083333333331,
          "durationTicks": 341,
          "midi": 50,
          "name": "D3",
          "ticks": 1920,
          "time": 2,
          "velocity": 0.6299212598425197
        },
        {
          "duration": 0.3552083333333331,
          "durationTicks": 341,
          "midi": 57,
          "name": "A3",
          "ticks": 1920,
          "time": 2,
          "velocity": 0.6299212598425197
        },
        {
          "duration": 0.1177083333333333,
          "durationTicks": 113,
          "midi": 50,
          "name": "D3",
          "ticks": 2280,
          "time": 2.375,
          "velocity": 0.6299212598425197
        },
        {
          "duration": 0.1177083333333333,
          "durationTicks": 113,
          "midi": 57,
          "name": "A3",
          "ticks": 2280,
          "time": 2.375,
          "velocity": 0.6299212598425197
        },
        {
          "duration": 0.23645833333333321,
          "durationTicks": 227,
          "midi": 50,
          "name": "D3",
          "ticks": 2400,
          "time": 2.5,
          "velocity": 0.6299212598425197
        },
        {
          "duration": 0.23645833333333321,
          "durationTicks": 227,
          "midi": 57,
          "name": "A3",
          "ticks": 2400,
          "time": 2.5,
          "velocity": 0.6299212598425197
        },
        {
          "duration": 0.23645833333333321,
          "durationTicks": 227,
          "midi": 48,
          "name": "C3",
          "ticks": 2640,
          "time": 2.75,
          "velocity": 0.6299212598425197
        },
        {
          "duration": 0.23645833333333321,
          "durationTicks": 227,
          "midi": 55,
          "name": "G3",
          "ticks": 2640,
          "time": 2.75,
          "velocity": 0.6299212598425197
        },
        {
          "duration": 0.9489583333333331,
          "durationTicks": 911,
          "midi": 38,
          "name": "D2",
          "ticks": 2880,
          "time": 3,
          "velocity": 0.6299212598425197
        },
        {
          "duration": 0.9489583333333331,
          "durationTicks": 911,
          "midi": 45,
          "name": "A2",
          "ticks": 2880,
          "time": 3,
          "velocity": 0.6299212598425197
        },
        {
          "duration": 0.9489583333333331,
          "durationTicks": 911,
          "midi": 50,
          "name": "D3",
          "ticks": 2880,
          "time": 3,
          "velocity": 0.6299212598425197
        },
        {
          "duration": 0.35520833333333357,
          "durationTicks": 341,
          "midi": 50,
          "name": "D3",
          "ticks": 3840,
          "time": 4,
          "velocity": 0.6299212598425197
        },
        {
          "duration": 0.35520833333333357,
          "durationTicks": 341,
          "midi": 57,
          "name": "A3",
          "ticks": 3840,
          "time": 4,
          "velocity": 0.6299212598425197
        },
        {
          "duration": 0.35520833333333357,
          "durationTicks": 341,
          "midi": 50,
          "name": "D3",
          "ticks": 4200,
          "time": 4.375,
          "velocity": 0.6299212598425197
        },
        {
          "duration": 0.35520833333333357,
          "durationTicks": 341,
          "midi": 57,
          "name": "A3",
          "ticks": 4200,
          "time": 4.375,
          "velocity": 0.6299212598425197
        },
        {
          "duration": 0.23645833333333321,
          "durationTicks": 227,
          "midi": 48,
          "name": "C3",
          "ticks": 4560,
          "time": 4.75,
          "velocity": 0.6299212598425197
        },
        {
          "duration": 0.23645833333333321,
          "durationTicks": 227,
          "midi": 55,
          "name": "G3",
          "ticks": 4560,
          "time": 4.75,
          "velocity": 0.6299212598425197
        },
        {
          "duration": 0.35520833333333357,
          "durationTicks": 341,
          "midi": 50,
          "name": "D3",
          "ticks": 4800,
          "time": 5,
          "velocity": 0.6299212598425197
        },
        {
          "duration": 0.35520833333333357,
          "durationTicks": 341,
          "midi": 57,
          "name": "A3",
          "ticks": 4800,
          "time": 5,
          "velocity": 0.6299212598425197
        },
        {
          "duration": 0.35520833333333357,
          "durationTicks": 341,
          "midi": 50,
          "name": "D3",
          "ticks": 5160,
          "time": 5.375,
          "velocity": 0.6299212598425197
        },
        {
          "duration": 0.35520833333333357,
          "durationTicks": 341,
          "midi": 57,
          "name": "A3",
          "ticks": 5160,
          "time": 5.375,
          "velocity": 0.6299212598425197
        },
        {
          "duration": 0.23645833333333321,
          "durationTicks": 227,
          "midi": 48,
          "name": "C3",
          "ticks": 5520,
          "time": 5.75,
          "velocity": 0.6299212598425197
        },
        {
          "duration": 0.23645833333333321,
          "durationTicks": 227,
          "midi": 55,
          "name": "G3",
          "ticks": 5520,
          "time": 5.75,
          "velocity": 0.6299212598425197
        },
        {
          "duration": 0.47395833333333304,
          "durationTicks": 455,
          "midi": 50,
          "name": "D3",
          "ticks": 5760,
          "time": 6,
          "velocity": 0.6299212598425197
        },
        {
          "duration": 0.47395833333333304,
          "durationTicks": 455,
          "midi": 62,
          "name": "D4",
          "ticks": 5760,
          "time": 6,
          "velocity": 0.6299212598425197
        },
        {
          "duration": 0.47395833333333304,
          "durationTicks": 455,
          "midi": 45,
          "name": "A2",
          "ticks": 6240,
          "time": 6.5,
          "velocity": 0.6299212598425197
        },
        {
          "duration": 0.47395833333333304,
          "durationTicks": 455,
          "midi": 57,
          "name": "A3",
          "ticks": 6240,
          "time": 6.5,
          "velocity": 0.6299212598425197
        },
        {
          "duration": 0.47395833333333304,
          "durationTicks": 455,
          "midi": 43,
          "name": "G2",
          "ticks": 6720,
          "time": 7,
          "velocity": 0.6299212598425197
        },
        {
          "duration": 0.47395833333333304,
          "durationTicks": 455,
          "midi": 55,
          "name": "G3",
          "ticks": 6720,
          "time": 7,
          "velocity": 0.6299212598425197
        },
        {
          "duration": 0.47395833333333304,
          "durationTicks": 455,
          "midi": 45,
          "name": "A2",
          "ticks": 7200,
          "time": 7.5,
          "velocity": 0.6299212598425197
        },
        {
          "duration": 0.47395833333333304,
          "durationTicks": 455,
          "midi": 57,
          "name": "A3",
          "ticks": 7200,
          "time": 7.5,
          "velocity": 0.6299212598425197
        },
        {
          "duration": 0.23645833333333321,
          "durationTicks": 227,
          "midi": 38,
          "name": "D2",
          "ticks": 7680,
          "time": 8,
          "velocity": 0.6299212598425197
        },
        {
          "duration": 0.23645833333333321,
          "durationTicks": 227,
          "midi": 46,
          "name": "A#2",
          "ticks": 7920,
          "time": 8.25,
          "velocity": 0.6299212598425197
        },
        {
          "duration": 0.23645833333333321,
          "durationTicks": 227,
          "midi": 53,
          "name": "F3",
          "ticks": 8160,
          "time": 8.5,
          "velocity": 0.6299212598425197
        },
        {
          "duration": 0.23645833333333321,
          "durationTicks": 227,
          "midi": 46,
          "name": "A#2",
          "ticks": 8400,
          "time": 8.75,
          "velocity": 0.6299212598425197
        },
        {
          "duration": 0.23645833333333321,
          "durationTicks": 227,
          "midi": 48,
          "name": "C3",
          "ticks": 8640,
          "time": 9,
          "velocity": 0.6299212598425197
        },
        {
          "duration": 0.23645833333333321,
          "durationTicks": 227,
          "midi": 43,
          "name": "G2",
          "ticks": 8880,
          "time": 9.25,
          "velocity": 0.6299212598425197
        },
        {
          "duration": 0.23645833333333321,
          "durationTicks": 227,
          "midi": 52,
          "name": "E3",
          "ticks": 9120,
          "time": 9.5,
          "velocity": 0.6299212598425197
        },
        {
          "duration": 0.23645833333333321,
          "durationTicks": 227,
          "midi": 43,
          "name": "G2",
          "ticks": 9360,
          "time": 9.75,
          "velocity": 0.6299212598425197
        },
        {
          "duration": 0.23645833333333321,
          "durationTicks": 227,
          "midi": 38,
          "name": "D2",
          "ticks": 9600,
          "time": 10,
          "velocity": 0.6299212598425197
        },
        {
          "duration": 0.23645833333333321,
          "durationTicks": 227,
          "midi": 45,
          "name": "A2",
          "ticks": 9840,
          "time": 10.25,
          "velocity": 0.6299212598425197
        },
        {
          "duration": 0.23645833333333321,
          "durationTicks": 227,
          "midi": 53,
          "name": "F3",
          "ticks": 10080,
          "time": 10.5,
          "velocity": 0.6299212598425197
        },
        {
          "duration": 0.23645833333333321,
          "durationTicks": 227,
          "midi": 45,
          "name": "A2",
          "ticks": 10320,
          "time": 10.75,
          "velocity": 0.6299212598425197
        },
        {
          "duration": 0.23645833333333321,
          "durationTicks": 227,
          "midi": 53,
          "name": "F3",
          "ticks": 10560,
          "time": 11,
          "velocity": 0.6299212598425197
        },
        {
          "duration": 0.23645833333333321,
          "durationTicks": 227,
          "midi": 45,
          "name": "A2",
          "ticks": 10800,
          "time": 11.25,
          "velocity": 0.6299212598425197
        },
        {
          "duration": 0.23645833333333321,
          "durationTicks": 227,
          "midi": 52,
          "name": "E3",
          "ticks": 11040,
          "time": 11.5,
          "velocity": 0.6299212598425197
        },
        {
          "duration": 0.23645833333333321,
          "durationTicks": 227,
          "midi": 45,
          "name": "A2",
          "ticks": 11280,
          "time": 11.75,
          "velocity": 0.6299212598425197
        },
        {
          "duration": 0.23645833333333321,
          "durationTicks": 227,
          "midi": 38,
          "name": "D2",
          "ticks": 11520,
          "time": 12,
          "velocity": 0.6299212598425197
        },
        {
          "duration": 0.23645833333333321,
          "durationTicks": 227,
          "midi": 46,
          "name": "A#2",
          "ticks": 11760,
          "time": 12.25,
          "velocity": 0.6299212598425197
        },
        {
          "duration": 0.23645833333333321,
          "durationTicks": 227,
          "midi": 53,
          "name": "F3",
          "ticks": 12000,
          "time": 12.5,
          "velocity": 0.6299212598425197
        },
        {
          "duration": 0.23645833333333321,
          "durationTicks": 227,
          "midi": 46,
          "name": "A#2",
          "ticks": 12240,
          "time": 12.75,
          "velocity": 0.6299212598425197
        },
        {
          "duration": 0.23645833333333321,
          "durationTicks": 227,
          "midi": 48,
          "name": "C3",
          "ticks": 12480,
          "time": 13,
          "velocity": 0.6299212598425197
        },
        {
          "duration": 0.23645833333333321,
          "durationTicks": 227,
          "midi": 43,
          "name": "G2",
          "ticks": 12720,
          "time": 13.25,
          "velocity": 0.6299212598425197
        },
        {
          "duration": 0.23645833333333321,
          "durationTicks": 227,
          "midi": 52,
          "name": "E3",
          "ticks": 12960,
          "time": 13.5,
          "velocity": 0.6299212598425197
        },
        {
          "duration": 0.23645833333333321,
          "durationTicks": 227,
          "midi": 43,
          "name": "G2",
          "ticks": 13200,
          "time": 13.75,
          "velocity": 0.6299212598425197
        },
        {
          "duration": 0.23645833333333321,
          "durationTicks": 227,
          "midi": 38,
          "name": "D2",
          "ticks": 13440,
          "time": 14,
          "velocity": 0.6299212598425197
        },
        {
          "duration": 0.23645833333333321,
          "durationTicks": 227,
          "midi": 45,
          "name": "A2",
          "ticks": 13680,
          "time": 14.25,
          "velocity": 0.6299212598425197
        },
        {
          "duration": 0.23645833333333321,
          "durationTicks": 227,
          "midi": 53,
          "name": "F3",
          "ticks": 13920,
          "time": 14.5,
          "velocity": 0.6299212598425197
        },
        {
          "duration": 0.23645833333333321,
          "durationTicks": 227,
          "midi": 45,
          "name": "A2",
          "ticks": 14160,
          "time": 14.75,
          "velocity": 0.6299212598425197
        },
        {
          "duration": 0.23645833333333321,
          "durationTicks": 227,
          "midi": 53,
          "name": "F3",
          "ticks": 14400,
          "time": 15,
          "velocity": 0.6299212598425197
        },
        {
          "duration": 0.23645833333333321,
          "durationTicks": 227,
          "midi": 45,
          "name": "A2",
          "ticks": 14640,
          "time": 15.25,
          "velocity": 0.6299212598425197
        },
        {
          "duration": 0.23645833333333321,
          "durationTicks": 227,
          "midi": 52,
          "name": "E3",
          "ticks": 14880,
          "time": 15.5,
          "velocity": 0.6299212598425197
        },
        {
          "duration": 0.23645833333333321,
          "durationTicks": 227,
          "midi": 45,
          "name": "A2",
          "ticks": 15120,
          "time": 15.75,
          "velocity": 0.6299212598425197
        },
        {
          "duration": 0.236458333333335,
          "durationTicks": 227,
          "midi": 38,
          "name": "D2",
          "ticks": 15360,
          "time": 16,
          "velocity": 0.6299212598425197
        },
        {
          "duration": 0.236458333333335,
          "durationTicks": 227,
          "midi": 46,
          "name": "A#2",
          "ticks": 15600,
          "time": 16.25,
          "velocity": 0.6299212598425197
        },
        {
          "duration": 0.236458333333335,
          "durationTicks": 227,
          "midi": 53,
          "name": "F3",
          "ticks": 15840,
          "time": 16.5,
          "velocity": 0.6299212598425197
        },
        {
          "duration": 0.236458333333335,
          "durationTicks": 227,
          "midi": 46,
          "name": "A#2",
          "ticks": 16080,
          "time": 16.75,
          "velocity": 0.6299212598425197
        },
        {
          "duration": 0.236458333333335,
          "durationTicks": 227,
          "midi": 48,
          "name": "C3",
          "ticks": 16320,
          "time": 17,
          "velocity": 0.6299212598425197
        },
        {
          "duration": 0.236458333333335,
          "durationTicks": 227,
          "midi": 43,
          "name": "G2",
          "ticks": 16560,
          "time": 17.25,
          "velocity": 0.6299212598425197
        },
        {
          "duration": 0.236458333333335,
          "durationTicks": 227,
          "midi": 52,
          "name": "E3",
          "ticks": 16800,
          "time": 17.5,
          "velocity": 0.6299212598425197
        },
        {
          "duration": 0.236458333333335,
          "durationTicks": 227,
          "midi": 43,
          "name": "G2",
          "ticks": 17040,
          "time": 17.75,
          "velocity": 0.6299212598425197
        },
        {
          "duration": 0.236458333333335,
          "durationTicks": 227,
          "midi": 38,
          "name": "D2",
          "ticks": 17280,
          "time": 18,
          "velocity": 0.6299212598425197
        },
        {
          "duration": 0.236458333333335,
          "durationTicks": 227,
          "midi": 45,
          "name": "A2",
          "ticks": 17520,
          "time": 18.25,
          "velocity": 0.6299212598425197
        },
        {
          "duration": 0.236458333333335,
          "durationTicks": 227,
          "midi": 53,
          "name": "F3",
          "ticks": 17760,
          "time": 18.5,
          "velocity": 0.6299212598425197
        },
        {
          "duration": 0.236458333333335,
          "durationTicks": 227,
          "midi": 45,
          "name": "A2",
          "ticks": 18000,
          "time": 18.75,
          "velocity": 0.6299212598425197
        },
        {
          "duration": 0.236458333333335,
          "durationTicks": 227,
          "midi": 53,
          "name": "F3",
          "ticks": 18240,
          "time": 19,
          "velocity": 0.6299212598425197
        },
        {
          "duration": 0.236458333333335,
          "durationTicks": 227,
          "midi": 45,
          "name": "A2",
          "ticks": 18480,
          "time": 19.25,
          "velocity": 0.6299212598425197
        },
        {
          "duration": 0.236458333333335,
          "durationTicks": 227,
          "midi": 52,
          "name": "E3",
          "ticks": 18720,
          "time": 19.5,
          "velocity": 0.6299212598425197
        },
        {
          "duration": 0.236458333333335,
          "durationTicks": 227,
          "midi": 45,
          "name": "A2",
          "ticks": 18960,
          "time": 19.75,
          "velocity": 0.6299212598425197
        },
        {
          "duration": 0.47395833333333215,
          "durationTicks": 455,
          "midi": 45,
          "name": "A2",
          "ticks": 19200,
          "time": 20,
          "velocity": 0.6299212598425197
        },
        {
          "duration": 0.47395833333333215,
          "durationTicks": 455,
          "midi": 50,
          "name": "D3",
          "ticks": 19200,
          "time": 20,
          "velocity": 0.6299212598425197
        },
        {
          "duration": 0.47395833333333215,
          "durationTicks": 455,
          "midi": 50,
          "name": "D3",
          "ticks": 19680,
          "time": 20.5,
          "velocity": 0.6299212598425197
        },
        {
          "duration": 0.47395833333333215,
          "durationTicks": 455,
          "midi": 53,
          "name": "F3",
          "ticks": 19680,
          "time": 20.5,
          "velocity": 0.6299212598425197
        },
        {
          "duration": 0.236458333333335,
          "durationTicks": 227,
          "midi": 53,
          "name": "F3",
          "ticks": 20160,
          "time": 21,
          "velocity": 0.6299212598425197
        },
        {
          "duration": 0.236458333333335,
          "durationTicks": 227,
          "midi": 57,
          "name": "A3",
          "ticks": 20160,
          "time": 21,
          "velocity": 0.6299212598425197
        },
        {
          "duration": 0.236458333333335,
          "durationTicks": 227,
          "midi": 55,
          "name": "G3",
          "ticks": 20400,
          "time": 21.25,
          "velocity": 0.6299212598425197
        },
        {
          "duration": 0.236458333333335,
          "durationTicks": 227,
          "midi": 53,
          "name": "F3",
          "ticks": 20640,
          "time": 21.5,
          "velocity": 0.6299212598425197
        },
        {
          "duration": 0.236458333333335,
          "durationTicks": 227,
          "midi": 52,
          "name": "E3",
          "ticks": 20880,
          "time": 21.75,
          "velocity": 0.6299212598425197
        },
        {
          "duration": 0.47395833333333215,
          "durationTicks": 455,
          "midi": 48,
          "name": "C3",
          "ticks": 21120,
          "time": 22,
          "velocity": 0.6299212598425197
        },
        {
          "duration": 0.47395833333333215,
          "durationTicks": 455,
          "midi": 53,
          "name": "F3",
          "ticks": 21120,
          "time": 22,
          "velocity": 0.6299212598425197
        },
        {
          "duration": 0.236458333333335,
          "durationTicks": 227,
          "midi": 50,
          "name": "D3",
          "ticks": 21600,
          "time": 22.5,
          "velocity": 0.6299212598425197
        },
        {
          "duration": 0.236458333333335,
          "durationTicks": 227,
          "midi": 48,
          "name": "C3",
          "ticks": 21840,
          "time": 22.75,
          "velocity": 0.6299212598425197
        },
        {
          "duration": 0.236458333333335,
          "durationTicks": 227,
          "midi": 52,
          "name": "E3",
          "ticks": 21840,
          "time": 22.75,
          "velocity": 0.6299212598425197
        },
        {
          "duration": 0.9489583333333336,
          "durationTicks": 911,
          "midi": 38,
          "name": "D2",
          "ticks": 22080,
          "time": 23,
          "velocity": 0.6299212598425197
        },
        {
          "duration": 0.9489583333333336,
          "durationTicks": 911,
          "midi": 45,
          "name": "A2",
          "ticks": 22080,
          "time": 23,
          "velocity": 0.6299212598425197
        },
        {
          "duration": 0.9489583333333336,
          "durationTicks": 911,
          "midi": 50,
          "name": "D3",
          "ticks": 22080,
          "time": 23,
          "velocity": 0.6299212598425197
        },
        {
          "duration": 0.236458333333335,
          "durationTicks": 227,
          "midi": 38,
          "name": "D2",
          "ticks": 23160,
          "time": 24.125,
          "velocity": 0.6299212598425197
        },
        {
          "duration": 0.236458333333335,
          "durationTicks": 227,
          "midi": 46,
          "name": "A#2",
          "ticks": 23400,
          "time": 24.375,
          "velocity": 0.6299212598425197
        },
        {
          "duration": 0.236458333333335,
          "durationTicks": 227,
          "midi": 53,
          "name": "F3",
          "ticks": 23640,
          "time": 24.625,
          "velocity": 0.6299212598425197
        },
        {
          "duration": 0.236458333333335,
          "durationTicks": 227,
          "midi": 46,
          "name": "A#2",
          "ticks": 23880,
          "time": 24.875,
          "velocity": 0.6299212598425197
        },
        {
          "duration": 0.236458333333335,
          "durationTicks": 227,
          "midi": 48,
          "name": "C3",
          "ticks": 24120,
          "time": 25.125,
          "velocity": 0.6299212598425197
        },
        {
          "duration": 0.236458333333335,
          "durationTicks": 227,
          "midi": 43,
          "name": "G2",
          "ticks": 24360,
          "time": 25.375,
          "velocity": 0.6299212598425197
        },
        {
          "duration": 0.236458333333335,
          "durationTicks": 227,
          "midi": 52,
          "name": "E3",
          "ticks": 24600,
          "time": 25.625,
          "velocity": 0.6299212598425197
        },
        {
          "duration": 0.236458333333335,
          "durationTicks": 227,
          "midi": 43,
          "name": "G2",
          "ticks": 24840,
          "time": 25.875,
          "velocity": 0.6299212598425197
        },
        {
          "duration": 0.236458333333335,
          "durationTicks": 227,
          "midi": 38,
          "name": "D2",
          "ticks": 25080,
          "time": 26.125,
          "velocity": 0.6299212598425197
        },
        {
          "duration": 0.236458333333335,
          "durationTicks": 227,
          "midi": 45,
          "name": "A2",
          "ticks": 25320,
          "time": 26.375,
          "velocity": 0.6299212598425197
        },
        {
          "duration": 0.236458333333335,
          "durationTicks": 227,
          "midi": 53,
          "name": "F3",
          "ticks": 25560,
          "time": 26.625,
          "velocity": 0.6299212598425197
        },
        {
          "duration": 0.236458333333335,
          "durationTicks": 227,
          "midi": 45,
          "name": "A2",
          "ticks": 25800,
          "time": 26.875,
          "velocity": 0.6299212598425197
        },
        {
          "duration": 0.236458333333335,
          "durationTicks": 227,
          "midi": 53,
          "name": "F3",
          "ticks": 26040,
          "time": 27.125,
          "velocity": 0.6299212598425197
        },
        {
          "duration": 0.236458333333335,
          "durationTicks": 227,
          "midi": 45,
          "name": "A2",
          "ticks": 26280,
          "time": 27.375,
          "velocity": 0.6299212598425197
        },
        {
          "duration": 0.236458333333335,
          "durationTicks": 227,
          "midi": 52,
          "name": "E3",
          "ticks": 26520,
          "time": 27.625,
          "velocity": 0.6299212598425197
        },
        {
          "duration": 0.236458333333335,
          "durationTicks": 227,
          "midi": 45,
          "name": "A2",
          "ticks": 26760,
          "time": 27.875,
          "velocity": 0.6299212598425197
        },
        {
          "duration": 0.236458333333335,
          "durationTicks": 227,
          "midi": 38,
          "name": "D2",
          "ticks": 27000,
          "time": 28.125,
          "velocity": 0.6299212598425197
        },
        {
          "duration": 0.236458333333335,
          "durationTicks": 227,
          "midi": 46,
          "name": "A#2",
          "ticks": 27240,
          "time": 28.375,
          "velocity": 0.6299212598425197
        },
        {
          "duration": 0.236458333333335,
          "durationTicks": 227,
          "midi": 53,
          "name": "F3",
          "ticks": 27480,
          "time": 28.625,
          "velocity": 0.6299212598425197
        },
        {
          "duration": 0.236458333333335,
          "durationTicks": 227,
          "midi": 46,
          "name": "A#2",
          "ticks": 27720,
          "time": 28.875,
          "velocity": 0.6299212598425197
        },
        {
          "duration": 0.236458333333335,
          "durationTicks": 227,
          "midi": 48,
          "name": "C3",
          "ticks": 27960,
          "time": 29.125,
          "velocity": 0.6299212598425197
        },
        {
          "duration": 0.236458333333335,
          "durationTicks": 227,
          "midi": 43,
          "name": "G2",
          "ticks": 28200,
          "time": 29.375,
          "velocity": 0.6299212598425197
        },
        {
          "duration": 0.236458333333335,
          "durationTicks": 227,
          "midi": 52,
          "name": "E3",
          "ticks": 28440,
          "time": 29.625,
          "velocity": 0.6299212598425197
        },
        {
          "duration": 0.236458333333335,
          "durationTicks": 227,
          "midi": 43,
          "name": "G2",
          "ticks": 28680,
          "time": 29.875,
          "velocity": 0.6299212598425197
        },
        {
          "duration": 0.236458333333335,
          "durationTicks": 227,
          "midi": 38,
          "name": "D2",
          "ticks": 28920,
          "time": 30.125,
          "velocity": 0.6299212598425197
        },
        {
          "duration": 0.236458333333335,
          "durationTicks": 227,
          "midi": 45,
          "name": "A2",
          "ticks": 29160,
          "time": 30.375,
          "velocity": 0.6299212598425197
        },
        {
          "duration": 0.236458333333335,
          "durationTicks": 227,
          "midi": 53,
          "name": "F3",
          "ticks": 29400,
          "time": 30.625,
          "velocity": 0.6299212598425197
        },
        {
          "duration": 0.236458333333335,
          "durationTicks": 227,
          "midi": 45,
          "name": "A2",
          "ticks": 29640,
          "time": 30.875,
          "velocity": 0.6299212598425197
        },
        {
          "duration": 0.236458333333335,
          "durationTicks": 227,
          "midi": 53,
          "name": "F3",
          "ticks": 29880,
          "time": 31.125,
          "velocity": 0.6299212598425197
        },
        {
          "duration": 0.236458333333335,
          "durationTicks": 227,
          "midi": 45,
          "name": "A2",
          "ticks": 30120,
          "time": 31.375,
          "velocity": 0.6299212598425197
        },
        {
          "duration": 0.236458333333335,
          "durationTicks": 227,
          "midi": 52,
          "name": "E3",
          "ticks": 30360,
          "time": 31.625,
          "velocity": 0.6299212598425197
        },
        {
          "duration": 0.23645833333333144,
          "durationTicks": 227,
          "midi": 45,
          "name": "A2",
          "ticks": 30600,
          "time": 31.875,
          "velocity": 0.6299212598425197
        },
        {
          "duration": 0.23645833333333144,
          "durationTicks": 227,
          "midi": 38,
          "name": "D2",
          "ticks": 30840,
          "time": 32.125,
          "velocity": 0.6299212598425197
        },
        {
          "duration": 0.23645833333333144,
          "durationTicks": 227,
          "midi": 46,
          "name": "A#2",
          "ticks": 31080,
          "time": 32.375,
          "velocity": 0.6299212598425197
        },
        {
          "duration": 0.23645833333333144,
          "durationTicks": 227,
          "midi": 53,
          "name": "F3",
          "ticks": 31320,
          "time": 32.625,
          "velocity": 0.6299212598425197
        },
        {
          "duration": 0.23645833333333144,
          "durationTicks": 227,
          "midi": 46,
          "name": "A#2",
          "ticks": 31560,
          "time": 32.875,
          "velocity": 0.6299212598425197
        },
        {
          "duration": 0.23645833333333144,
          "durationTicks": 227,
          "midi": 48,
          "name": "C3",
          "ticks": 31800,
          "time": 33.125,
          "velocity": 0.6299212598425197
        },
        {
          "duration": 0.23645833333333144,
          "durationTicks": 227,
          "midi": 43,
          "name": "G2",
          "ticks": 32040,
          "time": 33.375,
          "velocity": 0.6299212598425197
        },
        {
          "duration": 0.23645833333333144,
          "durationTicks": 227,
          "midi": 52,
          "name": "E3",
          "ticks": 32280,
          "time": 33.625,
          "velocity": 0.6299212598425197
        },
        {
          "duration": 0.23645833333333144,
          "durationTicks": 227,
          "midi": 43,
          "name": "G2",
          "ticks": 32520,
          "time": 33.875,
          "velocity": 0.6299212598425197
        },
        {
          "duration": 0.23645833333333144,
          "durationTicks": 227,
          "midi": 38,
          "name": "D2",
          "ticks": 32760,
          "time": 34.125,
          "velocity": 0.6299212598425197
        },
        {
          "duration": 0.23645833333333144,
          "durationTicks": 227,
          "midi": 45,
          "name": "A2",
          "ticks": 33000,
          "time": 34.375,
          "velocity": 0.6299212598425197
        },
        {
          "duration": 0.23645833333333144,
          "durationTicks": 227,
          "midi": 53,
          "name": "F3",
          "ticks": 33240,
          "time": 34.625,
          "velocity": 0.6299212598425197
        },
        {
          "duration": 0.23645833333333144,
          "durationTicks": 227,
          "midi": 45,
          "name": "A2",
          "ticks": 33480,
          "time": 34.875,
          "velocity": 0.6299212598425197
        },
        {
          "duration": 0.23645833333333144,
          "durationTicks": 227,
          "midi": 53,
          "name": "F3",
          "ticks": 33720,
          "time": 35.125,
          "velocity": 0.6299212598425197
        },
        {
          "duration": 0.23645833333333144,
          "durationTicks": 227,
          "midi": 45,
          "name": "A2",
          "ticks": 33960,
          "time": 35.375,
          "velocity": 0.6299212598425197
        },
        {
          "duration": 0.23645833333333144,
          "durationTicks": 227,
          "midi": 52,
          "name": "E3",
          "ticks": 34200,
          "time": 35.625,
          "velocity": 0.6299212598425197
        },
        {
          "duration": 0.23645833333333144,
          "durationTicks": 227,
          "midi": 45,
          "name": "A2",
          "ticks": 34440,
          "time": 35.875,
          "velocity": 0.6299212598425197
        },
        {
          "duration": 0.23645833333333144,
          "durationTicks": 227,
          "midi": 46,
          "name": "A#2",
          "ticks": 34680,
          "time": 36.125,
          "velocity": 0.6299212598425197
        },
        {
          "duration": 0.23645833333333144,
          "durationTicks": 227,
          "midi": 41,
          "name": "F2",
          "ticks": 34920,
          "time": 36.375,
          "velocity": 0.6299212598425197
        },
        {
          "duration": 0.23645833333333144,
          "durationTicks": 227,
          "midi": 48,
          "name": "C3",
          "ticks": 35160,
          "time": 36.625,
          "velocity": 0.6299212598425197
        },
        {
          "duration": 0.23645833333333144,
          "durationTicks": 227,
          "midi": 43,
          "name": "G2",
          "ticks": 35400,
          "time": 36.875,
          "velocity": 0.6299212598425197
        },
        {
          "duration": 0.4739583333333357,
          "durationTicks": 455,
          "midi": 40,
          "name": "E2",
          "ticks": 35640,
          "time": 37.125,
          "velocity": 0.6299212598425197
        },
        {
          "duration": 0.4739583333333357,
          "durationTicks": 455,
          "midi": 45,
          "name": "A2",
          "ticks": 35640,
          "time": 37.125,
          "velocity": 0.6299212598425197
        },
        {
          "duration": 0.4739583333333357,
          "durationTicks": 455,
          "midi": 48,
          "name": "C3",
          "ticks": 36120,
          "time": 37.625,
          "velocity": 0.6299212598425197
        },
        {
          "duration": 0.4739583333333357,
          "durationTicks": 455,
          "midi": 52,
          "name": "E3",
          "ticks": 36120,
          "time": 37.625,
          "velocity": 0.6299212598425197
        },
        {
          "duration": 0.35520833333333,
          "durationTicks": 341,
          "midi": 50,
          "name": "D3",
          "ticks": 36600,
          "time": 38.125,
          "velocity": 0.6299212598425197
        },
        {
          "duration": 0.35520833333333,
          "durationTicks": 341,
          "midi": 57,
          "name": "A3",
          "ticks": 36600,
          "time": 38.125,
          "velocity": 0.6299212598425197
        },
        {
          "duration": 0.35520833333333,
          "durationTicks": 341,
          "midi": 50,
          "name": "D3",
          "ticks": 36960,
          "time": 38.5,
          "velocity": 0.6299212598425197
        },
        {
          "duration": 0.35520833333333,
          "durationTicks": 341,
          "midi": 57,
          "name": "A3",
          "ticks": 36960,
          "time": 38.5,
          "velocity": 0.6299212598425197
        },
        {
          "duration": 0.23645833333333144,
          "durationTicks": 227,
          "midi": 48,
          "name": "C3",
          "ticks": 37320,
          "time": 38.875,
          "velocity": 0.6299212598425197
        },
        {
          "duration": 0.23645833333333144,
          "durationTicks": 227,
          "midi": 55,
          "name": "G3",
          "ticks": 37320,
          "time": 38.875,
          "velocity": 0.6299212598425197
        },
        {
          "duration": 0.35520833333333,
          "durationTicks": 341,
          "midi": 50,
          "name": "D3",
          "ticks": 37560,
          "time": 39.125,
          "velocity": 0.6299212598425197
        },
        {
          "duration": 0.35520833333333,
          "durationTicks": 341,
          "midi": 57,
          "name": "A3",
          "ticks": 37560,
          "time": 39.125,
          "velocity": 0.6299212598425197
        },
        {
          "duration": 0.35520833333333,
          "durationTicks": 341,
          "midi": 50,
          "name": "D3",
          "ticks": 37920,
          "time": 39.5,
          "velocity": 0.6299212598425197
        },
        {
          "duration": 0.35520833333333,
          "durationTicks": 341,
          "midi": 57,
          "name": "A3",
          "ticks": 37920,
          "time": 39.5,
          "velocity": 0.6299212598425197
        },
        {
          "duration": 0.23645833333333144,
          "durationTicks": 227,
          "midi": 48,
          "name": "C3",
          "ticks": 38280,
          "time": 39.875,
          "velocity": 0.6299212598425197
        },
        {
          "duration": 0.23645833333333144,
          "durationTicks": 227,
          "midi": 55,
          "name": "G3",
          "ticks": 38280,
          "time": 39.875,
          "velocity": 0.6299212598425197
        },
        {
          "duration": 0.4739583333333357,
          "durationTicks": 455,
          "midi": 45,
          "name": "A2",
          "ticks": 38520,
          "time": 40.125,
          "velocity": 0.6299212598425197
        },
        {
          "duration": 0.4739583333333357,
          "durationTicks": 455,
          "midi": 50,
          "name": "D3",
          "ticks": 38520,
          "time": 40.125,
          "velocity": 0.6299212598425197
        },
        {
          "duration": 0.35520833333333,
          "durationTicks": 341,
          "midi": 45,
          "name": "A2",
          "ticks": 39000,
          "time": 40.625,
          "velocity": 0.6299212598425197
        },
        {
          "duration": 0.35520833333333,
          "durationTicks": 341,
          "midi": 50,
          "name": "D3",
          "ticks": 39000,
          "time": 40.625,
          "velocity": 0.6299212598425197
        },
        {
          "duration": 0.11770833333333286,
          "durationTicks": 113,
          "midi": 43,
          "name": "G2",
          "ticks": 39360,
          "time": 41,
          "velocity": 0.6299212598425197
        },
        {
          "duration": 0.11770833333333286,
          "durationTicks": 113,
          "midi": 48,
          "name": "C3",
          "ticks": 39360,
          "time": 41,
          "velocity": 0.6299212598425197
        },
        {
          "duration": 0.4739583333333357,
          "durationTicks": 455,
          "midi": 38,
          "name": "D2",
          "ticks": 39480,
          "time": 41.125,
          "velocity": 0.6299212598425197
        },
        {
          "duration": 0.4739583333333357,
          "durationTicks": 455,
          "midi": 45,
          "name": "A2",
          "ticks": 39480,
          "time": 41.125,
          "velocity": 0.6299212598425197
        },
        {
          "duration": 0.4739583333333357,
          "durationTicks": 455,
          "midi": 50,
          "name": "D3",
          "ticks": 39480,
          "time": 41.125,
          "velocity": 0.6299212598425197
        },
        {
          "duration": 0.23645833333333144,
          "durationTicks": 227,
          "midi": 43,
          "name": "G2",
          "ticks": 39960,
          "time": 41.625,
          "velocity": 0.6299212598425197
        },
        {
          "duration": 0.23645833333333144,
          "durationTicks": 227,
          "midi": 55,
          "name": "G3",
          "ticks": 39960,
          "time": 41.625,
          "velocity": 0.6299212598425197
        },
        {
          "duration": 0.23645833333333144,
          "durationTicks": 227,
          "midi": 45,
          "name": "A2",
          "ticks": 40200,
          "time": 41.875,
          "velocity": 0.6299212598425197
        },
        {
          "duration": 0.23645833333333144,
          "durationTicks": 227,
          "midi": 57,
          "name": "A3",
          "ticks": 40200,
          "time": 41.875,
          "velocity": 0.6299212598425197
        },
        {
          "duration": 0.4739583333333357,
          "durationTicks": 455,
          "midi": 50,
          "name": "D3",
          "ticks": 40440,
          "time": 42.125,
          "velocity": 0.6299212598425197
        },
        {
          "duration": 0.4739583333333357,
          "durationTicks": 455,
          "midi": 53,
          "name": "F3",
          "ticks": 40440,
          "time": 42.125,
          "velocity": 0.6299212598425197
        },
        {
          "duration": 0.4739583333333357,
          "durationTicks": 455,
          "midi": 50,
          "name": "D3",
          "ticks": 40920,
          "time": 42.625,
          "velocity": 0.6299212598425197
        },
        {
          "duration": 0.4739583333333357,
          "durationTicks": 455,
          "midi": 53,
          "name": "F3",
          "ticks": 40920,
          "time": 42.625,
          "velocity": 0.6299212598425197
        },
        {
          "duration": 0.4739583333333357,
          "durationTicks": 455,
          "midi": 48,
          "name": "C3",
          "ticks": 41400,
          "time": 43.125,
          "velocity": 0.6299212598425197
        },
        {
          "duration": 0.4739583333333357,
          "durationTicks": 455,
          "midi": 55,
          "name": "G3",
          "ticks": 41400,
          "time": 43.125,
          "velocity": 0.6299212598425197
        },
        {
          "duration": 0.4739583333333357,
          "durationTicks": 455,
          "midi": 48,
          "name": "C3",
          "ticks": 41880,
          "time": 43.625,
          "velocity": 0.6299212598425197
        },
        {
          "duration": 0.4739583333333357,
          "durationTicks": 455,
          "midi": 55,
          "name": "G3",
          "ticks": 41880,
          "time": 43.625,
          "velocity": 0.6299212598425197
        },
        {
          "duration": 0.4739583333333357,
          "durationTicks": 455,
          "midi": 45,
          "name": "A2",
          "ticks": 42360,
          "time": 44.125,
          "velocity": 0.6299212598425197
        },
        {
          "duration": 0.4739583333333357,
          "durationTicks": 455,
          "midi": 50,
          "name": "D3",
          "ticks": 42360,
          "time": 44.125,
          "velocity": 0.6299212598425197
        },
        {
          "duration": 0.35520833333333,
          "durationTicks": 341,
          "midi": 45,
          "name": "A2",
          "ticks": 42840,
          "time": 44.625,
          "velocity": 0.6299212598425197
        },
        {
          "duration": 0.35520833333333,
          "durationTicks": 341,
          "midi": 50,
          "name": "D3",
          "ticks": 42840,
          "time": 44.625,
          "velocity": 0.6299212598425197
        },
        {
          "duration": 0.11770833333333286,
          "durationTicks": 113,
          "midi": 43,
          "name": "G2",
          "ticks": 43200,
          "time": 45,
          "velocity": 0.6299212598425197
        },
        {
          "duration": 0.11770833333333286,
          "durationTicks": 113,
          "midi": 48,
          "name": "C3",
          "ticks": 43200,
          "time": 45,
          "velocity": 0.6299212598425197
        },
        {
          "duration": 0.4989583333333343,
          "durationTicks": 479,
          "midi": 38,
          "name": "D2",
          "ticks": 43320,
          "time": 45.125,
          "velocity": 0.6299212598425197
        },
        {
          "duration": 0.4322916666666714,
          "durationTicks": 415,
          "midi": 45,
          "name": "A2",
          "ticks": 43383,
          "time": 45.190625,
          "velocity": 0.6299212598425197
        },
        {
          "duration": 0.3656250000000014,
          "durationTicks": 351,
          "midi": 50,
          "name": "D3",
          "ticks": 43447,
          "time": 45.25729166666667,
          "velocity": 0.6299212598425197
        },
        {
          "duration": 0.23645833333333144,
          "durationTicks": 227,
          "midi": 43,
          "name": "G2",
          "ticks": 43800,
          "time": 45.625,
          "velocity": 0.6299212598425197
        },
        {
          "duration": 0.23645833333333144,
          "durationTicks": 227,
          "midi": 55,
          "name": "G3",
          "ticks": 43800,
          "time": 45.625,
          "velocity": 0.6299212598425197
        },
        {
          "duration": 0.23645833333333144,
          "durationTicks": 227,
          "midi": 45,
          "name": "A2",
          "ticks": 44040,
          "time": 45.875,
          "velocity": 0.6299212598425197
        },
        {
          "duration": 0.23645833333333144,
          "durationTicks": 227,
          "midi": 57,
          "name": "A3",
          "ticks": 44040,
          "time": 45.875,
          "velocity": 0.6299212598425197
        },
        {
          "duration": 0.4739583333333357,
          "durationTicks": 455,
          "midi": 45,
          "name": "A2",
          "ticks": 44280,
          "time": 46.125,
          "velocity": 0.6299212598425197
        },
        {
          "duration": 0.4739583333333357,
          "durationTicks": 455,
          "midi": 50,
          "name": "D3",
          "ticks": 44280,
          "time": 46.125,
          "velocity": 0.6299212598425197
        },
        {
          "duration": 0.4739583333333357,
          "durationTicks": 455,
          "midi": 50,
          "name": "D3",
          "ticks": 44760,
          "time": 46.625,
          "velocity": 0.6299212598425197
        },
        {
          "duration": 0.4739583333333357,
          "durationTicks": 455,
          "midi": 53,
          "name": "F3",
          "ticks": 44760,
          "time": 46.625,
          "velocity": 0.6299212598425197
        },
        {
          "duration": 0.4739583333333357,
          "durationTicks": 455,
          "midi": 48,
          "name": "C3",
          "ticks": 45240,
          "time": 47.125,
          "velocity": 0.6299212598425197
        },
        {
          "duration": 0.4739583333333357,
          "durationTicks": 455,
          "midi": 55,
          "name": "G3",
          "ticks": 45240,
          "time": 47.125,
          "velocity": 0.6299212598425197
        },
        {
          "duration": 0.4739583333333357,
          "durationTicks": 455,
          "midi": 43,
          "name": "G2",
          "ticks": 45720,
          "time": 47.625,
          "velocity": 0.6299212598425197
        },
        {
          "duration": 0.4739583333333357,
          "durationTicks": 455,
          "midi": 52,
          "name": "E3",
          "ticks": 45720,
          "time": 47.625,
          "velocity": 0.6299212598425197
        },
        {
          "duration": 0.4739583333333357,
          "durationTicks": 455,
          "midi": 45,
          "name": "A2",
          "ticks": 46200,
          "time": 48.125,
          "velocity": 0.6299212598425197
        },
        {
          "duration": 0.4739583333333357,
          "durationTicks": 455,
          "midi": 50,
          "name": "D3",
          "ticks": 46200,
          "time": 48.125,
          "velocity": 0.6299212598425197
        },
        {
          "duration": 0.35520833333333,
          "durationTicks": 341,
          "midi": 45,
          "name": "A2",
          "ticks": 46680,
          "time": 48.625,
          "velocity": 0.6299212598425197
        },
        {
          "duration": 0.35520833333333,
          "durationTicks": 341,
          "midi": 50,
          "name": "D3",
          "ticks": 46680,
          "time": 48.625,
          "velocity": 0.6299212598425197
        },
        {
          "duration": 0.11770833333333286,
          "durationTicks": 113,
          "midi": 43,
          "name": "G2",
          "ticks": 47040,
          "time": 49,
          "velocity": 0.6299212598425197
        },
        {
          "duration": 0.11770833333333286,
          "durationTicks": 113,
          "midi": 48,
          "name": "C3",
          "ticks": 47040,
          "time": 49,
          "velocity": 0.6299212598425197
        },
        {
          "duration": 0.4739583333333357,
          "durationTicks": 455,
          "midi": 38,
          "name": "D2",
          "ticks": 47160,
          "time": 49.125,
          "velocity": 0.6299212598425197
        },
        {
          "duration": 0.4739583333333357,
          "durationTicks": 455,
          "midi": 45,
          "name": "A2",
          "ticks": 47160,
          "time": 49.125,
          "velocity": 0.6299212598425197
        },
        {
          "duration": 0.4739583333333357,
          "durationTicks": 455,
          "midi": 50,
          "name": "D3",
          "ticks": 47160,
          "time": 49.125,
          "velocity": 0.6299212598425197
        },
        {
          "duration": 0.23645833333333144,
          "durationTicks": 227,
          "midi": 43,
          "name": "G2",
          "ticks": 47640,
          "time": 49.625,
          "velocity": 0.6299212598425197
        },
        {
          "duration": 0.23645833333333144,
          "durationTicks": 227,
          "midi": 55,
          "name": "G3",
          "ticks": 47640,
          "time": 49.625,
          "velocity": 0.6299212598425197
        },
        {
          "duration": 0.23645833333333144,
          "durationTicks": 227,
          "midi": 45,
          "name": "A2",
          "ticks": 47880,
          "time": 49.875,
          "velocity": 0.6299212598425197
        },
        {
          "duration": 0.23645833333333144,
          "durationTicks": 227,
          "midi": 57,
          "name": "A3",
          "ticks": 47880,
          "time": 49.875,
          "velocity": 0.6299212598425197
        },
        {
          "duration": 0.4739583333333357,
          "durationTicks": 455,
          "midi": 50,
          "name": "D3",
          "ticks": 48120,
          "time": 50.125,
          "velocity": 0.6299212598425197
        },
        {
          "duration": 0.4739583333333357,
          "durationTicks": 455,
          "midi": 53,
          "name": "F3",
          "ticks": 48120,
          "time": 50.125,
          "velocity": 0.6299212598425197
        },
        {
          "duration": 0.4739583333333357,
          "durationTicks": 455,
          "midi": 50,
          "name": "D3",
          "ticks": 48600,
          "time": 50.625,
          "velocity": 0.6299212598425197
        },
        {
          "duration": 0.4739583333333357,
          "durationTicks": 455,
          "midi": 53,
          "name": "F3",
          "ticks": 48600,
          "time": 50.625,
          "velocity": 0.6299212598425197
        },
        {
          "duration": 0.4739583333333357,
          "durationTicks": 455,
          "midi": 46,
          "name": "A#2",
          "ticks": 49080,
          "time": 51.125,
          "velocity": 0.6299212598425197
        },
        {
          "duration": 0.4739583333333357,
          "durationTicks": 455,
          "midi": 53,
          "name": "F3",
          "ticks": 49080,
          "time": 51.125,
          "velocity": 0.6299212598425197
        },
        {
          "duration": 0.4739583333333357,
          "durationTicks": 455,
          "midi": 48,
          "name": "C3",
          "ticks": 49560,
          "time": 51.625,
          "velocity": 0.6299212598425197
        },
        {
          "duration": 0.4739583333333357,
          "durationTicks": 455,
          "midi": 52,
          "name": "E3",
          "ticks": 49560,
          "time": 51.625,
          "velocity": 0.6299212598425197
        },
        {
          "duration": 0.4739583333333357,
          "durationTicks": 455,
          "midi": 45,
          "name": "A2",
          "ticks": 50040,
          "time": 52.125,
          "velocity": 0.6299212598425197
        },
        {
          "duration": 0.4739583333333357,
          "durationTicks": 455,
          "midi": 50,
          "name": "D3",
          "ticks": 50040,
          "time": 52.125,
          "velocity": 0.6299212598425197
        },
        {
          "duration": 0.35520833333333,
          "durationTicks": 341,
          "midi": 45,
          "name": "A2",
          "ticks": 50520,
          "time": 52.625,
          "velocity": 0.6299212598425197
        },
        {
          "duration": 0.35520833333333,
          "durationTicks": 341,
          "midi": 50,
          "name": "D3",
          "ticks": 50520,
          "time": 52.625,
          "velocity": 0.6299212598425197
        },
        {
          "duration": 0.11770833333333286,
          "durationTicks": 113,
          "midi": 43,
          "name": "G2",
          "ticks": 50880,
          "time": 53,
          "velocity": 0.6299212598425197
        },
        {
          "duration": 0.11770833333333286,
          "durationTicks": 113,
          "midi": 48,
          "name": "C3",
          "ticks": 50880,
          "time": 53,
          "velocity": 0.6299212598425197
        },
        {
          "duration": 0.4739583333333357,
          "durationTicks": 455,
          "midi": 38,
          "name": "D2",
          "ticks": 51000,
          "time": 53.125,
          "velocity": 0.6299212598425197
        },
        {
          "duration": 0.4739583333333357,
          "durationTicks": 455,
          "midi": 45,
          "name": "A2",
          "ticks": 51000,
          "time": 53.125,
          "velocity": 0.6299212598425197
        },
        {
          "duration": 0.4739583333333357,
          "durationTicks": 455,
          "midi": 50,
          "name": "D3",
          "ticks": 51000,
          "time": 53.125,
          "velocity": 0.6299212598425197
        },
        {
          "duration": 0.23645833333333144,
          "durationTicks": 227,
          "midi": 43,
          "name": "G2",
          "ticks": 51720,
          "time": 53.875,
          "velocity": 0.6299212598425197
        },
        {
          "duration": 0.23645833333333144,
          "durationTicks": 227,
          "midi": 55,
          "name": "G3",
          "ticks": 51720,
          "time": 53.875,
          "velocity": 0.6299212598425197
        },
        {
          "duration": 0.23645833333333144,
          "durationTicks": 227,
          "midi": 45,
          "name": "A2",
          "ticks": 51960,
          "time": 54.125,
          "velocity": 0.6299212598425197
        },
        {
          "duration": 0.23645833333333144,
          "durationTicks": 227,
          "midi": 57,
          "name": "A3",
          "ticks": 51960,
          "time": 54.125,
          "velocity": 0.6299212598425197
        },
        {
          "duration": 0.4739583333333357,
          "durationTicks": 455,
          "midi": 45,
          "name": "A2",
          "ticks": 52200,
          "time": 54.375,
          "velocity": 0.6299212598425197
        },
        {
          "duration": 0.4739583333333357,
          "durationTicks": 455,
          "midi": 50,
          "name": "D3",
          "ticks": 52200,
          "time": 54.375,
          "velocity": 0.6299212598425197
        },
        {
          "duration": 0.4739583333333357,
          "durationTicks": 455,
          "midi": 50,
          "name": "D3",
          "ticks": 52680,
          "time": 54.875,
          "velocity": 0.6299212598425197
        },
        {
          "duration": 0.4739583333333357,
          "durationTicks": 455,
          "midi": 53,
          "name": "F3",
          "ticks": 52680,
          "time": 54.875,
          "velocity": 0.6299212598425197
        },
        {
          "duration": 0.4739583333333357,
          "durationTicks": 455,
          "midi": 48,
          "name": "C3",
          "ticks": 53160,
          "time": 55.375,
          "velocity": 0.6299212598425197
        },
        {
          "duration": 0.4739583333333357,
          "durationTicks": 455,
          "midi": 55,
          "name": "G3",
          "ticks": 53160,
          "time": 55.375,
          "velocity": 0.6299212598425197
        },
        {
          "duration": 0.4739583333333357,
          "durationTicks": 455,
          "midi": 43,
          "name": "G2",
          "ticks": 53640,
          "time": 55.875,
          "velocity": 0.6299212598425197
        },
        {
          "duration": 0.4739583333333357,
          "durationTicks": 455,
          "midi": 52,
          "name": "E3",
          "ticks": 53640,
          "time": 55.875,
          "velocity": 0.6299212598425197
        },
        {
          "duration": 0.4739583333333357,
          "durationTicks": 455,
          "midi": 46,
          "name": "A#2",
          "ticks": 54120,
          "time": 56.375,
          "velocity": 0.6299212598425197
        },
        {
          "duration": 0.4739583333333357,
          "durationTicks": 455,
          "midi": 50,
          "name": "D3",
          "ticks": 54120,
          "time": 56.375,
          "velocity": 0.6299212598425197
        },
        {
          "duration": 0.4739583333333357,
          "durationTicks": 455,
          "midi": 46,
          "name": "A#2",
          "ticks": 54600,
          "time": 56.875,
          "velocity": 0.6299212598425197
        },
        {
          "duration": 0.4739583333333357,
          "durationTicks": 455,
          "midi": 50,
          "name": "D3",
          "ticks": 54600,
          "time": 56.875,
          "velocity": 0.6299212598425197
        },
        {
          "duration": 0.4739583333333357,
          "durationTicks": 455,
          "midi": 46,
          "name": "A#2",
          "ticks": 55080,
          "time": 57.375,
          "velocity": 0.6299212598425197
        },
        {
          "duration": 0.4739583333333357,
          "durationTicks": 455,
          "midi": 50,
          "name": "D3",
          "ticks": 55080,
          "time": 57.375,
          "velocity": 0.6299212598425197
        },
        {
          "duration": 0.4739583333333357,
          "durationTicks": 455,
          "midi": 46,
          "name": "A#2",
          "ticks": 55560,
          "time": 57.875,
          "velocity": 0.6299212598425197
        },
        {
          "duration": 0.4739583333333357,
          "durationTicks": 455,
          "midi": 50,
          "name": "D3",
          "ticks": 55560,
          "time": 57.875,
          "velocity": 0.6299212598425197
        },
        {
          "duration": 0.4739583333333357,
          "durationTicks": 455,
          "midi": 48,
          "name": "C3",
          "ticks": 56040,
          "time": 58.375,
          "velocity": 0.6299212598425197
        },
        {
          "duration": 0.4739583333333357,
          "durationTicks": 455,
          "midi": 52,
          "name": "E3",
          "ticks": 56040,
          "time": 58.375,
          "velocity": 0.6299212598425197
        },
        {
          "duration": 0.4739583333333357,
          "durationTicks": 455,
          "midi": 48,
          "name": "C3",
          "ticks": 56520,
          "time": 58.875,
          "velocity": 0.6299212598425197
        },
        {
          "duration": 0.4739583333333357,
          "durationTicks": 455,
          "midi": 52,
          "name": "E3",
          "ticks": 56520,
          "time": 58.875,
          "velocity": 0.6299212598425197
        },
        {
          "duration": 0.4739583333333357,
          "durationTicks": 455,
          "midi": 48,
          "name": "C3",
          "ticks": 57000,
          "time": 59.375,
          "velocity": 0.6299212598425197
        },
        {
          "duration": 0.4739583333333357,
          "durationTicks": 455,
          "midi": 52,
          "name": "E3",
          "ticks": 57000,
          "time": 59.375,
          "velocity": 0.6299212598425197
        },
        {
          "duration": 0.4739583333333357,
          "durationTicks": 455,
          "midi": 48,
          "name": "C3",
          "ticks": 57480,
          "time": 59.875,
          "velocity": 0.6299212598425197
        },
        {
          "duration": 0.4739583333333357,
          "durationTicks": 455,
          "midi": 52,
          "name": "E3",
          "ticks": 57480,
          "time": 59.875,
          "velocity": 0.6299212598425197
        },
        {
          "duration": 0.4739583333333357,
          "durationTicks": 455,
          "midi": 46,
          "name": "A#2",
          "ticks": 57960,
          "time": 60.375,
          "velocity": 0.6299212598425197
        },
        {
          "duration": 0.4739583333333357,
          "durationTicks": 455,
          "midi": 50,
          "name": "D3",
          "ticks": 57960,
          "time": 60.375,
          "velocity": 0.6299212598425197
        },
        {
          "duration": 0.4739583333333357,
          "durationTicks": 455,
          "midi": 46,
          "name": "A#2",
          "ticks": 58440,
          "time": 60.875,
          "velocity": 0.6299212598425197
        },
        {
          "duration": 0.4739583333333357,
          "durationTicks": 455,
          "midi": 50,
          "name": "D3",
          "ticks": 58440,
          "time": 60.875,
          "velocity": 0.6299212598425197
        },
        {
          "duration": 0.4739583333333357,
          "durationTicks": 455,
          "midi": 48,
          "name": "C3",
          "ticks": 58920,
          "time": 61.375,
          "velocity": 0.6299212598425197
        },
        {
          "duration": 0.4739583333333357,
          "durationTicks": 455,
          "midi": 52,
          "name": "E3",
          "ticks": 58920,
          "time": 61.375,
          "velocity": 0.6299212598425197
        },
        {
          "duration": 0.4739583333333357,
          "durationTicks": 455,
          "midi": 48,
          "name": "C3",
          "ticks": 59400,
          "time": 61.875,
          "velocity": 0.6299212598425197
        },
        {
          "duration": 0.4739583333333357,
          "durationTicks": 455,
          "midi": 52,
          "name": "E3",
          "ticks": 59400,
          "time": 61.875,
          "velocity": 0.6299212598425197
        },
        {
          "duration": 0.4739583333333357,
          "durationTicks": 455,
          "midi": 50,
          "name": "D3",
          "ticks": 59880,
          "time": 62.375,
          "velocity": 0.6299212598425197
        },
        {
          "duration": 0.4739583333333357,
          "durationTicks": 455,
          "midi": 53,
          "name": "F3",
          "ticks": 59880,
          "time": 62.375,
          "velocity": 0.6299212598425197
        },
        {
          "duration": 0.4739583333333357,
          "durationTicks": 455,
          "midi": 48,
          "name": "C3",
          "ticks": 60360,
          "time": 62.875,
          "velocity": 0.6299212598425197
        },
        {
          "duration": 0.4739583333333357,
          "durationTicks": 455,
          "midi": 52,
          "name": "E3",
          "ticks": 60360,
          "time": 62.875,
          "velocity": 0.6299212598425197
        },
        {
          "duration": 0.4739583333333357,
          "durationTicks": 455,
          "midi": 46,
          "name": "A#2",
          "ticks": 60840,
          "time": 63.375,
          "velocity": 0.6299212598425197
        },
        {
          "duration": 0.4739583333333357,
          "durationTicks": 455,
          "midi": 50,
          "name": "D3",
          "ticks": 60840,
          "time": 63.375,
          "velocity": 0.6299212598425197
        },
        {
          "duration": 0.4739583333333286,
          "durationTicks": 455,
          "midi": 45,
          "name": "A2",
          "ticks": 61320,
          "time": 63.875,
          "velocity": 0.6299212598425197
        },
        {
          "duration": 0.4739583333333286,
          "durationTicks": 455,
          "midi": 48,
          "name": "C3",
          "ticks": 61320,
          "time": 63.875,
          "velocity": 0.6299212598425197
        },
        {
          "duration": 0.4739583333333286,
          "durationTicks": 455,
          "midi": 50,
          "name": "D3",
          "ticks": 61800,
          "time": 64.375,
          "velocity": 0.6299212598425197
        },
        {
          "duration": 0.4739583333333286,
          "durationTicks": 455,
          "midi": 53,
          "name": "F3",
          "ticks": 61800,
          "time": 64.375,
          "velocity": 0.6299212598425197
        },
        {
          "duration": 0.4739583333333286,
          "durationTicks": 455,
          "midi": 50,
          "name": "D3",
          "ticks": 62280,
          "time": 64.875,
          "velocity": 0.6299212598425197
        },
        {
          "duration": 0.4739583333333286,
          "durationTicks": 455,
          "midi": 55,
          "name": "G3",
          "ticks": 62280,
          "time": 64.875,
          "velocity": 0.6299212598425197
        },
        {
          "duration": 0.4739583333333286,
          "durationTicks": 455,
          "midi": 50,
          "name": "D3",
          "ticks": 62760,
          "time": 65.375,
          "velocity": 0.6299212598425197
        },
        {
          "duration": 0.4739583333333286,
          "durationTicks": 455,
          "midi": 57,
          "name": "A3",
          "ticks": 62760,
          "time": 65.375,
          "velocity": 0.6299212598425197
        },
        {
          "duration": 0.4739583333333286,
          "durationTicks": 455,
          "midi": 50,
          "name": "D3",
          "ticks": 63240,
          "time": 65.875,
          "velocity": 0.6299212598425197
        },
        {
          "duration": 0.4739583333333286,
          "durationTicks": 455,
          "midi": 55,
          "name": "G3",
          "ticks": 63240,
          "time": 65.875,
          "velocity": 0.6299212598425197
        },
        {
          "duration": 0.4739583333333286,
          "durationTicks": 455,
          "midi": 48,
          "name": "C3",
          "ticks": 63720,
          "time": 66.375,
          "velocity": 0.6299212598425197
        },
        {
          "duration": 0.4739583333333286,
          "durationTicks": 455,
          "midi": 52,
          "name": "E3",
          "ticks": 63720,
          "time": 66.375,
          "velocity": 0.6299212598425197
        },
        {
          "duration": 0.4739583333333286,
          "durationTicks": 455,
          "midi": 48,
          "name": "C3",
          "ticks": 64200,
          "time": 66.875,
          "velocity": 0.6299212598425197
        },
        {
          "duration": 0.4739583333333286,
          "durationTicks": 455,
          "midi": 52,
          "name": "E3",
          "ticks": 64200,
          "time": 66.875,
          "velocity": 0.6299212598425197
        },
        {
          "duration": 0.4739583333333286,
          "durationTicks": 455,
          "midi": 50,
          "name": "D3",
          "ticks": 64680,
          "time": 67.375,
          "velocity": 0.6299212598425197
        },
        {
          "duration": 0.4739583333333286,
          "durationTicks": 455,
          "midi": 53,
          "name": "F3",
          "ticks": 64680,
          "time": 67.375,
          "velocity": 0.6299212598425197
        },
        {
          "duration": 0.4739583333333286,
          "durationTicks": 455,
          "midi": 50,
          "name": "D3",
          "ticks": 65160,
          "time": 67.875,
          "velocity": 0.6299212598425197
        },
        {
          "duration": 0.4739583333333286,
          "durationTicks": 455,
          "midi": 53,
          "name": "F3",
          "ticks": 65160,
          "time": 67.875,
          "velocity": 0.6299212598425197
        },
        {
          "duration": 0.23645833333333144,
          "durationTicks": 227,
          "midi": 46,
          "name": "A#2",
          "ticks": 65640,
          "time": 68.375,
          "velocity": 0.6299212598425197
        },
        {
          "duration": 0.23645833333333144,
          "durationTicks": 227,
          "midi": 50,
          "name": "D3",
          "ticks": 65640,
          "time": 68.375,
          "velocity": 0.6299212598425197
        },
        {
          "duration": 0.23645833333333144,
          "durationTicks": 227,
          "midi": 46,
          "name": "A#2",
          "ticks": 65880,
          "time": 68.625,
          "velocity": 0.6299212598425197
        },
        {
          "duration": 0.23645833333333144,
          "durationTicks": 227,
          "midi": 50,
          "name": "D3",
          "ticks": 65880,
          "time": 68.625,
          "velocity": 0.6299212598425197
        },
        {
          "duration": 0.23645833333333144,
          "durationTicks": 227,
          "midi": 43,
          "name": "G2",
          "ticks": 66360,
          "time": 69.125,
          "velocity": 0.6299212598425197
        },
        {
          "duration": 0.23645833333333144,
          "durationTicks": 227,
          "midi": 50,
          "name": "D3",
          "ticks": 66360,
          "time": 69.125,
          "velocity": 0.6299212598425197
        },
        {
          "duration": 0.4739583333333286,
          "durationTicks": 455,
          "midi": 50,
          "name": "D3",
          "ticks": 66600,
          "time": 69.375,
          "velocity": 0.6299212598425197
        },
        {
          "duration": 0.4739583333333286,
          "durationTicks": 455,
          "midi": 55,
          "name": "G3",
          "ticks": 66600,
          "time": 69.375,
          "velocity": 0.6299212598425197
        },
        {
          "duration": 0.4739583333333286,
          "durationTicks": 455,
          "midi": 52,
          "name": "E3",
          "ticks": 67080,
          "time": 69.875,
          "velocity": 0.6299212598425197
        },
        {
          "duration": 0.4739583333333286,
          "durationTicks": 455,
          "midi": 57,
          "name": "A3",
          "ticks": 67080,
          "time": 69.875,
          "velocity": 0.6299212598425197
        },
        {
          "duration": 0.23645833333333144,
          "durationTicks": 227,
          "midi": 45,
          "name": "A2",
          "ticks": 67560,
          "time": 70.375,
          "velocity": 0.6299212598425197
        },
        {
          "duration": 0.23645833333333144,
          "durationTicks": 227,
          "midi": 52,
          "name": "E3",
          "ticks": 67560,
          "time": 70.375,
          "velocity": 0.6299212598425197
        },
        {
          "duration": 0.23645833333333144,
          "durationTicks": 227,
          "midi": 45,
          "name": "A2",
          "ticks": 67800,
          "time": 70.625,
          "velocity": 0.6299212598425197
        },
        {
          "duration": 0.23645833333333144,
          "durationTicks": 227,
          "midi": 52,
          "name": "E3",
          "ticks": 67800,
          "time": 70.625,
          "velocity": 0.6299212598425197
        },
        {
          "duration": 0.23645833333333144,
          "durationTicks": 227,
          "midi": 45,
          "name": "A2",
          "ticks": 68040,
          "time": 70.875,
          "velocity": 0.6299212598425197
        },
        {
          "duration": 0.23645833333333144,
          "durationTicks": 227,
          "midi": 52,
          "name": "E3",
          "ticks": 68040,
          "time": 70.875,
          "velocity": 0.6299212598425197
        },
        {
          "duration": 0.23645833333333144,
          "durationTicks": 227,
          "midi": 45,
          "name": "A2",
          "ticks": 68280,
          "time": 71.125,
          "velocity": 0.6299212598425197
        },
        {
          "duration": 0.23645833333333144,
          "durationTicks": 227,
          "midi": 52,
          "name": "E3",
          "ticks": 68280,
          "time": 71.125,
          "velocity": 0.6299212598425197
        },
        {
          "duration": 0.9489583333333371,
          "durationTicks": 911,
          "midi": 45,
          "name": "A2",
          "ticks": 68520,
          "time": 71.375,
          "velocity": 0.6299212598425197
        },
        {
          "duration": 0.9489583333333371,
          "durationTicks": 911,
          "midi": 52,
          "name": "E3",
          "ticks": 68520,
          "time": 71.375,
          "velocity": 0.6299212598425197
        },
        {
          "duration": 0.23645833333333144,
          "durationTicks": 227,
          "midi": 45,
          "name": "A2",
          "ticks": 69480,
          "time": 72.375,
          "velocity": 0.6299212598425197
        },
        {
          "duration": 0.23645833333333144,
          "durationTicks": 227,
          "midi": 50,
          "name": "D3",
          "ticks": 69480,
          "time": 72.375,
          "velocity": 0.6299212598425197
        },
        {
          "duration": 0.23645833333333144,
          "durationTicks": 227,
          "midi": 45,
          "name": "A2",
          "ticks": 69720,
          "time": 72.625,
          "velocity": 0.6299212598425197
        },
        {
          "duration": 0.23645833333333144,
          "durationTicks": 227,
          "midi": 53,
          "name": "F3",
          "ticks": 69960,
          "time": 72.875,
          "velocity": 0.6299212598425197
        },
        {
          "duration": 0.23645833333333144,
          "durationTicks": 227,
          "midi": 45,
          "name": "A2",
          "ticks": 70200,
          "time": 73.125,
          "velocity": 0.6299212598425197
        },
        {
          "duration": 0.23645833333333144,
          "durationTicks": 227,
          "midi": 50,
          "name": "D3",
          "ticks": 70440,
          "time": 73.375,
          "velocity": 0.6299212598425197
        },
        {
          "duration": 0.23645833333333144,
          "durationTicks": 227,
          "midi": 46,
          "name": "A#2",
          "ticks": 70680,
          "time": 73.625,
          "velocity": 0.6299212598425197
        },
        {
          "duration": 0.23645833333333144,
          "durationTicks": 227,
          "midi": 53,
          "name": "F3",
          "ticks": 70920,
          "time": 73.875,
          "velocity": 0.6299212598425197
        },
        {
          "duration": 0.23645833333333144,
          "durationTicks": 227,
          "midi": 46,
          "name": "A#2",
          "ticks": 71160,
          "time": 74.125,
          "velocity": 0.6299212598425197
        },
        {
          "duration": 0.23645833333333144,
          "durationTicks": 227,
          "midi": 48,
          "name": "C3",
          "ticks": 71400,
          "time": 74.375,
          "velocity": 0.6299212598425197
        },
        {
          "duration": 0.23645833333333144,
          "durationTicks": 227,
          "midi": 55,
          "name": "G3",
          "ticks": 71640,
          "time": 74.625,
          "velocity": 0.6299212598425197
        },
        {
          "duration": 0.23645833333333144,
          "durationTicks": 227,
          "midi": 60,
          "name": "C4",
          "ticks": 71880,
          "time": 74.875,
          "velocity": 0.6299212598425197
        },
        {
          "duration": 0.23645833333333144,
          "durationTicks": 227,
          "midi": 55,
          "name": "G3",
          "ticks": 72120,
          "time": 75.125,
          "velocity": 0.6299212598425197
        },
        {
          "duration": 0.23645833333333144,
          "durationTicks": 227,
          "midi": 53,
          "name": "F3",
          "ticks": 72360,
          "time": 75.375,
          "velocity": 0.6299212598425197
        },
        {
          "duration": 0.23645833333333144,
          "durationTicks": 227,
          "midi": 57,
          "name": "A3",
          "ticks": 72600,
          "time": 75.625,
          "velocity": 0.6299212598425197
        },
        {
          "duration": 0.23645833333333144,
          "durationTicks": 227,
          "midi": 53,
          "name": "F3",
          "ticks": 72840,
          "time": 75.875,
          "velocity": 0.6299212598425197
        },
        {
          "duration": 0.23645833333333144,
          "durationTicks": 227,
          "midi": 48,
          "name": "C3",
          "ticks": 73080,
          "time": 76.125,
          "velocity": 0.6299212598425197
        },
        {
          "duration": 0.23645833333333144,
          "durationTicks": 227,
          "midi": 45,
          "name": "A2",
          "ticks": 73320,
          "time": 76.375,
          "velocity": 0.6299212598425197
        },
        {
          "duration": 0.23645833333333144,
          "durationTicks": 227,
          "midi": 50,
          "name": "D3",
          "ticks": 73320,
          "time": 76.375,
          "velocity": 0.6299212598425197
        },
        {
          "duration": 0.23645833333333144,
          "durationTicks": 227,
          "midi": 45,
          "name": "A2",
          "ticks": 73560,
          "time": 76.625,
          "velocity": 0.6299212598425197
        },
        {
          "duration": 0.23645833333333144,
          "durationTicks": 227,
          "midi": 53,
          "name": "F3",
          "ticks": 73800,
          "time": 76.875,
          "velocity": 0.6299212598425197
        },
        {
          "duration": 0.23645833333333144,
          "durationTicks": 227,
          "midi": 45,
          "name": "A2",
          "ticks": 74040,
          "time": 77.125,
          "velocity": 0.6299212598425197
        },
        {
          "duration": 0.23645833333333144,
          "durationTicks": 227,
          "midi": 50,
          "name": "D3",
          "ticks": 74280,
          "time": 77.375,
          "velocity": 0.6299212598425197
        },
        {
          "duration": 0.23645833333333144,
          "durationTicks": 227,
          "midi": 46,
          "name": "A#2",
          "ticks": 74520,
          "time": 77.625,
          "velocity": 0.6299212598425197
        },
        {
          "duration": 0.23645833333333144,
          "durationTicks": 227,
          "midi": 53,
          "name": "F3",
          "ticks": 74760,
          "time": 77.875,
          "velocity": 0.6299212598425197
        },
        {
          "duration": 0.23645833333333144,
          "durationTicks": 227,
          "midi": 46,
          "name": "A#2",
          "ticks": 75000,
          "time": 78.125,
          "velocity": 0.6299212598425197
        },
        {
          "duration": 0.23645833333333144,
          "durationTicks": 227,
          "midi": 48,
          "name": "C3",
          "ticks": 75240,
          "time": 78.375,
          "velocity": 0.6299212598425197
        },
        {
          "duration": 0.23645833333333144,
          "durationTicks": 227,
          "midi": 55,
          "name": "G3",
          "ticks": 75480,
          "time": 78.625,
          "velocity": 0.6299212598425197
        },
        {
          "duration": 0.23645833333333144,
          "durationTicks": 227,
          "midi": 60,
          "name": "C4",
          "ticks": 75720,
          "time": 78.875,
          "velocity": 0.6299212598425197
        },
        {
          "duration": 0.23645833333333144,
          "durationTicks": 227,
          "midi": 55,
          "name": "G3",
          "ticks": 75960,
          "time": 79.125,
          "velocity": 0.6299212598425197
        },
        {
          "duration": 0.23645833333333144,
          "durationTicks": 227,
          "midi": 53,
          "name": "F3",
          "ticks": 76200,
          "time": 79.375,
          "velocity": 0.6299212598425197
        },
        {
          "duration": 0.23645833333333144,
          "durationTicks": 227,
          "midi": 57,
          "name": "A3",
          "ticks": 76440,
          "time": 79.625,
          "velocity": 0.6299212598425197
        },
        {
          "duration": 0.23645833333333144,
          "durationTicks": 227,
          "midi": 53,
          "name": "F3",
          "ticks": 76680,
          "time": 79.875,
          "velocity": 0.6299212598425197
        },
        {
          "duration": 0.23645833333333144,
          "durationTicks": 227,
          "midi": 48,
          "name": "C3",
          "ticks": 76920,
          "time": 80.125,
          "velocity": 0.6299212598425197
        },
        {
          "duration": 0.23645833333333144,
          "durationTicks": 227,
          "midi": 45,
          "name": "A2",
          "ticks": 77160,
          "time": 80.375,
          "velocity": 0.6299212598425197
        },
        {
          "duration": 0.23645833333333144,
          "durationTicks": 227,
          "midi": 50,
          "name": "D3",
          "ticks": 77160,
          "time": 80.375,
          "velocity": 0.6299212598425197
        },
        {
          "duration": 0.23645833333333144,
          "durationTicks": 227,
          "midi": 45,
          "name": "A2",
          "ticks": 77400,
          "time": 80.625,
          "velocity": 0.6299212598425197
        },
        {
          "duration": 0.23645833333333144,
          "durationTicks": 227,
          "midi": 53,
          "name": "F3",
          "ticks": 77640,
          "time": 80.875,
          "velocity": 0.6299212598425197
        },
        {
          "duration": 0.23645833333333144,
          "durationTicks": 227,
          "midi": 45,
          "name": "A2",
          "ticks": 77880,
          "time": 81.125,
          "velocity": 0.6299212598425197
        },
        {
          "duration": 0.23645833333333144,
          "durationTicks": 227,
          "midi": 50,
          "name": "D3",
          "ticks": 78120,
          "time": 81.375,
          "velocity": 0.6299212598425197
        },
        {
          "duration": 0.23645833333333144,
          "durationTicks": 227,
          "midi": 46,
          "name": "A#2",
          "ticks": 78360,
          "time": 81.625,
          "velocity": 0.6299212598425197
        },
        {
          "duration": 0.23645833333333144,
          "durationTicks": 227,
          "midi": 53,
          "name": "F3",
          "ticks": 78600,
          "time": 81.875,
          "velocity": 0.6299212598425197
        },
        {
          "duration": 0.23645833333333144,
          "durationTicks": 227,
          "midi": 46,
          "name": "A#2",
          "ticks": 78840,
          "time": 82.125,
          "velocity": 0.6299212598425197
        },
        {
          "duration": 0.23645833333333144,
          "durationTicks": 227,
          "midi": 48,
          "name": "C3",
          "ticks": 79080,
          "time": 82.375,
          "velocity": 0.6299212598425197
        },
        {
          "duration": 0.23645833333333144,
          "durationTicks": 227,
          "midi": 55,
          "name": "G3",
          "ticks": 79320,
          "time": 82.625,
          "velocity": 0.6299212598425197
        },
        {
          "duration": 0.23645833333333144,
          "durationTicks": 227,
          "midi": 60,
          "name": "C4",
          "ticks": 79560,
          "time": 82.875,
          "velocity": 0.6299212598425197
        },
        {
          "duration": 0.23645833333333144,
          "durationTicks": 227,
          "midi": 55,
          "name": "G3",
          "ticks": 79800,
          "time": 83.125,
          "velocity": 0.6299212598425197
        },
        {
          "duration": 0.23645833333333144,
          "durationTicks": 227,
          "midi": 53,
          "name": "F3",
          "ticks": 80040,
          "time": 83.375,
          "velocity": 0.6299212598425197
        },
        {
          "duration": 0.23645833333333144,
          "durationTicks": 227,
          "midi": 57,
          "name": "A3",
          "ticks": 80280,
          "time": 83.625,
          "velocity": 0.6299212598425197
        },
        {
          "duration": 0.23645833333333144,
          "durationTicks": 227,
          "midi": 53,
          "name": "F3",
          "ticks": 80520,
          "time": 83.875,
          "velocity": 0.6299212598425197
        },
        {
          "duration": 0.23645833333333144,
          "durationTicks": 227,
          "midi": 48,
          "name": "C3",
          "ticks": 80760,
          "time": 84.125,
          "velocity": 0.6299212598425197
        },
        {
          "duration": 0.23645833333333144,
          "durationTicks": 227,
          "midi": 45,
          "name": "A2",
          "ticks": 81000,
          "time": 84.375,
          "velocity": 0.6299212598425197
        },
        {
          "duration": 0.23645833333333144,
          "durationTicks": 227,
          "midi": 50,
          "name": "D3",
          "ticks": 81000,
          "time": 84.375,
          "velocity": 0.6299212598425197
        },
        {
          "duration": 0.23645833333333144,
          "durationTicks": 227,
          "midi": 45,
          "name": "A2",
          "ticks": 81240,
          "time": 84.625,
          "velocity": 0.6299212598425197
        },
        {
          "duration": 0.23645833333333144,
          "durationTicks": 227,
          "midi": 53,
          "name": "F3",
          "ticks": 81480,
          "time": 84.875,
          "velocity": 0.6299212598425197
        },
        {
          "duration": 0.23645833333333144,
          "durationTicks": 227,
          "midi": 45,
          "name": "A2",
          "ticks": 81720,
          "time": 85.125,
          "velocity": 0.6299212598425197
        },
        {
          "duration": 0.23645833333333144,
          "durationTicks": 227,
          "midi": 50,
          "name": "D3",
          "ticks": 81960,
          "time": 85.375,
          "velocity": 0.6299212598425197
        },
        {
          "duration": 0.23645833333333144,
          "durationTicks": 227,
          "midi": 46,
          "name": "A#2",
          "ticks": 82200,
          "time": 85.625,
          "velocity": 0.6299212598425197
        },
        {
          "duration": 0.23645833333333144,
          "durationTicks": 227,
          "midi": 53,
          "name": "F3",
          "ticks": 82440,
          "time": 85.875,
          "velocity": 0.6299212598425197
        },
        {
          "duration": 0.23645833333333144,
          "durationTicks": 227,
          "midi": 46,
          "name": "A#2",
          "ticks": 82680,
          "time": 86.125,
          "velocity": 0.6299212598425197
        },
        {
          "duration": 0.23645833333333144,
          "durationTicks": 227,
          "midi": 48,
          "name": "C3",
          "ticks": 82920,
          "time": 86.375,
          "velocity": 0.6299212598425197
        },
        {
          "duration": 0.23645833333333144,
          "durationTicks": 227,
          "midi": 55,
          "name": "G3",
          "ticks": 83160,
          "time": 86.625,
          "velocity": 0.6299212598425197
        },
        {
          "duration": 0.23645833333333144,
          "durationTicks": 227,
          "midi": 60,
          "name": "C4",
          "ticks": 83400,
          "time": 86.875,
          "velocity": 0.6299212598425197
        },
        {
          "duration": 0.23645833333333144,
          "durationTicks": 227,
          "midi": 55,
          "name": "G3",
          "ticks": 83640,
          "time": 87.125,
          "velocity": 0.6299212598425197
        },
        {
          "duration": 0.4739583333333286,
          "durationTicks": 455,
          "midi": 45,
          "name": "A2",
          "ticks": 83880,
          "time": 87.375,
          "velocity": 0.6299212598425197
        },
        {
          "duration": 0.4739583333333286,
          "durationTicks": 455,
          "midi": 50,
          "name": "D3",
          "ticks": 83880,
          "time": 87.375,
          "velocity": 0.6299212598425197
        },
        {
          "duration": 0.4739583333333286,
          "durationTicks": 455,
          "midi": 53,
          "name": "F3",
          "ticks": 83880,
          "time": 87.375,
          "velocity": 0.6299212598425197
        },
        {
          "duration": 0.4739583333333286,
          "durationTicks": 455,
          "midi": 48,
          "name": "C3",
          "ticks": 84360,
          "time": 87.875,
          "velocity": 0.6299212598425197
        },
        {
          "duration": 0.4739583333333286,
          "durationTicks": 455,
          "midi": 50,
          "name": "D3",
          "ticks": 84360,
          "time": 87.875,
          "velocity": 0.6299212598425197
        },
        {
          "duration": 0.4739583333333286,
          "durationTicks": 455,
          "midi": 55,
          "name": "G3",
          "ticks": 84360,
          "time": 87.875,
          "velocity": 0.6299212598425197
        },
        {
          "duration": 0.23645833333333144,
          "durationTicks": 227,
          "midi": 45,
          "name": "A2",
          "ticks": 84840,
          "time": 88.375,
          "velocity": 0.6299212598425197
        },
        {
          "duration": 0.23645833333333144,
          "durationTicks": 227,
          "midi": 50,
          "name": "D3",
          "ticks": 84840,
          "time": 88.375,
          "velocity": 0.6299212598425197
        },
        {
          "duration": 0.23645833333333144,
          "durationTicks": 227,
          "midi": 45,
          "name": "A2",
          "ticks": 85080,
          "time": 88.625,
          "velocity": 0.6299212598425197
        },
        {
          "duration": 0.23645833333333144,
          "durationTicks": 227,
          "midi": 53,
          "name": "F3",
          "ticks": 85320,
          "time": 88.875,
          "velocity": 0.6299212598425197
        },
        {
          "duration": 0.23645833333333144,
          "durationTicks": 227,
          "midi": 45,
          "name": "A2",
          "ticks": 85560,
          "time": 89.125,
          "velocity": 0.6299212598425197
        },
        {
          "duration": 0.23645833333333144,
          "durationTicks": 227,
          "midi": 50,
          "name": "D3",
          "ticks": 85800,
          "time": 89.375,
          "velocity": 0.6299212598425197
        },
        {
          "duration": 0.23645833333333144,
          "durationTicks": 227,
          "midi": 46,
          "name": "A#2",
          "ticks": 86040,
          "time": 89.625,
          "velocity": 0.6299212598425197
        },
        {
          "duration": 0.23645833333333144,
          "durationTicks": 227,
          "midi": 53,
          "name": "F3",
          "ticks": 86280,
          "time": 89.875,
          "velocity": 0.6299212598425197
        },
        {
          "duration": 0.23645833333333144,
          "durationTicks": 227,
          "midi": 46,
          "name": "A#2",
          "ticks": 86520,
          "time": 90.125,
          "velocity": 0.6299212598425197
        },
        {
          "duration": 0.23645833333333144,
          "durationTicks": 227,
          "midi": 48,
          "name": "C3",
          "ticks": 86760,
          "time": 90.375,
          "velocity": 0.6299212598425197
        },
        {
          "duration": 0.23645833333333144,
          "durationTicks": 227,
          "midi": 55,
          "name": "G3",
          "ticks": 87000,
          "time": 90.625,
          "velocity": 0.6299212598425197
        },
        {
          "duration": 0.23645833333333144,
          "durationTicks": 227,
          "midi": 60,
          "name": "C4",
          "ticks": 87240,
          "time": 90.875,
          "velocity": 0.6299212598425197
        },
        {
          "duration": 0.23645833333333144,
          "durationTicks": 227,
          "midi": 55,
          "name": "G3",
          "ticks": 87480,
          "time": 91.125,
          "velocity": 0.6299212598425197
        },
        {
          "duration": 0.23645833333333144,
          "durationTicks": 227,
          "midi": 53,
          "name": "F3",
          "ticks": 87720,
          "time": 91.375,
          "velocity": 0.6299212598425197
        },
        {
          "duration": 0.23645833333333144,
          "durationTicks": 227,
          "midi": 57,
          "name": "A3",
          "ticks": 87960,
          "time": 91.625,
          "velocity": 0.6299212598425197
        },
        {
          "duration": 0.23645833333333144,
          "durationTicks": 227,
          "midi": 53,
          "name": "F3",
          "ticks": 88200,
          "time": 91.875,
          "velocity": 0.6299212598425197
        },
        {
          "duration": 0.23645833333333144,
          "durationTicks": 227,
          "midi": 48,
          "name": "C3",
          "ticks": 88440,
          "time": 92.125,
          "velocity": 0.6299212598425197
        },
        {
          "duration": 0.23645833333333144,
          "durationTicks": 227,
          "midi": 45,
          "name": "A2",
          "ticks": 88680,
          "time": 92.375,
          "velocity": 0.6299212598425197
        },
        {
          "duration": 0.23645833333333144,
          "durationTicks": 227,
          "midi": 50,
          "name": "D3",
          "ticks": 88680,
          "time": 92.375,
          "velocity": 0.6299212598425197
        },
        {
          "duration": 0.23645833333333144,
          "durationTicks": 227,
          "midi": 45,
          "name": "A2",
          "ticks": 88920,
          "time": 92.625,
          "velocity": 0.6299212598425197
        },
        {
          "duration": 0.23645833333333144,
          "durationTicks": 227,
          "midi": 53,
          "name": "F3",
          "ticks": 89160,
          "time": 92.875,
          "velocity": 0.6299212598425197
        },
        {
          "duration": 0.23645833333333144,
          "durationTicks": 227,
          "midi": 45,
          "name": "A2",
          "ticks": 89400,
          "time": 93.125,
          "velocity": 0.6299212598425197
        },
        {
          "duration": 0.23645833333333144,
          "durationTicks": 227,
          "midi": 50,
          "name": "D3",
          "ticks": 89640,
          "time": 93.375,
          "velocity": 0.6299212598425197
        },
        {
          "duration": 0.23645833333333144,
          "durationTicks": 227,
          "midi": 46,
          "name": "A#2",
          "ticks": 89880,
          "time": 93.625,
          "velocity": 0.6299212598425197
        },
        {
          "duration": 0.23645833333333144,
          "durationTicks": 227,
          "midi": 53,
          "name": "F3",
          "ticks": 90120,
          "time": 93.875,
          "velocity": 0.6299212598425197
        },
        {
          "duration": 0.23645833333333144,
          "durationTicks": 227,
          "midi": 46,
          "name": "A#2",
          "ticks": 90360,
          "time": 94.125,
          "velocity": 0.6299212598425197
        },
        {
          "duration": 0.23645833333333144,
          "durationTicks": 227,
          "midi": 48,
          "name": "C3",
          "ticks": 90600,
          "time": 94.375,
          "velocity": 0.6299212598425197
        },
        {
          "duration": 0.23645833333333144,
          "durationTicks": 227,
          "midi": 55,
          "name": "G3",
          "ticks": 90840,
          "time": 94.625,
          "velocity": 0.6299212598425197
        },
        {
          "duration": 0.23645833333333144,
          "durationTicks": 227,
          "midi": 60,
          "name": "C4",
          "ticks": 91080,
          "time": 94.875,
          "velocity": 0.6299212598425197
        },
        {
          "duration": 0.23645833333333144,
          "durationTicks": 227,
          "midi": 55,
          "name": "G3",
          "ticks": 91320,
          "time": 95.125,
          "velocity": 0.6299212598425197
        },
        {
          "duration": 0.23645833333333144,
          "durationTicks": 227,
          "midi": 53,
          "name": "F3",
          "ticks": 91560,
          "time": 95.375,
          "velocity": 0.6299212598425197
        },
        {
          "duration": 0.23645833333333144,
          "durationTicks": 227,
          "midi": 57,
          "name": "A3",
          "ticks": 91800,
          "time": 95.625,
          "velocity": 0.6299212598425197
        },
        {
          "duration": 0.23645833333333144,
          "durationTicks": 227,
          "midi": 53,
          "name": "F3",
          "ticks": 92040,
          "time": 95.875,
          "velocity": 0.6299212598425197
        },
        {
          "duration": 0.23645833333333144,
          "durationTicks": 227,
          "midi": 48,
          "name": "C3",
          "ticks": 92280,
          "time": 96.125,
          "velocity": 0.6299212598425197
        },
        {
          "duration": 0.23645833333333144,
          "durationTicks": 227,
          "midi": 45,
          "name": "A2",
          "ticks": 92520,
          "time": 96.375,
          "velocity": 0.6299212598425197
        },
        {
          "duration": 0.23645833333333144,
          "durationTicks": 227,
          "midi": 50,
          "name": "D3",
          "ticks": 92520,
          "time": 96.375,
          "velocity": 0.6299212598425197
        },
        {
          "duration": 0.23645833333333144,
          "durationTicks": 227,
          "midi": 45,
          "name": "A2",
          "ticks": 92760,
          "time": 96.625,
          "velocity": 0.6299212598425197
        },
        {
          "duration": 0.23645833333333144,
          "durationTicks": 227,
          "midi": 53,
          "name": "F3",
          "ticks": 93000,
          "time": 96.875,
          "velocity": 0.6299212598425197
        },
        {
          "duration": 0.23645833333333144,
          "durationTicks": 227,
          "midi": 45,
          "name": "A2",
          "ticks": 93240,
          "time": 97.125,
          "velocity": 0.6299212598425197
        },
        {
          "duration": 0.23645833333333144,
          "durationTicks": 227,
          "midi": 50,
          "name": "D3",
          "ticks": 93480,
          "time": 97.375,
          "velocity": 0.6299212598425197
        },
        {
          "duration": 0.23645833333333144,
          "durationTicks": 227,
          "midi": 46,
          "name": "A#2",
          "ticks": 93720,
          "time": 97.625,
          "velocity": 0.6299212598425197
        },
        {
          "duration": 0.23645833333333144,
          "durationTicks": 227,
          "midi": 53,
          "name": "F3",
          "ticks": 93960,
          "time": 97.875,
          "velocity": 0.6299212598425197
        },
        {
          "duration": 0.23645833333333144,
          "durationTicks": 227,
          "midi": 46,
          "name": "A#2",
          "ticks": 94200,
          "time": 98.125,
          "velocity": 0.6299212598425197
        },
        {
          "duration": 0.23645833333333144,
          "durationTicks": 227,
          "midi": 48,
          "name": "C3",
          "ticks": 94440,
          "time": 98.375,
          "velocity": 0.6299212598425197
        },
        {
          "duration": 0.23645833333333144,
          "durationTicks": 227,
          "midi": 55,
          "name": "G3",
          "ticks": 94680,
          "time": 98.625,
          "velocity": 0.6299212598425197
        },
        {
          "duration": 0.23645833333333144,
          "durationTicks": 227,
          "midi": 60,
          "name": "C4",
          "ticks": 94920,
          "time": 98.875,
          "velocity": 0.6299212598425197
        },
        {
          "duration": 0.23645833333333144,
          "durationTicks": 227,
          "midi": 55,
          "name": "G3",
          "ticks": 95160,
          "time": 99.125,
          "velocity": 0.6299212598425197
        },
        {
          "duration": 0.23645833333333144,
          "durationTicks": 227,
          "midi": 53,
          "name": "F3",
          "ticks": 95400,
          "time": 99.375,
          "velocity": 0.6299212598425197
        },
        {
          "duration": 0.23645833333333144,
          "durationTicks": 227,
          "midi": 57,
          "name": "A3",
          "ticks": 95640,
          "time": 99.625,
          "velocity": 0.6299212598425197
        },
        {
          "duration": 0.23645833333333144,
          "durationTicks": 227,
          "midi": 53,
          "name": "F3",
          "ticks": 95880,
          "time": 99.875,
          "velocity": 0.6299212598425197
        },
        {
          "duration": 0.23645833333333144,
          "durationTicks": 227,
          "midi": 48,
          "name": "C3",
          "ticks": 96120,
          "time": 100.125,
          "velocity": 0.6299212598425197
        },
        {
          "duration": 0.23645833333333144,
          "durationTicks": 227,
          "midi": 45,
          "name": "A2",
          "ticks": 96360,
          "time": 100.375,
          "velocity": 0.6299212598425197
        },
        {
          "duration": 0.23645833333333144,
          "durationTicks": 227,
          "midi": 50,
          "name": "D3",
          "ticks": 96360,
          "time": 100.375,
          "velocity": 0.6299212598425197
        },
        {
          "duration": 0.23645833333333144,
          "durationTicks": 227,
          "midi": 45,
          "name": "A2",
          "ticks": 96600,
          "time": 100.625,
          "velocity": 0.6299212598425197
        },
        {
          "duration": 0.23645833333333144,
          "durationTicks": 227,
          "midi": 53,
          "name": "F3",
          "ticks": 96840,
          "time": 100.875,
          "velocity": 0.6299212598425197
        },
        {
          "duration": 0.23645833333333144,
          "durationTicks": 227,
          "midi": 45,
          "name": "A2",
          "ticks": 97080,
          "time": 101.125,
          "velocity": 0.6299212598425197
        },
        {
          "duration": 0.23645833333333144,
          "durationTicks": 227,
          "midi": 50,
          "name": "D3",
          "ticks": 97320,
          "time": 101.375,
          "velocity": 0.6299212598425197
        },
        {
          "duration": 0.23645833333333144,
          "durationTicks": 227,
          "midi": 46,
          "name": "A#2",
          "ticks": 97560,
          "time": 101.625,
          "velocity": 0.6299212598425197
        },
        {
          "duration": 0.23645833333333144,
          "durationTicks": 227,
          "midi": 53,
          "name": "F3",
          "ticks": 97800,
          "time": 101.875,
          "velocity": 0.6299212598425197
        },
        {
          "duration": 0.23645833333333144,
          "durationTicks": 227,
          "midi": 46,
          "name": "A#2",
          "ticks": 98040,
          "time": 102.125,
          "velocity": 0.6299212598425197
        },
        {
          "duration": 0.23645833333333144,
          "durationTicks": 227,
          "midi": 48,
          "name": "C3",
          "ticks": 98280,
          "time": 102.375,
          "velocity": 0.6299212598425197
        },
        {
          "duration": 0.23645833333333144,
          "durationTicks": 227,
          "midi": 55,
          "name": "G3",
          "ticks": 98520,
          "time": 102.625,
          "velocity": 0.6299212598425197
        },
        {
          "duration": 0.23645833333333144,
          "durationTicks": 227,
          "midi": 60,
          "name": "C4",
          "ticks": 98760,
          "time": 102.875,
          "velocity": 0.6299212598425197
        },
        {
          "duration": 0.23645833333333144,
          "durationTicks": 227,
          "midi": 55,
          "name": "G3",
          "ticks": 99000,
          "time": 103.125,
          "velocity": 0.6299212598425197
        },
        {
          "duration": 0.4739583333333286,
          "durationTicks": 455,
          "midi": 45,
          "name": "A2",
          "ticks": 99240,
          "time": 103.375,
          "velocity": 0.6299212598425197
        },
        {
          "duration": 0.4739583333333286,
          "durationTicks": 455,
          "midi": 50,
          "name": "D3",
          "ticks": 99240,
          "time": 103.375,
          "velocity": 0.6299212598425197
        },
        {
          "duration": 0.4739583333333286,
          "durationTicks": 455,
          "midi": 53,
          "name": "F3",
          "ticks": 99240,
          "time": 103.375,
          "velocity": 0.6299212598425197
        },
        {
          "duration": 0.4739583333333286,
          "durationTicks": 455,
          "midi": 48,
          "name": "C3",
          "ticks": 99720,
          "time": 103.875,
          "velocity": 0.6299212598425197
        },
        {
          "duration": 0.4739583333333286,
          "durationTicks": 455,
          "midi": 50,
          "name": "D3",
          "ticks": 99720,
          "time": 103.875,
          "velocity": 0.6299212598425197
        },
        {
          "duration": 0.4739583333333286,
          "durationTicks": 455,
          "midi": 55,
          "name": "G3",
          "ticks": 99720,
          "time": 103.875,
          "velocity": 0.6299212598425197
        },
        {
          "duration": 0.23645833333333144,
          "durationTicks": 227,
          "midi": 38,
          "name": "D2",
          "ticks": 100200,
          "time": 104.375,
          "velocity": 0.6299212598425197
        },
        {
          "duration": 0.23645833333333144,
          "durationTicks": 227,
          "midi": 46,
          "name": "A#2",
          "ticks": 100440,
          "time": 104.625,
          "velocity": 0.6299212598425197
        },
        {
          "duration": 0.23645833333333144,
          "durationTicks": 227,
          "midi": 53,
          "name": "F3",
          "ticks": 100680,
          "time": 104.875,
          "velocity": 0.6299212598425197
        },
        {
          "duration": 0.23645833333333144,
          "durationTicks": 227,
          "midi": 46,
          "name": "A#2",
          "ticks": 100920,
          "time": 105.125,
          "velocity": 0.6299212598425197
        },
        {
          "duration": 0.23645833333333144,
          "durationTicks": 227,
          "midi": 48,
          "name": "C3",
          "ticks": 101160,
          "time": 105.375,
          "velocity": 0.6299212598425197
        },
        {
          "duration": 0.23645833333333144,
          "durationTicks": 227,
          "midi": 43,
          "name": "G2",
          "ticks": 101400,
          "time": 105.625,
          "velocity": 0.6299212598425197
        },
        {
          "duration": 0.23645833333333144,
          "durationTicks": 227,
          "midi": 52,
          "name": "E3",
          "ticks": 101640,
          "time": 105.875,
          "velocity": 0.6299212598425197
        },
        {
          "duration": 0.23645833333333144,
          "durationTicks": 227,
          "midi": 43,
          "name": "G2",
          "ticks": 101880,
          "time": 106.125,
          "velocity": 0.6299212598425197
        },
        {
          "duration": 0.23645833333333144,
          "durationTicks": 227,
          "midi": 38,
          "name": "D2",
          "ticks": 102120,
          "time": 106.375,
          "velocity": 0.6299212598425197
        },
        {
          "duration": 0.23645833333333144,
          "durationTicks": 227,
          "midi": 45,
          "name": "A2",
          "ticks": 102360,
          "time": 106.625,
          "velocity": 0.6299212598425197
        },
        {
          "duration": 0.23645833333333144,
          "durationTicks": 227,
          "midi": 53,
          "name": "F3",
          "ticks": 102600,
          "time": 106.875,
          "velocity": 0.6299212598425197
        },
        {
          "duration": 0.23645833333333144,
          "durationTicks": 227,
          "midi": 45,
          "name": "A2",
          "ticks": 102840,
          "time": 107.125,
          "velocity": 0.6299212598425197
        },
        {
          "duration": 0.23645833333333144,
          "durationTicks": 227,
          "midi": 53,
          "name": "F3",
          "ticks": 103080,
          "time": 107.375,
          "velocity": 0.6299212598425197
        },
        {
          "duration": 0.23645833333333144,
          "durationTicks": 227,
          "midi": 45,
          "name": "A2",
          "ticks": 103320,
          "time": 107.625,
          "velocity": 0.6299212598425197
        },
        {
          "duration": 0.23645833333333144,
          "durationTicks": 227,
          "midi": 52,
          "name": "E3",
          "ticks": 103560,
          "time": 107.875,
          "velocity": 0.6299212598425197
        },
        {
          "duration": 0.23645833333333144,
          "durationTicks": 227,
          "midi": 45,
          "name": "A2",
          "ticks": 103800,
          "time": 108.125,
          "velocity": 0.6299212598425197
        },
        {
          "duration": 0.23645833333333144,
          "durationTicks": 227,
          "midi": 38,
          "name": "D2",
          "ticks": 104040,
          "time": 108.375,
          "velocity": 0.6299212598425197
        },
        {
          "duration": 0.23645833333333144,
          "durationTicks": 227,
          "midi": 46,
          "name": "A#2",
          "ticks": 104280,
          "time": 108.625,
          "velocity": 0.6299212598425197
        },
        {
          "duration": 0.23645833333333144,
          "durationTicks": 227,
          "midi": 53,
          "name": "F3",
          "ticks": 104520,
          "time": 108.875,
          "velocity": 0.6299212598425197
        },
        {
          "duration": 0.23645833333333144,
          "durationTicks": 227,
          "midi": 46,
          "name": "A#2",
          "ticks": 104760,
          "time": 109.125,
          "velocity": 0.6299212598425197
        },
        {
          "duration": 0.23645833333333144,
          "durationTicks": 227,
          "midi": 48,
          "name": "C3",
          "ticks": 105000,
          "time": 109.375,
          "velocity": 0.6299212598425197
        },
        {
          "duration": 0.23645833333333144,
          "durationTicks": 227,
          "midi": 43,
          "name": "G2",
          "ticks": 105240,
          "time": 109.625,
          "velocity": 0.6299212598425197
        },
        {
          "duration": 0.23645833333333144,
          "durationTicks": 227,
          "midi": 52,
          "name": "E3",
          "ticks": 105480,
          "time": 109.875,
          "velocity": 0.6299212598425197
        },
        {
          "duration": 0.23645833333333144,
          "durationTicks": 227,
          "midi": 43,
          "name": "G2",
          "ticks": 105720,
          "time": 110.125,
          "velocity": 0.6299212598425197
        },
        {
          "duration": 0.23645833333333144,
          "durationTicks": 227,
          "midi": 38,
          "name": "D2",
          "ticks": 105960,
          "time": 110.375,
          "velocity": 0.6299212598425197
        },
        {
          "duration": 0.23645833333333144,
          "durationTicks": 227,
          "midi": 45,
          "name": "A2",
          "ticks": 106200,
          "time": 110.625,
          "velocity": 0.6299212598425197
        },
        {
          "duration": 0.23645833333333144,
          "durationTicks": 227,
          "midi": 53,
          "name": "F3",
          "ticks": 106440,
          "time": 110.875,
          "velocity": 0.6299212598425197
        },
        {
          "duration": 0.23645833333333144,
          "durationTicks": 227,
          "midi": 45,
          "name": "A2",
          "ticks": 106680,
          "time": 111.125,
          "velocity": 0.6299212598425197
        },
        {
          "duration": 0.23645833333333144,
          "durationTicks": 227,
          "midi": 53,
          "name": "F3",
          "ticks": 106920,
          "time": 111.375,
          "velocity": 0.6299212598425197
        },
        {
          "duration": 0.23645833333333144,
          "durationTicks": 227,
          "midi": 45,
          "name": "A2",
          "ticks": 107160,
          "time": 111.625,
          "velocity": 0.6299212598425197
        },
        {
          "duration": 0.23645833333333144,
          "durationTicks": 227,
          "midi": 52,
          "name": "E3",
          "ticks": 107400,
          "time": 111.875,
          "velocity": 0.6299212598425197
        },
        {
          "duration": 0.23645833333333144,
          "durationTicks": 227,
          "midi": 45,
          "name": "A2",
          "ticks": 107640,
          "time": 112.125,
          "velocity": 0.6299212598425197
        },
        {
          "duration": 0.23645833333333144,
          "durationTicks": 227,
          "midi": 38,
          "name": "D2",
          "ticks": 107880,
          "time": 112.375,
          "velocity": 0.6299212598425197
        },
        {
          "duration": 0.23645833333333144,
          "durationTicks": 227,
          "midi": 46,
          "name": "A#2",
          "ticks": 108120,
          "time": 112.625,
          "velocity": 0.6299212598425197
        },
        {
          "duration": 0.23645833333333144,
          "durationTicks": 227,
          "midi": 53,
          "name": "F3",
          "ticks": 108360,
          "time": 112.875,
          "velocity": 0.6299212598425197
        },
        {
          "duration": 0.23645833333333144,
          "durationTicks": 227,
          "midi": 46,
          "name": "A#2",
          "ticks": 108600,
          "time": 113.125,
          "velocity": 0.6299212598425197
        },
        {
          "duration": 0.23645833333333144,
          "durationTicks": 227,
          "midi": 48,
          "name": "C3",
          "ticks": 108840,
          "time": 113.375,
          "velocity": 0.6299212598425197
        },
        {
          "duration": 0.23645833333333144,
          "durationTicks": 227,
          "midi": 43,
          "name": "G2",
          "ticks": 109080,
          "time": 113.625,
          "velocity": 0.6299212598425197
        },
        {
          "duration": 0.23645833333333144,
          "durationTicks": 227,
          "midi": 52,
          "name": "E3",
          "ticks": 109320,
          "time": 113.875,
          "velocity": 0.6299212598425197
        },
        {
          "duration": 0.23645833333333144,
          "durationTicks": 227,
          "midi": 43,
          "name": "G2",
          "ticks": 109560,
          "time": 114.125,
          "velocity": 0.6299212598425197
        },
        {
          "duration": 0.23645833333333144,
          "durationTicks": 227,
          "midi": 38,
          "name": "D2",
          "ticks": 109800,
          "time": 114.375,
          "velocity": 0.6299212598425197
        },
        {
          "duration": 0.23645833333333144,
          "durationTicks": 227,
          "midi": 45,
          "name": "A2",
          "ticks": 110040,
          "time": 114.625,
          "velocity": 0.6299212598425197
        },
        {
          "duration": 0.23645833333333144,
          "durationTicks": 227,
          "midi": 53,
          "name": "F3",
          "ticks": 110280,
          "time": 114.875,
          "velocity": 0.6299212598425197
        },
        {
          "duration": 0.23645833333333144,
          "durationTicks": 227,
          "midi": 45,
          "name": "A2",
          "ticks": 110520,
          "time": 115.125,
          "velocity": 0.6299212598425197
        },
        {
          "duration": 0.23645833333333144,
          "durationTicks": 227,
          "midi": 53,
          "name": "F3",
          "ticks": 110760,
          "time": 115.375,
          "velocity": 0.6299212598425197
        },
        {
          "duration": 0.23645833333333144,
          "durationTicks": 227,
          "midi": 45,
          "name": "A2",
          "ticks": 111000,
          "time": 115.625,
          "velocity": 0.6299212598425197
        },
        {
          "duration": 0.23645833333333144,
          "durationTicks": 227,
          "midi": 52,
          "name": "E3",
          "ticks": 111240,
          "time": 115.875,
          "velocity": 0.6299212598425197
        },
        {
          "duration": 0.23645833333333144,
          "durationTicks": 227,
          "midi": 45,
          "name": "A2",
          "ticks": 111480,
          "time": 116.125,
          "velocity": 0.6299212598425197
        },
        {
          "duration": 0.23645833333333144,
          "durationTicks": 227,
          "midi": 46,
          "name": "A#2",
          "ticks": 111720,
          "time": 116.375,
          "velocity": 0.6299212598425197
        },
        {
          "duration": 0.23645833333333144,
          "durationTicks": 227,
          "midi": 41,
          "name": "F2",
          "ticks": 111960,
          "time": 116.625,
          "velocity": 0.6299212598425197
        },
        {
          "duration": 0.23645833333333144,
          "durationTicks": 227,
          "midi": 48,
          "name": "C3",
          "ticks": 112200,
          "time": 116.875,
          "velocity": 0.6299212598425197
        },
        {
          "duration": 0.23645833333333144,
          "durationTicks": 227,
          "midi": 43,
          "name": "G2",
          "ticks": 112440,
          "time": 117.125,
          "velocity": 0.6299212598425197
        },
        {
          "duration": 0.4739583333333286,
          "durationTicks": 455,
          "midi": 40,
          "name": "E2",
          "ticks": 112680,
          "time": 117.375,
          "velocity": 0.6299212598425197
        },
        {
          "duration": 0.4739583333333286,
          "durationTicks": 455,
          "midi": 45,
          "name": "A2",
          "ticks": 112680,
          "time": 117.375,
          "velocity": 0.6299212598425197
        },
        {
          "duration": 0.4739583333333286,
          "durationTicks": 455,
          "midi": 48,
          "name": "C3",
          "ticks": 113160,
          "time": 117.875,
          "velocity": 0.6299212598425197
        },
        {
          "duration": 0.4739583333333286,
          "durationTicks": 455,
          "midi": 52,
          "name": "E3",
          "ticks": 113160,
          "time": 117.875,
          "velocity": 0.6299212598425197
        },
        {
          "duration": 0.3552083333333371,
          "durationTicks": 341,
          "midi": 50,
          "name": "D3",
          "ticks": 113640,
          "time": 118.375,
          "velocity": 0.6299212598425197
        },
        {
          "duration": 0.3552083333333371,
          "durationTicks": 341,
          "midi": 57,
          "name": "A3",
          "ticks": 113640,
          "time": 118.375,
          "velocity": 0.6299212598425197
        },
        {
          "duration": 0.3552083333333371,
          "durationTicks": 341,
          "midi": 50,
          "name": "D3",
          "ticks": 114000,
          "time": 118.75,
          "velocity": 0.6299212598425197
        },
        {
          "duration": 0.3552083333333371,
          "durationTicks": 341,
          "midi": 57,
          "name": "A3",
          "ticks": 114000,
          "time": 118.75,
          "velocity": 0.6299212598425197
        },
        {
          "duration": 0.23645833333333144,
          "durationTicks": 227,
          "midi": 48,
          "name": "C3",
          "ticks": 114360,
          "time": 119.125,
          "velocity": 0.6299212598425197
        },
        {
          "duration": 0.23645833333333144,
          "durationTicks": 227,
          "midi": 55,
          "name": "G3",
          "ticks": 114360,
          "time": 119.125,
          "velocity": 0.6299212598425197
        },
        {
          "duration": 0.3552083333333371,
          "durationTicks": 341,
          "midi": 50,
          "name": "D3",
          "ticks": 114600,
          "time": 119.375,
          "velocity": 0.6299212598425197
        },
        {
          "duration": 0.3552083333333371,
          "durationTicks": 341,
          "midi": 57,
          "name": "A3",
          "ticks": 114600,
          "time": 119.375,
          "velocity": 0.6299212598425197
        },
        {
          "duration": 0.3552083333333371,
          "durationTicks": 341,
          "midi": 50,
          "name": "D3",
          "ticks": 114960,
          "time": 119.75,
          "velocity": 0.6299212598425197
        },
        {
          "duration": 0.3552083333333371,
          "durationTicks": 341,
          "midi": 57,
          "name": "A3",
          "ticks": 114960,
          "time": 119.75,
          "velocity": 0.6299212598425197
        },
        {
          "duration": 0.23645833333333144,
          "durationTicks": 227,
          "midi": 48,
          "name": "C3",
          "ticks": 115320,
          "time": 120.125,
          "velocity": 0.6299212598425197
        },
        {
          "duration": 0.23645833333333144,
          "durationTicks": 227,
          "midi": 55,
          "name": "G3",
          "ticks": 115320,
          "time": 120.125,
          "velocity": 0.6299212598425197
        },
        {
          "duration": 0.4739583333333286,
          "durationTicks": 455,
          "midi": 45,
          "name": "A2",
          "ticks": 115560,
          "time": 120.375,
          "velocity": 0.6299212598425197
        },
        {
          "duration": 0.4739583333333286,
          "durationTicks": 455,
          "midi": 50,
          "name": "D3",
          "ticks": 115560,
          "time": 120.375,
          "velocity": 0.6299212598425197
        },
        {
          "duration": 0.3552083333333371,
          "durationTicks": 341,
          "midi": 45,
          "name": "A2",
          "ticks": 116040,
          "time": 120.875,
          "velocity": 0.6299212598425197
        },
        {
          "duration": 0.3552083333333371,
          "durationTicks": 341,
          "midi": 50,
          "name": "D3",
          "ticks": 116040,
          "time": 120.875,
          "velocity": 0.6299212598425197
        },
        {
          "duration": 0.11770833333333997,
          "durationTicks": 113,
          "midi": 43,
          "name": "G2",
          "ticks": 116400,
          "time": 121.25,
          "velocity": 0.6299212598425197
        },
        {
          "duration": 0.11770833333333997,
          "durationTicks": 113,
          "midi": 48,
          "name": "C3",
          "ticks": 116400,
          "time": 121.25,
          "velocity": 0.6299212598425197
        },
        {
          "duration": 0.4739583333333286,
          "durationTicks": 455,
          "midi": 38,
          "name": "D2",
          "ticks": 116520,
          "time": 121.375,
          "velocity": 0.6299212598425197
        },
        {
          "duration": 0.4739583333333286,
          "durationTicks": 455,
          "midi": 45,
          "name": "A2",
          "ticks": 116520,
          "time": 121.375,
          "velocity": 0.6299212598425197
        },
        {
          "duration": 0.4739583333333286,
          "durationTicks": 455,
          "midi": 50,
          "name": "D3",
          "ticks": 116520,
          "time": 121.375,
          "velocity": 0.6299212598425197
        },
        {
          "duration": 0.23645833333333144,
          "durationTicks": 227,
          "midi": 43,
          "name": "G2",
          "ticks": 117000,
          "time": 121.875,
          "velocity": 0.6299212598425197
        },
        {
          "duration": 0.23645833333333144,
          "durationTicks": 227,
          "midi": 55,
          "name": "G3",
          "ticks": 117000,
          "time": 121.875,
          "velocity": 0.6299212598425197
        },
        {
          "duration": 0.23645833333333144,
          "durationTicks": 227,
          "midi": 45,
          "name": "A2",
          "ticks": 117240,
          "time": 122.125,
          "velocity": 0.6299212598425197
        },
        {
          "duration": 0.23645833333333144,
          "durationTicks": 227,
          "midi": 57,
          "name": "A3",
          "ticks": 117240,
          "time": 122.125,
          "velocity": 0.6299212598425197
        },
        {
          "duration": 0.4739583333333286,
          "durationTicks": 455,
          "midi": 50,
          "name": "D3",
          "ticks": 117480,
          "time": 122.375,
          "velocity": 0.6299212598425197
        },
        {
          "duration": 0.4739583333333286,
          "durationTicks": 455,
          "midi": 53,
          "name": "F3",
          "ticks": 117480,
          "time": 122.375,
          "velocity": 0.6299212598425197
        },
        {
          "duration": 0.4739583333333286,
          "durationTicks": 455,
          "midi": 50,
          "name": "D3",
          "ticks": 117960,
          "time": 122.875,
          "velocity": 0.6299212598425197
        },
        {
          "duration": 0.4739583333333286,
          "durationTicks": 455,
          "midi": 53,
          "name": "F3",
          "ticks": 117960,
          "time": 122.875,
          "velocity": 0.6299212598425197
        },
        {
          "duration": 0.4739583333333286,
          "durationTicks": 455,
          "midi": 48,
          "name": "C3",
          "ticks": 118440,
          "time": 123.375,
          "velocity": 0.6299212598425197
        },
        {
          "duration": 0.4739583333333286,
          "durationTicks": 455,
          "midi": 55,
          "name": "G3",
          "ticks": 118440,
          "time": 123.375,
          "velocity": 0.6299212598425197
        },
        {
          "duration": 0.4739583333333286,
          "durationTicks": 455,
          "midi": 48,
          "name": "C3",
          "ticks": 118920,
          "time": 123.875,
          "velocity": 0.6299212598425197
        },
        {
          "duration": 0.4739583333333286,
          "durationTicks": 455,
          "midi": 55,
          "name": "G3",
          "ticks": 118920,
          "time": 123.875,
          "velocity": 0.6299212598425197
        },
        {
          "duration": 0.4739583333333286,
          "durationTicks": 455,
          "midi": 45,
          "name": "A2",
          "ticks": 119400,
          "time": 124.375,
          "velocity": 0.6299212598425197
        },
        {
          "duration": 0.4739583333333286,
          "durationTicks": 455,
          "midi": 50,
          "name": "D3",
          "ticks": 119400,
          "time": 124.375,
          "velocity": 0.6299212598425197
        },
        {
          "duration": 0.3552083333333371,
          "durationTicks": 341,
          "midi": 45,
          "name": "A2",
          "ticks": 119880,
          "time": 124.875,
          "velocity": 0.6299212598425197
        },
        {
          "duration": 0.3552083333333371,
          "durationTicks": 341,
          "midi": 50,
          "name": "D3",
          "ticks": 119880,
          "time": 124.875,
          "velocity": 0.6299212598425197
        },
        {
          "duration": 0.11770833333333997,
          "durationTicks": 113,
          "midi": 43,
          "name": "G2",
          "ticks": 120240,
          "time": 125.25,
          "velocity": 0.6299212598425197
        },
        {
          "duration": 0.11770833333333997,
          "durationTicks": 113,
          "midi": 48,
          "name": "C3",
          "ticks": 120240,
          "time": 125.25,
          "velocity": 0.6299212598425197
        },
        {
          "duration": 0.4989583333333343,
          "durationTicks": 479,
          "midi": 38,
          "name": "D2",
          "ticks": 120360,
          "time": 125.375,
          "velocity": 0.6299212598425197
        },
        {
          "duration": 0.4322916666666714,
          "durationTicks": 415,
          "midi": 45,
          "name": "A2",
          "ticks": 120423,
          "time": 125.440625,
          "velocity": 0.6299212598425197
        },
        {
          "duration": 0.3656250000000085,
          "durationTicks": 351,
          "midi": 50,
          "name": "D3",
          "ticks": 120487,
          "time": 125.50729166666666,
          "velocity": 0.6299212598425197
        },
        {
          "duration": 0.23645833333333144,
          "durationTicks": 227,
          "midi": 43,
          "name": "G2",
          "ticks": 120840,
          "time": 125.875,
          "velocity": 0.6299212598425197
        },
        {
          "duration": 0.23645833333333144,
          "durationTicks": 227,
          "midi": 55,
          "name": "G3",
          "ticks": 120840,
          "time": 125.875,
          "velocity": 0.6299212598425197
        },
        {
          "duration": 0.23645833333333144,
          "durationTicks": 227,
          "midi": 45,
          "name": "A2",
          "ticks": 121080,
          "time": 126.125,
          "velocity": 0.6299212598425197
        },
        {
          "duration": 0.23645833333333144,
          "durationTicks": 227,
          "midi": 57,
          "name": "A3",
          "ticks": 121080,
          "time": 126.125,
          "velocity": 0.6299212598425197
        },
        {
          "duration": 0.4739583333333286,
          "durationTicks": 455,
          "midi": 45,
          "name": "A2",
          "ticks": 121320,
          "time": 126.375,
          "velocity": 0.6299212598425197
        },
        {
          "duration": 0.4739583333333286,
          "durationTicks": 455,
          "midi": 50,
          "name": "D3",
          "ticks": 121320,
          "time": 126.375,
          "velocity": 0.6299212598425197
        },
        {
          "duration": 0.4739583333333286,
          "durationTicks": 455,
          "midi": 50,
          "name": "D3",
          "ticks": 121800,
          "time": 126.875,
          "velocity": 0.6299212598425197
        },
        {
          "duration": 0.4739583333333286,
          "durationTicks": 455,
          "midi": 53,
          "name": "F3",
          "ticks": 121800,
          "time": 126.875,
          "velocity": 0.6299212598425197
        },
        {
          "duration": 0.4739583333333286,
          "durationTicks": 455,
          "midi": 48,
          "name": "C3",
          "ticks": 122280,
          "time": 127.375,
          "velocity": 0.6299212598425197
        },
        {
          "duration": 0.4739583333333286,
          "durationTicks": 455,
          "midi": 55,
          "name": "G3",
          "ticks": 122280,
          "time": 127.375,
          "velocity": 0.6299212598425197
        },
        {
          "duration": 0.4739583333333428,
          "durationTicks": 455,
          "midi": 43,
          "name": "G2",
          "ticks": 122760,
          "time": 127.875,
          "velocity": 0.6299212598425197
        },
        {
          "duration": 0.4739583333333428,
          "durationTicks": 455,
          "midi": 52,
          "name": "E3",
          "ticks": 122760,
          "time": 127.875,
          "velocity": 0.6299212598425197
        },
        {
          "duration": 0.4739583333333428,
          "durationTicks": 455,
          "midi": 45,
          "name": "A2",
          "ticks": 123240,
          "time": 128.375,
          "velocity": 0.6299212598425197
        },
        {
          "duration": 0.4739583333333428,
          "durationTicks": 455,
          "midi": 50,
          "name": "D3",
          "ticks": 123240,
          "time": 128.375,
          "velocity": 0.6299212598425197
        },
        {
          "duration": 0.3552083333333371,
          "durationTicks": 341,
          "midi": 45,
          "name": "A2",
          "ticks": 123720,
          "time": 128.875,
          "velocity": 0.6299212598425197
        },
        {
          "duration": 0.3552083333333371,
          "durationTicks": 341,
          "midi": 50,
          "name": "D3",
          "ticks": 123720,
          "time": 128.875,
          "velocity": 0.6299212598425197
        },
        {
          "duration": 0.11770833333332575,
          "durationTicks": 113,
          "midi": 43,
          "name": "G2",
          "ticks": 124080,
          "time": 129.25,
          "velocity": 0.6299212598425197
        },
        {
          "duration": 0.11770833333332575,
          "durationTicks": 113,
          "midi": 48,
          "name": "C3",
          "ticks": 124080,
          "time": 129.25,
          "velocity": 0.6299212598425197
        },
        {
          "duration": 0.4739583333333428,
          "durationTicks": 455,
          "midi": 38,
          "name": "D2",
          "ticks": 124200,
          "time": 129.375,
          "velocity": 0.6299212598425197
        },
        {
          "duration": 0.4739583333333428,
          "durationTicks": 455,
          "midi": 45,
          "name": "A2",
          "ticks": 124200,
          "time": 129.375,
          "velocity": 0.6299212598425197
        },
        {
          "duration": 0.4739583333333428,
          "durationTicks": 455,
          "midi": 50,
          "name": "D3",
          "ticks": 124200,
          "time": 129.375,
          "velocity": 0.6299212598425197
        },
        {
          "duration": 0.23645833333333144,
          "durationTicks": 227,
          "midi": 43,
          "name": "G2",
          "ticks": 124680,
          "time": 129.875,
          "velocity": 0.6299212598425197
        },
        {
          "duration": 0.23645833333333144,
          "durationTicks": 227,
          "midi": 55,
          "name": "G3",
          "ticks": 124680,
          "time": 129.875,
          "velocity": 0.6299212598425197
        },
        {
          "duration": 0.23645833333333144,
          "durationTicks": 227,
          "midi": 45,
          "name": "A2",
          "ticks": 124920,
          "time": 130.125,
          "velocity": 0.6299212598425197
        },
        {
          "duration": 0.23645833333333144,
          "durationTicks": 227,
          "midi": 57,
          "name": "A3",
          "ticks": 124920,
          "time": 130.125,
          "velocity": 0.6299212598425197
        },
        {
          "duration": 0.4739583333333428,
          "durationTicks": 455,
          "midi": 50,
          "name": "D3",
          "ticks": 125160,
          "time": 130.375,
          "velocity": 0.6299212598425197
        },
        {
          "duration": 0.4739583333333428,
          "durationTicks": 455,
          "midi": 53,
          "name": "F3",
          "ticks": 125160,
          "time": 130.375,
          "velocity": 0.6299212598425197
        },
        {
          "duration": 0.4739583333333428,
          "durationTicks": 455,
          "midi": 50,
          "name": "D3",
          "ticks": 125640,
          "time": 130.875,
          "velocity": 0.6299212598425197
        },
        {
          "duration": 0.4739583333333428,
          "durationTicks": 455,
          "midi": 53,
          "name": "F3",
          "ticks": 125640,
          "time": 130.875,
          "velocity": 0.6299212598425197
        },
        {
          "duration": 0.4739583333333428,
          "durationTicks": 455,
          "midi": 46,
          "name": "A#2",
          "ticks": 126120,
          "time": 131.375,
          "velocity": 0.6299212598425197
        },
        {
          "duration": 0.4739583333333428,
          "durationTicks": 455,
          "midi": 53,
          "name": "F3",
          "ticks": 126120,
          "time": 131.375,
          "velocity": 0.6299212598425197
        },
        {
          "duration": 0.4739583333333428,
          "durationTicks": 455,
          "midi": 48,
          "name": "C3",
          "ticks": 126600,
          "time": 131.875,
          "velocity": 0.6299212598425197
        },
        {
          "duration": 0.4739583333333428,
          "durationTicks": 455,
          "midi": 52,
          "name": "E3",
          "ticks": 126600,
          "time": 131.875,
          "velocity": 0.6299212598425197
        },
        {
          "duration": 0.4739583333333428,
          "durationTicks": 455,
          "midi": 45,
          "name": "A2",
          "ticks": 127080,
          "time": 132.375,
          "velocity": 0.6299212598425197
        },
        {
          "duration": 0.4739583333333428,
          "durationTicks": 455,
          "midi": 50,
          "name": "D3",
          "ticks": 127080,
          "time": 132.375,
          "velocity": 0.6299212598425197
        },
        {
          "duration": 0.3552083333333371,
          "durationTicks": 341,
          "midi": 45,
          "name": "A2",
          "ticks": 127560,
          "time": 132.875,
          "velocity": 0.6299212598425197
        },
        {
          "duration": 0.3552083333333371,
          "durationTicks": 341,
          "midi": 50,
          "name": "D3",
          "ticks": 127560,
          "time": 132.875,
          "velocity": 0.6299212598425197
        },
        {
          "duration": 0.11770833333332575,
          "durationTicks": 113,
          "midi": 43,
          "name": "G2",
          "ticks": 127920,
          "time": 133.25,
          "velocity": 0.6299212598425197
        },
        {
          "duration": 0.11770833333332575,
          "durationTicks": 113,
          "midi": 48,
          "name": "C3",
          "ticks": 127920,
          "time": 133.25,
          "velocity": 0.6299212598425197
        },
        {
          "duration": 0.4739583333333428,
          "durationTicks": 455,
          "midi": 38,
          "name": "D2",
          "ticks": 128040,
          "time": 133.375,
          "velocity": 0.6299212598425197
        },
        {
          "duration": 0.4739583333333428,
          "durationTicks": 455,
          "midi": 45,
          "name": "A2",
          "ticks": 128040,
          "time": 133.375,
          "velocity": 0.6299212598425197
        },
        {
          "duration": 0.4739583333333428,
          "durationTicks": 455,
          "midi": 50,
          "name": "D3",
          "ticks": 128040,
          "time": 133.375,
          "velocity": 0.6299212598425197
        },
        {
          "duration": 0.23645833333333144,
          "durationTicks": 227,
          "midi": 43,
          "name": "G2",
          "ticks": 128760,
          "time": 134.125,
          "velocity": 0.6299212598425197
        },
        {
          "duration": 0.23645833333333144,
          "durationTicks": 227,
          "midi": 55,
          "name": "G3",
          "ticks": 128760,
          "time": 134.125,
          "velocity": 0.6299212598425197
        },
        {
          "duration": 0.23645833333333144,
          "durationTicks": 227,
          "midi": 45,
          "name": "A2",
          "ticks": 129000,
          "time": 134.375,
          "velocity": 0.6299212598425197
        },
        {
          "duration": 0.23645833333333144,
          "durationTicks": 227,
          "midi": 57,
          "name": "A3",
          "ticks": 129000,
          "time": 134.375,
          "velocity": 0.6299212598425197
        },
        {
          "duration": 0.4739583333333428,
          "durationTicks": 455,
          "midi": 45,
          "name": "A2",
          "ticks": 129240,
          "time": 134.625,
          "velocity": 0.6299212598425197
        },
        {
          "duration": 0.4739583333333428,
          "durationTicks": 455,
          "midi": 50,
          "name": "D3",
          "ticks": 129240,
          "time": 134.625,
          "velocity": 0.6299212598425197
        },
        {
          "duration": 0.4739583333333428,
          "durationTicks": 455,
          "midi": 50,
          "name": "D3",
          "ticks": 129720,
          "time": 135.125,
          "velocity": 0.6299212598425197
        },
        {
          "duration": 0.4739583333333428,
          "durationTicks": 455,
          "midi": 53,
          "name": "F3",
          "ticks": 129720,
          "time": 135.125,
          "velocity": 0.6299212598425197
        },
        {
          "duration": 0.4739583333333428,
          "durationTicks": 455,
          "midi": 48,
          "name": "C3",
          "ticks": 130200,
          "time": 135.625,
          "velocity": 0.6299212598425197
        },
        {
          "duration": 0.4739583333333428,
          "durationTicks": 455,
          "midi": 55,
          "name": "G3",
          "ticks": 130200,
          "time": 135.625,
          "velocity": 0.6299212598425197
        },
        {
          "duration": 0.4739583333333428,
          "durationTicks": 455,
          "midi": 43,
          "name": "G2",
          "ticks": 130680,
          "time": 136.125,
          "velocity": 0.6299212598425197
        },
        {
          "duration": 0.4739583333333428,
          "durationTicks": 455,
          "midi": 52,
          "name": "E3",
          "ticks": 130680,
          "time": 136.125,
          "velocity": 0.6299212598425197
        },
        {
          "duration": 0.4739583333333428,
          "durationTicks": 455,
          "midi": 46,
          "name": "A#2",
          "ticks": 131160,
          "time": 136.625,
          "velocity": 0.6299212598425197
        },
        {
          "duration": 0.4739583333333428,
          "durationTicks": 455,
          "midi": 50,
          "name": "D3",
          "ticks": 131160,
          "time": 136.625,
          "velocity": 0.6299212598425197
        },
        {
          "duration": 0.4739583333333428,
          "durationTicks": 455,
          "midi": 46,
          "name": "A#2",
          "ticks": 131640,
          "time": 137.125,
          "velocity": 0.6299212598425197
        },
        {
          "duration": 0.4739583333333428,
          "durationTicks": 455,
          "midi": 50,
          "name": "D3",
          "ticks": 131640,
          "time": 137.125,
          "velocity": 0.6299212598425197
        },
        {
          "duration": 0.4739583333333428,
          "durationTicks": 455,
          "midi": 46,
          "name": "A#2",
          "ticks": 132120,
          "time": 137.625,
          "velocity": 0.6299212598425197
        },
        {
          "duration": 0.4739583333333428,
          "durationTicks": 455,
          "midi": 50,
          "name": "D3",
          "ticks": 132120,
          "time": 137.625,
          "velocity": 0.6299212598425197
        },
        {
          "duration": 0.4739583333333428,
          "durationTicks": 455,
          "midi": 46,
          "name": "A#2",
          "ticks": 132600,
          "time": 138.125,
          "velocity": 0.6299212598425197
        },
        {
          "duration": 0.4739583333333428,
          "durationTicks": 455,
          "midi": 50,
          "name": "D3",
          "ticks": 132600,
          "time": 138.125,
          "velocity": 0.6299212598425197
        },
        {
          "duration": 0.4739583333333428,
          "durationTicks": 455,
          "midi": 48,
          "name": "C3",
          "ticks": 133080,
          "time": 138.625,
          "velocity": 0.6299212598425197
        },
        {
          "duration": 0.4739583333333428,
          "durationTicks": 455,
          "midi": 52,
          "name": "E3",
          "ticks": 133080,
          "time": 138.625,
          "velocity": 0.6299212598425197
        },
        {
          "duration": 0.4739583333333428,
          "durationTicks": 455,
          "midi": 48,
          "name": "C3",
          "ticks": 133560,
          "time": 139.125,
          "velocity": 0.6299212598425197
        },
        {
          "duration": 0.4739583333333428,
          "durationTicks": 455,
          "midi": 52,
          "name": "E3",
          "ticks": 133560,
          "time": 139.125,
          "velocity": 0.6299212598425197
        },
        {
          "duration": 0.4739583333333428,
          "durationTicks": 455,
          "midi": 48,
          "name": "C3",
          "ticks": 134040,
          "time": 139.625,
          "velocity": 0.6299212598425197
        },
        {
          "duration": 0.4739583333333428,
          "durationTicks": 455,
          "midi": 52,
          "name": "E3",
          "ticks": 134040,
          "time": 139.625,
          "velocity": 0.6299212598425197
        },
        {
          "duration": 0.4739583333333428,
          "durationTicks": 455,
          "midi": 48,
          "name": "C3",
          "ticks": 134520,
          "time": 140.125,
          "velocity": 0.6299212598425197
        },
        {
          "duration": 0.4739583333333428,
          "durationTicks": 455,
          "midi": 52,
          "name": "E3",
          "ticks": 134520,
          "time": 140.125,
          "velocity": 0.6299212598425197
        },
        {
          "duration": 0.4739583333333428,
          "durationTicks": 455,
          "midi": 46,
          "name": "A#2",
          "ticks": 135000,
          "time": 140.625,
          "velocity": 0.6299212598425197
        },
        {
          "duration": 0.4739583333333428,
          "durationTicks": 455,
          "midi": 50,
          "name": "D3",
          "ticks": 135000,
          "time": 140.625,
          "velocity": 0.6299212598425197
        },
        {
          "duration": 0.4739583333333428,
          "durationTicks": 455,
          "midi": 46,
          "name": "A#2",
          "ticks": 135480,
          "time": 141.125,
          "velocity": 0.6299212598425197
        },
        {
          "duration": 0.4739583333333428,
          "durationTicks": 455,
          "midi": 50,
          "name": "D3",
          "ticks": 135480,
          "time": 141.125,
          "velocity": 0.6299212598425197
        },
        {
          "duration": 0.4739583333333428,
          "durationTicks": 455,
          "midi": 48,
          "name": "C3",
          "ticks": 135960,
          "time": 141.625,
          "velocity": 0.6299212598425197
        },
        {
          "duration": 0.4739583333333428,
          "durationTicks": 455,
          "midi": 52,
          "name": "E3",
          "ticks": 135960,
          "time": 141.625,
          "velocity": 0.6299212598425197
        },
        {
          "duration": 0.4739583333333428,
          "durationTicks": 455,
          "midi": 48,
          "name": "C3",
          "ticks": 136440,
          "time": 142.125,
          "velocity": 0.6299212598425197
        },
        {
          "duration": 0.4739583333333428,
          "durationTicks": 455,
          "midi": 52,
          "name": "E3",
          "ticks": 136440,
          "time": 142.125,
          "velocity": 0.6299212598425197
        },
        {
          "duration": 0.4739583333333428,
          "durationTicks": 455,
          "midi": 50,
          "name": "D3",
          "ticks": 136920,
          "time": 142.625,
          "velocity": 0.6299212598425197
        },
        {
          "duration": 0.4739583333333428,
          "durationTicks": 455,
          "midi": 53,
          "name": "F3",
          "ticks": 136920,
          "time": 142.625,
          "velocity": 0.6299212598425197
        },
        {
          "duration": 0.4739583333333428,
          "durationTicks": 455,
          "midi": 48,
          "name": "C3",
          "ticks": 137400,
          "time": 143.125,
          "velocity": 0.6299212598425197
        },
        {
          "duration": 0.4739583333333428,
          "durationTicks": 455,
          "midi": 52,
          "name": "E3",
          "ticks": 137400,
          "time": 143.125,
          "velocity": 0.6299212598425197
        },
        {
          "duration": 0.4739583333333428,
          "durationTicks": 455,
          "midi": 46,
          "name": "A#2",
          "ticks": 137880,
          "time": 143.625,
          "velocity": 0.6299212598425197
        },
        {
          "duration": 0.4739583333333428,
          "durationTicks": 455,
          "midi": 50,
          "name": "D3",
          "ticks": 137880,
          "time": 143.625,
          "velocity": 0.6299212598425197
        },
        {
          "duration": 0.4739583333333428,
          "durationTicks": 455,
          "midi": 45,
          "name": "A2",
          "ticks": 138360,
          "time": 144.125,
          "velocity": 0.6299212598425197
        },
        {
          "duration": 0.4739583333333428,
          "durationTicks": 455,
          "midi": 48,
          "name": "C3",
          "ticks": 138360,
          "time": 144.125,
          "velocity": 0.6299212598425197
        },
        {
          "duration": 0.4739583333333428,
          "durationTicks": 455,
          "midi": 50,
          "name": "D3",
          "ticks": 138840,
          "time": 144.625,
          "velocity": 0.6299212598425197
        },
        {
          "duration": 0.4739583333333428,
          "durationTicks": 455,
          "midi": 53,
          "name": "F3",
          "ticks": 138840,
          "time": 144.625,
          "velocity": 0.6299212598425197
        },
        {
          "duration": 0.4739583333333428,
          "durationTicks": 455,
          "midi": 50,
          "name": "D3",
          "ticks": 139320,
          "time": 145.125,
          "velocity": 0.6299212598425197
        },
        {
          "duration": 0.4739583333333428,
          "durationTicks": 455,
          "midi": 55,
          "name": "G3",
          "ticks": 139320,
          "time": 145.125,
          "velocity": 0.6299212598425197
        },
        {
          "duration": 0.4739583333333428,
          "durationTicks": 455,
          "midi": 50,
          "name": "D3",
          "ticks": 139800,
          "time": 145.625,
          "velocity": 0.6299212598425197
        },
        {
          "duration": 0.4739583333333428,
          "durationTicks": 455,
          "midi": 57,
          "name": "A3",
          "ticks": 139800,
          "time": 145.625,
          "velocity": 0.6299212598425197
        },
        {
          "duration": 0.4739583333333428,
          "durationTicks": 455,
          "midi": 50,
          "name": "D3",
          "ticks": 140280,
          "time": 146.125,
          "velocity": 0.6299212598425197
        },
        {
          "duration": 0.4739583333333428,
          "durationTicks": 455,
          "midi": 55,
          "name": "G3",
          "ticks": 140280,
          "time": 146.125,
          "velocity": 0.6299212598425197
        },
        {
          "duration": 0.4739583333333428,
          "durationTicks": 455,
          "midi": 48,
          "name": "C3",
          "ticks": 140760,
          "time": 146.625,
          "velocity": 0.6299212598425197
        },
        {
          "duration": 0.4739583333333428,
          "durationTicks": 455,
          "midi": 52,
          "name": "E3",
          "ticks": 140760,
          "time": 146.625,
          "velocity": 0.6299212598425197
        },
        {
          "duration": 0.4739583333333428,
          "durationTicks": 455,
          "midi": 48,
          "name": "C3",
          "ticks": 141240,
          "time": 147.125,
          "velocity": 0.6299212598425197
        },
        {
          "duration": 0.4739583333333428,
          "durationTicks": 455,
          "midi": 52,
          "name": "E3",
          "ticks": 141240,
          "time": 147.125,
          "velocity": 0.6299212598425197
        },
        {
          "duration": 0.4739583333333428,
          "durationTicks": 455,
          "midi": 50,
          "name": "D3",
          "ticks": 141720,
          "time": 147.625,
          "velocity": 0.6299212598425197
        },
        {
          "duration": 0.4739583333333428,
          "durationTicks": 455,
          "midi": 53,
          "name": "F3",
          "ticks": 141720,
          "time": 147.625,
          "velocity": 0.6299212598425197
        },
        {
          "duration": 0.4739583333333428,
          "durationTicks": 455,
          "midi": 50,
          "name": "D3",
          "ticks": 142200,
          "time": 148.125,
          "velocity": 0.6299212598425197
        },
        {
          "duration": 0.4739583333333428,
          "durationTicks": 455,
          "midi": 53,
          "name": "F3",
          "ticks": 142200,
          "time": 148.125,
          "velocity": 0.6299212598425197
        },
        {
          "duration": 0.23645833333333144,
          "durationTicks": 227,
          "midi": 46,
          "name": "A#2",
          "ticks": 142680,
          "time": 148.625,
          "velocity": 0.6299212598425197
        },
        {
          "duration": 0.23645833333333144,
          "durationTicks": 227,
          "midi": 50,
          "name": "D3",
          "ticks": 142680,
          "time": 148.625,
          "velocity": 0.6299212598425197
        },
        {
          "duration": 0.23645833333333144,
          "durationTicks": 227,
          "midi": 46,
          "name": "A#2",
          "ticks": 142920,
          "time": 148.875,
          "velocity": 0.6299212598425197
        },
        {
          "duration": 0.23645833333333144,
          "durationTicks": 227,
          "midi": 50,
          "name": "D3",
          "ticks": 142920,
          "time": 148.875,
          "velocity": 0.6299212598425197
        },
        {
          "duration": 0.23645833333333144,
          "durationTicks": 227,
          "midi": 43,
          "name": "G2",
          "ticks": 143400,
          "time": 149.375,
          "velocity": 0.6299212598425197
        },
        {
          "duration": 0.23645833333333144,
          "durationTicks": 227,
          "midi": 50,
          "name": "D3",
          "ticks": 143400,
          "time": 149.375,
          "velocity": 0.6299212598425197
        },
        {
          "duration": 0.4739583333333428,
          "durationTicks": 455,
          "midi": 50,
          "name": "D3",
          "ticks": 143640,
          "time": 149.625,
          "velocity": 0.6299212598425197
        },
        {
          "duration": 0.4739583333333428,
          "durationTicks": 455,
          "midi": 55,
          "name": "G3",
          "ticks": 143640,
          "time": 149.625,
          "velocity": 0.6299212598425197
        },
        {
          "duration": 0.4739583333333428,
          "durationTicks": 455,
          "midi": 52,
          "name": "E3",
          "ticks": 144120,
          "time": 150.125,
          "velocity": 0.6299212598425197
        },
        {
          "duration": 0.4739583333333428,
          "durationTicks": 455,
          "midi": 57,
          "name": "A3",
          "ticks": 144120,
          "time": 150.125,
          "velocity": 0.6299212598425197
        },
        {
          "duration": 0.23645833333333144,
          "durationTicks": 227,
          "midi": 45,
          "name": "A2",
          "ticks": 144600,
          "time": 150.625,
          "velocity": 0.6299212598425197
        },
        {
          "duration": 0.23645833333333144,
          "durationTicks": 227,
          "midi": 52,
          "name": "E3",
          "ticks": 144600,
          "time": 150.625,
          "velocity": 0.6299212598425197
        },
        {
          "duration": 0.23645833333333144,
          "durationTicks": 227,
          "midi": 45,
          "name": "A2",
          "ticks": 144840,
          "time": 150.875,
          "velocity": 0.6299212598425197
        },
        {
          "duration": 0.23645833333333144,
          "durationTicks": 227,
          "midi": 52,
          "name": "E3",
          "ticks": 144840,
          "time": 150.875,
          "velocity": 0.6299212598425197
        },
        {
          "duration": 0.23645833333333144,
          "durationTicks": 227,
          "midi": 45,
          "name": "A2",
          "ticks": 145080,
          "time": 151.125,
          "velocity": 0.6299212598425197
        },
        {
          "duration": 0.23645833333333144,
          "durationTicks": 227,
          "midi": 52,
          "name": "E3",
          "ticks": 145080,
          "time": 151.125,
          "velocity": 0.6299212598425197
        },
        {
          "duration": 0.23645833333333144,
          "durationTicks": 227,
          "midi": 45,
          "name": "A2",
          "ticks": 145320,
          "time": 151.375,
          "velocity": 0.6299212598425197
        },
        {
          "duration": 0.23645833333333144,
          "durationTicks": 227,
          "midi": 52,
          "name": "E3",
          "ticks": 145320,
          "time": 151.375,
          "velocity": 0.6299212598425197
        },
        {
          "duration": 0.9489583333333371,
          "durationTicks": 911,
          "midi": 45,
          "name": "A2",
          "ticks": 145560,
          "time": 151.625,
          "velocity": 0.6299212598425197
        },
        {
          "duration": 0.9489583333333371,
          "durationTicks": 911,
          "midi": 52,
          "name": "E3",
          "ticks": 145560,
          "time": 151.625,
          "velocity": 0.6299212598425197
        },
        {
          "duration": 0.23645833333333144,
          "durationTicks": 227,
          "midi": 45,
          "name": "A2",
          "ticks": 146520,
          "time": 152.625,
          "velocity": 0.6299212598425197
        },
        {
          "duration": 0.23645833333333144,
          "durationTicks": 227,
          "midi": 50,
          "name": "D3",
          "ticks": 146520,
          "time": 152.625,
          "velocity": 0.6299212598425197
        },
        {
          "duration": 0.23645833333333144,
          "durationTicks": 227,
          "midi": 45,
          "name": "A2",
          "ticks": 146760,
          "time": 152.875,
          "velocity": 0.6299212598425197
        },
        {
          "duration": 0.23645833333333144,
          "durationTicks": 227,
          "midi": 53,
          "name": "F3",
          "ticks": 147000,
          "time": 153.125,
          "velocity": 0.6299212598425197
        },
        {
          "duration": 0.23645833333333144,
          "durationTicks": 227,
          "midi": 45,
          "name": "A2",
          "ticks": 147240,
          "time": 153.375,
          "velocity": 0.6299212598425197
        },
        {
          "duration": 0.23645833333333144,
          "durationTicks": 227,
          "midi": 50,
          "name": "D3",
          "ticks": 147480,
          "time": 153.625,
          "velocity": 0.6299212598425197
        },
        {
          "duration": 0.23645833333333144,
          "durationTicks": 227,
          "midi": 46,
          "name": "A#2",
          "ticks": 147720,
          "time": 153.875,
          "velocity": 0.6299212598425197
        },
        {
          "duration": 0.23645833333333144,
          "durationTicks": 227,
          "midi": 53,
          "name": "F3",
          "ticks": 147960,
          "time": 154.125,
          "velocity": 0.6299212598425197
        },
        {
          "duration": 0.23645833333333144,
          "durationTicks": 227,
          "midi": 46,
          "name": "A#2",
          "ticks": 148200,
          "time": 154.375,
          "velocity": 0.6299212598425197
        },
        {
          "duration": 0.23645833333333144,
          "durationTicks": 227,
          "midi": 48,
          "name": "C3",
          "ticks": 148440,
          "time": 154.625,
          "velocity": 0.6299212598425197
        },
        {
          "duration": 0.23645833333333144,
          "durationTicks": 227,
          "midi": 55,
          "name": "G3",
          "ticks": 148680,
          "time": 154.875,
          "velocity": 0.6299212598425197
        },
        {
          "duration": 0.23645833333333144,
          "durationTicks": 227,
          "midi": 60,
          "name": "C4",
          "ticks": 148920,
          "time": 155.125,
          "velocity": 0.6299212598425197
        },
        {
          "duration": 0.23645833333333144,
          "durationTicks": 227,
          "midi": 55,
          "name": "G3",
          "ticks": 149160,
          "time": 155.375,
          "velocity": 0.6299212598425197
        },
        {
          "duration": 0.23645833333333144,
          "durationTicks": 227,
          "midi": 53,
          "name": "F3",
          "ticks": 149400,
          "time": 155.625,
          "velocity": 0.6299212598425197
        },
        {
          "duration": 0.23645833333333144,
          "durationTicks": 227,
          "midi": 57,
          "name": "A3",
          "ticks": 149640,
          "time": 155.875,
          "velocity": 0.6299212598425197
        },
        {
          "duration": 0.23645833333333144,
          "durationTicks": 227,
          "midi": 53,
          "name": "F3",
          "ticks": 149880,
          "time": 156.125,
          "velocity": 0.6299212598425197
        },
        {
          "duration": 0.23645833333333144,
          "durationTicks": 227,
          "midi": 48,
          "name": "C3",
          "ticks": 150120,
          "time": 156.375,
          "velocity": 0.6299212598425197
        },
        {
          "duration": 0.23645833333333144,
          "durationTicks": 227,
          "midi": 45,
          "name": "A2",
          "ticks": 150360,
          "time": 156.625,
          "velocity": 0.6299212598425197
        },
        {
          "duration": 0.23645833333333144,
          "durationTicks": 227,
          "midi": 50,
          "name": "D3",
          "ticks": 150360,
          "time": 156.625,
          "velocity": 0.6299212598425197
        },
        {
          "duration": 0.23645833333333144,
          "durationTicks": 227,
          "midi": 45,
          "name": "A2",
          "ticks": 150600,
          "time": 156.875,
          "velocity": 0.6299212598425197
        },
        {
          "duration": 0.23645833333333144,
          "durationTicks": 227,
          "midi": 53,
          "name": "F3",
          "ticks": 150840,
          "time": 157.125,
          "velocity": 0.6299212598425197
        },
        {
          "duration": 0.23645833333333144,
          "durationTicks": 227,
          "midi": 45,
          "name": "A2",
          "ticks": 151080,
          "time": 157.375,
          "velocity": 0.6299212598425197
        },
        {
          "duration": 0.23645833333333144,
          "durationTicks": 227,
          "midi": 50,
          "name": "D3",
          "ticks": 151320,
          "time": 157.625,
          "velocity": 0.6299212598425197
        },
        {
          "duration": 0.23645833333333144,
          "durationTicks": 227,
          "midi": 46,
          "name": "A#2",
          "ticks": 151560,
          "time": 157.875,
          "velocity": 0.6299212598425197
        },
        {
          "duration": 0.23645833333333144,
          "durationTicks": 227,
          "midi": 53,
          "name": "F3",
          "ticks": 151800,
          "time": 158.125,
          "velocity": 0.6299212598425197
        },
        {
          "duration": 0.23645833333333144,
          "durationTicks": 227,
          "midi": 46,
          "name": "A#2",
          "ticks": 152040,
          "time": 158.375,
          "velocity": 0.6299212598425197
        },
        {
          "duration": 0.23645833333333144,
          "durationTicks": 227,
          "midi": 48,
          "name": "C3",
          "ticks": 152280,
          "time": 158.625,
          "velocity": 0.6299212598425197
        },
        {
          "duration": 0.23645833333333144,
          "durationTicks": 227,
          "midi": 55,
          "name": "G3",
          "ticks": 152520,
          "time": 158.875,
          "velocity": 0.6299212598425197
        },
        {
          "duration": 0.23645833333333144,
          "durationTicks": 227,
          "midi": 60,
          "name": "C4",
          "ticks": 152760,
          "time": 159.125,
          "velocity": 0.6299212598425197
        },
        {
          "duration": 0.23645833333333144,
          "durationTicks": 227,
          "midi": 55,
          "name": "G3",
          "ticks": 153000,
          "time": 159.375,
          "velocity": 0.6299212598425197
        },
        {
          "duration": 0.23645833333333144,
          "durationTicks": 227,
          "midi": 53,
          "name": "F3",
          "ticks": 153240,
          "time": 159.625,
          "velocity": 0.6299212598425197
        },
        {
          "duration": 0.23645833333333144,
          "durationTicks": 227,
          "midi": 57,
          "name": "A3",
          "ticks": 153480,
          "time": 159.875,
          "velocity": 0.6299212598425197
        },
        {
          "duration": 0.23645833333333144,
          "durationTicks": 227,
          "midi": 53,
          "name": "F3",
          "ticks": 153720,
          "time": 160.125,
          "velocity": 0.6299212598425197
        },
        {
          "duration": 0.23645833333333144,
          "durationTicks": 227,
          "midi": 48,
          "name": "C3",
          "ticks": 153960,
          "time": 160.375,
          "velocity": 0.6299212598425197
        },
        {
          "duration": 0.23645833333333144,
          "durationTicks": 227,
          "midi": 45,
          "name": "A2",
          "ticks": 154200,
          "time": 160.625,
          "velocity": 0.6299212598425197
        },
        {
          "duration": 0.23645833333333144,
          "durationTicks": 227,
          "midi": 50,
          "name": "D3",
          "ticks": 154200,
          "time": 160.625,
          "velocity": 0.6299212598425197
        },
        {
          "duration": 0.23645833333333144,
          "durationTicks": 227,
          "midi": 45,
          "name": "A2",
          "ticks": 154440,
          "time": 160.875,
          "velocity": 0.6299212598425197
        },
        {
          "duration": 0.23645833333333144,
          "durationTicks": 227,
          "midi": 53,
          "name": "F3",
          "ticks": 154680,
          "time": 161.125,
          "velocity": 0.6299212598425197
        },
        {
          "duration": 0.23645833333333144,
          "durationTicks": 227,
          "midi": 45,
          "name": "A2",
          "ticks": 154920,
          "time": 161.375,
          "velocity": 0.6299212598425197
        },
        {
          "duration": 0.23645833333333144,
          "durationTicks": 227,
          "midi": 50,
          "name": "D3",
          "ticks": 155160,
          "time": 161.625,
          "velocity": 0.6299212598425197
        },
        {
          "duration": 0.23645833333333144,
          "durationTicks": 227,
          "midi": 46,
          "name": "A#2",
          "ticks": 155400,
          "time": 161.875,
          "velocity": 0.6299212598425197
        },
        {
          "duration": 0.23645833333333144,
          "durationTicks": 227,
          "midi": 53,
          "name": "F3",
          "ticks": 155640,
          "time": 162.125,
          "velocity": 0.6299212598425197
        },
        {
          "duration": 0.23645833333333144,
          "durationTicks": 227,
          "midi": 46,
          "name": "A#2",
          "ticks": 155880,
          "time": 162.375,
          "velocity": 0.6299212598425197
        },
        {
          "duration": 0.23645833333333144,
          "durationTicks": 227,
          "midi": 48,
          "name": "C3",
          "ticks": 156120,
          "time": 162.625,
          "velocity": 0.6299212598425197
        },
        {
          "duration": 0.23645833333333144,
          "durationTicks": 227,
          "midi": 55,
          "name": "G3",
          "ticks": 156360,
          "time": 162.875,
          "velocity": 0.6299212598425197
        },
        {
          "duration": 0.23645833333333144,
          "durationTicks": 227,
          "midi": 60,
          "name": "C4",
          "ticks": 156600,
          "time": 163.125,
          "velocity": 0.6299212598425197
        },
        {
          "duration": 0.23645833333333144,
          "durationTicks": 227,
          "midi": 55,
          "name": "G3",
          "ticks": 156840,
          "time": 163.375,
          "velocity": 0.6299212598425197
        },
        {
          "duration": 0.23645833333333144,
          "durationTicks": 227,
          "midi": 53,
          "name": "F3",
          "ticks": 157080,
          "time": 163.625,
          "velocity": 0.6299212598425197
        },
        {
          "duration": 0.23645833333333144,
          "durationTicks": 227,
          "midi": 57,
          "name": "A3",
          "ticks": 157320,
          "time": 163.875,
          "velocity": 0.6299212598425197
        },
        {
          "duration": 0.23645833333333144,
          "durationTicks": 227,
          "midi": 53,
          "name": "F3",
          "ticks": 157560,
          "time": 164.125,
          "velocity": 0.6299212598425197
        },
        {
          "duration": 0.23645833333333144,
          "durationTicks": 227,
          "midi": 48,
          "name": "C3",
          "ticks": 157800,
          "time": 164.375,
          "velocity": 0.6299212598425197
        },
        {
          "duration": 0.23645833333333144,
          "durationTicks": 227,
          "midi": 45,
          "name": "A2",
          "ticks": 158040,
          "time": 164.625,
          "velocity": 0.6299212598425197
        },
        {
          "duration": 0.23645833333333144,
          "durationTicks": 227,
          "midi": 50,
          "name": "D3",
          "ticks": 158040,
          "time": 164.625,
          "velocity": 0.6299212598425197
        },
        {
          "duration": 0.23645833333333144,
          "durationTicks": 227,
          "midi": 45,
          "name": "A2",
          "ticks": 158280,
          "time": 164.875,
          "velocity": 0.6299212598425197
        },
        {
          "duration": 0.23645833333333144,
          "durationTicks": 227,
          "midi": 53,
          "name": "F3",
          "ticks": 158520,
          "time": 165.125,
          "velocity": 0.6299212598425197
        },
        {
          "duration": 0.23645833333333144,
          "durationTicks": 227,
          "midi": 45,
          "name": "A2",
          "ticks": 158760,
          "time": 165.375,
          "velocity": 0.6299212598425197
        },
        {
          "duration": 0.23645833333333144,
          "durationTicks": 227,
          "midi": 50,
          "name": "D3",
          "ticks": 159000,
          "time": 165.625,
          "velocity": 0.6299212598425197
        },
        {
          "duration": 0.23645833333333144,
          "durationTicks": 227,
          "midi": 46,
          "name": "A#2",
          "ticks": 159240,
          "time": 165.875,
          "velocity": 0.6299212598425197
        },
        {
          "duration": 0.23645833333333144,
          "durationTicks": 227,
          "midi": 53,
          "name": "F3",
          "ticks": 159480,
          "time": 166.125,
          "velocity": 0.6299212598425197
        },
        {
          "duration": 0.23645833333333144,
          "durationTicks": 227,
          "midi": 46,
          "name": "A#2",
          "ticks": 159720,
          "time": 166.375,
          "velocity": 0.6299212598425197
        },
        {
          "duration": 0.23645833333333144,
          "durationTicks": 227,
          "midi": 48,
          "name": "C3",
          "ticks": 159960,
          "time": 166.625,
          "velocity": 0.6299212598425197
        },
        {
          "duration": 0.23645833333333144,
          "durationTicks": 227,
          "midi": 55,
          "name": "G3",
          "ticks": 160200,
          "time": 166.875,
          "velocity": 0.6299212598425197
        },
        {
          "duration": 0.23645833333333144,
          "durationTicks": 227,
          "midi": 60,
          "name": "C4",
          "ticks": 160440,
          "time": 167.125,
          "velocity": 0.6299212598425197
        },
        {
          "duration": 0.23645833333333144,
          "durationTicks": 227,
          "midi": 55,
          "name": "G3",
          "ticks": 160680,
          "time": 167.375,
          "velocity": 0.6299212598425197
        },
        {
          "duration": 0.4739583333333428,
          "durationTicks": 455,
          "midi": 45,
          "name": "A2",
          "ticks": 160920,
          "time": 167.625,
          "velocity": 0.6299212598425197
        },
        {
          "duration": 0.4739583333333428,
          "durationTicks": 455,
          "midi": 50,
          "name": "D3",
          "ticks": 160920,
          "time": 167.625,
          "velocity": 0.6299212598425197
        },
        {
          "duration": 0.4739583333333428,
          "durationTicks": 455,
          "midi": 53,
          "name": "F3",
          "ticks": 160920,
          "time": 167.625,
          "velocity": 0.6299212598425197
        },
        {
          "duration": 0.4739583333333428,
          "durationTicks": 455,
          "midi": 48,
          "name": "C3",
          "ticks": 161400,
          "time": 168.125,
          "velocity": 0.6299212598425197
        },
        {
          "duration": 0.4739583333333428,
          "durationTicks": 455,
          "midi": 50,
          "name": "D3",
          "ticks": 161400,
          "time": 168.125,
          "velocity": 0.6299212598425197
        },
        {
          "duration": 0.4739583333333428,
          "durationTicks": 455,
          "midi": 55,
          "name": "G3",
          "ticks": 161400,
          "time": 168.125,
          "velocity": 0.6299212598425197
        },
        {
          "duration": 0.23645833333333144,
          "durationTicks": 227,
          "midi": 45,
          "name": "A2",
          "ticks": 161880,
          "time": 168.625,
          "velocity": 0.6299212598425197
        },
        {
          "duration": 0.23645833333333144,
          "durationTicks": 227,
          "midi": 50,
          "name": "D3",
          "ticks": 161880,
          "time": 168.625,
          "velocity": 0.6299212598425197
        },
        {
          "duration": 0.23645833333333144,
          "durationTicks": 227,
          "midi": 45,
          "name": "A2",
          "ticks": 162120,
          "time": 168.875,
          "velocity": 0.6299212598425197
        },
        {
          "duration": 0.23645833333333144,
          "durationTicks": 227,
          "midi": 53,
          "name": "F3",
          "ticks": 162360,
          "time": 169.125,
          "velocity": 0.6299212598425197
        },
        {
          "duration": 0.23645833333333144,
          "durationTicks": 227,
          "midi": 45,
          "name": "A2",
          "ticks": 162600,
          "time": 169.375,
          "velocity": 0.6299212598425197
        },
        {
          "duration": 0.23645833333333144,
          "durationTicks": 227,
          "midi": 50,
          "name": "D3",
          "ticks": 162840,
          "time": 169.625,
          "velocity": 0.6299212598425197
        },
        {
          "duration": 0.23645833333333144,
          "durationTicks": 227,
          "midi": 46,
          "name": "A#2",
          "ticks": 163080,
          "time": 169.875,
          "velocity": 0.6299212598425197
        },
        {
          "duration": 0.23645833333333144,
          "durationTicks": 227,
          "midi": 53,
          "name": "F3",
          "ticks": 163320,
          "time": 170.125,
          "velocity": 0.6299212598425197
        },
        {
          "duration": 0.23645833333333144,
          "durationTicks": 227,
          "midi": 46,
          "name": "A#2",
          "ticks": 163560,
          "time": 170.375,
          "velocity": 0.6299212598425197
        },
        {
          "duration": 0.23645833333333144,
          "durationTicks": 227,
          "midi": 48,
          "name": "C3",
          "ticks": 163800,
          "time": 170.625,
          "velocity": 0.6299212598425197
        },
        {
          "duration": 0.23645833333333144,
          "durationTicks": 227,
          "midi": 55,
          "name": "G3",
          "ticks": 164040,
          "time": 170.875,
          "velocity": 0.6299212598425197
        },
        {
          "duration": 0.23645833333333144,
          "durationTicks": 227,
          "midi": 60,
          "name": "C4",
          "ticks": 164280,
          "time": 171.125,
          "velocity": 0.6299212598425197
        },
        {
          "duration": 0.23645833333333144,
          "durationTicks": 227,
          "midi": 55,
          "name": "G3",
          "ticks": 164520,
          "time": 171.375,
          "velocity": 0.6299212598425197
        },
        {
          "duration": 0.23645833333333144,
          "durationTicks": 227,
          "midi": 53,
          "name": "F3",
          "ticks": 164760,
          "time": 171.625,
          "velocity": 0.6299212598425197
        },
        {
          "duration": 0.23645833333333144,
          "durationTicks": 227,
          "midi": 57,
          "name": "A3",
          "ticks": 165000,
          "time": 171.875,
          "velocity": 0.6299212598425197
        },
        {
          "duration": 0.23645833333333144,
          "durationTicks": 227,
          "midi": 53,
          "name": "F3",
          "ticks": 165240,
          "time": 172.125,
          "velocity": 0.6299212598425197
        },
        {
          "duration": 0.23645833333333144,
          "durationTicks": 227,
          "midi": 48,
          "name": "C3",
          "ticks": 165480,
          "time": 172.375,
          "velocity": 0.6299212598425197
        },
        {
          "duration": 0.23645833333333144,
          "durationTicks": 227,
          "midi": 45,
          "name": "A2",
          "ticks": 165720,
          "time": 172.625,
          "velocity": 0.6299212598425197
        },
        {
          "duration": 0.23645833333333144,
          "durationTicks": 227,
          "midi": 50,
          "name": "D3",
          "ticks": 165720,
          "time": 172.625,
          "velocity": 0.6299212598425197
        },
        {
          "duration": 0.23645833333333144,
          "durationTicks": 227,
          "midi": 45,
          "name": "A2",
          "ticks": 165960,
          "time": 172.875,
          "velocity": 0.6299212598425197
        },
        {
          "duration": 0.23645833333333144,
          "durationTicks": 227,
          "midi": 53,
          "name": "F3",
          "ticks": 166200,
          "time": 173.125,
          "velocity": 0.6299212598425197
        },
        {
          "duration": 0.23645833333333144,
          "durationTicks": 227,
          "midi": 45,
          "name": "A2",
          "ticks": 166440,
          "time": 173.375,
          "velocity": 0.6299212598425197
        },
        {
          "duration": 0.23645833333333144,
          "durationTicks": 227,
          "midi": 50,
          "name": "D3",
          "ticks": 166680,
          "time": 173.625,
          "velocity": 0.6299212598425197
        },
        {
          "duration": 0.23645833333333144,
          "durationTicks": 227,
          "midi": 46,
          "name": "A#2",
          "ticks": 166920,
          "time": 173.875,
          "velocity": 0.6299212598425197
        },
        {
          "duration": 0.23645833333333144,
          "durationTicks": 227,
          "midi": 53,
          "name": "F3",
          "ticks": 167160,
          "time": 174.125,
          "velocity": 0.6299212598425197
        },
        {
          "duration": 0.23645833333333144,
          "durationTicks": 227,
          "midi": 46,
          "name": "A#2",
          "ticks": 167400,
          "time": 174.375,
          "velocity": 0.6299212598425197
        },
        {
          "duration": 0.23645833333333144,
          "durationTicks": 227,
          "midi": 48,
          "name": "C3",
          "ticks": 167640,
          "time": 174.625,
          "velocity": 0.6299212598425197
        },
        {
          "duration": 0.23645833333333144,
          "durationTicks": 227,
          "midi": 55,
          "name": "G3",
          "ticks": 167880,
          "time": 174.875,
          "velocity": 0.6299212598425197
        },
        {
          "duration": 0.23645833333333144,
          "durationTicks": 227,
          "midi": 60,
          "name": "C4",
          "ticks": 168120,
          "time": 175.125,
          "velocity": 0.6299212598425197
        },
        {
          "duration": 0.23645833333333144,
          "durationTicks": 227,
          "midi": 55,
          "name": "G3",
          "ticks": 168360,
          "time": 175.375,
          "velocity": 0.6299212598425197
        },
        {
          "duration": 0.23645833333333144,
          "durationTicks": 227,
          "midi": 53,
          "name": "F3",
          "ticks": 168600,
          "time": 175.625,
          "velocity": 0.6299212598425197
        },
        {
          "duration": 0.23645833333333144,
          "durationTicks": 227,
          "midi": 57,
          "name": "A3",
          "ticks": 168840,
          "time": 175.875,
          "velocity": 0.6299212598425197
        },
        {
          "duration": 0.23645833333333144,
          "durationTicks": 227,
          "midi": 53,
          "name": "F3",
          "ticks": 169080,
          "time": 176.125,
          "velocity": 0.6299212598425197
        },
        {
          "duration": 0.23645833333333144,
          "durationTicks": 227,
          "midi": 48,
          "name": "C3",
          "ticks": 169320,
          "time": 176.375,
          "velocity": 0.6299212598425197
        },
        {
          "duration": 0.23645833333333144,
          "durationTicks": 227,
          "midi": 45,
          "name": "A2",
          "ticks": 169560,
          "time": 176.625,
          "velocity": 0.6299212598425197
        },
        {
          "duration": 0.23645833333333144,
          "durationTicks": 227,
          "midi": 50,
          "name": "D3",
          "ticks": 169560,
          "time": 176.625,
          "velocity": 0.6299212598425197
        },
        {
          "duration": 0.23645833333333144,
          "durationTicks": 227,
          "midi": 45,
          "name": "A2",
          "ticks": 169800,
          "time": 176.875,
          "velocity": 0.6299212598425197
        },
        {
          "duration": 0.23645833333333144,
          "durationTicks": 227,
          "midi": 53,
          "name": "F3",
          "ticks": 170040,
          "time": 177.125,
          "velocity": 0.6299212598425197
        },
        {
          "duration": 0.23645833333333144,
          "durationTicks": 227,
          "midi": 45,
          "name": "A2",
          "ticks": 170280,
          "time": 177.375,
          "velocity": 0.6299212598425197
        },
        {
          "duration": 0.23645833333333144,
          "durationTicks": 227,
          "midi": 50,
          "name": "D3",
          "ticks": 170520,
          "time": 177.625,
          "velocity": 0.6299212598425197
        },
        {
          "duration": 0.23645833333333144,
          "durationTicks": 227,
          "midi": 46,
          "name": "A#2",
          "ticks": 170760,
          "time": 177.875,
          "velocity": 0.6299212598425197
        },
        {
          "duration": 0.23645833333333144,
          "durationTicks": 227,
          "midi": 53,
          "name": "F3",
          "ticks": 171000,
          "time": 178.125,
          "velocity": 0.6299212598425197
        },
        {
          "duration": 0.23645833333333144,
          "durationTicks": 227,
          "midi": 46,
          "name": "A#2",
          "ticks": 171240,
          "time": 178.375,
          "velocity": 0.6299212598425197
        },
        {
          "duration": 0.23645833333333144,
          "durationTicks": 227,
          "midi": 48,
          "name": "C3",
          "ticks": 171480,
          "time": 178.625,
          "velocity": 0.6299212598425197
        },
        {
          "duration": 0.23645833333333144,
          "durationTicks": 227,
          "midi": 55,
          "name": "G3",
          "ticks": 171720,
          "time": 178.875,
          "velocity": 0.6299212598425197
        },
        {
          "duration": 0.23645833333333144,
          "durationTicks": 227,
          "midi": 60,
          "name": "C4",
          "ticks": 171960,
          "time": 179.125,
          "velocity": 0.6299212598425197
        },
        {
          "duration": 0.23645833333333144,
          "durationTicks": 227,
          "midi": 55,
          "name": "G3",
          "ticks": 172200,
          "time": 179.375,
          "velocity": 0.6299212598425197
        },
        {
          "duration": 0.23645833333333144,
          "durationTicks": 227,
          "midi": 53,
          "name": "F3",
          "ticks": 172440,
          "time": 179.625,
          "velocity": 0.6299212598425197
        },
        {
          "duration": 0.23645833333333144,
          "durationTicks": 227,
          "midi": 57,
          "name": "A3",
          "ticks": 172680,
          "time": 179.875,
          "velocity": 0.6299212598425197
        },
        {
          "duration": 0.23645833333333144,
          "durationTicks": 227,
          "midi": 53,
          "name": "F3",
          "ticks": 172920,
          "time": 180.125,
          "velocity": 0.6299212598425197
        },
        {
          "duration": 0.23645833333333144,
          "durationTicks": 227,
          "midi": 48,
          "name": "C3",
          "ticks": 173160,
          "time": 180.375,
          "velocity": 0.6299212598425197
        },
        {
          "duration": 0.23645833333333144,
          "durationTicks": 227,
          "midi": 45,
          "name": "A2",
          "ticks": 173400,
          "time": 180.625,
          "velocity": 0.6299212598425197
        },
        {
          "duration": 0.23645833333333144,
          "durationTicks": 227,
          "midi": 50,
          "name": "D3",
          "ticks": 173400,
          "time": 180.625,
          "velocity": 0.6299212598425197
        },
        {
          "duration": 0.23645833333333144,
          "durationTicks": 227,
          "midi": 45,
          "name": "A2",
          "ticks": 173640,
          "time": 180.875,
          "velocity": 0.6299212598425197
        },
        {
          "duration": 0.23645833333333144,
          "durationTicks": 227,
          "midi": 53,
          "name": "F3",
          "ticks": 173880,
          "time": 181.125,
          "velocity": 0.6299212598425197
        },
        {
          "duration": 0.23645833333333144,
          "durationTicks": 227,
          "midi": 45,
          "name": "A2",
          "ticks": 174120,
          "time": 181.375,
          "velocity": 0.6299212598425197
        },
        {
          "duration": 0.23645833333333144,
          "durationTicks": 227,
          "midi": 50,
          "name": "D3",
          "ticks": 174360,
          "time": 181.625,
          "velocity": 0.6299212598425197
        },
        {
          "duration": 0.23645833333333144,
          "durationTicks": 227,
          "midi": 46,
          "name": "A#2",
          "ticks": 174600,
          "time": 181.875,
          "velocity": 0.6299212598425197
        },
        {
          "duration": 0.23645833333333144,
          "durationTicks": 227,
          "midi": 53,
          "name": "F3",
          "ticks": 174840,
          "time": 182.125,
          "velocity": 0.6299212598425197
        },
        {
          "duration": 0.23645833333333144,
          "durationTicks": 227,
          "midi": 46,
          "name": "A#2",
          "ticks": 175080,
          "time": 182.375,
          "velocity": 0.6299212598425197
        },
        {
          "duration": 0.23645833333333144,
          "durationTicks": 227,
          "midi": 48,
          "name": "C3",
          "ticks": 175320,
          "time": 182.625,
          "velocity": 0.6299212598425197
        },
        {
          "duration": 0.23645833333333144,
          "durationTicks": 227,
          "midi": 55,
          "name": "G3",
          "ticks": 175560,
          "time": 182.875,
          "velocity": 0.6299212598425197
        },
        {
          "duration": 0.23645833333333144,
          "durationTicks": 227,
          "midi": 60,
          "name": "C4",
          "ticks": 175800,
          "time": 183.125,
          "velocity": 0.6299212598425197
        },
        {
          "duration": 0.23645833333333144,
          "durationTicks": 227,
          "midi": 55,
          "name": "G3",
          "ticks": 176040,
          "time": 183.375,
          "velocity": 0.6299212598425197
        },
        {
          "duration": 0.4739583333333428,
          "durationTicks": 455,
          "midi": 45,
          "name": "A2",
          "ticks": 176280,
          "time": 183.625,
          "velocity": 0.6299212598425197
        },
        {
          "duration": 0.4739583333333428,
          "durationTicks": 455,
          "midi": 50,
          "name": "D3",
          "ticks": 176280,
          "time": 183.625,
          "velocity": 0.6299212598425197
        },
        {
          "duration": 0.4739583333333428,
          "durationTicks": 455,
          "midi": 53,
          "name": "F3",
          "ticks": 176280,
          "time": 183.625,
          "velocity": 0.6299212598425197
        },
        {
          "duration": 0.23645833333333144,
          "durationTicks": 227,
          "midi": 50,
          "name": "D3",
          "ticks": 176760,
          "time": 184.125,
          "velocity": 0.6299212598425197
        },
        {
          "duration": 0.23645833333333144,
          "durationTicks": 227,
          "midi": 53,
          "name": "F3",
          "ticks": 177000,
          "time": 184.375,
          "velocity": 0.6299212598425197
        },
        {
          "duration": 0.9489583333333371,
          "durationTicks": 911,
          "midi": 50,
          "name": "D3",
          "ticks": 177240,
          "time": 184.625,
          "velocity": 0.6299212598425197
        },
        {
          "duration": 0.9489583333333371,
          "durationTicks": 911,
          "midi": 62,
          "name": "D4",
          "ticks": 177240,
          "time": 184.625,
          "velocity": 0.6299212598425197
        },
        {
          "duration": 0.9489583333333371,
          "durationTicks": 911,
          "midi": 46,
          "name": "A#2",
          "ticks": 178200,
          "time": 185.625,
          "velocity": 0.6299212598425197
        },
        {
          "duration": 0.9489583333333371,
          "durationTicks": 911,
          "midi": 58,
          "name": "A#3",
          "ticks": 178200,
          "time": 185.625,
          "velocity": 0.6299212598425197
        },
        {
          "duration": 0.9489583333333371,
          "durationTicks": 911,
          "midi": 48,
          "name": "C3",
          "ticks": 179160,
          "time": 186.625,
          "velocity": 0.6299212598425197
        },
        {
          "duration": 0.9489583333333371,
          "durationTicks": 911,
          "midi": 60,
          "name": "C4",
          "ticks": 179160,
          "time": 186.625,
          "velocity": 0.6299212598425197
        },
        {
          "duration": 0.9489583333333371,
          "durationTicks": 911,
          "midi": 50,
          "name": "D3",
          "ticks": 180120,
          "time": 187.625,
          "velocity": 0.6299212598425197
        },
        {
          "duration": 0.9489583333333371,
          "durationTicks": 911,
          "midi": 62,
          "name": "D4",
          "ticks": 180120,
          "time": 187.625,
          "velocity": 0.6299212598425197
        },
        {
          "duration": 0.9489583333333371,
          "durationTicks": 911,
          "midi": 50,
          "name": "D3",
          "ticks": 181080,
          "time": 188.625,
          "velocity": 0.6299212598425197
        },
        {
          "duration": 0.9489583333333371,
          "durationTicks": 911,
          "midi": 62,
          "name": "D4",
          "ticks": 181080,
          "time": 188.625,
          "velocity": 0.6299212598425197
        },
        {
          "duration": 0.9489583333333371,
          "durationTicks": 911,
          "midi": 46,
          "name": "A#2",
          "ticks": 182040,
          "time": 189.625,
          "velocity": 0.6299212598425197
        },
        {
          "duration": 0.9489583333333371,
          "durationTicks": 911,
          "midi": 58,
          "name": "A#3",
          "ticks": 182040,
          "time": 189.625,
          "velocity": 0.6299212598425197
        },
        {
          "duration": 0.23645833333333144,
          "durationTicks": 227,
          "midi": 48,
          "name": "C3",
          "ticks": 183000,
          "time": 190.625,
          "velocity": 0.6299212598425197
        },
        {
          "duration": 0.23645833333333144,
          "durationTicks": 227,
          "midi": 60,
          "name": "C4",
          "ticks": 183240,
          "time": 190.875,
          "velocity": 0.6299212598425197
        },
        {
          "duration": 0.23645833333333144,
          "durationTicks": 227,
          "midi": 48,
          "name": "C3",
          "ticks": 183480,
          "time": 191.125,
          "velocity": 0.6299212598425197
        },
        {
          "duration": 0.23645833333333144,
          "durationTicks": 227,
          "midi": 60,
          "name": "C4",
          "ticks": 183720,
          "time": 191.375,
          "velocity": 0.6299212598425197
        },
        {
          "duration": 0.23645833333333144,
          "durationTicks": 227,
          "midi": 49,
          "name": "C#3",
          "ticks": 183960,
          "time": 191.625,
          "velocity": 0.6299212598425197
        },
        {
          "duration": 0.23645833333333144,
          "durationTicks": 227,
          "midi": 60,
          "name": "C4",
          "ticks": 184200,
          "time": 191.875,
          "velocity": 0.6299212598425197
        },
        {
          "duration": 0.23645833333333144,
          "durationTicks": 227,
          "midi": 49,
          "name": "C#3",
          "ticks": 184440,
          "time": 192.125,
          "velocity": 0.6299212598425197
        },
        {
          "duration": 0.23645833333333144,
          "durationTicks": 227,
          "midi": 60,
          "name": "C4",
          "ticks": 184680,
          "time": 192.375,
          "velocity": 0.6299212598425197
        },
        {
          "duration": 0.23645833333333144,
          "durationTicks": 227,
          "midi": 38,
          "name": "D2",
          "ticks": 184920,
          "time": 192.625,
          "velocity": 0.6299212598425197
        },
        {
          "duration": 0.23645833333333144,
          "durationTicks": 227,
          "midi": 50,
          "name": "D3",
          "ticks": 185160,
          "time": 192.875,
          "velocity": 0.6299212598425197
        },
        {
          "duration": 0.23645833333333144,
          "durationTicks": 227,
          "midi": 45,
          "name": "A2",
          "ticks": 185400,
          "time": 193.125,
          "velocity": 0.6299212598425197
        },
        {
          "duration": 0.23645833333333144,
          "durationTicks": 227,
          "midi": 45,
          "name": "A2",
          "ticks": 185640,
          "time": 193.375,
          "velocity": 0.6299212598425197
        },
        {
          "duration": 0.23645833333333144,
          "durationTicks": 227,
          "midi": 50,
          "name": "D3",
          "ticks": 185640,
          "time": 193.375,
          "velocity": 0.6299212598425197
        },
        {
          "duration": 0.23645833333333144,
          "durationTicks": 227,
          "midi": 38,
          "name": "D2",
          "ticks": 185880,
          "time": 193.625,
          "velocity": 0.6299212598425197
        },
        {
          "duration": 0.23645833333333144,
          "durationTicks": 227,
          "midi": 50,
          "name": "D3",
          "ticks": 186120,
          "time": 193.875,
          "velocity": 0.6299212598425197
        },
        {
          "duration": 0.23645833333333144,
          "durationTicks": 227,
          "midi": 45,
          "name": "A2",
          "ticks": 186360,
          "time": 194.125,
          "velocity": 0.6299212598425197
        },
        {
          "duration": 0.23645833333333144,
          "durationTicks": 227,
          "midi": 45,
          "name": "A2",
          "ticks": 186600,
          "time": 194.375,
          "velocity": 0.6299212598425197
        },
        {
          "duration": 0.23645833333333144,
          "durationTicks": 227,
          "midi": 50,
          "name": "D3",
          "ticks": 186600,
          "time": 194.375,
          "velocity": 0.6299212598425197
        },
        {
          "duration": 0.23645833333333144,
          "durationTicks": 227,
          "midi": 39,
          "name": "D#2",
          "ticks": 186840,
          "time": 194.625,
          "velocity": 0.6299212598425197
        },
        {
          "duration": 0.23645833333333144,
          "durationTicks": 227,
          "midi": 51,
          "name": "D#3",
          "ticks": 187080,
          "time": 194.875,
          "velocity": 0.6299212598425197
        },
        {
          "duration": 0.23645833333333144,
          "durationTicks": 227,
          "midi": 39,
          "name": "D#2",
          "ticks": 187320,
          "time": 195.125,
          "velocity": 0.6299212598425197
        },
        {
          "duration": 0.23645833333333144,
          "durationTicks": 227,
          "midi": 46,
          "name": "A#2",
          "ticks": 187320,
          "time": 195.125,
          "velocity": 0.6299212598425197
        },
        {
          "duration": 0.23645833333333144,
          "durationTicks": 227,
          "midi": 46,
          "name": "A#2",
          "ticks": 187560,
          "time": 195.375,
          "velocity": 0.6299212598425197
        },
        {
          "duration": 0.23645833333333144,
          "durationTicks": 227,
          "midi": 51,
          "name": "D#3",
          "ticks": 187560,
          "time": 195.375,
          "velocity": 0.6299212598425197
        },
        {
          "duration": 0.23645833333333144,
          "durationTicks": 227,
          "midi": 39,
          "name": "D#2",
          "ticks": 187800,
          "time": 195.625,
          "velocity": 0.6299212598425197
        },
        {
          "duration": 0.23645833333333144,
          "durationTicks": 227,
          "midi": 51,
          "name": "D#3",
          "ticks": 188040,
          "time": 195.875,
          "velocity": 0.6299212598425197
        },
        {
          "duration": 0.23645833333333144,
          "durationTicks": 227,
          "midi": 39,
          "name": "D#2",
          "ticks": 188280,
          "time": 196.125,
          "velocity": 0.6299212598425197
        },
        {
          "duration": 0.23645833333333144,
          "durationTicks": 227,
          "midi": 46,
          "name": "A#2",
          "ticks": 188280,
          "time": 196.125,
          "velocity": 0.6299212598425197
        },
        {
          "duration": 0.23645833333333144,
          "durationTicks": 227,
          "midi": 46,
          "name": "A#2",
          "ticks": 188520,
          "time": 196.375,
          "velocity": 0.6299212598425197
        },
        {
          "duration": 0.23645833333333144,
          "durationTicks": 227,
          "midi": 51,
          "name": "D#3",
          "ticks": 188520,
          "time": 196.375,
          "velocity": 0.6299212598425197
        },
        {
          "duration": 0.23645833333333144,
          "durationTicks": 227,
          "midi": 46,
          "name": "A#2",
          "ticks": 188760,
          "time": 196.625,
          "velocity": 0.6299212598425197
        },
        {
          "duration": 0.23645833333333144,
          "durationTicks": 227,
          "midi": 50,
          "name": "D3",
          "ticks": 189000,
          "time": 196.875,
          "velocity": 0.6299212598425197
        },
        {
          "duration": 0.23645833333333144,
          "durationTicks": 227,
          "midi": 41,
          "name": "F2",
          "ticks": 189240,
          "time": 197.125,
          "velocity": 0.6299212598425197
        },
        {
          "duration": 0.23645833333333144,
          "durationTicks": 227,
          "midi": 41,
          "name": "F2",
          "ticks": 189480,
          "time": 197.375,
          "velocity": 0.6299212598425197
        },
        {
          "duration": 0.23645833333333144,
          "durationTicks": 227,
          "midi": 50,
          "name": "D3",
          "ticks": 189480,
          "time": 197.375,
          "velocity": 0.6299212598425197
        },
        {
          "duration": 0.23645833333333144,
          "durationTicks": 227,
          "midi": 46,
          "name": "A#2",
          "ticks": 189720,
          "time": 197.625,
          "velocity": 0.6299212598425197
        },
        {
          "duration": 0.23645833333333144,
          "durationTicks": 227,
          "midi": 50,
          "name": "D3",
          "ticks": 189960,
          "time": 197.875,
          "velocity": 0.6299212598425197
        },
        {
          "duration": 0.23645833333333144,
          "durationTicks": 227,
          "midi": 41,
          "name": "F2",
          "ticks": 190200,
          "time": 198.125,
          "velocity": 0.6299212598425197
        },
        {
          "duration": 0.23645833333333144,
          "durationTicks": 227,
          "midi": 41,
          "name": "F2",
          "ticks": 190440,
          "time": 198.375,
          "velocity": 0.6299212598425197
        },
        {
          "duration": 0.23645833333333144,
          "durationTicks": 227,
          "midi": 50,
          "name": "D3",
          "ticks": 190440,
          "time": 198.375,
          "velocity": 0.6299212598425197
        },
        {
          "duration": 0.23645833333333144,
          "durationTicks": 227,
          "midi": 48,
          "name": "C3",
          "ticks": 190680,
          "time": 198.625,
          "velocity": 0.6299212598425197
        },
        {
          "duration": 0.23645833333333144,
          "durationTicks": 227,
          "midi": 55,
          "name": "G3",
          "ticks": 190920,
          "time": 198.875,
          "velocity": 0.6299212598425197
        },
        {
          "duration": 0.23645833333333144,
          "durationTicks": 227,
          "midi": 48,
          "name": "C3",
          "ticks": 191160,
          "time": 199.125,
          "velocity": 0.6299212598425197
        },
        {
          "duration": 0.23645833333333144,
          "durationTicks": 227,
          "midi": 51,
          "name": "D#3",
          "ticks": 191400,
          "time": 199.375,
          "velocity": 0.6299212598425197
        },
        {
          "duration": 0.23645833333333144,
          "durationTicks": 227,
          "midi": 49,
          "name": "C#3",
          "ticks": 191640,
          "time": 199.625,
          "velocity": 0.6299212598425197
        },
        {
          "duration": 0.23645833333333144,
          "durationTicks": 227,
          "midi": 53,
          "name": "F3",
          "ticks": 191880,
          "time": 199.875,
          "velocity": 0.6299212598425197
        },
        {
          "duration": 0.23645833333333144,
          "durationTicks": 227,
          "midi": 49,
          "name": "C#3",
          "ticks": 192120,
          "time": 200.125,
          "velocity": 0.6299212598425197
        },
        {
          "duration": 0.23645833333333144,
          "durationTicks": 227,
          "midi": 57,
          "name": "A3",
          "ticks": 192360,
          "time": 200.375,
          "velocity": 0.6299212598425197
        },
        {
          "duration": 0.23645833333333144,
          "durationTicks": 227,
          "midi": 38,
          "name": "D2",
          "ticks": 192600,
          "time": 200.625,
          "velocity": 0.6299212598425197
        },
        {
          "duration": 0.23645833333333144,
          "durationTicks": 227,
          "midi": 50,
          "name": "D3",
          "ticks": 192840,
          "time": 200.875,
          "velocity": 0.6299212598425197
        },
        {
          "duration": 0.23645833333333144,
          "durationTicks": 227,
          "midi": 45,
          "name": "A2",
          "ticks": 193080,
          "time": 201.125,
          "velocity": 0.6299212598425197
        },
        {
          "duration": 0.23645833333333144,
          "durationTicks": 227,
          "midi": 45,
          "name": "A2",
          "ticks": 193320,
          "time": 201.375,
          "velocity": 0.6299212598425197
        },
        {
          "duration": 0.23645833333333144,
          "durationTicks": 227,
          "midi": 50,
          "name": "D3",
          "ticks": 193320,
          "time": 201.375,
          "velocity": 0.6299212598425197
        },
        {
          "duration": 0.23645833333333144,
          "durationTicks": 227,
          "midi": 38,
          "name": "D2",
          "ticks": 193560,
          "time": 201.625,
          "velocity": 0.6299212598425197
        },
        {
          "duration": 0.23645833333333144,
          "durationTicks": 227,
          "midi": 50,
          "name": "D3",
          "ticks": 193800,
          "time": 201.875,
          "velocity": 0.6299212598425197
        },
        {
          "duration": 0.23645833333333144,
          "durationTicks": 227,
          "midi": 45,
          "name": "A2",
          "ticks": 194040,
          "time": 202.125,
          "velocity": 0.6299212598425197
        },
        {
          "duration": 0.23645833333333144,
          "durationTicks": 227,
          "midi": 45,
          "name": "A2",
          "ticks": 194280,
          "time": 202.375,
          "velocity": 0.6299212598425197
        },
        {
          "duration": 0.23645833333333144,
          "durationTicks": 227,
          "midi": 50,
          "name": "D3",
          "ticks": 194280,
          "time": 202.375,
          "velocity": 0.6299212598425197
        },
        {
          "duration": 0.23645833333333144,
          "durationTicks": 227,
          "midi": 39,
          "name": "D#2",
          "ticks": 194520,
          "time": 202.625,
          "velocity": 0.6299212598425197
        },
        {
          "duration": 0.23645833333333144,
          "durationTicks": 227,
          "midi": 51,
          "name": "D#3",
          "ticks": 194760,
          "time": 202.875,
          "velocity": 0.6299212598425197
        },
        {
          "duration": 0.23645833333333144,
          "durationTicks": 227,
          "midi": 39,
          "name": "D#2",
          "ticks": 195000,
          "time": 203.125,
          "velocity": 0.6299212598425197
        },
        {
          "duration": 0.23645833333333144,
          "durationTicks": 227,
          "midi": 46,
          "name": "A#2",
          "ticks": 195000,
          "time": 203.125,
          "velocity": 0.6299212598425197
        },
        {
          "duration": 0.23645833333333144,
          "durationTicks": 227,
          "midi": 46,
          "name": "A#2",
          "ticks": 195240,
          "time": 203.375,
          "velocity": 0.6299212598425197
        },
        {
          "duration": 0.23645833333333144,
          "durationTicks": 227,
          "midi": 51,
          "name": "D#3",
          "ticks": 195240,
          "time": 203.375,
          "velocity": 0.6299212598425197
        },
        {
          "duration": 0.23645833333333144,
          "durationTicks": 227,
          "midi": 39,
          "name": "D#2",
          "ticks": 195480,
          "time": 203.625,
          "velocity": 0.6299212598425197
        },
        {
          "duration": 0.23645833333333144,
          "durationTicks": 227,
          "midi": 51,
          "name": "D#3",
          "ticks": 195720,
          "time": 203.875,
          "velocity": 0.6299212598425197
        },
        {
          "duration": 0.23645833333333144,
          "durationTicks": 227,
          "midi": 39,
          "name": "D#2",
          "ticks": 195960,
          "time": 204.125,
          "velocity": 0.6299212598425197
        },
        {
          "duration": 0.23645833333333144,
          "durationTicks": 227,
          "midi": 46,
          "name": "A#2",
          "ticks": 195960,
          "time": 204.125,
          "velocity": 0.6299212598425197
        },
        {
          "duration": 0.23645833333333144,
          "durationTicks": 227,
          "midi": 46,
          "name": "A#2",
          "ticks": 196200,
          "time": 204.375,
          "velocity": 0.6299212598425197
        },
        {
          "duration": 0.23645833333333144,
          "durationTicks": 227,
          "midi": 51,
          "name": "D#3",
          "ticks": 196200,
          "time": 204.375,
          "velocity": 0.6299212598425197
        },
        {
          "duration": 0.23645833333333144,
          "durationTicks": 227,
          "midi": 46,
          "name": "A#2",
          "ticks": 196440,
          "time": 204.625,
          "velocity": 0.6299212598425197
        },
        {
          "duration": 0.23645833333333144,
          "durationTicks": 227,
          "midi": 50,
          "name": "D3",
          "ticks": 196680,
          "time": 204.875,
          "velocity": 0.6299212598425197
        },
        {
          "duration": 0.23645833333333144,
          "durationTicks": 227,
          "midi": 41,
          "name": "F2",
          "ticks": 196920,
          "time": 205.125,
          "velocity": 0.6299212598425197
        },
        {
          "duration": 0.23645833333333144,
          "durationTicks": 227,
          "midi": 41,
          "name": "F2",
          "ticks": 197160,
          "time": 205.375,
          "velocity": 0.6299212598425197
        },
        {
          "duration": 0.23645833333333144,
          "durationTicks": 227,
          "midi": 50,
          "name": "D3",
          "ticks": 197160,
          "time": 205.375,
          "velocity": 0.6299212598425197
        },
        {
          "duration": 0.23645833333333144,
          "durationTicks": 227,
          "midi": 46,
          "name": "A#2",
          "ticks": 197400,
          "time": 205.625,
          "velocity": 0.6299212598425197
        },
        {
          "duration": 0.23645833333333144,
          "durationTicks": 227,
          "midi": 50,
          "name": "D3",
          "ticks": 197640,
          "time": 205.875,
          "velocity": 0.6299212598425197
        },
        {
          "duration": 0.23645833333333144,
          "durationTicks": 227,
          "midi": 41,
          "name": "F2",
          "ticks": 197880,
          "time": 206.125,
          "velocity": 0.6299212598425197
        },
        {
          "duration": 0.23645833333333144,
          "durationTicks": 227,
          "midi": 41,
          "name": "F2",
          "ticks": 198120,
          "time": 206.375,
          "velocity": 0.6299212598425197
        },
        {
          "duration": 0.23645833333333144,
          "durationTicks": 227,
          "midi": 50,
          "name": "D3",
          "ticks": 198120,
          "time": 206.375,
          "velocity": 0.6299212598425197
        },
        {
          "duration": 0.23645833333333144,
          "durationTicks": 227,
          "midi": 48,
          "name": "C3",
          "ticks": 198360,
          "time": 206.625,
          "velocity": 0.6299212598425197
        },
        {
          "duration": 0.23645833333333144,
          "durationTicks": 227,
          "midi": 55,
          "name": "G3",
          "ticks": 198600,
          "time": 206.875,
          "velocity": 0.6299212598425197
        },
        {
          "duration": 0.23645833333333144,
          "durationTicks": 227,
          "midi": 48,
          "name": "C3",
          "ticks": 198840,
          "time": 207.125,
          "velocity": 0.6299212598425197
        },
        {
          "duration": 0.23645833333333144,
          "durationTicks": 227,
          "midi": 55,
          "name": "G3",
          "ticks": 199080,
          "time": 207.375,
          "velocity": 0.6299212598425197
        },
        {
          "duration": 0.23645833333333144,
          "durationTicks": 227,
          "midi": 49,
          "name": "C#3",
          "ticks": 199320,
          "time": 207.625,
          "velocity": 0.6299212598425197
        },
        {
          "duration": 0.23645833333333144,
          "durationTicks": 227,
          "midi": 57,
          "name": "A3",
          "ticks": 199560,
          "time": 207.875,
          "velocity": 0.6299212598425197
        },
        {
          "duration": 0.23645833333333144,
          "durationTicks": 227,
          "midi": 49,
          "name": "C#3",
          "ticks": 199800,
          "time": 208.125,
          "velocity": 0.6299212598425197
        },
        {
          "duration": 0.23645833333333144,
          "durationTicks": 227,
          "midi": 57,
          "name": "A3",
          "ticks": 200040,
          "time": 208.375,
          "velocity": 0.6299212598425197
        },
        {
          "duration": 0.23645833333333144,
          "durationTicks": 227,
          "midi": 34,
          "name": "A#1",
          "ticks": 200280,
          "time": 208.625,
          "velocity": 0.6299212598425197
        },
        {
          "duration": 0.23645833333333144,
          "durationTicks": 227,
          "midi": 41,
          "name": "F2",
          "ticks": 200520,
          "time": 208.875,
          "velocity": 0.6299212598425197
        },
        {
          "duration": 0.23645833333333144,
          "durationTicks": 227,
          "midi": 46,
          "name": "A#2",
          "ticks": 200760,
          "time": 209.125,
          "velocity": 0.6299212598425197
        },
        {
          "duration": 0.23645833333333144,
          "durationTicks": 227,
          "midi": 41,
          "name": "F2",
          "ticks": 201000,
          "time": 209.375,
          "velocity": 0.6299212598425197
        },
        {
          "duration": 0.23645833333333144,
          "durationTicks": 227,
          "midi": 36,
          "name": "C2",
          "ticks": 201240,
          "time": 209.625,
          "velocity": 0.6299212598425197
        },
        {
          "duration": 0.23645833333333144,
          "durationTicks": 227,
          "midi": 43,
          "name": "G2",
          "ticks": 201480,
          "time": 209.875,
          "velocity": 0.6299212598425197
        },
        {
          "duration": 0.23645833333333144,
          "durationTicks": 227,
          "midi": 48,
          "name": "C3",
          "ticks": 201720,
          "time": 210.125,
          "velocity": 0.6299212598425197
        },
        {
          "duration": 0.23645833333333144,
          "durationTicks": 227,
          "midi": 43,
          "name": "G2",
          "ticks": 201960,
          "time": 210.375,
          "velocity": 0.6299212598425197
        },
        {
          "duration": 0.23645833333333144,
          "durationTicks": 227,
          "midi": 38,
          "name": "D2",
          "ticks": 202200,
          "time": 210.625,
          "velocity": 0.6299212598425197
        },
        {
          "duration": 0.23645833333333144,
          "durationTicks": 227,
          "midi": 45,
          "name": "A2",
          "ticks": 202440,
          "time": 210.875,
          "velocity": 0.6299212598425197
        },
        {
          "duration": 0.23645833333333144,
          "durationTicks": 227,
          "midi": 50,
          "name": "D3",
          "ticks": 202680,
          "time": 211.125,
          "velocity": 0.6299212598425197
        },
        {
          "duration": 0.23645833333333144,
          "durationTicks": 227,
          "midi": 45,
          "name": "A2",
          "ticks": 202920,
          "time": 211.375,
          "velocity": 0.6299212598425197
        },
        {
          "duration": 0.23645833333333144,
          "durationTicks": 227,
          "midi": 38,
          "name": "D2",
          "ticks": 203160,
          "time": 211.625,
          "velocity": 0.6299212598425197
        },
        {
          "duration": 0.23645833333333144,
          "durationTicks": 227,
          "midi": 45,
          "name": "A2",
          "ticks": 203400,
          "time": 211.875,
          "velocity": 0.6299212598425197
        },
        {
          "duration": 0.23645833333333144,
          "durationTicks": 227,
          "midi": 50,
          "name": "D3",
          "ticks": 203640,
          "time": 212.125,
          "velocity": 0.6299212598425197
        },
        {
          "duration": 0.23645833333333144,
          "durationTicks": 227,
          "midi": 45,
          "name": "A2",
          "ticks": 203880,
          "time": 212.375,
          "velocity": 0.6299212598425197
        },
        {
          "duration": 0.23645833333333144,
          "durationTicks": 227,
          "midi": 34,
          "name": "A#1",
          "ticks": 204120,
          "time": 212.625,
          "velocity": 0.6299212598425197
        },
        {
          "duration": 0.23645833333333144,
          "durationTicks": 227,
          "midi": 41,
          "name": "F2",
          "ticks": 204360,
          "time": 212.875,
          "velocity": 0.6299212598425197
        },
        {
          "duration": 0.23645833333333144,
          "durationTicks": 227,
          "midi": 46,
          "name": "A#2",
          "ticks": 204600,
          "time": 213.125,
          "velocity": 0.6299212598425197
        },
        {
          "duration": 0.23645833333333144,
          "durationTicks": 227,
          "midi": 41,
          "name": "F2",
          "ticks": 204840,
          "time": 213.375,
          "velocity": 0.6299212598425197
        },
        {
          "duration": 0.23645833333333144,
          "durationTicks": 227,
          "midi": 36,
          "name": "C2",
          "ticks": 205080,
          "time": 213.625,
          "velocity": 0.6299212598425197
        },
        {
          "duration": 0.23645833333333144,
          "durationTicks": 227,
          "midi": 43,
          "name": "G2",
          "ticks": 205320,
          "time": 213.875,
          "velocity": 0.6299212598425197
        },
        {
          "duration": 0.23645833333333144,
          "durationTicks": 227,
          "midi": 48,
          "name": "C3",
          "ticks": 205560,
          "time": 214.125,
          "velocity": 0.6299212598425197
        },
        {
          "duration": 0.23645833333333144,
          "durationTicks": 227,
          "midi": 43,
          "name": "G2",
          "ticks": 205800,
          "time": 214.375,
          "velocity": 0.6299212598425197
        },
        {
          "duration": 0.23645833333333144,
          "durationTicks": 227,
          "midi": 38,
          "name": "D2",
          "ticks": 206040,
          "time": 214.625,
          "velocity": 0.6299212598425197
        },
        {
          "duration": 0.23645833333333144,
          "durationTicks": 227,
          "midi": 45,
          "name": "A2",
          "ticks": 206280,
          "time": 214.875,
          "velocity": 0.6299212598425197
        },
        {
          "duration": 0.23645833333333144,
          "durationTicks": 227,
          "midi": 50,
          "name": "D3",
          "ticks": 206520,
          "time": 215.125,
          "velocity": 0.6299212598425197
        },
        {
          "duration": 0.23645833333333144,
          "durationTicks": 227,
          "midi": 45,
          "name": "A2",
          "ticks": 206760,
          "time": 215.375,
          "velocity": 0.6299212598425197
        },
        {
          "duration": 0.23645833333333144,
          "durationTicks": 227,
          "midi": 38,
          "name": "D2",
          "ticks": 207000,
          "time": 215.625,
          "velocity": 0.6299212598425197
        },
        {
          "duration": 0.23645833333333144,
          "durationTicks": 227,
          "midi": 45,
          "name": "A2",
          "ticks": 207240,
          "time": 215.875,
          "velocity": 0.6299212598425197
        },
        {
          "duration": 0.23645833333333144,
          "durationTicks": 227,
          "midi": 50,
          "name": "D3",
          "ticks": 207480,
          "time": 216.125,
          "velocity": 0.6299212598425197
        },
        {
          "duration": 0.23645833333333144,
          "durationTicks": 227,
          "midi": 45,
          "name": "A2",
          "ticks": 207720,
          "time": 216.375,
          "velocity": 0.6299212598425197
        },
        {
          "duration": 0.23645833333333144,
          "durationTicks": 227,
          "midi": 34,
          "name": "A#1",
          "ticks": 207960,
          "time": 216.625,
          "velocity": 0.6299212598425197
        },
        {
          "duration": 0.23645833333333144,
          "durationTicks": 227,
          "midi": 41,
          "name": "F2",
          "ticks": 208200,
          "time": 216.875,
          "velocity": 0.6299212598425197
        },
        {
          "duration": 0.23645833333333144,
          "durationTicks": 227,
          "midi": 46,
          "name": "A#2",
          "ticks": 208440,
          "time": 217.125,
          "velocity": 0.6299212598425197
        },
        {
          "duration": 0.23645833333333144,
          "durationTicks": 227,
          "midi": 41,
          "name": "F2",
          "ticks": 208680,
          "time": 217.375,
          "velocity": 0.6299212598425197
        },
        {
          "duration": 0.23645833333333144,
          "durationTicks": 227,
          "midi": 36,
          "name": "C2",
          "ticks": 208920,
          "time": 217.625,
          "velocity": 0.6299212598425197
        },
        {
          "duration": 0.23645833333333144,
          "durationTicks": 227,
          "midi": 43,
          "name": "G2",
          "ticks": 209160,
          "time": 217.875,
          "velocity": 0.6299212598425197
        },
        {
          "duration": 0.23645833333333144,
          "durationTicks": 227,
          "midi": 48,
          "name": "C3",
          "ticks": 209400,
          "time": 218.125,
          "velocity": 0.6299212598425197
        },
        {
          "duration": 0.23645833333333144,
          "durationTicks": 227,
          "midi": 43,
          "name": "G2",
          "ticks": 209640,
          "time": 218.375,
          "velocity": 0.6299212598425197
        },
        {
          "duration": 0.23645833333333144,
          "durationTicks": 227,
          "midi": 38,
          "name": "D2",
          "ticks": 209880,
          "time": 218.625,
          "velocity": 0.6299212598425197
        },
        {
          "duration": 0.23645833333333144,
          "durationTicks": 227,
          "midi": 45,
          "name": "A2",
          "ticks": 210120,
          "time": 218.875,
          "velocity": 0.6299212598425197
        },
        {
          "duration": 0.23645833333333144,
          "durationTicks": 227,
          "midi": 50,
          "name": "D3",
          "ticks": 210360,
          "time": 219.125,
          "velocity": 0.6299212598425197
        },
        {
          "duration": 0.23645833333333144,
          "durationTicks": 227,
          "midi": 45,
          "name": "A2",
          "ticks": 210600,
          "time": 219.375,
          "velocity": 0.6299212598425197
        },
        {
          "duration": 0.23645833333333144,
          "durationTicks": 227,
          "midi": 38,
          "name": "D2",
          "ticks": 210840,
          "time": 219.625,
          "velocity": 0.6299212598425197
        },
        {
          "duration": 0.23645833333333144,
          "durationTicks": 227,
          "midi": 45,
          "name": "A2",
          "ticks": 211080,
          "time": 219.875,
          "velocity": 0.6299212598425197
        },
        {
          "duration": 0.23645833333333144,
          "durationTicks": 227,
          "midi": 50,
          "name": "D3",
          "ticks": 211320,
          "time": 220.125,
          "velocity": 0.6299212598425197
        },
        {
          "duration": 0.23645833333333144,
          "durationTicks": 227,
          "midi": 45,
          "name": "A2",
          "ticks": 211560,
          "time": 220.375,
          "velocity": 0.6299212598425197
        },
        {
          "duration": 0.23645833333333144,
          "durationTicks": 227,
          "midi": 34,
          "name": "A#1",
          "ticks": 211800,
          "time": 220.625,
          "velocity": 0.6299212598425197
        },
        {
          "duration": 0.23645833333333144,
          "durationTicks": 227,
          "midi": 41,
          "name": "F2",
          "ticks": 212040,
          "time": 220.875,
          "velocity": 0.6299212598425197
        },
        {
          "duration": 0.23645833333333144,
          "durationTicks": 227,
          "midi": 46,
          "name": "A#2",
          "ticks": 212280,
          "time": 221.125,
          "velocity": 0.6299212598425197
        },
        {
          "duration": 0.23645833333333144,
          "durationTicks": 227,
          "midi": 41,
          "name": "F2",
          "ticks": 212520,
          "time": 221.375,
          "velocity": 0.6299212598425197
        },
        {
          "duration": 0.23645833333333144,
          "durationTicks": 227,
          "midi": 36,
          "name": "C2",
          "ticks": 212760,
          "time": 221.625,
          "velocity": 0.6299212598425197
        },
        {
          "duration": 0.23645833333333144,
          "durationTicks": 227,
          "midi": 43,
          "name": "G2",
          "ticks": 213000,
          "time": 221.875,
          "velocity": 0.6299212598425197
        },
        {
          "duration": 0.23645833333333144,
          "durationTicks": 227,
          "midi": 48,
          "name": "C3",
          "ticks": 213240,
          "time": 222.125,
          "velocity": 0.6299212598425197
        },
        {
          "duration": 0.23645833333333144,
          "durationTicks": 227,
          "midi": 43,
          "name": "G2",
          "ticks": 213480,
          "time": 222.375,
          "velocity": 0.6299212598425197
        },
        {
          "duration": 0.3552083333333371,
          "durationTicks": 341,
          "midi": 50,
          "name": "D3",
          "ticks": 213720,
          "time": 222.625,
          "velocity": 0.6299212598425197
        },
        {
          "duration": 0.3552083333333371,
          "durationTicks": 341,
          "midi": 53,
          "name": "F3",
          "ticks": 213720,
          "time": 222.625,
          "velocity": 0.6299212598425197
        },
        {
          "duration": 0.3552083333333371,
          "durationTicks": 341,
          "midi": 57,
          "name": "A3",
          "ticks": 213720,
          "time": 222.625,
          "velocity": 0.6299212598425197
        },
        {
          "duration": 0.3552083333333371,
          "durationTicks": 341,
          "midi": 50,
          "name": "D3",
          "ticks": 214080,
          "time": 223,
          "velocity": 0.6299212598425197
        },
        {
          "duration": 0.3552083333333371,
          "durationTicks": 341,
          "midi": 53,
          "name": "F3",
          "ticks": 214080,
          "time": 223,
          "velocity": 0.6299212598425197
        },
        {
          "duration": 0.3552083333333371,
          "durationTicks": 341,
          "midi": 57,
          "name": "A3",
          "ticks": 214080,
          "time": 223,
          "velocity": 0.6299212598425197
        },
        {
          "duration": 0.23645833333333144,
          "durationTicks": 227,
          "midi": 48,
          "name": "C3",
          "ticks": 214440,
          "time": 223.375,
          "velocity": 0.6299212598425197
        },
        {
          "duration": 0.23645833333333144,
          "durationTicks": 227,
          "midi": 52,
          "name": "E3",
          "ticks": 214440,
          "time": 223.375,
          "velocity": 0.6299212598425197
        },
        {
          "duration": 0.23645833333333144,
          "durationTicks": 227,
          "midi": 55,
          "name": "G3",
          "ticks": 214440,
          "time": 223.375,
          "velocity": 0.6299212598425197
        },
        {
          "duration": 0.23645833333333144,
          "durationTicks": 227,
          "midi": 57,
          "name": "A3",
          "ticks": 214680,
          "time": 223.625,
          "velocity": 0.6299212598425197
        },
        {
          "duration": 0.23645833333333144,
          "durationTicks": 227,
          "midi": 55,
          "name": "G3",
          "ticks": 214920,
          "time": 223.875,
          "velocity": 0.6299212598425197
        },
        {
          "duration": 0.23645833333333144,
          "durationTicks": 227,
          "midi": 53,
          "name": "F3",
          "ticks": 215160,
          "time": 224.125,
          "velocity": 0.6299212598425197
        },
        {
          "duration": 0.23645833333333144,
          "durationTicks": 227,
          "midi": 52,
          "name": "E3",
          "ticks": 215400,
          "time": 224.375,
          "velocity": 0.6299212598425197
        },
        {
          "duration": 0.4739583333333428,
          "durationTicks": 455,
          "midi": 46,
          "name": "A#2",
          "ticks": 215640,
          "time": 224.625,
          "velocity": 0.6299212598425197
        },
        {
          "duration": 0.4739583333333428,
          "durationTicks": 455,
          "midi": 50,
          "name": "D3",
          "ticks": 215640,
          "time": 224.625,
          "velocity": 0.6299212598425197
        },
        {
          "duration": 0.4739583333333428,
          "durationTicks": 455,
          "midi": 46,
          "name": "A#2",
          "ticks": 216120,
          "time": 225.125,
          "velocity": 0.6299212598425197
        },
        {
          "duration": 0.4739583333333428,
          "durationTicks": 455,
          "midi": 50,
          "name": "D3",
          "ticks": 216120,
          "time": 225.125,
          "velocity": 0.6299212598425197
        },
        {
          "duration": 0.4739583333333428,
          "durationTicks": 455,
          "midi": 46,
          "name": "A#2",
          "ticks": 216600,
          "time": 225.625,
          "velocity": 0.6299212598425197
        },
        {
          "duration": 0.4739583333333428,
          "durationTicks": 455,
          "midi": 50,
          "name": "D3",
          "ticks": 216600,
          "time": 225.625,
          "velocity": 0.6299212598425197
        },
        {
          "duration": 0.4739583333333428,
          "durationTicks": 455,
          "midi": 46,
          "name": "A#2",
          "ticks": 217080,
          "time": 226.125,
          "velocity": 0.6299212598425197
        },
        {
          "duration": 0.4739583333333428,
          "durationTicks": 455,
          "midi": 50,
          "name": "D3",
          "ticks": 217080,
          "time": 226.125,
          "velocity": 0.6299212598425197
        },
        {
          "duration": 0.4739583333333428,
          "durationTicks": 455,
          "midi": 48,
          "name": "C3",
          "ticks": 217560,
          "time": 226.625,
          "velocity": 0.6299212598425197
        },
        {
          "duration": 0.4739583333333428,
          "durationTicks": 455,
          "midi": 52,
          "name": "E3",
          "ticks": 217560,
          "time": 226.625,
          "velocity": 0.6299212598425197
        },
        {
          "duration": 0.4739583333333428,
          "durationTicks": 455,
          "midi": 48,
          "name": "C3",
          "ticks": 218040,
          "time": 227.125,
          "velocity": 0.6299212598425197
        },
        {
          "duration": 0.4739583333333428,
          "durationTicks": 455,
          "midi": 52,
          "name": "E3",
          "ticks": 218040,
          "time": 227.125,
          "velocity": 0.6299212598425197
        },
        {
          "duration": 0.4739583333333428,
          "durationTicks": 455,
          "midi": 48,
          "name": "C3",
          "ticks": 218520,
          "time": 227.625,
          "velocity": 0.6299212598425197
        },
        {
          "duration": 0.4739583333333428,
          "durationTicks": 455,
          "midi": 52,
          "name": "E3",
          "ticks": 218520,
          "time": 227.625,
          "velocity": 0.6299212598425197
        },
        {
          "duration": 0.4739583333333428,
          "durationTicks": 455,
          "midi": 48,
          "name": "C3",
          "ticks": 219000,
          "time": 228.125,
          "velocity": 0.6299212598425197
        },
        {
          "duration": 0.4739583333333428,
          "durationTicks": 455,
          "midi": 52,
          "name": "E3",
          "ticks": 219000,
          "time": 228.125,
          "velocity": 0.6299212598425197
        },
        {
          "duration": 0.4739583333333428,
          "durationTicks": 455,
          "midi": 46,
          "name": "A#2",
          "ticks": 219480,
          "time": 228.625,
          "velocity": 0.6299212598425197
        },
        {
          "duration": 0.4739583333333428,
          "durationTicks": 455,
          "midi": 50,
          "name": "D3",
          "ticks": 219480,
          "time": 228.625,
          "velocity": 0.6299212598425197
        },
        {
          "duration": 0.4739583333333428,
          "durationTicks": 455,
          "midi": 46,
          "name": "A#2",
          "ticks": 219960,
          "time": 229.125,
          "velocity": 0.6299212598425197
        },
        {
          "duration": 0.4739583333333428,
          "durationTicks": 455,
          "midi": 50,
          "name": "D3",
          "ticks": 219960,
          "time": 229.125,
          "velocity": 0.6299212598425197
        },
        {
          "duration": 0.4739583333333428,
          "durationTicks": 455,
          "midi": 48,
          "name": "C3",
          "ticks": 220440,
          "time": 229.625,
          "velocity": 0.6299212598425197
        },
        {
          "duration": 0.4739583333333428,
          "durationTicks": 455,
          "midi": 52,
          "name": "E3",
          "ticks": 220440,
          "time": 229.625,
          "velocity": 0.6299212598425197
        },
        {
          "duration": 0.4739583333333428,
          "durationTicks": 455,
          "midi": 48,
          "name": "C3",
          "ticks": 220920,
          "time": 230.125,
          "velocity": 0.6299212598425197
        },
        {
          "duration": 0.4739583333333428,
          "durationTicks": 455,
          "midi": 52,
          "name": "E3",
          "ticks": 220920,
          "time": 230.125,
          "velocity": 0.6299212598425197
        },
        {
          "duration": 0.4739583333333428,
          "durationTicks": 455,
          "midi": 50,
          "name": "D3",
          "ticks": 221400,
          "time": 230.625,
          "velocity": 0.6299212598425197
        },
        {
          "duration": 0.4739583333333428,
          "durationTicks": 455,
          "midi": 53,
          "name": "F3",
          "ticks": 221400,
          "time": 230.625,
          "velocity": 0.6299212598425197
        },
        {
          "duration": 0.4739583333333428,
          "durationTicks": 455,
          "midi": 48,
          "name": "C3",
          "ticks": 221880,
          "time": 231.125,
          "velocity": 0.6299212598425197
        },
        {
          "duration": 0.4739583333333428,
          "durationTicks": 455,
          "midi": 52,
          "name": "E3",
          "ticks": 221880,
          "time": 231.125,
          "velocity": 0.6299212598425197
        },
        {
          "duration": 0.4739583333333428,
          "durationTicks": 455,
          "midi": 46,
          "name": "A#2",
          "ticks": 222360,
          "time": 231.625,
          "velocity": 0.6299212598425197
        },
        {
          "duration": 0.4739583333333428,
          "durationTicks": 455,
          "midi": 50,
          "name": "D3",
          "ticks": 222360,
          "time": 231.625,
          "velocity": 0.6299212598425197
        },
        {
          "duration": 0.4739583333333428,
          "durationTicks": 455,
          "midi": 45,
          "name": "A2",
          "ticks": 222840,
          "time": 232.125,
          "velocity": 0.6299212598425197
        },
        {
          "duration": 0.4739583333333428,
          "durationTicks": 455,
          "midi": 48,
          "name": "C3",
          "ticks": 222840,
          "time": 232.125,
          "velocity": 0.6299212598425197
        },
        {
          "duration": 0.4739583333333428,
          "durationTicks": 455,
          "midi": 46,
          "name": "A#2",
          "ticks": 223320,
          "time": 232.625,
          "velocity": 0.6299212598425197
        },
        {
          "duration": 0.4739583333333428,
          "durationTicks": 455,
          "midi": 50,
          "name": "D3",
          "ticks": 223320,
          "time": 232.625,
          "velocity": 0.6299212598425197
        },
        {
          "duration": 0.4739583333333428,
          "durationTicks": 455,
          "midi": 46,
          "name": "A#2",
          "ticks": 223800,
          "time": 233.125,
          "velocity": 0.6299212598425197
        },
        {
          "duration": 0.4739583333333428,
          "durationTicks": 455,
          "midi": 50,
          "name": "D3",
          "ticks": 223800,
          "time": 233.125,
          "velocity": 0.6299212598425197
        },
        {
          "duration": 0.4739583333333428,
          "durationTicks": 455,
          "midi": 46,
          "name": "A#2",
          "ticks": 224280,
          "time": 233.625,
          "velocity": 0.6299212598425197
        },
        {
          "duration": 0.4739583333333428,
          "durationTicks": 455,
          "midi": 50,
          "name": "D3",
          "ticks": 224280,
          "time": 233.625,
          "velocity": 0.6299212598425197
        },
        {
          "duration": 0.4739583333333428,
          "durationTicks": 455,
          "midi": 46,
          "name": "A#2",
          "ticks": 224760,
          "time": 234.125,
          "velocity": 0.6299212598425197
        },
        {
          "duration": 0.4739583333333428,
          "durationTicks": 455,
          "midi": 50,
          "name": "D3",
          "ticks": 224760,
          "time": 234.125,
          "velocity": 0.6299212598425197
        },
        {
          "duration": 0.4739583333333428,
          "durationTicks": 455,
          "midi": 48,
          "name": "C3",
          "ticks": 225240,
          "time": 234.625,
          "velocity": 0.6299212598425197
        },
        {
          "duration": 0.4739583333333428,
          "durationTicks": 455,
          "midi": 52,
          "name": "E3",
          "ticks": 225240,
          "time": 234.625,
          "velocity": 0.6299212598425197
        },
        {
          "duration": 0.4739583333333428,
          "durationTicks": 455,
          "midi": 55,
          "name": "G3",
          "ticks": 225240,
          "time": 234.625,
          "velocity": 0.6299212598425197
        },
        {
          "duration": 0.4739583333333428,
          "durationTicks": 455,
          "midi": 48,
          "name": "C3",
          "ticks": 225720,
          "time": 235.125,
          "velocity": 0.6299212598425197
        },
        {
          "duration": 0.4739583333333428,
          "durationTicks": 455,
          "midi": 52,
          "name": "E3",
          "ticks": 225720,
          "time": 235.125,
          "velocity": 0.6299212598425197
        },
        {
          "duration": 0.4739583333333428,
          "durationTicks": 455,
          "midi": 55,
          "name": "G3",
          "ticks": 225720,
          "time": 235.125,
          "velocity": 0.6299212598425197
        },
        {
          "duration": 0.4739583333333428,
          "durationTicks": 455,
          "midi": 50,
          "name": "D3",
          "ticks": 226200,
          "time": 235.625,
          "velocity": 0.6299212598425197
        },
        {
          "duration": 0.4739583333333428,
          "durationTicks": 455,
          "midi": 53,
          "name": "F3",
          "ticks": 226200,
          "time": 235.625,
          "velocity": 0.6299212598425197
        },
        {
          "duration": 0.4739583333333428,
          "durationTicks": 455,
          "midi": 57,
          "name": "A3",
          "ticks": 226200,
          "time": 235.625,
          "velocity": 0.6299212598425197
        },
        {
          "duration": 0.4739583333333428,
          "durationTicks": 455,
          "midi": 50,
          "name": "D3",
          "ticks": 226680,
          "time": 236.125,
          "velocity": 0.6299212598425197
        },
        {
          "duration": 0.4739583333333428,
          "durationTicks": 455,
          "midi": 53,
          "name": "F3",
          "ticks": 226680,
          "time": 236.125,
          "velocity": 0.6299212598425197
        },
        {
          "duration": 0.4739583333333428,
          "durationTicks": 455,
          "midi": 57,
          "name": "A3",
          "ticks": 226680,
          "time": 236.125,
          "velocity": 0.6299212598425197
        },
        {
          "duration": 0.23645833333333144,
          "durationTicks": 227,
          "midi": 46,
          "name": "A#2",
          "ticks": 227160,
          "time": 236.625,
          "velocity": 0.6299212598425197
        },
        {
          "duration": 0.23645833333333144,
          "durationTicks": 227,
          "midi": 50,
          "name": "D3",
          "ticks": 227160,
          "time": 236.625,
          "velocity": 0.6299212598425197
        },
        {
          "duration": 0.4739583333333428,
          "durationTicks": 455,
          "midi": 46,
          "name": "A#2",
          "ticks": 227400,
          "time": 236.875,
          "velocity": 0.6299212598425197
        },
        {
          "duration": 0.4739583333333428,
          "durationTicks": 455,
          "midi": 50,
          "name": "D3",
          "ticks": 227400,
          "time": 236.875,
          "velocity": 0.6299212598425197
        },
        {
          "duration": 0.23645833333333144,
          "durationTicks": 227,
          "midi": 43,
          "name": "G2",
          "ticks": 227880,
          "time": 237.375,
          "velocity": 0.6299212598425197
        },
        {
          "duration": 0.4739583333333428,
          "durationTicks": 455,
          "midi": 53,
          "name": "F3",
          "ticks": 228120,
          "time": 237.625,
          "velocity": 0.6299212598425197
        },
        {
          "duration": 0.4739583333333428,
          "durationTicks": 455,
          "midi": 55,
          "name": "G3",
          "ticks": 228600,
          "time": 238.125,
          "velocity": 0.6299212598425197
        },
        {
          "duration": 0.23645833333333144,
          "durationTicks": 227,
          "midi": 45,
          "name": "A2",
          "ticks": 229080,
          "time": 238.625,
          "velocity": 0.6299212598425197
        },
        {
          "duration": 0.23645833333333144,
          "durationTicks": 227,
          "midi": 52,
          "name": "E3",
          "ticks": 229080,
          "time": 238.625,
          "velocity": 0.6299212598425197
        },
        {
          "duration": 0.23645833333333144,
          "durationTicks": 227,
          "midi": 45,
          "name": "A2",
          "ticks": 229320,
          "time": 238.875,
          "velocity": 0.6299212598425197
        },
        {
          "duration": 0.23645833333333144,
          "durationTicks": 227,
          "midi": 52,
          "name": "E3",
          "ticks": 229320,
          "time": 238.875,
          "velocity": 0.6299212598425197
        },
        {
          "duration": 0.23645833333333144,
          "durationTicks": 227,
          "midi": 45,
          "name": "A2",
          "ticks": 229560,
          "time": 239.125,
          "velocity": 0.6299212598425197
        },
        {
          "duration": 0.23645833333333144,
          "durationTicks": 227,
          "midi": 52,
          "name": "E3",
          "ticks": 229560,
          "time": 239.125,
          "velocity": 0.6299212598425197
        },
        {
          "duration": 0.23645833333333144,
          "durationTicks": 227,
          "midi": 45,
          "name": "A2",
          "ticks": 229800,
          "time": 239.375,
          "velocity": 0.6299212598425197
        },
        {
          "duration": 0.23645833333333144,
          "durationTicks": 227,
          "midi": 52,
          "name": "E3",
          "ticks": 229800,
          "time": 239.375,
          "velocity": 0.6299212598425197
        },
        {
          "duration": 0.23645833333333144,
          "durationTicks": 227,
          "midi": 45,
          "name": "A2",
          "ticks": 230040,
          "time": 239.625,
          "velocity": 0.6299212598425197
        },
        {
          "duration": 0.23645833333333144,
          "durationTicks": 227,
          "midi": 52,
          "name": "E3",
          "ticks": 230040,
          "time": 239.625,
          "velocity": 0.6299212598425197
        },
        {
          "duration": 0.23645833333333144,
          "durationTicks": 227,
          "midi": 45,
          "name": "A2",
          "ticks": 230280,
          "time": 239.875,
          "velocity": 0.6299212598425197
        },
        {
          "duration": 0.23645833333333144,
          "durationTicks": 227,
          "midi": 52,
          "name": "E3",
          "ticks": 230280,
          "time": 239.875,
          "velocity": 0.6299212598425197
        },
        {
          "duration": 0.23645833333333144,
          "durationTicks": 227,
          "midi": 50,
          "name": "D3",
          "ticks": 231000,
          "time": 240.625,
          "velocity": 0.6299212598425197
        },
        {
          "duration": 0.23645833333333144,
          "durationTicks": 227,
          "midi": 57,
          "name": "A3",
          "ticks": 231240,
          "time": 240.875,
          "velocity": 0.6299212598425197
        },
        {
          "duration": 0.23645833333333144,
          "durationTicks": 227,
          "midi": 62,
          "name": "D4",
          "ticks": 231480,
          "time": 241.125,
          "velocity": 0.6299212598425197
        },
        {
          "duration": 0.23645833333333144,
          "durationTicks": 227,
          "midi": 65,
          "name": "F4",
          "ticks": 231480,
          "time": 241.125,
          "velocity": 0.6299212598425197
        },
        {
          "duration": 0.23645833333333144,
          "durationTicks": 227,
          "midi": 46,
          "name": "A#2",
          "ticks": 231960,
          "time": 241.625,
          "velocity": 0.6299212598425197
        },
        {
          "duration": 0.23645833333333144,
          "durationTicks": 227,
          "midi": 53,
          "name": "F3",
          "ticks": 232200,
          "time": 241.875,
          "velocity": 0.6299212598425197
        },
        {
          "duration": 0.23645833333333144,
          "durationTicks": 227,
          "midi": 58,
          "name": "A#3",
          "ticks": 232440,
          "time": 242.125,
          "velocity": 0.6299212598425197
        },
        {
          "duration": 0.23645833333333144,
          "durationTicks": 227,
          "midi": 62,
          "name": "D4",
          "ticks": 232440,
          "time": 242.125,
          "velocity": 0.6299212598425197
        },
        {
          "duration": 0.23645833333333144,
          "durationTicks": 227,
          "midi": 48,
          "name": "C3",
          "ticks": 232920,
          "time": 242.625,
          "velocity": 0.6299212598425197
        },
        {
          "duration": 0.23645833333333144,
          "durationTicks": 227,
          "midi": 55,
          "name": "G3",
          "ticks": 233160,
          "time": 242.875,
          "velocity": 0.6299212598425197
        },
        {
          "duration": 0.23645833333333144,
          "durationTicks": 227,
          "midi": 60,
          "name": "C4",
          "ticks": 233400,
          "time": 243.125,
          "velocity": 0.6299212598425197
        },
        {
          "duration": 0.23645833333333144,
          "durationTicks": 227,
          "midi": 64,
          "name": "E4",
          "ticks": 233400,
          "time": 243.125,
          "velocity": 0.6299212598425197
        },
        {
          "duration": 0.23645833333333144,
          "durationTicks": 227,
          "midi": 53,
          "name": "F3",
          "ticks": 233880,
          "time": 243.625,
          "velocity": 0.6299212598425197
        },
        {
          "duration": 0.23645833333333144,
          "durationTicks": 227,
          "midi": 60,
          "name": "C4",
          "ticks": 234120,
          "time": 243.875,
          "velocity": 0.6299212598425197
        },
        {
          "duration": 0.23645833333333144,
          "durationTicks": 227,
          "midi": 62,
          "name": "D4",
          "ticks": 234360,
          "time": 244.125,
          "velocity": 0.6299212598425197
        },
        {
          "duration": 0.23645833333333144,
          "durationTicks": 227,
          "midi": 65,
          "name": "F4",
          "ticks": 234360,
          "time": 244.125,
          "velocity": 0.6299212598425197
        },
        {
          "duration": 0.23645833333333144,
          "durationTicks": 227,
          "midi": 50,
          "name": "D3",
          "ticks": 234840,
          "time": 244.625,
          "velocity": 0.6299212598425197
        },
        {
          "duration": 0.23645833333333144,
          "durationTicks": 227,
          "midi": 57,
          "name": "A3",
          "ticks": 235080,
          "time": 244.875,
          "velocity": 0.6299212598425197
        },
        {
          "duration": 0.23645833333333144,
          "durationTicks": 227,
          "midi": 62,
          "name": "D4",
          "ticks": 235320,
          "time": 245.125,
          "velocity": 0.6299212598425197
        },
        {
          "duration": 0.23645833333333144,
          "durationTicks": 227,
          "midi": 65,
          "name": "F4",
          "ticks": 235320,
          "time": 245.125,
          "velocity": 0.6299212598425197
        },
        {
          "duration": 0.23645833333333144,
          "durationTicks": 227,
          "midi": 52,
          "name": "E3",
          "ticks": 235560,
          "time": 245.375,
          "velocity": 0.6299212598425197
        },
        {
          "duration": 0.23645833333333144,
          "durationTicks": 227,
          "midi": 57,
          "name": "A3",
          "ticks": 235560,
          "time": 245.375,
          "velocity": 0.6299212598425197
        },
        {
          "duration": 0.23645833333333144,
          "durationTicks": 227,
          "midi": 46,
          "name": "A#2",
          "ticks": 235800,
          "time": 245.625,
          "velocity": 0.6299212598425197
        },
        {
          "duration": 0.23645833333333144,
          "durationTicks": 227,
          "midi": 53,
          "name": "F3",
          "ticks": 236040,
          "time": 245.875,
          "velocity": 0.6299212598425197
        },
        {
          "duration": 0.23645833333333144,
          "durationTicks": 227,
          "midi": 58,
          "name": "A#3",
          "ticks": 236280,
          "time": 246.125,
          "velocity": 0.6299212598425197
        },
        {
          "duration": 0.23645833333333144,
          "durationTicks": 227,
          "midi": 62,
          "name": "D4",
          "ticks": 236280,
          "time": 246.125,
          "velocity": 0.6299212598425197
        },
        {
          "duration": 0.23645833333333144,
          "durationTicks": 227,
          "midi": 48,
          "name": "C3",
          "ticks": 236520,
          "time": 246.375,
          "velocity": 0.6299212598425197
        },
        {
          "duration": 0.23645833333333144,
          "durationTicks": 227,
          "midi": 53,
          "name": "F3",
          "ticks": 236520,
          "time": 246.375,
          "velocity": 0.6299212598425197
        },
        {
          "duration": 0.23645833333333144,
          "durationTicks": 227,
          "midi": 48,
          "name": "C3",
          "ticks": 236760,
          "time": 246.625,
          "velocity": 0.6299212598425197
        },
        {
          "duration": 0.23645833333333144,
          "durationTicks": 227,
          "midi": 55,
          "name": "G3",
          "ticks": 237000,
          "time": 246.875,
          "velocity": 0.6299212598425197
        },
        {
          "duration": 0.23645833333333144,
          "durationTicks": 227,
          "midi": 60,
          "name": "C4",
          "ticks": 237240,
          "time": 247.125,
          "velocity": 0.6299212598425197
        },
        {
          "duration": 0.23645833333333144,
          "durationTicks": 227,
          "midi": 64,
          "name": "E4",
          "ticks": 237240,
          "time": 247.125,
          "velocity": 0.6299212598425197
        },
        {
          "duration": 0.23645833333333144,
          "durationTicks": 227,
          "midi": 48,
          "name": "C3",
          "ticks": 237480,
          "time": 247.375,
          "velocity": 0.6299212598425197
        },
        {
          "duration": 0.23645833333333144,
          "durationTicks": 227,
          "midi": 55,
          "name": "G3",
          "ticks": 237480,
          "time": 247.375,
          "velocity": 0.6299212598425197
        },
        {
          "duration": 0.23645833333333144,
          "durationTicks": 227,
          "midi": 53,
          "name": "F3",
          "ticks": 237720,
          "time": 247.625,
          "velocity": 0.6299212598425197
        },
        {
          "duration": 0.23645833333333144,
          "durationTicks": 227,
          "midi": 60,
          "name": "C4",
          "ticks": 237960,
          "time": 247.875,
          "velocity": 0.6299212598425197
        },
        {
          "duration": 0.23645833333333144,
          "durationTicks": 227,
          "midi": 62,
          "name": "D4",
          "ticks": 238200,
          "time": 248.125,
          "velocity": 0.6299212598425197
        },
        {
          "duration": 0.23645833333333144,
          "durationTicks": 227,
          "midi": 65,
          "name": "F4",
          "ticks": 238200,
          "time": 248.125,
          "velocity": 0.6299212598425197
        },
        {
          "duration": 0.23645833333333144,
          "durationTicks": 227,
          "midi": 55,
          "name": "G3",
          "ticks": 238440,
          "time": 248.375,
          "velocity": 0.6299212598425197
        },
        {
          "duration": 0.23645833333333144,
          "durationTicks": 227,
          "midi": 60,
          "name": "C4",
          "ticks": 238440,
          "time": 248.375,
          "velocity": 0.6299212598425197
        },
        {
          "duration": 0.4739583333333428,
          "durationTicks": 455,
          "midi": 46,
          "name": "A#2",
          "ticks": 238680,
          "time": 248.625,
          "velocity": 0.6299212598425197
        },
        {
          "duration": 0.4739583333333428,
          "durationTicks": 455,
          "midi": 50,
          "name": "D3",
          "ticks": 238680,
          "time": 248.625,
          "velocity": 0.6299212598425197
        },
        {
          "duration": 0.4739583333333428,
          "durationTicks": 455,
          "midi": 58,
          "name": "A#3",
          "ticks": 239160,
          "time": 249.125,
          "velocity": 0.6299212598425197
        },
        {
          "duration": 0.4739583333333428,
          "durationTicks": 455,
          "midi": 62,
          "name": "D4",
          "ticks": 239160,
          "time": 249.125,
          "velocity": 0.6299212598425197
        },
        {
          "duration": 0.4739583333333428,
          "durationTicks": 455,
          "midi": 43,
          "name": "G2",
          "ticks": 239640,
          "time": 249.625,
          "velocity": 0.6299212598425197
        },
        {
          "duration": 0.4739583333333428,
          "durationTicks": 455,
          "midi": 46,
          "name": "A#2",
          "ticks": 239640,
          "time": 249.625,
          "velocity": 0.6299212598425197
        },
        {
          "duration": 0.4739583333333428,
          "durationTicks": 455,
          "midi": 55,
          "name": "G3",
          "ticks": 240120,
          "time": 250.125,
          "velocity": 0.6299212598425197
        },
        {
          "duration": 0.4739583333333428,
          "durationTicks": 455,
          "midi": 58,
          "name": "A#3",
          "ticks": 240120,
          "time": 250.125,
          "velocity": 0.6299212598425197
        },
        {
          "duration": 0.4739583333333428,
          "durationTicks": 455,
          "midi": 45,
          "name": "A2",
          "ticks": 240600,
          "time": 250.625,
          "velocity": 0.6299212598425197
        },
        {
          "duration": 0.4739583333333428,
          "durationTicks": 455,
          "midi": 48,
          "name": "C3",
          "ticks": 240600,
          "time": 250.625,
          "velocity": 0.6299212598425197
        },
        {
          "duration": 0.4739583333333428,
          "durationTicks": 455,
          "midi": 57,
          "name": "A3",
          "ticks": 241080,
          "time": 251.125,
          "velocity": 0.6299212598425197
        },
        {
          "duration": 0.4739583333333428,
          "durationTicks": 455,
          "midi": 60,
          "name": "C4",
          "ticks": 241080,
          "time": 251.125,
          "velocity": 0.6299212598425197
        },
        {
          "duration": 0.4739583333333428,
          "durationTicks": 455,
          "midi": 50,
          "name": "D3",
          "ticks": 241560,
          "time": 251.625,
          "velocity": 0.6299212598425197
        },
        {
          "duration": 0.4739583333333428,
          "durationTicks": 455,
          "midi": 53,
          "name": "F3",
          "ticks": 241560,
          "time": 251.625,
          "velocity": 0.6299212598425197
        },
        {
          "duration": 0.4739583333333428,
          "durationTicks": 455,
          "midi": 62,
          "name": "D4",
          "ticks": 242040,
          "time": 252.125,
          "velocity": 0.6299212598425197
        },
        {
          "duration": 0.4739583333333428,
          "durationTicks": 455,
          "midi": 65,
          "name": "F4",
          "ticks": 242040,
          "time": 252.125,
          "velocity": 0.6299212598425197
        },
        {
          "duration": 0.4739583333333428,
          "durationTicks": 455,
          "midi": 62,
          "name": "D4",
          "ticks": 242520,
          "time": 252.625,
          "velocity": 0.6299212598425197
        },
        {
          "duration": 0.4739583333333428,
          "durationTicks": 455,
          "midi": 70,
          "name": "A#4",
          "ticks": 242520,
          "time": 252.625,
          "velocity": 0.6299212598425197
        },
        {
          "duration": 0.4739583333333428,
          "durationTicks": 455,
          "midi": 62,
          "name": "D4",
          "ticks": 243000,
          "time": 253.125,
          "velocity": 0.6299212598425197
        },
        {
          "duration": 0.4739583333333428,
          "durationTicks": 455,
          "midi": 69,
          "name": "A4",
          "ticks": 243000,
          "time": 253.125,
          "velocity": 0.6299212598425197
        },
        {
          "duration": 0.4739583333333428,
          "durationTicks": 455,
          "midi": 60,
          "name": "C4",
          "ticks": 243480,
          "time": 253.625,
          "velocity": 0.6299212598425197
        },
        {
          "duration": 0.4739583333333428,
          "durationTicks": 455,
          "midi": 64,
          "name": "E4",
          "ticks": 243480,
          "time": 253.625,
          "velocity": 0.6299212598425197
        },
        {
          "duration": 0.4739583333333428,
          "durationTicks": 455,
          "midi": 67,
          "name": "G4",
          "ticks": 243480,
          "time": 253.625,
          "velocity": 0.6299212598425197
        },
        {
          "duration": 0.4739583333333428,
          "durationTicks": 455,
          "midi": 60,
          "name": "C4",
          "ticks": 243960,
          "time": 254.125,
          "velocity": 0.6299212598425197
        },
        {
          "duration": 0.4739583333333428,
          "durationTicks": 455,
          "midi": 65,
          "name": "F4",
          "ticks": 243960,
          "time": 254.125,
          "velocity": 0.6299212598425197
        },
        {
          "duration": 0.23645833333333144,
          "durationTicks": 227,
          "midi": 62,
          "name": "D4",
          "ticks": 244440,
          "time": 254.625,
          "velocity": 0.6299212598425197
        },
        {
          "duration": 0.23645833333333144,
          "durationTicks": 227,
          "midi": 67,
          "name": "G4",
          "ticks": 244440,
          "time": 254.625,
          "velocity": 0.6299212598425197
        },
        {
          "duration": 0.23645833333333144,
          "durationTicks": 227,
          "midi": 74,
          "name": "D5",
          "ticks": 244440,
          "time": 254.625,
          "velocity": 0.6299212598425197
        },
        {
          "duration": 0.23645833333333144,
          "durationTicks": 227,
          "midi": 69,
          "name": "A4",
          "ticks": 244680,
          "time": 254.875,
          "velocity": 0.6299212598425197
        },
        {
          "duration": 0.23645833333333144,
          "durationTicks": 227,
          "midi": 81,
          "name": "A5",
          "ticks": 244680,
          "time": 254.875,
          "velocity": 0.6299212598425197
        },
        {
          "duration": 0.23645833333333144,
          "durationTicks": 227,
          "midi": 62,
          "name": "D4",
          "ticks": 244920,
          "time": 255.125,
          "velocity": 0.6299212598425197
        },
        {
          "duration": 0.23645833333333144,
          "durationTicks": 227,
          "midi": 67,
          "name": "G4",
          "ticks": 244920,
          "time": 255.125,
          "velocity": 0.6299212598425197
        },
        {
          "duration": 0.23645833333333144,
          "durationTicks": 227,
          "midi": 74,
          "name": "D5",
          "ticks": 244920,
          "time": 255.125,
          "velocity": 0.6299212598425197
        },
        {
          "duration": 0.23645833333333144,
          "durationTicks": 227,
          "midi": 69,
          "name": "A4",
          "ticks": 245160,
          "time": 255.375,
          "velocity": 0.6299212598425197
        },
        {
          "duration": 0.23645833333333144,
          "durationTicks": 227,
          "midi": 81,
          "name": "A5",
          "ticks": 245160,
          "time": 255.375,
          "velocity": 0.6299212598425197
        },
        {
          "duration": 0.4739583333333144,
          "durationTicks": 455,
          "midi": 62,
          "name": "D4",
          "ticks": 245400,
          "time": 255.625,
          "velocity": 0.6299212598425197
        },
        {
          "duration": 0.4739583333333144,
          "durationTicks": 455,
          "midi": 69,
          "name": "A4",
          "ticks": 245400,
          "time": 255.625,
          "velocity": 0.6299212598425197
        },
        {
          "duration": 0.4739583333333144,
          "durationTicks": 455,
          "midi": 74,
          "name": "D5",
          "ticks": 245400,
          "time": 255.625,
          "velocity": 0.6299212598425197
        },
        {
          "duration": 0.23645833333335986,
          "durationTicks": 227,
          "midi": 52,
          "name": "E3",
          "ticks": 245880,
          "time": 256.125,
          "velocity": 0.6299212598425197
        },
        {
          "duration": 0.23645833333335986,
          "durationTicks": 227,
          "midi": 64,
          "name": "E4",
          "ticks": 245880,
          "time": 256.125,
          "velocity": 0.6299212598425197
        },
        {
          "duration": 0.23645833333335986,
          "durationTicks": 227,
          "midi": 55,
          "name": "G3",
          "ticks": 246120,
          "time": 256.375,
          "velocity": 0.6299212598425197
        },
        {
          "duration": 0.23645833333335986,
          "durationTicks": 227,
          "midi": 67,
          "name": "G4",
          "ticks": 246120,
          "time": 256.375,
          "velocity": 0.6299212598425197
        },
        {
          "duration": 0.4739583333333144,
          "durationTicks": 455,
          "midi": 50,
          "name": "D3",
          "ticks": 246360,
          "time": 256.625,
          "velocity": 0.6299212598425197
        },
        {
          "duration": 0.4739583333333144,
          "durationTicks": 455,
          "midi": 57,
          "name": "A3",
          "ticks": 246360,
          "time": 256.625,
          "velocity": 0.6299212598425197
        },
        {
          "duration": 0.4739583333333144,
          "durationTicks": 455,
          "midi": 45,
          "name": "A2",
          "ticks": 246840,
          "time": 257.125,
          "velocity": 0.6299212598425197
        },
        {
          "duration": 0.4739583333333144,
          "durationTicks": 455,
          "midi": 50,
          "name": "D3",
          "ticks": 246840,
          "time": 257.125,
          "velocity": 0.6299212598425197
        },
        {
          "duration": 0.4739583333333144,
          "durationTicks": 455,
          "midi": 55,
          "name": "G3",
          "ticks": 247320,
          "time": 257.625,
          "velocity": 0.6299212598425197
        },
        {
          "duration": 0.4739583333333144,
          "durationTicks": 455,
          "midi": 58,
          "name": "A#3",
          "ticks": 247320,
          "time": 257.625,
          "velocity": 0.6299212598425197
        },
        {
          "duration": 0.4739583333333144,
          "durationTicks": 455,
          "midi": 43,
          "name": "G2",
          "ticks": 247800,
          "time": 258.125,
          "velocity": 0.6299212598425197
        },
        {
          "duration": 0.4739583333333144,
          "durationTicks": 455,
          "midi": 46,
          "name": "A#2",
          "ticks": 247800,
          "time": 258.125,
          "velocity": 0.6299212598425197
        },
        {
          "duration": 0.23645833333335986,
          "durationTicks": 227,
          "midi": 62,
          "name": "D4",
          "ticks": 248280,
          "time": 258.625,
          "velocity": 0.6299212598425197
        },
        {
          "duration": 0.23645833333335986,
          "durationTicks": 227,
          "midi": 74,
          "name": "D5",
          "ticks": 248280,
          "time": 258.625,
          "velocity": 0.6299212598425197
        },
        {
          "duration": 0.23645833333335986,
          "durationTicks": 227,
          "midi": 64,
          "name": "E4",
          "ticks": 248520,
          "time": 258.875,
          "velocity": 0.6299212598425197
        },
        {
          "duration": 0.23645833333335986,
          "durationTicks": 227,
          "midi": 76,
          "name": "E5",
          "ticks": 248520,
          "time": 258.875,
          "velocity": 0.6299212598425197
        },
        {
          "duration": 0.23645833333335986,
          "durationTicks": 227,
          "midi": 57,
          "name": "A3",
          "ticks": 248760,
          "time": 259.125,
          "velocity": 0.6299212598425197
        },
        {
          "duration": 0.23645833333335986,
          "durationTicks": 227,
          "midi": 69,
          "name": "A4",
          "ticks": 248760,
          "time": 259.125,
          "velocity": 0.6299212598425197
        },
        {
          "duration": 0.23645833333335986,
          "durationTicks": 227,
          "midi": 55,
          "name": "G3",
          "ticks": 249000,
          "time": 259.375,
          "velocity": 0.6299212598425197
        },
        {
          "duration": 0.23645833333335986,
          "durationTicks": 227,
          "midi": 67,
          "name": "G4",
          "ticks": 249000,
          "time": 259.375,
          "velocity": 0.6299212598425197
        },
        {
          "duration": 0.4739583333333144,
          "durationTicks": 455,
          "midi": 58,
          "name": "A#3",
          "ticks": 249240,
          "time": 259.625,
          "velocity": 0.6299212598425197
        },
        {
          "duration": 0.4739583333333144,
          "durationTicks": 455,
          "midi": 71,
          "name": "B4",
          "ticks": 249240,
          "time": 259.625,
          "velocity": 0.6299212598425197
        },
        {
          "duration": 0.23645833333335986,
          "durationTicks": 227,
          "midi": 52,
          "name": "E3",
          "ticks": 249720,
          "time": 260.125,
          "velocity": 0.6299212598425197
        },
        {
          "duration": 0.23645833333335986,
          "durationTicks": 227,
          "midi": 64,
          "name": "E4",
          "ticks": 249720,
          "time": 260.125,
          "velocity": 0.6299212598425197
        },
        {
          "duration": 0.23645833333335986,
          "durationTicks": 227,
          "midi": 55,
          "name": "G3",
          "ticks": 249960,
          "time": 260.375,
          "velocity": 0.6299212598425197
        },
        {
          "duration": 0.23645833333335986,
          "durationTicks": 227,
          "midi": 67,
          "name": "G4",
          "ticks": 249960,
          "time": 260.375,
          "velocity": 0.6299212598425197
        },
        {
          "duration": 0.4739583333333144,
          "durationTicks": 455,
          "midi": 50,
          "name": "D3",
          "ticks": 250200,
          "time": 260.625,
          "velocity": 0.6299212598425197
        },
        {
          "duration": 0.4739583333333144,
          "durationTicks": 455,
          "midi": 55,
          "name": "G3",
          "ticks": 250200,
          "time": 260.625,
          "velocity": 0.6299212598425197
        },
        {
          "duration": 0.4739583333333144,
          "durationTicks": 455,
          "midi": 50,
          "name": "D3",
          "ticks": 250680,
          "time": 261.125,
          "velocity": 0.6299212598425197
        },
        {
          "duration": 0.4739583333333144,
          "durationTicks": 455,
          "midi": 57,
          "name": "A3",
          "ticks": 250680,
          "time": 261.125,
          "velocity": 0.6299212598425197
        },
        {
          "duration": 0.4739583333333144,
          "durationTicks": 455,
          "midi": 40,
          "name": "E2",
          "ticks": 251160,
          "time": 261.625,
          "velocity": 0.6299212598425197
        },
        {
          "duration": 0.4739583333333144,
          "durationTicks": 455,
          "midi": 43,
          "name": "G2",
          "ticks": 251160,
          "time": 261.625,
          "velocity": 0.6299212598425197
        },
        {
          "duration": 0.4739583333333144,
          "durationTicks": 455,
          "midi": 46,
          "name": "A#2",
          "ticks": 251640,
          "time": 262.125,
          "velocity": 0.6299212598425197
        },
        {
          "duration": 0.4739583333333144,
          "durationTicks": 455,
          "midi": 50,
          "name": "D3",
          "ticks": 251640,
          "time": 262.125,
          "velocity": 0.6299212598425197
        },
        {
          "duration": 0.23645833333335986,
          "durationTicks": 227,
          "midi": 60,
          "name": "C4",
          "ticks": 252120,
          "time": 262.625,
          "velocity": 0.6299212598425197
        },
        {
          "duration": 0.23645833333335986,
          "durationTicks": 227,
          "midi": 72,
          "name": "C5",
          "ticks": 252120,
          "time": 262.625,
          "velocity": 0.6299212598425197
        },
        {
          "duration": 0.23645833333335986,
          "durationTicks": 227,
          "midi": 59,
          "name": "B3",
          "ticks": 252360,
          "time": 262.875,
          "velocity": 0.6299212598425197
        },
        {
          "duration": 0.23645833333335986,
          "durationTicks": 227,
          "midi": 71,
          "name": "B4",
          "ticks": 252360,
          "time": 262.875,
          "velocity": 0.6299212598425197
        },
        {
          "duration": 0.23645833333335986,
          "durationTicks": 227,
          "midi": 57,
          "name": "A3",
          "ticks": 252600,
          "time": 263.125,
          "velocity": 0.6299212598425197
        },
        {
          "duration": 0.23645833333335986,
          "durationTicks": 227,
          "midi": 69,
          "name": "A4",
          "ticks": 252600,
          "time": 263.125,
          "velocity": 0.6299212598425197
        },
        {
          "duration": 0.23645833333335986,
          "durationTicks": 227,
          "midi": 55,
          "name": "G3",
          "ticks": 252840,
          "time": 263.375,
          "velocity": 0.6299212598425197
        },
        {
          "duration": 0.23645833333335986,
          "durationTicks": 227,
          "midi": 67,
          "name": "G4",
          "ticks": 252840,
          "time": 263.375,
          "velocity": 0.6299212598425197
        },
        {
          "duration": 0.23645833333335986,
          "durationTicks": 227,
          "midi": 55,
          "name": "G3",
          "ticks": 253080,
          "time": 263.625,
          "velocity": 0.6299212598425197
        },
        {
          "duration": 0.23645833333335986,
          "durationTicks": 227,
          "midi": 67,
          "name": "G4",
          "ticks": 253080,
          "time": 263.625,
          "velocity": 0.6299212598425197
        },
        {
          "duration": 0.23645833333335986,
          "durationTicks": 227,
          "midi": 55,
          "name": "G3",
          "ticks": 253320,
          "time": 263.875,
          "velocity": 0.6299212598425197
        },
        {
          "duration": 0.23645833333335986,
          "durationTicks": 227,
          "midi": 67,
          "name": "G4",
          "ticks": 253320,
          "time": 263.875,
          "velocity": 0.6299212598425197
        },
        {
          "duration": 0.23645833333335986,
          "durationTicks": 227,
          "midi": 52,
          "name": "E3",
          "ticks": 253560,
          "time": 264.125,
          "velocity": 0.6299212598425197
        },
        {
          "duration": 0.23645833333335986,
          "durationTicks": 227,
          "midi": 64,
          "name": "E4",
          "ticks": 253560,
          "time": 264.125,
          "velocity": 0.6299212598425197
        },
        {
          "duration": 0.23645833333335986,
          "durationTicks": 227,
          "midi": 55,
          "name": "G3",
          "ticks": 253800,
          "time": 264.375,
          "velocity": 0.6299212598425197
        },
        {
          "duration": 0.23645833333335986,
          "durationTicks": 227,
          "midi": 67,
          "name": "G4",
          "ticks": 253800,
          "time": 264.375,
          "velocity": 0.6299212598425197
        },
        {
          "duration": 0.23645833333335986,
          "durationTicks": 227,
          "midi": 55,
          "name": "G3",
          "ticks": 254040,
          "time": 264.625,
          "velocity": 0.6299212598425197
        },
        {
          "duration": 0.23645833333335986,
          "durationTicks": 227,
          "midi": 67,
          "name": "G4",
          "ticks": 254040,
          "time": 264.625,
          "velocity": 0.6299212598425197
        },
        {
          "duration": 0.3552083333333371,
          "durationTicks": 341,
          "midi": 57,
          "name": "A3",
          "ticks": 254280,
          "time": 264.875,
          "velocity": 0.6299212598425197
        },
        {
          "duration": 0.3552083333333371,
          "durationTicks": 341,
          "midi": 69,
          "name": "A4",
          "ticks": 254280,
          "time": 264.875,
          "velocity": 0.6299212598425197
        },
        {
          "duration": 0.3552083333333371,
          "durationTicks": 341,
          "midi": 57,
          "name": "A3",
          "ticks": 254640,
          "time": 265.25,
          "velocity": 0.6299212598425197
        },
        {
          "duration": 0.3552083333333371,
          "durationTicks": 341,
          "midi": 69,
          "name": "A4",
          "ticks": 254640,
          "time": 265.25,
          "velocity": 0.6299212598425197
        },
        {
          "duration": 0.23645833333335986,
          "durationTicks": 227,
          "midi": 59,
          "name": "B3",
          "ticks": 255000,
          "time": 265.625,
          "velocity": 0.6299212598425197
        },
        {
          "duration": 0.23645833333335986,
          "durationTicks": 227,
          "midi": 71,
          "name": "B4",
          "ticks": 255000,
          "time": 265.625,
          "velocity": 0.6299212598425197
        },
        {
          "duration": 0.7114583333333258,
          "durationTicks": 683,
          "midi": 59,
          "name": "B3",
          "ticks": 255240,
          "time": 265.875,
          "velocity": 0.6299212598425197
        },
        {
          "duration": 0.7114583333333258,
          "durationTicks": 683,
          "midi": 71,
          "name": "B4",
          "ticks": 255240,
          "time": 265.875,
          "velocity": 0.6299212598425197
        },
        {
          "duration": 0.23645833333335986,
          "durationTicks": 227,
          "midi": 59,
          "name": "B3",
          "ticks": 255960,
          "time": 266.625,
          "velocity": 0.6299212598425197
        },
        {
          "duration": 0.23645833333335986,
          "durationTicks": 227,
          "midi": 71,
          "name": "B4",
          "ticks": 255960,
          "time": 266.625,
          "velocity": 0.6299212598425197
        },
        {
          "duration": 0.23645833333335986,
          "durationTicks": 227,
          "midi": 62,
          "name": "D4",
          "ticks": 256200,
          "time": 266.875,
          "velocity": 0.6299212598425197
        },
        {
          "duration": 0.23645833333335986,
          "durationTicks": 227,
          "midi": 74,
          "name": "D5",
          "ticks": 256200,
          "time": 266.875,
          "velocity": 0.6299212598425197
        },
        {
          "duration": 0.23645833333335986,
          "durationTicks": 227,
          "midi": 64,
          "name": "E4",
          "ticks": 256440,
          "time": 267.125,
          "velocity": 0.6299212598425197
        },
        {
          "duration": 0.23645833333335986,
          "durationTicks": 227,
          "midi": 76,
          "name": "E5",
          "ticks": 256440,
          "time": 267.125,
          "velocity": 0.6299212598425197
        },
        {
          "duration": 0.23645833333335986,
          "durationTicks": 227,
          "midi": 57,
          "name": "A3",
          "ticks": 256680,
          "time": 267.375,
          "velocity": 0.6299212598425197
        },
        {
          "duration": 0.23645833333335986,
          "durationTicks": 227,
          "midi": 69,
          "name": "A4",
          "ticks": 256680,
          "time": 267.375,
          "velocity": 0.6299212598425197
        },
        {
          "duration": 0.23645833333335986,
          "durationTicks": 227,
          "midi": 55,
          "name": "G3",
          "ticks": 256920,
          "time": 267.625,
          "velocity": 0.6299212598425197
        },
        {
          "duration": 0.23645833333335986,
          "durationTicks": 227,
          "midi": 67,
          "name": "G4",
          "ticks": 256920,
          "time": 267.625,
          "velocity": 0.6299212598425197
        },
        {
          "duration": 0.23645833333335986,
          "durationTicks": 227,
          "midi": 59,
          "name": "B3",
          "ticks": 257160,
          "time": 267.875,
          "velocity": 0.6299212598425197
        },
        {
          "duration": 0.23645833333335986,
          "durationTicks": 227,
          "midi": 71,
          "name": "B4",
          "ticks": 257160,
          "time": 267.875,
          "velocity": 0.6299212598425197
        },
        {
          "duration": 0.23645833333335986,
          "durationTicks": 227,
          "midi": 64,
          "name": "E4",
          "ticks": 257640,
          "time": 268.375,
          "velocity": 0.6299212598425197
        },
        {
          "duration": 0.23645833333335986,
          "durationTicks": 227,
          "midi": 67,
          "name": "G4",
          "ticks": 257880,
          "time": 268.625,
          "velocity": 0.6299212598425197
        },
        {
          "duration": 0.4739583333333144,
          "durationTicks": 455,
          "midi": 60,
          "name": "C4",
          "ticks": 258120,
          "time": 268.875,
          "velocity": 0.6299212598425197
        },
        {
          "duration": 0.4739583333333144,
          "durationTicks": 455,
          "midi": 72,
          "name": "C5",
          "ticks": 258120,
          "time": 268.875,
          "velocity": 0.6299212598425197
        },
        {
          "duration": 0.4739583333333144,
          "durationTicks": 455,
          "midi": 58,
          "name": "A#3",
          "ticks": 258600,
          "time": 269.375,
          "velocity": 0.6299212598425197
        },
        {
          "duration": 0.4739583333333144,
          "durationTicks": 455,
          "midi": 71,
          "name": "B4",
          "ticks": 258600,
          "time": 269.375,
          "velocity": 0.6299212598425197
        },
        {
          "duration": 0.4739583333333144,
          "durationTicks": 455,
          "midi": 57,
          "name": "A3",
          "ticks": 259080,
          "time": 269.875,
          "velocity": 0.6299212598425197
        },
        {
          "duration": 0.4739583333333144,
          "durationTicks": 455,
          "midi": 69,
          "name": "A4",
          "ticks": 259080,
          "time": 269.875,
          "velocity": 0.6299212598425197
        },
        {
          "duration": 0.4739583333333144,
          "durationTicks": 455,
          "midi": 55,
          "name": "G3",
          "ticks": 259560,
          "time": 270.375,
          "velocity": 0.6299212598425197
        },
        {
          "duration": 0.4739583333333144,
          "durationTicks": 455,
          "midi": 67,
          "name": "G4",
          "ticks": 259560,
          "time": 270.375,
          "velocity": 0.6299212598425197
        },
        {
          "duration": 0.23645833333335986,
          "durationTicks": 227,
          "midi": 52,
          "name": "E3",
          "ticks": 260040,
          "time": 270.875,
          "velocity": 0.6299212598425197
        },
        {
          "duration": 0.23645833333335986,
          "durationTicks": 227,
          "midi": 57,
          "name": "A3",
          "ticks": 260040,
          "time": 270.875,
          "velocity": 0.6299212598425197
        },
        {
          "duration": 0.23645833333335986,
          "durationTicks": 227,
          "midi": 64,
          "name": "E4",
          "ticks": 260040,
          "time": 270.875,
          "velocity": 0.6299212598425197
        },
        {
          "duration": 0.23645833333335986,
          "durationTicks": 227,
          "midi": 69,
          "name": "A4",
          "ticks": 260040,
          "time": 270.875,
          "velocity": 0.6299212598425197
        },
        {
          "duration": 0.23645833333335986,
          "durationTicks": 227,
          "midi": 55,
          "name": "G3",
          "ticks": 260280,
          "time": 271.125,
          "velocity": 0.6299212598425197
        },
        {
          "duration": 0.23645833333335986,
          "durationTicks": 227,
          "midi": 67,
          "name": "G4",
          "ticks": 260280,
          "time": 271.125,
          "velocity": 0.6299212598425197
        },
        {
          "duration": 0.23645833333335986,
          "durationTicks": 227,
          "midi": 59,
          "name": "B3",
          "ticks": 260520,
          "time": 271.375,
          "velocity": 0.6299212598425197
        },
        {
          "duration": 0.23645833333335986,
          "durationTicks": 227,
          "midi": 70,
          "name": "A#4",
          "ticks": 260520,
          "time": 271.375,
          "velocity": 0.6299212598425197
        },
        {
          "duration": 0.23645833333335986,
          "durationTicks": 227,
          "midi": 62,
          "name": "D4",
          "ticks": 260760,
          "time": 271.625,
          "velocity": 0.6299212598425197
        },
        {
          "duration": 0.23645833333335986,
          "durationTicks": 227,
          "midi": 74,
          "name": "D5",
          "ticks": 260760,
          "time": 271.625,
          "velocity": 0.6299212598425197
        },
        {
          "duration": 0.23645833333335986,
          "durationTicks": 227,
          "midi": 55,
          "name": "G3",
          "ticks": 261000,
          "time": 271.875,
          "velocity": 0.6299212598425197
        },
        {
          "duration": 0.23645833333335986,
          "durationTicks": 227,
          "midi": 59,
          "name": "B3",
          "ticks": 261000,
          "time": 271.875,
          "velocity": 0.6299212598425197
        },
        {
          "duration": 0.23645833333335986,
          "durationTicks": 227,
          "midi": 64,
          "name": "E4",
          "ticks": 261000,
          "time": 271.875,
          "velocity": 0.6299212598425197
        },
        {
          "duration": 0.23645833333335986,
          "durationTicks": 227,
          "midi": 67,
          "name": "G4",
          "ticks": 261000,
          "time": 271.875,
          "velocity": 0.6299212598425197
        },
        {
          "duration": 0.23645833333335986,
          "durationTicks": 227,
          "midi": 70,
          "name": "A#4",
          "ticks": 261000,
          "time": 271.875,
          "velocity": 0.6299212598425197
        },
        {
          "duration": 0.23645833333335986,
          "durationTicks": 227,
          "midi": 40,
          "name": "E2",
          "ticks": 261720,
          "time": 272.625,
          "velocity": 0.6299212598425197
        },
        {
          "duration": 0.23645833333335986,
          "durationTicks": 227,
          "midi": 48,
          "name": "C3",
          "ticks": 261960,
          "time": 272.875,
          "velocity": 0.6299212598425197
        },
        {
          "duration": 0.23645833333335986,
          "durationTicks": 227,
          "midi": 55,
          "name": "G3",
          "ticks": 262200,
          "time": 273.125,
          "velocity": 0.6299212598425197
        },
        {
          "duration": 0.23645833333335986,
          "durationTicks": 227,
          "midi": 48,
          "name": "C3",
          "ticks": 262440,
          "time": 273.375,
          "velocity": 0.6299212598425197
        },
        {
          "duration": 0.23645833333335986,
          "durationTicks": 227,
          "midi": 50,
          "name": "D3",
          "ticks": 262680,
          "time": 273.625,
          "velocity": 0.6299212598425197
        },
        {
          "duration": 0.23645833333335986,
          "durationTicks": 227,
          "midi": 45,
          "name": "A2",
          "ticks": 262920,
          "time": 273.875,
          "velocity": 0.6299212598425197
        },
        {
          "duration": 0.23645833333335986,
          "durationTicks": 227,
          "midi": 54,
          "name": "F#3",
          "ticks": 263160,
          "time": 274.125,
          "velocity": 0.6299212598425197
        },
        {
          "duration": 0.23645833333335986,
          "durationTicks": 227,
          "midi": 45,
          "name": "A2",
          "ticks": 263400,
          "time": 274.375,
          "velocity": 0.6299212598425197
        },
        {
          "duration": 0.23645833333335986,
          "durationTicks": 227,
          "midi": 40,
          "name": "E2",
          "ticks": 263640,
          "time": 274.625,
          "velocity": 0.6299212598425197
        },
        {
          "duration": 0.23645833333335986,
          "durationTicks": 227,
          "midi": 47,
          "name": "B2",
          "ticks": 263880,
          "time": 274.875,
          "velocity": 0.6299212598425197
        },
        {
          "duration": 0.23645833333335986,
          "durationTicks": 227,
          "midi": 55,
          "name": "G3",
          "ticks": 264120,
          "time": 275.125,
          "velocity": 0.6299212598425197
        },
        {
          "duration": 0.23645833333335986,
          "durationTicks": 227,
          "midi": 47,
          "name": "B2",
          "ticks": 264360,
          "time": 275.375,
          "velocity": 0.6299212598425197
        },
        {
          "duration": 0.23645833333335986,
          "durationTicks": 227,
          "midi": 55,
          "name": "G3",
          "ticks": 264600,
          "time": 275.625,
          "velocity": 0.6299212598425197
        },
        {
          "duration": 0.23645833333335986,
          "durationTicks": 227,
          "midi": 47,
          "name": "B2",
          "ticks": 264840,
          "time": 275.875,
          "velocity": 0.6299212598425197
        },
        {
          "duration": 0.23645833333335986,
          "durationTicks": 227,
          "midi": 54,
          "name": "F#3",
          "ticks": 265080,
          "time": 276.125,
          "velocity": 0.6299212598425197
        },
        {
          "duration": 0.23645833333335986,
          "durationTicks": 227,
          "midi": 47,
          "name": "B2",
          "ticks": 265320,
          "time": 276.375,
          "velocity": 0.6299212598425197
        },
        {
          "duration": 0.23645833333335986,
          "durationTicks": 227,
          "midi": 40,
          "name": "E2",
          "ticks": 265560,
          "time": 276.625,
          "velocity": 0.6299212598425197
        },
        {
          "duration": 0.23645833333335986,
          "durationTicks": 227,
          "midi": 48,
          "name": "C3",
          "ticks": 265800,
          "time": 276.875,
          "velocity": 0.6299212598425197
        },
        {
          "duration": 0.23645833333335986,
          "durationTicks": 227,
          "midi": 55,
          "name": "G3",
          "ticks": 266040,
          "time": 277.125,
          "velocity": 0.6299212598425197
        },
        {
          "duration": 0.23645833333335986,
          "durationTicks": 227,
          "midi": 48,
          "name": "C3",
          "ticks": 266280,
          "time": 277.375,
          "velocity": 0.6299212598425197
        },
        {
          "duration": 0.23645833333335986,
          "durationTicks": 227,
          "midi": 50,
          "name": "D3",
          "ticks": 266520,
          "time": 277.625,
          "velocity": 0.6299212598425197
        },
        {
          "duration": 0.23645833333335986,
          "durationTicks": 227,
          "midi": 45,
          "name": "A2",
          "ticks": 266760,
          "time": 277.875,
          "velocity": 0.6299212598425197
        },
        {
          "duration": 0.23645833333335986,
          "durationTicks": 227,
          "midi": 54,
          "name": "F#3",
          "ticks": 267000,
          "time": 278.125,
          "velocity": 0.6299212598425197
        },
        {
          "duration": 0.23645833333335986,
          "durationTicks": 227,
          "midi": 45,
          "name": "A2",
          "ticks": 267240,
          "time": 278.375,
          "velocity": 0.6299212598425197
        },
        {
          "duration": 0.23645833333335986,
          "durationTicks": 227,
          "midi": 40,
          "name": "E2",
          "ticks": 267480,
          "time": 278.625,
          "velocity": 0.6299212598425197
        },
        {
          "duration": 0.23645833333335986,
          "durationTicks": 227,
          "midi": 47,
          "name": "B2",
          "ticks": 267720,
          "time": 278.875,
          "velocity": 0.6299212598425197
        },
        {
          "duration": 0.23645833333335986,
          "durationTicks": 227,
          "midi": 55,
          "name": "G3",
          "ticks": 267960,
          "time": 279.125,
          "velocity": 0.6299212598425197
        },
        {
          "duration": 0.23645833333335986,
          "durationTicks": 227,
          "midi": 47,
          "name": "B2",
          "ticks": 268200,
          "time": 279.375,
          "velocity": 0.6299212598425197
        },
        {
          "duration": 0.23645833333335986,
          "durationTicks": 227,
          "midi": 55,
          "name": "G3",
          "ticks": 268440,
          "time": 279.625,
          "velocity": 0.6299212598425197
        },
        {
          "duration": 0.23645833333335986,
          "durationTicks": 227,
          "midi": 47,
          "name": "B2",
          "ticks": 268680,
          "time": 279.875,
          "velocity": 0.6299212598425197
        },
        {
          "duration": 0.23645833333335986,
          "durationTicks": 227,
          "midi": 54,
          "name": "F#3",
          "ticks": 268920,
          "time": 280.125,
          "velocity": 0.6299212598425197
        },
        {
          "duration": 0.23645833333335986,
          "durationTicks": 227,
          "midi": 47,
          "name": "B2",
          "ticks": 269160,
          "time": 280.375,
          "velocity": 0.6299212598425197
        },
        {
          "duration": 0.23645833333335986,
          "durationTicks": 227,
          "midi": 40,
          "name": "E2",
          "ticks": 269400,
          "time": 280.625,
          "velocity": 0.6299212598425197
        },
        {
          "duration": 0.23645833333335986,
          "durationTicks": 227,
          "midi": 48,
          "name": "C3",
          "ticks": 269640,
          "time": 280.875,
          "velocity": 0.6299212598425197
        },
        {
          "duration": 0.23645833333335986,
          "durationTicks": 227,
          "midi": 55,
          "name": "G3",
          "ticks": 269880,
          "time": 281.125,
          "velocity": 0.6299212598425197
        },
        {
          "duration": 0.23645833333335986,
          "durationTicks": 227,
          "midi": 48,
          "name": "C3",
          "ticks": 270120,
          "time": 281.375,
          "velocity": 0.6299212598425197
        },
        {
          "duration": 0.23645833333335986,
          "durationTicks": 227,
          "midi": 50,
          "name": "D3",
          "ticks": 270360,
          "time": 281.625,
          "velocity": 0.6299212598425197
        },
        {
          "duration": 0.23645833333335986,
          "durationTicks": 227,
          "midi": 45,
          "name": "A2",
          "ticks": 270600,
          "time": 281.875,
          "velocity": 0.6299212598425197
        },
        {
          "duration": 0.23645833333335986,
          "durationTicks": 227,
          "midi": 54,
          "name": "F#3",
          "ticks": 270840,
          "time": 282.125,
          "velocity": 0.6299212598425197
        },
        {
          "duration": 0.23645833333335986,
          "durationTicks": 227,
          "midi": 45,
          "name": "A2",
          "ticks": 271080,
          "time": 282.375,
          "velocity": 0.6299212598425197
        },
        {
          "duration": 0.23645833333335986,
          "durationTicks": 227,
          "midi": 40,
          "name": "E2",
          "ticks": 271320,
          "time": 282.625,
          "velocity": 0.6299212598425197
        },
        {
          "duration": 0.23645833333335986,
          "durationTicks": 227,
          "midi": 47,
          "name": "B2",
          "ticks": 271560,
          "time": 282.875,
          "velocity": 0.6299212598425197
        },
        {
          "duration": 0.23645833333335986,
          "durationTicks": 227,
          "midi": 55,
          "name": "G3",
          "ticks": 271800,
          "time": 283.125,
          "velocity": 0.6299212598425197
        },
        {
          "duration": 0.23645833333335986,
          "durationTicks": 227,
          "midi": 47,
          "name": "B2",
          "ticks": 272040,
          "time": 283.375,
          "velocity": 0.6299212598425197
        },
        {
          "duration": 0.23645833333335986,
          "durationTicks": 227,
          "midi": 55,
          "name": "G3",
          "ticks": 272280,
          "time": 283.625,
          "velocity": 0.6299212598425197
        },
        {
          "duration": 0.23645833333335986,
          "durationTicks": 227,
          "midi": 47,
          "name": "B2",
          "ticks": 272520,
          "time": 283.875,
          "velocity": 0.6299212598425197
        },
        {
          "duration": 0.23645833333335986,
          "durationTicks": 227,
          "midi": 54,
          "name": "F#3",
          "ticks": 272760,
          "time": 284.125,
          "velocity": 0.6299212598425197
        },
        {
          "duration": 0.23645833333335986,
          "durationTicks": 227,
          "midi": 47,
          "name": "B2",
          "ticks": 273000,
          "time": 284.375,
          "velocity": 0.6299212598425197
        },
        {
          "duration": 0.4739583333333144,
          "durationTicks": 455,
          "midi": 52,
          "name": "E3",
          "ticks": 273240,
          "time": 284.625,
          "velocity": 0.6299212598425197
        },
        {
          "duration": 0.4739583333333144,
          "durationTicks": 455,
          "midi": 50,
          "name": "D3",
          "ticks": 273720,
          "time": 285.125,
          "velocity": 0.6299212598425197
        },
        {
          "duration": 0.4739583333333144,
          "durationTicks": 455,
          "midi": 54,
          "name": "F#3",
          "ticks": 273720,
          "time": 285.125,
          "velocity": 0.6299212598425197
        },
        {
          "duration": 0.4739583333333144,
          "durationTicks": 455,
          "midi": 57,
          "name": "A3",
          "ticks": 273720,
          "time": 285.125,
          "velocity": 0.6299212598425197
        },
        {
          "duration": 0.4739583333333144,
          "durationTicks": 455,
          "midi": 52,
          "name": "E3",
          "ticks": 274200,
          "time": 285.625,
          "velocity": 0.6299212598425197
        },
        {
          "duration": 0.4739583333333144,
          "durationTicks": 455,
          "midi": 55,
          "name": "G3",
          "ticks": 274200,
          "time": 285.625,
          "velocity": 0.6299212598425197
        },
        {
          "duration": 0.4739583333333144,
          "durationTicks": 455,
          "midi": 52,
          "name": "E3",
          "ticks": 274680,
          "time": 286.125,
          "velocity": 0.6299212598425197
        },
        {
          "duration": 0.4739583333333144,
          "durationTicks": 455,
          "midi": 57,
          "name": "A3",
          "ticks": 274680,
          "time": 286.125,
          "velocity": 0.6299212598425197
        },
        {
          "duration": 0.4739583333333144,
          "durationTicks": 455,
          "midi": 59,
          "name": "B3",
          "ticks": 274680,
          "time": 286.125,
          "velocity": 0.6299212598425197
        },
        {
          "duration": 0.4739583333333144,
          "durationTicks": 455,
          "midi": 55,
          "name": "G3",
          "ticks": 275160,
          "time": 286.625,
          "velocity": 0.6299212598425197
        },
        {
          "duration": 0.4739583333333144,
          "durationTicks": 455,
          "midi": 59,
          "name": "B3",
          "ticks": 275160,
          "time": 286.625,
          "velocity": 0.6299212598425197
        },
        {
          "duration": 0.4739583333333144,
          "durationTicks": 455,
          "midi": 48,
          "name": "C3",
          "ticks": 275760,
          "time": 287.25,
          "velocity": 0.6299212598425197
        },
        {
          "duration": 0.4739583333333144,
          "durationTicks": 455,
          "midi": 52,
          "name": "E3",
          "ticks": 275760,
          "time": 287.25,
          "velocity": 0.6299212598425197
        },
        {
          "duration": 0.4739583333333144,
          "durationTicks": 455,
          "midi": 43,
          "name": "G2",
          "ticks": 276240,
          "time": 287.75,
          "velocity": 0.6299212598425197
        },
        {
          "duration": 0.4739583333333144,
          "durationTicks": 455,
          "midi": 47,
          "name": "B2",
          "ticks": 276240,
          "time": 287.75,
          "velocity": 0.6299212598425197
        },
        {
          "duration": 0.4739583333333144,
          "durationTicks": 455,
          "midi": 36,
          "name": "C2",
          "ticks": 276720,
          "time": 288.25,
          "velocity": 0.6299212598425197
        },
        {
          "duration": 0.4739583333333144,
          "durationTicks": 455,
          "midi": 40,
          "name": "E2",
          "ticks": 276720,
          "time": 288.25,
          "velocity": 0.6299212598425197
        },
        {
          "duration": 0.23645833333335986,
          "durationTicks": 227,
          "midi": 40,
          "name": "E2",
          "ticks": 277200,
          "time": 288.75,
          "velocity": 0.6299212598425197
        },
        {
          "duration": 0.23645833333335986,
          "durationTicks": 227,
          "midi": 48,
          "name": "C3",
          "ticks": 277440,
          "time": 289,
          "velocity": 0.6299212598425197
        },
        {
          "duration": 0.23645833333335986,
          "durationTicks": 227,
          "midi": 55,
          "name": "G3",
          "ticks": 277680,
          "time": 289.25,
          "velocity": 0.6299212598425197
        },
        {
          "duration": 0.23645833333335986,
          "durationTicks": 227,
          "midi": 48,
          "name": "C3",
          "ticks": 277920,
          "time": 289.5,
          "velocity": 0.6299212598425197
        },
        {
          "duration": 0.23645833333335986,
          "durationTicks": 227,
          "midi": 50,
          "name": "D3",
          "ticks": 278160,
          "time": 289.75,
          "velocity": 0.6299212598425197
        },
        {
          "duration": 0.23645833333335986,
          "durationTicks": 227,
          "midi": 45,
          "name": "A2",
          "ticks": 278400,
          "time": 290,
          "velocity": 0.6299212598425197
        },
        {
          "duration": 0.23645833333335986,
          "durationTicks": 227,
          "midi": 54,
          "name": "F#3",
          "ticks": 278640,
          "time": 290.25,
          "velocity": 0.6299212598425197
        },
        {
          "duration": 0.23645833333335986,
          "durationTicks": 227,
          "midi": 45,
          "name": "A2",
          "ticks": 278880,
          "time": 290.5,
          "velocity": 0.6299212598425197
        },
        {
          "duration": 0.23645833333335986,
          "durationTicks": 227,
          "midi": 40,
          "name": "E2",
          "ticks": 279120,
          "time": 290.75,
          "velocity": 0.6299212598425197
        },
        {
          "duration": 0.23645833333335986,
          "durationTicks": 227,
          "midi": 47,
          "name": "B2",
          "ticks": 279360,
          "time": 291,
          "velocity": 0.6299212598425197
        },
        {
          "duration": 0.23645833333335986,
          "durationTicks": 227,
          "midi": 55,
          "name": "G3",
          "ticks": 279600,
          "time": 291.25,
          "velocity": 0.6299212598425197
        },
        {
          "duration": 0.23645833333335986,
          "durationTicks": 227,
          "midi": 47,
          "name": "B2",
          "ticks": 279840,
          "time": 291.5,
          "velocity": 0.6299212598425197
        },
        {
          "duration": 0.23645833333335986,
          "durationTicks": 227,
          "midi": 55,
          "name": "G3",
          "ticks": 280080,
          "time": 291.75,
          "velocity": 0.6299212598425197
        },
        {
          "duration": 0.23645833333335986,
          "durationTicks": 227,
          "midi": 47,
          "name": "B2",
          "ticks": 280320,
          "time": 292,
          "velocity": 0.6299212598425197
        },
        {
          "duration": 0.23645833333335986,
          "durationTicks": 227,
          "midi": 54,
          "name": "F#3",
          "ticks": 280560,
          "time": 292.25,
          "velocity": 0.6299212598425197
        },
        {
          "duration": 0.23645833333335986,
          "durationTicks": 227,
          "midi": 47,
          "name": "B2",
          "ticks": 280800,
          "time": 292.5,
          "velocity": 0.6299212598425197
        },
        {
          "duration": 0.23645833333335986,
          "durationTicks": 227,
          "midi": 40,
          "name": "E2",
          "ticks": 281040,
          "time": 292.75,
          "velocity": 0.6299212598425197
        },
        {
          "duration": 0.23645833333335986,
          "durationTicks": 227,
          "midi": 48,
          "name": "C3",
          "ticks": 281280,
          "time": 293,
          "velocity": 0.6299212598425197
        },
        {
          "duration": 0.23645833333335986,
          "durationTicks": 227,
          "midi": 55,
          "name": "G3",
          "ticks": 281520,
          "time": 293.25,
          "velocity": 0.6299212598425197
        },
        {
          "duration": 0.23645833333335986,
          "durationTicks": 227,
          "midi": 48,
          "name": "C3",
          "ticks": 281760,
          "time": 293.5,
          "velocity": 0.6299212598425197
        },
        {
          "duration": 0.23645833333335986,
          "durationTicks": 227,
          "midi": 50,
          "name": "D3",
          "ticks": 282000,
          "time": 293.75,
          "velocity": 0.6299212598425197
        },
        {
          "duration": 0.23645833333335986,
          "durationTicks": 227,
          "midi": 45,
          "name": "A2",
          "ticks": 282240,
          "time": 294,
          "velocity": 0.6299212598425197
        },
        {
          "duration": 0.2489583333333485,
          "durationTicks": 239,
          "midi": 54,
          "name": "F#3",
          "ticks": 282480,
          "time": 294.25,
          "velocity": 0.6299212598425197
        },
        {
          "duration": 0.23645833333335986,
          "durationTicks": 227,
          "midi": 45,
          "name": "A2",
          "ticks": 282720,
          "time": 294.5,
          "velocity": 0.6299212598425197
        },
        {
          "duration": 0.23645833333335986,
          "durationTicks": 227,
          "midi": 40,
          "name": "E2",
          "ticks": 282960,
          "time": 294.75,
          "velocity": 0.6299212598425197
        },
        {
          "duration": 0.23645833333335986,
          "durationTicks": 227,
          "midi": 47,
          "name": "B2",
          "ticks": 283200,
          "time": 295,
          "velocity": 0.6299212598425197
        },
        {
          "duration": 0.23645833333335986,
          "durationTicks": 227,
          "midi": 55,
          "name": "G3",
          "ticks": 283440,
          "time": 295.25,
          "velocity": 0.6299212598425197
        },
        {
          "duration": 0.23645833333335986,
          "durationTicks": 227,
          "midi": 47,
          "name": "B2",
          "ticks": 283680,
          "time": 295.5,
          "velocity": 0.6299212598425197
        },
        {
          "duration": 0.23645833333335986,
          "durationTicks": 227,
          "midi": 55,
          "name": "G3",
          "ticks": 283920,
          "time": 295.75,
          "velocity": 0.6299212598425197
        },
        {
          "duration": 0.23645833333335986,
          "durationTicks": 227,
          "midi": 47,
          "name": "B2",
          "ticks": 284160,
          "time": 296,
          "velocity": 0.6299212598425197
        },
        {
          "duration": 0.23645833333335986,
          "durationTicks": 227,
          "midi": 54,
          "name": "F#3",
          "ticks": 284400,
          "time": 296.25,
          "velocity": 0.6299212598425197
        },
        {
          "duration": 0.23645833333335986,
          "durationTicks": 227,
          "midi": 47,
          "name": "B2",
          "ticks": 284640,
          "time": 296.5,
          "velocity": 0.6299212598425197
        },
        {
          "duration": 0.23645833333335986,
          "durationTicks": 227,
          "midi": 40,
          "name": "E2",
          "ticks": 284880,
          "time": 296.75,
          "velocity": 0.6299212598425197
        },
        {
          "duration": 0.23645833333335986,
          "durationTicks": 227,
          "midi": 48,
          "name": "C3",
          "ticks": 285120,
          "time": 297,
          "velocity": 0.6299212598425197
        },
        {
          "duration": 0.23645833333335986,
          "durationTicks": 227,
          "midi": 55,
          "name": "G3",
          "ticks": 285360,
          "time": 297.25,
          "velocity": 0.6299212598425197
        },
        {
          "duration": 0.23645833333335986,
          "durationTicks": 227,
          "midi": 48,
          "name": "C3",
          "ticks": 285600,
          "time": 297.5,
          "velocity": 0.6299212598425197
        },
        {
          "duration": 0.23645833333335986,
          "durationTicks": 227,
          "midi": 50,
          "name": "D3",
          "ticks": 285840,
          "time": 297.75,
          "velocity": 0.6299212598425197
        },
        {
          "duration": 0.23645833333335986,
          "durationTicks": 227,
          "midi": 45,
          "name": "A2",
          "ticks": 286080,
          "time": 298,
          "velocity": 0.6299212598425197
        },
        {
          "duration": 0.23645833333335986,
          "durationTicks": 227,
          "midi": 54,
          "name": "F#3",
          "ticks": 286320,
          "time": 298.25,
          "velocity": 0.6299212598425197
        },
        {
          "duration": 0.23645833333335986,
          "durationTicks": 227,
          "midi": 45,
          "name": "A2",
          "ticks": 286560,
          "time": 298.5,
          "velocity": 0.6299212598425197
        },
        {
          "duration": 0.23645833333335986,
          "durationTicks": 227,
          "midi": 40,
          "name": "E2",
          "ticks": 286800,
          "time": 298.75,
          "velocity": 0.6299212598425197
        },
        {
          "duration": 0.23645833333335986,
          "durationTicks": 227,
          "midi": 47,
          "name": "B2",
          "ticks": 287040,
          "time": 299,
          "velocity": 0.6299212598425197
        },
        {
          "duration": 0.23645833333335986,
          "durationTicks": 227,
          "midi": 55,
          "name": "G3",
          "ticks": 287280,
          "time": 299.25,
          "velocity": 0.6299212598425197
        },
        {
          "duration": 0.23645833333335986,
          "durationTicks": 227,
          "midi": 47,
          "name": "B2",
          "ticks": 287520,
          "time": 299.5,
          "velocity": 0.6299212598425197
        },
        {
          "duration": 0.23645833333335986,
          "durationTicks": 227,
          "midi": 55,
          "name": "G3",
          "ticks": 287760,
          "time": 299.75,
          "velocity": 0.6299212598425197
        },
        {
          "duration": 0.23645833333335986,
          "durationTicks": 227,
          "midi": 47,
          "name": "B2",
          "ticks": 288000,
          "time": 300,
          "velocity": 0.6299212598425197
        },
        {
          "duration": 0.23645833333335986,
          "durationTicks": 227,
          "midi": 54,
          "name": "F#3",
          "ticks": 288240,
          "time": 300.25,
          "velocity": 0.6299212598425197
        },
        {
          "duration": 0.23645833333335986,
          "durationTicks": 227,
          "midi": 47,
          "name": "B2",
          "ticks": 288480,
          "time": 300.5,
          "velocity": 0.6299212598425197
        },
        {
          "duration": 0.4739583333333144,
          "durationTicks": 455,
          "midi": 52,
          "name": "E3",
          "ticks": 288720,
          "time": 300.75,
          "velocity": 0.6299212598425197
        },
        {
          "duration": 0.4739583333333144,
          "durationTicks": 455,
          "midi": 50,
          "name": "D3",
          "ticks": 289200,
          "time": 301.25,
          "velocity": 0.6299212598425197
        },
        {
          "duration": 0.4739583333333144,
          "durationTicks": 455,
          "midi": 54,
          "name": "F#3",
          "ticks": 289200,
          "time": 301.25,
          "velocity": 0.6299212598425197
        },
        {
          "duration": 0.4739583333333144,
          "durationTicks": 455,
          "midi": 57,
          "name": "A3",
          "ticks": 289200,
          "time": 301.25,
          "velocity": 0.6299212598425197
        },
        {
          "duration": 0.4739583333333144,
          "durationTicks": 455,
          "midi": 52,
          "name": "E3",
          "ticks": 289680,
          "time": 301.75,
          "velocity": 0.6299212598425197
        },
        {
          "duration": 0.4739583333333144,
          "durationTicks": 455,
          "midi": 55,
          "name": "G3",
          "ticks": 289680,
          "time": 301.75,
          "velocity": 0.6299212598425197
        },
        {
          "duration": 0.4739583333333144,
          "durationTicks": 455,
          "midi": 52,
          "name": "E3",
          "ticks": 290160,
          "time": 302.25,
          "velocity": 0.6299212598425197
        },
        {
          "duration": 0.4739583333333144,
          "durationTicks": 455,
          "midi": 57,
          "name": "A3",
          "ticks": 290160,
          "time": 302.25,
          "velocity": 0.6299212598425197
        },
        {
          "duration": 0.4739583333333144,
          "durationTicks": 455,
          "midi": 59,
          "name": "B3",
          "ticks": 290160,
          "time": 302.25,
          "velocity": 0.6299212598425197
        },
        {
          "duration": 0.3552083333333371,
          "durationTicks": 341,
          "midi": 45,
          "name": "A2",
          "ticks": 290640,
          "time": 302.75,
          "velocity": 0.6299212598425197
        },
        {
          "duration": 0.23645833333335986,
          "durationTicks": 227,
          "midi": 52,
          "name": "E3",
          "ticks": 290640,
          "time": 302.75,
          "velocity": 0.6299212598425197
        },
        {
          "duration": 0.11770833333332575,
          "durationTicks": 113,
          "midi": 52,
          "name": "E3",
          "ticks": 290880,
          "time": 303,
          "velocity": 0.6299212598425197
        },
        {
          "duration": 0.3552083333333371,
          "durationTicks": 341,
          "midi": 45,
          "name": "A2",
          "ticks": 291000,
          "time": 303.125,
          "velocity": 0.6299212598425197
        },
        {
          "duration": 0.3552083333333371,
          "durationTicks": 341,
          "midi": 52,
          "name": "E3",
          "ticks": 291000,
          "time": 303.125,
          "velocity": 0.6299212598425197
        },
        {
          "duration": 0.23645833333335986,
          "durationTicks": 227,
          "midi": 43,
          "name": "G2",
          "ticks": 291360,
          "time": 303.5,
          "velocity": 0.6299212598425197
        },
        {
          "duration": 0.23645833333335986,
          "durationTicks": 227,
          "midi": 50,
          "name": "D3",
          "ticks": 291360,
          "time": 303.5,
          "velocity": 0.6299212598425197
        },
        {
          "duration": 0.23645833333335986,
          "durationTicks": 227,
          "midi": 45,
          "name": "A2",
          "ticks": 291600,
          "time": 303.75,
          "velocity": 0.6299212598425197
        },
        {
          "duration": 0.23645833333335986,
          "durationTicks": 227,
          "midi": 52,
          "name": "E3",
          "ticks": 291600,
          "time": 303.75,
          "velocity": 0.6299212598425197
        },
        {
          "duration": 0.4739583333333144,
          "durationTicks": 455,
          "midi": 52,
          "name": "E3",
          "ticks": 291840,
          "time": 304,
          "velocity": 0.6299212598425197
        },
        {
          "duration": 0.4739583333333144,
          "durationTicks": 455,
          "midi": 40,
          "name": "E2",
          "ticks": 292320,
          "time": 304.5,
          "velocity": 0.6299212598425197
        },
        {
          "duration": 0.23645833333335986,
          "durationTicks": 227,
          "midi": 45,
          "name": "A2",
          "ticks": 292800,
          "time": 305,
          "velocity": 0.6299212598425197
        },
        {
          "duration": 0.23645833333335986,
          "durationTicks": 227,
          "midi": 52,
          "name": "E3",
          "ticks": 292800,
          "time": 305,
          "velocity": 0.6299212598425197
        },
        {
          "duration": 0.11770833333332575,
          "durationTicks": 113,
          "midi": 45,
          "name": "A2",
          "ticks": 293040,
          "time": 305.25,
          "velocity": 0.6299212598425197
        },
        {
          "duration": 0.11770833333332575,
          "durationTicks": 113,
          "midi": 52,
          "name": "E3",
          "ticks": 293040,
          "time": 305.25,
          "velocity": 0.6299212598425197
        },
        {
          "duration": 0.3552083333333371,
          "durationTicks": 341,
          "midi": 45,
          "name": "A2",
          "ticks": 293160,
          "time": 305.375,
          "velocity": 0.6299212598425197
        },
        {
          "duration": 0.3552083333333371,
          "durationTicks": 341,
          "midi": 52,
          "name": "E3",
          "ticks": 293160,
          "time": 305.375,
          "velocity": 0.6299212598425197
        },
        {
          "duration": 0.23645833333335986,
          "durationTicks": 227,
          "midi": 43,
          "name": "G2",
          "ticks": 293520,
          "time": 305.75,
          "velocity": 0.6299212598425197
        },
        {
          "duration": 0.23645833333335986,
          "durationTicks": 227,
          "midi": 50,
          "name": "D3",
          "ticks": 293520,
          "time": 305.75,
          "velocity": 0.6299212598425197
        },
        {
          "duration": 0.9489583333333371,
          "durationTicks": 911,
          "midi": 43,
          "name": "G2",
          "ticks": 293760,
          "time": 306,
          "velocity": 0.6299212598425197
        },
        {
          "duration": 0.9489583333333371,
          "durationTicks": 911,
          "midi": 52,
          "name": "E3",
          "ticks": 293760,
          "time": 306,
          "velocity": 0.6299212598425197
        }
      ],
      "endOfTrackTicks": 294672
    }
  ]
}