{
  "header": {
    "keySignatures": [
      {
        "key": "C",
        "scale": "major",
        "ticks": 0
      }
    ],
    "meta": [],
    "name": "",
    "ppq": 120,
    "tempos": [
      {
        "bpm": 143.000143000143,
        "ticks": 0
      }
    ],
    "timeSignatures": [
      {
        "ticks": 0,
        "timeSignature": [
          4,
          4
        ],
        "measures": 0
      }
    ]
  },
  "tracks": [
    {
      "channel": 0,
      "controlChanges": {
        "7": [
          {
            "number": 7,
            "ticks": 0,
            "time": 0,
            "value": 0.49606299212598426
          },
          {
            "number": 7,
            "ticks": 0,
            "time": 0,
            "value": 0.49606299212598426
          },
          {
            "number": 7,
            "ticks": 0,
            "time": 0,
            "value": 0.49606299212598426
          },
          {
            "number": 7,
            "ticks": 0,
            "time": 0,
            "value": 0.49606299212598426
          },
          {
            "number": 7,
            "ticks": 0,
            "time": 0,
            "value": 0.49606299212598426
          },
          {
            "number": 7,
            "ticks": 0,
            "time": 0,
            "value": 0.49606299212598426
          },
          {
            "number": 7,
            "ticks": 0,
            "time": 0,
            "value": 0.49606299212598426
          },
          {
            "number": 7,
            "ticks": 0,
            "time": 0,
            "value": 0.49606299212598426
          }
        ]
      },
      "pitchBends": [],
      "instrument": {
        "family": "guitar",
        "number": 27,
        "name": "electric guitar (clean)"
      },
      "name": "Electric Guitar",
      "notes": [
        {
          "duration": 0.5034959999999999,
          "durationTicks": 144,
          "midi": 56,
          "name": "G#3",
          "ticks": 0,
          "time": 0,
          "velocity": 0.6299212598425197
        },
        {
          "duration": 0.671328,
          "durationTicks": 192,
          "midi": 64,
          "name": "E4",
          "ticks": 60,
          "time": 0.20979,
          "velocity": 0.6299212598425197
        },
        {
          "duration": 0.6713279999999999,
          "durationTicks": 192,
          "midi": 59,
          "name": "B3",
          "ticks": 120,
          "time": 0.41958,
          "velocity": 0.6299212598425197
        },
        {
          "duration": 0.6713280000000001,
          "durationTicks": 192,
          "midi": 57,
          "name": "A3",
          "ticks": 180,
          "time": 0.62937,
          "velocity": 0.6299212598425197
        },
        {
          "duration": 0.6713279999999999,
          "durationTicks": 192,
          "midi": 64,
          "name": "E4",
          "ticks": 300,
          "time": 1.04895,
          "velocity": 0.6299212598425197
        },
        {
          "duration": 0.10489499999999996,
          "durationTicks": 30,
          "midi": 59,
          "name": "B3",
          "ticks": 360,
          "time": 1.25874,
          "velocity": 0.6299212598425197
        },
        {
          "duration": 0.02097899999999986,
          "durationTicks": 6,
          "midi": 57,
          "name": "A3",
          "ticks": 420,
          "time": 1.4685300000000001,
          "velocity": 0.6299212598425197
        },
        {
          "duration": 0.5209784999999998,
          "durationTicks": 149,
          "midi": 59,
          "name": "B3",
          "ticks": 427,
          "time": 1.4930055,
          "velocity": 0.6299212598425197
        },
        {
          "duration": 0.6713280000000001,
          "durationTicks": 192,
          "midi": 64,
          "name": "E4",
          "ticks": 540,
          "time": 1.88811,
          "velocity": 0.6299212598425197
        },
        {
          "duration": 0.12587400000000004,
          "durationTicks": 36,
          "midi": 59,
          "name": "B3",
          "ticks": 600,
          "time": 2.0979,
          "velocity": 0.6299212598425197
        },
        {
          "duration": 0.02097900000000008,
          "durationTicks": 6,
          "midi": 59,
          "name": "B3",
          "ticks": 660,
          "time": 2.30769,
          "velocity": 0.6299212598425197
        },
        {
          "duration": 0.7027964999999998,
          "durationTicks": 201,
          "midi": 61,
          "name": "C#4",
          "ticks": 667,
          "time": 2.3321655000000003,
          "velocity": 0.6299212598425197
        },
        {
          "duration": 0.5034960000000002,
          "durationTicks": 144,
          "midi": 64,
          "name": "E4",
          "ticks": 780,
          "time": 2.72727,
          "velocity": 0.6299212598425197
        },
        {
          "duration": 0.33566399999999996,
          "durationTicks": 96,
          "midi": 59,
          "name": "B3",
          "ticks": 840,
          "time": 2.9370600000000002,
          "velocity": 0.6299212598425197
        },
        {
          "duration": 0.5034959999999997,
          "durationTicks": 144,
          "midi": 56,
          "name": "G#3",
          "ticks": 960,
          "time": 3.35664,
          "velocity": 0.6299212598425197
        },
        {
          "duration": 0.6713280000000004,
          "durationTicks": 192,
          "midi": 64,
          "name": "E4",
          "ticks": 1020,
          "time": 3.56643,
          "velocity": 0.6299212598425197
        },
        {
          "duration": 0.6713280000000004,
          "durationTicks": 192,
          "midi": 59,
          "name": "B3",
          "ticks": 1080,
          "time": 3.77622,
          "velocity": 0.6299212598425197
        },
        {
          "duration": 0.6713279999999999,
          "durationTicks": 192,
          "midi": 57,
          "name": "A3",
          "ticks": 1140,
          "time": 3.9860100000000003,
          "velocity": 0.6299212598425197
        },
        {
          "duration": 0.6713279999999999,
          "durationTicks": 192,
          "midi": 64,
          "name": "E4",
          "ticks": 1260,
          "time": 4.40559,
          "velocity": 0.6299212598425197
        },
        {
          "duration": 0.10489499999999996,
          "durationTicks": 30,
          "midi": 59,
          "name": "B3",
          "ticks": 1320,
          "time": 4.61538,
          "velocity": 0.6299212598425197
        },
        {
          "duration": 0.020979000000000525,
          "durationTicks": 6,
          "midi": 57,
          "name": "A3",
          "ticks": 1380,
          "time": 4.82517,
          "velocity": 0.6299212598425197
        },
        {
          "duration": 0.5209785,
          "durationTicks": 149,
          "midi": 59,
          "name": "B3",
          "ticks": 1387,
          "time": 4.8496455,
          "velocity": 0.6299212598425197
        },
        {
          "duration": 0.6713279999999999,
          "durationTicks": 192,
          "midi": 64,
          "name": "E4",
          "ticks": 1500,
          "time": 5.24475,
          "velocity": 0.6299212598425197
        },
        {
          "duration": 0.12587400000000049,
          "durationTicks": 36,
          "midi": 59,
          "name": "B3",
          "ticks": 1560,
          "time": 5.45454,
          "velocity": 0.6299212598425197
        },
        {
          "duration": 0.671327999999999,
          "durationTicks": 192,
          "midi": 57,
          "name": "A3",
          "ticks": 1620,
          "time": 5.6643300000000005,
          "velocity": 0.6299212598425197
        },
        {
          "duration": 0.5034959999999993,
          "durationTicks": 144,
          "midi": 64,
          "name": "E4",
          "ticks": 1740,
          "time": 6.08391,
          "velocity": 0.6299212598425197
        },
        {
          "duration": 0.3356640000000004,
          "durationTicks": 96,
          "midi": 59,
          "name": "B3",
          "ticks": 1800,
          "time": 6.2937,
          "velocity": 0.6299212598425197
        },
        {
          "duration": 0.5034959999999993,
          "durationTicks": 144,
          "midi": 56,
          "name": "G#3",
          "ticks": 1920,
          "time": 6.71328,
          "velocity": 0.6299212598425197
        },
        {
          "duration": 0.6713280000000008,
          "durationTicks": 192,
          "midi": 64,
          "name": "E4",
          "ticks": 1980,
          "time": 6.92307,
          "velocity": 0.6299212598425197
        },
        {
          "duration": 0.6713280000000008,
          "durationTicks": 192,
          "midi": 59,
          "name": "B3",
          "ticks": 2040,
          "time": 7.13286,
          "velocity": 0.6299212598425197
        },
        {
          "duration": 0.6713280000000017,
          "durationTicks": 192,
          "midi": 57,
          "name": "A3",
          "ticks": 2100,
          "time": 7.34265,
          "velocity": 0.6299212598425197
        },
        {
          "duration": 0.6713280000000017,
          "durationTicks": 192,
          "midi": 64,
          "name": "E4",
          "ticks": 2220,
          "time": 7.76223,
          "velocity": 0.6299212598425197
        },
        {
          "duration": 0.10489499999999907,
          "durationTicks": 30,
          "midi": 59,
          "name": "B3",
          "ticks": 2280,
          "time": 7.9720200000000006,
          "velocity": 0.6299212598425197
        },
        {
          "duration": 0.020979000000000525,
          "durationTicks": 6,
          "midi": 57,
          "name": "A3",
          "ticks": 2340,
          "time": 8.18181,
          "velocity": 0.6299212598425197
        },
        {
          "duration": 0.5209785,
          "durationTicks": 149,
          "midi": 59,
          "name": "B3",
          "ticks": 2347,
          "time": 8.2062855,
          "velocity": 0.6299212598425197
        },
        {
          "duration": 0.6713280000000008,
          "durationTicks": 192,
          "midi": 64,
          "name": "E4",
          "ticks": 2460,
          "time": 8.60139,
          "velocity": 0.6299212598425197
        },
        {
          "duration": 0.1258739999999996,
          "durationTicks": 36,
          "midi": 59,
          "name": "B3",
          "ticks": 2520,
          "time": 8.81118,
          "velocity": 0.6299212598425197
        },
        {
          "duration": 0.020979000000000525,
          "durationTicks": 6,
          "midi": 59,
          "name": "B3",
          "ticks": 2580,
          "time": 9.02097,
          "velocity": 0.6299212598425197
        },
        {
          "duration": 0.7027965000000016,
          "durationTicks": 201,
          "midi": 61,
          "name": "C#4",
          "ticks": 2587,
          "time": 9.0454455,
          "velocity": 0.6299212598425197
        },
        {
          "duration": 0.5034960000000002,
          "durationTicks": 144,
          "midi": 64,
          "name": "E4",
          "ticks": 2700,
          "time": 9.44055,
          "velocity": 0.6299212598425197
        },
        {
          "duration": 0.3356640000000013,
          "durationTicks": 96,
          "midi": 59,
          "name": "B3",
          "ticks": 2760,
          "time": 9.65034,
          "velocity": 0.6299212598425197
        },
        {
          "duration": 0.5034960000000002,
          "durationTicks": 144,
          "midi": 56,
          "name": "G#3",
          "ticks": 2880,
          "time": 10.06992,
          "velocity": 0.6299212598425197
        },
        {
          "duration": 0.3356640000000013,
          "durationTicks": 96,
          "midi": 64,
          "name": "E4",
          "ticks": 2940,
          "time": 10.27971,
          "velocity": 0.6299212598425197
        },
        {
          "duration": 0.16783200000000065,
          "durationTicks": 48,
          "midi": 59,
          "name": "B3",
          "ticks": 3000,
          "time": 10.4895,
          "velocity": 0.6299212598425197
        },
        {
          "duration": 2.3916060000000012,
          "durationTicks": 684,
          "midi": 59,
          "name": "B3",
          "ticks": 3060,
          "time": 10.69929,
          "velocity": 0.6299212598425197
        },
        {
          "duration": 2.3916060000000012,
          "durationTicks": 684,
          "midi": 64,
          "name": "E4",
          "ticks": 3060,
          "time": 10.69929,
          "velocity": 0.6299212598425197
        },
        {
          "duration": 2.3916060000000012,
          "durationTicks": 684,
          "midi": 57,
          "name": "A3",
          "ticks": 3060,
          "time": 10.69929,
          "velocity": 0.6299212598425197
        },
        {
          "duration": 0.5034960000000019,
          "durationTicks": 144,
          "midi": 56,
          "name": "G#3",
          "ticks": 3840,
          "time": 13.42656,
          "velocity": 0.6299212598425197
        },
        {
          "duration": 0.6713280000000008,
          "durationTicks": 192,
          "midi": 64,
          "name": "E4",
          "ticks": 3900,
          "time": 13.63635,
          "velocity": 0.6299212598425197
        },
        {
          "duration": 0.6713280000000008,
          "durationTicks": 192,
          "midi": 59,
          "name": "B3",
          "ticks": 3960,
          "time": 13.84614,
          "velocity": 0.6299212598425197
        },
        {
          "duration": 0.6713280000000008,
          "durationTicks": 192,
          "midi": 57,
          "name": "A3",
          "ticks": 4020,
          "time": 14.05593,
          "velocity": 0.6299212598425197
        },
        {
          "duration": 0.6713280000000008,
          "durationTicks": 192,
          "midi": 64,
          "name": "E4",
          "ticks": 4140,
          "time": 14.47551,
          "velocity": 0.6299212598425197
        },
        {
          "duration": 0.10489500000000085,
          "durationTicks": 30,
          "midi": 59,
          "name": "B3",
          "ticks": 4200,
          "time": 14.6853,
          "velocity": 0.6299212598425197
        },
        {
          "duration": 0.02097899999999875,
          "durationTicks": 6,
          "midi": 57,
          "name": "A3",
          "ticks": 4260,
          "time": 14.89509,
          "velocity": 0.6299212598425197
        },
        {
          "duration": 0.5209785,
          "durationTicks": 149,
          "midi": 59,
          "name": "B3",
          "ticks": 4267,
          "time": 14.9195655,
          "velocity": 0.6299212598425197
        },
        {
          "duration": 0.6713280000000008,
          "durationTicks": 192,
          "midi": 64,
          "name": "E4",
          "ticks": 4380,
          "time": 15.31467,
          "velocity": 0.6299212598425197
        },
        {
          "duration": 0.1258739999999996,
          "durationTicks": 36,
          "midi": 59,
          "name": "B3",
          "ticks": 4440,
          "time": 15.52446,
          "velocity": 0.6299212598425197
        },
        {
          "duration": 0.02097899999999875,
          "durationTicks": 6,
          "midi": 59,
          "name": "B3",
          "ticks": 4500,
          "time": 15.734250000000001,
          "velocity": 0.6299212598425197
        },
        {
          "duration": 0.7027965000000034,
          "durationTicks": 201,
          "midi": 61,
          "name": "C#4",
          "ticks": 4507,
          "time": 15.758725499999999,
          "velocity": 0.6299212598425197
        },
        {
          "duration": 0.5034960000000019,
          "durationTicks": 144,
          "midi": 64,
          "name": "E4",
          "ticks": 4620,
          "time": 16.15383,
          "velocity": 0.6299212598425197
        },
        {
          "duration": 0.33566399999999774,
          "durationTicks": 96,
          "midi": 59,
          "name": "B3",
          "ticks": 4680,
          "time": 16.36362,
          "velocity": 0.6299212598425197
        },
        {
          "duration": 0.5034960000000019,
          "durationTicks": 144,
          "midi": 56,
          "name": "G#3",
          "ticks": 4800,
          "time": 16.7832,
          "velocity": 0.6299212598425197
        },
        {
          "duration": 0.6713280000000026,
          "durationTicks": 192,
          "midi": 64,
          "name": "E4",
          "ticks": 4860,
          "time": 16.99299,
          "velocity": 0.6299212598425197
        },
        {
          "duration": 0.671327999999999,
          "durationTicks": 192,
          "midi": 59,
          "name": "B3",
          "ticks": 4920,
          "time": 17.20278,
          "velocity": 0.6299212598425197
        },
        {
          "duration": 0.6713280000000026,
          "durationTicks": 192,
          "midi": 57,
          "name": "A3",
          "ticks": 4980,
          "time": 17.41257,
          "velocity": 0.6299212598425197
        },
        {
          "duration": 0.6713280000000026,
          "durationTicks": 192,
          "midi": 64,
          "name": "E4",
          "ticks": 5100,
          "time": 17.83215,
          "velocity": 0.6299212598425197
        },
        {
          "duration": 0.10489499999999907,
          "durationTicks": 30,
          "midi": 59,
          "name": "B3",
          "ticks": 5160,
          "time": 18.04194,
          "velocity": 0.6299212598425197
        },
        {
          "duration": 0.020978999999996972,
          "durationTicks": 6,
          "midi": 57,
          "name": "A3",
          "ticks": 5220,
          "time": 18.251730000000002,
          "velocity": 0.6299212598425197
        },
        {
          "duration": 0.5209784999999982,
          "durationTicks": 149,
          "midi": 59,
          "name": "B3",
          "ticks": 5227,
          "time": 18.2762055,
          "velocity": 0.6299212598425197
        },
        {
          "duration": 0.671327999999999,
          "durationTicks": 192,
          "midi": 64,
          "name": "E4",
          "ticks": 5340,
          "time": 18.671310000000002,
          "velocity": 0.6299212598425197
        },
        {
          "duration": 0.1258739999999996,
          "durationTicks": 36,
          "midi": 59,
          "name": "B3",
          "ticks": 5400,
          "time": 18.8811,
          "velocity": 0.6299212598425197
        },
        {
          "duration": 0.671327999999999,
          "durationTicks": 192,
          "midi": 57,
          "name": "A3",
          "ticks": 5460,
          "time": 19.09089,
          "velocity": 0.6299212598425197
        },
        {
          "duration": 0.5034959999999984,
          "durationTicks": 144,
          "midi": 64,
          "name": "E4",
          "ticks": 5580,
          "time": 19.51047,
          "velocity": 0.6299212598425197
        },
        {
          "duration": 0.3356640000000013,
          "durationTicks": 96,
          "midi": 59,
          "name": "B3",
          "ticks": 5640,
          "time": 19.72026,
          "velocity": 0.6299212598425197
        },
        {
          "duration": 0.5034960000000019,
          "durationTicks": 144,
          "midi": 56,
          "name": "G#3",
          "ticks": 5760,
          "time": 20.13984,
          "velocity": 0.6299212598425197
        },
        {
          "duration": 0.671327999999999,
          "durationTicks": 192,
          "midi": 64,
          "name": "E4",
          "ticks": 5820,
          "time": 20.34963,
          "velocity": 0.6299212598425197
        },
        {
          "duration": 0.6713280000000026,
          "durationTicks": 192,
          "midi": 59,
          "name": "B3",
          "ticks": 5880,
          "time": 20.55942,
          "velocity": 0.6299212598425197
        },
        {
          "duration": 0.671327999999999,
          "durationTicks": 192,
          "midi": 57,
          "name": "A3",
          "ticks": 5940,
          "time": 20.76921,
          "velocity": 0.6299212598425197
        },
        {
          "duration": 0.671327999999999,
          "durationTicks": 192,
          "midi": 64,
          "name": "E4",
          "ticks": 6060,
          "time": 21.18879,
          "velocity": 0.6299212598425197
        },
        {
          "duration": 0.10489500000000263,
          "durationTicks": 30,
          "midi": 59,
          "name": "B3",
          "ticks": 6120,
          "time": 21.39858,
          "velocity": 0.6299212598425197
        },
        {
          "duration": 0.020978999999996972,
          "durationTicks": 6,
          "midi": 57,
          "name": "A3",
          "ticks": 6180,
          "time": 21.60837,
          "velocity": 0.6299212598425197
        },
        {
          "duration": 0.5209785000000018,
          "durationTicks": 149,
          "midi": 59,
          "name": "B3",
          "ticks": 6187,
          "time": 21.6328455,
          "velocity": 0.6299212598425197
        },
        {
          "duration": 0.671327999999999,
          "durationTicks": 192,
          "midi": 64,
          "name": "E4",
          "ticks": 6300,
          "time": 22.02795,
          "velocity": 0.6299212598425197
        },
        {
          "duration": 0.1258739999999996,
          "durationTicks": 36,
          "midi": 59,
          "name": "B3",
          "ticks": 6360,
          "time": 22.23774,
          "velocity": 0.6299212598425197
        },
        {
          "duration": 0.020979000000000525,
          "durationTicks": 6,
          "midi": 59,
          "name": "B3",
          "ticks": 6420,
          "time": 22.44753,
          "velocity": 0.6299212598425197
        },
        {
          "duration": 0.7027965000000016,
          "durationTicks": 201,
          "midi": 61,
          "name": "C#4",
          "ticks": 6427,
          "time": 22.472005499999998,
          "velocity": 0.6299212598425197
        },
        {
          "duration": 0.5034960000000019,
          "durationTicks": 144,
          "midi": 64,
          "name": "E4",
          "ticks": 6540,
          "time": 22.86711,
          "velocity": 0.6299212598425197
        },
        {
          "duration": 0.33566399999999774,
          "durationTicks": 96,
          "midi": 59,
          "name": "B3",
          "ticks": 6600,
          "time": 23.076900000000002,
          "velocity": 0.6299212598425197
        },
        {
          "duration": 0.5034959999999984,
          "durationTicks": 144,
          "midi": 56,
          "name": "G#3",
          "ticks": 6720,
          "time": 23.496480000000002,
          "velocity": 0.6299212598425197
        },
        {
          "duration": 0.33566399999999774,
          "durationTicks": 96,
          "midi": 64,
          "name": "E4",
          "ticks": 6780,
          "time": 23.70627,
          "velocity": 0.6299212598425197
        },
        {
          "duration": 0.1678319999999971,
          "durationTicks": 48,
          "midi": 59,
          "name": "B3",
          "ticks": 6840,
          "time": 23.91606,
          "velocity": 0.6299212598425197
        },
        {
          "duration": 2.391606000000003,
          "durationTicks": 684,
          "midi": 64,
          "name": "E4",
          "ticks": 6900,
          "time": 24.12585,
          "velocity": 0.6299212598425197
        },
        {
          "duration": 2.391606000000003,
          "durationTicks": 684,
          "midi": 57,
          "name": "A3",
          "ticks": 6900,
          "time": 24.12585,
          "velocity": 0.6299212598425197
        },
        {
          "duration": 2.391606000000003,
          "durationTicks": 684,
          "midi": 59,
          "name": "B3",
          "ticks": 6900,
          "time": 24.12585,
          "velocity": 0.6299212598425197
        }
      ],
      "endOfTrackTicks": 7584
    },
    {
      "channel": 1,
      "controlChanges": {
        "7": [
          {
            "number": 7,
            "ticks": 0,
            "time": 0,
            "value": 1
          },
          {
            "number": 7,
            "ticks": 0,
            "time": 0,
            "value": 1
          },
          {
            "number": 7,
            "ticks": 0,
            "time": 0,
            "value": 1
          },
          {
            "number": 7,
            "ticks": 0,
            "time": 0,
            "value": 1
          },
          {
            "number": 7,
            "ticks": 0,
            "time": 0,
            "value": 1
          },
          {
            "number": 7,
            "ticks": 0,
            "time": 0,
            "value": 1
          },
          {
            "number": 7,
            "ticks": 0,
            "time": 0,
            "value": 1
          },
          {
            "number": 7,
            "ticks": 0,
            "time": 0,
            "value": 1
          }
        ]
      },
      "pitchBends": [],
      "instrument": {
        "family": "pipe",
        "number": 72,
        "name": "piccolo"
      },
      "name": "Vocals",
      "notes": [
        {
          "duration": 1.3426560000000016,
          "durationTicks": 384,
          "midi": 59,
          "name": "B3",
          "ticks": 3840,
          "time": 13.42656,
          "velocity": 0.25196850393700787
        },
        {
          "duration": 1.3426560000000034,
          "durationTicks": 384,
          "midi": 61,
          "name": "C#4",
          "ticks": 4320,
          "time": 15.10488,
          "velocity": 0.25196850393700787
        },
        {
          "duration": 1.3426560000000016,
          "durationTicks": 384,
          "midi": 64,
          "name": "E4",
          "ticks": 4800,
          "time": 16.7832,
          "velocity": 0.25196850393700787
        },
        {
          "duration": 1.3426560000000016,
          "durationTicks": 384,
          "midi": 66,
          "name": "F#4",
          "ticks": 5280,
          "time": 18.46152,
          "velocity": 0.25196850393700787
        },
        {
          "duration": 1.3426560000000016,
          "durationTicks": 384,
          "midi": 59,
          "name": "B3",
          "ticks": 5760,
          "time": 20.13984,
          "velocity": 0.25196850393700787
        },
        {
          "duration": 1.3426560000000016,
          "durationTicks": 384,
          "midi": 61,
          "name": "C#4",
          "ticks": 6240,
          "time": 21.81816,
          "velocity": 0.25196850393700787
        },
        {
          "duration": 1.3426560000000016,
          "durationTicks": 384,
          "midi": 59,
          "name": "B3",
          "ticks": 6720,
          "time": 23.496480000000002,
          "velocity": 0.25196850393700787
        },
        {
          "duration": 0.0419579999999975,
          "durationTicks": 12,
          "midi": 68,
          "name": "G#4",
          "ticks": 7680,
          "time": 26.85312,
          "velocity": 0.6299212598425197
        },
        {
          "duration": 0.13636350000000164,
          "durationTicks": 39,
          "midi": 71,
          "name": "B4",
          "ticks": 7695,
          "time": 26.9055675,
          "velocity": 0.6299212598425197
        },
        {
          "duration": 0.0419579999999975,
          "durationTicks": 12,
          "midi": 68,
          "name": "G#4",
          "ticks": 7800,
          "time": 27.2727,
          "velocity": 0.6299212598425197
        },
        {
          "duration": 0.13636350000000164,
          "durationTicks": 39,
          "midi": 71,
          "name": "B4",
          "ticks": 7815,
          "time": 27.3251475,
          "velocity": 0.6299212598425197
        },
        {
          "duration": 0.671327999999999,
          "durationTicks": 192,
          "midi": 59,
          "name": "B3",
          "ticks": 7920,
          "time": 27.69228,
          "velocity": 0.6299212598425197
        },
        {
          "duration": 0.33566399999999774,
          "durationTicks": 96,
          "midi": 61,
          "name": "C#4",
          "ticks": 8160,
          "time": 28.53144,
          "velocity": 0.6299212598425197
        },
        {
          "duration": 0.3356640000000013,
          "durationTicks": 96,
          "midi": 68,
          "name": "G#4",
          "ticks": 8280,
          "time": 28.95102,
          "velocity": 0.6299212598425197
        },
        {
          "duration": 0.671327999999999,
          "durationTicks": 192,
          "midi": 66,
          "name": "F#4",
          "ticks": 8400,
          "time": 29.3706,
          "velocity": 0.6299212598425197
        },
        {
          "duration": 0.0419579999999975,
          "durationTicks": 12,
          "midi": 68,
          "name": "G#4",
          "ticks": 8640,
          "time": 30.20976,
          "velocity": 0.6299212598425197
        },
        {
          "duration": 0.13636349999999808,
          "durationTicks": 39,
          "midi": 71,
          "name": "B4",
          "ticks": 8655,
          "time": 30.262207500000002,
          "velocity": 0.6299212598425197
        },
        {
          "duration": 0.0419579999999975,
          "durationTicks": 12,
          "midi": 68,
          "name": "G#4",
          "ticks": 8760,
          "time": 30.62934,
          "velocity": 0.6299212598425197
        },
        {
          "duration": 0.13636349999999808,
          "durationTicks": 39,
          "midi": 71,
          "name": "B4",
          "ticks": 8775,
          "time": 30.681787500000002,
          "velocity": 0.6299212598425197
        },
        {
          "duration": 0.3356640000000013,
          "durationTicks": 96,
          "midi": 64,
          "name": "E4",
          "ticks": 8880,
          "time": 31.04892,
          "velocity": 0.6299212598425197
        },
        {
          "duration": 0.16783200000000065,
          "durationTicks": 48,
          "midi": 61,
          "name": "C#4",
          "ticks": 9000,
          "time": 31.468500000000002,
          "velocity": 0.6299212598425197
        },
        {
          "duration": 0.1678320000000042,
          "durationTicks": 48,
          "midi": 59,
          "name": "B3",
          "ticks": 9060,
          "time": 31.67829,
          "velocity": 0.6299212598425197
        },
        {
          "duration": 0.3356639999999942,
          "durationTicks": 96,
          "midi": 61,
          "name": "C#4",
          "ticks": 9120,
          "time": 31.888080000000002,
          "velocity": 0.6299212598425197
        },
        {
          "duration": 0.3356640000000013,
          "durationTicks": 96,
          "midi": 68,
          "name": "G#4",
          "ticks": 9240,
          "time": 32.30766,
          "velocity": 0.6299212598425197
        },
        {
          "duration": 0.1678320000000042,
          "durationTicks": 48,
          "midi": 66,
          "name": "F#4",
          "ticks": 9360,
          "time": 32.72724,
          "velocity": 0.6299212598425197
        },
        {
          "duration": 0.1678320000000042,
          "durationTicks": 48,
          "midi": 64,
          "name": "E4",
          "ticks": 9420,
          "time": 32.93703,
          "velocity": 0.6299212598425197
        },
        {
          "duration": 0.1678320000000042,
          "durationTicks": 48,
          "midi": 61,
          "name": "C#4",
          "ticks": 9480,
          "time": 33.14682,
          "velocity": 0.6299212598425197
        },
        {
          "duration": 0.1678319999999971,
          "durationTicks": 48,
          "midi": 59,
          "name": "B3",
          "ticks": 9540,
          "time": 33.35661,
          "velocity": 0.6299212598425197
        },
        {
          "duration": 0.041957999999993945,
          "durationTicks": 12,
          "midi": 68,
          "name": "G#4",
          "ticks": 9600,
          "time": 33.5664,
          "velocity": 0.6299212598425197
        },
        {
          "duration": 0.13636350000000164,
          "durationTicks": 39,
          "midi": 71,
          "name": "B4",
          "ticks": 9615,
          "time": 33.6188475,
          "velocity": 0.6299212598425197
        },
        {
          "duration": 0.04195800000000105,
          "durationTicks": 12,
          "midi": 68,
          "name": "G#4",
          "ticks": 9720,
          "time": 33.98598,
          "velocity": 0.6299212598425197
        },
        {
          "duration": 0.13636350000000164,
          "durationTicks": 39,
          "midi": 71,
          "name": "B4",
          "ticks": 9735,
          "time": 34.0384275,
          "velocity": 0.6299212598425197
        },
        {
          "duration": 0.6713279999999955,
          "durationTicks": 192,
          "midi": 59,
          "name": "B3",
          "ticks": 9840,
          "time": 34.40556,
          "velocity": 0.6299212598425197
        },
        {
          "duration": 0.3356640000000013,
          "durationTicks": 96,
          "midi": 61,
          "name": "C#4",
          "ticks": 10080,
          "time": 35.24472,
          "velocity": 0.6299212598425197
        },
        {
          "duration": 0.3356640000000013,
          "durationTicks": 96,
          "midi": 68,
          "name": "G#4",
          "ticks": 10200,
          "time": 35.6643,
          "velocity": 0.6299212598425197
        },
        {
          "duration": 0.6713279999999955,
          "durationTicks": 192,
          "midi": 66,
          "name": "F#4",
          "ticks": 10320,
          "time": 36.08388,
          "velocity": 0.6299212598425197
        },
        {
          "duration": 0.1678320000000042,
          "durationTicks": 48,
          "midi": 68,
          "name": "G#4",
          "ticks": 10560,
          "time": 36.92304,
          "velocity": 0.6299212598425197
        },
        {
          "duration": 0.1678319999999971,
          "durationTicks": 48,
          "midi": 71,
          "name": "B4",
          "ticks": 10680,
          "time": 37.342620000000004,
          "velocity": 0.6299212598425197
        },
        {
          "duration": 0.3356640000000013,
          "durationTicks": 96,
          "midi": 64,
          "name": "E4",
          "ticks": 10800,
          "time": 37.7622,
          "velocity": 0.6299212598425197
        },
        {
          "duration": 0.1678319999999971,
          "durationTicks": 48,
          "midi": 61,
          "name": "C#4",
          "ticks": 10920,
          "time": 38.18178,
          "velocity": 0.6299212598425197
        },
        {
          "duration": 0.1678320000000042,
          "durationTicks": 48,
          "midi": 59,
          "name": "B3",
          "ticks": 10980,
          "time": 38.39157,
          "velocity": 0.6299212598425197
        },
        {
          "duration": 0.1678320000000042,
          "durationTicks": 48,
          "midi": 68,
          "name": "G#4",
          "ticks": 11040,
          "time": 38.60136,
          "velocity": 0.6299212598425197
        },
        {
          "duration": 0.1678319999999971,
          "durationTicks": 48,
          "midi": 71,
          "name": "B4",
          "ticks": 11160,
          "time": 39.02094,
          "velocity": 0.6299212598425197
        },
        {
          "duration": 0.6713280000000026,
          "durationTicks": 192,
          "midi": 64,
          "name": "E4",
          "ticks": 11280,
          "time": 39.44052,
          "velocity": 0.6299212598425197
        },
        {
          "duration": 0.1678320000000042,
          "durationTicks": 48,
          "midi": 68,
          "name": "G#4",
          "ticks": 11520,
          "time": 40.27968,
          "velocity": 0.4409448818897638
        },
        {
          "duration": 0.1678319999999971,
          "durationTicks": 48,
          "midi": 71,
          "name": "B4",
          "ticks": 11580,
          "time": 40.489470000000004,
          "velocity": 0.4409448818897638
        },
        {
          "duration": 0.1678320000000042,
          "durationTicks": 48,
          "midi": 68,
          "name": "G#4",
          "ticks": 11640,
          "time": 40.69926,
          "velocity": 0.4409448818897638
        },
        {
          "duration": 2.391606000000003,
          "durationTicks": 684,
          "midi": 66,
          "name": "F#4",
          "ticks": 11700,
          "time": 40.90905,
          "velocity": 0.4409448818897638
        },
        {
          "duration": 0.1678320000000042,
          "durationTicks": 48,
          "midi": 64,
          "name": "E4",
          "ticks": 12480,
          "time": 43.63632,
          "velocity": 0.4409448818897638
        },
        {
          "duration": 0.1678319999999971,
          "durationTicks": 48,
          "midi": 66,
          "name": "F#4",
          "ticks": 12540,
          "time": 43.84611,
          "velocity": 0.4409448818897638
        },
        {
          "duration": 0.1678320000000042,
          "durationTicks": 48,
          "midi": 64,
          "name": "E4",
          "ticks": 12600,
          "time": 44.0559,
          "velocity": 0.4409448818897638
        },
        {
          "duration": 2.391606000000003,
          "durationTicks": 684,
          "midi": 66,
          "name": "F#4",
          "ticks": 12660,
          "time": 44.26569,
          "velocity": 0.4409448818897638
        },
        {
          "duration": 0.1678319999999971,
          "durationTicks": 48,
          "midi": 64,
          "name": "E4",
          "ticks": 13440,
          "time": 46.992960000000004,
          "velocity": 0.4409448818897638
        },
        {
          "duration": 0.1678320000000042,
          "durationTicks": 48,
          "midi": 61,
          "name": "C#4",
          "ticks": 13500,
          "time": 47.20275,
          "velocity": 0.4409448818897638
        },
        {
          "duration": 0.1678320000000042,
          "durationTicks": 48,
          "midi": 68,
          "name": "G#4",
          "ticks": 13560,
          "time": 47.41254,
          "velocity": 0.4409448818897638
        },
        {
          "duration": 2.223773999999999,
          "durationTicks": 636,
          "midi": 66,
          "name": "F#4",
          "ticks": 13620,
          "time": 47.62233,
          "velocity": 0.4409448818897638
        },
        {
          "duration": 0.083915999999995,
          "durationTicks": 24,
          "midi": 64,
          "name": "E4",
          "ticks": 14340,
          "time": 50.139810000000004,
          "velocity": 0.4409448818897638
        },
        {
          "duration": 0.0839160000000021,
          "durationTicks": 24,
          "midi": 61,
          "name": "C#4",
          "ticks": 14370,
          "time": 50.244705,
          "velocity": 0.4409448818897638
        },
        {
          "duration": 0.5034959999999984,
          "durationTicks": 144,
          "midi": 59,
          "name": "B3",
          "ticks": 14400,
          "time": 50.3496,
          "velocity": 0.4409448818897638
        },
        {
          "duration": 2.391605999999996,
          "durationTicks": 684,
          "midi": 64,
          "name": "E4",
          "ticks": 14580,
          "time": 50.978970000000004,
          "velocity": 0.4409448818897638
        },
        {
          "duration": 0.1678320000000042,
          "durationTicks": 48,
          "midi": 68,
          "name": "G#4",
          "ticks": 15360,
          "time": 53.70624,
          "velocity": 0.4409448818897638
        },
        {
          "duration": 0.1678320000000042,
          "durationTicks": 48,
          "midi": 71,
          "name": "B4",
          "ticks": 15420,
          "time": 53.91603,
          "velocity": 0.4409448818897638
        },
        {
          "duration": 0.1678319999999971,
          "durationTicks": 48,
          "midi": 68,
          "name": "G#4",
          "ticks": 15480,
          "time": 54.125820000000004,
          "velocity": 0.4409448818897638
        },
        {
          "duration": 2.391605999999996,
          "durationTicks": 684,
          "midi": 66,
          "name": "F#4",
          "ticks": 15540,
          "time": 54.33561,
          "velocity": 0.4409448818897638
        },
        {
          "duration": 0.1678320000000042,
          "durationTicks": 48,
          "midi": 64,
          "name": "E4",
          "ticks": 16320,
          "time": 57.06288,
          "velocity": 0.4409448818897638
        },
        {
          "duration": 0.1678320000000042,
          "durationTicks": 48,
          "midi": 66,
          "name": "F#4",
          "ticks": 16380,
          "time": 57.27267,
          "velocity": 0.4409448818897638
        },
        {
          "duration": 0.1678319999999971,
          "durationTicks": 48,
          "midi": 64,
          "name": "E4",
          "ticks": 16440,
          "time": 57.48246,
          "velocity": 0.4409448818897638
        },
        {
          "duration": 2.391605999999996,
          "durationTicks": 684,
          "midi": 66,
          "name": "F#4",
          "ticks": 16500,
          "time": 57.69225,
          "velocity": 0.4409448818897638
        },
        {
          "duration": 0.1678320000000042,
          "durationTicks": 48,
          "midi": 64,
          "name": "E4",
          "ticks": 17280,
          "time": 60.41952,
          "velocity": 0.4409448818897638
        },
        {
          "duration": 0.1678319999999971,
          "durationTicks": 48,
          "midi": 61,
          "name": "C#4",
          "ticks": 17340,
          "time": 60.629310000000004,
          "velocity": 0.4409448818897638
        },
        {
          "duration": 0.1678320000000042,
          "durationTicks": 48,
          "midi": 68,
          "name": "G#4",
          "ticks": 17400,
          "time": 60.8391,
          "velocity": 0.4409448818897638
        },
        {
          "duration": 2.223774000000006,
          "durationTicks": 636,
          "midi": 66,
          "name": "F#4",
          "ticks": 17460,
          "time": 61.04889,
          "velocity": 0.4409448818897638
        },
        {
          "duration": 0.083915999999995,
          "durationTicks": 24,
          "midi": 64,
          "name": "E4",
          "ticks": 18180,
          "time": 63.56637,
          "velocity": 0.4409448818897638
        },
        {
          "duration": 0.083915999999995,
          "durationTicks": 24,
          "midi": 61,
          "name": "C#4",
          "ticks": 18210,
          "time": 63.671265,
          "velocity": 0.4409448818897638
        },
        {
          "duration": 0.5034959999999984,
          "durationTicks": 144,
          "midi": 59,
          "name": "B3",
          "ticks": 18240,
          "time": 63.776160000000004,
          "velocity": 0.4409448818897638
        },
        {
          "duration": 2.391605999999996,
          "durationTicks": 684,
          "midi": 64,
          "name": "E4",
          "ticks": 18420,
          "time": 64.40553,
          "velocity": 0.4409448818897638
        },
        {
          "duration": 0.041957999999993945,
          "durationTicks": 12,
          "midi": 68,
          "name": "G#4",
          "ticks": 19200,
          "time": 67.1328,
          "velocity": 0.6299212598425197
        },
        {
          "duration": 0.13636349999998743,
          "durationTicks": 39,
          "midi": 71,
          "name": "B4",
          "ticks": 19215,
          "time": 67.1852475,
          "velocity": 0.6299212598425197
        },
        {
          "duration": 0.041957999999993945,
          "durationTicks": 12,
          "midi": 68,
          "name": "G#4",
          "ticks": 19320,
          "time": 67.55238,
          "velocity": 0.6299212598425197
        },
        {
          "duration": 0.13636350000000164,
          "durationTicks": 39,
          "midi": 71,
          "name": "B4",
          "ticks": 19335,
          "time": 67.6048275,
          "velocity": 0.6299212598425197
        },
        {
          "duration": 0.6713280000000026,
          "durationTicks": 192,
          "midi": 59,
          "name": "B3",
          "ticks": 19440,
          "time": 67.97196,
          "velocity": 0.6299212598425197
        },
        {
          "duration": 0.3356640000000084,
          "durationTicks": 96,
          "midi": 61,
          "name": "C#4",
          "ticks": 19680,
          "time": 68.81112,
          "velocity": 0.6299212598425197
        },
        {
          "duration": 0.3356640000000084,
          "durationTicks": 96,
          "midi": 68,
          "name": "G#4",
          "ticks": 19800,
          "time": 69.2307,
          "velocity": 0.6299212598425197
        },
        {
          "duration": 0.6713280000000026,
          "durationTicks": 192,
          "midi": 66,
          "name": "F#4",
          "ticks": 19920,
          "time": 69.65028,
          "velocity": 0.6299212598425197
        },
        {
          "duration": 0.041957999999993945,
          "durationTicks": 12,
          "midi": 68,
          "name": "G#4",
          "ticks": 20160,
          "time": 70.48944,
          "velocity": 0.6299212598425197
        },
        {
          "duration": 0.13636350000000164,
          "durationTicks": 39,
          "midi": 71,
          "name": "B4",
          "ticks": 20175,
          "time": 70.5418875,
          "velocity": 0.6299212598425197
        },
        {
          "duration": 0.041957999999993945,
          "durationTicks": 12,
          "midi": 68,
          "name": "G#4",
          "ticks": 20280,
          "time": 70.90902,
          "velocity": 0.6299212598425197
        },
        {
          "duration": 0.13636350000000164,
          "durationTicks": 39,
          "midi": 71,
          "name": "B4",
          "ticks": 20295,
          "time": 70.9614675,
          "velocity": 0.6299212598425197
        },
        {
          "duration": 0.3356640000000084,
          "durationTicks": 96,
          "midi": 64,
          "name": "E4",
          "ticks": 20400,
          "time": 71.3286,
          "velocity": 0.6299212598425197
        },
        {
          "duration": 0.1678320000000042,
          "durationTicks": 48,
          "midi": 61,
          "name": "C#4",
          "ticks": 20520,
          "time": 71.74818,
          "velocity": 0.6299212598425197
        },
        {
          "duration": 0.1678320000000042,
          "durationTicks": 48,
          "midi": 59,
          "name": "B3",
          "ticks": 20580,
          "time": 71.95797,
          "velocity": 0.6299212598425197
        },
        {
          "duration": 0.3356640000000084,
          "durationTicks": 96,
          "midi": 61,
          "name": "C#4",
          "ticks": 20640,
          "time": 72.16776,
          "velocity": 0.6299212598425197
        },
        {
          "duration": 0.3356640000000084,
          "durationTicks": 96,
          "midi": 68,
          "name": "G#4",
          "ticks": 20760,
          "time": 72.58734,
          "velocity": 0.6299212598425197
        },
        {
          "duration": 0.16783199999999,
          "durationTicks": 48,
          "midi": 66,
          "name": "F#4",
          "ticks": 20880,
          "time": 73.00692000000001,
          "velocity": 0.6299212598425197
        },
        {
          "duration": 0.1678320000000042,
          "durationTicks": 48,
          "midi": 64,
          "name": "E4",
          "ticks": 20940,
          "time": 73.21671,
          "velocity": 0.6299212598425197
        },
        {
          "duration": 0.1678320000000042,
          "durationTicks": 48,
          "midi": 61,
          "name": "C#4",
          "ticks": 21000,
          "time": 73.4265,
          "velocity": 0.6299212598425197
        },
        {
          "duration": 0.1678320000000042,
          "durationTicks": 48,
          "midi": 59,
          "name": "B3",
          "ticks": 21060,
          "time": 73.63629,
          "velocity": 0.6299212598425197
        },
        {
          "duration": 0.041957999999993945,
          "durationTicks": 12,
          "midi": 68,
          "name": "G#4",
          "ticks": 21120,
          "time": 73.84608,
          "velocity": 0.6299212598425197
        },
        {
          "duration": 0.13636350000000164,
          "durationTicks": 39,
          "midi": 71,
          "name": "B4",
          "ticks": 21135,
          "time": 73.8985275,
          "velocity": 0.6299212598425197
        },
        {
          "duration": 0.041958000000008155,
          "durationTicks": 12,
          "midi": 68,
          "name": "G#4",
          "ticks": 21240,
          "time": 74.26566,
          "velocity": 0.6299212598425197
        },
        {
          "duration": 0.13636350000000164,
          "durationTicks": 39,
          "midi": 71,
          "name": "B4",
          "ticks": 21255,
          "time": 74.3181075,
          "velocity": 0.6299212598425197
        },
        {
          "duration": 0.6713279999999884,
          "durationTicks": 192,
          "midi": 59,
          "name": "B3",
          "ticks": 21360,
          "time": 74.68524000000001,
          "velocity": 0.6299212598425197
        },
        {
          "duration": 0.3356640000000084,
          "durationTicks": 96,
          "midi": 61,
          "name": "C#4",
          "ticks": 21600,
          "time": 75.5244,
          "velocity": 0.6299212598425197
        },
        {
          "duration": 0.3356640000000084,
          "durationTicks": 96,
          "midi": 68,
          "name": "G#4",
          "ticks": 21720,
          "time": 75.94398,
          "velocity": 0.6299212598425197
        },
        {
          "duration": 0.6713279999999884,
          "durationTicks": 192,
          "midi": 66,
          "name": "F#4",
          "ticks": 21840,
          "time": 76.36356,
          "velocity": 0.6299212598425197
        },
        {
          "duration": 0.1678320000000042,
          "durationTicks": 48,
          "midi": 68,
          "name": "G#4",
          "ticks": 22080,
          "time": 77.20272,
          "velocity": 0.6299212598425197
        },
        {
          "duration": 0.1678320000000042,
          "durationTicks": 48,
          "midi": 71,
          "name": "B4",
          "ticks": 22200,
          "time": 77.6223,
          "velocity": 0.6299212598425197
        },
        {
          "duration": 0.3356639999999942,
          "durationTicks": 96,
          "midi": 64,
          "name": "E4",
          "ticks": 22320,
          "time": 78.04188,
          "velocity": 0.6299212598425197
        },
        {
          "duration": 0.1678320000000042,
          "durationTicks": 48,
          "midi": 61,
          "name": "C#4",
          "ticks": 22440,
          "time": 78.46146,
          "velocity": 0.6299212598425197
        },
        {
          "duration": 0.1678320000000042,
          "durationTicks": 48,
          "midi": 59,
          "name": "B3",
          "ticks": 22500,
          "time": 78.67125,
          "velocity": 0.6299212598425197
        },
        {
          "duration": 0.3356640000000084,
          "durationTicks": 96,
          "midi": 61,
          "name": "C#4",
          "ticks": 22560,
          "time": 78.88104,
          "velocity": 0.6299212598425197
        },
        {
          "duration": 0.3356640000000084,
          "durationTicks": 96,
          "midi": 68,
          "name": "G#4",
          "ticks": 22680,
          "time": 79.30062,
          "velocity": 0.6299212598425197
        },
        {
          "duration": 0.1678320000000042,
          "durationTicks": 48,
          "midi": 66,
          "name": "F#4",
          "ticks": 22800,
          "time": 79.7202,
          "velocity": 0.6299212598425197
        },
        {
          "duration": 0.1678320000000042,
          "durationTicks": 48,
          "midi": 64,
          "name": "E4",
          "ticks": 22860,
          "time": 79.92999,
          "velocity": 0.6299212598425197
        },
        {
          "duration": 0.1678320000000042,
          "durationTicks": 48,
          "midi": 61,
          "name": "C#4",
          "ticks": 22920,
          "time": 80.13978,
          "velocity": 0.6299212598425197
        },
        {
          "duration": 0.1678320000000042,
          "durationTicks": 48,
          "midi": 59,
          "name": "B3",
          "ticks": 22980,
          "time": 80.34957,
          "velocity": 0.6299212598425197
        },
        {
          "duration": 0.3356640000000084,
          "durationTicks": 96,
          "midi": 71,
          "name": "B4",
          "ticks": 23040,
          "time": 80.55936,
          "velocity": 0.6299212598425197
        },
        {
          "duration": 0.16783199999999,
          "durationTicks": 48,
          "midi": 68,
          "name": "G#4",
          "ticks": 23160,
          "time": 80.97894000000001,
          "velocity": 0.6299212598425197
        },
        {
          "duration": 0.1678320000000042,
          "durationTicks": 48,
          "midi": 66,
          "name": "F#4",
          "ticks": 23220,
          "time": 81.18873,
          "velocity": 0.6299212598425197
        },
        {
          "duration": 0.3356640000000084,
          "durationTicks": 96,
          "midi": 64,
          "name": "E4",
          "ticks": 23280,
          "time": 81.39852,
          "velocity": 0.6299212598425197
        },
        {
          "duration": 1.7622360000000015,
          "durationTicks": 504,
          "midi": 66,
          "name": "F#4",
          "ticks": 23400,
          "time": 81.8181,
          "velocity": 0.6299212598425197
        },
        {
          "duration": 0.3356640000000084,
          "durationTicks": 96,
          "midi": 64,
          "name": "E4",
          "ticks": 24000,
          "time": 83.916,
          "velocity": 0.6299212598425197
        },
        {
          "duration": 0.16783199999999,
          "durationTicks": 48,
          "midi": 68,
          "name": "G#4",
          "ticks": 24120,
          "time": 84.33558000000001,
          "velocity": 0.6299212598425197
        },
        {
          "duration": 0.1678320000000042,
          "durationTicks": 48,
          "midi": 64,
          "name": "E4",
          "ticks": 24180,
          "time": 84.54537,
          "velocity": 0.6299212598425197
        },
        {
          "duration": 0.1678320000000042,
          "durationTicks": 48,
          "midi": 61,
          "name": "C#4",
          "ticks": 24240,
          "time": 84.75516,
          "velocity": 0.6299212598425197
        },
        {
          "duration": 0.1678320000000042,
          "durationTicks": 48,
          "midi": 59,
          "name": "B3",
          "ticks": 24300,
          "time": 84.96495,
          "velocity": 0.6299212598425197
        },
        {
          "duration": 1.7622360000000015,
          "durationTicks": 504,
          "midi": 64,
          "name": "E4",
          "ticks": 24360,
          "time": 85.17474,
          "velocity": 0.6299212598425197
        },
        {
          "duration": 0.3356640000000084,
          "durationTicks": 96,
          "midi": 71,
          "name": "B4",
          "ticks": 24960,
          "time": 87.27264,
          "velocity": 0.6299212598425197
        },
        {
          "duration": 0.1678320000000042,
          "durationTicks": 48,
          "midi": 68,
          "name": "G#4",
          "ticks": 25080,
          "time": 87.69222,
          "velocity": 0.6299212598425197
        },
        {
          "duration": 0.1678320000000042,
          "durationTicks": 48,
          "midi": 66,
          "name": "F#4",
          "ticks": 25140,
          "time": 87.90201,
          "velocity": 0.6299212598425197
        },
        {
          "duration": 0.3356640000000084,
          "durationTicks": 96,
          "midi": 64,
          "name": "E4",
          "ticks": 25200,
          "time": 88.1118,
          "velocity": 0.6299212598425197
        },
        {
          "duration": 1.7622360000000015,
          "durationTicks": 504,
          "midi": 66,
          "name": "F#4",
          "ticks": 25320,
          "time": 88.53138,
          "velocity": 0.6299212598425197
        },
        {
          "duration": 0.3356639999999942,
          "durationTicks": 96,
          "midi": 64,
          "name": "E4",
          "ticks": 25920,
          "time": 90.62928000000001,
          "velocity": 0.6299212598425197
        },
        {
          "duration": 0.1678320000000042,
          "durationTicks": 48,
          "midi": 68,
          "name": "G#4",
          "ticks": 26040,
          "time": 91.04886,
          "velocity": 0.6299212598425197
        },
        {
          "duration": 0.1678320000000042,
          "durationTicks": 48,
          "midi": 64,
          "name": "E4",
          "ticks": 26100,
          "time": 91.25865,
          "velocity": 0.6299212598425197
        },
        {
          "duration": 0.1678320000000042,
          "durationTicks": 48,
          "midi": 61,
          "name": "C#4",
          "ticks": 26160,
          "time": 91.46844,
          "velocity": 0.6299212598425197
        },
        {
          "duration": 0.1678320000000042,
          "durationTicks": 48,
          "midi": 59,
          "name": "B3",
          "ticks": 26220,
          "time": 91.67823,
          "velocity": 0.6299212598425197
        },
        {
          "duration": 1.7622360000000015,
          "durationTicks": 504,
          "midi": 64,
          "name": "E4",
          "ticks": 26280,
          "time": 91.88802,
          "velocity": 0.6299212598425197
        },
        {
          "duration": 0.041957999999993945,
          "durationTicks": 12,
          "midi": 68,
          "name": "G#4",
          "ticks": 26880,
          "time": 93.98592000000001,
          "velocity": 0.6299212598425197
        },
        {
          "duration": 0.13636349999998743,
          "durationTicks": 39,
          "midi": 71,
          "name": "B4",
          "ticks": 26895,
          "time": 94.0383675,
          "velocity": 0.6299212598425197
        },
        {
          "duration": 0.041957999999993945,
          "durationTicks": 12,
          "midi": 68,
          "name": "G#4",
          "ticks": 27000,
          "time": 94.4055,
          "velocity": 0.6299212598425197
        },
        {
          "duration": 0.13636349999998743,
          "durationTicks": 39,
          "midi": 71,
          "name": "B4",
          "ticks": 27015,
          "time": 94.4579475,
          "velocity": 0.6299212598425197
        },
        {
          "duration": 0.6713280000000026,
          "durationTicks": 192,
          "midi": 59,
          "name": "B3",
          "ticks": 27120,
          "time": 94.82508,
          "velocity": 0.6299212598425197
        },
        {
          "duration": 0.3356639999999942,
          "durationTicks": 96,
          "midi": 61,
          "name": "C#4",
          "ticks": 27360,
          "time": 95.66424,
          "velocity": 0.6299212598425197
        },
        {
          "duration": 0.3356640000000084,
          "durationTicks": 96,
          "midi": 68,
          "name": "G#4",
          "ticks": 27480,
          "time": 96.08382,
          "velocity": 0.6299212598425197
        },
        {
          "duration": 0.6713280000000026,
          "durationTicks": 192,
          "midi": 66,
          "name": "F#4",
          "ticks": 27600,
          "time": 96.5034,
          "velocity": 0.6299212598425197
        },
        {
          "duration": 0.041957999999993945,
          "durationTicks": 12,
          "midi": 68,
          "name": "G#4",
          "ticks": 27840,
          "time": 97.34256,
          "velocity": 0.6299212598425197
        },
        {
          "duration": 0.13636349999998743,
          "durationTicks": 39,
          "midi": 71,
          "name": "B4",
          "ticks": 27855,
          "time": 97.3950075,
          "velocity": 0.6299212598425197
        },
        {
          "duration": 0.041957999999993945,
          "durationTicks": 12,
          "midi": 68,
          "name": "G#4",
          "ticks": 27960,
          "time": 97.76214,
          "velocity": 0.6299212598425197
        },
        {
          "duration": 0.13636350000000164,
          "durationTicks": 39,
          "midi": 71,
          "name": "B4",
          "ticks": 27975,
          "time": 97.8145875,
          "velocity": 0.6299212598425197
        },
        {
          "duration": 0.3356640000000084,
          "durationTicks": 96,
          "midi": 64,
          "name": "E4",
          "ticks": 28080,
          "time": 98.18172,
          "velocity": 0.6299212598425197
        },
        {
          "duration": 0.16783199999999,
          "durationTicks": 48,
          "midi": 61,
          "name": "C#4",
          "ticks": 28200,
          "time": 98.60130000000001,
          "velocity": 0.6299212598425197
        },
        {
          "duration": 0.1678320000000042,
          "durationTicks": 48,
          "midi": 59,
          "name": "B3",
          "ticks": 28260,
          "time": 98.81109000000001,
          "velocity": 0.6299212598425197
        },
        {
          "duration": 0.3356640000000084,
          "durationTicks": 96,
          "midi": 61,
          "name": "C#4",
          "ticks": 28320,
          "time": 99.02088,
          "velocity": 0.6299212598425197
        },
        {
          "duration": 0.3356640000000084,
          "durationTicks": 96,
          "midi": 68,
          "name": "G#4",
          "ticks": 28440,
          "time": 99.44046,
          "velocity": 0.6299212598425197
        },
        {
          "duration": 0.1678320000000042,
          "durationTicks": 48,
          "midi": 66,
          "name": "F#4",
          "ticks": 28560,
          "time": 99.86004,
          "velocity": 0.6299212598425197
        },
        {
          "duration": 0.1678320000000042,
          "durationTicks": 48,
          "midi": 64,
          "name": "E4",
          "ticks": 28620,
          "time": 100.06983,
          "velocity": 0.6299212598425197
        },
        {
          "duration": 0.16783199999999,
          "durationTicks": 48,
          "midi": 61,
          "name": "C#4",
          "ticks": 28680,
          "time": 100.27962000000001,
          "velocity": 0.6299212598425197
        },
        {
          "duration": 0.1678320000000042,
          "durationTicks": 48,
          "midi": 59,
          "name": "B3",
          "ticks": 28740,
          "time": 100.48941,
          "velocity": 0.6299212598425197
        },
        {
          "duration": 0.041957999999993945,
          "durationTicks": 12,
          "midi": 68,
          "name": "G#4",
          "ticks": 28800,
          "time": 100.6992,
          "velocity": 0.6299212598425197
        },
        {
          "duration": 0.13636349999998743,
          "durationTicks": 39,
          "midi": 71,
          "name": "B4",
          "ticks": 28815,
          "time": 100.7516475,
          "velocity": 0.6299212598425197
        },
        {
          "duration": 0.041957999999993945,
          "durationTicks": 12,
          "midi": 68,
          "name": "G#4",
          "ticks": 28920,
          "time": 101.11878,
          "velocity": 0.6299212598425197
        },
        {
          "duration": 0.13636350000000164,
          "durationTicks": 39,
          "midi": 71,
          "name": "B4",
          "ticks": 28935,
          "time": 101.1712275,
          "velocity": 0.6299212598425197
        },
        {
          "duration": 0.6713280000000026,
          "durationTicks": 192,
          "midi": 59,
          "name": "B3",
          "ticks": 29040,
          "time": 101.53836,
          "velocity": 0.6299212598425197
        },
        {
          "duration": 0.3356640000000084,
          "durationTicks": 96,
          "midi": 61,
          "name": "C#4",
          "ticks": 29280,
          "time": 102.37752,
          "velocity": 0.6299212598425197
        },
        {
          "duration": 0.3356640000000084,
          "durationTicks": 96,
          "midi": 68,
          "name": "G#4",
          "ticks": 29400,
          "time": 102.7971,
          "velocity": 0.6299212598425197
        },
        {
          "duration": 0.6713280000000026,
          "durationTicks": 192,
          "midi": 66,
          "name": "F#4",
          "ticks": 29520,
          "time": 103.21668,
          "velocity": 0.6299212598425197
        },
        {
          "duration": 0.1678320000000042,
          "durationTicks": 48,
          "midi": 68,
          "name": "G#4",
          "ticks": 29760,
          "time": 104.05584,
          "velocity": 0.6299212598425197
        },
        {
          "duration": 0.1678320000000042,
          "durationTicks": 48,
          "midi": 71,
          "name": "B4",
          "ticks": 29880,
          "time": 104.47542,
          "velocity": 0.6299212598425197
        },
        {
          "duration": 0.3356640000000084,
          "durationTicks": 96,
          "midi": 64,
          "name": "E4",
          "ticks": 30000,
          "time": 104.895,
          "velocity": 0.6299212598425197
        },
        {
          "duration": 0.1678320000000042,
          "durationTicks": 48,
          "midi": 61,
          "name": "C#4",
          "ticks": 30120,
          "time": 105.31458,
          "velocity": 0.6299212598425197
        },
        {
          "duration": 0.1678320000000042,
          "durationTicks": 48,
          "midi": 59,
          "name": "B3",
          "ticks": 30180,
          "time": 105.52437,
          "velocity": 0.6299212598425197
        },
        {
          "duration": 0.1678320000000042,
          "durationTicks": 48,
          "midi": 68,
          "name": "G#4",
          "ticks": 30240,
          "time": 105.73416,
          "velocity": 0.6299212598425197
        },
        {
          "duration": 0.1678320000000042,
          "durationTicks": 48,
          "midi": 71,
          "name": "B4",
          "ticks": 30360,
          "time": 106.15374,
          "velocity": 0.6299212598425197
        },
        {
          "duration": 0.6713280000000026,
          "durationTicks": 192,
          "midi": 64,
          "name": "E4",
          "ticks": 30480,
          "time": 106.57332,
          "velocity": 0.6299212598425197
        },
        {
          "duration": 0.16783199999999,
          "durationTicks": 48,
          "midi": 61,
          "name": "C#4",
          "ticks": 31440,
          "time": 109.92996000000001,
          "velocity": 0.6299212598425197
        },
        {
          "duration": 0.16783199999999,
          "durationTicks": 48,
          "midi": 68,
          "name": "G#4",
          "ticks": 31560,
          "time": 110.34954,
          "velocity": 0.6299212598425197
        },
        {
          "duration": 3.0209759999999903,
          "durationTicks": 864,
          "midi": 66,
          "name": "F#4",
          "ticks": 31680,
          "time": 110.76912,
          "velocity": 0.6299212598425197
        },
        {
          "duration": 0.1678320000000042,
          "durationTicks": 48,
          "midi": 68,
          "name": "G#4",
          "ticks": 35520,
          "time": 124.19568,
          "velocity": 0.4409448818897638
        },
        {
          "duration": 0.16783199999999,
          "durationTicks": 48,
          "midi": 71,
          "name": "B4",
          "ticks": 35580,
          "time": 124.40547000000001,
          "velocity": 0.4409448818897638
        },
        {
          "duration": 0.16783199999999,
          "durationTicks": 48,
          "midi": 68,
          "name": "G#4",
          "ticks": 35640,
          "time": 124.61526,
          "velocity": 0.4409448818897638
        },
        {
          "duration": 2.391605999999996,
          "durationTicks": 684,
          "midi": 66,
          "name": "F#4",
          "ticks": 35700,
          "time": 124.82505,
          "velocity": 0.4409448818897638
        },
        {
          "duration": 0.16783199999999,
          "durationTicks": 48,
          "midi": 64,
          "name": "E4",
          "ticks": 36480,
          "time": 127.55232000000001,
          "velocity": 0.4409448818897638
        },
        {
          "duration": 0.16783199999999,
          "durationTicks": 48,
          "midi": 66,
          "name": "F#4",
          "ticks": 36540,
          "time": 127.76211,
          "velocity": 0.4409448818897638
        },
        {
          "duration": 0.16783199999997578,
          "durationTicks": 48,
          "midi": 64,
          "name": "E4",
          "ticks": 36600,
          "time": 127.9719,
          "velocity": 0.4409448818897638
        },
        {
          "duration": 2.391605999999996,
          "durationTicks": 684,
          "midi": 66,
          "name": "F#4",
          "ticks": 36660,
          "time": 128.18169,
          "velocity": 0.4409448818897638
        },
        {
          "duration": 0.16783199999997578,
          "durationTicks": 48,
          "midi": 64,
          "name": "E4",
          "ticks": 37440,
          "time": 130.90896,
          "velocity": 0.4409448818897638
        },
        {
          "duration": 0.16783199999997578,
          "durationTicks": 48,
          "midi": 61,
          "name": "C#4",
          "ticks": 37500,
          "time": 131.11875,
          "velocity": 0.4409448818897638
        },
        {
          "duration": 0.16783199999997578,
          "durationTicks": 48,
          "midi": 68,
          "name": "G#4",
          "ticks": 37560,
          "time": 131.32854,
          "velocity": 0.4409448818897638
        },
        {
          "duration": 2.2237739999999917,
          "durationTicks": 636,
          "midi": 66,
          "name": "F#4",
          "ticks": 37620,
          "time": 131.53833,
          "velocity": 0.4409448818897638
        },
        {
          "duration": 0.08391599999998789,
          "durationTicks": 24,
          "midi": 64,
          "name": "E4",
          "ticks": 38340,
          "time": 134.05581,
          "velocity": 0.4409448818897638
        },
        {
          "duration": 0.08391599999998789,
          "durationTicks": 24,
          "midi": 61,
          "name": "C#4",
          "ticks": 38370,
          "time": 134.160705,
          "velocity": 0.4409448818897638
        },
        {
          "duration": 0.5034959999999842,
          "durationTicks": 144,
          "midi": 59,
          "name": "B3",
          "ticks": 38400,
          "time": 134.2656,
          "velocity": 0.4409448818897638
        },
        {
          "duration": 2.391605999999996,
          "durationTicks": 684,
          "midi": 64,
          "name": "E4",
          "ticks": 38580,
          "time": 134.89497,
          "velocity": 0.4409448818897638
        },
        {
          "duration": 0.16783199999997578,
          "durationTicks": 48,
          "midi": 68,
          "name": "G#4",
          "ticks": 39360,
          "time": 137.62224,
          "velocity": 0.4409448818897638
        },
        {
          "duration": 0.1678320000000042,
          "durationTicks": 48,
          "midi": 71,
          "name": "B4",
          "ticks": 39420,
          "time": 137.83203,
          "velocity": 0.4409448818897638
        },
        {
          "duration": 0.1678320000000042,
          "durationTicks": 48,
          "midi": 68,
          "name": "G#4",
          "ticks": 39480,
          "time": 138.04182,
          "velocity": 0.4409448818897638
        },
        {
          "duration": 2.391605999999996,
          "durationTicks": 684,
          "midi": 66,
          "name": "F#4",
          "ticks": 39540,
          "time": 138.25161,
          "velocity": 0.4409448818897638
        },
        {
          "duration": 0.16783199999997578,
          "durationTicks": 48,
          "midi": 64,
          "name": "E4",
          "ticks": 40320,
          "time": 140.97888,
          "velocity": 0.4409448818897638
        },
        {
          "duration": 0.1678320000000042,
          "durationTicks": 48,
          "midi": 66,
          "name": "F#4",
          "ticks": 40380,
          "time": 141.18867,
          "velocity": 0.4409448818897638
        },
        {
          "duration": 0.1678320000000042,
          "durationTicks": 48,
          "midi": 64,
          "name": "E4",
          "ticks": 40440,
          "time": 141.39846,
          "velocity": 0.4409448818897638
        },
        {
          "duration": 2.391605999999996,
          "durationTicks": 684,
          "midi": 66,
          "name": "F#4",
          "ticks": 40500,
          "time": 141.60825,
          "velocity": 0.4409448818897638
        },
        {
          "duration": 0.1678320000000042,
          "durationTicks": 48,
          "midi": 64,
          "name": "E4",
          "ticks": 41280,
          "time": 144.33552,
          "velocity": 0.4409448818897638
        },
        {
          "duration": 0.1678320000000042,
          "durationTicks": 48,
          "midi": 61,
          "name": "C#4",
          "ticks": 41340,
          "time": 144.54531,
          "velocity": 0.4409448818897638
        },
        {
          "duration": 0.1678320000000042,
          "durationTicks": 48,
          "midi": 68,
          "name": "G#4",
          "ticks": 41400,
          "time": 144.7551,
          "velocity": 0.4409448818897638
        },
        {
          "duration": 2.22377400000002,
          "durationTicks": 636,
          "midi": 66,
          "name": "F#4",
          "ticks": 41460,
          "time": 144.96489,
          "velocity": 0.4409448818897638
        },
        {
          "duration": 0.08391599999998789,
          "durationTicks": 24,
          "midi": 64,
          "name": "E4",
          "ticks": 42180,
          "time": 147.48237,
          "velocity": 0.4409448818897638
        },
        {
          "duration": 0.08391599999998789,
          "durationTicks": 24,
          "midi": 61,
          "name": "C#4",
          "ticks": 42210,
          "time": 147.587265,
          "velocity": 0.4409448818897638
        },
        {
          "duration": 0.5034959999999842,
          "durationTicks": 144,
          "midi": 59,
          "name": "B3",
          "ticks": 42240,
          "time": 147.69216,
          "velocity": 0.4409448818897638
        },
        {
          "duration": 2.391605999999996,
          "durationTicks": 684,
          "midi": 64,
          "name": "E4",
          "ticks": 42420,
          "time": 148.32153,
          "velocity": 0.4409448818897638
        },
        {
          "duration": 0.041958000000022366,
          "durationTicks": 12,
          "midi": 68,
          "name": "G#4",
          "ticks": 43200,
          "time": 151.0488,
          "velocity": 0.6299212598425197
        },
        {
          "duration": 0.13636349999998743,
          "durationTicks": 39,
          "midi": 71,
          "name": "B4",
          "ticks": 43215,
          "time": 151.1012475,
          "velocity": 0.6299212598425197
        },
        {
          "duration": 0.041958000000022366,
          "durationTicks": 12,
          "midi": 68,
          "name": "G#4",
          "ticks": 43320,
          "time": 151.46838,
          "velocity": 0.6299212598425197
        },
        {
          "duration": 0.13636350000001585,
          "durationTicks": 39,
          "midi": 71,
          "name": "B4",
          "ticks": 43335,
          "time": 151.5208275,
          "velocity": 0.6299212598425197
        },
        {
          "duration": 2.1818159999999978,
          "durationTicks": 624,
          "midi": 59,
          "name": "B3",
          "ticks": 43440,
          "time": 151.88796,
          "velocity": 0.6299212598425197
        },
        {
          "duration": 0.041958000000022366,
          "durationTicks": 12,
          "midi": 68,
          "name": "G#4",
          "ticks": 44160,
          "time": 154.40544,
          "velocity": 0.6299212598425197
        },
        {
          "duration": 0.13636349999998743,
          "durationTicks": 39,
          "midi": 71,
          "name": "B4",
          "ticks": 44175,
          "time": 154.4578875,
          "velocity": 0.6299212598425197
        },
        {
          "duration": 0.041958000000022366,
          "durationTicks": 12,
          "midi": 68,
          "name": "G#4",
          "ticks": 44280,
          "time": 154.82502,
          "velocity": 0.6299212598425197
        },
        {
          "duration": 0.13636350000001585,
          "durationTicks": 39,
          "midi": 71,
          "name": "B4",
          "ticks": 44295,
          "time": 154.8774675,
          "velocity": 0.6299212598425197
        },
        {
          "duration": 0.3356640000000084,
          "durationTicks": 96,
          "midi": 64,
          "name": "E4",
          "ticks": 44400,
          "time": 155.2446,
          "velocity": 0.6299212598425197
        },
        {
          "duration": 1.0909079999999847,
          "durationTicks": 312,
          "midi": 66,
          "name": "F#4",
          "ticks": 44520,
          "time": 155.66418000000002,
          "velocity": 0.6299212598425197
        },
        {
          "duration": 0.041958000000022366,
          "durationTicks": 12,
          "midi": 68,
          "name": "G#4",
          "ticks": 45120,
          "time": 157.76208,
          "velocity": 0.6299212598425197
        },
        {
          "duration": 0.13636349999998743,
          "durationTicks": 39,
          "midi": 71,
          "name": "B4",
          "ticks": 45135,
          "time": 157.8145275,
          "velocity": 0.6299212598425197
        },
        {
          "duration": 0.041958000000022366,
          "durationTicks": 12,
          "midi": 68,
          "name": "G#4",
          "ticks": 45240,
          "time": 158.18166,
          "velocity": 0.6299212598425197
        },
        {
          "duration": 0.13636350000001585,
          "durationTicks": 39,
          "midi": 71,
          "name": "B4",
          "ticks": 45255,
          "time": 158.2341075,
          "velocity": 0.6299212598425197
        },
        {
          "duration": 2.1818159999999978,
          "durationTicks": 624,
          "midi": 59,
          "name": "B3",
          "ticks": 45360,
          "time": 158.60124,
          "velocity": 0.6299212598425197
        },
        {
          "duration": 0.041958000000022366,
          "durationTicks": 12,
          "midi": 68,
          "name": "G#4",
          "ticks": 46080,
          "time": 161.11872,
          "velocity": 0.6299212598425197
        },
        {
          "duration": 0.13636350000001585,
          "durationTicks": 39,
          "midi": 71,
          "name": "B4",
          "ticks": 46095,
          "time": 161.1711675,
          "velocity": 0.6299212598425197
        },
        {
          "duration": 0.041958000000022366,
          "durationTicks": 12,
          "midi": 68,
          "name": "G#4",
          "ticks": 46200,
          "time": 161.5383,
          "velocity": 0.6299212598425197
        },
        {
          "duration": 0.13636350000001585,
          "durationTicks": 39,
          "midi": 71,
          "name": "B4",
          "ticks": 46215,
          "time": 161.5907475,
          "velocity": 0.6299212598425197
        },
        {
          "duration": 3.860135999999983,
          "durationTicks": 1104,
          "midi": 59,
          "name": "B3",
          "ticks": 46320,
          "time": 161.95788000000002,
          "velocity": 0.6299212598425197
        }
      ],
      "endOfTrackTicks": 47424
    },
    {
      "channel": 4,
      "controlChanges": {
        "7": [
          {
            "number": 7,
            "ticks": 0,
            "time": 0,
            "value": 0.7637795275590551
          },
          {
            "number": 7,
            "ticks": 0,
            "time": 0,
            "value": 0.7637795275590551
          },
          {
            "number": 7,
            "ticks": 0,
            "time": 0,
            "value": 0.7637795275590551
          },
          {
            "number": 7,
            "ticks": 0,
            "time": 0,
            "value": 0.7637795275590551
          },
          {
            "number": 7,
            "ticks": 0,
            "time": 0,
            "value": 0.7637795275590551
          },
          {
            "number": 7,
            "ticks": 0,
            "time": 0,
            "value": 0.7637795275590551
          },
          {
            "number": 7,
            "ticks": 0,
            "time": 0,
            "value": 0.7637795275590551
          },
          {
            "number": 7,
            "ticks": 0,
            "time": 0,
            "value": 0.7637795275590551
          }
        ]
      },
      "pitchBends": [],
      "instrument": {
        "family": "brass",
        "number": 57,
        "name": "trombone"
      },
      "name": "Vocals2",
      "notes": [
        {
          "duration": 0.3356640000000084,
          "durationTicks": 96,
          "midi": 71,
          "name": "B4",
          "ticks": 23040,
          "time": 80.55936,
          "velocity": 0.6299212598425197
        },
        {
          "duration": 0.16783199999999,
          "durationTicks": 48,
          "midi": 68,
          "name": "G#4",
          "ticks": 23160,
          "time": 80.97894000000001,
          "velocity": 0.6299212598425197
        },
        {
          "duration": 0.1678320000000042,
          "durationTicks": 48,
          "midi": 66,
          "name": "F#4",
          "ticks": 23220,
          "time": 81.18873,
          "velocity": 0.6299212598425197
        },
        {
          "duration": 0.3356640000000084,
          "durationTicks": 96,
          "midi": 64,
          "name": "E4",
          "ticks": 23280,
          "time": 81.39852,
          "velocity": 0.6299212598425197
        },
        {
          "duration": 1.7622360000000015,
          "durationTicks": 504,
          "midi": 66,
          "name": "F#4",
          "ticks": 23400,
          "time": 81.8181,
          "velocity": 0.6299212598425197
        },
        {
          "duration": 0.3356640000000084,
          "durationTicks": 96,
          "midi": 64,
          "name": "E4",
          "ticks": 24000,
          "time": 83.916,
          "velocity": 0.6299212598425197
        },
        {
          "duration": 0.16783199999999,
          "durationTicks": 48,
          "midi": 68,
          "name": "G#4",
          "ticks": 24120,
          "time": 84.33558000000001,
          "velocity": 0.6299212598425197
        },
        {
          "duration": 0.1678320000000042,
          "durationTicks": 48,
          "midi": 64,
          "name": "E4",
          "ticks": 24180,
          "time": 84.54537,
          "velocity": 0.6299212598425197
        },
        {
          "duration": 0.1678320000000042,
          "durationTicks": 48,
          "midi": 61,
          "name": "C#4",
          "ticks": 24240,
          "time": 84.75516,
          "velocity": 0.6299212598425197
        },
        {
          "duration": 0.1678320000000042,
          "durationTicks": 48,
          "midi": 59,
          "name": "B3",
          "ticks": 24300,
          "time": 84.96495,
          "velocity": 0.6299212598425197
        },
        {
          "duration": 1.7622360000000015,
          "durationTicks": 504,
          "midi": 64,
          "name": "E4",
          "ticks": 24360,
          "time": 85.17474,
          "velocity": 0.6299212598425197
        },
        {
          "duration": 0.3356640000000084,
          "durationTicks": 96,
          "midi": 71,
          "name": "B4",
          "ticks": 24960,
          "time": 87.27264,
          "velocity": 0.6299212598425197
        },
        {
          "duration": 0.1678320000000042,
          "durationTicks": 48,
          "midi": 68,
          "name": "G#4",
          "ticks": 25080,
          "time": 87.69222,
          "velocity": 0.6299212598425197
        },
        {
          "duration": 0.1678320000000042,
          "durationTicks": 48,
          "midi": 66,
          "name": "F#4",
          "ticks": 25140,
          "time": 87.90201,
          "velocity": 0.6299212598425197
        },
        {
          "duration": 0.3356640000000084,
          "durationTicks": 96,
          "midi": 64,
          "name": "E4",
          "ticks": 25200,
          "time": 88.1118,
          "velocity": 0.6299212598425197
        },
        {
          "duration": 1.7622360000000015,
          "durationTicks": 504,
          "midi": 66,
          "name": "F#4",
          "ticks": 25320,
          "time": 88.53138,
          "velocity": 0.6299212598425197
        },
        {
          "duration": 0.3356639999999942,
          "durationTicks": 96,
          "midi": 64,
          "name": "E4",
          "ticks": 25920,
          "time": 90.62928000000001,
          "velocity": 0.6299212598425197
        },
        {
          "duration": 0.1678320000000042,
          "durationTicks": 48,
          "midi": 68,
          "name": "G#4",
          "ticks": 26040,
          "time": 91.04886,
          "velocity": 0.6299212598425197
        },
        {
          "duration": 0.1678320000000042,
          "durationTicks": 48,
          "midi": 64,
          "name": "E4",
          "ticks": 26100,
          "time": 91.25865,
          "velocity": 0.6299212598425197
        },
        {
          "duration": 0.1678320000000042,
          "durationTicks": 48,
          "midi": 61,
          "name": "C#4",
          "ticks": 26160,
          "time": 91.46844,
          "velocity": 0.6299212598425197
        },
        {
          "duration": 0.1678320000000042,
          "durationTicks": 48,
          "midi": 59,
          "name": "B3",
          "ticks": 26220,
          "time": 91.67823,
          "velocity": 0.6299212598425197
        },
        {
          "duration": 1.7622360000000015,
          "durationTicks": 504,
          "midi": 64,
          "name": "E4",
          "ticks": 26280,
          "time": 91.88802,
          "velocity": 0.6299212598425197
        },
        {
          "duration": 0.041957999999993945,
          "durationTicks": 12,
          "midi": 68,
          "name": "G#4",
          "ticks": 26880,
          "time": 93.98592000000001,
          "velocity": 0.6299212598425197
        },
        {
          "duration": 0.041957999999993945,
          "durationTicks": 12,
          "midi": 71,
          "name": "B4",
          "ticks": 26895,
          "time": 94.0383675,
          "velocity": 0.6299212598425197
        },
        {
          "duration": 0.08391599999998789,
          "durationTicks": 24,
          "midi": 71,
          "name": "B4",
          "ticks": 26910,
          "time": 94.090815,
          "velocity": 0.6299212598425197
        },
        {
          "duration": 0.041957999999993945,
          "durationTicks": 12,
          "midi": 68,
          "name": "G#4",
          "ticks": 27000,
          "time": 94.4055,
          "velocity": 0.6299212598425197
        },
        {
          "duration": 0.041957999999993945,
          "durationTicks": 12,
          "midi": 71,
          "name": "B4",
          "ticks": 27015,
          "time": 94.4579475,
          "velocity": 0.6299212598425197
        },
        {
          "duration": 0.08391599999998789,
          "durationTicks": 24,
          "midi": 71,
          "name": "B4",
          "ticks": 27030,
          "time": 94.510395,
          "velocity": 0.6299212598425197
        },
        {
          "duration": 2.1818159999999978,
          "durationTicks": 624,
          "midi": 68,
          "name": "G#4",
          "ticks": 27120,
          "time": 94.82508,
          "velocity": 0.6299212598425197
        },
        {
          "duration": 0.041957999999993945,
          "durationTicks": 12,
          "midi": 68,
          "name": "G#4",
          "ticks": 28800,
          "time": 100.6992,
          "velocity": 0.6299212598425197
        },
        {
          "duration": 0.041957999999993945,
          "durationTicks": 12,
          "midi": 71,
          "name": "B4",
          "ticks": 28815,
          "time": 100.7516475,
          "velocity": 0.6299212598425197
        },
        {
          "duration": 0.08391599999998789,
          "durationTicks": 24,
          "midi": 71,
          "name": "B4",
          "ticks": 28830,
          "time": 100.804095,
          "velocity": 0.6299212598425197
        },
        {
          "duration": 0.041957999999993945,
          "durationTicks": 12,
          "midi": 68,
          "name": "G#4",
          "ticks": 28920,
          "time": 101.11878,
          "velocity": 0.6299212598425197
        },
        {
          "duration": 0.041957999999993945,
          "durationTicks": 12,
          "midi": 71,
          "name": "B4",
          "ticks": 28935,
          "time": 101.1712275,
          "velocity": 0.6299212598425197
        },
        {
          "duration": 0.0839160000000021,
          "durationTicks": 24,
          "midi": 71,
          "name": "B4",
          "ticks": 28950,
          "time": 101.223675,
          "velocity": 0.6299212598425197
        },
        {
          "duration": 2.1818159999999978,
          "durationTicks": 624,
          "midi": 68,
          "name": "G#4",
          "ticks": 29040,
          "time": 101.53836,
          "velocity": 0.6299212598425197
        },
        {
          "duration": 0.3356640000000084,
          "durationTicks": 96,
          "midi": 61,
          "name": "C#4",
          "ticks": 43680,
          "time": 152.72712,
          "velocity": 0.6299212598425197
        },
        {
          "duration": 0.3356640000000084,
          "durationTicks": 96,
          "midi": 68,
          "name": "G#4",
          "ticks": 43800,
          "time": 153.1467,
          "velocity": 0.6299212598425197
        },
        {
          "duration": 3.860135999999983,
          "durationTicks": 1104,
          "midi": 66,
          "name": "F#4",
          "ticks": 43920,
          "time": 153.56628,
          "velocity": 0.6299212598425197
        },
        {
          "duration": 0.3356640000000084,
          "durationTicks": 96,
          "midi": 61,
          "name": "C#4",
          "ticks": 45600,
          "time": 159.4404,
          "velocity": 0.6299212598425197
        },
        {
          "duration": 0.3356640000000084,
          "durationTicks": 96,
          "midi": 68,
          "name": "G#4",
          "ticks": 45720,
          "time": 159.85998,
          "velocity": 0.6299212598425197
        },
        {
          "duration": 5.5384559999999965,
          "durationTicks": 1584,
          "midi": 66,
          "name": "F#4",
          "ticks": 45840,
          "time": 160.27956,
          "velocity": 0.6299212598425197
        }
      ],
      "endOfTrackTicks": 47424
    },
    {
      "channel": 2,
      "controlChanges": {
        "7": [
          {
            "number": 7,
            "ticks": 0,
            "time": 0,
            "value": 0.41732283464566927
          },
          {
            "number": 7,
            "ticks": 0,
            "time": 0,
            "value": 0.41732283464566927
          },
          {
            "number": 7,
            "ticks": 0,
            "time": 0,
            "value": 0.41732283464566927
          },
          {
            "number": 7,
            "ticks": 0,
            "time": 0,
            "value": 0.41732283464566927
          },
          {
            "number": 7,
            "ticks": 0,
            "time": 0,
            "value": 0.41732283464566927
          },
          {
            "number": 7,
            "ticks": 0,
            "time": 0,
            "value": 0.41732283464566927
          },
          {
            "number": 7,
            "ticks": 0,
            "time": 0,
            "value": 0.41732283464566927
          },
          {
            "number": 7,
            "ticks": 0,
            "time": 0,
            "value": 0.41732283464566927
          }
        ]
      },
      "pitchBends": [],
      "instrument": {
        "family": "bass",
        "number": 33,
        "name": "electric bass (finger)"
      },
      "name": "Bass Guitar",
      "notes": [
        {
          "duration": 0.3356639999999995,
          "durationTicks": 96,
          "midi": 40,
          "name": "E2",
          "ticks": 3840,
          "time": 13.42656,
          "velocity": 0.6299212598425197
        },
        {
          "duration": 0.16783199999999887,
          "durationTicks": 48,
          "midi": 40,
          "name": "E2",
          "ticks": 3960,
          "time": 13.84614,
          "velocity": 0.6299212598425197
        },
        {
          "duration": 0.8811180000000007,
          "durationTicks": 252,
          "midi": 42,
          "name": "F#2",
          "ticks": 4020,
          "time": 14.05593,
          "velocity": 0.6299212598425197
        },
        {
          "duration": 0.16783200000000065,
          "durationTicks": 48,
          "midi": 44,
          "name": "G#2",
          "ticks": 4320,
          "time": 15.10488,
          "velocity": 0.6299212598425197
        },
        {
          "duration": 0.37762200000000057,
          "durationTicks": 108,
          "midi": 44,
          "name": "G#2",
          "ticks": 4380,
          "time": 15.31467,
          "velocity": 0.6299212598425197
        },
        {
          "duration": 0.3356639999999995,
          "durationTicks": 96,
          "midi": 45,
          "name": "A2",
          "ticks": 4500,
          "time": 15.734250000000001,
          "velocity": 0.6299212598425197
        },
        {
          "duration": 0.16783200000000065,
          "durationTicks": 48,
          "midi": 45,
          "name": "A2",
          "ticks": 4620,
          "time": 16.15383,
          "velocity": 0.6299212598425197
        },
        {
          "duration": 0.1678319999999971,
          "durationTicks": 48,
          "midi": 45,
          "name": "A2",
          "ticks": 4680,
          "time": 16.36362,
          "velocity": 0.6299212598425197
        },
        {
          "duration": 0.33566399999999774,
          "durationTicks": 96,
          "midi": 40,
          "name": "E2",
          "ticks": 4800,
          "time": 16.7832,
          "velocity": 0.6299212598425197
        },
        {
          "duration": 0.16783200000000065,
          "durationTicks": 48,
          "midi": 40,
          "name": "E2",
          "ticks": 4920,
          "time": 17.20278,
          "velocity": 0.6299212598425197
        },
        {
          "duration": 0.8811180000000007,
          "durationTicks": 252,
          "midi": 42,
          "name": "F#2",
          "ticks": 4980,
          "time": 17.41257,
          "velocity": 0.6299212598425197
        },
        {
          "duration": 0.16783200000000065,
          "durationTicks": 48,
          "midi": 44,
          "name": "G#2",
          "ticks": 5280,
          "time": 18.46152,
          "velocity": 0.6299212598425197
        },
        {
          "duration": 0.3776219999999988,
          "durationTicks": 108,
          "midi": 44,
          "name": "G#2",
          "ticks": 5340,
          "time": 18.671310000000002,
          "velocity": 0.6299212598425197
        },
        {
          "duration": 0.33566399999999774,
          "durationTicks": 96,
          "midi": 42,
          "name": "F#2",
          "ticks": 5460,
          "time": 19.09089,
          "velocity": 0.6299212598425197
        },
        {
          "duration": 0.1678319999999971,
          "durationTicks": 48,
          "midi": 42,
          "name": "F#2",
          "ticks": 5580,
          "time": 19.51047,
          "velocity": 0.6299212598425197
        },
        {
          "duration": 0.16783200000000065,
          "durationTicks": 48,
          "midi": 42,
          "name": "F#2",
          "ticks": 5640,
          "time": 19.72026,
          "velocity": 0.6299212598425197
        },
        {
          "duration": 0.3356640000000013,
          "durationTicks": 96,
          "midi": 40,
          "name": "E2",
          "ticks": 5760,
          "time": 20.13984,
          "velocity": 0.6299212598425197
        },
        {
          "duration": 0.16783200000000065,
          "durationTicks": 48,
          "midi": 40,
          "name": "E2",
          "ticks": 5880,
          "time": 20.55942,
          "velocity": 0.6299212598425197
        },
        {
          "duration": 0.8811180000000007,
          "durationTicks": 252,
          "midi": 42,
          "name": "F#2",
          "ticks": 5940,
          "time": 20.76921,
          "velocity": 0.6299212598425197
        },
        {
          "duration": 0.16783200000000065,
          "durationTicks": 48,
          "midi": 44,
          "name": "G#2",
          "ticks": 6240,
          "time": 21.81816,
          "velocity": 0.6299212598425197
        },
        {
          "duration": 0.3776219999999988,
          "durationTicks": 108,
          "midi": 44,
          "name": "G#2",
          "ticks": 6300,
          "time": 22.02795,
          "velocity": 0.6299212598425197
        },
        {
          "duration": 0.33566399999999774,
          "durationTicks": 96,
          "midi": 45,
          "name": "A2",
          "ticks": 6420,
          "time": 22.44753,
          "velocity": 0.6299212598425197
        },
        {
          "duration": 0.16783200000000065,
          "durationTicks": 48,
          "midi": 45,
          "name": "A2",
          "ticks": 6540,
          "time": 22.86711,
          "velocity": 0.6299212598425197
        },
        {
          "duration": 0.1678319999999971,
          "durationTicks": 48,
          "midi": 45,
          "name": "A2",
          "ticks": 6600,
          "time": 23.076900000000002,
          "velocity": 0.6299212598425197
        },
        {
          "duration": 0.33566399999999774,
          "durationTicks": 96,
          "midi": 40,
          "name": "E2",
          "ticks": 6720,
          "time": 23.496480000000002,
          "velocity": 0.6299212598425197
        },
        {
          "duration": 0.1678319999999971,
          "durationTicks": 48,
          "midi": 40,
          "name": "E2",
          "ticks": 6840,
          "time": 23.91606,
          "velocity": 0.6299212598425197
        },
        {
          "duration": 2.391606000000003,
          "durationTicks": 684,
          "midi": 42,
          "name": "F#2",
          "ticks": 6900,
          "time": 24.12585,
          "velocity": 0.6299212598425197
        },
        {
          "duration": 0.33566399999999774,
          "durationTicks": 96,
          "midi": 40,
          "name": "E2",
          "ticks": 7680,
          "time": 26.85312,
          "velocity": 0.6299212598425197
        },
        {
          "duration": 0.1678320000000042,
          "durationTicks": 48,
          "midi": 40,
          "name": "E2",
          "ticks": 7800,
          "time": 27.2727,
          "velocity": 0.6299212598425197
        },
        {
          "duration": 0.8811179999999972,
          "durationTicks": 252,
          "midi": 42,
          "name": "F#2",
          "ticks": 7860,
          "time": 27.482490000000002,
          "velocity": 0.6299212598425197
        },
        {
          "duration": 0.1678320000000042,
          "durationTicks": 48,
          "midi": 44,
          "name": "G#2",
          "ticks": 8160,
          "time": 28.53144,
          "velocity": 0.6299212598425197
        },
        {
          "duration": 0.37762200000000234,
          "durationTicks": 108,
          "midi": 44,
          "name": "G#2",
          "ticks": 8220,
          "time": 28.74123,
          "velocity": 0.6299212598425197
        },
        {
          "duration": 0.33566399999999774,
          "durationTicks": 96,
          "midi": 45,
          "name": "A2",
          "ticks": 8340,
          "time": 29.16081,
          "velocity": 0.6299212598425197
        },
        {
          "duration": 0.16783200000000065,
          "durationTicks": 48,
          "midi": 45,
          "name": "A2",
          "ticks": 8460,
          "time": 29.58039,
          "velocity": 0.6299212598425197
        },
        {
          "duration": 0.1678320000000042,
          "durationTicks": 48,
          "midi": 45,
          "name": "A2",
          "ticks": 8520,
          "time": 29.79018,
          "velocity": 0.6299212598425197
        },
        {
          "duration": 0.3356640000000013,
          "durationTicks": 96,
          "midi": 40,
          "name": "E2",
          "ticks": 8640,
          "time": 30.20976,
          "velocity": 0.6299212598425197
        },
        {
          "duration": 0.1678320000000042,
          "durationTicks": 48,
          "midi": 40,
          "name": "E2",
          "ticks": 8760,
          "time": 30.62934,
          "velocity": 0.6299212598425197
        },
        {
          "duration": 0.8811179999999972,
          "durationTicks": 252,
          "midi": 42,
          "name": "F#2",
          "ticks": 8820,
          "time": 30.83913,
          "velocity": 0.6299212598425197
        },
        {
          "duration": 0.1678320000000042,
          "durationTicks": 48,
          "midi": 44,
          "name": "G#2",
          "ticks": 9120,
          "time": 31.888080000000002,
          "velocity": 0.6299212598425197
        },
        {
          "duration": 0.37762200000000234,
          "durationTicks": 108,
          "midi": 44,
          "name": "G#2",
          "ticks": 9180,
          "time": 32.09787,
          "velocity": 0.6299212598425197
        },
        {
          "duration": 0.3356639999999942,
          "durationTicks": 96,
          "midi": 42,
          "name": "F#2",
          "ticks": 9300,
          "time": 32.517450000000004,
          "velocity": 0.6299212598425197
        },
        {
          "duration": 0.1678320000000042,
          "durationTicks": 48,
          "midi": 42,
          "name": "F#2",
          "ticks": 9420,
          "time": 32.93703,
          "velocity": 0.6299212598425197
        },
        {
          "duration": 0.1678320000000042,
          "durationTicks": 48,
          "midi": 42,
          "name": "F#2",
          "ticks": 9480,
          "time": 33.14682,
          "velocity": 0.6299212598425197
        },
        {
          "duration": 0.3356640000000013,
          "durationTicks": 96,
          "midi": 40,
          "name": "E2",
          "ticks": 9600,
          "time": 33.5664,
          "velocity": 0.6299212598425197
        },
        {
          "duration": 0.1678320000000042,
          "durationTicks": 48,
          "midi": 40,
          "name": "E2",
          "ticks": 9720,
          "time": 33.98598,
          "velocity": 0.6299212598425197
        },
        {
          "duration": 0.8811179999999936,
          "durationTicks": 252,
          "midi": 42,
          "name": "F#2",
          "ticks": 9780,
          "time": 34.19577,
          "velocity": 0.6299212598425197
        },
        {
          "duration": 0.1678320000000042,
          "durationTicks": 48,
          "midi": 44,
          "name": "G#2",
          "ticks": 10080,
          "time": 35.24472,
          "velocity": 0.6299212598425197
        },
        {
          "duration": 0.37762200000000234,
          "durationTicks": 108,
          "midi": 44,
          "name": "G#2",
          "ticks": 10140,
          "time": 35.45451,
          "velocity": 0.6299212598425197
        },
        {
          "duration": 0.3356639999999942,
          "durationTicks": 96,
          "midi": 45,
          "name": "A2",
          "ticks": 10260,
          "time": 35.87409,
          "velocity": 0.6299212598425197
        },
        {
          "duration": 0.1678320000000042,
          "durationTicks": 48,
          "midi": 45,
          "name": "A2",
          "ticks": 10380,
          "time": 36.29367,
          "velocity": 0.6299212598425197
        },
        {
          "duration": 0.1678319999999971,
          "durationTicks": 48,
          "midi": 45,
          "name": "A2",
          "ticks": 10440,
          "time": 36.503460000000004,
          "velocity": 0.6299212598425197
        },
        {
          "duration": 0.3356640000000013,
          "durationTicks": 96,
          "midi": 40,
          "name": "E2",
          "ticks": 10560,
          "time": 36.92304,
          "velocity": 0.6299212598425197
        },
        {
          "duration": 0.1678319999999971,
          "durationTicks": 48,
          "midi": 40,
          "name": "E2",
          "ticks": 10680,
          "time": 37.342620000000004,
          "velocity": 0.6299212598425197
        },
        {
          "duration": 2.391606000000003,
          "durationTicks": 684,
          "midi": 42,
          "name": "F#2",
          "ticks": 10740,
          "time": 37.55241,
          "velocity": 0.6299212598425197
        },
        {
          "duration": 0.3356640000000013,
          "durationTicks": 96,
          "midi": 40,
          "name": "E2",
          "ticks": 11520,
          "time": 40.27968,
          "velocity": 0.6299212598425197
        },
        {
          "duration": 0.1678320000000042,
          "durationTicks": 48,
          "midi": 40,
          "name": "E2",
          "ticks": 11640,
          "time": 40.69926,
          "velocity": 0.6299212598425197
        },
        {
          "duration": 0.8811180000000007,
          "durationTicks": 252,
          "midi": 42,
          "name": "F#2",
          "ticks": 11700,
          "time": 40.90905,
          "velocity": 0.6299212598425197
        },
        {
          "duration": 0.1678320000000042,
          "durationTicks": 48,
          "midi": 44,
          "name": "G#2",
          "ticks": 12000,
          "time": 41.958,
          "velocity": 0.6299212598425197
        },
        {
          "duration": 0.37762200000000234,
          "durationTicks": 108,
          "midi": 44,
          "name": "G#2",
          "ticks": 12060,
          "time": 42.167790000000004,
          "velocity": 0.6299212598425197
        },
        {
          "duration": 0.3356640000000013,
          "durationTicks": 96,
          "midi": 45,
          "name": "A2",
          "ticks": 12180,
          "time": 42.58737,
          "velocity": 0.6299212598425197
        },
        {
          "duration": 0.1678319999999971,
          "durationTicks": 48,
          "midi": 45,
          "name": "A2",
          "ticks": 12300,
          "time": 43.00695,
          "velocity": 0.6299212598425197
        },
        {
          "duration": 0.1678320000000042,
          "durationTicks": 48,
          "midi": 45,
          "name": "A2",
          "ticks": 12360,
          "time": 43.21674,
          "velocity": 0.6299212598425197
        },
        {
          "duration": 0.3356640000000013,
          "durationTicks": 96,
          "midi": 40,
          "name": "E2",
          "ticks": 12480,
          "time": 43.63632,
          "velocity": 0.6299212598425197
        },
        {
          "duration": 0.1678320000000042,
          "durationTicks": 48,
          "midi": 40,
          "name": "E2",
          "ticks": 12600,
          "time": 44.0559,
          "velocity": 0.6299212598425197
        },
        {
          "duration": 0.8811180000000007,
          "durationTicks": 252,
          "midi": 42,
          "name": "F#2",
          "ticks": 12660,
          "time": 44.26569,
          "velocity": 0.6299212598425197
        },
        {
          "duration": 0.1678319999999971,
          "durationTicks": 48,
          "midi": 44,
          "name": "G#2",
          "ticks": 12960,
          "time": 45.314640000000004,
          "velocity": 0.6299212598425197
        },
        {
          "duration": 0.37762200000000234,
          "durationTicks": 108,
          "midi": 44,
          "name": "G#2",
          "ticks": 13020,
          "time": 45.52443,
          "velocity": 0.6299212598425197
        },
        {
          "duration": 0.3356640000000013,
          "durationTicks": 96,
          "midi": 42,
          "name": "F#2",
          "ticks": 13140,
          "time": 45.94401,
          "velocity": 0.6299212598425197
        },
        {
          "duration": 0.1678320000000042,
          "durationTicks": 48,
          "midi": 42,
          "name": "F#2",
          "ticks": 13260,
          "time": 46.36359,
          "velocity": 0.6299212598425197
        },
        {
          "duration": 0.1678320000000042,
          "durationTicks": 48,
          "midi": 42,
          "name": "F#2",
          "ticks": 13320,
          "time": 46.57338,
          "velocity": 0.6299212598425197
        },
        {
          "duration": 0.3356639999999942,
          "durationTicks": 96,
          "midi": 40,
          "name": "E2",
          "ticks": 13440,
          "time": 46.992960000000004,
          "velocity": 0.6299212598425197
        },
        {
          "duration": 0.1678320000000042,
          "durationTicks": 48,
          "midi": 40,
          "name": "E2",
          "ticks": 13560,
          "time": 47.41254,
          "velocity": 0.6299212598425197
        },
        {
          "duration": 0.8811180000000007,
          "durationTicks": 252,
          "midi": 42,
          "name": "F#2",
          "ticks": 13620,
          "time": 47.62233,
          "velocity": 0.6299212598425197
        },
        {
          "duration": 0.1678319999999971,
          "durationTicks": 48,
          "midi": 44,
          "name": "G#2",
          "ticks": 13920,
          "time": 48.67128,
          "velocity": 0.6299212598425197
        },
        {
          "duration": 0.37762200000000234,
          "durationTicks": 108,
          "midi": 44,
          "name": "G#2",
          "ticks": 13980,
          "time": 48.88107,
          "velocity": 0.6299212598425197
        },
        {
          "duration": 0.3356639999999942,
          "durationTicks": 96,
          "midi": 45,
          "name": "A2",
          "ticks": 14100,
          "time": 49.300650000000005,
          "velocity": 0.6299212598425197
        },
        {
          "duration": 0.1678320000000042,
          "durationTicks": 48,
          "midi": 45,
          "name": "A2",
          "ticks": 14220,
          "time": 49.72023,
          "velocity": 0.6299212598425197
        },
        {
          "duration": 0.1678320000000042,
          "durationTicks": 48,
          "midi": 45,
          "name": "A2",
          "ticks": 14280,
          "time": 49.93002,
          "velocity": 0.6299212598425197
        },
        {
          "duration": 0.3356639999999942,
          "durationTicks": 96,
          "midi": 40,
          "name": "E2",
          "ticks": 14400,
          "time": 50.3496,
          "velocity": 0.6299212598425197
        },
        {
          "duration": 0.1678320000000042,
          "durationTicks": 48,
          "midi": 40,
          "name": "E2",
          "ticks": 14520,
          "time": 50.76918,
          "velocity": 0.6299212598425197
        },
        {
          "duration": 0.8811179999999936,
          "durationTicks": 252,
          "midi": 42,
          "name": "F#2",
          "ticks": 14580,
          "time": 50.978970000000004,
          "velocity": 0.6299212598425197
        },
        {
          "duration": 0.1678320000000042,
          "durationTicks": 48,
          "midi": 44,
          "name": "G#2",
          "ticks": 14880,
          "time": 52.02792,
          "velocity": 0.6299212598425197
        },
        {
          "duration": 0.37762200000000234,
          "durationTicks": 108,
          "midi": 44,
          "name": "G#2",
          "ticks": 14940,
          "time": 52.23771,
          "velocity": 0.6299212598425197
        },
        {
          "duration": 0.3356639999999942,
          "durationTicks": 96,
          "midi": 42,
          "name": "F#2",
          "ticks": 15060,
          "time": 52.65729,
          "velocity": 0.6299212598425197
        },
        {
          "duration": 0.1678320000000042,
          "durationTicks": 48,
          "midi": 42,
          "name": "F#2",
          "ticks": 15180,
          "time": 53.07687,
          "velocity": 0.6299212598425197
        },
        {
          "duration": 0.1678320000000042,
          "durationTicks": 48,
          "midi": 42,
          "name": "F#2",
          "ticks": 15240,
          "time": 53.28666,
          "velocity": 0.6299212598425197
        },
        {
          "duration": 0.3356640000000013,
          "durationTicks": 96,
          "midi": 40,
          "name": "E2",
          "ticks": 15360,
          "time": 53.70624,
          "velocity": 0.6299212598425197
        },
        {
          "duration": 0.1678319999999971,
          "durationTicks": 48,
          "midi": 40,
          "name": "E2",
          "ticks": 15480,
          "time": 54.125820000000004,
          "velocity": 0.6299212598425197
        },
        {
          "duration": 0.8811179999999936,
          "durationTicks": 252,
          "midi": 42,
          "name": "F#2",
          "ticks": 15540,
          "time": 54.33561,
          "velocity": 0.6299212598425197
        },
        {
          "duration": 0.1678320000000042,
          "durationTicks": 48,
          "midi": 44,
          "name": "G#2",
          "ticks": 15840,
          "time": 55.38456,
          "velocity": 0.6299212598425197
        },
        {
          "duration": 0.37762200000000234,
          "durationTicks": 108,
          "midi": 44,
          "name": "G#2",
          "ticks": 15900,
          "time": 55.59435,
          "velocity": 0.6299212598425197
        },
        {
          "duration": 0.3356640000000013,
          "durationTicks": 96,
          "midi": 45,
          "name": "A2",
          "ticks": 16020,
          "time": 56.01393,
          "velocity": 0.6299212598425197
        },
        {
          "duration": 0.1678320000000042,
          "durationTicks": 48,
          "midi": 45,
          "name": "A2",
          "ticks": 16140,
          "time": 56.43351,
          "velocity": 0.6299212598425197
        },
        {
          "duration": 0.1678319999999971,
          "durationTicks": 48,
          "midi": 45,
          "name": "A2",
          "ticks": 16200,
          "time": 56.6433,
          "velocity": 0.6299212598425197
        },
        {
          "duration": 0.3356640000000084,
          "durationTicks": 96,
          "midi": 40,
          "name": "E2",
          "ticks": 16320,
          "time": 57.06288,
          "velocity": 0.6299212598425197
        },
        {
          "duration": 0.1678319999999971,
          "durationTicks": 48,
          "midi": 40,
          "name": "E2",
          "ticks": 16440,
          "time": 57.48246,
          "velocity": 0.6299212598425197
        },
        {
          "duration": 0.8811180000000007,
          "durationTicks": 252,
          "midi": 42,
          "name": "F#2",
          "ticks": 16500,
          "time": 57.69225,
          "velocity": 0.6299212598425197
        },
        {
          "duration": 0.1678320000000042,
          "durationTicks": 48,
          "midi": 44,
          "name": "G#2",
          "ticks": 16800,
          "time": 58.7412,
          "velocity": 0.6299212598425197
        },
        {
          "duration": 0.37762200000000234,
          "durationTicks": 108,
          "midi": 44,
          "name": "G#2",
          "ticks": 16860,
          "time": 58.950990000000004,
          "velocity": 0.6299212598425197
        },
        {
          "duration": 0.3356640000000084,
          "durationTicks": 96,
          "midi": 42,
          "name": "F#2",
          "ticks": 16980,
          "time": 59.37057,
          "velocity": 0.6299212598425197
        },
        {
          "duration": 0.1678319999999971,
          "durationTicks": 48,
          "midi": 42,
          "name": "F#2",
          "ticks": 17100,
          "time": 59.790150000000004,
          "velocity": 0.6299212598425197
        },
        {
          "duration": 0.1678320000000042,
          "durationTicks": 48,
          "midi": 42,
          "name": "F#2",
          "ticks": 17160,
          "time": 59.99994,
          "velocity": 0.6299212598425197
        },
        {
          "duration": 0.3356640000000084,
          "durationTicks": 96,
          "midi": 40,
          "name": "E2",
          "ticks": 17280,
          "time": 60.41952,
          "velocity": 0.6299212598425197
        },
        {
          "duration": 0.1678320000000042,
          "durationTicks": 48,
          "midi": 40,
          "name": "E2",
          "ticks": 17400,
          "time": 60.8391,
          "velocity": 0.6299212598425197
        },
        {
          "duration": 0.8811180000000007,
          "durationTicks": 252,
          "midi": 42,
          "name": "F#2",
          "ticks": 17460,
          "time": 61.04889,
          "velocity": 0.6299212598425197
        },
        {
          "duration": 0.1678320000000042,
          "durationTicks": 48,
          "midi": 44,
          "name": "G#2",
          "ticks": 17760,
          "time": 62.09784,
          "velocity": 0.6299212598425197
        },
        {
          "duration": 0.37762200000000234,
          "durationTicks": 108,
          "midi": 44,
          "name": "G#2",
          "ticks": 17820,
          "time": 62.30763,
          "velocity": 0.6299212598425197
        },
        {
          "duration": 0.3356640000000084,
          "durationTicks": 96,
          "midi": 45,
          "name": "A2",
          "ticks": 17940,
          "time": 62.72721,
          "velocity": 0.6299212598425197
        },
        {
          "duration": 0.1678320000000042,
          "durationTicks": 48,
          "midi": 45,
          "name": "A2",
          "ticks": 18060,
          "time": 63.14679,
          "velocity": 0.6299212598425197
        },
        {
          "duration": 0.1678320000000042,
          "durationTicks": 48,
          "midi": 45,
          "name": "A2",
          "ticks": 18120,
          "time": 63.35658,
          "velocity": 0.6299212598425197
        },
        {
          "duration": 0.3356640000000084,
          "durationTicks": 96,
          "midi": 40,
          "name": "E2",
          "ticks": 18240,
          "time": 63.776160000000004,
          "velocity": 0.6299212598425197
        },
        {
          "duration": 0.1678320000000042,
          "durationTicks": 48,
          "midi": 40,
          "name": "E2",
          "ticks": 18360,
          "time": 64.19574,
          "velocity": 0.6299212598425197
        },
        {
          "duration": 0.8811180000000007,
          "durationTicks": 252,
          "midi": 42,
          "name": "F#2",
          "ticks": 18420,
          "time": 64.40553,
          "velocity": 0.6299212598425197
        },
        {
          "duration": 0.1678320000000042,
          "durationTicks": 48,
          "midi": 44,
          "name": "G#2",
          "ticks": 18720,
          "time": 65.45448,
          "velocity": 0.6299212598425197
        },
        {
          "duration": 0.37762200000000234,
          "durationTicks": 108,
          "midi": 44,
          "name": "G#2",
          "ticks": 18780,
          "time": 65.66427,
          "velocity": 0.6299212598425197
        },
        {
          "duration": 0.3356640000000084,
          "durationTicks": 96,
          "midi": 42,
          "name": "F#2",
          "ticks": 18900,
          "time": 66.08385,
          "velocity": 0.6299212598425197
        },
        {
          "duration": 0.1678320000000042,
          "durationTicks": 48,
          "midi": 42,
          "name": "F#2",
          "ticks": 19020,
          "time": 66.50343,
          "velocity": 0.6299212598425197
        },
        {
          "duration": 0.16783199999999,
          "durationTicks": 48,
          "midi": 42,
          "name": "F#2",
          "ticks": 19080,
          "time": 66.71322,
          "velocity": 0.6299212598425197
        },
        {
          "duration": 0.3356640000000084,
          "durationTicks": 96,
          "midi": 40,
          "name": "E2",
          "ticks": 19200,
          "time": 67.1328,
          "velocity": 0.6299212598425197
        },
        {
          "duration": 0.1678320000000042,
          "durationTicks": 48,
          "midi": 40,
          "name": "E2",
          "ticks": 19320,
          "time": 67.55238,
          "velocity": 0.6299212598425197
        },
        {
          "duration": 0.8811180000000007,
          "durationTicks": 252,
          "midi": 42,
          "name": "F#2",
          "ticks": 19380,
          "time": 67.76217,
          "velocity": 0.6299212598425197
        },
        {
          "duration": 0.1678320000000042,
          "durationTicks": 48,
          "midi": 44,
          "name": "G#2",
          "ticks": 19680,
          "time": 68.81112,
          "velocity": 0.6299212598425197
        },
        {
          "duration": 0.37762200000000234,
          "durationTicks": 108,
          "midi": 44,
          "name": "G#2",
          "ticks": 19740,
          "time": 69.02091,
          "velocity": 0.6299212598425197
        },
        {
          "duration": 0.3356640000000084,
          "durationTicks": 96,
          "midi": 45,
          "name": "A2",
          "ticks": 19860,
          "time": 69.44049,
          "velocity": 0.6299212598425197
        },
        {
          "duration": 0.16783199999999,
          "durationTicks": 48,
          "midi": 45,
          "name": "A2",
          "ticks": 19980,
          "time": 69.86007000000001,
          "velocity": 0.6299212598425197
        },
        {
          "duration": 0.1678320000000042,
          "durationTicks": 48,
          "midi": 45,
          "name": "A2",
          "ticks": 20040,
          "time": 70.06986,
          "velocity": 0.6299212598425197
        },
        {
          "duration": 0.3356640000000084,
          "durationTicks": 96,
          "midi": 40,
          "name": "E2",
          "ticks": 20160,
          "time": 70.48944,
          "velocity": 0.6299212598425197
        },
        {
          "duration": 0.1678320000000042,
          "durationTicks": 48,
          "midi": 40,
          "name": "E2",
          "ticks": 20280,
          "time": 70.90902,
          "velocity": 0.6299212598425197
        },
        {
          "duration": 0.8811180000000007,
          "durationTicks": 252,
          "midi": 42,
          "name": "F#2",
          "ticks": 20340,
          "time": 71.11881,
          "velocity": 0.6299212598425197
        },
        {
          "duration": 0.1678320000000042,
          "durationTicks": 48,
          "midi": 44,
          "name": "G#2",
          "ticks": 20640,
          "time": 72.16776,
          "velocity": 0.6299212598425197
        },
        {
          "duration": 0.37762200000000234,
          "durationTicks": 108,
          "midi": 44,
          "name": "G#2",
          "ticks": 20700,
          "time": 72.37755,
          "velocity": 0.6299212598425197
        },
        {
          "duration": 0.3356640000000084,
          "durationTicks": 96,
          "midi": 42,
          "name": "F#2",
          "ticks": 20820,
          "time": 72.79713,
          "velocity": 0.6299212598425197
        },
        {
          "duration": 0.1678320000000042,
          "durationTicks": 48,
          "midi": 42,
          "name": "F#2",
          "ticks": 20940,
          "time": 73.21671,
          "velocity": 0.6299212598425197
        },
        {
          "duration": 0.1678320000000042,
          "durationTicks": 48,
          "midi": 42,
          "name": "F#2",
          "ticks": 21000,
          "time": 73.4265,
          "velocity": 0.6299212598425197
        },
        {
          "duration": 0.3356640000000084,
          "durationTicks": 96,
          "midi": 40,
          "name": "E2",
          "ticks": 21120,
          "time": 73.84608,
          "velocity": 0.6299212598425197
        },
        {
          "duration": 0.1678320000000042,
          "durationTicks": 48,
          "midi": 40,
          "name": "E2",
          "ticks": 21240,
          "time": 74.26566,
          "velocity": 0.6299212598425197
        },
        {
          "duration": 0.8811180000000007,
          "durationTicks": 252,
          "midi": 42,
          "name": "F#2",
          "ticks": 21300,
          "time": 74.47545,
          "velocity": 0.6299212598425197
        },
        {
          "duration": 0.1678320000000042,
          "durationTicks": 48,
          "midi": 44,
          "name": "G#2",
          "ticks": 21600,
          "time": 75.5244,
          "velocity": 0.6299212598425197
        },
        {
          "duration": 0.37762200000000234,
          "durationTicks": 108,
          "midi": 44,
          "name": "G#2",
          "ticks": 21660,
          "time": 75.73419,
          "velocity": 0.6299212598425197
        },
        {
          "duration": 0.3356639999999942,
          "durationTicks": 96,
          "midi": 45,
          "name": "A2",
          "ticks": 21780,
          "time": 76.15377000000001,
          "velocity": 0.6299212598425197
        },
        {
          "duration": 0.1678320000000042,
          "durationTicks": 48,
          "midi": 45,
          "name": "A2",
          "ticks": 21900,
          "time": 76.57335,
          "velocity": 0.6299212598425197
        },
        {
          "duration": 0.1678320000000042,
          "durationTicks": 48,
          "midi": 45,
          "name": "A2",
          "ticks": 21960,
          "time": 76.78314,
          "velocity": 0.6299212598425197
        },
        {
          "duration": 0.3356640000000084,
          "durationTicks": 96,
          "midi": 40,
          "name": "E2",
          "ticks": 22080,
          "time": 77.20272,
          "velocity": 0.6299212598425197
        },
        {
          "duration": 0.1678320000000042,
          "durationTicks": 48,
          "midi": 40,
          "name": "E2",
          "ticks": 22200,
          "time": 77.6223,
          "velocity": 0.6299212598425197
        },
        {
          "duration": 0.8811179999999865,
          "durationTicks": 252,
          "midi": 42,
          "name": "F#2",
          "ticks": 22260,
          "time": 77.83209000000001,
          "velocity": 0.6299212598425197
        },
        {
          "duration": 0.1678320000000042,
          "durationTicks": 48,
          "midi": 44,
          "name": "G#2",
          "ticks": 22560,
          "time": 78.88104,
          "velocity": 0.6299212598425197
        },
        {
          "duration": 0.37762200000000234,
          "durationTicks": 108,
          "midi": 44,
          "name": "G#2",
          "ticks": 22620,
          "time": 79.09083,
          "velocity": 0.6299212598425197
        },
        {
          "duration": 0.3356639999999942,
          "durationTicks": 96,
          "midi": 42,
          "name": "F#2",
          "ticks": 22740,
          "time": 79.51041000000001,
          "velocity": 0.6299212598425197
        },
        {
          "duration": 0.1678320000000042,
          "durationTicks": 48,
          "midi": 42,
          "name": "F#2",
          "ticks": 22860,
          "time": 79.92999,
          "velocity": 0.6299212598425197
        },
        {
          "duration": 0.1678320000000042,
          "durationTicks": 48,
          "midi": 42,
          "name": "F#2",
          "ticks": 22920,
          "time": 80.13978,
          "velocity": 0.6299212598425197
        },
        {
          "duration": 0.3356640000000084,
          "durationTicks": 96,
          "midi": 40,
          "name": "E2",
          "ticks": 23040,
          "time": 80.55936,
          "velocity": 0.6299212598425197
        },
        {
          "duration": 0.16783199999999,
          "durationTicks": 48,
          "midi": 40,
          "name": "E2",
          "ticks": 23160,
          "time": 80.97894000000001,
          "velocity": 0.6299212598425197
        },
        {
          "duration": 0.8811179999999865,
          "durationTicks": 252,
          "midi": 42,
          "name": "F#2",
          "ticks": 23220,
          "time": 81.18873,
          "velocity": 0.6299212598425197
        },
        {
          "duration": 0.1678320000000042,
          "durationTicks": 48,
          "midi": 44,
          "name": "G#2",
          "ticks": 23520,
          "time": 82.23768,
          "velocity": 0.6299212598425197
        },
        {
          "duration": 0.37762200000000234,
          "durationTicks": 108,
          "midi": 44,
          "name": "G#2",
          "ticks": 23580,
          "time": 82.44747,
          "velocity": 0.6299212598425197
        },
        {
          "duration": 0.3356639999999942,
          "durationTicks": 96,
          "midi": 45,
          "name": "A2",
          "ticks": 23700,
          "time": 82.86705,
          "velocity": 0.6299212598425197
        },
        {
          "duration": 0.1678320000000042,
          "durationTicks": 48,
          "midi": 45,
          "name": "A2",
          "ticks": 23820,
          "time": 83.28663,
          "velocity": 0.6299212598425197
        },
        {
          "duration": 0.1678320000000042,
          "durationTicks": 48,
          "midi": 45,
          "name": "A2",
          "ticks": 23880,
          "time": 83.49642,
          "velocity": 0.6299212598425197
        },
        {
          "duration": 0.3356640000000084,
          "durationTicks": 96,
          "midi": 40,
          "name": "E2",
          "ticks": 24000,
          "time": 83.916,
          "velocity": 0.6299212598425197
        },
        {
          "duration": 0.16783199999999,
          "durationTicks": 48,
          "midi": 40,
          "name": "E2",
          "ticks": 24120,
          "time": 84.33558000000001,
          "velocity": 0.6299212598425197
        },
        {
          "duration": 0.8811180000000007,
          "durationTicks": 252,
          "midi": 42,
          "name": "F#2",
          "ticks": 24180,
          "time": 84.54537,
          "velocity": 0.6299212598425197
        },
        {
          "duration": 0.1678320000000042,
          "durationTicks": 48,
          "midi": 44,
          "name": "G#2",
          "ticks": 24480,
          "time": 85.59432,
          "velocity": 0.6299212598425197
        },
        {
          "duration": 0.37762200000000234,
          "durationTicks": 108,
          "midi": 44,
          "name": "G#2",
          "ticks": 24540,
          "time": 85.80411000000001,
          "velocity": 0.6299212598425197
        },
        {
          "duration": 0.3356640000000084,
          "durationTicks": 96,
          "midi": 42,
          "name": "F#2",
          "ticks": 24660,
          "time": 86.22369,
          "velocity": 0.6299212598425197
        },
        {
          "duration": 0.1678320000000042,
          "durationTicks": 48,
          "midi": 42,
          "name": "F#2",
          "ticks": 24780,
          "time": 86.64327,
          "velocity": 0.6299212598425197
        },
        {
          "duration": 0.1678320000000042,
          "durationTicks": 48,
          "midi": 42,
          "name": "F#2",
          "ticks": 24840,
          "time": 86.85306,
          "velocity": 0.6299212598425197
        },
        {
          "duration": 0.3356640000000084,
          "durationTicks": 96,
          "midi": 40,
          "name": "E2",
          "ticks": 24960,
          "time": 87.27264,
          "velocity": 0.6299212598425197
        },
        {
          "duration": 0.1678320000000042,
          "durationTicks": 48,
          "midi": 40,
          "name": "E2",
          "ticks": 25080,
          "time": 87.69222,
          "velocity": 0.6299212598425197
        },
        {
          "duration": 0.8811180000000007,
          "durationTicks": 252,
          "midi": 42,
          "name": "F#2",
          "ticks": 25140,
          "time": 87.90201,
          "velocity": 0.6299212598425197
        },
        {
          "duration": 0.1678320000000042,
          "durationTicks": 48,
          "midi": 44,
          "name": "G#2",
          "ticks": 25440,
          "time": 88.95096,
          "velocity": 0.6299212598425197
        },
        {
          "duration": 0.37762200000000234,
          "durationTicks": 108,
          "midi": 44,
          "name": "G#2",
          "ticks": 25500,
          "time": 89.16075000000001,
          "velocity": 0.6299212598425197
        },
        {
          "duration": 0.3356640000000084,
          "durationTicks": 96,
          "midi": 45,
          "name": "A2",
          "ticks": 25620,
          "time": 89.58033,
          "velocity": 0.6299212598425197
        },
        {
          "duration": 0.1678320000000042,
          "durationTicks": 48,
          "midi": 45,
          "name": "A2",
          "ticks": 25740,
          "time": 89.99991,
          "velocity": 0.6299212598425197
        },
        {
          "duration": 0.1678320000000042,
          "durationTicks": 48,
          "midi": 45,
          "name": "A2",
          "ticks": 25800,
          "time": 90.2097,
          "velocity": 0.6299212598425197
        },
        {
          "duration": 0.3356639999999942,
          "durationTicks": 96,
          "midi": 40,
          "name": "E2",
          "ticks": 25920,
          "time": 90.62928000000001,
          "velocity": 0.6299212598425197
        },
        {
          "duration": 0.1678320000000042,
          "durationTicks": 48,
          "midi": 40,
          "name": "E2",
          "ticks": 26040,
          "time": 91.04886,
          "velocity": 0.6299212598425197
        },
        {
          "duration": 0.8811180000000007,
          "durationTicks": 252,
          "midi": 42,
          "name": "F#2",
          "ticks": 26100,
          "time": 91.25865,
          "velocity": 0.6299212598425197
        },
        {
          "duration": 0.16783199999999,
          "durationTicks": 48,
          "midi": 44,
          "name": "G#2",
          "ticks": 26400,
          "time": 92.30760000000001,
          "velocity": 0.6299212598425197
        },
        {
          "duration": 0.37762200000000234,
          "durationTicks": 108,
          "midi": 44,
          "name": "G#2",
          "ticks": 26460,
          "time": 92.51739,
          "velocity": 0.6299212598425197
        },
        {
          "duration": 0.3356640000000084,
          "durationTicks": 96,
          "midi": 42,
          "name": "F#2",
          "ticks": 26580,
          "time": 92.93697,
          "velocity": 0.6299212598425197
        },
        {
          "duration": 0.1678320000000042,
          "durationTicks": 48,
          "midi": 42,
          "name": "F#2",
          "ticks": 26700,
          "time": 93.35655,
          "velocity": 0.6299212598425197
        },
        {
          "duration": 0.1678320000000042,
          "durationTicks": 48,
          "midi": 42,
          "name": "F#2",
          "ticks": 26760,
          "time": 93.56634,
          "velocity": 0.6299212598425197
        },
        {
          "duration": 0.3356639999999942,
          "durationTicks": 96,
          "midi": 40,
          "name": "E2",
          "ticks": 26880,
          "time": 93.98592000000001,
          "velocity": 0.6299212598425197
        },
        {
          "duration": 0.1678320000000042,
          "durationTicks": 48,
          "midi": 40,
          "name": "E2",
          "ticks": 27000,
          "time": 94.4055,
          "velocity": 0.6299212598425197
        },
        {
          "duration": 0.8811180000000007,
          "durationTicks": 252,
          "midi": 42,
          "name": "F#2",
          "ticks": 27060,
          "time": 94.61529,
          "velocity": 0.6299212598425197
        },
        {
          "duration": 0.1678320000000042,
          "durationTicks": 48,
          "midi": 44,
          "name": "G#2",
          "ticks": 27360,
          "time": 95.66424,
          "velocity": 0.6299212598425197
        },
        {
          "duration": 0.37762200000000234,
          "durationTicks": 108,
          "midi": 44,
          "name": "G#2",
          "ticks": 27420,
          "time": 95.87403,
          "velocity": 0.6299212598425197
        },
        {
          "duration": 0.3356640000000084,
          "durationTicks": 96,
          "midi": 45,
          "name": "A2",
          "ticks": 27540,
          "time": 96.29361,
          "velocity": 0.6299212598425197
        },
        {
          "duration": 0.1678320000000042,
          "durationTicks": 48,
          "midi": 45,
          "name": "A2",
          "ticks": 27660,
          "time": 96.71319,
          "velocity": 0.6299212598425197
        },
        {
          "duration": 0.1678320000000042,
          "durationTicks": 48,
          "midi": 45,
          "name": "A2",
          "ticks": 27720,
          "time": 96.92298,
          "velocity": 0.6299212598425197
        },
        {
          "duration": 0.3356639999999942,
          "durationTicks": 96,
          "midi": 40,
          "name": "E2",
          "ticks": 27840,
          "time": 97.34256,
          "velocity": 0.6299212598425197
        },
        {
          "duration": 0.1678320000000042,
          "durationTicks": 48,
          "midi": 40,
          "name": "E2",
          "ticks": 27960,
          "time": 97.76214,
          "velocity": 0.6299212598425197
        },
        {
          "duration": 0.8811180000000007,
          "durationTicks": 252,
          "midi": 42,
          "name": "F#2",
          "ticks": 28020,
          "time": 97.97193,
          "velocity": 0.6299212598425197
        },
        {
          "duration": 0.1678320000000042,
          "durationTicks": 48,
          "midi": 44,
          "name": "G#2",
          "ticks": 28320,
          "time": 99.02088,
          "velocity": 0.6299212598425197
        },
        {
          "duration": 0.37762200000000234,
          "durationTicks": 108,
          "midi": 44,
          "name": "G#2",
          "ticks": 28380,
          "time": 99.23067,
          "velocity": 0.6299212598425197
        },
        {
          "duration": 0.3356640000000084,
          "durationTicks": 96,
          "midi": 42,
          "name": "F#2",
          "ticks": 28500,
          "time": 99.65025,
          "velocity": 0.6299212598425197
        },
        {
          "duration": 0.1678320000000042,
          "durationTicks": 48,
          "midi": 42,
          "name": "F#2",
          "ticks": 28620,
          "time": 100.06983,
          "velocity": 0.6299212598425197
        },
        {
          "duration": 0.16783199999999,
          "durationTicks": 48,
          "midi": 42,
          "name": "F#2",
          "ticks": 28680,
          "time": 100.27962000000001,
          "velocity": 0.6299212598425197
        },
        {
          "duration": 0.3356640000000084,
          "durationTicks": 96,
          "midi": 40,
          "name": "E2",
          "ticks": 28800,
          "time": 100.6992,
          "velocity": 0.6299212598425197
        },
        {
          "duration": 0.1678320000000042,
          "durationTicks": 48,
          "midi": 40,
          "name": "E2",
          "ticks": 28920,
          "time": 101.11878,
          "velocity": 0.6299212598425197
        },
        {
          "duration": 0.8811180000000007,
          "durationTicks": 252,
          "midi": 42,
          "name": "F#2",
          "ticks": 28980,
          "time": 101.32857,
          "velocity": 0.6299212598425197
        },
        {
          "duration": 0.1678320000000042,
          "durationTicks": 48,
          "midi": 44,
          "name": "G#2",
          "ticks": 29280,
          "time": 102.37752,
          "velocity": 0.6299212598425197
        },
        {
          "duration": 0.37762200000000234,
          "durationTicks": 108,
          "midi": 44,
          "name": "G#2",
          "ticks": 29340,
          "time": 102.58731,
          "velocity": 0.6299212598425197
        },
        {
          "duration": 0.3356640000000084,
          "durationTicks": 96,
          "midi": 45,
          "name": "A2",
          "ticks": 29460,
          "time": 103.00689,
          "velocity": 0.6299212598425197
        },
        {
          "duration": 0.16783199999999,
          "durationTicks": 48,
          "midi": 45,
          "name": "A2",
          "ticks": 29580,
          "time": 103.42647000000001,
          "velocity": 0.6299212598425197
        },
        {
          "duration": 0.1678320000000042,
          "durationTicks": 48,
          "midi": 45,
          "name": "A2",
          "ticks": 29640,
          "time": 103.63626000000001,
          "velocity": 0.6299212598425197
        },
        {
          "duration": 0.3356640000000084,
          "durationTicks": 96,
          "midi": 40,
          "name": "E2",
          "ticks": 29760,
          "time": 104.05584,
          "velocity": 0.6299212598425197
        },
        {
          "duration": 0.1678320000000042,
          "durationTicks": 48,
          "midi": 40,
          "name": "E2",
          "ticks": 29880,
          "time": 104.47542,
          "velocity": 0.6299212598425197
        },
        {
          "duration": 0.8811180000000007,
          "durationTicks": 252,
          "midi": 42,
          "name": "F#2",
          "ticks": 29940,
          "time": 104.68521,
          "velocity": 0.6299212598425197
        },
        {
          "duration": 0.1678320000000042,
          "durationTicks": 48,
          "midi": 44,
          "name": "G#2",
          "ticks": 30240,
          "time": 105.73416,
          "velocity": 0.6299212598425197
        },
        {
          "duration": 0.37762200000000234,
          "durationTicks": 108,
          "midi": 44,
          "name": "G#2",
          "ticks": 30300,
          "time": 105.94395,
          "velocity": 0.6299212598425197
        },
        {
          "duration": 0.3356640000000084,
          "durationTicks": 96,
          "midi": 42,
          "name": "F#2",
          "ticks": 30420,
          "time": 106.36353,
          "velocity": 0.6299212598425197
        },
        {
          "duration": 0.16783199999999,
          "durationTicks": 48,
          "midi": 42,
          "name": "F#2",
          "ticks": 30540,
          "time": 106.78311000000001,
          "velocity": 0.6299212598425197
        },
        {
          "duration": 0.1678320000000042,
          "durationTicks": 48,
          "midi": 42,
          "name": "F#2",
          "ticks": 30600,
          "time": 106.9929,
          "velocity": 0.6299212598425197
        },
        {
          "duration": 0.3356640000000084,
          "durationTicks": 96,
          "midi": 40,
          "name": "E2",
          "ticks": 30720,
          "time": 107.41248,
          "velocity": 0.6299212598425197
        },
        {
          "duration": 0.16783199999999,
          "durationTicks": 48,
          "midi": 40,
          "name": "E2",
          "ticks": 30840,
          "time": 107.83206,
          "velocity": 0.6299212598425197
        },
        {
          "duration": 0.881118000000015,
          "durationTicks": 252,
          "midi": 42,
          "name": "F#2",
          "ticks": 30900,
          "time": 108.04185,
          "velocity": 0.6299212598425197
        },
        {
          "duration": 0.16783199999999,
          "durationTicks": 48,
          "midi": 44,
          "name": "G#2",
          "ticks": 31200,
          "time": 109.0908,
          "velocity": 0.6299212598425197
        },
        {
          "duration": 0.37762199999998813,
          "durationTicks": 108,
          "midi": 44,
          "name": "G#2",
          "ticks": 31260,
          "time": 109.30059,
          "velocity": 0.6299212598425197
        },
        {
          "duration": 0.3356640000000084,
          "durationTicks": 96,
          "midi": 45,
          "name": "A2",
          "ticks": 31380,
          "time": 109.72017,
          "velocity": 0.6299212598425197
        },
        {
          "duration": 0.16783199999999,
          "durationTicks": 48,
          "midi": 45,
          "name": "A2",
          "ticks": 31500,
          "time": 110.13975,
          "velocity": 0.6299212598425197
        },
        {
          "duration": 0.16783199999999,
          "durationTicks": 48,
          "midi": 45,
          "name": "A2",
          "ticks": 31560,
          "time": 110.34954,
          "velocity": 0.6299212598425197
        },
        {
          "duration": 0.3356640000000084,
          "durationTicks": 96,
          "midi": 40,
          "name": "E2",
          "ticks": 31680,
          "time": 110.76912,
          "velocity": 0.6299212598425197
        },
        {
          "duration": 0.16783199999999,
          "durationTicks": 48,
          "midi": 40,
          "name": "E2",
          "ticks": 31800,
          "time": 111.1887,
          "velocity": 0.6299212598425197
        },
        {
          "duration": 0.881118000000015,
          "durationTicks": 252,
          "midi": 42,
          "name": "F#2",
          "ticks": 31860,
          "time": 111.39849,
          "velocity": 0.6299212598425197
        },
        {
          "duration": 0.16783199999999,
          "durationTicks": 48,
          "midi": 44,
          "name": "G#2",
          "ticks": 32160,
          "time": 112.44744,
          "velocity": 0.6299212598425197
        },
        {
          "duration": 0.37762199999998813,
          "durationTicks": 108,
          "midi": 44,
          "name": "G#2",
          "ticks": 32220,
          "time": 112.65723,
          "velocity": 0.6299212598425197
        },
        {
          "duration": 0.3356639999999942,
          "durationTicks": 96,
          "midi": 42,
          "name": "F#2",
          "ticks": 32340,
          "time": 113.07681000000001,
          "velocity": 0.6299212598425197
        },
        {
          "duration": 0.16783199999999,
          "durationTicks": 48,
          "midi": 42,
          "name": "F#2",
          "ticks": 32460,
          "time": 113.49639,
          "velocity": 0.6299212598425197
        },
        {
          "duration": 0.16783199999999,
          "durationTicks": 48,
          "midi": 42,
          "name": "F#2",
          "ticks": 32520,
          "time": 113.70618,
          "velocity": 0.6299212598425197
        },
        {
          "duration": 0.3356640000000084,
          "durationTicks": 96,
          "midi": 40,
          "name": "E2",
          "ticks": 32640,
          "time": 114.12576,
          "velocity": 0.6299212598425197
        },
        {
          "duration": 0.16783199999999,
          "durationTicks": 48,
          "midi": 40,
          "name": "E2",
          "ticks": 32760,
          "time": 114.54534,
          "velocity": 0.6299212598425197
        },
        {
          "duration": 0.8811180000000007,
          "durationTicks": 252,
          "midi": 42,
          "name": "F#2",
          "ticks": 32820,
          "time": 114.75513000000001,
          "velocity": 0.6299212598425197
        },
        {
          "duration": 0.16783199999999,
          "durationTicks": 48,
          "midi": 44,
          "name": "G#2",
          "ticks": 33120,
          "time": 115.80408,
          "velocity": 0.6299212598425197
        },
        {
          "duration": 0.37762200000000234,
          "durationTicks": 108,
          "midi": 44,
          "name": "G#2",
          "ticks": 33180,
          "time": 116.01387,
          "velocity": 0.6299212598425197
        },
        {
          "duration": 0.3356639999999942,
          "durationTicks": 96,
          "midi": 45,
          "name": "A2",
          "ticks": 33300,
          "time": 116.43345000000001,
          "velocity": 0.6299212598425197
        },
        {
          "duration": 0.16783199999999,
          "durationTicks": 48,
          "midi": 45,
          "name": "A2",
          "ticks": 33420,
          "time": 116.85303,
          "velocity": 0.6299212598425197
        },
        {
          "duration": 0.16783199999999,
          "durationTicks": 48,
          "midi": 45,
          "name": "A2",
          "ticks": 33480,
          "time": 117.06282,
          "velocity": 0.6299212598425197
        },
        {
          "duration": 0.5034959999999984,
          "durationTicks": 144,
          "midi": 40,
          "name": "E2",
          "ticks": 33600,
          "time": 117.4824,
          "velocity": 0.6299212598425197
        },
        {
          "duration": 2.559438,
          "durationTicks": 732,
          "midi": 42,
          "name": "F#2",
          "ticks": 33780,
          "time": 118.11177,
          "velocity": 0.6299212598425197
        },
        {
          "duration": 0.16783199999999,
          "durationTicks": 48,
          "midi": 44,
          "name": "G#2",
          "ticks": 34560,
          "time": 120.83904,
          "velocity": 0.6299212598425197
        },
        {
          "duration": 0.16783199999999,
          "durationTicks": 48,
          "midi": 47,
          "name": "B2",
          "ticks": 34620,
          "time": 121.04883000000001,
          "velocity": 0.6299212598425197
        },
        {
          "duration": 0.16783199999999,
          "durationTicks": 48,
          "midi": 52,
          "name": "E3",
          "ticks": 34680,
          "time": 121.25862000000001,
          "velocity": 0.6299212598425197
        },
        {
          "duration": 0.16783199999999,
          "durationTicks": 48,
          "midi": 44,
          "name": "G#2",
          "ticks": 34740,
          "time": 121.46841,
          "velocity": 0.6299212598425197
        },
        {
          "duration": 0.16783199999999,
          "durationTicks": 48,
          "midi": 47,
          "name": "B2",
          "ticks": 34800,
          "time": 121.6782,
          "velocity": 0.6299212598425197
        },
        {
          "duration": 0.16783199999999,
          "durationTicks": 48,
          "midi": 52,
          "name": "E3",
          "ticks": 34860,
          "time": 121.88799,
          "velocity": 0.6299212598425197
        },
        {
          "duration": 0.16783199999999,
          "durationTicks": 48,
          "midi": 44,
          "name": "G#2",
          "ticks": 34920,
          "time": 122.09778,
          "velocity": 0.6299212598425197
        },
        {
          "duration": 0.16783199999999,
          "durationTicks": 48,
          "midi": 47,
          "name": "B2",
          "ticks": 34980,
          "time": 122.30757,
          "velocity": 0.6299212598425197
        },
        {
          "duration": 0.16783199999999,
          "durationTicks": 48,
          "midi": 52,
          "name": "E3",
          "ticks": 35040,
          "time": 122.51736,
          "velocity": 0.6299212598425197
        },
        {
          "duration": 0.16783199999999,
          "durationTicks": 48,
          "midi": 44,
          "name": "G#2",
          "ticks": 35100,
          "time": 122.72715000000001,
          "velocity": 0.6299212598425197
        },
        {
          "duration": 0.16783199999999,
          "durationTicks": 48,
          "midi": 47,
          "name": "B2",
          "ticks": 35160,
          "time": 122.93694,
          "velocity": 0.6299212598425197
        },
        {
          "duration": 0.16783199999999,
          "durationTicks": 48,
          "midi": 52,
          "name": "E3",
          "ticks": 35220,
          "time": 123.14673,
          "velocity": 0.6299212598425197
        },
        {
          "duration": 0.16783199999999,
          "durationTicks": 48,
          "midi": 44,
          "name": "G#2",
          "ticks": 35280,
          "time": 123.35652,
          "velocity": 0.6299212598425197
        },
        {
          "duration": 0.16783199999999,
          "durationTicks": 48,
          "midi": 47,
          "name": "B2",
          "ticks": 35340,
          "time": 123.56631,
          "velocity": 0.6299212598425197
        },
        {
          "duration": 0.16783199999999,
          "durationTicks": 48,
          "midi": 52,
          "name": "E3",
          "ticks": 35400,
          "time": 123.7761,
          "velocity": 0.6299212598425197
        },
        {
          "duration": 0.3356640000000084,
          "durationTicks": 96,
          "midi": 40,
          "name": "E2",
          "ticks": 35520,
          "time": 124.19568,
          "velocity": 0.6299212598425197
        },
        {
          "duration": 0.16783199999999,
          "durationTicks": 48,
          "midi": 40,
          "name": "E2",
          "ticks": 35640,
          "time": 124.61526,
          "velocity": 0.6299212598425197
        },
        {
          "duration": 0.8811180000000007,
          "durationTicks": 252,
          "midi": 42,
          "name": "F#2",
          "ticks": 35700,
          "time": 124.82505,
          "velocity": 0.6299212598425197
        },
        {
          "duration": 0.16783199999999,
          "durationTicks": 48,
          "midi": 44,
          "name": "G#2",
          "ticks": 36000,
          "time": 125.87400000000001,
          "velocity": 0.6299212598425197
        },
        {
          "duration": 0.37762199999998813,
          "durationTicks": 108,
          "midi": 44,
          "name": "G#2",
          "ticks": 36060,
          "time": 126.08379000000001,
          "velocity": 0.6299212598425197
        },
        {
          "duration": 0.3356640000000084,
          "durationTicks": 96,
          "midi": 45,
          "name": "A2",
          "ticks": 36180,
          "time": 126.50337,
          "velocity": 0.6299212598425197
        },
        {
          "duration": 0.16783199999999,
          "durationTicks": 48,
          "midi": 45,
          "name": "A2",
          "ticks": 36300,
          "time": 126.92295,
          "velocity": 0.6299212598425197
        },
        {
          "duration": 0.16783199999999,
          "durationTicks": 48,
          "midi": 45,
          "name": "A2",
          "ticks": 36360,
          "time": 127.13274,
          "velocity": 0.6299212598425197
        },
        {
          "duration": 0.3356639999999942,
          "durationTicks": 96,
          "midi": 40,
          "name": "E2",
          "ticks": 36480,
          "time": 127.55232000000001,
          "velocity": 0.6299212598425197
        },
        {
          "duration": 0.16783199999997578,
          "durationTicks": 48,
          "midi": 40,
          "name": "E2",
          "ticks": 36600,
          "time": 127.9719,
          "velocity": 0.6299212598425197
        },
        {
          "duration": 0.881118000000015,
          "durationTicks": 252,
          "midi": 42,
          "name": "F#2",
          "ticks": 36660,
          "time": 128.18169,
          "velocity": 0.6299212598425197
        },
        {
          "duration": 0.1678320000000042,
          "durationTicks": 48,
          "midi": 44,
          "name": "G#2",
          "ticks": 36960,
          "time": 129.23064,
          "velocity": 0.6299212598425197
        },
        {
          "duration": 0.37762200000000234,
          "durationTicks": 108,
          "midi": 44,
          "name": "G#2",
          "ticks": 37020,
          "time": 129.44043,
          "velocity": 0.6299212598425197
        },
        {
          "duration": 0.33566399999998,
          "durationTicks": 96,
          "midi": 42,
          "name": "F#2",
          "ticks": 37140,
          "time": 129.86001000000002,
          "velocity": 0.6299212598425197
        },
        {
          "duration": 0.16783199999997578,
          "durationTicks": 48,
          "midi": 42,
          "name": "F#2",
          "ticks": 37260,
          "time": 130.27959,
          "velocity": 0.6299212598425197
        },
        {
          "duration": 0.16783199999997578,
          "durationTicks": 48,
          "midi": 42,
          "name": "F#2",
          "ticks": 37320,
          "time": 130.48938,
          "velocity": 0.6299212598425197
        },
        {
          "duration": 0.3356640000000084,
          "durationTicks": 96,
          "midi": 40,
          "name": "E2",
          "ticks": 37440,
          "time": 130.90896,
          "velocity": 0.6299212598425197
        },
        {
          "duration": 0.16783199999997578,
          "durationTicks": 48,
          "midi": 40,
          "name": "E2",
          "ticks": 37560,
          "time": 131.32854,
          "velocity": 0.6299212598425197
        },
        {
          "duration": 0.881118000000015,
          "durationTicks": 252,
          "midi": 42,
          "name": "F#2",
          "ticks": 37620,
          "time": 131.53833,
          "velocity": 0.6299212598425197
        },
        {
          "duration": 0.1678320000000042,
          "durationTicks": 48,
          "midi": 44,
          "name": "G#2",
          "ticks": 37920,
          "time": 132.58728,
          "velocity": 0.6299212598425197
        },
        {
          "duration": 0.37762200000000234,
          "durationTicks": 108,
          "midi": 44,
          "name": "G#2",
          "ticks": 37980,
          "time": 132.79707,
          "velocity": 0.6299212598425197
        },
        {
          "duration": 0.33566399999998,
          "durationTicks": 96,
          "midi": 45,
          "name": "A2",
          "ticks": 38100,
          "time": 133.21665000000002,
          "velocity": 0.6299212598425197
        },
        {
          "duration": 0.16783199999997578,
          "durationTicks": 48,
          "midi": 45,
          "name": "A2",
          "ticks": 38220,
          "time": 133.63623,
          "velocity": 0.6299212598425197
        },
        {
          "duration": 0.16783199999997578,
          "durationTicks": 48,
          "midi": 45,
          "name": "A2",
          "ticks": 38280,
          "time": 133.84602,
          "velocity": 0.6299212598425197
        },
        {
          "duration": 0.3356640000000084,
          "durationTicks": 96,
          "midi": 40,
          "name": "E2",
          "ticks": 38400,
          "time": 134.2656,
          "velocity": 0.6299212598425197
        },
        {
          "duration": 0.1678320000000042,
          "durationTicks": 48,
          "midi": 40,
          "name": "E2",
          "ticks": 38520,
          "time": 134.68518,
          "velocity": 0.6299212598425197
        },
        {
          "duration": 0.881118000000015,
          "durationTicks": 252,
          "midi": 42,
          "name": "F#2",
          "ticks": 38580,
          "time": 134.89497,
          "velocity": 0.6299212598425197
        },
        {
          "duration": 0.1678320000000042,
          "durationTicks": 48,
          "midi": 44,
          "name": "G#2",
          "ticks": 38880,
          "time": 135.94392,
          "velocity": 0.6299212598425197
        },
        {
          "duration": 0.37762200000000234,
          "durationTicks": 108,
          "midi": 44,
          "name": "G#2",
          "ticks": 38940,
          "time": 136.15371,
          "velocity": 0.6299212598425197
        },
        {
          "duration": 0.33566399999998,
          "durationTicks": 96,
          "midi": 42,
          "name": "F#2",
          "ticks": 39060,
          "time": 136.57329000000001,
          "velocity": 0.6299212598425197
        },
        {
          "duration": 0.16783199999997578,
          "durationTicks": 48,
          "midi": 42,
          "name": "F#2",
          "ticks": 39180,
          "time": 136.99287,
          "velocity": 0.6299212598425197
        },
        {
          "duration": 0.16783199999997578,
          "durationTicks": 48,
          "midi": 42,
          "name": "F#2",
          "ticks": 39240,
          "time": 137.20266,
          "velocity": 0.6299212598425197
        },
        {
          "duration": 0.3356640000000084,
          "durationTicks": 96,
          "midi": 40,
          "name": "E2",
          "ticks": 39360,
          "time": 137.62224,
          "velocity": 0.6299212598425197
        },
        {
          "duration": 0.1678320000000042,
          "durationTicks": 48,
          "midi": 40,
          "name": "E2",
          "ticks": 39480,
          "time": 138.04182,
          "velocity": 0.6299212598425197
        },
        {
          "duration": 0.881118000000015,
          "durationTicks": 252,
          "midi": 42,
          "name": "F#2",
          "ticks": 39540,
          "time": 138.25161,
          "velocity": 0.6299212598425197
        },
        {
          "duration": 0.1678320000000042,
          "durationTicks": 48,
          "midi": 44,
          "name": "G#2",
          "ticks": 39840,
          "time": 139.30056,
          "velocity": 0.6299212598425197
        },
        {
          "duration": 0.3776219999999739,
          "durationTicks": 108,
          "midi": 44,
          "name": "G#2",
          "ticks": 39900,
          "time": 139.51035000000002,
          "velocity": 0.6299212598425197
        },
        {
          "duration": 0.3356640000000084,
          "durationTicks": 96,
          "midi": 45,
          "name": "A2",
          "ticks": 40020,
          "time": 139.92993,
          "velocity": 0.6299212598425197
        },
        {
          "duration": 0.16783199999997578,
          "durationTicks": 48,
          "midi": 45,
          "name": "A2",
          "ticks": 40140,
          "time": 140.34951,
          "velocity": 0.6299212598425197
        },
        {
          "duration": 0.16783199999997578,
          "durationTicks": 48,
          "midi": 45,
          "name": "A2",
          "ticks": 40200,
          "time": 140.5593,
          "velocity": 0.6299212598425197
        },
        {
          "duration": 0.3356640000000084,
          "durationTicks": 96,
          "midi": 40,
          "name": "E2",
          "ticks": 40320,
          "time": 140.97888,
          "velocity": 0.6299212598425197
        },
        {
          "duration": 0.1678320000000042,
          "durationTicks": 48,
          "midi": 40,
          "name": "E2",
          "ticks": 40440,
          "time": 141.39846,
          "velocity": 0.6299212598425197
        },
        {
          "duration": 0.881118000000015,
          "durationTicks": 252,
          "midi": 42,
          "name": "F#2",
          "ticks": 40500,
          "time": 141.60825,
          "velocity": 0.6299212598425197
        },
        {
          "duration": 0.1678320000000042,
          "durationTicks": 48,
          "midi": 44,
          "name": "G#2",
          "ticks": 40800,
          "time": 142.6572,
          "velocity": 0.6299212598425197
        },
        {
          "duration": 0.3776219999999739,
          "durationTicks": 108,
          "midi": 44,
          "name": "G#2",
          "ticks": 40860,
          "time": 142.86699000000002,
          "velocity": 0.6299212598425197
        },
        {
          "duration": 0.3356640000000084,
          "durationTicks": 96,
          "midi": 42,
          "name": "F#2",
          "ticks": 40980,
          "time": 143.28657,
          "velocity": 0.6299212598425197
        },
        {
          "duration": 0.16783199999997578,
          "durationTicks": 48,
          "midi": 42,
          "name": "F#2",
          "ticks": 41100,
          "time": 143.70615,
          "velocity": 0.6299212598425197
        },
        {
          "duration": 0.16783199999997578,
          "durationTicks": 48,
          "midi": 42,
          "name": "F#2",
          "ticks": 41160,
          "time": 143.91594,
          "velocity": 0.6299212598425197
        },
        {
          "duration": 0.3356640000000084,
          "durationTicks": 96,
          "midi": 40,
          "name": "E2",
          "ticks": 41280,
          "time": 144.33552,
          "velocity": 0.6299212598425197
        },
        {
          "duration": 0.1678320000000042,
          "durationTicks": 48,
          "midi": 40,
          "name": "E2",
          "ticks": 41400,
          "time": 144.7551,
          "velocity": 0.6299212598425197
        },
        {
          "duration": 0.881118000000015,
          "durationTicks": 252,
          "midi": 42,
          "name": "F#2",
          "ticks": 41460,
          "time": 144.96489,
          "velocity": 0.6299212598425197
        },
        {
          "duration": 0.16783199999997578,
          "durationTicks": 48,
          "midi": 44,
          "name": "G#2",
          "ticks": 41760,
          "time": 146.01384000000002,
          "velocity": 0.6299212598425197
        },
        {
          "duration": 0.3776219999999739,
          "durationTicks": 108,
          "midi": 44,
          "name": "G#2",
          "ticks": 41820,
          "time": 146.22363,
          "velocity": 0.6299212598425197
        },
        {
          "duration": 0.3356640000000084,
          "durationTicks": 96,
          "midi": 45,
          "name": "A2",
          "ticks": 41940,
          "time": 146.64321,
          "velocity": 0.6299212598425197
        },
        {
          "duration": 0.16783199999997578,
          "durationTicks": 48,
          "midi": 45,
          "name": "A2",
          "ticks": 42060,
          "time": 147.06279,
          "velocity": 0.6299212598425197
        },
        {
          "duration": 0.16783199999997578,
          "durationTicks": 48,
          "midi": 45,
          "name": "A2",
          "ticks": 42120,
          "time": 147.27258,
          "velocity": 0.6299212598425197
        },
        {
          "duration": 0.3356640000000084,
          "durationTicks": 96,
          "midi": 40,
          "name": "E2",
          "ticks": 42240,
          "time": 147.69216,
          "velocity": 0.6299212598425197
        },
        {
          "duration": 0.1678320000000042,
          "durationTicks": 48,
          "midi": 40,
          "name": "E2",
          "ticks": 42360,
          "time": 148.11174,
          "velocity": 0.6299212598425197
        },
        {
          "duration": 0.881118000000015,
          "durationTicks": 252,
          "midi": 42,
          "name": "F#2",
          "ticks": 42420,
          "time": 148.32153,
          "velocity": 0.6299212598425197
        },
        {
          "duration": 0.16783199999997578,
          "durationTicks": 48,
          "midi": 44,
          "name": "G#2",
          "ticks": 42720,
          "time": 149.37048000000001,
          "velocity": 0.6299212598425197
        },
        {
          "duration": 0.3776219999999739,
          "durationTicks": 108,
          "midi": 44,
          "name": "G#2",
          "ticks": 42780,
          "time": 149.58027,
          "velocity": 0.6299212598425197
        },
        {
          "duration": 0.3356640000000084,
          "durationTicks": 96,
          "midi": 42,
          "name": "F#2",
          "ticks": 42900,
          "time": 149.99985,
          "velocity": 0.6299212598425197
        },
        {
          "duration": 0.16783199999997578,
          "durationTicks": 48,
          "midi": 42,
          "name": "F#2",
          "ticks": 43020,
          "time": 150.41943,
          "velocity": 0.6299212598425197
        },
        {
          "duration": 0.16783199999997578,
          "durationTicks": 48,
          "midi": 42,
          "name": "F#2",
          "ticks": 43080,
          "time": 150.62922,
          "velocity": 0.6299212598425197
        },
        {
          "duration": 0.3356640000000084,
          "durationTicks": 96,
          "midi": 40,
          "name": "E2",
          "ticks": 43200,
          "time": 151.0488,
          "velocity": 0.6299212598425197
        },
        {
          "duration": 0.1678320000000042,
          "durationTicks": 48,
          "midi": 40,
          "name": "E2",
          "ticks": 43320,
          "time": 151.46838,
          "velocity": 0.6299212598425197
        },
        {
          "duration": 0.881118000000015,
          "durationTicks": 252,
          "midi": 42,
          "name": "F#2",
          "ticks": 43380,
          "time": 151.67817,
          "velocity": 0.6299212598425197
        },
        {
          "duration": 0.16783199999997578,
          "durationTicks": 48,
          "midi": 44,
          "name": "G#2",
          "ticks": 43680,
          "time": 152.72712,
          "velocity": 0.6299212598425197
        },
        {
          "duration": 0.3776219999999739,
          "durationTicks": 108,
          "midi": 44,
          "name": "G#2",
          "ticks": 43740,
          "time": 152.93691,
          "velocity": 0.6299212598425197
        },
        {
          "duration": 0.3356640000000084,
          "durationTicks": 96,
          "midi": 45,
          "name": "A2",
          "ticks": 43860,
          "time": 153.35649,
          "velocity": 0.6299212598425197
        },
        {
          "duration": 0.16783199999997578,
          "durationTicks": 48,
          "midi": 45,
          "name": "A2",
          "ticks": 43980,
          "time": 153.77607,
          "velocity": 0.6299212598425197
        },
        {
          "duration": 0.1678320000000042,
          "durationTicks": 48,
          "midi": 45,
          "name": "A2",
          "ticks": 44040,
          "time": 153.98586,
          "velocity": 0.6299212598425197
        },
        {
          "duration": 0.3356640000000084,
          "durationTicks": 96,
          "midi": 40,
          "name": "E2",
          "ticks": 44160,
          "time": 154.40544,
          "velocity": 0.6299212598425197
        },
        {
          "duration": 0.1678320000000042,
          "durationTicks": 48,
          "midi": 40,
          "name": "E2",
          "ticks": 44280,
          "time": 154.82502,
          "velocity": 0.6299212598425197
        },
        {
          "duration": 0.881118000000015,
          "durationTicks": 252,
          "midi": 42,
          "name": "F#2",
          "ticks": 44340,
          "time": 155.03481,
          "velocity": 0.6299212598425197
        },
        {
          "duration": 0.16783199999997578,
          "durationTicks": 48,
          "midi": 44,
          "name": "G#2",
          "ticks": 44640,
          "time": 156.08376,
          "velocity": 0.6299212598425197
        },
        {
          "duration": 0.3776219999999739,
          "durationTicks": 108,
          "midi": 44,
          "name": "G#2",
          "ticks": 44700,
          "time": 156.29355,
          "velocity": 0.6299212598425197
        },
        {
          "duration": 0.3356640000000084,
          "durationTicks": 96,
          "midi": 42,
          "name": "F#2",
          "ticks": 44820,
          "time": 156.71313,
          "velocity": 0.6299212598425197
        },
        {
          "duration": 0.1678320000000042,
          "durationTicks": 48,
          "midi": 42,
          "name": "F#2",
          "ticks": 44940,
          "time": 157.13271,
          "velocity": 0.6299212598425197
        },
        {
          "duration": 0.1678320000000042,
          "durationTicks": 48,
          "midi": 42,
          "name": "F#2",
          "ticks": 45000,
          "time": 157.3425,
          "velocity": 0.6299212598425197
        },
        {
          "duration": 0.3356640000000084,
          "durationTicks": 96,
          "midi": 40,
          "name": "E2",
          "ticks": 45120,
          "time": 157.76208,
          "velocity": 0.6299212598425197
        },
        {
          "duration": 0.1678320000000042,
          "durationTicks": 48,
          "midi": 40,
          "name": "E2",
          "ticks": 45240,
          "time": 158.18166,
          "velocity": 0.6299212598425197
        },
        {
          "duration": 0.881118000000015,
          "durationTicks": 252,
          "midi": 42,
          "name": "F#2",
          "ticks": 45300,
          "time": 158.39145,
          "velocity": 0.6299212598425197
        },
        {
          "duration": 0.16783199999997578,
          "durationTicks": 48,
          "midi": 44,
          "name": "G#2",
          "ticks": 45600,
          "time": 159.4404,
          "velocity": 0.6299212598425197
        },
        {
          "duration": 0.3776219999999739,
          "durationTicks": 108,
          "midi": 44,
          "name": "G#2",
          "ticks": 45660,
          "time": 159.65019,
          "velocity": 0.6299212598425197
        },
        {
          "duration": 0.3356640000000084,
          "durationTicks": 96,
          "midi": 45,
          "name": "A2",
          "ticks": 45780,
          "time": 160.06977,
          "velocity": 0.6299212598425197
        },
        {
          "duration": 0.1678320000000042,
          "durationTicks": 48,
          "midi": 45,
          "name": "A2",
          "ticks": 45900,
          "time": 160.48935,
          "velocity": 0.6299212598425197
        },
        {
          "duration": 0.1678320000000042,
          "durationTicks": 48,
          "midi": 45,
          "name": "A2",
          "ticks": 45960,
          "time": 160.69914,
          "velocity": 0.6299212598425197
        },
        {
          "duration": 0.5034960000000126,
          "durationTicks": 144,
          "midi": 40,
          "name": "E2",
          "ticks": 46080,
          "time": 161.11872,
          "velocity": 0.6299212598425197
        },
        {
          "duration": 4.0699260000000095,
          "durationTicks": 1164,
          "midi": 42,
          "name": "F#2",
          "ticks": 46260,
          "time": 161.74809,
          "velocity": 0.6299212598425197
        }
      ],
      "endOfTrackTicks": 47424
    },
    {
      "channel": 7,
      "controlChanges": {
        "7": [
          {
            "number": 7,
            "ticks": 0,
            "time": 0,
            "value": 0.5511811023622047
          },
          {
            "number": 7,
            "ticks": 0,
            "time": 0,
            "value": 0.5511811023622047
          },
          {
            "number": 7,
            "ticks": 0,
            "time": 0,
            "value": 0.5511811023622047
          },
          {
            "number": 7,
            "ticks": 0,
            "time": 0,
            "value": 0.5511811023622047
          },
          {
            "number": 7,
            "ticks": 0,
            "time": 0,
            "value": 0.5511811023622047
          },
          {
            "number": 7,
            "ticks": 0,
            "time": 0,
            "value": 0.5511811023622047
          },
          {
            "number": 7,
            "ticks": 0,
            "time": 0,
            "value": 0.5511811023622047
          },
          {
            "number": 7,
            "ticks": 0,
            "time": 0,
            "value": 0.5511811023622047
          }
        ]
      },
      "pitchBends": [],
      "instrument": {
        "family": "bass",
        "number": 36,
        "name": "slap bass 1"
      },
      "name": "Bass Guitar 2",
      "notes": [
        {
          "duration": 0.08391599999998789,
          "durationTicks": 24,
          "midi": 40,
          "name": "E2",
          "ticks": 33780,
          "time": 118.11177,
          "velocity": 0.10236220472440945
        },
        {
          "duration": 0.08391599999998789,
          "durationTicks": 24,
          "midi": 40,
          "name": "E2",
          "ticks": 33810,
          "time": 118.216665,
          "velocity": 0.11811023622047244
        },
        {
          "duration": 0.08391599999998789,
          "durationTicks": 24,
          "midi": 40,
          "name": "E2",
          "ticks": 33840,
          "time": 118.32156,
          "velocity": 0.13385826771653545
        },
        {
          "duration": 0.08391599999998789,
          "durationTicks": 24,
          "midi": 40,
          "name": "E2",
          "ticks": 33870,
          "time": 118.426455,
          "velocity": 0.14960629921259844
        },
        {
          "duration": 0.08391599999998789,
          "durationTicks": 24,
          "midi": 40,
          "name": "E2",
          "ticks": 33900,
          "time": 118.53135,
          "velocity": 0.16535433070866143
        },
        {
          "duration": 0.0839160000000021,
          "durationTicks": 24,
          "midi": 40,
          "name": "E2",
          "ticks": 33930,
          "time": 118.636245,
          "velocity": 0.18110236220472442
        },
        {
          "duration": 0.0839160000000021,
          "durationTicks": 24,
          "midi": 40,
          "name": "E2",
          "ticks": 33960,
          "time": 118.74114,
          "velocity": 0.1968503937007874
        },
        {
          "duration": 0.0839160000000021,
          "durationTicks": 24,
          "midi": 40,
          "name": "E2",
          "ticks": 33990,
          "time": 118.846035,
          "velocity": 0.2125984251968504
        },
        {
          "duration": 0.0839160000000021,
          "durationTicks": 24,
          "midi": 40,
          "name": "E2",
          "ticks": 34020,
          "time": 118.95093,
          "velocity": 0.2283464566929134
        },
        {
          "duration": 0.0839160000000021,
          "durationTicks": 24,
          "midi": 40,
          "name": "E2",
          "ticks": 34050,
          "time": 119.055825,
          "velocity": 0.2440944881889764
        },
        {
          "duration": 0.0839160000000021,
          "durationTicks": 24,
          "midi": 40,
          "name": "E2",
          "ticks": 34080,
          "time": 119.16072,
          "velocity": 0.25984251968503935
        },
        {
          "duration": 0.0839160000000021,
          "durationTicks": 24,
          "midi": 40,
          "name": "E2",
          "ticks": 34110,
          "time": 119.265615,
          "velocity": 0.2677165354330709
        },
        {
          "duration": 0.0839160000000021,
          "durationTicks": 24,
          "midi": 40,
          "name": "E2",
          "ticks": 34140,
          "time": 119.37051,
          "velocity": 0.28346456692913385
        },
        {
          "duration": 0.08391599999998789,
          "durationTicks": 24,
          "midi": 40,
          "name": "E2",
          "ticks": 34170,
          "time": 119.47540500000001,
          "velocity": 0.2992125984251969
        },
        {
          "duration": 0.08391599999998789,
          "durationTicks": 24,
          "midi": 40,
          "name": "E2",
          "ticks": 34200,
          "time": 119.58030000000001,
          "velocity": 0.31496062992125984
        },
        {
          "duration": 0.08391599999998789,
          "durationTicks": 24,
          "midi": 40,
          "name": "E2",
          "ticks": 34230,
          "time": 119.68519500000001,
          "velocity": 0.33070866141732286
        },
        {
          "duration": 0.08391599999998789,
          "durationTicks": 24,
          "midi": 40,
          "name": "E2",
          "ticks": 34260,
          "time": 119.79009,
          "velocity": 0.3464566929133858
        },
        {
          "duration": 0.08391599999998789,
          "durationTicks": 24,
          "midi": 40,
          "name": "E2",
          "ticks": 34290,
          "time": 119.894985,
          "velocity": 0.36220472440944884
        },
        {
          "duration": 0.08391599999998789,
          "durationTicks": 24,
          "midi": 40,
          "name": "E2",
          "ticks": 34320,
          "time": 119.99988,
          "velocity": 0.3779527559055118
        },
        {
          "duration": 0.08391599999998789,
          "durationTicks": 24,
          "midi": 40,
          "name": "E2",
          "ticks": 34350,
          "time": 120.104775,
          "velocity": 0.3937007874015748
        },
        {
          "duration": 0.08391599999998789,
          "durationTicks": 24,
          "midi": 40,
          "name": "E2",
          "ticks": 34380,
          "time": 120.20967,
          "velocity": 0.4094488188976378
        },
        {
          "duration": 0.0839160000000021,
          "durationTicks": 24,
          "midi": 40,
          "name": "E2",
          "ticks": 34410,
          "time": 120.314565,
          "velocity": 0.4251968503937008
        },
        {
          "duration": 0.0839160000000021,
          "durationTicks": 24,
          "midi": 40,
          "name": "E2",
          "ticks": 34440,
          "time": 120.41946,
          "velocity": 0.4409448818897638
        },
        {
          "duration": 0.0839160000000021,
          "durationTicks": 24,
          "midi": 40,
          "name": "E2",
          "ticks": 34470,
          "time": 120.524355,
          "velocity": 0.4566929133858268
        },
        {
          "duration": 0.0839160000000021,
          "durationTicks": 24,
          "midi": 40,
          "name": "E2",
          "ticks": 34500,
          "time": 120.62925,
          "velocity": 0.47244094488188976
        },
        {
          "duration": 0.0839160000000021,
          "durationTicks": 24,
          "midi": 40,
          "name": "E2",
          "ticks": 34530,
          "time": 120.734145,
          "velocity": 0.4881889763779528
        },
        {
          "duration": 1.3426560000000052,
          "durationTicks": 384,
          "midi": 40,
          "name": "E2",
          "ticks": 34560,
          "time": 120.83904,
          "velocity": 0.6299212598425197
        },
        {
          "duration": 0.08391600000001631,
          "durationTicks": 24,
          "midi": 40,
          "name": "E2",
          "ticks": 46260,
          "time": 161.74809,
          "velocity": 0.5039370078740157
        },
        {
          "duration": 0.08391600000001631,
          "durationTicks": 24,
          "midi": 40,
          "name": "E2",
          "ticks": 46290,
          "time": 161.852985,
          "velocity": 0.5039370078740157
        },
        {
          "duration": 0.08391599999998789,
          "durationTicks": 24,
          "midi": 40,
          "name": "E2",
          "ticks": 46320,
          "time": 161.95788000000002,
          "velocity": 0.5039370078740157
        },
        {
          "duration": 0.08391599999998789,
          "durationTicks": 24,
          "midi": 40,
          "name": "E2",
          "ticks": 46350,
          "time": 162.06277500000002,
          "velocity": 0.5039370078740157
        },
        {
          "duration": 0.08391599999998789,
          "durationTicks": 24,
          "midi": 40,
          "name": "E2",
          "ticks": 46380,
          "time": 162.16767000000002,
          "velocity": 0.5039370078740157
        },
        {
          "duration": 0.08391599999998789,
          "durationTicks": 24,
          "midi": 40,
          "name": "E2",
          "ticks": 46410,
          "time": 162.27256500000001,
          "velocity": 0.5039370078740157
        },
        {
          "duration": 0.08391599999998789,
          "durationTicks": 24,
          "midi": 40,
          "name": "E2",
          "ticks": 46440,
          "time": 162.37746,
          "velocity": 0.5039370078740157
        },
        {
          "duration": 0.08391599999998789,
          "durationTicks": 24,
          "midi": 40,
          "name": "E2",
          "ticks": 46470,
          "time": 162.482355,
          "velocity": 0.5039370078740157
        },
        {
          "duration": 0.08391599999998789,
          "durationTicks": 24,
          "midi": 40,
          "name": "E2",
          "ticks": 46500,
          "time": 162.58725,
          "velocity": 0.5039370078740157
        },
        {
          "duration": 0.08391599999998789,
          "durationTicks": 24,
          "midi": 40,
          "name": "E2",
          "ticks": 46530,
          "time": 162.692145,
          "velocity": 0.5039370078740157
        },
        {
          "duration": 0.08391599999998789,
          "durationTicks": 24,
          "midi": 40,
          "name": "E2",
          "ticks": 46560,
          "time": 162.79704,
          "velocity": 0.5118110236220472
        },
        {
          "duration": 0.08391599999998789,
          "durationTicks": 24,
          "midi": 40,
          "name": "E2",
          "ticks": 46590,
          "time": 162.901935,
          "velocity": 0.49606299212598426
        },
        {
          "duration": 0.08391599999998789,
          "durationTicks": 24,
          "midi": 40,
          "name": "E2",
          "ticks": 46620,
          "time": 163.00683,
          "velocity": 0.48031496062992124
        },
        {
          "duration": 0.08391599999998789,
          "durationTicks": 24,
          "midi": 40,
          "name": "E2",
          "ticks": 46650,
          "time": 163.111725,
          "velocity": 0.4645669291338583
        },
        {
          "duration": 0.08391599999998789,
          "durationTicks": 24,
          "midi": 40,
          "name": "E2",
          "ticks": 46680,
          "time": 163.21662,
          "velocity": 0.44881889763779526
        },
        {
          "duration": 0.08391599999998789,
          "durationTicks": 24,
          "midi": 40,
          "name": "E2",
          "ticks": 46710,
          "time": 163.321515,
          "velocity": 0.4330708661417323
        },
        {
          "duration": 0.08391599999998789,
          "durationTicks": 24,
          "midi": 40,
          "name": "E2",
          "ticks": 46740,
          "time": 163.42641,
          "velocity": 0.41732283464566927
        },
        {
          "duration": 0.08391599999998789,
          "durationTicks": 24,
          "midi": 40,
          "name": "E2",
          "ticks": 46770,
          "time": 163.531305,
          "velocity": 0.4015748031496063
        },
        {
          "duration": 0.08391599999998789,
          "durationTicks": 24,
          "midi": 40,
          "name": "E2",
          "ticks": 46800,
          "time": 163.6362,
          "velocity": 0.3858267716535433
        },
        {
          "duration": 0.08391599999998789,
          "durationTicks": 24,
          "midi": 40,
          "name": "E2",
          "ticks": 46830,
          "time": 163.741095,
          "velocity": 0.3700787401574803
        },
        {
          "duration": 0.08391599999998789,
          "durationTicks": 24,
          "midi": 40,
          "name": "E2",
          "ticks": 46860,
          "time": 163.84599,
          "velocity": 0.3543307086614173
        },
        {
          "duration": 0.08391599999998789,
          "durationTicks": 24,
          "midi": 40,
          "name": "E2",
          "ticks": 46890,
          "time": 163.950885,
          "velocity": 0.33858267716535434
        },
        {
          "duration": 0.08391599999998789,
          "durationTicks": 24,
          "midi": 40,
          "name": "E2",
          "ticks": 46920,
          "time": 164.05578,
          "velocity": 0.3228346456692913
        },
        {
          "duration": 0.08391599999998789,
          "durationTicks": 24,
          "midi": 40,
          "name": "E2",
          "ticks": 46950,
          "time": 164.160675,
          "velocity": 0.30708661417322836
        },
        {
          "duration": 0.08391599999998789,
          "durationTicks": 24,
          "midi": 40,
          "name": "E2",
          "ticks": 46980,
          "time": 164.26557,
          "velocity": 0.29133858267716534
        },
        {
          "duration": 0.08391600000001631,
          "durationTicks": 24,
          "midi": 40,
          "name": "E2",
          "ticks": 47010,
          "time": 164.370465,
          "velocity": 0.2755905511811024
        },
        {
          "duration": 0.08391600000001631,
          "durationTicks": 24,
          "midi": 40,
          "name": "E2",
          "ticks": 47040,
          "time": 164.47536,
          "velocity": 0.25984251968503935
        },
        {
          "duration": 0.08391600000001631,
          "durationTicks": 24,
          "midi": 40,
          "name": "E2",
          "ticks": 47070,
          "time": 164.580255,
          "velocity": 0.2440944881889764
        },
        {
          "duration": 0.08391600000001631,
          "durationTicks": 24,
          "midi": 40,
          "name": "E2",
          "ticks": 47100,
          "time": 164.68515,
          "velocity": 0.2283464566929134
        },
        {
          "duration": 0.08391600000001631,
          "durationTicks": 24,
          "midi": 40,
          "name": "E2",
          "ticks": 47130,
          "time": 164.790045,
          "velocity": 0.2125984251968504
        },
        {
          "duration": 0.08391600000001631,
          "durationTicks": 24,
          "midi": 40,
          "name": "E2",
          "ticks": 47160,
          "time": 164.89494,
          "velocity": 0.1968503937007874
        },
        {
          "duration": 0.08391600000001631,
          "durationTicks": 24,
          "midi": 40,
          "name": "E2",
          "ticks": 47190,
          "time": 164.999835,
          "velocity": 0.18110236220472442
        },
        {
          "duration": 0.08391600000001631,
          "durationTicks": 24,
          "midi": 40,
          "name": "E2",
          "ticks": 47220,
          "time": 165.10473,
          "velocity": 0.16535433070866143
        },
        {
          "duration": 0.08391599999998789,
          "durationTicks": 24,
          "midi": 40,
          "name": "E2",
          "ticks": 47250,
          "time": 165.20962500000002,
          "velocity": 0.14960629921259844
        },
        {
          "duration": 0.08391599999998789,
          "durationTicks": 24,
          "midi": 40,
          "name": "E2",
          "ticks": 47280,
          "time": 165.31452000000002,
          "velocity": 0.13385826771653545
        },
        {
          "duration": 0.08391599999998789,
          "durationTicks": 24,
          "midi": 40,
          "name": "E2",
          "ticks": 47310,
          "time": 165.41941500000001,
          "velocity": 0.11811023622047244
        },
        {
          "duration": 0.08391599999998789,
          "durationTicks": 24,
          "midi": 40,
          "name": "E2",
          "ticks": 47340,
          "time": 165.52431,
          "velocity": 0.10236220472440945
        },
        {
          "duration": 0.08391599999998789,
          "durationTicks": 24,
          "midi": 40,
          "name": "E2",
          "ticks": 47370,
          "time": 165.629205,
          "velocity": 0.08661417322834646
        },
        {
          "duration": 0.08391599999998789,
          "durationTicks": 24,
          "midi": 40,
          "name": "E2",
          "ticks": 47400,
          "time": 165.7341,
          "velocity": 0.07086614173228346
        },
        {
          "duration": 0.08391599999998789,
          "durationTicks": 24,
          "midi": 40,
          "name": "E2",
          "ticks": 47430,
          "time": 165.838995,
          "velocity": 0.05511811023622047
        },
        {
          "duration": 0.08391599999998789,
          "durationTicks": 24,
          "midi": 40,
          "name": "E2",
          "ticks": 47460,
          "time": 165.94389,
          "velocity": 0.03937007874015748
        },
        {
          "duration": 0.08391599999998789,
          "durationTicks": 24,
          "midi": 40,
          "name": "E2",
          "ticks": 47490,
          "time": 166.048785,
          "velocity": 0.023622047244094488
        }
      ],
      "endOfTrackTicks": 47514
    },
    {
      "channel": 8,
      "controlChanges": {},
      "pitchBends": [],
      "instrument": {
        "family": "piano",
        "number": 0,
        "name": "acoustic grand piano"
      },
      "name": "Bass Guitar 3",
      "notes": [],
      "endOfTrackTicks": 47424
    },
    {
      "channel": 8,
      "controlChanges": {
        "7": [
          {
            "number": 7,
            "ticks": 0,
            "time": 0,
            "value": 0.2755905511811024
          },
          {
            "number": 7,
            "ticks": 0,
            "time": 0,
            "value": 0.2755905511811024
          },
          {
            "number": 7,
            "ticks": 0,
            "time": 0,
            "value": 0.2755905511811024
          },
          {
            "number": 7,
            "ticks": 0,
            "time": 0,
            "value": 0.2755905511811024
          },
          {
            "number": 7,
            "ticks": 0,
            "time": 0,
            "value": 0.2755905511811024
          },
          {
            "number": 7,
            "ticks": 0,
            "time": 0,
            "value": 0.2755905511811024
          },
          {
            "number": 7,
            "ticks": 0,
            "time": 0,
            "value": 0.2755905511811024
          },
          {
            "number": 7,
            "ticks": 0,
            "time": 0,
            "value": 0.2755905511811024
          }
        ]
      },
      "pitchBends": [],
      "instrument": {
        "family": "bass",
        "number": 34,
        "name": "electric bass (pick)"
      },
      "name": "",
      "notes": [
        {
          "duration": 0.3356639999999995,
          "durationTicks": 96,
          "midi": 40,
          "name": "E2",
          "ticks": 3840,
          "time": 13.42656,
          "velocity": 0.6299212598425197
        },
        {
          "duration": 0.16783199999999887,
          "durationTicks": 48,
          "midi": 40,
          "name": "E2",
          "ticks": 3960,
          "time": 13.84614,
          "velocity": 0.6299212598425197
        },
        {
          "duration": 0.8811180000000007,
          "durationTicks": 252,
          "midi": 42,
          "name": "F#2",
          "ticks": 4020,
          "time": 14.05593,
          "velocity": 0.6299212598425197
        },
        {
          "duration": 0.16783200000000065,
          "durationTicks": 48,
          "midi": 44,
          "name": "G#2",
          "ticks": 4320,
          "time": 15.10488,
          "velocity": 0.6299212598425197
        },
        {
          "duration": 0.37762200000000057,
          "durationTicks": 108,
          "midi": 44,
          "name": "G#2",
          "ticks": 4380,
          "time": 15.31467,
          "velocity": 0.6299212598425197
        },
        {
          "duration": 0.3356639999999995,
          "durationTicks": 96,
          "midi": 45,
          "name": "A2",
          "ticks": 4500,
          "time": 15.734250000000001,
          "velocity": 0.6299212598425197
        },
        {
          "duration": 0.16783200000000065,
          "durationTicks": 48,
          "midi": 45,
          "name": "A2",
          "ticks": 4620,
          "time": 16.15383,
          "velocity": 0.6299212598425197
        },
        {
          "duration": 0.1678319999999971,
          "durationTicks": 48,
          "midi": 45,
          "name": "A2",
          "ticks": 4680,
          "time": 16.36362,
          "velocity": 0.6299212598425197
        },
        {
          "duration": 0.33566399999999774,
          "durationTicks": 96,
          "midi": 40,
          "name": "E2",
          "ticks": 4800,
          "time": 16.7832,
          "velocity": 0.6299212598425197
        },
        {
          "duration": 0.16783200000000065,
          "durationTicks": 48,
          "midi": 40,
          "name": "E2",
          "ticks": 4920,
          "time": 17.20278,
          "velocity": 0.6299212598425197
        },
        {
          "duration": 0.8811180000000007,
          "durationTicks": 252,
          "midi": 42,
          "name": "F#2",
          "ticks": 4980,
          "time": 17.41257,
          "velocity": 0.6299212598425197
        },
        {
          "duration": 0.16783200000000065,
          "durationTicks": 48,
          "midi": 44,
          "name": "G#2",
          "ticks": 5280,
          "time": 18.46152,
          "velocity": 0.6299212598425197
        },
        {
          "duration": 0.3776219999999988,
          "durationTicks": 108,
          "midi": 44,
          "name": "G#2",
          "ticks": 5340,
          "time": 18.671310000000002,
          "velocity": 0.6299212598425197
        },
        {
          "duration": 0.33566399999999774,
          "durationTicks": 96,
          "midi": 42,
          "name": "F#2",
          "ticks": 5460,
          "time": 19.09089,
          "velocity": 0.6299212598425197
        },
        {
          "duration": 0.1678319999999971,
          "durationTicks": 48,
          "midi": 42,
          "name": "F#2",
          "ticks": 5580,
          "time": 19.51047,
          "velocity": 0.6299212598425197
        },
        {
          "duration": 0.16783200000000065,
          "durationTicks": 48,
          "midi": 42,
          "name": "F#2",
          "ticks": 5640,
          "time": 19.72026,
          "velocity": 0.6299212598425197
        },
        {
          "duration": 0.3356640000000013,
          "durationTicks": 96,
          "midi": 40,
          "name": "E2",
          "ticks": 5760,
          "time": 20.13984,
          "velocity": 0.6299212598425197
        },
        {
          "duration": 0.16783200000000065,
          "durationTicks": 48,
          "midi": 40,
          "name": "E2",
          "ticks": 5880,
          "time": 20.55942,
          "velocity": 0.6299212598425197
        },
        {
          "duration": 0.8811180000000007,
          "durationTicks": 252,
          "midi": 42,
          "name": "F#2",
          "ticks": 5940,
          "time": 20.76921,
          "velocity": 0.6299212598425197
        },
        {
          "duration": 0.16783200000000065,
          "durationTicks": 48,
          "midi": 44,
          "name": "G#2",
          "ticks": 6240,
          "time": 21.81816,
          "velocity": 0.6299212598425197
        },
        {
          "duration": 0.3776219999999988,
          "durationTicks": 108,
          "midi": 44,
          "name": "G#2",
          "ticks": 6300,
          "time": 22.02795,
          "velocity": 0.6299212598425197
        },
        {
          "duration": 0.33566399999999774,
          "durationTicks": 96,
          "midi": 45,
          "name": "A2",
          "ticks": 6420,
          "time": 22.44753,
          "velocity": 0.6299212598425197
        },
        {
          "duration": 0.16783200000000065,
          "durationTicks": 48,
          "midi": 45,
          "name": "A2",
          "ticks": 6540,
          "time": 22.86711,
          "velocity": 0.6299212598425197
        },
        {
          "duration": 0.1678319999999971,
          "durationTicks": 48,
          "midi": 45,
          "name": "A2",
          "ticks": 6600,
          "time": 23.076900000000002,
          "velocity": 0.6299212598425197
        },
        {
          "duration": 0.33566399999999774,
          "durationTicks": 96,
          "midi": 40,
          "name": "E2",
          "ticks": 6720,
          "time": 23.496480000000002,
          "velocity": 0.6299212598425197
        },
        {
          "duration": 0.1678319999999971,
          "durationTicks": 48,
          "midi": 40,
          "name": "E2",
          "ticks": 6840,
          "time": 23.91606,
          "velocity": 0.6299212598425197
        },
        {
          "duration": 2.391606000000003,
          "durationTicks": 684,
          "midi": 42,
          "name": "F#2",
          "ticks": 6900,
          "time": 24.12585,
          "velocity": 0.6299212598425197
        },
        {
          "duration": 0.33566399999999774,
          "durationTicks": 96,
          "midi": 40,
          "name": "E2",
          "ticks": 7680,
          "time": 26.85312,
          "velocity": 0.6299212598425197
        },
        {
          "duration": 0.1678320000000042,
          "durationTicks": 48,
          "midi": 40,
          "name": "E2",
          "ticks": 7800,
          "time": 27.2727,
          "velocity": 0.6299212598425197
        },
        {
          "duration": 0.8811179999999972,
          "durationTicks": 252,
          "midi": 42,
          "name": "F#2",
          "ticks": 7860,
          "time": 27.482490000000002,
          "velocity": 0.6299212598425197
        },
        {
          "duration": 0.1678320000000042,
          "durationTicks": 48,
          "midi": 44,
          "name": "G#2",
          "ticks": 8160,
          "time": 28.53144,
          "velocity": 0.6299212598425197
        },
        {
          "duration": 0.37762200000000234,
          "durationTicks": 108,
          "midi": 44,
          "name": "G#2",
          "ticks": 8220,
          "time": 28.74123,
          "velocity": 0.6299212598425197
        },
        {
          "duration": 0.33566399999999774,
          "durationTicks": 96,
          "midi": 45,
          "name": "A2",
          "ticks": 8340,
          "time": 29.16081,
          "velocity": 0.6299212598425197
        },
        {
          "duration": 0.16783200000000065,
          "durationTicks": 48,
          "midi": 45,
          "name": "A2",
          "ticks": 8460,
          "time": 29.58039,
          "velocity": 0.6299212598425197
        },
        {
          "duration": 0.1678320000000042,
          "durationTicks": 48,
          "midi": 45,
          "name": "A2",
          "ticks": 8520,
          "time": 29.79018,
          "velocity": 0.6299212598425197
        },
        {
          "duration": 0.3356640000000013,
          "durationTicks": 96,
          "midi": 40,
          "name": "E2",
          "ticks": 8640,
          "time": 30.20976,
          "velocity": 0.6299212598425197
        },
        {
          "duration": 0.1678320000000042,
          "durationTicks": 48,
          "midi": 40,
          "name": "E2",
          "ticks": 8760,
          "time": 30.62934,
          "velocity": 0.6299212598425197
        },
        {
          "duration": 0.8811179999999972,
          "durationTicks": 252,
          "midi": 42,
          "name": "F#2",
          "ticks": 8820,
          "time": 30.83913,
          "velocity": 0.6299212598425197
        },
        {
          "duration": 0.1678320000000042,
          "durationTicks": 48,
          "midi": 44,
          "name": "G#2",
          "ticks": 9120,
          "time": 31.888080000000002,
          "velocity": 0.6299212598425197
        },
        {
          "duration": 0.37762200000000234,
          "durationTicks": 108,
          "midi": 44,
          "name": "G#2",
          "ticks": 9180,
          "time": 32.09787,
          "velocity": 0.6299212598425197
        },
        {
          "duration": 0.3356639999999942,
          "durationTicks": 96,
          "midi": 42,
          "name": "F#2",
          "ticks": 9300,
          "time": 32.517450000000004,
          "velocity": 0.6299212598425197
        },
        {
          "duration": 0.1678320000000042,
          "durationTicks": 48,
          "midi": 42,
          "name": "F#2",
          "ticks": 9420,
          "time": 32.93703,
          "velocity": 0.6299212598425197
        },
        {
          "duration": 0.1678320000000042,
          "durationTicks": 48,
          "midi": 42,
          "name": "F#2",
          "ticks": 9480,
          "time": 33.14682,
          "velocity": 0.6299212598425197
        },
        {
          "duration": 0.3356640000000013,
          "durationTicks": 96,
          "midi": 40,
          "name": "E2",
          "ticks": 9600,
          "time": 33.5664,
          "velocity": 0.6299212598425197
        },
        {
          "duration": 0.1678320000000042,
          "durationTicks": 48,
          "midi": 40,
          "name": "E2",
          "ticks": 9720,
          "time": 33.98598,
          "velocity": 0.6299212598425197
        },
        {
          "duration": 0.8811179999999936,
          "durationTicks": 252,
          "midi": 42,
          "name": "F#2",
          "ticks": 9780,
          "time": 34.19577,
          "velocity": 0.6299212598425197
        },
        {
          "duration": 0.1678320000000042,
          "durationTicks": 48,
          "midi": 44,
          "name": "G#2",
          "ticks": 10080,
          "time": 35.24472,
          "velocity": 0.6299212598425197
        },
        {
          "duration": 0.37762200000000234,
          "durationTicks": 108,
          "midi": 44,
          "name": "G#2",
          "ticks": 10140,
          "time": 35.45451,
          "velocity": 0.6299212598425197
        },
        {
          "duration": 0.3356639999999942,
          "durationTicks": 96,
          "midi": 45,
          "name": "A2",
          "ticks": 10260,
          "time": 35.87409,
          "velocity": 0.6299212598425197
        },
        {
          "duration": 0.1678320000000042,
          "durationTicks": 48,
          "midi": 45,
          "name": "A2",
          "ticks": 10380,
          "time": 36.29367,
          "velocity": 0.6299212598425197
        },
        {
          "duration": 0.1678319999999971,
          "durationTicks": 48,
          "midi": 45,
          "name": "A2",
          "ticks": 10440,
          "time": 36.503460000000004,
          "velocity": 0.6299212598425197
        },
        {
          "duration": 0.3356640000000013,
          "durationTicks": 96,
          "midi": 40,
          "name": "E2",
          "ticks": 10560,
          "time": 36.92304,
          "velocity": 0.6299212598425197
        },
        {
          "duration": 0.1678319999999971,
          "durationTicks": 48,
          "midi": 40,
          "name": "E2",
          "ticks": 10680,
          "time": 37.342620000000004,
          "velocity": 0.6299212598425197
        },
        {
          "duration": 2.391606000000003,
          "durationTicks": 684,
          "midi": 42,
          "name": "F#2",
          "ticks": 10740,
          "time": 37.55241,
          "velocity": 0.6299212598425197
        },
        {
          "duration": 0.3356640000000013,
          "durationTicks": 96,
          "midi": 40,
          "name": "E2",
          "ticks": 11520,
          "time": 40.27968,
          "velocity": 0.6299212598425197
        },
        {
          "duration": 0.1678320000000042,
          "durationTicks": 48,
          "midi": 40,
          "name": "E2",
          "ticks": 11640,
          "time": 40.69926,
          "velocity": 0.6299212598425197
        },
        {
          "duration": 0.8811180000000007,
          "durationTicks": 252,
          "midi": 42,
          "name": "F#2",
          "ticks": 11700,
          "time": 40.90905,
          "velocity": 0.6299212598425197
        },
        {
          "duration": 0.1678320000000042,
          "durationTicks": 48,
          "midi": 44,
          "name": "G#2",
          "ticks": 12000,
          "time": 41.958,
          "velocity": 0.6299212598425197
        },
        {
          "duration": 0.37762200000000234,
          "durationTicks": 108,
          "midi": 44,
          "name": "G#2",
          "ticks": 12060,
          "time": 42.167790000000004,
          "velocity": 0.6299212598425197
        },
        {
          "duration": 0.3356640000000013,
          "durationTicks": 96,
          "midi": 45,
          "name": "A2",
          "ticks": 12180,
          "time": 42.58737,
          "velocity": 0.6299212598425197
        },
        {
          "duration": 0.1678319999999971,
          "durationTicks": 48,
          "midi": 45,
          "name": "A2",
          "ticks": 12300,
          "time": 43.00695,
          "velocity": 0.6299212598425197
        },
        {
          "duration": 0.1678320000000042,
          "durationTicks": 48,
          "midi": 45,
          "name": "A2",
          "ticks": 12360,
          "time": 43.21674,
          "velocity": 0.6299212598425197
        },
        {
          "duration": 0.3356640000000013,
          "durationTicks": 96,
          "midi": 40,
          "name": "E2",
          "ticks": 12480,
          "time": 43.63632,
          "velocity": 0.6299212598425197
        },
        {
          "duration": 0.1678320000000042,
          "durationTicks": 48,
          "midi": 40,
          "name": "E2",
          "ticks": 12600,
          "time": 44.0559,
          "velocity": 0.6299212598425197
        },
        {
          "duration": 0.8811180000000007,
          "durationTicks": 252,
          "midi": 42,
          "name": "F#2",
          "ticks": 12660,
          "time": 44.26569,
          "velocity": 0.6299212598425197
        },
        {
          "duration": 0.1678319999999971,
          "durationTicks": 48,
          "midi": 44,
          "name": "G#2",
          "ticks": 12960,
          "time": 45.314640000000004,
          "velocity": 0.6299212598425197
        },
        {
          "duration": 0.37762200000000234,
          "durationTicks": 108,
          "midi": 44,
          "name": "G#2",
          "ticks": 13020,
          "time": 45.52443,
          "velocity": 0.6299212598425197
        },
        {
          "duration": 0.3356640000000013,
          "durationTicks": 96,
          "midi": 42,
          "name": "F#2",
          "ticks": 13140,
          "time": 45.94401,
          "velocity": 0.6299212598425197
        },
        {
          "duration": 0.1678320000000042,
          "durationTicks": 48,
          "midi": 42,
          "name": "F#2",
          "ticks": 13260,
          "time": 46.36359,
          "velocity": 0.6299212598425197
        },
        {
          "duration": 0.1678320000000042,
          "durationTicks": 48,
          "midi": 42,
          "name": "F#2",
          "ticks": 13320,
          "time": 46.57338,
          "velocity": 0.6299212598425197
        },
        {
          "duration": 0.3356639999999942,
          "durationTicks": 96,
          "midi": 40,
          "name": "E2",
          "ticks": 13440,
          "time": 46.992960000000004,
          "velocity": 0.6299212598425197
        },
        {
          "duration": 0.1678320000000042,
          "durationTicks": 48,
          "midi": 40,
          "name": "E2",
          "ticks": 13560,
          "time": 47.41254,
          "velocity": 0.6299212598425197
        },
        {
          "duration": 0.8811180000000007,
          "durationTicks": 252,
          "midi": 42,
          "name": "F#2",
          "ticks": 13620,
          "time": 47.62233,
          "velocity": 0.6299212598425197
        },
        {
          "duration": 0.1678319999999971,
          "durationTicks": 48,
          "midi": 44,
          "name": "G#2",
          "ticks": 13920,
          "time": 48.67128,
          "velocity": 0.6299212598425197
        },
        {
          "duration": 0.37762200000000234,
          "durationTicks": 108,
          "midi": 44,
          "name": "G#2",
          "ticks": 13980,
          "time": 48.88107,
          "velocity": 0.6299212598425197
        },
        {
          "duration": 0.3356639999999942,
          "durationTicks": 96,
          "midi": 45,
          "name": "A2",
          "ticks": 14100,
          "time": 49.300650000000005,
          "velocity": 0.6299212598425197
        },
        {
          "duration": 0.1678320000000042,
          "durationTicks": 48,
          "midi": 45,
          "name": "A2",
          "ticks": 14220,
          "time": 49.72023,
          "velocity": 0.6299212598425197
        },
        {
          "duration": 0.1678320000000042,
          "durationTicks": 48,
          "midi": 45,
          "name": "A2",
          "ticks": 14280,
          "time": 49.93002,
          "velocity": 0.6299212598425197
        },
        {
          "duration": 0.3356639999999942,
          "durationTicks": 96,
          "midi": 40,
          "name": "E2",
          "ticks": 14400,
          "time": 50.3496,
          "velocity": 0.6299212598425197
        },
        {
          "duration": 0.1678320000000042,
          "durationTicks": 48,
          "midi": 40,
          "name": "E2",
          "ticks": 14520,
          "time": 50.76918,
          "velocity": 0.6299212598425197
        },
        {
          "duration": 0.8811179999999936,
          "durationTicks": 252,
          "midi": 42,
          "name": "F#2",
          "ticks": 14580,
          "time": 50.978970000000004,
          "velocity": 0.6299212598425197
        },
        {
          "duration": 0.1678320000000042,
          "durationTicks": 48,
          "midi": 44,
          "name": "G#2",
          "ticks": 14880,
          "time": 52.02792,
          "velocity": 0.6299212598425197
        },
        {
          "duration": 0.37762200000000234,
          "durationTicks": 108,
          "midi": 44,
          "name": "G#2",
          "ticks": 14940,
          "time": 52.23771,
          "velocity": 0.6299212598425197
        },
        {
          "duration": 0.3356639999999942,
          "durationTicks": 96,
          "midi": 42,
          "name": "F#2",
          "ticks": 15060,
          "time": 52.65729,
          "velocity": 0.6299212598425197
        },
        {
          "duration": 0.1678320000000042,
          "durationTicks": 48,
          "midi": 42,
          "name": "F#2",
          "ticks": 15180,
          "time": 53.07687,
          "velocity": 0.6299212598425197
        },
        {
          "duration": 0.1678320000000042,
          "durationTicks": 48,
          "midi": 42,
          "name": "F#2",
          "ticks": 15240,
          "time": 53.28666,
          "velocity": 0.6299212598425197
        },
        {
          "duration": 0.3356640000000013,
          "durationTicks": 96,
          "midi": 40,
          "name": "E2",
          "ticks": 15360,
          "time": 53.70624,
          "velocity": 0.6299212598425197
        },
        {
          "duration": 0.1678319999999971,
          "durationTicks": 48,
          "midi": 40,
          "name": "E2",
          "ticks": 15480,
          "time": 54.125820000000004,
          "velocity": 0.6299212598425197
        },
        {
          "duration": 0.8811179999999936,
          "durationTicks": 252,
          "midi": 42,
          "name": "F#2",
          "ticks": 15540,
          "time": 54.33561,
          "velocity": 0.6299212598425197
        },
        {
          "duration": 0.1678320000000042,
          "durationTicks": 48,
          "midi": 44,
          "name": "G#2",
          "ticks": 15840,
          "time": 55.38456,
          "velocity": 0.6299212598425197
        },
        {
          "duration": 0.37762200000000234,
          "durationTicks": 108,
          "midi": 44,
          "name": "G#2",
          "ticks": 15900,
          "time": 55.59435,
          "velocity": 0.6299212598425197
        },
        {
          "duration": 0.3356640000000013,
          "durationTicks": 96,
          "midi": 45,
          "name": "A2",
          "ticks": 16020,
          "time": 56.01393,
          "velocity": 0.6299212598425197
        },
        {
          "duration": 0.1678320000000042,
          "durationTicks": 48,
          "midi": 45,
          "name": "A2",
          "ticks": 16140,
          "time": 56.43351,
          "velocity": 0.6299212598425197
        },
        {
          "duration": 0.1678319999999971,
          "durationTicks": 48,
          "midi": 45,
          "name": "A2",
          "ticks": 16200,
          "time": 56.6433,
          "velocity": 0.6299212598425197
        },
        {
          "duration": 0.3356640000000084,
          "durationTicks": 96,
          "midi": 40,
          "name": "E2",
          "ticks": 16320,
          "time": 57.06288,
          "velocity": 0.6299212598425197
        },
        {
          "duration": 0.1678319999999971,
          "durationTicks": 48,
          "midi": 40,
          "name": "E2",
          "ticks": 16440,
          "time": 57.48246,
          "velocity": 0.6299212598425197
        },
        {
          "duration": 0.8811180000000007,
          "durationTicks": 252,
          "midi": 42,
          "name": "F#2",
          "ticks": 16500,
          "time": 57.69225,
          "velocity": 0.6299212598425197
        },
        {
          "duration": 0.1678320000000042,
          "durationTicks": 48,
          "midi": 44,
          "name": "G#2",
          "ticks": 16800,
          "time": 58.7412,
          "velocity": 0.6299212598425197
        },
        {
          "duration": 0.37762200000000234,
          "durationTicks": 108,
          "midi": 44,
          "name": "G#2",
          "ticks": 16860,
          "time": 58.950990000000004,
          "velocity": 0.6299212598425197
        },
        {
          "duration": 0.3356640000000084,
          "durationTicks": 96,
          "midi": 42,
          "name": "F#2",
          "ticks": 16980,
          "time": 59.37057,
          "velocity": 0.6299212598425197
        },
        {
          "duration": 0.1678319999999971,
          "durationTicks": 48,
          "midi": 42,
          "name": "F#2",
          "ticks": 17100,
          "time": 59.790150000000004,
          "velocity": 0.6299212598425197
        },
        {
          "duration": 0.1678320000000042,
          "durationTicks": 48,
          "midi": 42,
          "name": "F#2",
          "ticks": 17160,
          "time": 59.99994,
          "velocity": 0.6299212598425197
        },
        {
          "duration": 0.3356640000000084,
          "durationTicks": 96,
          "midi": 40,
          "name": "E2",
          "ticks": 17280,
          "time": 60.41952,
          "velocity": 0.6299212598425197
        },
        {
          "duration": 0.1678320000000042,
          "durationTicks": 48,
          "midi": 40,
          "name": "E2",
          "ticks": 17400,
          "time": 60.8391,
          "velocity": 0.6299212598425197
        },
        {
          "duration": 0.8811180000000007,
          "durationTicks": 252,
          "midi": 42,
          "name": "F#2",
          "ticks": 17460,
          "time": 61.04889,
          "velocity": 0.6299212598425197
        },
        {
          "duration": 0.1678320000000042,
          "durationTicks": 48,
          "midi": 44,
          "name": "G#2",
          "ticks": 17760,
          "time": 62.09784,
          "velocity": 0.6299212598425197
        },
        {
          "duration": 0.37762200000000234,
          "durationTicks": 108,
          "midi": 44,
          "name": "G#2",
          "ticks": 17820,
          "time": 62.30763,
          "velocity": 0.6299212598425197
        },
        {
          "duration": 0.3356640000000084,
          "durationTicks": 96,
          "midi": 45,
          "name": "A2",
          "ticks": 17940,
          "time": 62.72721,
          "velocity": 0.6299212598425197
        },
        {
          "duration": 0.1678320000000042,
          "durationTicks": 48,
          "midi": 45,
          "name": "A2",
          "ticks": 18060,
          "time": 63.14679,
          "velocity": 0.6299212598425197
        },
        {
          "duration": 0.1678320000000042,
          "durationTicks": 48,
          "midi": 45,
          "name": "A2",
          "ticks": 18120,
          "time": 63.35658,
          "velocity": 0.6299212598425197
        },
        {
          "duration": 0.3356640000000084,
          "durationTicks": 96,
          "midi": 40,
          "name": "E2",
          "ticks": 18240,
          "time": 63.776160000000004,
          "velocity": 0.6299212598425197
        },
        {
          "duration": 0.1678320000000042,
          "durationTicks": 48,
          "midi": 40,
          "name": "E2",
          "ticks": 18360,
          "time": 64.19574,
          "velocity": 0.6299212598425197
        },
        {
          "duration": 0.8811180000000007,
          "durationTicks": 252,
          "midi": 42,
          "name": "F#2",
          "ticks": 18420,
          "time": 64.40553,
          "velocity": 0.6299212598425197
        },
        {
          "duration": 0.1678320000000042,
          "durationTicks": 48,
          "midi": 44,
          "name": "G#2",
          "ticks": 18720,
          "time": 65.45448,
          "velocity": 0.6299212598425197
        },
        {
          "duration": 0.37762200000000234,
          "durationTicks": 108,
          "midi": 44,
          "name": "G#2",
          "ticks": 18780,
          "time": 65.66427,
          "velocity": 0.6299212598425197
        },
        {
          "duration": 0.3356640000000084,
          "durationTicks": 96,
          "midi": 42,
          "name": "F#2",
          "ticks": 18900,
          "time": 66.08385,
          "velocity": 0.6299212598425197
        },
        {
          "duration": 0.1678320000000042,
          "durationTicks": 48,
          "midi": 42,
          "name": "F#2",
          "ticks": 19020,
          "time": 66.50343,
          "velocity": 0.6299212598425197
        },
        {
          "duration": 0.16783199999999,
          "durationTicks": 48,
          "midi": 42,
          "name": "F#2",
          "ticks": 19080,
          "time": 66.71322,
          "velocity": 0.6299212598425197
        },
        {
          "duration": 0.3356640000000084,
          "durationTicks": 96,
          "midi": 40,
          "name": "E2",
          "ticks": 19200,
          "time": 67.1328,
          "velocity": 0.6299212598425197
        },
        {
          "duration": 0.1678320000000042,
          "durationTicks": 48,
          "midi": 40,
          "name": "E2",
          "ticks": 19320,
          "time": 67.55238,
          "velocity": 0.6299212598425197
        },
        {
          "duration": 0.8811180000000007,
          "durationTicks": 252,
          "midi": 42,
          "name": "F#2",
          "ticks": 19380,
          "time": 67.76217,
          "velocity": 0.6299212598425197
        },
        {
          "duration": 0.1678320000000042,
          "durationTicks": 48,
          "midi": 44,
          "name": "G#2",
          "ticks": 19680,
          "time": 68.81112,
          "velocity": 0.6299212598425197
        },
        {
          "duration": 0.37762200000000234,
          "durationTicks": 108,
          "midi": 44,
          "name": "G#2",
          "ticks": 19740,
          "time": 69.02091,
          "velocity": 0.6299212598425197
        },
        {
          "duration": 0.3356640000000084,
          "durationTicks": 96,
          "midi": 45,
          "name": "A2",
          "ticks": 19860,
          "time": 69.44049,
          "velocity": 0.6299212598425197
        },
        {
          "duration": 0.16783199999999,
          "durationTicks": 48,
          "midi": 45,
          "name": "A2",
          "ticks": 19980,
          "time": 69.86007000000001,
          "velocity": 0.6299212598425197
        },
        {
          "duration": 0.1678320000000042,
          "durationTicks": 48,
          "midi": 45,
          "name": "A2",
          "ticks": 20040,
          "time": 70.06986,
          "velocity": 0.6299212598425197
        },
        {
          "duration": 0.3356640000000084,
          "durationTicks": 96,
          "midi": 40,
          "name": "E2",
          "ticks": 20160,
          "time": 70.48944,
          "velocity": 0.6299212598425197
        },
        {
          "duration": 0.1678320000000042,
          "durationTicks": 48,
          "midi": 40,
          "name": "E2",
          "ticks": 20280,
          "time": 70.90902,
          "velocity": 0.6299212598425197
        },
        {
          "duration": 0.8811180000000007,
          "durationTicks": 252,
          "midi": 42,
          "name": "F#2",
          "ticks": 20340,
          "time": 71.11881,
          "velocity": 0.6299212598425197
        },
        {
          "duration": 0.1678320000000042,
          "durationTicks": 48,
          "midi": 44,
          "name": "G#2",
          "ticks": 20640,
          "time": 72.16776,
          "velocity": 0.6299212598425197
        },
        {
          "duration": 0.37762200000000234,
          "durationTicks": 108,
          "midi": 44,
          "name": "G#2",
          "ticks": 20700,
          "time": 72.37755,
          "velocity": 0.6299212598425197
        },
        {
          "duration": 0.3356640000000084,
          "durationTicks": 96,
          "midi": 42,
          "name": "F#2",
          "ticks": 20820,
          "time": 72.79713,
          "velocity": 0.6299212598425197
        },
        {
          "duration": 0.1678320000000042,
          "durationTicks": 48,
          "midi": 42,
          "name": "F#2",
          "ticks": 20940,
          "time": 73.21671,
          "velocity": 0.6299212598425197
        },
        {
          "duration": 0.1678320000000042,
          "durationTicks": 48,
          "midi": 42,
          "name": "F#2",
          "ticks": 21000,
          "time": 73.4265,
          "velocity": 0.6299212598425197
        },
        {
          "duration": 0.3356640000000084,
          "durationTicks": 96,
          "midi": 40,
          "name": "E2",
          "ticks": 21120,
          "time": 73.84608,
          "velocity": 0.6299212598425197
        },
        {
          "duration": 0.1678320000000042,
          "durationTicks": 48,
          "midi": 40,
          "name": "E2",
          "ticks": 21240,
          "time": 74.26566,
          "velocity": 0.6299212598425197
        },
        {
          "duration": 0.8811180000000007,
          "durationTicks": 252,
          "midi": 42,
          "name": "F#2",
          "ticks": 21300,
          "time": 74.47545,
          "velocity": 0.6299212598425197
        },
        {
          "duration": 0.1678320000000042,
          "durationTicks": 48,
          "midi": 44,
          "name": "G#2",
          "ticks": 21600,
          "time": 75.5244,
          "velocity": 0.6299212598425197
        },
        {
          "duration": 0.37762200000000234,
          "durationTicks": 108,
          "midi": 44,
          "name": "G#2",
          "ticks": 21660,
          "time": 75.73419,
          "velocity": 0.6299212598425197
        },
        {
          "duration": 0.3356639999999942,
          "durationTicks": 96,
          "midi": 45,
          "name": "A2",
          "ticks": 21780,
          "time": 76.15377000000001,
          "velocity": 0.6299212598425197
        },
        {
          "duration": 0.1678320000000042,
          "durationTicks": 48,
          "midi": 45,
          "name": "A2",
          "ticks": 21900,
          "time": 76.57335,
          "velocity": 0.6299212598425197
        },
        {
          "duration": 0.1678320000000042,
          "durationTicks": 48,
          "midi": 45,
          "name": "A2",
          "ticks": 21960,
          "time": 76.78314,
          "velocity": 0.6299212598425197
        },
        {
          "duration": 0.3356640000000084,
          "durationTicks": 96,
          "midi": 40,
          "name": "E2",
          "ticks": 22080,
          "time": 77.20272,
          "velocity": 0.6299212598425197
        },
        {
          "duration": 0.1678320000000042,
          "durationTicks": 48,
          "midi": 40,
          "name": "E2",
          "ticks": 22200,
          "time": 77.6223,
          "velocity": 0.6299212598425197
        },
        {
          "duration": 0.8811179999999865,
          "durationTicks": 252,
          "midi": 42,
          "name": "F#2",
          "ticks": 22260,
          "time": 77.83209000000001,
          "velocity": 0.6299212598425197
        },
        {
          "duration": 0.1678320000000042,
          "durationTicks": 48,
          "midi": 44,
          "name": "G#2",
          "ticks": 22560,
          "time": 78.88104,
          "velocity": 0.6299212598425197
        },
        {
          "duration": 0.37762200000000234,
          "durationTicks": 108,
          "midi": 44,
          "name": "G#2",
          "ticks": 22620,
          "time": 79.09083,
          "velocity": 0.6299212598425197
        },
        {
          "duration": 0.3356639999999942,
          "durationTicks": 96,
          "midi": 42,
          "name": "F#2",
          "ticks": 22740,
          "time": 79.51041000000001,
          "velocity": 0.6299212598425197
        },
        {
          "duration": 0.1678320000000042,
          "durationTicks": 48,
          "midi": 42,
          "name": "F#2",
          "ticks": 22860,
          "time": 79.92999,
          "velocity": 0.6299212598425197
        },
        {
          "duration": 0.1678320000000042,
          "durationTicks": 48,
          "midi": 42,
          "name": "F#2",
          "ticks": 22920,
          "time": 80.13978,
          "velocity": 0.6299212598425197
        },
        {
          "duration": 0.3356640000000084,
          "durationTicks": 96,
          "midi": 40,
          "name": "E2",
          "ticks": 23040,
          "time": 80.55936,
          "velocity": 0.6299212598425197
        },
        {
          "duration": 0.16783199999999,
          "durationTicks": 48,
          "midi": 40,
          "name": "E2",
          "ticks": 23160,
          "time": 80.97894000000001,
          "velocity": 0.6299212598425197
        },
        {
          "duration": 0.8811179999999865,
          "durationTicks": 252,
          "midi": 42,
          "name": "F#2",
          "ticks": 23220,
          "time": 81.18873,
          "velocity": 0.6299212598425197
        },
        {
          "duration": 0.1678320000000042,
          "durationTicks": 48,
          "midi": 44,
          "name": "G#2",
          "ticks": 23520,
          "time": 82.23768,
          "velocity": 0.6299212598425197
        },
        {
          "duration": 0.37762200000000234,
          "durationTicks": 108,
          "midi": 44,
          "name": "G#2",
          "ticks": 23580,
          "time": 82.44747,
          "velocity": 0.6299212598425197
        },
        {
          "duration": 0.3356639999999942,
          "durationTicks": 96,
          "midi": 45,
          "name": "A2",
          "ticks": 23700,
          "time": 82.86705,
          "velocity": 0.6299212598425197
        },
        {
          "duration": 0.1678320000000042,
          "durationTicks": 48,
          "midi": 45,
          "name": "A2",
          "ticks": 23820,
          "time": 83.28663,
          "velocity": 0.6299212598425197
        },
        {
          "duration": 0.1678320000000042,
          "durationTicks": 48,
          "midi": 45,
          "name": "A2",
          "ticks": 23880,
          "time": 83.49642,
          "velocity": 0.6299212598425197
        },
        {
          "duration": 0.3356640000000084,
          "durationTicks": 96,
          "midi": 40,
          "name": "E2",
          "ticks": 24000,
          "time": 83.916,
          "velocity": 0.6299212598425197
        },
        {
          "duration": 0.16783199999999,
          "durationTicks": 48,
          "midi": 40,
          "name": "E2",
          "ticks": 24120,
          "time": 84.33558000000001,
          "velocity": 0.6299212598425197
        },
        {
          "duration": 0.8811180000000007,
          "durationTicks": 252,
          "midi": 42,
          "name": "F#2",
          "ticks": 24180,
          "time": 84.54537,
          "velocity": 0.6299212598425197
        },
        {
          "duration": 0.1678320000000042,
          "durationTicks": 48,
          "midi": 44,
          "name": "G#2",
          "ticks": 24480,
          "time": 85.59432,
          "velocity": 0.6299212598425197
        },
        {
          "duration": 0.37762200000000234,
          "durationTicks": 108,
          "midi": 44,
          "name": "G#2",
          "ticks": 24540,
          "time": 85.80411000000001,
          "velocity": 0.6299212598425197
        },
        {
          "duration": 0.3356640000000084,
          "durationTicks": 96,
          "midi": 42,
          "name": "F#2",
          "ticks": 24660,
          "time": 86.22369,
          "velocity": 0.6299212598425197
        },
        {
          "duration": 0.1678320000000042,
          "durationTicks": 48,
          "midi": 42,
          "name": "F#2",
          "ticks": 24780,
          "time": 86.64327,
          "velocity": 0.6299212598425197
        },
        {
          "duration": 0.1678320000000042,
          "durationTicks": 48,
          "midi": 42,
          "name": "F#2",
          "ticks": 24840,
          "time": 86.85306,
          "velocity": 0.6299212598425197
        },
        {
          "duration": 0.3356640000000084,
          "durationTicks": 96,
          "midi": 40,
          "name": "E2",
          "ticks": 24960,
          "time": 87.27264,
          "velocity": 0.6299212598425197
        },
        {
          "duration": 0.1678320000000042,
          "durationTicks": 48,
          "midi": 40,
          "name": "E2",
          "ticks": 25080,
          "time": 87.69222,
          "velocity": 0.6299212598425197
        },
        {
          "duration": 0.8811180000000007,
          "durationTicks": 252,
          "midi": 42,
          "name": "F#2",
          "ticks": 25140,
          "time": 87.90201,
          "velocity": 0.6299212598425197
        },
        {
          "duration": 0.1678320000000042,
          "durationTicks": 48,
          "midi": 44,
          "name": "G#2",
          "ticks": 25440,
          "time": 88.95096,
          "velocity": 0.6299212598425197
        },
        {
          "duration": 0.37762200000000234,
          "durationTicks": 108,
          "midi": 44,
          "name": "G#2",
          "ticks": 25500,
          "time": 89.16075000000001,
          "velocity": 0.6299212598425197
        },
        {
          "duration": 0.3356640000000084,
          "durationTicks": 96,
          "midi": 45,
          "name": "A2",
          "ticks": 25620,
          "time": 89.58033,
          "velocity": 0.6299212598425197
        },
        {
          "duration": 0.1678320000000042,
          "durationTicks": 48,
          "midi": 45,
          "name": "A2",
          "ticks": 25740,
          "time": 89.99991,
          "velocity": 0.6299212598425197
        },
        {
          "duration": 0.1678320000000042,
          "durationTicks": 48,
          "midi": 45,
          "name": "A2",
          "ticks": 25800,
          "time": 90.2097,
          "velocity": 0.6299212598425197
        },
        {
          "duration": 0.3356639999999942,
          "durationTicks": 96,
          "midi": 40,
          "name": "E2",
          "ticks": 25920,
          "time": 90.62928000000001,
          "velocity": 0.6299212598425197
        },
        {
          "duration": 0.1678320000000042,
          "durationTicks": 48,
          "midi": 40,
          "name": "E2",
          "ticks": 26040,
          "time": 91.04886,
          "velocity": 0.6299212598425197
        },
        {
          "duration": 0.8811180000000007,
          "durationTicks": 252,
          "midi": 42,
          "name": "F#2",
          "ticks": 26100,
          "time": 91.25865,
          "velocity": 0.6299212598425197
        },
        {
          "duration": 0.16783199999999,
          "durationTicks": 48,
          "midi": 44,
          "name": "G#2",
          "ticks": 26400,
          "time": 92.30760000000001,
          "velocity": 0.6299212598425197
        },
        {
          "duration": 0.37762200000000234,
          "durationTicks": 108,
          "midi": 44,
          "name": "G#2",
          "ticks": 26460,
          "time": 92.51739,
          "velocity": 0.6299212598425197
        },
        {
          "duration": 0.3356640000000084,
          "durationTicks": 96,
          "midi": 42,
          "name": "F#2",
          "ticks": 26580,
          "time": 92.93697,
          "velocity": 0.6299212598425197
        },
        {
          "duration": 0.1678320000000042,
          "durationTicks": 48,
          "midi": 42,
          "name": "F#2",
          "ticks": 26700,
          "time": 93.35655,
          "velocity": 0.6299212598425197
        },
        {
          "duration": 0.1678320000000042,
          "durationTicks": 48,
          "midi": 42,
          "name": "F#2",
          "ticks": 26760,
          "time": 93.56634,
          "velocity": 0.6299212598425197
        },
        {
          "duration": 0.3356639999999942,
          "durationTicks": 96,
          "midi": 40,
          "name": "E2",
          "ticks": 26880,
          "time": 93.98592000000001,
          "velocity": 0.6299212598425197
        },
        {
          "duration": 0.1678320000000042,
          "durationTicks": 48,
          "midi": 40,
          "name": "E2",
          "ticks": 27000,
          "time": 94.4055,
          "velocity": 0.6299212598425197
        },
        {
          "duration": 0.8811180000000007,
          "durationTicks": 252,
          "midi": 42,
          "name": "F#2",
          "ticks": 27060,
          "time": 94.61529,
          "velocity": 0.6299212598425197
        },
        {
          "duration": 0.1678320000000042,
          "durationTicks": 48,
          "midi": 44,
          "name": "G#2",
          "ticks": 27360,
          "time": 95.66424,
          "velocity": 0.6299212598425197
        },
        {
          "duration": 0.37762200000000234,
          "durationTicks": 108,
          "midi": 44,
          "name": "G#2",
          "ticks": 27420,
          "time": 95.87403,
          "velocity": 0.6299212598425197
        },
        {
          "duration": 0.3356640000000084,
          "durationTicks": 96,
          "midi": 45,
          "name": "A2",
          "ticks": 27540,
          "time": 96.29361,
          "velocity": 0.6299212598425197
        },
        {
          "duration": 0.1678320000000042,
          "durationTicks": 48,
          "midi": 45,
          "name": "A2",
          "ticks": 27660,
          "time": 96.71319,
          "velocity": 0.6299212598425197
        },
        {
          "duration": 0.1678320000000042,
          "durationTicks": 48,
          "midi": 45,
          "name": "A2",
          "ticks": 27720,
          "time": 96.92298,
          "velocity": 0.6299212598425197
        },
        {
          "duration": 0.3356639999999942,
          "durationTicks": 96,
          "midi": 40,
          "name": "E2",
          "ticks": 27840,
          "time": 97.34256,
          "velocity": 0.6299212598425197
        },
        {
          "duration": 0.1678320000000042,
          "durationTicks": 48,
          "midi": 40,
          "name": "E2",
          "ticks": 27960,
          "time": 97.76214,
          "velocity": 0.6299212598425197
        },
        {
          "duration": 0.8811180000000007,
          "durationTicks": 252,
          "midi": 42,
          "name": "F#2",
          "ticks": 28020,
          "time": 97.97193,
          "velocity": 0.6299212598425197
        },
        {
          "duration": 0.1678320000000042,
          "durationTicks": 48,
          "midi": 44,
          "name": "G#2",
          "ticks": 28320,
          "time": 99.02088,
          "velocity": 0.6299212598425197
        },
        {
          "duration": 0.37762200000000234,
          "durationTicks": 108,
          "midi": 44,
          "name": "G#2",
          "ticks": 28380,
          "time": 99.23067,
          "velocity": 0.6299212598425197
        },
        {
          "duration": 0.3356640000000084,
          "durationTicks": 96,
          "midi": 42,
          "name": "F#2",
          "ticks": 28500,
          "time": 99.65025,
          "velocity": 0.6299212598425197
        },
        {
          "duration": 0.1678320000000042,
          "durationTicks": 48,
          "midi": 42,
          "name": "F#2",
          "ticks": 28620,
          "time": 100.06983,
          "velocity": 0.6299212598425197
        },
        {
          "duration": 0.16783199999999,
          "durationTicks": 48,
          "midi": 42,
          "name": "F#2",
          "ticks": 28680,
          "time": 100.27962000000001,
          "velocity": 0.6299212598425197
        },
        {
          "duration": 0.3356640000000084,
          "durationTicks": 96,
          "midi": 40,
          "name": "E2",
          "ticks": 28800,
          "time": 100.6992,
          "velocity": 0.6299212598425197
        },
        {
          "duration": 0.1678320000000042,
          "durationTicks": 48,
          "midi": 40,
          "name": "E2",
          "ticks": 28920,
          "time": 101.11878,
          "velocity": 0.6299212598425197
        },
        {
          "duration": 0.8811180000000007,
          "durationTicks": 252,
          "midi": 42,
          "name": "F#2",
          "ticks": 28980,
          "time": 101.32857,
          "velocity": 0.6299212598425197
        },
        {
          "duration": 0.1678320000000042,
          "durationTicks": 48,
          "midi": 44,
          "name": "G#2",
          "ticks": 29280,
          "time": 102.37752,
          "velocity": 0.6299212598425197
        },
        {
          "duration": 0.37762200000000234,
          "durationTicks": 108,
          "midi": 44,
          "name": "G#2",
          "ticks": 29340,
          "time": 102.58731,
          "velocity": 0.6299212598425197
        },
        {
          "duration": 0.3356640000000084,
          "durationTicks": 96,
          "midi": 45,
          "name": "A2",
          "ticks": 29460,
          "time": 103.00689,
          "velocity": 0.6299212598425197
        },
        {
          "duration": 0.16783199999999,
          "durationTicks": 48,
          "midi": 45,
          "name": "A2",
          "ticks": 29580,
          "time": 103.42647000000001,
          "velocity": 0.6299212598425197
        },
        {
          "duration": 0.1678320000000042,
          "durationTicks": 48,
          "midi": 45,
          "name": "A2",
          "ticks": 29640,
          "time": 103.63626000000001,
          "velocity": 0.6299212598425197
        },
        {
          "duration": 0.3356640000000084,
          "durationTicks": 96,
          "midi": 40,
          "name": "E2",
          "ticks": 29760,
          "time": 104.05584,
          "velocity": 0.6299212598425197
        },
        {
          "duration": 0.1678320000000042,
          "durationTicks": 48,
          "midi": 40,
          "name": "E2",
          "ticks": 29880,
          "time": 104.47542,
          "velocity": 0.6299212598425197
        },
        {
          "duration": 0.8811180000000007,
          "durationTicks": 252,
          "midi": 42,
          "name": "F#2",
          "ticks": 29940,
          "time": 104.68521,
          "velocity": 0.6299212598425197
        },
        {
          "duration": 0.1678320000000042,
          "durationTicks": 48,
          "midi": 44,
          "name": "G#2",
          "ticks": 30240,
          "time": 105.73416,
          "velocity": 0.6299212598425197
        },
        {
          "duration": 0.37762200000000234,
          "durationTicks": 108,
          "midi": 44,
          "name": "G#2",
          "ticks": 30300,
          "time": 105.94395,
          "velocity": 0.6299212598425197
        },
        {
          "duration": 0.3356640000000084,
          "durationTicks": 96,
          "midi": 42,
          "name": "F#2",
          "ticks": 30420,
          "time": 106.36353,
          "velocity": 0.6299212598425197
        },
        {
          "duration": 0.16783199999999,
          "durationTicks": 48,
          "midi": 42,
          "name": "F#2",
          "ticks": 30540,
          "time": 106.78311000000001,
          "velocity": 0.6299212598425197
        },
        {
          "duration": 0.1678320000000042,
          "durationTicks": 48,
          "midi": 42,
          "name": "F#2",
          "ticks": 30600,
          "time": 106.9929,
          "velocity": 0.6299212598425197
        },
        {
          "duration": 0.3356640000000084,
          "durationTicks": 96,
          "midi": 40,
          "name": "E2",
          "ticks": 30720,
          "time": 107.41248,
          "velocity": 0.6299212598425197
        },
        {
          "duration": 0.16783199999999,
          "durationTicks": 48,
          "midi": 40,
          "name": "E2",
          "ticks": 30840,
          "time": 107.83206,
          "velocity": 0.6299212598425197
        },
        {
          "duration": 0.881118000000015,
          "durationTicks": 252,
          "midi": 42,
          "name": "F#2",
          "ticks": 30900,
          "time": 108.04185,
          "velocity": 0.6299212598425197
        },
        {
          "duration": 0.16783199999999,
          "durationTicks": 48,
          "midi": 44,
          "name": "G#2",
          "ticks": 31200,
          "time": 109.0908,
          "velocity": 0.6299212598425197
        },
        {
          "duration": 0.37762199999998813,
          "durationTicks": 108,
          "midi": 44,
          "name": "G#2",
          "ticks": 31260,
          "time": 109.30059,
          "velocity": 0.6299212598425197
        },
        {
          "duration": 0.3356640000000084,
          "durationTicks": 96,
          "midi": 45,
          "name": "A2",
          "ticks": 31380,
          "time": 109.72017,
          "velocity": 0.6299212598425197
        },
        {
          "duration": 0.16783199999999,
          "durationTicks": 48,
          "midi": 45,
          "name": "A2",
          "ticks": 31500,
          "time": 110.13975,
          "velocity": 0.6299212598425197
        },
        {
          "duration": 0.16783199999999,
          "durationTicks": 48,
          "midi": 45,
          "name": "A2",
          "ticks": 31560,
          "time": 110.34954,
          "velocity": 0.6299212598425197
        },
        {
          "duration": 0.3356640000000084,
          "durationTicks": 96,
          "midi": 40,
          "name": "E2",
          "ticks": 31680,
          "time": 110.76912,
          "velocity": 0.6299212598425197
        },
        {
          "duration": 0.16783199999999,
          "durationTicks": 48,
          "midi": 40,
          "name": "E2",
          "ticks": 31800,
          "time": 111.1887,
          "velocity": 0.6299212598425197
        },
        {
          "duration": 0.881118000000015,
          "durationTicks": 252,
          "midi": 42,
          "name": "F#2",
          "ticks": 31860,
          "time": 111.39849,
          "velocity": 0.6299212598425197
        },
        {
          "duration": 0.16783199999999,
          "durationTicks": 48,
          "midi": 44,
          "name": "G#2",
          "ticks": 32160,
          "time": 112.44744,
          "velocity": 0.6299212598425197
        },
        {
          "duration": 0.37762199999998813,
          "durationTicks": 108,
          "midi": 44,
          "name": "G#2",
          "ticks": 32220,
          "time": 112.65723,
          "velocity": 0.6299212598425197
        },
        {
          "duration": 0.3356639999999942,
          "durationTicks": 96,
          "midi": 42,
          "name": "F#2",
          "ticks": 32340,
          "time": 113.07681000000001,
          "velocity": 0.6299212598425197
        },
        {
          "duration": 0.16783199999999,
          "durationTicks": 48,
          "midi": 42,
          "name": "F#2",
          "ticks": 32460,
          "time": 113.49639,
          "velocity": 0.6299212598425197
        },
        {
          "duration": 0.16783199999999,
          "durationTicks": 48,
          "midi": 42,
          "name": "F#2",
          "ticks": 32520,
          "time": 113.70618,
          "velocity": 0.6299212598425197
        },
        {
          "duration": 0.3356640000000084,
          "durationTicks": 96,
          "midi": 40,
          "name": "E2",
          "ticks": 32640,
          "time": 114.12576,
          "velocity": 0.6299212598425197
        },
        {
          "duration": 0.16783199999999,
          "durationTicks": 48,
          "midi": 40,
          "name": "E2",
          "ticks": 32760,
          "time": 114.54534,
          "velocity": 0.6299212598425197
        },
        {
          "duration": 0.8811180000000007,
          "durationTicks": 252,
          "midi": 42,
          "name": "F#2",
          "ticks": 32820,
          "time": 114.75513000000001,
          "velocity": 0.6299212598425197
        },
        {
          "duration": 0.16783199999999,
          "durationTicks": 48,
          "midi": 44,
          "name": "G#2",
          "ticks": 33120,
          "time": 115.80408,
          "velocity": 0.6299212598425197
        },
        {
          "duration": 0.37762200000000234,
          "durationTicks": 108,
          "midi": 44,
          "name": "G#2",
          "ticks": 33180,
          "time": 116.01387,
          "velocity": 0.6299212598425197
        },
        {
          "duration": 0.3356639999999942,
          "durationTicks": 96,
          "midi": 45,
          "name": "A2",
          "ticks": 33300,
          "time": 116.43345000000001,
          "velocity": 0.6299212598425197
        },
        {
          "duration": 0.16783199999999,
          "durationTicks": 48,
          "midi": 45,
          "name": "A2",
          "ticks": 33420,
          "time": 116.85303,
          "velocity": 0.6299212598425197
        },
        {
          "duration": 0.16783199999999,
          "durationTicks": 48,
          "midi": 45,
          "name": "A2",
          "ticks": 33480,
          "time": 117.06282,
          "velocity": 0.6299212598425197
        },
        {
          "duration": 0.5034959999999984,
          "durationTicks": 144,
          "midi": 40,
          "name": "E2",
          "ticks": 33600,
          "time": 117.4824,
          "velocity": 0.6299212598425197
        },
        {
          "duration": 2.559438,
          "durationTicks": 732,
          "midi": 42,
          "name": "F#2",
          "ticks": 33780,
          "time": 118.11177,
          "velocity": 0.6299212598425197
        },
        {
          "duration": 0.16783199999999,
          "durationTicks": 48,
          "midi": 44,
          "name": "G#2",
          "ticks": 34560,
          "time": 120.83904,
          "velocity": 0.6299212598425197
        },
        {
          "duration": 0.16783199999999,
          "durationTicks": 48,
          "midi": 47,
          "name": "B2",
          "ticks": 34620,
          "time": 121.04883000000001,
          "velocity": 0.6299212598425197
        },
        {
          "duration": 0.16783199999999,
          "durationTicks": 48,
          "midi": 52,
          "name": "E3",
          "ticks": 34680,
          "time": 121.25862000000001,
          "velocity": 0.6299212598425197
        },
        {
          "duration": 0.16783199999999,
          "durationTicks": 48,
          "midi": 44,
          "name": "G#2",
          "ticks": 34740,
          "time": 121.46841,
          "velocity": 0.6299212598425197
        },
        {
          "duration": 0.16783199999999,
          "durationTicks": 48,
          "midi": 47,
          "name": "B2",
          "ticks": 34800,
          "time": 121.6782,
          "velocity": 0.6299212598425197
        },
        {
          "duration": 0.16783199999999,
          "durationTicks": 48,
          "midi": 52,
          "name": "E3",
          "ticks": 34860,
          "time": 121.88799,
          "velocity": 0.6299212598425197
        },
        {
          "duration": 0.16783199999999,
          "durationTicks": 48,
          "midi": 44,
          "name": "G#2",
          "ticks": 34920,
          "time": 122.09778,
          "velocity": 0.6299212598425197
        },
        {
          "duration": 0.16783199999999,
          "durationTicks": 48,
          "midi": 47,
          "name": "B2",
          "ticks": 34980,
          "time": 122.30757,
          "velocity": 0.6299212598425197
        },
        {
          "duration": 0.16783199999999,
          "durationTicks": 48,
          "midi": 52,
          "name": "E3",
          "ticks": 35040,
          "time": 122.51736,
          "velocity": 0.6299212598425197
        },
        {
          "duration": 0.16783199999999,
          "durationTicks": 48,
          "midi": 44,
          "name": "G#2",
          "ticks": 35100,
          "time": 122.72715000000001,
          "velocity": 0.6299212598425197
        },
        {
          "duration": 0.16783199999999,
          "durationTicks": 48,
          "midi": 47,
          "name": "B2",
          "ticks": 35160,
          "time": 122.93694,
          "velocity": 0.6299212598425197
        },
        {
          "duration": 0.16783199999999,
          "durationTicks": 48,
          "midi": 52,
          "name": "E3",
          "ticks": 35220,
          "time": 123.14673,
          "velocity": 0.6299212598425197
        },
        {
          "duration": 0.16783199999999,
          "durationTicks": 48,
          "midi": 44,
          "name": "G#2",
          "ticks": 35280,
          "time": 123.35652,
          "velocity": 0.6299212598425197
        },
        {
          "duration": 0.16783199999999,
          "durationTicks": 48,
          "midi": 47,
          "name": "B2",
          "ticks": 35340,
          "time": 123.56631,
          "velocity": 0.6299212598425197
        },
        {
          "duration": 0.16783199999999,
          "durationTicks": 48,
          "midi": 52,
          "name": "E3",
          "ticks": 35400,
          "time": 123.7761,
          "velocity": 0.6299212598425197
        },
        {
          "duration": 0.3356640000000084,
          "durationTicks": 96,
          "midi": 40,
          "name": "E2",
          "ticks": 35520,
          "time": 124.19568,
          "velocity": 0.6299212598425197
        },
        {
          "duration": 0.16783199999999,
          "durationTicks": 48,
          "midi": 40,
          "name": "E2",
          "ticks": 35640,
          "time": 124.61526,
          "velocity": 0.6299212598425197
        },
        {
          "duration": 0.8811180000000007,
          "durationTicks": 252,
          "midi": 42,
          "name": "F#2",
          "ticks": 35700,
          "time": 124.82505,
          "velocity": 0.6299212598425197
        },
        {
          "duration": 0.16783199999999,
          "durationTicks": 48,
          "midi": 44,
          "name": "G#2",
          "ticks": 36000,
          "time": 125.87400000000001,
          "velocity": 0.6299212598425197
        },
        {
          "duration": 0.37762199999998813,
          "durationTicks": 108,
          "midi": 44,
          "name": "G#2",
          "ticks": 36060,
          "time": 126.08379000000001,
          "velocity": 0.6299212598425197
        },
        {
          "duration": 0.3356640000000084,
          "durationTicks": 96,
          "midi": 45,
          "name": "A2",
          "ticks": 36180,
          "time": 126.50337,
          "velocity": 0.6299212598425197
        },
        {
          "duration": 0.16783199999999,
          "durationTicks": 48,
          "midi": 45,
          "name": "A2",
          "ticks": 36300,
          "time": 126.92295,
          "velocity": 0.6299212598425197
        },
        {
          "duration": 0.16783199999999,
          "durationTicks": 48,
          "midi": 45,
          "name": "A2",
          "ticks": 36360,
          "time": 127.13274,
          "velocity": 0.6299212598425197
        },
        {
          "duration": 0.3356639999999942,
          "durationTicks": 96,
          "midi": 40,
          "name": "E2",
          "ticks": 36480,
          "time": 127.55232000000001,
          "velocity": 0.6299212598425197
        },
        {
          "duration": 0.16783199999997578,
          "durationTicks": 48,
          "midi": 40,
          "name": "E2",
          "ticks": 36600,
          "time": 127.9719,
          "velocity": 0.6299212598425197
        },
        {
          "duration": 0.881118000000015,
          "durationTicks": 252,
          "midi": 42,
          "name": "F#2",
          "ticks": 36660,
          "time": 128.18169,
          "velocity": 0.6299212598425197
        },
        {
          "duration": 0.1678320000000042,
          "durationTicks": 48,
          "midi": 44,
          "name": "G#2",
          "ticks": 36960,
          "time": 129.23064,
          "velocity": 0.6299212598425197
        },
        {
          "duration": 0.37762200000000234,
          "durationTicks": 108,
          "midi": 44,
          "name": "G#2",
          "ticks": 37020,
          "time": 129.44043,
          "velocity": 0.6299212598425197
        },
        {
          "duration": 0.33566399999998,
          "durationTicks": 96,
          "midi": 42,
          "name": "F#2",
          "ticks": 37140,
          "time": 129.86001000000002,
          "velocity": 0.6299212598425197
        },
        {
          "duration": 0.16783199999997578,
          "durationTicks": 48,
          "midi": 42,
          "name": "F#2",
          "ticks": 37260,
          "time": 130.27959,
          "velocity": 0.6299212598425197
        },
        {
          "duration": 0.16783199999997578,
          "durationTicks": 48,
          "midi": 42,
          "name": "F#2",
          "ticks": 37320,
          "time": 130.48938,
          "velocity": 0.6299212598425197
        },
        {
          "duration": 0.3356640000000084,
          "durationTicks": 96,
          "midi": 40,
          "name": "E2",
          "ticks": 37440,
          "time": 130.90896,
          "velocity": 0.6299212598425197
        },
        {
          "duration": 0.16783199999997578,
          "durationTicks": 48,
          "midi": 40,
          "name": "E2",
          "ticks": 37560,
          "time": 131.32854,
          "velocity": 0.6299212598425197
        },
        {
          "duration": 0.881118000000015,
          "durationTicks": 252,
          "midi": 42,
          "name": "F#2",
          "ticks": 37620,
          "time": 131.53833,
          "velocity": 0.6299212598425197
        },
        {
          "duration": 0.1678320000000042,
          "durationTicks": 48,
          "midi": 44,
          "name": "G#2",
          "ticks": 37920,
          "time": 132.58728,
          "velocity": 0.6299212598425197
        },
        {
          "duration": 0.37762200000000234,
          "durationTicks": 108,
          "midi": 44,
          "name": "G#2",
          "ticks": 37980,
          "time": 132.79707,
          "velocity": 0.6299212598425197
        },
        {
          "duration": 0.33566399999998,
          "durationTicks": 96,
          "midi": 45,
          "name": "A2",
          "ticks": 38100,
          "time": 133.21665000000002,
          "velocity": 0.6299212598425197
        },
        {
          "duration": 0.16783199999997578,
          "durationTicks": 48,
          "midi": 45,
          "name": "A2",
          "ticks": 38220,
          "time": 133.63623,
          "velocity": 0.6299212598425197
        },
        {
          "duration": 0.16783199999997578,
          "durationTicks": 48,
          "midi": 45,
          "name": "A2",
          "ticks": 38280,
          "time": 133.84602,
          "velocity": 0.6299212598425197
        },
        {
          "duration": 0.3356640000000084,
          "durationTicks": 96,
          "midi": 40,
          "name": "E2",
          "ticks": 38400,
          "time": 134.2656,
          "velocity": 0.6299212598425197
        },
        {
          "duration": 0.1678320000000042,
          "durationTicks": 48,
          "midi": 40,
          "name": "E2",
          "ticks": 38520,
          "time": 134.68518,
          "velocity": 0.6299212598425197
        },
        {
          "duration": 0.881118000000015,
          "durationTicks": 252,
          "midi": 42,
          "name": "F#2",
          "ticks": 38580,
          "time": 134.89497,
          "velocity": 0.6299212598425197
        },
        {
          "duration": 0.1678320000000042,
          "durationTicks": 48,
          "midi": 44,
          "name": "G#2",
          "ticks": 38880,
          "time": 135.94392,
          "velocity": 0.6299212598425197
        },
        {
          "duration": 0.37762200000000234,
          "durationTicks": 108,
          "midi": 44,
          "name": "G#2",
          "ticks": 38940,
          "time": 136.15371,
          "velocity": 0.6299212598425197
        },
        {
          "duration": 0.33566399999998,
          "durationTicks": 96,
          "midi": 42,
          "name": "F#2",
          "ticks": 39060,
          "time": 136.57329000000001,
          "velocity": 0.6299212598425197
        },
        {
          "duration": 0.16783199999997578,
          "durationTicks": 48,
          "midi": 42,
          "name": "F#2",
          "ticks": 39180,
          "time": 136.99287,
          "velocity": 0.6299212598425197
        },
        {
          "duration": 0.16783199999997578,
          "durationTicks": 48,
          "midi": 42,
          "name": "F#2",
          "ticks": 39240,
          "time": 137.20266,
          "velocity": 0.6299212598425197
        },
        {
          "duration": 0.3356640000000084,
          "durationTicks": 96,
          "midi": 40,
          "name": "E2",
          "ticks": 39360,
          "time": 137.62224,
          "velocity": 0.6299212598425197
        },
        {
          "duration": 0.1678320000000042,
          "durationTicks": 48,
          "midi": 40,
          "name": "E2",
          "ticks": 39480,
          "time": 138.04182,
          "velocity": 0.6299212598425197
        },
        {
          "duration": 0.881118000000015,
          "durationTicks": 252,
          "midi": 42,
          "name": "F#2",
          "ticks": 39540,
          "time": 138.25161,
          "velocity": 0.6299212598425197
        },
        {
          "duration": 0.1678320000000042,
          "durationTicks": 48,
          "midi": 44,
          "name": "G#2",
          "ticks": 39840,
          "time": 139.30056,
          "velocity": 0.6299212598425197
        },
        {
          "duration": 0.3776219999999739,
          "durationTicks": 108,
          "midi": 44,
          "name": "G#2",
          "ticks": 39900,
          "time": 139.51035000000002,
          "velocity": 0.6299212598425197
        },
        {
          "duration": 0.3356640000000084,
          "durationTicks": 96,
          "midi": 45,
          "name": "A2",
          "ticks": 40020,
          "time": 139.92993,
          "velocity": 0.6299212598425197
        },
        {
          "duration": 0.16783199999997578,
          "durationTicks": 48,
          "midi": 45,
          "name": "A2",
          "ticks": 40140,
          "time": 140.34951,
          "velocity": 0.6299212598425197
        },
        {
          "duration": 0.16783199999997578,
          "durationTicks": 48,
          "midi": 45,
          "name": "A2",
          "ticks": 40200,
          "time": 140.5593,
          "velocity": 0.6299212598425197
        },
        {
          "duration": 0.3356640000000084,
          "durationTicks": 96,
          "midi": 40,
          "name": "E2",
          "ticks": 40320,
          "time": 140.97888,
          "velocity": 0.6299212598425197
        },
        {
          "duration": 0.1678320000000042,
          "durationTicks": 48,
          "midi": 40,
          "name": "E2",
          "ticks": 40440,
          "time": 141.39846,
          "velocity": 0.6299212598425197
        },
        {
          "duration": 0.881118000000015,
          "durationTicks": 252,
          "midi": 42,
          "name": "F#2",
          "ticks": 40500,
          "time": 141.60825,
          "velocity": 0.6299212598425197
        },
        {
          "duration": 0.1678320000000042,
          "durationTicks": 48,
          "midi": 44,
          "name": "G#2",
          "ticks": 40800,
          "time": 142.6572,
          "velocity": 0.6299212598425197
        },
        {
          "duration": 0.3776219999999739,
          "durationTicks": 108,
          "midi": 44,
          "name": "G#2",
          "ticks": 40860,
          "time": 142.86699000000002,
          "velocity": 0.6299212598425197
        },
        {
          "duration": 0.3356640000000084,
          "durationTicks": 96,
          "midi": 42,
          "name": "F#2",
          "ticks": 40980,
          "time": 143.28657,
          "velocity": 0.6299212598425197
        },
        {
          "duration": 0.16783199999997578,
          "durationTicks": 48,
          "midi": 42,
          "name": "F#2",
          "ticks": 41100,
          "time": 143.70615,
          "velocity": 0.6299212598425197
        },
        {
          "duration": 0.16783199999997578,
          "durationTicks": 48,
          "midi": 42,
          "name": "F#2",
          "ticks": 41160,
          "time": 143.91594,
          "velocity": 0.6299212598425197
        },
        {
          "duration": 0.3356640000000084,
          "durationTicks": 96,
          "midi": 40,
          "name": "E2",
          "ticks": 41280,
          "time": 144.33552,
          "velocity": 0.6299212598425197
        },
        {
          "duration": 0.1678320000000042,
          "durationTicks": 48,
          "midi": 40,
          "name": "E2",
          "ticks": 41400,
          "time": 144.7551,
          "velocity": 0.6299212598425197
        },
        {
          "duration": 0.881118000000015,
          "durationTicks": 252,
          "midi": 42,
          "name": "F#2",
          "ticks": 41460,
          "time": 144.96489,
          "velocity": 0.6299212598425197
        },
        {
          "duration": 0.16783199999997578,
          "durationTicks": 48,
          "midi": 44,
          "name": "G#2",
          "ticks": 41760,
          "time": 146.01384000000002,
          "velocity": 0.6299212598425197
        },
        {
          "duration": 0.3776219999999739,
          "durationTicks": 108,
          "midi": 44,
          "name": "G#2",
          "ticks": 41820,
          "time": 146.22363,
          "velocity": 0.6299212598425197
        },
        {
          "duration": 0.3356640000000084,
          "durationTicks": 96,
          "midi": 45,
          "name": "A2",
          "ticks": 41940,
          "time": 146.64321,
          "velocity": 0.6299212598425197
        },
        {
          "duration": 0.16783199999997578,
          "durationTicks": 48,
          "midi": 45,
          "name": "A2",
          "ticks": 42060,
          "time": 147.06279,
          "velocity": 0.6299212598425197
        },
        {
          "duration": 0.16783199999997578,
          "durationTicks": 48,
          "midi": 45,
          "name": "A2",
          "ticks": 42120,
          "time": 147.27258,
          "velocity": 0.6299212598425197
        },
        {
          "duration": 0.3356640000000084,
          "durationTicks": 96,
          "midi": 40,
          "name": "E2",
          "ticks": 42240,
          "time": 147.69216,
          "velocity": 0.6299212598425197
        },
        {
          "duration": 0.1678320000000042,
          "durationTicks": 48,
          "midi": 40,
          "name": "E2",
          "ticks": 42360,
          "time": 148.11174,
          "velocity": 0.6299212598425197
        },
        {
          "duration": 0.881118000000015,
          "durationTicks": 252,
          "midi": 42,
          "name": "F#2",
          "ticks": 42420,
          "time": 148.32153,
          "velocity": 0.6299212598425197
        },
        {
          "duration": 0.16783199999997578,
          "durationTicks": 48,
          "midi": 44,
          "name": "G#2",
          "ticks": 42720,
          "time": 149.37048000000001,
          "velocity": 0.6299212598425197
        },
        {
          "duration": 0.3776219999999739,
          "durationTicks": 108,
          "midi": 44,
          "name": "G#2",
          "ticks": 42780,
          "time": 149.58027,
          "velocity": 0.6299212598425197
        },
        {
          "duration": 0.3356640000000084,
          "durationTicks": 96,
          "midi": 42,
          "name": "F#2",
          "ticks": 42900,
          "time": 149.99985,
          "velocity": 0.6299212598425197
        },
        {
          "duration": 0.16783199999997578,
          "durationTicks": 48,
          "midi": 42,
          "name": "F#2",
          "ticks": 43020,
          "time": 150.41943,
          "velocity": 0.6299212598425197
        },
        {
          "duration": 0.16783199999997578,
          "durationTicks": 48,
          "midi": 42,
          "name": "F#2",
          "ticks": 43080,
          "time": 150.62922,
          "velocity": 0.6299212598425197
        },
        {
          "duration": 0.3356640000000084,
          "durationTicks": 96,
          "midi": 40,
          "name": "E2",
          "ticks": 43200,
          "time": 151.0488,
          "velocity": 0.6299212598425197
        },
        {
          "duration": 0.1678320000000042,
          "durationTicks": 48,
          "midi": 40,
          "name": "E2",
          "ticks": 43320,
          "time": 151.46838,
          "velocity": 0.6299212598425197
        },
        {
          "duration": 0.881118000000015,
          "durationTicks": 252,
          "midi": 42,
          "name": "F#2",
          "ticks": 43380,
          "time": 151.67817,
          "velocity": 0.6299212598425197
        },
        {
          "duration": 0.16783199999997578,
          "durationTicks": 48,
          "midi": 44,
          "name": "G#2",
          "ticks": 43680,
          "time": 152.72712,
          "velocity": 0.6299212598425197
        },
        {
          "duration": 0.3776219999999739,
          "durationTicks": 108,
          "midi": 44,
          "name": "G#2",
          "ticks": 43740,
          "time": 152.93691,
          "velocity": 0.6299212598425197
        },
        {
          "duration": 0.3356640000000084,
          "durationTicks": 96,
          "midi": 45,
          "name": "A2",
          "ticks": 43860,
          "time": 153.35649,
          "velocity": 0.6299212598425197
        },
        {
          "duration": 0.16783199999997578,
          "durationTicks": 48,
          "midi": 45,
          "name": "A2",
          "ticks": 43980,
          "time": 153.77607,
          "velocity": 0.6299212598425197
        },
        {
          "duration": 0.1678320000000042,
          "durationTicks": 48,
          "midi": 45,
          "name": "A2",
          "ticks": 44040,
          "time": 153.98586,
          "velocity": 0.6299212598425197
        },
        {
          "duration": 0.3356640000000084,
          "durationTicks": 96,
          "midi": 40,
          "name": "E2",
          "ticks": 44160,
          "time": 154.40544,
          "velocity": 0.6299212598425197
        },
        {
          "duration": 0.1678320000000042,
          "durationTicks": 48,
          "midi": 40,
          "name": "E2",
          "ticks": 44280,
          "time": 154.82502,
          "velocity": 0.6299212598425197
        },
        {
          "duration": 0.881118000000015,
          "durationTicks": 252,
          "midi": 42,
          "name": "F#2",
          "ticks": 44340,
          "time": 155.03481,
          "velocity": 0.6299212598425197
        },
        {
          "duration": 0.16783199999997578,
          "durationTicks": 48,
          "midi": 44,
          "name": "G#2",
          "ticks": 44640,
          "time": 156.08376,
          "velocity": 0.6299212598425197
        },
        {
          "duration": 0.3776219999999739,
          "durationTicks": 108,
          "midi": 44,
          "name": "G#2",
          "ticks": 44700,
          "time": 156.29355,
          "velocity": 0.6299212598425197
        },
        {
          "duration": 0.3356640000000084,
          "durationTicks": 96,
          "midi": 42,
          "name": "F#2",
          "ticks": 44820,
          "time": 156.71313,
          "velocity": 0.6299212598425197
        },
        {
          "duration": 0.1678320000000042,
          "durationTicks": 48,
          "midi": 42,
          "name": "F#2",
          "ticks": 44940,
          "time": 157.13271,
          "velocity": 0.6299212598425197
        },
        {
          "duration": 0.1678320000000042,
          "durationTicks": 48,
          "midi": 42,
          "name": "F#2",
          "ticks": 45000,
          "time": 157.3425,
          "velocity": 0.6299212598425197
        },
        {
          "duration": 0.3356640000000084,
          "durationTicks": 96,
          "midi": 40,
          "name": "E2",
          "ticks": 45120,
          "time": 157.76208,
          "velocity": 0.6299212598425197
        },
        {
          "duration": 0.1678320000000042,
          "durationTicks": 48,
          "midi": 40,
          "name": "E2",
          "ticks": 45240,
          "time": 158.18166,
          "velocity": 0.6299212598425197
        },
        {
          "duration": 0.881118000000015,
          "durationTicks": 252,
          "midi": 42,
          "name": "F#2",
          "ticks": 45300,
          "time": 158.39145,
          "velocity": 0.6299212598425197
        },
        {
          "duration": 0.16783199999997578,
          "durationTicks": 48,
          "midi": 44,
          "name": "G#2",
          "ticks": 45600,
          "time": 159.4404,
          "velocity": 0.6299212598425197
        },
        {
          "duration": 0.3776219999999739,
          "durationTicks": 108,
          "midi": 44,
          "name": "G#2",
          "ticks": 45660,
          "time": 159.65019,
          "velocity": 0.6299212598425197
        },
        {
          "duration": 0.3356640000000084,
          "durationTicks": 96,
          "midi": 45,
          "name": "A2",
          "ticks": 45780,
          "time": 160.06977,
          "velocity": 0.6299212598425197
        },
        {
          "duration": 0.1678320000000042,
          "durationTicks": 48,
          "midi": 45,
          "name": "A2",
          "ticks": 45900,
          "time": 160.48935,
          "velocity": 0.6299212598425197
        },
        {
          "duration": 0.1678320000000042,
          "durationTicks": 48,
          "midi": 45,
          "name": "A2",
          "ticks": 45960,
          "time": 160.69914,
          "velocity": 0.6299212598425197
        },
        {
          "duration": 0.5034960000000126,
          "durationTicks": 144,
          "midi": 40,
          "name": "E2",
          "ticks": 46080,
          "time": 161.11872,
          "velocity": 0.6299212598425197
        },
        {
          "duration": 4.0699260000000095,
          "durationTicks": 1164,
          "midi": 42,
          "name": "F#2",
          "ticks": 46260,
          "time": 161.74809,
          "velocity": 0.6299212598425197
        }
      ]
    },
    {
      "channel": 5,
      "controlChanges": {
        "7": [
          {
            "number": 7,
            "ticks": 0,
            "time": 0,
            "value": 0.7480314960629921
          },
          {
            "number": 7,
            "ticks": 0,
            "time": 0,
            "value": 0.7480314960629921
          },
          {
            "number": 7,
            "ticks": 0,
            "time": 0,
            "value": 0.7480314960629921
          },
          {
            "number": 7,
            "ticks": 0,
            "time": 0,
            "value": 0.7480314960629921
          },
          {
            "number": 7,
            "ticks": 0,
            "time": 0,
            "value": 0.7480314960629921
          },
          {
            "number": 7,
            "ticks": 0,
            "time": 0,
            "value": 0.7480314960629921
          },
          {
            "number": 7,
            "ticks": 0,
            "time": 0,
            "value": 0.7480314960629921
          },
          {
            "number": 7,
            "ticks": 0,
            "time": 0,
            "value": 0.7480314960629921
          }
        ]
      },
      "pitchBends": [],
      "instrument": {
        "family": "organ",
        "number": 16,
        "name": "drawbar organ"
      },
      "name": "Organ",
      "notes": [
        {
          "duration": 0.3356640000000084,
          "durationTicks": 96,
          "midi": 68,
          "name": "G#4",
          "ticks": 23040,
          "time": 80.55936,
          "velocity": 0.6299212598425197
        },
        {
          "duration": 0.3356639999999942,
          "durationTicks": 96,
          "midi": 71,
          "name": "B4",
          "ticks": 23160,
          "time": 80.97894000000001,
          "velocity": 0.6299212598425197
        },
        {
          "duration": 0.3356640000000084,
          "durationTicks": 96,
          "midi": 69,
          "name": "A4",
          "ticks": 23280,
          "time": 81.39852,
          "velocity": 0.6299212598425197
        },
        {
          "duration": 0.1678320000000042,
          "durationTicks": 48,
          "midi": 71,
          "name": "B4",
          "ticks": 23400,
          "time": 81.8181,
          "velocity": 0.6299212598425197
        },
        {
          "duration": 0.5454540000000065,
          "durationTicks": 156,
          "midi": 68,
          "name": "G#4",
          "ticks": 23460,
          "time": 82.02789,
          "velocity": 0.6299212598425197
        },
        {
          "duration": 0.3356639999999942,
          "durationTicks": 96,
          "midi": 71,
          "name": "B4",
          "ticks": 23640,
          "time": 82.65726000000001,
          "velocity": 0.6299212598425197
        },
        {
          "duration": 0.3356640000000084,
          "durationTicks": 96,
          "midi": 66,
          "name": "F#4",
          "ticks": 23760,
          "time": 83.07684,
          "velocity": 0.6299212598425197
        },
        {
          "duration": 0.3356640000000084,
          "durationTicks": 96,
          "midi": 71,
          "name": "B4",
          "ticks": 23880,
          "time": 83.49642,
          "velocity": 0.6299212598425197
        },
        {
          "duration": 0.3356640000000084,
          "durationTicks": 96,
          "midi": 68,
          "name": "G#4",
          "ticks": 24000,
          "time": 83.916,
          "velocity": 0.6299212598425197
        },
        {
          "duration": 0.3356639999999942,
          "durationTicks": 96,
          "midi": 71,
          "name": "B4",
          "ticks": 24120,
          "time": 84.33558000000001,
          "velocity": 0.6299212598425197
        },
        {
          "duration": 0.3356640000000084,
          "durationTicks": 96,
          "midi": 69,
          "name": "A4",
          "ticks": 24240,
          "time": 84.75516,
          "velocity": 0.6299212598425197
        },
        {
          "duration": 0.1678320000000042,
          "durationTicks": 48,
          "midi": 71,
          "name": "B4",
          "ticks": 24360,
          "time": 85.17474,
          "velocity": 0.6299212598425197
        },
        {
          "duration": 0.5454540000000065,
          "durationTicks": 156,
          "midi": 68,
          "name": "G#4",
          "ticks": 24420,
          "time": 85.38453,
          "velocity": 0.6299212598425197
        },
        {
          "duration": 0.3356639999999942,
          "durationTicks": 96,
          "midi": 71,
          "name": "B4",
          "ticks": 24600,
          "time": 86.0139,
          "velocity": 0.6299212598425197
        },
        {
          "duration": 0.3356640000000084,
          "durationTicks": 96,
          "midi": 66,
          "name": "F#4",
          "ticks": 24720,
          "time": 86.43348,
          "velocity": 0.6299212598425197
        },
        {
          "duration": 0.3356640000000084,
          "durationTicks": 96,
          "midi": 71,
          "name": "B4",
          "ticks": 24840,
          "time": 86.85306,
          "velocity": 0.6299212598425197
        },
        {
          "duration": 0.3356640000000084,
          "durationTicks": 96,
          "midi": 68,
          "name": "G#4",
          "ticks": 24960,
          "time": 87.27264,
          "velocity": 0.6299212598425197
        },
        {
          "duration": 0.3356639999999942,
          "durationTicks": 96,
          "midi": 71,
          "name": "B4",
          "ticks": 25080,
          "time": 87.69222,
          "velocity": 0.6299212598425197
        },
        {
          "duration": 0.3356640000000084,
          "durationTicks": 96,
          "midi": 69,
          "name": "A4",
          "ticks": 25200,
          "time": 88.1118,
          "velocity": 0.6299212598425197
        },
        {
          "duration": 0.1678320000000042,
          "durationTicks": 48,
          "midi": 71,
          "name": "B4",
          "ticks": 25320,
          "time": 88.53138,
          "velocity": 0.6299212598425197
        },
        {
          "duration": 0.5454540000000065,
          "durationTicks": 156,
          "midi": 68,
          "name": "G#4",
          "ticks": 25380,
          "time": 88.74117,
          "velocity": 0.6299212598425197
        },
        {
          "duration": 0.3356639999999942,
          "durationTicks": 96,
          "midi": 71,
          "name": "B4",
          "ticks": 25560,
          "time": 89.37054,
          "velocity": 0.6299212598425197
        },
        {
          "duration": 0.3356640000000084,
          "durationTicks": 96,
          "midi": 66,
          "name": "F#4",
          "ticks": 25680,
          "time": 89.79012,
          "velocity": 0.6299212598425197
        },
        {
          "duration": 0.3356640000000084,
          "durationTicks": 96,
          "midi": 71,
          "name": "B4",
          "ticks": 25800,
          "time": 90.2097,
          "velocity": 0.6299212598425197
        },
        {
          "duration": 0.3356639999999942,
          "durationTicks": 96,
          "midi": 68,
          "name": "G#4",
          "ticks": 25920,
          "time": 90.62928000000001,
          "velocity": 0.6299212598425197
        },
        {
          "duration": 0.3356640000000084,
          "durationTicks": 96,
          "midi": 71,
          "name": "B4",
          "ticks": 26040,
          "time": 91.04886,
          "velocity": 0.6299212598425197
        },
        {
          "duration": 0.3356640000000084,
          "durationTicks": 96,
          "midi": 69,
          "name": "A4",
          "ticks": 26160,
          "time": 91.46844,
          "velocity": 0.6299212598425197
        },
        {
          "duration": 0.1678320000000042,
          "durationTicks": 48,
          "midi": 71,
          "name": "B4",
          "ticks": 26280,
          "time": 91.88802,
          "velocity": 0.6299212598425197
        },
        {
          "duration": 0.5454540000000065,
          "durationTicks": 156,
          "midi": 68,
          "name": "G#4",
          "ticks": 26340,
          "time": 92.09781,
          "velocity": 0.6299212598425197
        },
        {
          "duration": 0.3356640000000084,
          "durationTicks": 96,
          "midi": 71,
          "name": "B4",
          "ticks": 26520,
          "time": 92.72718,
          "velocity": 0.6299212598425197
        },
        {
          "duration": 0.3356640000000084,
          "durationTicks": 96,
          "midi": 66,
          "name": "F#4",
          "ticks": 26640,
          "time": 93.14676,
          "velocity": 0.6299212598425197
        },
        {
          "duration": 0.3356640000000084,
          "durationTicks": 96,
          "midi": 71,
          "name": "B4",
          "ticks": 26760,
          "time": 93.56634,
          "velocity": 0.6299212598425197
        },
        {
          "duration": 0.3356639999999942,
          "durationTicks": 96,
          "midi": 68,
          "name": "G#4",
          "ticks": 26880,
          "time": 93.98592000000001,
          "velocity": 0.6299212598425197
        },
        {
          "duration": 0.3356640000000084,
          "durationTicks": 96,
          "midi": 71,
          "name": "B4",
          "ticks": 27000,
          "time": 94.4055,
          "velocity": 0.6299212598425197
        },
        {
          "duration": 0.3356640000000084,
          "durationTicks": 96,
          "midi": 69,
          "name": "A4",
          "ticks": 27120,
          "time": 94.82508,
          "velocity": 0.6299212598425197
        },
        {
          "duration": 0.1678320000000042,
          "durationTicks": 48,
          "midi": 71,
          "name": "B4",
          "ticks": 27240,
          "time": 95.24466,
          "velocity": 0.6299212598425197
        },
        {
          "duration": 0.5454539999999923,
          "durationTicks": 156,
          "midi": 68,
          "name": "G#4",
          "ticks": 27300,
          "time": 95.45445000000001,
          "velocity": 0.6299212598425197
        },
        {
          "duration": 0.3356640000000084,
          "durationTicks": 96,
          "midi": 71,
          "name": "B4",
          "ticks": 27480,
          "time": 96.08382,
          "velocity": 0.6299212598425197
        },
        {
          "duration": 0.3356640000000084,
          "durationTicks": 96,
          "midi": 66,
          "name": "F#4",
          "ticks": 27600,
          "time": 96.5034,
          "velocity": 0.6299212598425197
        },
        {
          "duration": 0.3356640000000084,
          "durationTicks": 96,
          "midi": 71,
          "name": "B4",
          "ticks": 27720,
          "time": 96.92298,
          "velocity": 0.6299212598425197
        },
        {
          "duration": 0.3356639999999942,
          "durationTicks": 96,
          "midi": 68,
          "name": "G#4",
          "ticks": 27840,
          "time": 97.34256,
          "velocity": 0.6299212598425197
        },
        {
          "duration": 0.3356640000000084,
          "durationTicks": 96,
          "midi": 71,
          "name": "B4",
          "ticks": 27960,
          "time": 97.76214,
          "velocity": 0.6299212598425197
        },
        {
          "duration": 0.3356640000000084,
          "durationTicks": 96,
          "midi": 69,
          "name": "A4",
          "ticks": 28080,
          "time": 98.18172,
          "velocity": 0.6299212598425197
        },
        {
          "duration": 0.16783199999999,
          "durationTicks": 48,
          "midi": 71,
          "name": "B4",
          "ticks": 28200,
          "time": 98.60130000000001,
          "velocity": 0.6299212598425197
        },
        {
          "duration": 0.5454540000000065,
          "durationTicks": 156,
          "midi": 68,
          "name": "G#4",
          "ticks": 28260,
          "time": 98.81109000000001,
          "velocity": 0.6299212598425197
        },
        {
          "duration": 0.3356640000000084,
          "durationTicks": 96,
          "midi": 71,
          "name": "B4",
          "ticks": 28440,
          "time": 99.44046,
          "velocity": 0.6299212598425197
        },
        {
          "duration": 0.3356640000000084,
          "durationTicks": 96,
          "midi": 66,
          "name": "F#4",
          "ticks": 28560,
          "time": 99.86004,
          "velocity": 0.6299212598425197
        },
        {
          "duration": 0.3356639999999942,
          "durationTicks": 96,
          "midi": 71,
          "name": "B4",
          "ticks": 28680,
          "time": 100.27962000000001,
          "velocity": 0.6299212598425197
        },
        {
          "duration": 0.3356640000000084,
          "durationTicks": 96,
          "midi": 68,
          "name": "G#4",
          "ticks": 28800,
          "time": 100.6992,
          "velocity": 0.6299212598425197
        },
        {
          "duration": 0.3356640000000084,
          "durationTicks": 96,
          "midi": 71,
          "name": "B4",
          "ticks": 28920,
          "time": 101.11878,
          "velocity": 0.6299212598425197
        },
        {
          "duration": 0.3356640000000084,
          "durationTicks": 96,
          "midi": 69,
          "name": "A4",
          "ticks": 29040,
          "time": 101.53836,
          "velocity": 0.6299212598425197
        },
        {
          "duration": 0.16783199999999,
          "durationTicks": 48,
          "midi": 71,
          "name": "B4",
          "ticks": 29160,
          "time": 101.95794000000001,
          "velocity": 0.6299212598425197
        },
        {
          "duration": 0.5454540000000065,
          "durationTicks": 156,
          "midi": 68,
          "name": "G#4",
          "ticks": 29220,
          "time": 102.16773,
          "velocity": 0.6299212598425197
        },
        {
          "duration": 0.3356640000000084,
          "durationTicks": 96,
          "midi": 71,
          "name": "B4",
          "ticks": 29400,
          "time": 102.7971,
          "velocity": 0.6299212598425197
        },
        {
          "duration": 0.3356640000000084,
          "durationTicks": 96,
          "midi": 66,
          "name": "F#4",
          "ticks": 29520,
          "time": 103.21668,
          "velocity": 0.6299212598425197
        },
        {
          "duration": 0.3356639999999942,
          "durationTicks": 96,
          "midi": 71,
          "name": "B4",
          "ticks": 29640,
          "time": 103.63626000000001,
          "velocity": 0.6299212598425197
        },
        {
          "duration": 0.3356640000000084,
          "durationTicks": 96,
          "midi": 68,
          "name": "G#4",
          "ticks": 29760,
          "time": 104.05584,
          "velocity": 0.6299212598425197
        },
        {
          "duration": 0.3356640000000084,
          "durationTicks": 96,
          "midi": 71,
          "name": "B4",
          "ticks": 29880,
          "time": 104.47542,
          "velocity": 0.6299212598425197
        },
        {
          "duration": 0.3356640000000084,
          "durationTicks": 96,
          "midi": 69,
          "name": "A4",
          "ticks": 30000,
          "time": 104.895,
          "velocity": 0.6299212598425197
        },
        {
          "duration": 0.1678320000000042,
          "durationTicks": 48,
          "midi": 71,
          "name": "B4",
          "ticks": 30120,
          "time": 105.31458,
          "velocity": 0.6299212598425197
        },
        {
          "duration": 0.5454540000000065,
          "durationTicks": 156,
          "midi": 68,
          "name": "G#4",
          "ticks": 30180,
          "time": 105.52437,
          "velocity": 0.6299212598425197
        },
        {
          "duration": 0.3356640000000084,
          "durationTicks": 96,
          "midi": 71,
          "name": "B4",
          "ticks": 30360,
          "time": 106.15374,
          "velocity": 0.6299212598425197
        },
        {
          "duration": 0.3356640000000084,
          "durationTicks": 96,
          "midi": 66,
          "name": "F#4",
          "ticks": 30480,
          "time": 106.57332,
          "velocity": 0.6299212598425197
        },
        {
          "duration": 0.3356639999999942,
          "durationTicks": 96,
          "midi": 71,
          "name": "B4",
          "ticks": 30600,
          "time": 106.9929,
          "velocity": 0.6299212598425197
        },
        {
          "duration": 0.3356640000000084,
          "durationTicks": 96,
          "midi": 68,
          "name": "G#4",
          "ticks": 30720,
          "time": 107.41248,
          "velocity": 0.6299212598425197
        },
        {
          "duration": 0.3356640000000084,
          "durationTicks": 96,
          "midi": 71,
          "name": "B4",
          "ticks": 30840,
          "time": 107.83206,
          "velocity": 0.6299212598425197
        },
        {
          "duration": 0.3356639999999942,
          "durationTicks": 96,
          "midi": 69,
          "name": "A4",
          "ticks": 30960,
          "time": 108.25164000000001,
          "velocity": 0.6299212598425197
        },
        {
          "duration": 0.16783199999999,
          "durationTicks": 48,
          "midi": 71,
          "name": "B4",
          "ticks": 31080,
          "time": 108.67122,
          "velocity": 0.6299212598425197
        },
        {
          "duration": 0.5454540000000065,
          "durationTicks": 156,
          "midi": 68,
          "name": "G#4",
          "ticks": 31140,
          "time": 108.88101,
          "velocity": 0.6299212598425197
        },
        {
          "duration": 0.3356640000000084,
          "durationTicks": 96,
          "midi": 71,
          "name": "B4",
          "ticks": 31320,
          "time": 109.51038,
          "velocity": 0.6299212598425197
        },
        {
          "duration": 0.3356639999999942,
          "durationTicks": 96,
          "midi": 66,
          "name": "F#4",
          "ticks": 31440,
          "time": 109.92996000000001,
          "velocity": 0.6299212598425197
        },
        {
          "duration": 0.3356640000000084,
          "durationTicks": 96,
          "midi": 71,
          "name": "B4",
          "ticks": 31560,
          "time": 110.34954,
          "velocity": 0.6299212598425197
        },
        {
          "duration": 0.3356640000000084,
          "durationTicks": 96,
          "midi": 68,
          "name": "G#4",
          "ticks": 31680,
          "time": 110.76912,
          "velocity": 0.6299212598425197
        },
        {
          "duration": 0.3356640000000084,
          "durationTicks": 96,
          "midi": 71,
          "name": "B4",
          "ticks": 31800,
          "time": 111.1887,
          "velocity": 0.6299212598425197
        },
        {
          "duration": 0.3356639999999942,
          "durationTicks": 96,
          "midi": 69,
          "name": "A4",
          "ticks": 31920,
          "time": 111.60828000000001,
          "velocity": 0.6299212598425197
        },
        {
          "duration": 0.16783199999999,
          "durationTicks": 48,
          "midi": 71,
          "name": "B4",
          "ticks": 32040,
          "time": 112.02786,
          "velocity": 0.6299212598425197
        },
        {
          "duration": 0.5454540000000065,
          "durationTicks": 156,
          "midi": 68,
          "name": "G#4",
          "ticks": 32100,
          "time": 112.23765,
          "velocity": 0.6299212598425197
        },
        {
          "duration": 0.3356640000000084,
          "durationTicks": 96,
          "midi": 71,
          "name": "B4",
          "ticks": 32280,
          "time": 112.86702,
          "velocity": 0.6299212598425197
        },
        {
          "duration": 0.3356639999999942,
          "durationTicks": 96,
          "midi": 66,
          "name": "F#4",
          "ticks": 32400,
          "time": 113.2866,
          "velocity": 0.6299212598425197
        },
        {
          "duration": 0.3356640000000084,
          "durationTicks": 96,
          "midi": 71,
          "name": "B4",
          "ticks": 32520,
          "time": 113.70618,
          "velocity": 0.6299212598425197
        },
        {
          "duration": 0.3356640000000084,
          "durationTicks": 96,
          "midi": 68,
          "name": "G#4",
          "ticks": 32640,
          "time": 114.12576,
          "velocity": 0.6299212598425197
        },
        {
          "duration": 0.3356640000000084,
          "durationTicks": 96,
          "midi": 71,
          "name": "B4",
          "ticks": 32760,
          "time": 114.54534,
          "velocity": 0.6299212598425197
        },
        {
          "duration": 0.3356639999999942,
          "durationTicks": 96,
          "midi": 69,
          "name": "A4",
          "ticks": 32880,
          "time": 114.96492,
          "velocity": 0.6299212598425197
        },
        {
          "duration": 0.16783199999999,
          "durationTicks": 48,
          "midi": 71,
          "name": "B4",
          "ticks": 33000,
          "time": 115.3845,
          "velocity": 0.6299212598425197
        },
        {
          "duration": 0.5454540000000065,
          "durationTicks": 156,
          "midi": 68,
          "name": "G#4",
          "ticks": 33060,
          "time": 115.59429,
          "velocity": 0.6299212598425197
        },
        {
          "duration": 0.3356640000000084,
          "durationTicks": 96,
          "midi": 71,
          "name": "B4",
          "ticks": 33240,
          "time": 116.22366,
          "velocity": 0.6299212598425197
        },
        {
          "duration": 0.3356640000000084,
          "durationTicks": 96,
          "midi": 66,
          "name": "F#4",
          "ticks": 33360,
          "time": 116.64324,
          "velocity": 0.6299212598425197
        },
        {
          "duration": 0.3356640000000084,
          "durationTicks": 96,
          "midi": 71,
          "name": "B4",
          "ticks": 33480,
          "time": 117.06282,
          "velocity": 0.6299212598425197
        },
        {
          "duration": 0.5034959999999984,
          "durationTicks": 144,
          "midi": 68,
          "name": "G#4",
          "ticks": 33600,
          "time": 117.4824,
          "velocity": 0.6299212598425197
        },
        {
          "duration": 2.391605999999996,
          "durationTicks": 684,
          "midi": 71,
          "name": "B4",
          "ticks": 33780,
          "time": 118.11177,
          "velocity": 0.6299212598425197
        },
        {
          "duration": 0.3356640000000084,
          "durationTicks": 96,
          "midi": 68,
          "name": "G#4",
          "ticks": 43200,
          "time": 151.0488,
          "velocity": 0.6299212598425197
        },
        {
          "duration": 0.3356640000000084,
          "durationTicks": 96,
          "midi": 71,
          "name": "B4",
          "ticks": 43320,
          "time": 151.46838,
          "velocity": 0.6299212598425197
        },
        {
          "duration": 0.3356640000000084,
          "durationTicks": 96,
          "midi": 69,
          "name": "A4",
          "ticks": 43440,
          "time": 151.88796,
          "velocity": 0.6299212598425197
        },
        {
          "duration": 0.16783199999997578,
          "durationTicks": 48,
          "midi": 71,
          "name": "B4",
          "ticks": 43560,
          "time": 152.30754000000002,
          "velocity": 0.6299212598425197
        },
        {
          "duration": 0.5454540000000065,
          "durationTicks": 156,
          "midi": 68,
          "name": "G#4",
          "ticks": 43620,
          "time": 152.51733000000002,
          "velocity": 0.6299212598425197
        },
        {
          "duration": 0.3356640000000084,
          "durationTicks": 96,
          "midi": 71,
          "name": "B4",
          "ticks": 43800,
          "time": 153.1467,
          "velocity": 0.6299212598425197
        },
        {
          "duration": 0.3356640000000084,
          "durationTicks": 96,
          "midi": 66,
          "name": "F#4",
          "ticks": 43920,
          "time": 153.56628,
          "velocity": 0.6299212598425197
        },
        {
          "duration": 0.3356640000000084,
          "durationTicks": 96,
          "midi": 71,
          "name": "B4",
          "ticks": 44040,
          "time": 153.98586,
          "velocity": 0.6299212598425197
        },
        {
          "duration": 0.3356640000000084,
          "durationTicks": 96,
          "midi": 68,
          "name": "G#4",
          "ticks": 44160,
          "time": 154.40544,
          "velocity": 0.6299212598425197
        },
        {
          "duration": 0.3356640000000084,
          "durationTicks": 96,
          "midi": 71,
          "name": "B4",
          "ticks": 44280,
          "time": 154.82502,
          "velocity": 0.6299212598425197
        },
        {
          "duration": 0.3356640000000084,
          "durationTicks": 96,
          "midi": 69,
          "name": "A4",
          "ticks": 44400,
          "time": 155.2446,
          "velocity": 0.6299212598425197
        },
        {
          "duration": 0.16783199999997578,
          "durationTicks": 48,
          "midi": 71,
          "name": "B4",
          "ticks": 44520,
          "time": 155.66418000000002,
          "velocity": 0.6299212598425197
        },
        {
          "duration": 0.5454540000000065,
          "durationTicks": 156,
          "midi": 68,
          "name": "G#4",
          "ticks": 44580,
          "time": 155.87397,
          "velocity": 0.6299212598425197
        },
        {
          "duration": 0.3356640000000084,
          "durationTicks": 96,
          "midi": 71,
          "name": "B4",
          "ticks": 44760,
          "time": 156.50334,
          "velocity": 0.6299212598425197
        },
        {
          "duration": 0.3356640000000084,
          "durationTicks": 96,
          "midi": 66,
          "name": "F#4",
          "ticks": 44880,
          "time": 156.92292,
          "velocity": 0.6299212598425197
        },
        {
          "duration": 0.3356640000000084,
          "durationTicks": 96,
          "midi": 71,
          "name": "B4",
          "ticks": 45000,
          "time": 157.3425,
          "velocity": 0.6299212598425197
        },
        {
          "duration": 0.3356640000000084,
          "durationTicks": 96,
          "midi": 68,
          "name": "G#4",
          "ticks": 45120,
          "time": 157.76208,
          "velocity": 0.6299212598425197
        },
        {
          "duration": 0.3356640000000084,
          "durationTicks": 96,
          "midi": 71,
          "name": "B4",
          "ticks": 45240,
          "time": 158.18166,
          "velocity": 0.6299212598425197
        },
        {
          "duration": 0.3356640000000084,
          "durationTicks": 96,
          "midi": 69,
          "name": "A4",
          "ticks": 45360,
          "time": 158.60124,
          "velocity": 0.6299212598425197
        },
        {
          "duration": 0.16783199999997578,
          "durationTicks": 48,
          "midi": 71,
          "name": "B4",
          "ticks": 45480,
          "time": 159.02082000000001,
          "velocity": 0.6299212598425197
        },
        {
          "duration": 0.5454540000000065,
          "durationTicks": 156,
          "midi": 68,
          "name": "G#4",
          "ticks": 45540,
          "time": 159.23061,
          "velocity": 0.6299212598425197
        },
        {
          "duration": 0.3356640000000084,
          "durationTicks": 96,
          "midi": 71,
          "name": "B4",
          "ticks": 45720,
          "time": 159.85998,
          "velocity": 0.6299212598425197
        },
        {
          "duration": 0.3356640000000084,
          "durationTicks": 96,
          "midi": 66,
          "name": "F#4",
          "ticks": 45840,
          "time": 160.27956,
          "velocity": 0.6299212598425197
        },
        {
          "duration": 0.3356640000000084,
          "durationTicks": 96,
          "midi": 71,
          "name": "B4",
          "ticks": 45960,
          "time": 160.69914,
          "velocity": 0.6299212598425197
        },
        {
          "duration": 0.5034960000000126,
          "durationTicks": 144,
          "midi": 68,
          "name": "G#4",
          "ticks": 46080,
          "time": 161.11872,
          "velocity": 0.6299212598425197
        },
        {
          "duration": 4.0699260000000095,
          "durationTicks": 1164,
          "midi": 71,
          "name": "B4",
          "ticks": 46260,
          "time": 161.74809,
          "velocity": 0.6299212598425197
        }
      ],
      "endOfTrackTicks": 47424
    },
    {
      "channel": 3,
      "controlChanges": {
        "7": [
          {
            "number": 7,
            "ticks": 0,
            "time": 0,
            "value": 0.4015748031496063
          },
          {
            "number": 7,
            "ticks": 0,
            "time": 0,
            "value": 0.4015748031496063
          },
          {
            "number": 7,
            "ticks": 0,
            "time": 0,
            "value": 0.4015748031496063
          },
          {
            "number": 7,
            "ticks": 0,
            "time": 0,
            "value": 0.4015748031496063
          },
          {
            "number": 7,
            "ticks": 0,
            "time": 0,
            "value": 0.4015748031496063
          },
          {
            "number": 7,
            "ticks": 0,
            "time": 0,
            "value": 0.4015748031496063
          },
          {
            "number": 7,
            "ticks": 0,
            "time": 0,
            "value": 0.4015748031496063
          },
          {
            "number": 7,
            "ticks": 0,
            "time": 0,
            "value": 0.4015748031496063
          }
        ]
      },
      "pitchBends": [],
      "instrument": {
        "family": "guitar",
        "number": 25,
        "name": "acoustic guitar (steel)"
      },
      "name": "Steel Guitar Strum",
      "notes": [
        {
          "duration": 0.33566399999999774,
          "durationTicks": 96,
          "midi": 71,
          "name": "B4",
          "ticks": 7680,
          "time": 26.85312,
          "velocity": 0.6299212598425197
        },
        {
          "duration": 0.33566399999999774,
          "durationTicks": 96,
          "midi": 59,
          "name": "B3",
          "ticks": 7680,
          "time": 26.85312,
          "velocity": 0.6299212598425197
        },
        {
          "duration": 0.33566399999999774,
          "durationTicks": 96,
          "midi": 52,
          "name": "E3",
          "ticks": 7680,
          "time": 26.85312,
          "velocity": 0.6299212598425197
        },
        {
          "duration": 0.33566399999999774,
          "durationTicks": 96,
          "midi": 64,
          "name": "E4",
          "ticks": 7680,
          "time": 26.85312,
          "velocity": 0.6299212598425197
        },
        {
          "duration": 0.33566399999999774,
          "durationTicks": 96,
          "midi": 68,
          "name": "G#4",
          "ticks": 7680,
          "time": 26.85312,
          "velocity": 0.6299212598425197
        },
        {
          "duration": 0.33566399999999774,
          "durationTicks": 96,
          "midi": 76,
          "name": "E5",
          "ticks": 7680,
          "time": 26.85312,
          "velocity": 0.6299212598425197
        },
        {
          "duration": 0.33566399999999774,
          "durationTicks": 96,
          "midi": 52,
          "name": "E3",
          "ticks": 7800,
          "time": 27.2727,
          "velocity": 0.6299212598425197
        },
        {
          "duration": 0.33566399999999774,
          "durationTicks": 96,
          "midi": 68,
          "name": "G#4",
          "ticks": 7800,
          "time": 27.2727,
          "velocity": 0.6299212598425197
        },
        {
          "duration": 0.33566399999999774,
          "durationTicks": 96,
          "midi": 59,
          "name": "B3",
          "ticks": 7800,
          "time": 27.2727,
          "velocity": 0.6299212598425197
        },
        {
          "duration": 0.33566399999999774,
          "durationTicks": 96,
          "midi": 76,
          "name": "E5",
          "ticks": 7800,
          "time": 27.2727,
          "velocity": 0.6299212598425197
        },
        {
          "duration": 0.33566399999999774,
          "durationTicks": 96,
          "midi": 71,
          "name": "B4",
          "ticks": 7800,
          "time": 27.2727,
          "velocity": 0.6299212598425197
        },
        {
          "duration": 0.33566399999999774,
          "durationTicks": 96,
          "midi": 64,
          "name": "E4",
          "ticks": 7800,
          "time": 27.2727,
          "velocity": 0.6299212598425197
        },
        {
          "duration": 0.33566399999999774,
          "durationTicks": 96,
          "midi": 57,
          "name": "A3",
          "ticks": 7920,
          "time": 27.69228,
          "velocity": 0.6299212598425197
        },
        {
          "duration": 0.33566399999999774,
          "durationTicks": 96,
          "midi": 76,
          "name": "E5",
          "ticks": 7920,
          "time": 27.69228,
          "velocity": 0.6299212598425197
        },
        {
          "duration": 0.33566399999999774,
          "durationTicks": 96,
          "midi": 61,
          "name": "C#4",
          "ticks": 7920,
          "time": 27.69228,
          "velocity": 0.6299212598425197
        },
        {
          "duration": 0.33566399999999774,
          "durationTicks": 96,
          "midi": 64,
          "name": "E4",
          "ticks": 7920,
          "time": 27.69228,
          "velocity": 0.6299212598425197
        },
        {
          "duration": 0.33566399999999774,
          "durationTicks": 96,
          "midi": 52,
          "name": "E3",
          "ticks": 7920,
          "time": 27.69228,
          "velocity": 0.6299212598425197
        },
        {
          "duration": 0.33566399999999774,
          "durationTicks": 96,
          "midi": 69,
          "name": "A4",
          "ticks": 7920,
          "time": 27.69228,
          "velocity": 0.6299212598425197
        },
        {
          "duration": 0.33566399999999774,
          "durationTicks": 96,
          "midi": 76,
          "name": "E5",
          "ticks": 8040,
          "time": 28.11186,
          "velocity": 0.6299212598425197
        },
        {
          "duration": 0.33566399999999774,
          "durationTicks": 96,
          "midi": 57,
          "name": "A3",
          "ticks": 8040,
          "time": 28.11186,
          "velocity": 0.6299212598425197
        },
        {
          "duration": 0.33566399999999774,
          "durationTicks": 96,
          "midi": 69,
          "name": "A4",
          "ticks": 8040,
          "time": 28.11186,
          "velocity": 0.6299212598425197
        },
        {
          "duration": 0.33566399999999774,
          "durationTicks": 96,
          "midi": 64,
          "name": "E4",
          "ticks": 8040,
          "time": 28.11186,
          "velocity": 0.6299212598425197
        },
        {
          "duration": 0.33566399999999774,
          "durationTicks": 96,
          "midi": 61,
          "name": "C#4",
          "ticks": 8040,
          "time": 28.11186,
          "velocity": 0.6299212598425197
        },
        {
          "duration": 0.33566399999999774,
          "durationTicks": 96,
          "midi": 52,
          "name": "E3",
          "ticks": 8040,
          "time": 28.11186,
          "velocity": 0.6299212598425197
        },
        {
          "duration": 0.1678320000000042,
          "durationTicks": 48,
          "midi": 71,
          "name": "B4",
          "ticks": 8160,
          "time": 28.53144,
          "velocity": 0.6299212598425197
        },
        {
          "duration": 0.1678320000000042,
          "durationTicks": 48,
          "midi": 68,
          "name": "G#4",
          "ticks": 8160,
          "time": 28.53144,
          "velocity": 0.6299212598425197
        },
        {
          "duration": 0.1678320000000042,
          "durationTicks": 48,
          "midi": 76,
          "name": "E5",
          "ticks": 8160,
          "time": 28.53144,
          "velocity": 0.6299212598425197
        },
        {
          "duration": 0.1678320000000042,
          "durationTicks": 48,
          "midi": 52,
          "name": "E3",
          "ticks": 8160,
          "time": 28.53144,
          "velocity": 0.6299212598425197
        },
        {
          "duration": 0.1678320000000042,
          "durationTicks": 48,
          "midi": 64,
          "name": "E4",
          "ticks": 8160,
          "time": 28.53144,
          "velocity": 0.6299212598425197
        },
        {
          "duration": 0.1678320000000042,
          "durationTicks": 48,
          "midi": 59,
          "name": "B3",
          "ticks": 8160,
          "time": 28.53144,
          "velocity": 0.6299212598425197
        },
        {
          "duration": 0.33566399999999774,
          "durationTicks": 96,
          "midi": 68,
          "name": "G#4",
          "ticks": 8220,
          "time": 28.74123,
          "velocity": 0.6299212598425197
        },
        {
          "duration": 0.33566399999999774,
          "durationTicks": 96,
          "midi": 71,
          "name": "B4",
          "ticks": 8220,
          "time": 28.74123,
          "velocity": 0.6299212598425197
        },
        {
          "duration": 0.33566399999999774,
          "durationTicks": 96,
          "midi": 64,
          "name": "E4",
          "ticks": 8220,
          "time": 28.74123,
          "velocity": 0.6299212598425197
        },
        {
          "duration": 0.33566399999999774,
          "durationTicks": 96,
          "midi": 76,
          "name": "E5",
          "ticks": 8220,
          "time": 28.74123,
          "velocity": 0.6299212598425197
        },
        {
          "duration": 0.33566399999999774,
          "durationTicks": 96,
          "midi": 59,
          "name": "B3",
          "ticks": 8220,
          "time": 28.74123,
          "velocity": 0.6299212598425197
        },
        {
          "duration": 0.33566399999999774,
          "durationTicks": 96,
          "midi": 52,
          "name": "E3",
          "ticks": 8220,
          "time": 28.74123,
          "velocity": 0.6299212598425197
        },
        {
          "duration": 0.33566399999999774,
          "durationTicks": 96,
          "midi": 69,
          "name": "A4",
          "ticks": 8340,
          "time": 29.16081,
          "velocity": 0.6299212598425197
        },
        {
          "duration": 0.33566399999999774,
          "durationTicks": 96,
          "midi": 76,
          "name": "E5",
          "ticks": 8340,
          "time": 29.16081,
          "velocity": 0.6299212598425197
        },
        {
          "duration": 0.33566399999999774,
          "durationTicks": 96,
          "midi": 64,
          "name": "E4",
          "ticks": 8340,
          "time": 29.16081,
          "velocity": 0.6299212598425197
        },
        {
          "duration": 0.33566399999999774,
          "durationTicks": 96,
          "midi": 52,
          "name": "E3",
          "ticks": 8340,
          "time": 29.16081,
          "velocity": 0.6299212598425197
        },
        {
          "duration": 0.33566399999999774,
          "durationTicks": 96,
          "midi": 61,
          "name": "C#4",
          "ticks": 8340,
          "time": 29.16081,
          "velocity": 0.6299212598425197
        },
        {
          "duration": 0.33566399999999774,
          "durationTicks": 96,
          "midi": 57,
          "name": "A3",
          "ticks": 8340,
          "time": 29.16081,
          "velocity": 0.6299212598425197
        },
        {
          "duration": 0.16783200000000065,
          "durationTicks": 48,
          "midi": 57,
          "name": "A3",
          "ticks": 8460,
          "time": 29.58039,
          "velocity": 0.6299212598425197
        },
        {
          "duration": 0.16783200000000065,
          "durationTicks": 48,
          "midi": 52,
          "name": "E3",
          "ticks": 8460,
          "time": 29.58039,
          "velocity": 0.6299212598425197
        },
        {
          "duration": 0.16783200000000065,
          "durationTicks": 48,
          "midi": 61,
          "name": "C#4",
          "ticks": 8460,
          "time": 29.58039,
          "velocity": 0.6299212598425197
        },
        {
          "duration": 0.16783200000000065,
          "durationTicks": 48,
          "midi": 64,
          "name": "E4",
          "ticks": 8460,
          "time": 29.58039,
          "velocity": 0.6299212598425197
        },
        {
          "duration": 0.16783200000000065,
          "durationTicks": 48,
          "midi": 69,
          "name": "A4",
          "ticks": 8460,
          "time": 29.58039,
          "velocity": 0.6299212598425197
        },
        {
          "duration": 0.16783200000000065,
          "durationTicks": 48,
          "midi": 76,
          "name": "E5",
          "ticks": 8460,
          "time": 29.58039,
          "velocity": 0.6299212598425197
        },
        {
          "duration": 0.3356640000000013,
          "durationTicks": 96,
          "midi": 76,
          "name": "E5",
          "ticks": 8520,
          "time": 29.79018,
          "velocity": 0.6299212598425197
        },
        {
          "duration": 0.3356640000000013,
          "durationTicks": 96,
          "midi": 61,
          "name": "C#4",
          "ticks": 8520,
          "time": 29.79018,
          "velocity": 0.6299212598425197
        },
        {
          "duration": 0.3356640000000013,
          "durationTicks": 96,
          "midi": 69,
          "name": "A4",
          "ticks": 8520,
          "time": 29.79018,
          "velocity": 0.6299212598425197
        },
        {
          "duration": 0.3356640000000013,
          "durationTicks": 96,
          "midi": 57,
          "name": "A3",
          "ticks": 8520,
          "time": 29.79018,
          "velocity": 0.6299212598425197
        },
        {
          "duration": 0.3356640000000013,
          "durationTicks": 96,
          "midi": 52,
          "name": "E3",
          "ticks": 8520,
          "time": 29.79018,
          "velocity": 0.6299212598425197
        },
        {
          "duration": 0.3356640000000013,
          "durationTicks": 96,
          "midi": 64,
          "name": "E4",
          "ticks": 8520,
          "time": 29.79018,
          "velocity": 0.6299212598425197
        },
        {
          "duration": 0.3356640000000013,
          "durationTicks": 96,
          "midi": 71,
          "name": "B4",
          "ticks": 8640,
          "time": 30.20976,
          "velocity": 0.6299212598425197
        },
        {
          "duration": 0.3356640000000013,
          "durationTicks": 96,
          "midi": 52,
          "name": "E3",
          "ticks": 8640,
          "time": 30.20976,
          "velocity": 0.6299212598425197
        },
        {
          "duration": 0.3356640000000013,
          "durationTicks": 96,
          "midi": 59,
          "name": "B3",
          "ticks": 8640,
          "time": 30.20976,
          "velocity": 0.6299212598425197
        },
        {
          "duration": 0.3356640000000013,
          "durationTicks": 96,
          "midi": 68,
          "name": "G#4",
          "ticks": 8640,
          "time": 30.20976,
          "velocity": 0.6299212598425197
        },
        {
          "duration": 0.3356640000000013,
          "durationTicks": 96,
          "midi": 64,
          "name": "E4",
          "ticks": 8640,
          "time": 30.20976,
          "velocity": 0.6299212598425197
        },
        {
          "duration": 0.3356640000000013,
          "durationTicks": 96,
          "midi": 76,
          "name": "E5",
          "ticks": 8640,
          "time": 30.20976,
          "velocity": 0.6299212598425197
        },
        {
          "duration": 0.3356640000000013,
          "durationTicks": 96,
          "midi": 52,
          "name": "E3",
          "ticks": 8760,
          "time": 30.62934,
          "velocity": 0.6299212598425197
        },
        {
          "duration": 0.3356640000000013,
          "durationTicks": 96,
          "midi": 68,
          "name": "G#4",
          "ticks": 8760,
          "time": 30.62934,
          "velocity": 0.6299212598425197
        },
        {
          "duration": 0.3356640000000013,
          "durationTicks": 96,
          "midi": 59,
          "name": "B3",
          "ticks": 8760,
          "time": 30.62934,
          "velocity": 0.6299212598425197
        },
        {
          "duration": 0.3356640000000013,
          "durationTicks": 96,
          "midi": 76,
          "name": "E5",
          "ticks": 8760,
          "time": 30.62934,
          "velocity": 0.6299212598425197
        },
        {
          "duration": 0.3356640000000013,
          "durationTicks": 96,
          "midi": 71,
          "name": "B4",
          "ticks": 8760,
          "time": 30.62934,
          "velocity": 0.6299212598425197
        },
        {
          "duration": 0.3356640000000013,
          "durationTicks": 96,
          "midi": 64,
          "name": "E4",
          "ticks": 8760,
          "time": 30.62934,
          "velocity": 0.6299212598425197
        },
        {
          "duration": 0.3356640000000013,
          "durationTicks": 96,
          "midi": 76,
          "name": "E5",
          "ticks": 8880,
          "time": 31.04892,
          "velocity": 0.6299212598425197
        },
        {
          "duration": 0.3356640000000013,
          "durationTicks": 96,
          "midi": 61,
          "name": "C#4",
          "ticks": 8880,
          "time": 31.04892,
          "velocity": 0.6299212598425197
        },
        {
          "duration": 0.3356640000000013,
          "durationTicks": 96,
          "midi": 69,
          "name": "A4",
          "ticks": 8880,
          "time": 31.04892,
          "velocity": 0.6299212598425197
        },
        {
          "duration": 0.3356640000000013,
          "durationTicks": 96,
          "midi": 64,
          "name": "E4",
          "ticks": 8880,
          "time": 31.04892,
          "velocity": 0.6299212598425197
        },
        {
          "duration": 0.3356640000000013,
          "durationTicks": 96,
          "midi": 57,
          "name": "A3",
          "ticks": 8880,
          "time": 31.04892,
          "velocity": 0.6299212598425197
        },
        {
          "duration": 0.3356640000000013,
          "durationTicks": 96,
          "midi": 52,
          "name": "E3",
          "ticks": 8880,
          "time": 31.04892,
          "velocity": 0.6299212598425197
        },
        {
          "duration": 0.33566399999999774,
          "durationTicks": 96,
          "midi": 61,
          "name": "C#4",
          "ticks": 9000,
          "time": 31.468500000000002,
          "velocity": 0.6299212598425197
        },
        {
          "duration": 0.33566399999999774,
          "durationTicks": 96,
          "midi": 64,
          "name": "E4",
          "ticks": 9000,
          "time": 31.468500000000002,
          "velocity": 0.6299212598425197
        },
        {
          "duration": 0.33566399999999774,
          "durationTicks": 96,
          "midi": 57,
          "name": "A3",
          "ticks": 9000,
          "time": 31.468500000000002,
          "velocity": 0.6299212598425197
        },
        {
          "duration": 0.33566399999999774,
          "durationTicks": 96,
          "midi": 52,
          "name": "E3",
          "ticks": 9000,
          "time": 31.468500000000002,
          "velocity": 0.6299212598425197
        },
        {
          "duration": 0.33566399999999774,
          "durationTicks": 96,
          "midi": 76,
          "name": "E5",
          "ticks": 9000,
          "time": 31.468500000000002,
          "velocity": 0.6299212598425197
        },
        {
          "duration": 0.33566399999999774,
          "durationTicks": 96,
          "midi": 69,
          "name": "A4",
          "ticks": 9000,
          "time": 31.468500000000002,
          "velocity": 0.6299212598425197
        },
        {
          "duration": 0.1678320000000042,
          "durationTicks": 48,
          "midi": 71,
          "name": "B4",
          "ticks": 9120,
          "time": 31.888080000000002,
          "velocity": 0.6299212598425197
        },
        {
          "duration": 0.1678320000000042,
          "durationTicks": 48,
          "midi": 68,
          "name": "G#4",
          "ticks": 9120,
          "time": 31.888080000000002,
          "velocity": 0.6299212598425197
        },
        {
          "duration": 0.1678320000000042,
          "durationTicks": 48,
          "midi": 76,
          "name": "E5",
          "ticks": 9120,
          "time": 31.888080000000002,
          "velocity": 0.6299212598425197
        },
        {
          "duration": 0.1678320000000042,
          "durationTicks": 48,
          "midi": 59,
          "name": "B3",
          "ticks": 9120,
          "time": 31.888080000000002,
          "velocity": 0.6299212598425197
        },
        {
          "duration": 0.1678320000000042,
          "durationTicks": 48,
          "midi": 64,
          "name": "E4",
          "ticks": 9120,
          "time": 31.888080000000002,
          "velocity": 0.6299212598425197
        },
        {
          "duration": 0.1678320000000042,
          "durationTicks": 48,
          "midi": 52,
          "name": "E3",
          "ticks": 9120,
          "time": 31.888080000000002,
          "velocity": 0.6299212598425197
        },
        {
          "duration": 0.3356640000000013,
          "durationTicks": 96,
          "midi": 68,
          "name": "G#4",
          "ticks": 9180,
          "time": 32.09787,
          "velocity": 0.6299212598425197
        },
        {
          "duration": 0.3356640000000013,
          "durationTicks": 96,
          "midi": 76,
          "name": "E5",
          "ticks": 9180,
          "time": 32.09787,
          "velocity": 0.6299212598425197
        },
        {
          "duration": 0.3356640000000013,
          "durationTicks": 96,
          "midi": 59,
          "name": "B3",
          "ticks": 9180,
          "time": 32.09787,
          "velocity": 0.6299212598425197
        },
        {
          "duration": 0.3356640000000013,
          "durationTicks": 96,
          "midi": 71,
          "name": "B4",
          "ticks": 9180,
          "time": 32.09787,
          "velocity": 0.6299212598425197
        },
        {
          "duration": 0.3356640000000013,
          "durationTicks": 96,
          "midi": 64,
          "name": "E4",
          "ticks": 9180,
          "time": 32.09787,
          "velocity": 0.6299212598425197
        },
        {
          "duration": 0.3356640000000013,
          "durationTicks": 96,
          "midi": 52,
          "name": "E3",
          "ticks": 9180,
          "time": 32.09787,
          "velocity": 0.6299212598425197
        },
        {
          "duration": 0.3356639999999942,
          "durationTicks": 96,
          "midi": 57,
          "name": "A3",
          "ticks": 9300,
          "time": 32.517450000000004,
          "velocity": 0.6299212598425197
        },
        {
          "duration": 0.3356639999999942,
          "durationTicks": 96,
          "midi": 61,
          "name": "C#4",
          "ticks": 9300,
          "time": 32.517450000000004,
          "velocity": 0.6299212598425197
        },
        {
          "duration": 0.3356639999999942,
          "durationTicks": 96,
          "midi": 52,
          "name": "E3",
          "ticks": 9300,
          "time": 32.517450000000004,
          "velocity": 0.6299212598425197
        },
        {
          "duration": 0.3356639999999942,
          "durationTicks": 96,
          "midi": 64,
          "name": "E4",
          "ticks": 9300,
          "time": 32.517450000000004,
          "velocity": 0.6299212598425197
        },
        {
          "duration": 0.3356639999999942,
          "durationTicks": 96,
          "midi": 76,
          "name": "E5",
          "ticks": 9300,
          "time": 32.517450000000004,
          "velocity": 0.6299212598425197
        },
        {
          "duration": 0.3356639999999942,
          "durationTicks": 96,
          "midi": 69,
          "name": "A4",
          "ticks": 9300,
          "time": 32.517450000000004,
          "velocity": 0.6299212598425197
        },
        {
          "duration": 0.1678320000000042,
          "durationTicks": 48,
          "midi": 76,
          "name": "E5",
          "ticks": 9420,
          "time": 32.93703,
          "velocity": 0.6299212598425197
        },
        {
          "duration": 0.1678320000000042,
          "durationTicks": 48,
          "midi": 52,
          "name": "E3",
          "ticks": 9420,
          "time": 32.93703,
          "velocity": 0.6299212598425197
        },
        {
          "duration": 0.1678320000000042,
          "durationTicks": 48,
          "midi": 69,
          "name": "A4",
          "ticks": 9420,
          "time": 32.93703,
          "velocity": 0.6299212598425197
        },
        {
          "duration": 0.1678320000000042,
          "durationTicks": 48,
          "midi": 64,
          "name": "E4",
          "ticks": 9420,
          "time": 32.93703,
          "velocity": 0.6299212598425197
        },
        {
          "duration": 0.1678320000000042,
          "durationTicks": 48,
          "midi": 57,
          "name": "A3",
          "ticks": 9420,
          "time": 32.93703,
          "velocity": 0.6299212598425197
        },
        {
          "duration": 0.1678320000000042,
          "durationTicks": 48,
          "midi": 61,
          "name": "C#4",
          "ticks": 9420,
          "time": 32.93703,
          "velocity": 0.6299212598425197
        },
        {
          "duration": 0.3356640000000013,
          "durationTicks": 96,
          "midi": 69,
          "name": "A4",
          "ticks": 9480,
          "time": 33.14682,
          "velocity": 0.6299212598425197
        },
        {
          "duration": 0.3356640000000013,
          "durationTicks": 96,
          "midi": 76,
          "name": "E5",
          "ticks": 9480,
          "time": 33.14682,
          "velocity": 0.6299212598425197
        },
        {
          "duration": 0.3356640000000013,
          "durationTicks": 96,
          "midi": 64,
          "name": "E4",
          "ticks": 9480,
          "time": 33.14682,
          "velocity": 0.6299212598425197
        },
        {
          "duration": 0.3356640000000013,
          "durationTicks": 96,
          "midi": 52,
          "name": "E3",
          "ticks": 9480,
          "time": 33.14682,
          "velocity": 0.6299212598425197
        },
        {
          "duration": 0.3356640000000013,
          "durationTicks": 96,
          "midi": 57,
          "name": "A3",
          "ticks": 9480,
          "time": 33.14682,
          "velocity": 0.6299212598425197
        },
        {
          "duration": 0.3356640000000013,
          "durationTicks": 96,
          "midi": 61,
          "name": "C#4",
          "ticks": 9480,
          "time": 33.14682,
          "velocity": 0.6299212598425197
        },
        {
          "duration": 0.3356640000000013,
          "durationTicks": 96,
          "midi": 71,
          "name": "B4",
          "ticks": 9600,
          "time": 33.5664,
          "velocity": 0.6299212598425197
        },
        {
          "duration": 0.3356640000000013,
          "durationTicks": 96,
          "midi": 52,
          "name": "E3",
          "ticks": 9600,
          "time": 33.5664,
          "velocity": 0.6299212598425197
        },
        {
          "duration": 0.3356640000000013,
          "durationTicks": 96,
          "midi": 59,
          "name": "B3",
          "ticks": 9600,
          "time": 33.5664,
          "velocity": 0.6299212598425197
        },
        {
          "duration": 0.3356640000000013,
          "durationTicks": 96,
          "midi": 68,
          "name": "G#4",
          "ticks": 9600,
          "time": 33.5664,
          "velocity": 0.6299212598425197
        },
        {
          "duration": 0.3356640000000013,
          "durationTicks": 96,
          "midi": 64,
          "name": "E4",
          "ticks": 9600,
          "time": 33.5664,
          "velocity": 0.6299212598425197
        },
        {
          "duration": 0.3356640000000013,
          "durationTicks": 96,
          "midi": 76,
          "name": "E5",
          "ticks": 9600,
          "time": 33.5664,
          "velocity": 0.6299212598425197
        },
        {
          "duration": 0.3356640000000013,
          "durationTicks": 96,
          "midi": 52,
          "name": "E3",
          "ticks": 9720,
          "time": 33.98598,
          "velocity": 0.6299212598425197
        },
        {
          "duration": 0.3356640000000013,
          "durationTicks": 96,
          "midi": 68,
          "name": "G#4",
          "ticks": 9720,
          "time": 33.98598,
          "velocity": 0.6299212598425197
        },
        {
          "duration": 0.3356640000000013,
          "durationTicks": 96,
          "midi": 59,
          "name": "B3",
          "ticks": 9720,
          "time": 33.98598,
          "velocity": 0.6299212598425197
        },
        {
          "duration": 0.3356640000000013,
          "durationTicks": 96,
          "midi": 76,
          "name": "E5",
          "ticks": 9720,
          "time": 33.98598,
          "velocity": 0.6299212598425197
        },
        {
          "duration": 0.3356640000000013,
          "durationTicks": 96,
          "midi": 71,
          "name": "B4",
          "ticks": 9720,
          "time": 33.98598,
          "velocity": 0.6299212598425197
        },
        {
          "duration": 0.3356640000000013,
          "durationTicks": 96,
          "midi": 64,
          "name": "E4",
          "ticks": 9720,
          "time": 33.98598,
          "velocity": 0.6299212598425197
        },
        {
          "duration": 0.3356640000000013,
          "durationTicks": 96,
          "midi": 57,
          "name": "A3",
          "ticks": 9840,
          "time": 34.40556,
          "velocity": 0.6299212598425197
        },
        {
          "duration": 0.3356640000000013,
          "durationTicks": 96,
          "midi": 64,
          "name": "E4",
          "ticks": 9840,
          "time": 34.40556,
          "velocity": 0.6299212598425197
        },
        {
          "duration": 0.3356640000000013,
          "durationTicks": 96,
          "midi": 61,
          "name": "C#4",
          "ticks": 9840,
          "time": 34.40556,
          "velocity": 0.6299212598425197
        },
        {
          "duration": 0.3356640000000013,
          "durationTicks": 96,
          "midi": 52,
          "name": "E3",
          "ticks": 9840,
          "time": 34.40556,
          "velocity": 0.6299212598425197
        },
        {
          "duration": 0.3356640000000013,
          "durationTicks": 96,
          "midi": 76,
          "name": "E5",
          "ticks": 9840,
          "time": 34.40556,
          "velocity": 0.6299212598425197
        },
        {
          "duration": 0.3356640000000013,
          "durationTicks": 96,
          "midi": 69,
          "name": "A4",
          "ticks": 9840,
          "time": 34.40556,
          "velocity": 0.6299212598425197
        },
        {
          "duration": 0.3356640000000013,
          "durationTicks": 96,
          "midi": 69,
          "name": "A4",
          "ticks": 9960,
          "time": 34.82514,
          "velocity": 0.6299212598425197
        },
        {
          "duration": 0.3356640000000013,
          "durationTicks": 96,
          "midi": 57,
          "name": "A3",
          "ticks": 9960,
          "time": 34.82514,
          "velocity": 0.6299212598425197
        },
        {
          "duration": 0.3356640000000013,
          "durationTicks": 96,
          "midi": 64,
          "name": "E4",
          "ticks": 9960,
          "time": 34.82514,
          "velocity": 0.6299212598425197
        },
        {
          "duration": 0.3356640000000013,
          "durationTicks": 96,
          "midi": 76,
          "name": "E5",
          "ticks": 9960,
          "time": 34.82514,
          "velocity": 0.6299212598425197
        },
        {
          "duration": 0.3356640000000013,
          "durationTicks": 96,
          "midi": 61,
          "name": "C#4",
          "ticks": 9960,
          "time": 34.82514,
          "velocity": 0.6299212598425197
        },
        {
          "duration": 0.3356640000000013,
          "durationTicks": 96,
          "midi": 52,
          "name": "E3",
          "ticks": 9960,
          "time": 34.82514,
          "velocity": 0.6299212598425197
        },
        {
          "duration": 0.1678320000000042,
          "durationTicks": 48,
          "midi": 71,
          "name": "B4",
          "ticks": 10080,
          "time": 35.24472,
          "velocity": 0.6299212598425197
        },
        {
          "duration": 0.1678320000000042,
          "durationTicks": 48,
          "midi": 68,
          "name": "G#4",
          "ticks": 10080,
          "time": 35.24472,
          "velocity": 0.6299212598425197
        },
        {
          "duration": 0.1678320000000042,
          "durationTicks": 48,
          "midi": 76,
          "name": "E5",
          "ticks": 10080,
          "time": 35.24472,
          "velocity": 0.6299212598425197
        },
        {
          "duration": 0.1678320000000042,
          "durationTicks": 48,
          "midi": 59,
          "name": "B3",
          "ticks": 10080,
          "time": 35.24472,
          "velocity": 0.6299212598425197
        },
        {
          "duration": 0.1678320000000042,
          "durationTicks": 48,
          "midi": 64,
          "name": "E4",
          "ticks": 10080,
          "time": 35.24472,
          "velocity": 0.6299212598425197
        },
        {
          "duration": 0.1678320000000042,
          "durationTicks": 48,
          "midi": 52,
          "name": "E3",
          "ticks": 10080,
          "time": 35.24472,
          "velocity": 0.6299212598425197
        },
        {
          "duration": 0.3356640000000013,
          "durationTicks": 96,
          "midi": 68,
          "name": "G#4",
          "ticks": 10140,
          "time": 35.45451,
          "velocity": 0.6299212598425197
        },
        {
          "duration": 0.3356640000000013,
          "durationTicks": 96,
          "midi": 76,
          "name": "E5",
          "ticks": 10140,
          "time": 35.45451,
          "velocity": 0.6299212598425197
        },
        {
          "duration": 0.3356640000000013,
          "durationTicks": 96,
          "midi": 59,
          "name": "B3",
          "ticks": 10140,
          "time": 35.45451,
          "velocity": 0.6299212598425197
        },
        {
          "duration": 0.3356640000000013,
          "durationTicks": 96,
          "midi": 71,
          "name": "B4",
          "ticks": 10140,
          "time": 35.45451,
          "velocity": 0.6299212598425197
        },
        {
          "duration": 0.3356640000000013,
          "durationTicks": 96,
          "midi": 64,
          "name": "E4",
          "ticks": 10140,
          "time": 35.45451,
          "velocity": 0.6299212598425197
        },
        {
          "duration": 0.3356640000000013,
          "durationTicks": 96,
          "midi": 52,
          "name": "E3",
          "ticks": 10140,
          "time": 35.45451,
          "velocity": 0.6299212598425197
        },
        {
          "duration": 0.3356639999999942,
          "durationTicks": 96,
          "midi": 57,
          "name": "A3",
          "ticks": 10260,
          "time": 35.87409,
          "velocity": 0.6299212598425197
        },
        {
          "duration": 0.3356639999999942,
          "durationTicks": 96,
          "midi": 61,
          "name": "C#4",
          "ticks": 10260,
          "time": 35.87409,
          "velocity": 0.6299212598425197
        },
        {
          "duration": 0.3356639999999942,
          "durationTicks": 96,
          "midi": 52,
          "name": "E3",
          "ticks": 10260,
          "time": 35.87409,
          "velocity": 0.6299212598425197
        },
        {
          "duration": 0.3356639999999942,
          "durationTicks": 96,
          "midi": 76,
          "name": "E5",
          "ticks": 10260,
          "time": 35.87409,
          "velocity": 0.6299212598425197
        },
        {
          "duration": 0.3356639999999942,
          "durationTicks": 96,
          "midi": 64,
          "name": "E4",
          "ticks": 10260,
          "time": 35.87409,
          "velocity": 0.6299212598425197
        },
        {
          "duration": 0.3356639999999942,
          "durationTicks": 96,
          "midi": 69,
          "name": "A4",
          "ticks": 10260,
          "time": 35.87409,
          "velocity": 0.6299212598425197
        },
        {
          "duration": 0.1678320000000042,
          "durationTicks": 48,
          "midi": 57,
          "name": "A3",
          "ticks": 10380,
          "time": 36.29367,
          "velocity": 0.6299212598425197
        },
        {
          "duration": 0.1678320000000042,
          "durationTicks": 48,
          "midi": 52,
          "name": "E3",
          "ticks": 10380,
          "time": 36.29367,
          "velocity": 0.6299212598425197
        },
        {
          "duration": 0.1678320000000042,
          "durationTicks": 48,
          "midi": 64,
          "name": "E4",
          "ticks": 10380,
          "time": 36.29367,
          "velocity": 0.6299212598425197
        },
        {
          "duration": 0.1678320000000042,
          "durationTicks": 48,
          "midi": 69,
          "name": "A4",
          "ticks": 10380,
          "time": 36.29367,
          "velocity": 0.6299212598425197
        },
        {
          "duration": 0.1678320000000042,
          "durationTicks": 48,
          "midi": 76,
          "name": "E5",
          "ticks": 10380,
          "time": 36.29367,
          "velocity": 0.6299212598425197
        },
        {
          "duration": 0.1678320000000042,
          "durationTicks": 48,
          "midi": 61,
          "name": "C#4",
          "ticks": 10380,
          "time": 36.29367,
          "velocity": 0.6299212598425197
        },
        {
          "duration": 0.3356639999999942,
          "durationTicks": 96,
          "midi": 69,
          "name": "A4",
          "ticks": 10440,
          "time": 36.503460000000004,
          "velocity": 0.6299212598425197
        },
        {
          "duration": 0.3356639999999942,
          "durationTicks": 96,
          "midi": 64,
          "name": "E4",
          "ticks": 10440,
          "time": 36.503460000000004,
          "velocity": 0.6299212598425197
        },
        {
          "duration": 0.3356639999999942,
          "durationTicks": 96,
          "midi": 61,
          "name": "C#4",
          "ticks": 10440,
          "time": 36.503460000000004,
          "velocity": 0.6299212598425197
        },
        {
          "duration": 0.3356639999999942,
          "durationTicks": 96,
          "midi": 52,
          "name": "E3",
          "ticks": 10440,
          "time": 36.503460000000004,
          "velocity": 0.6299212598425197
        },
        {
          "duration": 0.3356639999999942,
          "durationTicks": 96,
          "midi": 57,
          "name": "A3",
          "ticks": 10440,
          "time": 36.503460000000004,
          "velocity": 0.6299212598425197
        },
        {
          "duration": 0.3356639999999942,
          "durationTicks": 96,
          "midi": 76,
          "name": "E5",
          "ticks": 10440,
          "time": 36.503460000000004,
          "velocity": 0.6299212598425197
        },
        {
          "duration": 0.3356640000000013,
          "durationTicks": 96,
          "midi": 52,
          "name": "E3",
          "ticks": 10560,
          "time": 36.92304,
          "velocity": 0.6299212598425197
        },
        {
          "duration": 0.3356640000000013,
          "durationTicks": 96,
          "midi": 64,
          "name": "E4",
          "ticks": 10560,
          "time": 36.92304,
          "velocity": 0.6299212598425197
        },
        {
          "duration": 0.3356640000000013,
          "durationTicks": 96,
          "midi": 68,
          "name": "G#4",
          "ticks": 10560,
          "time": 36.92304,
          "velocity": 0.6299212598425197
        },
        {
          "duration": 0.3356640000000013,
          "durationTicks": 96,
          "midi": 59,
          "name": "B3",
          "ticks": 10560,
          "time": 36.92304,
          "velocity": 0.6299212598425197
        },
        {
          "duration": 0.3356640000000013,
          "durationTicks": 96,
          "midi": 76,
          "name": "E5",
          "ticks": 10560,
          "time": 36.92304,
          "velocity": 0.6299212598425197
        },
        {
          "duration": 0.3356640000000013,
          "durationTicks": 96,
          "midi": 71,
          "name": "B4",
          "ticks": 10560,
          "time": 36.92304,
          "velocity": 0.6299212598425197
        },
        {
          "duration": 2.391606000000003,
          "durationTicks": 684,
          "midi": 61,
          "name": "C#4",
          "ticks": 10740,
          "time": 37.55241,
          "velocity": 0.6299212598425197
        },
        {
          "duration": 2.391606000000003,
          "durationTicks": 684,
          "midi": 69,
          "name": "A4",
          "ticks": 10740,
          "time": 37.55241,
          "velocity": 0.6299212598425197
        },
        {
          "duration": 2.391606000000003,
          "durationTicks": 684,
          "midi": 52,
          "name": "E3",
          "ticks": 10740,
          "time": 37.55241,
          "velocity": 0.6299212598425197
        },
        {
          "duration": 2.391606000000003,
          "durationTicks": 684,
          "midi": 73,
          "name": "C#5",
          "ticks": 10740,
          "time": 37.55241,
          "velocity": 0.6299212598425197
        },
        {
          "duration": 2.391606000000003,
          "durationTicks": 684,
          "midi": 76,
          "name": "E5",
          "ticks": 10740,
          "time": 37.55241,
          "velocity": 0.6299212598425197
        },
        {
          "duration": 2.391606000000003,
          "durationTicks": 684,
          "midi": 64,
          "name": "E4",
          "ticks": 10740,
          "time": 37.55241,
          "velocity": 0.6299212598425197
        },
        {
          "duration": 0.3356640000000084,
          "durationTicks": 96,
          "midi": 71,
          "name": "B4",
          "ticks": 19200,
          "time": 67.1328,
          "velocity": 0.6299212598425197
        },
        {
          "duration": 0.3356640000000084,
          "durationTicks": 96,
          "midi": 52,
          "name": "E3",
          "ticks": 19200,
          "time": 67.1328,
          "velocity": 0.6299212598425197
        },
        {
          "duration": 0.3356640000000084,
          "durationTicks": 96,
          "midi": 59,
          "name": "B3",
          "ticks": 19200,
          "time": 67.1328,
          "velocity": 0.6299212598425197
        },
        {
          "duration": 0.3356640000000084,
          "durationTicks": 96,
          "midi": 68,
          "name": "G#4",
          "ticks": 19200,
          "time": 67.1328,
          "velocity": 0.6299212598425197
        },
        {
          "duration": 0.3356640000000084,
          "durationTicks": 96,
          "midi": 64,
          "name": "E4",
          "ticks": 19200,
          "time": 67.1328,
          "velocity": 0.6299212598425197
        },
        {
          "duration": 0.3356640000000084,
          "durationTicks": 96,
          "midi": 76,
          "name": "E5",
          "ticks": 19200,
          "time": 67.1328,
          "velocity": 0.6299212598425197
        },
        {
          "duration": 0.3356640000000084,
          "durationTicks": 96,
          "midi": 52,
          "name": "E3",
          "ticks": 19320,
          "time": 67.55238,
          "velocity": 0.6299212598425197
        },
        {
          "duration": 0.3356640000000084,
          "durationTicks": 96,
          "midi": 68,
          "name": "G#4",
          "ticks": 19320,
          "time": 67.55238,
          "velocity": 0.6299212598425197
        },
        {
          "duration": 0.3356640000000084,
          "durationTicks": 96,
          "midi": 59,
          "name": "B3",
          "ticks": 19320,
          "time": 67.55238,
          "velocity": 0.6299212598425197
        },
        {
          "duration": 0.3356640000000084,
          "durationTicks": 96,
          "midi": 76,
          "name": "E5",
          "ticks": 19320,
          "time": 67.55238,
          "velocity": 0.6299212598425197
        },
        {
          "duration": 0.3356640000000084,
          "durationTicks": 96,
          "midi": 71,
          "name": "B4",
          "ticks": 19320,
          "time": 67.55238,
          "velocity": 0.6299212598425197
        },
        {
          "duration": 0.3356640000000084,
          "durationTicks": 96,
          "midi": 64,
          "name": "E4",
          "ticks": 19320,
          "time": 67.55238,
          "velocity": 0.6299212598425197
        },
        {
          "duration": 0.3356640000000084,
          "durationTicks": 96,
          "midi": 57,
          "name": "A3",
          "ticks": 19440,
          "time": 67.97196,
          "velocity": 0.6299212598425197
        },
        {
          "duration": 0.3356640000000084,
          "durationTicks": 96,
          "midi": 64,
          "name": "E4",
          "ticks": 19440,
          "time": 67.97196,
          "velocity": 0.6299212598425197
        },
        {
          "duration": 0.3356640000000084,
          "durationTicks": 96,
          "midi": 61,
          "name": "C#4",
          "ticks": 19440,
          "time": 67.97196,
          "velocity": 0.6299212598425197
        },
        {
          "duration": 0.3356640000000084,
          "durationTicks": 96,
          "midi": 52,
          "name": "E3",
          "ticks": 19440,
          "time": 67.97196,
          "velocity": 0.6299212598425197
        },
        {
          "duration": 0.3356640000000084,
          "durationTicks": 96,
          "midi": 76,
          "name": "E5",
          "ticks": 19440,
          "time": 67.97196,
          "velocity": 0.6299212598425197
        },
        {
          "duration": 0.3356640000000084,
          "durationTicks": 96,
          "midi": 69,
          "name": "A4",
          "ticks": 19440,
          "time": 67.97196,
          "velocity": 0.6299212598425197
        },
        {
          "duration": 0.3356639999999942,
          "durationTicks": 96,
          "midi": 69,
          "name": "A4",
          "ticks": 19560,
          "time": 68.39154,
          "velocity": 0.6299212598425197
        },
        {
          "duration": 0.3356639999999942,
          "durationTicks": 96,
          "midi": 57,
          "name": "A3",
          "ticks": 19560,
          "time": 68.39154,
          "velocity": 0.6299212598425197
        },
        {
          "duration": 0.3356639999999942,
          "durationTicks": 96,
          "midi": 64,
          "name": "E4",
          "ticks": 19560,
          "time": 68.39154,
          "velocity": 0.6299212598425197
        },
        {
          "duration": 0.3356639999999942,
          "durationTicks": 96,
          "midi": 76,
          "name": "E5",
          "ticks": 19560,
          "time": 68.39154,
          "velocity": 0.6299212598425197
        },
        {
          "duration": 0.3356639999999942,
          "durationTicks": 96,
          "midi": 61,
          "name": "C#4",
          "ticks": 19560,
          "time": 68.39154,
          "velocity": 0.6299212598425197
        },
        {
          "duration": 0.3356639999999942,
          "durationTicks": 96,
          "midi": 52,
          "name": "E3",
          "ticks": 19560,
          "time": 68.39154,
          "velocity": 0.6299212598425197
        },
        {
          "duration": 0.1678320000000042,
          "durationTicks": 48,
          "midi": 71,
          "name": "B4",
          "ticks": 19680,
          "time": 68.81112,
          "velocity": 0.6299212598425197
        },
        {
          "duration": 0.1678320000000042,
          "durationTicks": 48,
          "midi": 68,
          "name": "G#4",
          "ticks": 19680,
          "time": 68.81112,
          "velocity": 0.6299212598425197
        },
        {
          "duration": 0.1678320000000042,
          "durationTicks": 48,
          "midi": 76,
          "name": "E5",
          "ticks": 19680,
          "time": 68.81112,
          "velocity": 0.6299212598425197
        },
        {
          "duration": 0.1678320000000042,
          "durationTicks": 48,
          "midi": 59,
          "name": "B3",
          "ticks": 19680,
          "time": 68.81112,
          "velocity": 0.6299212598425197
        },
        {
          "duration": 0.1678320000000042,
          "durationTicks": 48,
          "midi": 64,
          "name": "E4",
          "ticks": 19680,
          "time": 68.81112,
          "velocity": 0.6299212598425197
        },
        {
          "duration": 0.1678320000000042,
          "durationTicks": 48,
          "midi": 52,
          "name": "E3",
          "ticks": 19680,
          "time": 68.81112,
          "velocity": 0.6299212598425197
        },
        {
          "duration": 0.3356640000000084,
          "durationTicks": 96,
          "midi": 68,
          "name": "G#4",
          "ticks": 19740,
          "time": 69.02091,
          "velocity": 0.6299212598425197
        },
        {
          "duration": 0.3356640000000084,
          "durationTicks": 96,
          "midi": 76,
          "name": "E5",
          "ticks": 19740,
          "time": 69.02091,
          "velocity": 0.6299212598425197
        },
        {
          "duration": 0.3356640000000084,
          "durationTicks": 96,
          "midi": 59,
          "name": "B3",
          "ticks": 19740,
          "time": 69.02091,
          "velocity": 0.6299212598425197
        },
        {
          "duration": 0.3356640000000084,
          "durationTicks": 96,
          "midi": 71,
          "name": "B4",
          "ticks": 19740,
          "time": 69.02091,
          "velocity": 0.6299212598425197
        },
        {
          "duration": 0.3356640000000084,
          "durationTicks": 96,
          "midi": 64,
          "name": "E4",
          "ticks": 19740,
          "time": 69.02091,
          "velocity": 0.6299212598425197
        },
        {
          "duration": 0.3356640000000084,
          "durationTicks": 96,
          "midi": 52,
          "name": "E3",
          "ticks": 19740,
          "time": 69.02091,
          "velocity": 0.6299212598425197
        },
        {
          "duration": 0.3356640000000084,
          "durationTicks": 96,
          "midi": 57,
          "name": "A3",
          "ticks": 19860,
          "time": 69.44049,
          "velocity": 0.6299212598425197
        },
        {
          "duration": 0.3356640000000084,
          "durationTicks": 96,
          "midi": 61,
          "name": "C#4",
          "ticks": 19860,
          "time": 69.44049,
          "velocity": 0.6299212598425197
        },
        {
          "duration": 0.3356640000000084,
          "durationTicks": 96,
          "midi": 52,
          "name": "E3",
          "ticks": 19860,
          "time": 69.44049,
          "velocity": 0.6299212598425197
        },
        {
          "duration": 0.3356640000000084,
          "durationTicks": 96,
          "midi": 76,
          "name": "E5",
          "ticks": 19860,
          "time": 69.44049,
          "velocity": 0.6299212598425197
        },
        {
          "duration": 0.3356640000000084,
          "durationTicks": 96,
          "midi": 64,
          "name": "E4",
          "ticks": 19860,
          "time": 69.44049,
          "velocity": 0.6299212598425197
        },
        {
          "duration": 0.3356640000000084,
          "durationTicks": 96,
          "midi": 69,
          "name": "A4",
          "ticks": 19860,
          "time": 69.44049,
          "velocity": 0.6299212598425197
        },
        {
          "duration": 0.16783199999999,
          "durationTicks": 48,
          "midi": 57,
          "name": "A3",
          "ticks": 19980,
          "time": 69.86007000000001,
          "velocity": 0.6299212598425197
        },
        {
          "duration": 0.16783199999999,
          "durationTicks": 48,
          "midi": 52,
          "name": "E3",
          "ticks": 19980,
          "time": 69.86007000000001,
          "velocity": 0.6299212598425197
        },
        {
          "duration": 0.16783199999999,
          "durationTicks": 48,
          "midi": 64,
          "name": "E4",
          "ticks": 19980,
          "time": 69.86007000000001,
          "velocity": 0.6299212598425197
        },
        {
          "duration": 0.16783199999999,
          "durationTicks": 48,
          "midi": 69,
          "name": "A4",
          "ticks": 19980,
          "time": 69.86007000000001,
          "velocity": 0.6299212598425197
        },
        {
          "duration": 0.16783199999999,
          "durationTicks": 48,
          "midi": 76,
          "name": "E5",
          "ticks": 19980,
          "time": 69.86007000000001,
          "velocity": 0.6299212598425197
        },
        {
          "duration": 0.16783199999999,
          "durationTicks": 48,
          "midi": 61,
          "name": "C#4",
          "ticks": 19980,
          "time": 69.86007000000001,
          "velocity": 0.6299212598425197
        },
        {
          "duration": 0.3356639999999942,
          "durationTicks": 96,
          "midi": 69,
          "name": "A4",
          "ticks": 20040,
          "time": 70.06986,
          "velocity": 0.6299212598425197
        },
        {
          "duration": 0.3356639999999942,
          "durationTicks": 96,
          "midi": 64,
          "name": "E4",
          "ticks": 20040,
          "time": 70.06986,
          "velocity": 0.6299212598425197
        },
        {
          "duration": 0.3356639999999942,
          "durationTicks": 96,
          "midi": 61,
          "name": "C#4",
          "ticks": 20040,
          "time": 70.06986,
          "velocity": 0.6299212598425197
        },
        {
          "duration": 0.3356639999999942,
          "durationTicks": 96,
          "midi": 52,
          "name": "E3",
          "ticks": 20040,
          "time": 70.06986,
          "velocity": 0.6299212598425197
        },
        {
          "duration": 0.3356639999999942,
          "durationTicks": 96,
          "midi": 57,
          "name": "A3",
          "ticks": 20040,
          "time": 70.06986,
          "velocity": 0.6299212598425197
        },
        {
          "duration": 0.3356639999999942,
          "durationTicks": 96,
          "midi": 76,
          "name": "E5",
          "ticks": 20040,
          "time": 70.06986,
          "velocity": 0.6299212598425197
        },
        {
          "duration": 0.3356640000000084,
          "durationTicks": 96,
          "midi": 71,
          "name": "B4",
          "ticks": 20160,
          "time": 70.48944,
          "velocity": 0.6299212598425197
        },
        {
          "duration": 0.3356640000000084,
          "durationTicks": 96,
          "midi": 52,
          "name": "E3",
          "ticks": 20160,
          "time": 70.48944,
          "velocity": 0.6299212598425197
        },
        {
          "duration": 0.3356640000000084,
          "durationTicks": 96,
          "midi": 59,
          "name": "B3",
          "ticks": 20160,
          "time": 70.48944,
          "velocity": 0.6299212598425197
        },
        {
          "duration": 0.3356640000000084,
          "durationTicks": 96,
          "midi": 68,
          "name": "G#4",
          "ticks": 20160,
          "time": 70.48944,
          "velocity": 0.6299212598425197
        },
        {
          "duration": 0.3356640000000084,
          "durationTicks": 96,
          "midi": 64,
          "name": "E4",
          "ticks": 20160,
          "time": 70.48944,
          "velocity": 0.6299212598425197
        },
        {
          "duration": 0.3356640000000084,
          "durationTicks": 96,
          "midi": 76,
          "name": "E5",
          "ticks": 20160,
          "time": 70.48944,
          "velocity": 0.6299212598425197
        },
        {
          "duration": 0.3356640000000084,
          "durationTicks": 96,
          "midi": 52,
          "name": "E3",
          "ticks": 20280,
          "time": 70.90902,
          "velocity": 0.6299212598425197
        },
        {
          "duration": 0.3356640000000084,
          "durationTicks": 96,
          "midi": 68,
          "name": "G#4",
          "ticks": 20280,
          "time": 70.90902,
          "velocity": 0.6299212598425197
        },
        {
          "duration": 0.3356640000000084,
          "durationTicks": 96,
          "midi": 59,
          "name": "B3",
          "ticks": 20280,
          "time": 70.90902,
          "velocity": 0.6299212598425197
        },
        {
          "duration": 0.3356640000000084,
          "durationTicks": 96,
          "midi": 76,
          "name": "E5",
          "ticks": 20280,
          "time": 70.90902,
          "velocity": 0.6299212598425197
        },
        {
          "duration": 0.3356640000000084,
          "durationTicks": 96,
          "midi": 71,
          "name": "B4",
          "ticks": 20280,
          "time": 70.90902,
          "velocity": 0.6299212598425197
        },
        {
          "duration": 0.3356640000000084,
          "durationTicks": 96,
          "midi": 64,
          "name": "E4",
          "ticks": 20280,
          "time": 70.90902,
          "velocity": 0.6299212598425197
        },
        {
          "duration": 0.3356640000000084,
          "durationTicks": 96,
          "midi": 76,
          "name": "E5",
          "ticks": 20400,
          "time": 71.3286,
          "velocity": 0.6299212598425197
        },
        {
          "duration": 0.3356640000000084,
          "durationTicks": 96,
          "midi": 61,
          "name": "C#4",
          "ticks": 20400,
          "time": 71.3286,
          "velocity": 0.6299212598425197
        },
        {
          "duration": 0.3356640000000084,
          "durationTicks": 96,
          "midi": 69,
          "name": "A4",
          "ticks": 20400,
          "time": 71.3286,
          "velocity": 0.6299212598425197
        },
        {
          "duration": 0.3356640000000084,
          "durationTicks": 96,
          "midi": 64,
          "name": "E4",
          "ticks": 20400,
          "time": 71.3286,
          "velocity": 0.6299212598425197
        },
        {
          "duration": 0.3356640000000084,
          "durationTicks": 96,
          "midi": 57,
          "name": "A3",
          "ticks": 20400,
          "time": 71.3286,
          "velocity": 0.6299212598425197
        },
        {
          "duration": 0.3356640000000084,
          "durationTicks": 96,
          "midi": 52,
          "name": "E3",
          "ticks": 20400,
          "time": 71.3286,
          "velocity": 0.6299212598425197
        },
        {
          "duration": 0.3356639999999942,
          "durationTicks": 96,
          "midi": 61,
          "name": "C#4",
          "ticks": 20520,
          "time": 71.74818,
          "velocity": 0.6299212598425197
        },
        {
          "duration": 0.3356639999999942,
          "durationTicks": 96,
          "midi": 64,
          "name": "E4",
          "ticks": 20520,
          "time": 71.74818,
          "velocity": 0.6299212598425197
        },
        {
          "duration": 0.3356639999999942,
          "durationTicks": 96,
          "midi": 57,
          "name": "A3",
          "ticks": 20520,
          "time": 71.74818,
          "velocity": 0.6299212598425197
        },
        {
          "duration": 0.3356639999999942,
          "durationTicks": 96,
          "midi": 52,
          "name": "E3",
          "ticks": 20520,
          "time": 71.74818,
          "velocity": 0.6299212598425197
        },
        {
          "duration": 0.3356639999999942,
          "durationTicks": 96,
          "midi": 76,
          "name": "E5",
          "ticks": 20520,
          "time": 71.74818,
          "velocity": 0.6299212598425197
        },
        {
          "duration": 0.3356639999999942,
          "durationTicks": 96,
          "midi": 69,
          "name": "A4",
          "ticks": 20520,
          "time": 71.74818,
          "velocity": 0.6299212598425197
        },
        {
          "duration": 0.1678320000000042,
          "durationTicks": 48,
          "midi": 71,
          "name": "B4",
          "ticks": 20640,
          "time": 72.16776,
          "velocity": 0.6299212598425197
        },
        {
          "duration": 0.1678320000000042,
          "durationTicks": 48,
          "midi": 68,
          "name": "G#4",
          "ticks": 20640,
          "time": 72.16776,
          "velocity": 0.6299212598425197
        },
        {
          "duration": 0.1678320000000042,
          "durationTicks": 48,
          "midi": 76,
          "name": "E5",
          "ticks": 20640,
          "time": 72.16776,
          "velocity": 0.6299212598425197
        },
        {
          "duration": 0.1678320000000042,
          "durationTicks": 48,
          "midi": 59,
          "name": "B3",
          "ticks": 20640,
          "time": 72.16776,
          "velocity": 0.6299212598425197
        },
        {
          "duration": 0.1678320000000042,
          "durationTicks": 48,
          "midi": 64,
          "name": "E4",
          "ticks": 20640,
          "time": 72.16776,
          "velocity": 0.6299212598425197
        },
        {
          "duration": 0.1678320000000042,
          "durationTicks": 48,
          "midi": 52,
          "name": "E3",
          "ticks": 20640,
          "time": 72.16776,
          "velocity": 0.6299212598425197
        },
        {
          "duration": 0.3356640000000084,
          "durationTicks": 96,
          "midi": 68,
          "name": "G#4",
          "ticks": 20700,
          "time": 72.37755,
          "velocity": 0.6299212598425197
        },
        {
          "duration": 0.3356640000000084,
          "durationTicks": 96,
          "midi": 76,
          "name": "E5",
          "ticks": 20700,
          "time": 72.37755,
          "velocity": 0.6299212598425197
        },
        {
          "duration": 0.3356640000000084,
          "durationTicks": 96,
          "midi": 59,
          "name": "B3",
          "ticks": 20700,
          "time": 72.37755,
          "velocity": 0.6299212598425197
        },
        {
          "duration": 0.3356640000000084,
          "durationTicks": 96,
          "midi": 71,
          "name": "B4",
          "ticks": 20700,
          "time": 72.37755,
          "velocity": 0.6299212598425197
        },
        {
          "duration": 0.3356640000000084,
          "durationTicks": 96,
          "midi": 64,
          "name": "E4",
          "ticks": 20700,
          "time": 72.37755,
          "velocity": 0.6299212598425197
        },
        {
          "duration": 0.3356640000000084,
          "durationTicks": 96,
          "midi": 52,
          "name": "E3",
          "ticks": 20700,
          "time": 72.37755,
          "velocity": 0.6299212598425197
        },
        {
          "duration": 0.3356640000000084,
          "durationTicks": 96,
          "midi": 57,
          "name": "A3",
          "ticks": 20820,
          "time": 72.79713,
          "velocity": 0.6299212598425197
        },
        {
          "duration": 0.3356640000000084,
          "durationTicks": 96,
          "midi": 61,
          "name": "C#4",
          "ticks": 20820,
          "time": 72.79713,
          "velocity": 0.6299212598425197
        },
        {
          "duration": 0.3356640000000084,
          "durationTicks": 96,
          "midi": 52,
          "name": "E3",
          "ticks": 20820,
          "time": 72.79713,
          "velocity": 0.6299212598425197
        },
        {
          "duration": 0.3356640000000084,
          "durationTicks": 96,
          "midi": 64,
          "name": "E4",
          "ticks": 20820,
          "time": 72.79713,
          "velocity": 0.6299212598425197
        },
        {
          "duration": 0.3356640000000084,
          "durationTicks": 96,
          "midi": 76,
          "name": "E5",
          "ticks": 20820,
          "time": 72.79713,
          "velocity": 0.6299212598425197
        },
        {
          "duration": 0.3356640000000084,
          "durationTicks": 96,
          "midi": 69,
          "name": "A4",
          "ticks": 20820,
          "time": 72.79713,
          "velocity": 0.6299212598425197
        },
        {
          "duration": 0.1678320000000042,
          "durationTicks": 48,
          "midi": 76,
          "name": "E5",
          "ticks": 20940,
          "time": 73.21671,
          "velocity": 0.6299212598425197
        },
        {
          "duration": 0.1678320000000042,
          "durationTicks": 48,
          "midi": 52,
          "name": "E3",
          "ticks": 20940,
          "time": 73.21671,
          "velocity": 0.6299212598425197
        },
        {
          "duration": 0.1678320000000042,
          "durationTicks": 48,
          "midi": 69,
          "name": "A4",
          "ticks": 20940,
          "time": 73.21671,
          "velocity": 0.6299212598425197
        },
        {
          "duration": 0.1678320000000042,
          "durationTicks": 48,
          "midi": 64,
          "name": "E4",
          "ticks": 20940,
          "time": 73.21671,
          "velocity": 0.6299212598425197
        },
        {
          "duration": 0.1678320000000042,
          "durationTicks": 48,
          "midi": 57,
          "name": "A3",
          "ticks": 20940,
          "time": 73.21671,
          "velocity": 0.6299212598425197
        },
        {
          "duration": 0.1678320000000042,
          "durationTicks": 48,
          "midi": 61,
          "name": "C#4",
          "ticks": 20940,
          "time": 73.21671,
          "velocity": 0.6299212598425197
        },
        {
          "duration": 0.3356640000000084,
          "durationTicks": 96,
          "midi": 69,
          "name": "A4",
          "ticks": 21000,
          "time": 73.4265,
          "velocity": 0.6299212598425197
        },
        {
          "duration": 0.3356640000000084,
          "durationTicks": 96,
          "midi": 76,
          "name": "E5",
          "ticks": 21000,
          "time": 73.4265,
          "velocity": 0.6299212598425197
        },
        {
          "duration": 0.3356640000000084,
          "durationTicks": 96,
          "midi": 64,
          "name": "E4",
          "ticks": 21000,
          "time": 73.4265,
          "velocity": 0.6299212598425197
        },
        {
          "duration": 0.3356640000000084,
          "durationTicks": 96,
          "midi": 52,
          "name": "E3",
          "ticks": 21000,
          "time": 73.4265,
          "velocity": 0.6299212598425197
        },
        {
          "duration": 0.3356640000000084,
          "durationTicks": 96,
          "midi": 57,
          "name": "A3",
          "ticks": 21000,
          "time": 73.4265,
          "velocity": 0.6299212598425197
        },
        {
          "duration": 0.3356640000000084,
          "durationTicks": 96,
          "midi": 61,
          "name": "C#4",
          "ticks": 21000,
          "time": 73.4265,
          "velocity": 0.6299212598425197
        },
        {
          "duration": 0.3356640000000084,
          "durationTicks": 96,
          "midi": 71,
          "name": "B4",
          "ticks": 21120,
          "time": 73.84608,
          "velocity": 0.6299212598425197
        },
        {
          "duration": 0.3356640000000084,
          "durationTicks": 96,
          "midi": 52,
          "name": "E3",
          "ticks": 21120,
          "time": 73.84608,
          "velocity": 0.6299212598425197
        },
        {
          "duration": 0.3356640000000084,
          "durationTicks": 96,
          "midi": 59,
          "name": "B3",
          "ticks": 21120,
          "time": 73.84608,
          "velocity": 0.6299212598425197
        },
        {
          "duration": 0.3356640000000084,
          "durationTicks": 96,
          "midi": 68,
          "name": "G#4",
          "ticks": 21120,
          "time": 73.84608,
          "velocity": 0.6299212598425197
        },
        {
          "duration": 0.3356640000000084,
          "durationTicks": 96,
          "midi": 64,
          "name": "E4",
          "ticks": 21120,
          "time": 73.84608,
          "velocity": 0.6299212598425197
        },
        {
          "duration": 0.3356640000000084,
          "durationTicks": 96,
          "midi": 76,
          "name": "E5",
          "ticks": 21120,
          "time": 73.84608,
          "velocity": 0.6299212598425197
        },
        {
          "duration": 0.3356640000000084,
          "durationTicks": 96,
          "midi": 52,
          "name": "E3",
          "ticks": 21240,
          "time": 74.26566,
          "velocity": 0.6299212598425197
        },
        {
          "duration": 0.3356640000000084,
          "durationTicks": 96,
          "midi": 68,
          "name": "G#4",
          "ticks": 21240,
          "time": 74.26566,
          "velocity": 0.6299212598425197
        },
        {
          "duration": 0.3356640000000084,
          "durationTicks": 96,
          "midi": 59,
          "name": "B3",
          "ticks": 21240,
          "time": 74.26566,
          "velocity": 0.6299212598425197
        },
        {
          "duration": 0.3356640000000084,
          "durationTicks": 96,
          "midi": 76,
          "name": "E5",
          "ticks": 21240,
          "time": 74.26566,
          "velocity": 0.6299212598425197
        },
        {
          "duration": 0.3356640000000084,
          "durationTicks": 96,
          "midi": 71,
          "name": "B4",
          "ticks": 21240,
          "time": 74.26566,
          "velocity": 0.6299212598425197
        },
        {
          "duration": 0.3356640000000084,
          "durationTicks": 96,
          "midi": 64,
          "name": "E4",
          "ticks": 21240,
          "time": 74.26566,
          "velocity": 0.6299212598425197
        },
        {
          "duration": 0.3356639999999942,
          "durationTicks": 96,
          "midi": 57,
          "name": "A3",
          "ticks": 21360,
          "time": 74.68524000000001,
          "velocity": 0.6299212598425197
        },
        {
          "duration": 0.3356639999999942,
          "durationTicks": 96,
          "midi": 64,
          "name": "E4",
          "ticks": 21360,
          "time": 74.68524000000001,
          "velocity": 0.6299212598425197
        },
        {
          "duration": 0.3356639999999942,
          "durationTicks": 96,
          "midi": 61,
          "name": "C#4",
          "ticks": 21360,
          "time": 74.68524000000001,
          "velocity": 0.6299212598425197
        },
        {
          "duration": 0.3356639999999942,
          "durationTicks": 96,
          "midi": 52,
          "name": "E3",
          "ticks": 21360,
          "time": 74.68524000000001,
          "velocity": 0.6299212598425197
        },
        {
          "duration": 0.3356639999999942,
          "durationTicks": 96,
          "midi": 76,
          "name": "E5",
          "ticks": 21360,
          "time": 74.68524000000001,
          "velocity": 0.6299212598425197
        },
        {
          "duration": 0.3356639999999942,
          "durationTicks": 96,
          "midi": 69,
          "name": "A4",
          "ticks": 21360,
          "time": 74.68524000000001,
          "velocity": 0.6299212598425197
        },
        {
          "duration": 0.3356640000000084,
          "durationTicks": 96,
          "midi": 69,
          "name": "A4",
          "ticks": 21480,
          "time": 75.10482,
          "velocity": 0.6299212598425197
        },
        {
          "duration": 0.3356640000000084,
          "durationTicks": 96,
          "midi": 57,
          "name": "A3",
          "ticks": 21480,
          "time": 75.10482,
          "velocity": 0.6299212598425197
        },
        {
          "duration": 0.3356640000000084,
          "durationTicks": 96,
          "midi": 64,
          "name": "E4",
          "ticks": 21480,
          "time": 75.10482,
          "velocity": 0.6299212598425197
        },
        {
          "duration": 0.3356640000000084,
          "durationTicks": 96,
          "midi": 76,
          "name": "E5",
          "ticks": 21480,
          "time": 75.10482,
          "velocity": 0.6299212598425197
        },
        {
          "duration": 0.3356640000000084,
          "durationTicks": 96,
          "midi": 61,
          "name": "C#4",
          "ticks": 21480,
          "time": 75.10482,
          "velocity": 0.6299212598425197
        },
        {
          "duration": 0.3356640000000084,
          "durationTicks": 96,
          "midi": 52,
          "name": "E3",
          "ticks": 21480,
          "time": 75.10482,
          "velocity": 0.6299212598425197
        },
        {
          "duration": 0.1678320000000042,
          "durationTicks": 48,
          "midi": 71,
          "name": "B4",
          "ticks": 21600,
          "time": 75.5244,
          "velocity": 0.6299212598425197
        },
        {
          "duration": 0.1678320000000042,
          "durationTicks": 48,
          "midi": 68,
          "name": "G#4",
          "ticks": 21600,
          "time": 75.5244,
          "velocity": 0.6299212598425197
        },
        {
          "duration": 0.1678320000000042,
          "durationTicks": 48,
          "midi": 76,
          "name": "E5",
          "ticks": 21600,
          "time": 75.5244,
          "velocity": 0.6299212598425197
        },
        {
          "duration": 0.1678320000000042,
          "durationTicks": 48,
          "midi": 59,
          "name": "B3",
          "ticks": 21600,
          "time": 75.5244,
          "velocity": 0.6299212598425197
        },
        {
          "duration": 0.1678320000000042,
          "durationTicks": 48,
          "midi": 64,
          "name": "E4",
          "ticks": 21600,
          "time": 75.5244,
          "velocity": 0.6299212598425197
        },
        {
          "duration": 0.1678320000000042,
          "durationTicks": 48,
          "midi": 52,
          "name": "E3",
          "ticks": 21600,
          "time": 75.5244,
          "velocity": 0.6299212598425197
        },
        {
          "duration": 0.3356640000000084,
          "durationTicks": 96,
          "midi": 68,
          "name": "G#4",
          "ticks": 21660,
          "time": 75.73419,
          "velocity": 0.6299212598425197
        },
        {
          "duration": 0.3356640000000084,
          "durationTicks": 96,
          "midi": 76,
          "name": "E5",
          "ticks": 21660,
          "time": 75.73419,
          "velocity": 0.6299212598425197
        },
        {
          "duration": 0.3356640000000084,
          "durationTicks": 96,
          "midi": 59,
          "name": "B3",
          "ticks": 21660,
          "time": 75.73419,
          "velocity": 0.6299212598425197
        },
        {
          "duration": 0.3356640000000084,
          "durationTicks": 96,
          "midi": 71,
          "name": "B4",
          "ticks": 21660,
          "time": 75.73419,
          "velocity": 0.6299212598425197
        },
        {
          "duration": 0.3356640000000084,
          "durationTicks": 96,
          "midi": 64,
          "name": "E4",
          "ticks": 21660,
          "time": 75.73419,
          "velocity": 0.6299212598425197
        },
        {
          "duration": 0.3356640000000084,
          "durationTicks": 96,
          "midi": 52,
          "name": "E3",
          "ticks": 21660,
          "time": 75.73419,
          "velocity": 0.6299212598425197
        },
        {
          "duration": 0.3356639999999942,
          "durationTicks": 96,
          "midi": 57,
          "name": "A3",
          "ticks": 21780,
          "time": 76.15377000000001,
          "velocity": 0.6299212598425197
        },
        {
          "duration": 0.3356639999999942,
          "durationTicks": 96,
          "midi": 61,
          "name": "C#4",
          "ticks": 21780,
          "time": 76.15377000000001,
          "velocity": 0.6299212598425197
        },
        {
          "duration": 0.3356639999999942,
          "durationTicks": 96,
          "midi": 52,
          "name": "E3",
          "ticks": 21780,
          "time": 76.15377000000001,
          "velocity": 0.6299212598425197
        },
        {
          "duration": 0.3356639999999942,
          "durationTicks": 96,
          "midi": 76,
          "name": "E5",
          "ticks": 21780,
          "time": 76.15377000000001,
          "velocity": 0.6299212598425197
        },
        {
          "duration": 0.3356639999999942,
          "durationTicks": 96,
          "midi": 64,
          "name": "E4",
          "ticks": 21780,
          "time": 76.15377000000001,
          "velocity": 0.6299212598425197
        },
        {
          "duration": 0.3356639999999942,
          "durationTicks": 96,
          "midi": 69,
          "name": "A4",
          "ticks": 21780,
          "time": 76.15377000000001,
          "velocity": 0.6299212598425197
        },
        {
          "duration": 0.1678320000000042,
          "durationTicks": 48,
          "midi": 57,
          "name": "A3",
          "ticks": 21900,
          "time": 76.57335,
          "velocity": 0.6299212598425197
        },
        {
          "duration": 0.1678320000000042,
          "durationTicks": 48,
          "midi": 52,
          "name": "E3",
          "ticks": 21900,
          "time": 76.57335,
          "velocity": 0.6299212598425197
        },
        {
          "duration": 0.1678320000000042,
          "durationTicks": 48,
          "midi": 64,
          "name": "E4",
          "ticks": 21900,
          "time": 76.57335,
          "velocity": 0.6299212598425197
        },
        {
          "duration": 0.1678320000000042,
          "durationTicks": 48,
          "midi": 69,
          "name": "A4",
          "ticks": 21900,
          "time": 76.57335,
          "velocity": 0.6299212598425197
        },
        {
          "duration": 0.1678320000000042,
          "durationTicks": 48,
          "midi": 76,
          "name": "E5",
          "ticks": 21900,
          "time": 76.57335,
          "velocity": 0.6299212598425197
        },
        {
          "duration": 0.1678320000000042,
          "durationTicks": 48,
          "midi": 61,
          "name": "C#4",
          "ticks": 21900,
          "time": 76.57335,
          "velocity": 0.6299212598425197
        },
        {
          "duration": 0.3356640000000084,
          "durationTicks": 96,
          "midi": 69,
          "name": "A4",
          "ticks": 21960,
          "time": 76.78314,
          "velocity": 0.6299212598425197
        },
        {
          "duration": 0.3356640000000084,
          "durationTicks": 96,
          "midi": 64,
          "name": "E4",
          "ticks": 21960,
          "time": 76.78314,
          "velocity": 0.6299212598425197
        },
        {
          "duration": 0.3356640000000084,
          "durationTicks": 96,
          "midi": 61,
          "name": "C#4",
          "ticks": 21960,
          "time": 76.78314,
          "velocity": 0.6299212598425197
        },
        {
          "duration": 0.3356640000000084,
          "durationTicks": 96,
          "midi": 52,
          "name": "E3",
          "ticks": 21960,
          "time": 76.78314,
          "velocity": 0.6299212598425197
        },
        {
          "duration": 0.3356640000000084,
          "durationTicks": 96,
          "midi": 57,
          "name": "A3",
          "ticks": 21960,
          "time": 76.78314,
          "velocity": 0.6299212598425197
        },
        {
          "duration": 0.3356640000000084,
          "durationTicks": 96,
          "midi": 76,
          "name": "E5",
          "ticks": 21960,
          "time": 76.78314,
          "velocity": 0.6299212598425197
        },
        {
          "duration": 0.3356640000000084,
          "durationTicks": 96,
          "midi": 71,
          "name": "B4",
          "ticks": 22080,
          "time": 77.20272,
          "velocity": 0.6299212598425197
        },
        {
          "duration": 0.3356640000000084,
          "durationTicks": 96,
          "midi": 68,
          "name": "G#4",
          "ticks": 22080,
          "time": 77.20272,
          "velocity": 0.6299212598425197
        },
        {
          "duration": 0.3356640000000084,
          "durationTicks": 96,
          "midi": 64,
          "name": "E4",
          "ticks": 22080,
          "time": 77.20272,
          "velocity": 0.6299212598425197
        },
        {
          "duration": 0.3356640000000084,
          "durationTicks": 96,
          "midi": 52,
          "name": "E3",
          "ticks": 22080,
          "time": 77.20272,
          "velocity": 0.6299212598425197
        },
        {
          "duration": 0.3356640000000084,
          "durationTicks": 96,
          "midi": 76,
          "name": "E5",
          "ticks": 22080,
          "time": 77.20272,
          "velocity": 0.6299212598425197
        },
        {
          "duration": 0.3356640000000084,
          "durationTicks": 96,
          "midi": 59,
          "name": "B3",
          "ticks": 22080,
          "time": 77.20272,
          "velocity": 0.6299212598425197
        },
        {
          "duration": 0.3356640000000084,
          "durationTicks": 96,
          "midi": 52,
          "name": "E3",
          "ticks": 22200,
          "time": 77.6223,
          "velocity": 0.6299212598425197
        },
        {
          "duration": 0.3356640000000084,
          "durationTicks": 96,
          "midi": 68,
          "name": "G#4",
          "ticks": 22200,
          "time": 77.6223,
          "velocity": 0.6299212598425197
        },
        {
          "duration": 0.3356640000000084,
          "durationTicks": 96,
          "midi": 59,
          "name": "B3",
          "ticks": 22200,
          "time": 77.6223,
          "velocity": 0.6299212598425197
        },
        {
          "duration": 0.3356640000000084,
          "durationTicks": 96,
          "midi": 76,
          "name": "E5",
          "ticks": 22200,
          "time": 77.6223,
          "velocity": 0.6299212598425197
        },
        {
          "duration": 0.3356640000000084,
          "durationTicks": 96,
          "midi": 71,
          "name": "B4",
          "ticks": 22200,
          "time": 77.6223,
          "velocity": 0.6299212598425197
        },
        {
          "duration": 0.3356640000000084,
          "durationTicks": 96,
          "midi": 64,
          "name": "E4",
          "ticks": 22200,
          "time": 77.6223,
          "velocity": 0.6299212598425197
        },
        {
          "duration": 0.3356639999999942,
          "durationTicks": 96,
          "midi": 69,
          "name": "A4",
          "ticks": 22320,
          "time": 78.04188,
          "velocity": 0.6299212598425197
        },
        {
          "duration": 0.3356639999999942,
          "durationTicks": 96,
          "midi": 61,
          "name": "C#4",
          "ticks": 22320,
          "time": 78.04188,
          "velocity": 0.6299212598425197
        },
        {
          "duration": 0.3356639999999942,
          "durationTicks": 96,
          "midi": 64,
          "name": "E4",
          "ticks": 22320,
          "time": 78.04188,
          "velocity": 0.6299212598425197
        },
        {
          "duration": 0.3356639999999942,
          "durationTicks": 96,
          "midi": 76,
          "name": "E5",
          "ticks": 22320,
          "time": 78.04188,
          "velocity": 0.6299212598425197
        },
        {
          "duration": 0.3356639999999942,
          "durationTicks": 96,
          "midi": 57,
          "name": "A3",
          "ticks": 22320,
          "time": 78.04188,
          "velocity": 0.6299212598425197
        },
        {
          "duration": 0.3356639999999942,
          "durationTicks": 96,
          "midi": 52,
          "name": "E3",
          "ticks": 22320,
          "time": 78.04188,
          "velocity": 0.6299212598425197
        },
        {
          "duration": 0.3356640000000084,
          "durationTicks": 96,
          "midi": 52,
          "name": "E3",
          "ticks": 22440,
          "time": 78.46146,
          "velocity": 0.6299212598425197
        },
        {
          "duration": 0.3356640000000084,
          "durationTicks": 96,
          "midi": 57,
          "name": "A3",
          "ticks": 22440,
          "time": 78.46146,
          "velocity": 0.6299212598425197
        },
        {
          "duration": 0.3356640000000084,
          "durationTicks": 96,
          "midi": 61,
          "name": "C#4",
          "ticks": 22440,
          "time": 78.46146,
          "velocity": 0.6299212598425197
        },
        {
          "duration": 0.3356640000000084,
          "durationTicks": 96,
          "midi": 76,
          "name": "E5",
          "ticks": 22440,
          "time": 78.46146,
          "velocity": 0.6299212598425197
        },
        {
          "duration": 0.3356640000000084,
          "durationTicks": 96,
          "midi": 69,
          "name": "A4",
          "ticks": 22440,
          "time": 78.46146,
          "velocity": 0.6299212598425197
        },
        {
          "duration": 0.3356640000000084,
          "durationTicks": 96,
          "midi": 64,
          "name": "E4",
          "ticks": 22440,
          "time": 78.46146,
          "velocity": 0.6299212598425197
        },
        {
          "duration": 0.1678320000000042,
          "durationTicks": 48,
          "midi": 71,
          "name": "B4",
          "ticks": 22560,
          "time": 78.88104,
          "velocity": 0.6299212598425197
        },
        {
          "duration": 0.1678320000000042,
          "durationTicks": 48,
          "midi": 68,
          "name": "G#4",
          "ticks": 22560,
          "time": 78.88104,
          "velocity": 0.6299212598425197
        },
        {
          "duration": 0.1678320000000042,
          "durationTicks": 48,
          "midi": 76,
          "name": "E5",
          "ticks": 22560,
          "time": 78.88104,
          "velocity": 0.6299212598425197
        },
        {
          "duration": 0.1678320000000042,
          "durationTicks": 48,
          "midi": 59,
          "name": "B3",
          "ticks": 22560,
          "time": 78.88104,
          "velocity": 0.6299212598425197
        },
        {
          "duration": 0.1678320000000042,
          "durationTicks": 48,
          "midi": 64,
          "name": "E4",
          "ticks": 22560,
          "time": 78.88104,
          "velocity": 0.6299212598425197
        },
        {
          "duration": 0.1678320000000042,
          "durationTicks": 48,
          "midi": 52,
          "name": "E3",
          "ticks": 22560,
          "time": 78.88104,
          "velocity": 0.6299212598425197
        },
        {
          "duration": 0.3356640000000084,
          "durationTicks": 96,
          "midi": 68,
          "name": "G#4",
          "ticks": 22620,
          "time": 79.09083,
          "velocity": 0.6299212598425197
        },
        {
          "duration": 0.3356640000000084,
          "durationTicks": 96,
          "midi": 76,
          "name": "E5",
          "ticks": 22620,
          "time": 79.09083,
          "velocity": 0.6299212598425197
        },
        {
          "duration": 0.3356640000000084,
          "durationTicks": 96,
          "midi": 59,
          "name": "B3",
          "ticks": 22620,
          "time": 79.09083,
          "velocity": 0.6299212598425197
        },
        {
          "duration": 0.3356640000000084,
          "durationTicks": 96,
          "midi": 71,
          "name": "B4",
          "ticks": 22620,
          "time": 79.09083,
          "velocity": 0.6299212598425197
        },
        {
          "duration": 0.3356640000000084,
          "durationTicks": 96,
          "midi": 64,
          "name": "E4",
          "ticks": 22620,
          "time": 79.09083,
          "velocity": 0.6299212598425197
        },
        {
          "duration": 0.3356640000000084,
          "durationTicks": 96,
          "midi": 52,
          "name": "E3",
          "ticks": 22620,
          "time": 79.09083,
          "velocity": 0.6299212598425197
        },
        {
          "duration": 0.3356639999999942,
          "durationTicks": 96,
          "midi": 57,
          "name": "A3",
          "ticks": 22740,
          "time": 79.51041000000001,
          "velocity": 0.6299212598425197
        },
        {
          "duration": 0.3356639999999942,
          "durationTicks": 96,
          "midi": 61,
          "name": "C#4",
          "ticks": 22740,
          "time": 79.51041000000001,
          "velocity": 0.6299212598425197
        },
        {
          "duration": 0.3356639999999942,
          "durationTicks": 96,
          "midi": 52,
          "name": "E3",
          "ticks": 22740,
          "time": 79.51041000000001,
          "velocity": 0.6299212598425197
        },
        {
          "duration": 0.3356639999999942,
          "durationTicks": 96,
          "midi": 64,
          "name": "E4",
          "ticks": 22740,
          "time": 79.51041000000001,
          "velocity": 0.6299212598425197
        },
        {
          "duration": 0.3356639999999942,
          "durationTicks": 96,
          "midi": 76,
          "name": "E5",
          "ticks": 22740,
          "time": 79.51041000000001,
          "velocity": 0.6299212598425197
        },
        {
          "duration": 0.3356639999999942,
          "durationTicks": 96,
          "midi": 69,
          "name": "A4",
          "ticks": 22740,
          "time": 79.51041000000001,
          "velocity": 0.6299212598425197
        },
        {
          "duration": 0.1678320000000042,
          "durationTicks": 48,
          "midi": 76,
          "name": "E5",
          "ticks": 22860,
          "time": 79.92999,
          "velocity": 0.6299212598425197
        },
        {
          "duration": 0.1678320000000042,
          "durationTicks": 48,
          "midi": 52,
          "name": "E3",
          "ticks": 22860,
          "time": 79.92999,
          "velocity": 0.6299212598425197
        },
        {
          "duration": 0.1678320000000042,
          "durationTicks": 48,
          "midi": 69,
          "name": "A4",
          "ticks": 22860,
          "time": 79.92999,
          "velocity": 0.6299212598425197
        },
        {
          "duration": 0.1678320000000042,
          "durationTicks": 48,
          "midi": 64,
          "name": "E4",
          "ticks": 22860,
          "time": 79.92999,
          "velocity": 0.6299212598425197
        },
        {
          "duration": 0.1678320000000042,
          "durationTicks": 48,
          "midi": 57,
          "name": "A3",
          "ticks": 22860,
          "time": 79.92999,
          "velocity": 0.6299212598425197
        },
        {
          "duration": 0.1678320000000042,
          "durationTicks": 48,
          "midi": 61,
          "name": "C#4",
          "ticks": 22860,
          "time": 79.92999,
          "velocity": 0.6299212598425197
        },
        {
          "duration": 0.3356640000000084,
          "durationTicks": 96,
          "midi": 69,
          "name": "A4",
          "ticks": 22920,
          "time": 80.13978,
          "velocity": 0.6299212598425197
        },
        {
          "duration": 0.3356640000000084,
          "durationTicks": 96,
          "midi": 76,
          "name": "E5",
          "ticks": 22920,
          "time": 80.13978,
          "velocity": 0.6299212598425197
        },
        {
          "duration": 0.3356640000000084,
          "durationTicks": 96,
          "midi": 64,
          "name": "E4",
          "ticks": 22920,
          "time": 80.13978,
          "velocity": 0.6299212598425197
        },
        {
          "duration": 0.3356640000000084,
          "durationTicks": 96,
          "midi": 52,
          "name": "E3",
          "ticks": 22920,
          "time": 80.13978,
          "velocity": 0.6299212598425197
        },
        {
          "duration": 0.3356640000000084,
          "durationTicks": 96,
          "midi": 57,
          "name": "A3",
          "ticks": 22920,
          "time": 80.13978,
          "velocity": 0.6299212598425197
        },
        {
          "duration": 0.3356640000000084,
          "durationTicks": 96,
          "midi": 61,
          "name": "C#4",
          "ticks": 22920,
          "time": 80.13978,
          "velocity": 0.6299212598425197
        },
        {
          "duration": 0.3356640000000084,
          "durationTicks": 96,
          "midi": 71,
          "name": "B4",
          "ticks": 23040,
          "time": 80.55936,
          "velocity": 0.6299212598425197
        },
        {
          "duration": 0.3356640000000084,
          "durationTicks": 96,
          "midi": 76,
          "name": "E5",
          "ticks": 23040,
          "time": 80.55936,
          "velocity": 0.6299212598425197
        },
        {
          "duration": 0.3356640000000084,
          "durationTicks": 96,
          "midi": 64,
          "name": "E4",
          "ticks": 23040,
          "time": 80.55936,
          "velocity": 0.6299212598425197
        },
        {
          "duration": 0.3356640000000084,
          "durationTicks": 96,
          "midi": 52,
          "name": "E3",
          "ticks": 23040,
          "time": 80.55936,
          "velocity": 0.6299212598425197
        },
        {
          "duration": 0.3356640000000084,
          "durationTicks": 96,
          "midi": 59,
          "name": "B3",
          "ticks": 23040,
          "time": 80.55936,
          "velocity": 0.6299212598425197
        },
        {
          "duration": 0.3356640000000084,
          "durationTicks": 96,
          "midi": 68,
          "name": "G#4",
          "ticks": 23040,
          "time": 80.55936,
          "velocity": 0.6299212598425197
        },
        {
          "duration": 0.3356639999999942,
          "durationTicks": 96,
          "midi": 71,
          "name": "B4",
          "ticks": 23160,
          "time": 80.97894000000001,
          "velocity": 0.6299212598425197
        },
        {
          "duration": 0.3356639999999942,
          "durationTicks": 96,
          "midi": 59,
          "name": "B3",
          "ticks": 23160,
          "time": 80.97894000000001,
          "velocity": 0.6299212598425197
        },
        {
          "duration": 0.3356639999999942,
          "durationTicks": 96,
          "midi": 68,
          "name": "G#4",
          "ticks": 23160,
          "time": 80.97894000000001,
          "velocity": 0.6299212598425197
        },
        {
          "duration": 0.3356639999999942,
          "durationTicks": 96,
          "midi": 52,
          "name": "E3",
          "ticks": 23160,
          "time": 80.97894000000001,
          "velocity": 0.6299212598425197
        },
        {
          "duration": 0.3356639999999942,
          "durationTicks": 96,
          "midi": 76,
          "name": "E5",
          "ticks": 23160,
          "time": 80.97894000000001,
          "velocity": 0.6299212598425197
        },
        {
          "duration": 0.3356639999999942,
          "durationTicks": 96,
          "midi": 64,
          "name": "E4",
          "ticks": 23160,
          "time": 80.97894000000001,
          "velocity": 0.6299212598425197
        },
        {
          "duration": 0.3356640000000084,
          "durationTicks": 96,
          "midi": 64,
          "name": "E4",
          "ticks": 23280,
          "time": 81.39852,
          "velocity": 0.6299212598425197
        },
        {
          "duration": 0.3356640000000084,
          "durationTicks": 96,
          "midi": 69,
          "name": "A4",
          "ticks": 23280,
          "time": 81.39852,
          "velocity": 0.6299212598425197
        },
        {
          "duration": 0.3356640000000084,
          "durationTicks": 96,
          "midi": 61,
          "name": "C#4",
          "ticks": 23280,
          "time": 81.39852,
          "velocity": 0.6299212598425197
        },
        {
          "duration": 0.3356640000000084,
          "durationTicks": 96,
          "midi": 52,
          "name": "E3",
          "ticks": 23280,
          "time": 81.39852,
          "velocity": 0.6299212598425197
        },
        {
          "duration": 0.3356640000000084,
          "durationTicks": 96,
          "midi": 76,
          "name": "E5",
          "ticks": 23280,
          "time": 81.39852,
          "velocity": 0.6299212598425197
        },
        {
          "duration": 0.3356640000000084,
          "durationTicks": 96,
          "midi": 57,
          "name": "A3",
          "ticks": 23280,
          "time": 81.39852,
          "velocity": 0.6299212598425197
        },
        {
          "duration": 0.3356640000000084,
          "durationTicks": 96,
          "midi": 57,
          "name": "A3",
          "ticks": 23400,
          "time": 81.8181,
          "velocity": 0.6299212598425197
        },
        {
          "duration": 0.3356640000000084,
          "durationTicks": 96,
          "midi": 61,
          "name": "C#4",
          "ticks": 23400,
          "time": 81.8181,
          "velocity": 0.6299212598425197
        },
        {
          "duration": 0.3356640000000084,
          "durationTicks": 96,
          "midi": 64,
          "name": "E4",
          "ticks": 23400,
          "time": 81.8181,
          "velocity": 0.6299212598425197
        },
        {
          "duration": 0.3356640000000084,
          "durationTicks": 96,
          "midi": 69,
          "name": "A4",
          "ticks": 23400,
          "time": 81.8181,
          "velocity": 0.6299212598425197
        },
        {
          "duration": 0.3356640000000084,
          "durationTicks": 96,
          "midi": 76,
          "name": "E5",
          "ticks": 23400,
          "time": 81.8181,
          "velocity": 0.6299212598425197
        },
        {
          "duration": 0.3356640000000084,
          "durationTicks": 96,
          "midi": 52,
          "name": "E3",
          "ticks": 23400,
          "time": 81.8181,
          "velocity": 0.6299212598425197
        },
        {
          "duration": 0.1678320000000042,
          "durationTicks": 48,
          "midi": 76,
          "name": "E5",
          "ticks": 23520,
          "time": 82.23768,
          "velocity": 0.6299212598425197
        },
        {
          "duration": 0.1678320000000042,
          "durationTicks": 48,
          "midi": 68,
          "name": "G#4",
          "ticks": 23520,
          "time": 82.23768,
          "velocity": 0.6299212598425197
        },
        {
          "duration": 0.1678320000000042,
          "durationTicks": 48,
          "midi": 71,
          "name": "B4",
          "ticks": 23520,
          "time": 82.23768,
          "velocity": 0.6299212598425197
        },
        {
          "duration": 0.1678320000000042,
          "durationTicks": 48,
          "midi": 59,
          "name": "B3",
          "ticks": 23520,
          "time": 82.23768,
          "velocity": 0.6299212598425197
        },
        {
          "duration": 0.1678320000000042,
          "durationTicks": 48,
          "midi": 64,
          "name": "E4",
          "ticks": 23520,
          "time": 82.23768,
          "velocity": 0.6299212598425197
        },
        {
          "duration": 0.1678320000000042,
          "durationTicks": 48,
          "midi": 52,
          "name": "E3",
          "ticks": 23520,
          "time": 82.23768,
          "velocity": 0.6299212598425197
        },
        {
          "duration": 0.3356640000000084,
          "durationTicks": 96,
          "midi": 71,
          "name": "B4",
          "ticks": 23580,
          "time": 82.44747,
          "velocity": 0.6299212598425197
        },
        {
          "duration": 0.3356640000000084,
          "durationTicks": 96,
          "midi": 64,
          "name": "E4",
          "ticks": 23580,
          "time": 82.44747,
          "velocity": 0.6299212598425197
        },
        {
          "duration": 0.3356640000000084,
          "durationTicks": 96,
          "midi": 52,
          "name": "E3",
          "ticks": 23580,
          "time": 82.44747,
          "velocity": 0.6299212598425197
        },
        {
          "duration": 0.3356640000000084,
          "durationTicks": 96,
          "midi": 76,
          "name": "E5",
          "ticks": 23580,
          "time": 82.44747,
          "velocity": 0.6299212598425197
        },
        {
          "duration": 0.3356640000000084,
          "durationTicks": 96,
          "midi": 68,
          "name": "G#4",
          "ticks": 23580,
          "time": 82.44747,
          "velocity": 0.6299212598425197
        },
        {
          "duration": 0.3356640000000084,
          "durationTicks": 96,
          "midi": 59,
          "name": "B3",
          "ticks": 23580,
          "time": 82.44747,
          "velocity": 0.6299212598425197
        },
        {
          "duration": 0.3356639999999942,
          "durationTicks": 96,
          "midi": 61,
          "name": "C#4",
          "ticks": 23700,
          "time": 82.86705,
          "velocity": 0.6299212598425197
        },
        {
          "duration": 0.3356639999999942,
          "durationTicks": 96,
          "midi": 52,
          "name": "E3",
          "ticks": 23700,
          "time": 82.86705,
          "velocity": 0.6299212598425197
        },
        {
          "duration": 0.3356639999999942,
          "durationTicks": 96,
          "midi": 69,
          "name": "A4",
          "ticks": 23700,
          "time": 82.86705,
          "velocity": 0.6299212598425197
        },
        {
          "duration": 0.3356639999999942,
          "durationTicks": 96,
          "midi": 57,
          "name": "A3",
          "ticks": 23700,
          "time": 82.86705,
          "velocity": 0.6299212598425197
        },
        {
          "duration": 0.3356639999999942,
          "durationTicks": 96,
          "midi": 76,
          "name": "E5",
          "ticks": 23700,
          "time": 82.86705,
          "velocity": 0.6299212598425197
        },
        {
          "duration": 0.3356639999999942,
          "durationTicks": 96,
          "midi": 64,
          "name": "E4",
          "ticks": 23700,
          "time": 82.86705,
          "velocity": 0.6299212598425197
        },
        {
          "duration": 0.1678320000000042,
          "durationTicks": 48,
          "midi": 69,
          "name": "A4",
          "ticks": 23820,
          "time": 83.28663,
          "velocity": 0.6299212598425197
        },
        {
          "duration": 0.1678320000000042,
          "durationTicks": 48,
          "midi": 64,
          "name": "E4",
          "ticks": 23820,
          "time": 83.28663,
          "velocity": 0.6299212598425197
        },
        {
          "duration": 0.1678320000000042,
          "durationTicks": 48,
          "midi": 61,
          "name": "C#4",
          "ticks": 23820,
          "time": 83.28663,
          "velocity": 0.6299212598425197
        },
        {
          "duration": 0.1678320000000042,
          "durationTicks": 48,
          "midi": 76,
          "name": "E5",
          "ticks": 23820,
          "time": 83.28663,
          "velocity": 0.6299212598425197
        },
        {
          "duration": 0.1678320000000042,
          "durationTicks": 48,
          "midi": 57,
          "name": "A3",
          "ticks": 23820,
          "time": 83.28663,
          "velocity": 0.6299212598425197
        },
        {
          "duration": 0.1678320000000042,
          "durationTicks": 48,
          "midi": 52,
          "name": "E3",
          "ticks": 23820,
          "time": 83.28663,
          "velocity": 0.6299212598425197
        },
        {
          "duration": 0.3356640000000084,
          "durationTicks": 96,
          "midi": 69,
          "name": "A4",
          "ticks": 23880,
          "time": 83.49642,
          "velocity": 0.6299212598425197
        },
        {
          "duration": 0.3356640000000084,
          "durationTicks": 96,
          "midi": 61,
          "name": "C#4",
          "ticks": 23880,
          "time": 83.49642,
          "velocity": 0.6299212598425197
        },
        {
          "duration": 0.3356640000000084,
          "durationTicks": 96,
          "midi": 76,
          "name": "E5",
          "ticks": 23880,
          "time": 83.49642,
          "velocity": 0.6299212598425197
        },
        {
          "duration": 0.3356640000000084,
          "durationTicks": 96,
          "midi": 64,
          "name": "E4",
          "ticks": 23880,
          "time": 83.49642,
          "velocity": 0.6299212598425197
        },
        {
          "duration": 0.3356640000000084,
          "durationTicks": 96,
          "midi": 52,
          "name": "E3",
          "ticks": 23880,
          "time": 83.49642,
          "velocity": 0.6299212598425197
        },
        {
          "duration": 0.3356640000000084,
          "durationTicks": 96,
          "midi": 57,
          "name": "A3",
          "ticks": 23880,
          "time": 83.49642,
          "velocity": 0.6299212598425197
        },
        {
          "duration": 0.3356640000000084,
          "durationTicks": 96,
          "midi": 64,
          "name": "E4",
          "ticks": 24000,
          "time": 83.916,
          "velocity": 0.6299212598425197
        },
        {
          "duration": 0.3356640000000084,
          "durationTicks": 96,
          "midi": 68,
          "name": "G#4",
          "ticks": 24000,
          "time": 83.916,
          "velocity": 0.6299212598425197
        },
        {
          "duration": 0.3356640000000084,
          "durationTicks": 96,
          "midi": 71,
          "name": "B4",
          "ticks": 24000,
          "time": 83.916,
          "velocity": 0.6299212598425197
        },
        {
          "duration": 0.3356640000000084,
          "durationTicks": 96,
          "midi": 52,
          "name": "E3",
          "ticks": 24000,
          "time": 83.916,
          "velocity": 0.6299212598425197
        },
        {
          "duration": 0.3356640000000084,
          "durationTicks": 96,
          "midi": 59,
          "name": "B3",
          "ticks": 24000,
          "time": 83.916,
          "velocity": 0.6299212598425197
        },
        {
          "duration": 0.3356640000000084,
          "durationTicks": 96,
          "midi": 76,
          "name": "E5",
          "ticks": 24000,
          "time": 83.916,
          "velocity": 0.6299212598425197
        },
        {
          "duration": 0.3356639999999942,
          "durationTicks": 96,
          "midi": 76,
          "name": "E5",
          "ticks": 24120,
          "time": 84.33558000000001,
          "velocity": 0.6299212598425197
        },
        {
          "duration": 0.3356639999999942,
          "durationTicks": 96,
          "midi": 71,
          "name": "B4",
          "ticks": 24120,
          "time": 84.33558000000001,
          "velocity": 0.6299212598425197
        },
        {
          "duration": 0.3356639999999942,
          "durationTicks": 96,
          "midi": 59,
          "name": "B3",
          "ticks": 24120,
          "time": 84.33558000000001,
          "velocity": 0.6299212598425197
        },
        {
          "duration": 0.3356639999999942,
          "durationTicks": 96,
          "midi": 52,
          "name": "E3",
          "ticks": 24120,
          "time": 84.33558000000001,
          "velocity": 0.6299212598425197
        },
        {
          "duration": 0.3356639999999942,
          "durationTicks": 96,
          "midi": 64,
          "name": "E4",
          "ticks": 24120,
          "time": 84.33558000000001,
          "velocity": 0.6299212598425197
        },
        {
          "duration": 0.3356639999999942,
          "durationTicks": 96,
          "midi": 68,
          "name": "G#4",
          "ticks": 24120,
          "time": 84.33558000000001,
          "velocity": 0.6299212598425197
        },
        {
          "duration": 0.3356640000000084,
          "durationTicks": 96,
          "midi": 64,
          "name": "E4",
          "ticks": 24240,
          "time": 84.75516,
          "velocity": 0.6299212598425197
        },
        {
          "duration": 0.3356640000000084,
          "durationTicks": 96,
          "midi": 61,
          "name": "C#4",
          "ticks": 24240,
          "time": 84.75516,
          "velocity": 0.6299212598425197
        },
        {
          "duration": 0.3356640000000084,
          "durationTicks": 96,
          "midi": 52,
          "name": "E3",
          "ticks": 24240,
          "time": 84.75516,
          "velocity": 0.6299212598425197
        },
        {
          "duration": 0.3356640000000084,
          "durationTicks": 96,
          "midi": 76,
          "name": "E5",
          "ticks": 24240,
          "time": 84.75516,
          "velocity": 0.6299212598425197
        },
        {
          "duration": 0.3356640000000084,
          "durationTicks": 96,
          "midi": 69,
          "name": "A4",
          "ticks": 24240,
          "time": 84.75516,
          "velocity": 0.6299212598425197
        },
        {
          "duration": 0.3356640000000084,
          "durationTicks": 96,
          "midi": 57,
          "name": "A3",
          "ticks": 24240,
          "time": 84.75516,
          "velocity": 0.6299212598425197
        },
        {
          "duration": 0.3356640000000084,
          "durationTicks": 96,
          "midi": 57,
          "name": "A3",
          "ticks": 24360,
          "time": 85.17474,
          "velocity": 0.6299212598425197
        },
        {
          "duration": 0.3356640000000084,
          "durationTicks": 96,
          "midi": 69,
          "name": "A4",
          "ticks": 24360,
          "time": 85.17474,
          "velocity": 0.6299212598425197
        },
        {
          "duration": 0.3356640000000084,
          "durationTicks": 96,
          "midi": 61,
          "name": "C#4",
          "ticks": 24360,
          "time": 85.17474,
          "velocity": 0.6299212598425197
        },
        {
          "duration": 0.3356640000000084,
          "durationTicks": 96,
          "midi": 52,
          "name": "E3",
          "ticks": 24360,
          "time": 85.17474,
          "velocity": 0.6299212598425197
        },
        {
          "duration": 0.3356640000000084,
          "durationTicks": 96,
          "midi": 76,
          "name": "E5",
          "ticks": 24360,
          "time": 85.17474,
          "velocity": 0.6299212598425197
        },
        {
          "duration": 0.3356640000000084,
          "durationTicks": 96,
          "midi": 64,
          "name": "E4",
          "ticks": 24360,
          "time": 85.17474,
          "velocity": 0.6299212598425197
        },
        {
          "duration": 0.1678320000000042,
          "durationTicks": 48,
          "midi": 64,
          "name": "E4",
          "ticks": 24480,
          "time": 85.59432,
          "velocity": 0.6299212598425197
        },
        {
          "duration": 0.1678320000000042,
          "durationTicks": 48,
          "midi": 59,
          "name": "B3",
          "ticks": 24480,
          "time": 85.59432,
          "velocity": 0.6299212598425197
        },
        {
          "duration": 0.1678320000000042,
          "durationTicks": 48,
          "midi": 52,
          "name": "E3",
          "ticks": 24480,
          "time": 85.59432,
          "velocity": 0.6299212598425197
        },
        {
          "duration": 0.1678320000000042,
          "durationTicks": 48,
          "midi": 68,
          "name": "G#4",
          "ticks": 24480,
          "time": 85.59432,
          "velocity": 0.6299212598425197
        },
        {
          "duration": 0.1678320000000042,
          "durationTicks": 48,
          "midi": 71,
          "name": "B4",
          "ticks": 24480,
          "time": 85.59432,
          "velocity": 0.6299212598425197
        },
        {
          "duration": 0.1678320000000042,
          "durationTicks": 48,
          "midi": 76,
          "name": "E5",
          "ticks": 24480,
          "time": 85.59432,
          "velocity": 0.6299212598425197
        },
        {
          "duration": 0.3356639999999942,
          "durationTicks": 96,
          "midi": 59,
          "name": "B3",
          "ticks": 24540,
          "time": 85.80411000000001,
          "velocity": 0.6299212598425197
        },
        {
          "duration": 0.3356639999999942,
          "durationTicks": 96,
          "midi": 71,
          "name": "B4",
          "ticks": 24540,
          "time": 85.80411000000001,
          "velocity": 0.6299212598425197
        },
        {
          "duration": 0.3356639999999942,
          "durationTicks": 96,
          "midi": 64,
          "name": "E4",
          "ticks": 24540,
          "time": 85.80411000000001,
          "velocity": 0.6299212598425197
        },
        {
          "duration": 0.3356639999999942,
          "durationTicks": 96,
          "midi": 76,
          "name": "E5",
          "ticks": 24540,
          "time": 85.80411000000001,
          "velocity": 0.6299212598425197
        },
        {
          "duration": 0.3356639999999942,
          "durationTicks": 96,
          "midi": 68,
          "name": "G#4",
          "ticks": 24540,
          "time": 85.80411000000001,
          "velocity": 0.6299212598425197
        },
        {
          "duration": 0.3356639999999942,
          "durationTicks": 96,
          "midi": 52,
          "name": "E3",
          "ticks": 24540,
          "time": 85.80411000000001,
          "velocity": 0.6299212598425197
        },
        {
          "duration": 0.3356640000000084,
          "durationTicks": 96,
          "midi": 52,
          "name": "E3",
          "ticks": 24660,
          "time": 86.22369,
          "velocity": 0.6299212598425197
        },
        {
          "duration": 0.3356640000000084,
          "durationTicks": 96,
          "midi": 57,
          "name": "A3",
          "ticks": 24660,
          "time": 86.22369,
          "velocity": 0.6299212598425197
        },
        {
          "duration": 0.3356640000000084,
          "durationTicks": 96,
          "midi": 76,
          "name": "E5",
          "ticks": 24660,
          "time": 86.22369,
          "velocity": 0.6299212598425197
        },
        {
          "duration": 0.3356640000000084,
          "durationTicks": 96,
          "midi": 64,
          "name": "E4",
          "ticks": 24660,
          "time": 86.22369,
          "velocity": 0.6299212598425197
        },
        {
          "duration": 0.3356640000000084,
          "durationTicks": 96,
          "midi": 61,
          "name": "C#4",
          "ticks": 24660,
          "time": 86.22369,
          "velocity": 0.6299212598425197
        },
        {
          "duration": 0.3356640000000084,
          "durationTicks": 96,
          "midi": 69,
          "name": "A4",
          "ticks": 24660,
          "time": 86.22369,
          "velocity": 0.6299212598425197
        },
        {
          "duration": 0.1678320000000042,
          "durationTicks": 48,
          "midi": 61,
          "name": "C#4",
          "ticks": 24780,
          "time": 86.64327,
          "velocity": 0.6299212598425197
        },
        {
          "duration": 0.1678320000000042,
          "durationTicks": 48,
          "midi": 76,
          "name": "E5",
          "ticks": 24780,
          "time": 86.64327,
          "velocity": 0.6299212598425197
        },
        {
          "duration": 0.1678320000000042,
          "durationTicks": 48,
          "midi": 57,
          "name": "A3",
          "ticks": 24780,
          "time": 86.64327,
          "velocity": 0.6299212598425197
        },
        {
          "duration": 0.1678320000000042,
          "durationTicks": 48,
          "midi": 69,
          "name": "A4",
          "ticks": 24780,
          "time": 86.64327,
          "velocity": 0.6299212598425197
        },
        {
          "duration": 0.1678320000000042,
          "durationTicks": 48,
          "midi": 64,
          "name": "E4",
          "ticks": 24780,
          "time": 86.64327,
          "velocity": 0.6299212598425197
        },
        {
          "duration": 0.1678320000000042,
          "durationTicks": 48,
          "midi": 52,
          "name": "E3",
          "ticks": 24780,
          "time": 86.64327,
          "velocity": 0.6299212598425197
        },
        {
          "duration": 0.3356640000000084,
          "durationTicks": 96,
          "midi": 61,
          "name": "C#4",
          "ticks": 24840,
          "time": 86.85306,
          "velocity": 0.6299212598425197
        },
        {
          "duration": 0.3356640000000084,
          "durationTicks": 96,
          "midi": 76,
          "name": "E5",
          "ticks": 24840,
          "time": 86.85306,
          "velocity": 0.6299212598425197
        },
        {
          "duration": 0.3356640000000084,
          "durationTicks": 96,
          "midi": 64,
          "name": "E4",
          "ticks": 24840,
          "time": 86.85306,
          "velocity": 0.6299212598425197
        },
        {
          "duration": 0.3356640000000084,
          "durationTicks": 96,
          "midi": 52,
          "name": "E3",
          "ticks": 24840,
          "time": 86.85306,
          "velocity": 0.6299212598425197
        },
        {
          "duration": 0.3356640000000084,
          "durationTicks": 96,
          "midi": 57,
          "name": "A3",
          "ticks": 24840,
          "time": 86.85306,
          "velocity": 0.6299212598425197
        },
        {
          "duration": 0.3356640000000084,
          "durationTicks": 96,
          "midi": 69,
          "name": "A4",
          "ticks": 24840,
          "time": 86.85306,
          "velocity": 0.6299212598425197
        },
        {
          "duration": 0.3356640000000084,
          "durationTicks": 96,
          "midi": 52,
          "name": "E3",
          "ticks": 24960,
          "time": 87.27264,
          "velocity": 0.6299212598425197
        },
        {
          "duration": 0.3356640000000084,
          "durationTicks": 96,
          "midi": 71,
          "name": "B4",
          "ticks": 24960,
          "time": 87.27264,
          "velocity": 0.6299212598425197
        },
        {
          "duration": 0.3356640000000084,
          "durationTicks": 96,
          "midi": 68,
          "name": "G#4",
          "ticks": 24960,
          "time": 87.27264,
          "velocity": 0.6299212598425197
        },
        {
          "duration": 0.3356640000000084,
          "durationTicks": 96,
          "midi": 64,
          "name": "E4",
          "ticks": 24960,
          "time": 87.27264,
          "velocity": 0.6299212598425197
        },
        {
          "duration": 0.3356640000000084,
          "durationTicks": 96,
          "midi": 76,
          "name": "E5",
          "ticks": 24960,
          "time": 87.27264,
          "velocity": 0.6299212598425197
        },
        {
          "duration": 0.3356640000000084,
          "durationTicks": 96,
          "midi": 59,
          "name": "B3",
          "ticks": 24960,
          "time": 87.27264,
          "velocity": 0.6299212598425197
        },
        {
          "duration": 0.3356639999999942,
          "durationTicks": 96,
          "midi": 52,
          "name": "E3",
          "ticks": 25080,
          "time": 87.69222,
          "velocity": 0.6299212598425197
        },
        {
          "duration": 0.3356639999999942,
          "durationTicks": 96,
          "midi": 71,
          "name": "B4",
          "ticks": 25080,
          "time": 87.69222,
          "velocity": 0.6299212598425197
        },
        {
          "duration": 0.3356639999999942,
          "durationTicks": 96,
          "midi": 76,
          "name": "E5",
          "ticks": 25080,
          "time": 87.69222,
          "velocity": 0.6299212598425197
        },
        {
          "duration": 0.3356639999999942,
          "durationTicks": 96,
          "midi": 68,
          "name": "G#4",
          "ticks": 25080,
          "time": 87.69222,
          "velocity": 0.6299212598425197
        },
        {
          "duration": 0.3356639999999942,
          "durationTicks": 96,
          "midi": 59,
          "name": "B3",
          "ticks": 25080,
          "time": 87.69222,
          "velocity": 0.6299212598425197
        },
        {
          "duration": 0.3356639999999942,
          "durationTicks": 96,
          "midi": 64,
          "name": "E4",
          "ticks": 25080,
          "time": 87.69222,
          "velocity": 0.6299212598425197
        },
        {
          "duration": 0.3356640000000084,
          "durationTicks": 96,
          "midi": 61,
          "name": "C#4",
          "ticks": 25200,
          "time": 88.1118,
          "velocity": 0.6299212598425197
        },
        {
          "duration": 0.3356640000000084,
          "durationTicks": 96,
          "midi": 57,
          "name": "A3",
          "ticks": 25200,
          "time": 88.1118,
          "velocity": 0.6299212598425197
        },
        {
          "duration": 0.3356640000000084,
          "durationTicks": 96,
          "midi": 69,
          "name": "A4",
          "ticks": 25200,
          "time": 88.1118,
          "velocity": 0.6299212598425197
        },
        {
          "duration": 0.3356640000000084,
          "durationTicks": 96,
          "midi": 52,
          "name": "E3",
          "ticks": 25200,
          "time": 88.1118,
          "velocity": 0.6299212598425197
        },
        {
          "duration": 0.3356640000000084,
          "durationTicks": 96,
          "midi": 76,
          "name": "E5",
          "ticks": 25200,
          "time": 88.1118,
          "velocity": 0.6299212598425197
        },
        {
          "duration": 0.3356640000000084,
          "durationTicks": 96,
          "midi": 64,
          "name": "E4",
          "ticks": 25200,
          "time": 88.1118,
          "velocity": 0.6299212598425197
        },
        {
          "duration": 0.3356640000000084,
          "durationTicks": 96,
          "midi": 76,
          "name": "E5",
          "ticks": 25320,
          "time": 88.53138,
          "velocity": 0.6299212598425197
        },
        {
          "duration": 0.3356640000000084,
          "durationTicks": 96,
          "midi": 57,
          "name": "A3",
          "ticks": 25320,
          "time": 88.53138,
          "velocity": 0.6299212598425197
        },
        {
          "duration": 0.3356640000000084,
          "durationTicks": 96,
          "midi": 52,
          "name": "E3",
          "ticks": 25320,
          "time": 88.53138,
          "velocity": 0.6299212598425197
        },
        {
          "duration": 0.3356640000000084,
          "durationTicks": 96,
          "midi": 64,
          "name": "E4",
          "ticks": 25320,
          "time": 88.53138,
          "velocity": 0.6299212598425197
        },
        {
          "duration": 0.3356640000000084,
          "durationTicks": 96,
          "midi": 69,
          "name": "A4",
          "ticks": 25320,
          "time": 88.53138,
          "velocity": 0.6299212598425197
        },
        {
          "duration": 0.3356640000000084,
          "durationTicks": 96,
          "midi": 61,
          "name": "C#4",
          "ticks": 25320,
          "time": 88.53138,
          "velocity": 0.6299212598425197
        },
        {
          "duration": 0.1678320000000042,
          "durationTicks": 48,
          "midi": 64,
          "name": "E4",
          "ticks": 25440,
          "time": 88.95096,
          "velocity": 0.6299212598425197
        },
        {
          "duration": 0.1678320000000042,
          "durationTicks": 48,
          "midi": 59,
          "name": "B3",
          "ticks": 25440,
          "time": 88.95096,
          "velocity": 0.6299212598425197
        },
        {
          "duration": 0.1678320000000042,
          "durationTicks": 48,
          "midi": 52,
          "name": "E3",
          "ticks": 25440,
          "time": 88.95096,
          "velocity": 0.6299212598425197
        },
        {
          "duration": 0.1678320000000042,
          "durationTicks": 48,
          "midi": 68,
          "name": "G#4",
          "ticks": 25440,
          "time": 88.95096,
          "velocity": 0.6299212598425197
        },
        {
          "duration": 0.1678320000000042,
          "durationTicks": 48,
          "midi": 71,
          "name": "B4",
          "ticks": 25440,
          "time": 88.95096,
          "velocity": 0.6299212598425197
        },
        {
          "duration": 0.1678320000000042,
          "durationTicks": 48,
          "midi": 76,
          "name": "E5",
          "ticks": 25440,
          "time": 88.95096,
          "velocity": 0.6299212598425197
        },
        {
          "duration": 0.3356639999999942,
          "durationTicks": 96,
          "midi": 59,
          "name": "B3",
          "ticks": 25500,
          "time": 89.16075000000001,
          "velocity": 0.6299212598425197
        },
        {
          "duration": 0.3356639999999942,
          "durationTicks": 96,
          "midi": 71,
          "name": "B4",
          "ticks": 25500,
          "time": 89.16075000000001,
          "velocity": 0.6299212598425197
        },
        {
          "duration": 0.3356639999999942,
          "durationTicks": 96,
          "midi": 64,
          "name": "E4",
          "ticks": 25500,
          "time": 89.16075000000001,
          "velocity": 0.6299212598425197
        },
        {
          "duration": 0.3356639999999942,
          "durationTicks": 96,
          "midi": 76,
          "name": "E5",
          "ticks": 25500,
          "time": 89.16075000000001,
          "velocity": 0.6299212598425197
        },
        {
          "duration": 0.3356639999999942,
          "durationTicks": 96,
          "midi": 68,
          "name": "G#4",
          "ticks": 25500,
          "time": 89.16075000000001,
          "velocity": 0.6299212598425197
        },
        {
          "duration": 0.3356639999999942,
          "durationTicks": 96,
          "midi": 52,
          "name": "E3",
          "ticks": 25500,
          "time": 89.16075000000001,
          "velocity": 0.6299212598425197
        },
        {
          "duration": 0.3356640000000084,
          "durationTicks": 96,
          "midi": 52,
          "name": "E3",
          "ticks": 25620,
          "time": 89.58033,
          "velocity": 0.6299212598425197
        },
        {
          "duration": 0.3356640000000084,
          "durationTicks": 96,
          "midi": 57,
          "name": "A3",
          "ticks": 25620,
          "time": 89.58033,
          "velocity": 0.6299212598425197
        },
        {
          "duration": 0.3356640000000084,
          "durationTicks": 96,
          "midi": 76,
          "name": "E5",
          "ticks": 25620,
          "time": 89.58033,
          "velocity": 0.6299212598425197
        },
        {
          "duration": 0.3356640000000084,
          "durationTicks": 96,
          "midi": 64,
          "name": "E4",
          "ticks": 25620,
          "time": 89.58033,
          "velocity": 0.6299212598425197
        },
        {
          "duration": 0.3356640000000084,
          "durationTicks": 96,
          "midi": 61,
          "name": "C#4",
          "ticks": 25620,
          "time": 89.58033,
          "velocity": 0.6299212598425197
        },
        {
          "duration": 0.3356640000000084,
          "durationTicks": 96,
          "midi": 69,
          "name": "A4",
          "ticks": 25620,
          "time": 89.58033,
          "velocity": 0.6299212598425197
        },
        {
          "duration": 0.1678320000000042,
          "durationTicks": 48,
          "midi": 61,
          "name": "C#4",
          "ticks": 25740,
          "time": 89.99991,
          "velocity": 0.6299212598425197
        },
        {
          "duration": 0.1678320000000042,
          "durationTicks": 48,
          "midi": 76,
          "name": "E5",
          "ticks": 25740,
          "time": 89.99991,
          "velocity": 0.6299212598425197
        },
        {
          "duration": 0.1678320000000042,
          "durationTicks": 48,
          "midi": 57,
          "name": "A3",
          "ticks": 25740,
          "time": 89.99991,
          "velocity": 0.6299212598425197
        },
        {
          "duration": 0.1678320000000042,
          "durationTicks": 48,
          "midi": 69,
          "name": "A4",
          "ticks": 25740,
          "time": 89.99991,
          "velocity": 0.6299212598425197
        },
        {
          "duration": 0.1678320000000042,
          "durationTicks": 48,
          "midi": 64,
          "name": "E4",
          "ticks": 25740,
          "time": 89.99991,
          "velocity": 0.6299212598425197
        },
        {
          "duration": 0.1678320000000042,
          "durationTicks": 48,
          "midi": 52,
          "name": "E3",
          "ticks": 25740,
          "time": 89.99991,
          "velocity": 0.6299212598425197
        },
        {
          "duration": 0.3356640000000084,
          "durationTicks": 96,
          "midi": 61,
          "name": "C#4",
          "ticks": 25800,
          "time": 90.2097,
          "velocity": 0.6299212598425197
        },
        {
          "duration": 0.3356640000000084,
          "durationTicks": 96,
          "midi": 76,
          "name": "E5",
          "ticks": 25800,
          "time": 90.2097,
          "velocity": 0.6299212598425197
        },
        {
          "duration": 0.3356640000000084,
          "durationTicks": 96,
          "midi": 64,
          "name": "E4",
          "ticks": 25800,
          "time": 90.2097,
          "velocity": 0.6299212598425197
        },
        {
          "duration": 0.3356640000000084,
          "durationTicks": 96,
          "midi": 52,
          "name": "E3",
          "ticks": 25800,
          "time": 90.2097,
          "velocity": 0.6299212598425197
        },
        {
          "duration": 0.3356640000000084,
          "durationTicks": 96,
          "midi": 57,
          "name": "A3",
          "ticks": 25800,
          "time": 90.2097,
          "velocity": 0.6299212598425197
        },
        {
          "duration": 0.3356640000000084,
          "durationTicks": 96,
          "midi": 69,
          "name": "A4",
          "ticks": 25800,
          "time": 90.2097,
          "velocity": 0.6299212598425197
        },
        {
          "duration": 0.3356639999999942,
          "durationTicks": 96,
          "midi": 52,
          "name": "E3",
          "ticks": 25920,
          "time": 90.62928000000001,
          "velocity": 0.6299212598425197
        },
        {
          "duration": 0.3356639999999942,
          "durationTicks": 96,
          "midi": 71,
          "name": "B4",
          "ticks": 25920,
          "time": 90.62928000000001,
          "velocity": 0.6299212598425197
        },
        {
          "duration": 0.3356639999999942,
          "durationTicks": 96,
          "midi": 68,
          "name": "G#4",
          "ticks": 25920,
          "time": 90.62928000000001,
          "velocity": 0.6299212598425197
        },
        {
          "duration": 0.3356639999999942,
          "durationTicks": 96,
          "midi": 64,
          "name": "E4",
          "ticks": 25920,
          "time": 90.62928000000001,
          "velocity": 0.6299212598425197
        },
        {
          "duration": 0.3356639999999942,
          "durationTicks": 96,
          "midi": 76,
          "name": "E5",
          "ticks": 25920,
          "time": 90.62928000000001,
          "velocity": 0.6299212598425197
        },
        {
          "duration": 0.3356639999999942,
          "durationTicks": 96,
          "midi": 59,
          "name": "B3",
          "ticks": 25920,
          "time": 90.62928000000001,
          "velocity": 0.6299212598425197
        },
        {
          "duration": 0.3356640000000084,
          "durationTicks": 96,
          "midi": 71,
          "name": "B4",
          "ticks": 26040,
          "time": 91.04886,
          "velocity": 0.6299212598425197
        },
        {
          "duration": 0.3356640000000084,
          "durationTicks": 96,
          "midi": 76,
          "name": "E5",
          "ticks": 26040,
          "time": 91.04886,
          "velocity": 0.6299212598425197
        },
        {
          "duration": 0.3356640000000084,
          "durationTicks": 96,
          "midi": 68,
          "name": "G#4",
          "ticks": 26040,
          "time": 91.04886,
          "velocity": 0.6299212598425197
        },
        {
          "duration": 0.3356640000000084,
          "durationTicks": 96,
          "midi": 52,
          "name": "E3",
          "ticks": 26040,
          "time": 91.04886,
          "velocity": 0.6299212598425197
        },
        {
          "duration": 0.3356640000000084,
          "durationTicks": 96,
          "midi": 59,
          "name": "B3",
          "ticks": 26040,
          "time": 91.04886,
          "velocity": 0.6299212598425197
        },
        {
          "duration": 0.3356640000000084,
          "durationTicks": 96,
          "midi": 64,
          "name": "E4",
          "ticks": 26040,
          "time": 91.04886,
          "velocity": 0.6299212598425197
        },
        {
          "duration": 0.3356640000000084,
          "durationTicks": 96,
          "midi": 64,
          "name": "E4",
          "ticks": 26160,
          "time": 91.46844,
          "velocity": 0.6299212598425197
        },
        {
          "duration": 0.3356640000000084,
          "durationTicks": 96,
          "midi": 61,
          "name": "C#4",
          "ticks": 26160,
          "time": 91.46844,
          "velocity": 0.6299212598425197
        },
        {
          "duration": 0.3356640000000084,
          "durationTicks": 96,
          "midi": 52,
          "name": "E3",
          "ticks": 26160,
          "time": 91.46844,
          "velocity": 0.6299212598425197
        },
        {
          "duration": 0.3356640000000084,
          "durationTicks": 96,
          "midi": 76,
          "name": "E5",
          "ticks": 26160,
          "time": 91.46844,
          "velocity": 0.6299212598425197
        },
        {
          "duration": 0.3356640000000084,
          "durationTicks": 96,
          "midi": 69,
          "name": "A4",
          "ticks": 26160,
          "time": 91.46844,
          "velocity": 0.6299212598425197
        },
        {
          "duration": 0.3356640000000084,
          "durationTicks": 96,
          "midi": 57,
          "name": "A3",
          "ticks": 26160,
          "time": 91.46844,
          "velocity": 0.6299212598425197
        },
        {
          "duration": 0.3356640000000084,
          "durationTicks": 96,
          "midi": 69,
          "name": "A4",
          "ticks": 26280,
          "time": 91.88802,
          "velocity": 0.6299212598425197
        },
        {
          "duration": 0.3356640000000084,
          "durationTicks": 96,
          "midi": 61,
          "name": "C#4",
          "ticks": 26280,
          "time": 91.88802,
          "velocity": 0.6299212598425197
        },
        {
          "duration": 0.3356640000000084,
          "durationTicks": 96,
          "midi": 64,
          "name": "E4",
          "ticks": 26280,
          "time": 91.88802,
          "velocity": 0.6299212598425197
        },
        {
          "duration": 0.3356640000000084,
          "durationTicks": 96,
          "midi": 52,
          "name": "E3",
          "ticks": 26280,
          "time": 91.88802,
          "velocity": 0.6299212598425197
        },
        {
          "duration": 0.3356640000000084,
          "durationTicks": 96,
          "midi": 76,
          "name": "E5",
          "ticks": 26280,
          "time": 91.88802,
          "velocity": 0.6299212598425197
        },
        {
          "duration": 0.3356640000000084,
          "durationTicks": 96,
          "midi": 57,
          "name": "A3",
          "ticks": 26280,
          "time": 91.88802,
          "velocity": 0.6299212598425197
        },
        {
          "duration": 0.16783199999999,
          "durationTicks": 48,
          "midi": 64,
          "name": "E4",
          "ticks": 26400,
          "time": 92.30760000000001,
          "velocity": 0.6299212598425197
        },
        {
          "duration": 0.16783199999999,
          "durationTicks": 48,
          "midi": 59,
          "name": "B3",
          "ticks": 26400,
          "time": 92.30760000000001,
          "velocity": 0.6299212598425197
        },
        {
          "duration": 0.16783199999999,
          "durationTicks": 48,
          "midi": 52,
          "name": "E3",
          "ticks": 26400,
          "time": 92.30760000000001,
          "velocity": 0.6299212598425197
        },
        {
          "duration": 0.16783199999999,
          "durationTicks": 48,
          "midi": 68,
          "name": "G#4",
          "ticks": 26400,
          "time": 92.30760000000001,
          "velocity": 0.6299212598425197
        },
        {
          "duration": 0.16783199999999,
          "durationTicks": 48,
          "midi": 71,
          "name": "B4",
          "ticks": 26400,
          "time": 92.30760000000001,
          "velocity": 0.6299212598425197
        },
        {
          "duration": 0.16783199999999,
          "durationTicks": 48,
          "midi": 76,
          "name": "E5",
          "ticks": 26400,
          "time": 92.30760000000001,
          "velocity": 0.6299212598425197
        },
        {
          "duration": 0.3356639999999942,
          "durationTicks": 96,
          "midi": 59,
          "name": "B3",
          "ticks": 26460,
          "time": 92.51739,
          "velocity": 0.6299212598425197
        },
        {
          "duration": 0.3356639999999942,
          "durationTicks": 96,
          "midi": 71,
          "name": "B4",
          "ticks": 26460,
          "time": 92.51739,
          "velocity": 0.6299212598425197
        },
        {
          "duration": 0.3356639999999942,
          "durationTicks": 96,
          "midi": 64,
          "name": "E4",
          "ticks": 26460,
          "time": 92.51739,
          "velocity": 0.6299212598425197
        },
        {
          "duration": 0.3356639999999942,
          "durationTicks": 96,
          "midi": 76,
          "name": "E5",
          "ticks": 26460,
          "time": 92.51739,
          "velocity": 0.6299212598425197
        },
        {
          "duration": 0.3356639999999942,
          "durationTicks": 96,
          "midi": 68,
          "name": "G#4",
          "ticks": 26460,
          "time": 92.51739,
          "velocity": 0.6299212598425197
        },
        {
          "duration": 0.3356639999999942,
          "durationTicks": 96,
          "midi": 52,
          "name": "E3",
          "ticks": 26460,
          "time": 92.51739,
          "velocity": 0.6299212598425197
        },
        {
          "duration": 0.3356640000000084,
          "durationTicks": 96,
          "midi": 52,
          "name": "E3",
          "ticks": 26580,
          "time": 92.93697,
          "velocity": 0.6299212598425197
        },
        {
          "duration": 0.3356640000000084,
          "durationTicks": 96,
          "midi": 57,
          "name": "A3",
          "ticks": 26580,
          "time": 92.93697,
          "velocity": 0.6299212598425197
        },
        {
          "duration": 0.3356640000000084,
          "durationTicks": 96,
          "midi": 76,
          "name": "E5",
          "ticks": 26580,
          "time": 92.93697,
          "velocity": 0.6299212598425197
        },
        {
          "duration": 0.3356640000000084,
          "durationTicks": 96,
          "midi": 64,
          "name": "E4",
          "ticks": 26580,
          "time": 92.93697,
          "velocity": 0.6299212598425197
        },
        {
          "duration": 0.3356640000000084,
          "durationTicks": 96,
          "midi": 61,
          "name": "C#4",
          "ticks": 26580,
          "time": 92.93697,
          "velocity": 0.6299212598425197
        },
        {
          "duration": 0.3356640000000084,
          "durationTicks": 96,
          "midi": 69,
          "name": "A4",
          "ticks": 26580,
          "time": 92.93697,
          "velocity": 0.6299212598425197
        },
        {
          "duration": 0.1678320000000042,
          "durationTicks": 48,
          "midi": 61,
          "name": "C#4",
          "ticks": 26700,
          "time": 93.35655,
          "velocity": 0.6299212598425197
        },
        {
          "duration": 0.1678320000000042,
          "durationTicks": 48,
          "midi": 76,
          "name": "E5",
          "ticks": 26700,
          "time": 93.35655,
          "velocity": 0.6299212598425197
        },
        {
          "duration": 0.1678320000000042,
          "durationTicks": 48,
          "midi": 57,
          "name": "A3",
          "ticks": 26700,
          "time": 93.35655,
          "velocity": 0.6299212598425197
        },
        {
          "duration": 0.1678320000000042,
          "durationTicks": 48,
          "midi": 69,
          "name": "A4",
          "ticks": 26700,
          "time": 93.35655,
          "velocity": 0.6299212598425197
        },
        {
          "duration": 0.1678320000000042,
          "durationTicks": 48,
          "midi": 64,
          "name": "E4",
          "ticks": 26700,
          "time": 93.35655,
          "velocity": 0.6299212598425197
        },
        {
          "duration": 0.1678320000000042,
          "durationTicks": 48,
          "midi": 52,
          "name": "E3",
          "ticks": 26700,
          "time": 93.35655,
          "velocity": 0.6299212598425197
        },
        {
          "duration": 0.3356640000000084,
          "durationTicks": 96,
          "midi": 61,
          "name": "C#4",
          "ticks": 26760,
          "time": 93.56634,
          "velocity": 0.6299212598425197
        },
        {
          "duration": 0.3356640000000084,
          "durationTicks": 96,
          "midi": 76,
          "name": "E5",
          "ticks": 26760,
          "time": 93.56634,
          "velocity": 0.6299212598425197
        },
        {
          "duration": 0.3356640000000084,
          "durationTicks": 96,
          "midi": 64,
          "name": "E4",
          "ticks": 26760,
          "time": 93.56634,
          "velocity": 0.6299212598425197
        },
        {
          "duration": 0.3356640000000084,
          "durationTicks": 96,
          "midi": 52,
          "name": "E3",
          "ticks": 26760,
          "time": 93.56634,
          "velocity": 0.6299212598425197
        },
        {
          "duration": 0.3356640000000084,
          "durationTicks": 96,
          "midi": 57,
          "name": "A3",
          "ticks": 26760,
          "time": 93.56634,
          "velocity": 0.6299212598425197
        },
        {
          "duration": 0.3356640000000084,
          "durationTicks": 96,
          "midi": 69,
          "name": "A4",
          "ticks": 26760,
          "time": 93.56634,
          "velocity": 0.6299212598425197
        },
        {
          "duration": 0.3356639999999942,
          "durationTicks": 96,
          "midi": 59,
          "name": "B3",
          "ticks": 26880,
          "time": 93.98592000000001,
          "velocity": 0.6299212598425197
        },
        {
          "duration": 0.3356639999999942,
          "durationTicks": 96,
          "midi": 71,
          "name": "B4",
          "ticks": 26880,
          "time": 93.98592000000001,
          "velocity": 0.6299212598425197
        },
        {
          "duration": 0.3356639999999942,
          "durationTicks": 96,
          "midi": 52,
          "name": "E3",
          "ticks": 26880,
          "time": 93.98592000000001,
          "velocity": 0.6299212598425197
        },
        {
          "duration": 0.3356639999999942,
          "durationTicks": 96,
          "midi": 64,
          "name": "E4",
          "ticks": 26880,
          "time": 93.98592000000001,
          "velocity": 0.6299212598425197
        },
        {
          "duration": 0.3356639999999942,
          "durationTicks": 96,
          "midi": 68,
          "name": "G#4",
          "ticks": 26880,
          "time": 93.98592000000001,
          "velocity": 0.6299212598425197
        },
        {
          "duration": 0.3356639999999942,
          "durationTicks": 96,
          "midi": 76,
          "name": "E5",
          "ticks": 26880,
          "time": 93.98592000000001,
          "velocity": 0.6299212598425197
        },
        {
          "duration": 0.3356640000000084,
          "durationTicks": 96,
          "midi": 64,
          "name": "E4",
          "ticks": 27000,
          "time": 94.4055,
          "velocity": 0.6299212598425197
        },
        {
          "duration": 0.3356640000000084,
          "durationTicks": 96,
          "midi": 71,
          "name": "B4",
          "ticks": 27000,
          "time": 94.4055,
          "velocity": 0.6299212598425197
        },
        {
          "duration": 0.3356640000000084,
          "durationTicks": 96,
          "midi": 76,
          "name": "E5",
          "ticks": 27000,
          "time": 94.4055,
          "velocity": 0.6299212598425197
        },
        {
          "duration": 0.3356640000000084,
          "durationTicks": 96,
          "midi": 59,
          "name": "B3",
          "ticks": 27000,
          "time": 94.4055,
          "velocity": 0.6299212598425197
        },
        {
          "duration": 0.3356640000000084,
          "durationTicks": 96,
          "midi": 52,
          "name": "E3",
          "ticks": 27000,
          "time": 94.4055,
          "velocity": 0.6299212598425197
        },
        {
          "duration": 0.3356640000000084,
          "durationTicks": 96,
          "midi": 68,
          "name": "G#4",
          "ticks": 27000,
          "time": 94.4055,
          "velocity": 0.6299212598425197
        },
        {
          "duration": 0.3356640000000084,
          "durationTicks": 96,
          "midi": 76,
          "name": "E5",
          "ticks": 27120,
          "time": 94.82508,
          "velocity": 0.6299212598425197
        },
        {
          "duration": 0.3356640000000084,
          "durationTicks": 96,
          "midi": 69,
          "name": "A4",
          "ticks": 27120,
          "time": 94.82508,
          "velocity": 0.6299212598425197
        },
        {
          "duration": 0.3356640000000084,
          "durationTicks": 96,
          "midi": 57,
          "name": "A3",
          "ticks": 27120,
          "time": 94.82508,
          "velocity": 0.6299212598425197
        },
        {
          "duration": 0.3356640000000084,
          "durationTicks": 96,
          "midi": 64,
          "name": "E4",
          "ticks": 27120,
          "time": 94.82508,
          "velocity": 0.6299212598425197
        },
        {
          "duration": 0.3356640000000084,
          "durationTicks": 96,
          "midi": 52,
          "name": "E3",
          "ticks": 27120,
          "time": 94.82508,
          "velocity": 0.6299212598425197
        },
        {
          "duration": 0.3356640000000084,
          "durationTicks": 96,
          "midi": 61,
          "name": "C#4",
          "ticks": 27120,
          "time": 94.82508,
          "velocity": 0.6299212598425197
        },
        {
          "duration": 0.3356640000000084,
          "durationTicks": 96,
          "midi": 76,
          "name": "E5",
          "ticks": 27240,
          "time": 95.24466,
          "velocity": 0.6299212598425197
        },
        {
          "duration": 0.3356640000000084,
          "durationTicks": 96,
          "midi": 64,
          "name": "E4",
          "ticks": 27240,
          "time": 95.24466,
          "velocity": 0.6299212598425197
        },
        {
          "duration": 0.3356640000000084,
          "durationTicks": 96,
          "midi": 69,
          "name": "A4",
          "ticks": 27240,
          "time": 95.24466,
          "velocity": 0.6299212598425197
        },
        {
          "duration": 0.3356640000000084,
          "durationTicks": 96,
          "midi": 61,
          "name": "C#4",
          "ticks": 27240,
          "time": 95.24466,
          "velocity": 0.6299212598425197
        },
        {
          "duration": 0.3356640000000084,
          "durationTicks": 96,
          "midi": 52,
          "name": "E3",
          "ticks": 27240,
          "time": 95.24466,
          "velocity": 0.6299212598425197
        },
        {
          "duration": 0.3356640000000084,
          "durationTicks": 96,
          "midi": 57,
          "name": "A3",
          "ticks": 27240,
          "time": 95.24466,
          "velocity": 0.6299212598425197
        },
        {
          "duration": 0.1678320000000042,
          "durationTicks": 48,
          "midi": 59,
          "name": "B3",
          "ticks": 27360,
          "time": 95.66424,
          "velocity": 0.6299212598425197
        },
        {
          "duration": 0.1678320000000042,
          "durationTicks": 48,
          "midi": 64,
          "name": "E4",
          "ticks": 27360,
          "time": 95.66424,
          "velocity": 0.6299212598425197
        },
        {
          "duration": 0.1678320000000042,
          "durationTicks": 48,
          "midi": 52,
          "name": "E3",
          "ticks": 27360,
          "time": 95.66424,
          "velocity": 0.6299212598425197
        },
        {
          "duration": 0.1678320000000042,
          "durationTicks": 48,
          "midi": 68,
          "name": "G#4",
          "ticks": 27360,
          "time": 95.66424,
          "velocity": 0.6299212598425197
        },
        {
          "duration": 0.1678320000000042,
          "durationTicks": 48,
          "midi": 71,
          "name": "B4",
          "ticks": 27360,
          "time": 95.66424,
          "velocity": 0.6299212598425197
        },
        {
          "duration": 0.1678320000000042,
          "durationTicks": 48,
          "midi": 76,
          "name": "E5",
          "ticks": 27360,
          "time": 95.66424,
          "velocity": 0.6299212598425197
        },
        {
          "duration": 0.3356640000000084,
          "durationTicks": 96,
          "midi": 64,
          "name": "E4",
          "ticks": 27420,
          "time": 95.87403,
          "velocity": 0.6299212598425197
        },
        {
          "duration": 0.3356640000000084,
          "durationTicks": 96,
          "midi": 68,
          "name": "G#4",
          "ticks": 27420,
          "time": 95.87403,
          "velocity": 0.6299212598425197
        },
        {
          "duration": 0.3356640000000084,
          "durationTicks": 96,
          "midi": 76,
          "name": "E5",
          "ticks": 27420,
          "time": 95.87403,
          "velocity": 0.6299212598425197
        },
        {
          "duration": 0.3356640000000084,
          "durationTicks": 96,
          "midi": 71,
          "name": "B4",
          "ticks": 27420,
          "time": 95.87403,
          "velocity": 0.6299212598425197
        },
        {
          "duration": 0.3356640000000084,
          "durationTicks": 96,
          "midi": 52,
          "name": "E3",
          "ticks": 27420,
          "time": 95.87403,
          "velocity": 0.6299212598425197
        },
        {
          "duration": 0.3356640000000084,
          "durationTicks": 96,
          "midi": 59,
          "name": "B3",
          "ticks": 27420,
          "time": 95.87403,
          "velocity": 0.6299212598425197
        },
        {
          "duration": 0.3356640000000084,
          "durationTicks": 96,
          "midi": 61,
          "name": "C#4",
          "ticks": 27540,
          "time": 96.29361,
          "velocity": 0.6299212598425197
        },
        {
          "duration": 0.3356640000000084,
          "durationTicks": 96,
          "midi": 52,
          "name": "E3",
          "ticks": 27540,
          "time": 96.29361,
          "velocity": 0.6299212598425197
        },
        {
          "duration": 0.3356640000000084,
          "durationTicks": 96,
          "midi": 76,
          "name": "E5",
          "ticks": 27540,
          "time": 96.29361,
          "velocity": 0.6299212598425197
        },
        {
          "duration": 0.3356640000000084,
          "durationTicks": 96,
          "midi": 64,
          "name": "E4",
          "ticks": 27540,
          "time": 96.29361,
          "velocity": 0.6299212598425197
        },
        {
          "duration": 0.3356640000000084,
          "durationTicks": 96,
          "midi": 69,
          "name": "A4",
          "ticks": 27540,
          "time": 96.29361,
          "velocity": 0.6299212598425197
        },
        {
          "duration": 0.3356640000000084,
          "durationTicks": 96,
          "midi": 57,
          "name": "A3",
          "ticks": 27540,
          "time": 96.29361,
          "velocity": 0.6299212598425197
        },
        {
          "duration": 0.1678320000000042,
          "durationTicks": 48,
          "midi": 61,
          "name": "C#4",
          "ticks": 27660,
          "time": 96.71319,
          "velocity": 0.6299212598425197
        },
        {
          "duration": 0.1678320000000042,
          "durationTicks": 48,
          "midi": 64,
          "name": "E4",
          "ticks": 27660,
          "time": 96.71319,
          "velocity": 0.6299212598425197
        },
        {
          "duration": 0.1678320000000042,
          "durationTicks": 48,
          "midi": 76,
          "name": "E5",
          "ticks": 27660,
          "time": 96.71319,
          "velocity": 0.6299212598425197
        },
        {
          "duration": 0.1678320000000042,
          "durationTicks": 48,
          "midi": 57,
          "name": "A3",
          "ticks": 27660,
          "time": 96.71319,
          "velocity": 0.6299212598425197
        },
        {
          "duration": 0.1678320000000042,
          "durationTicks": 48,
          "midi": 52,
          "name": "E3",
          "ticks": 27660,
          "time": 96.71319,
          "velocity": 0.6299212598425197
        },
        {
          "duration": 0.1678320000000042,
          "durationTicks": 48,
          "midi": 69,
          "name": "A4",
          "ticks": 27660,
          "time": 96.71319,
          "velocity": 0.6299212598425197
        },
        {
          "duration": 0.3356640000000084,
          "durationTicks": 96,
          "midi": 61,
          "name": "C#4",
          "ticks": 27720,
          "time": 96.92298,
          "velocity": 0.6299212598425197
        },
        {
          "duration": 0.3356640000000084,
          "durationTicks": 96,
          "midi": 64,
          "name": "E4",
          "ticks": 27720,
          "time": 96.92298,
          "velocity": 0.6299212598425197
        },
        {
          "duration": 0.3356640000000084,
          "durationTicks": 96,
          "midi": 52,
          "name": "E3",
          "ticks": 27720,
          "time": 96.92298,
          "velocity": 0.6299212598425197
        },
        {
          "duration": 0.3356640000000084,
          "durationTicks": 96,
          "midi": 76,
          "name": "E5",
          "ticks": 27720,
          "time": 96.92298,
          "velocity": 0.6299212598425197
        },
        {
          "duration": 0.3356640000000084,
          "durationTicks": 96,
          "midi": 57,
          "name": "A3",
          "ticks": 27720,
          "time": 96.92298,
          "velocity": 0.6299212598425197
        },
        {
          "duration": 0.3356640000000084,
          "durationTicks": 96,
          "midi": 69,
          "name": "A4",
          "ticks": 27720,
          "time": 96.92298,
          "velocity": 0.6299212598425197
        },
        {
          "duration": 0.3356639999999942,
          "durationTicks": 96,
          "midi": 71,
          "name": "B4",
          "ticks": 27840,
          "time": 97.34256,
          "velocity": 0.6299212598425197
        },
        {
          "duration": 0.3356639999999942,
          "durationTicks": 96,
          "midi": 59,
          "name": "B3",
          "ticks": 27840,
          "time": 97.34256,
          "velocity": 0.6299212598425197
        },
        {
          "duration": 0.3356639999999942,
          "durationTicks": 96,
          "midi": 64,
          "name": "E4",
          "ticks": 27840,
          "time": 97.34256,
          "velocity": 0.6299212598425197
        },
        {
          "duration": 0.3356639999999942,
          "durationTicks": 96,
          "midi": 76,
          "name": "E5",
          "ticks": 27840,
          "time": 97.34256,
          "velocity": 0.6299212598425197
        },
        {
          "duration": 0.3356639999999942,
          "durationTicks": 96,
          "midi": 52,
          "name": "E3",
          "ticks": 27840,
          "time": 97.34256,
          "velocity": 0.6299212598425197
        },
        {
          "duration": 0.3356639999999942,
          "durationTicks": 96,
          "midi": 68,
          "name": "G#4",
          "ticks": 27840,
          "time": 97.34256,
          "velocity": 0.6299212598425197
        },
        {
          "duration": 0.3356640000000084,
          "durationTicks": 96,
          "midi": 76,
          "name": "E5",
          "ticks": 27960,
          "time": 97.76214,
          "velocity": 0.6299212598425197
        },
        {
          "duration": 0.3356640000000084,
          "durationTicks": 96,
          "midi": 71,
          "name": "B4",
          "ticks": 27960,
          "time": 97.76214,
          "velocity": 0.6299212598425197
        },
        {
          "duration": 0.3356640000000084,
          "durationTicks": 96,
          "midi": 59,
          "name": "B3",
          "ticks": 27960,
          "time": 97.76214,
          "velocity": 0.6299212598425197
        },
        {
          "duration": 0.3356640000000084,
          "durationTicks": 96,
          "midi": 64,
          "name": "E4",
          "ticks": 27960,
          "time": 97.76214,
          "velocity": 0.6299212598425197
        },
        {
          "duration": 0.3356640000000084,
          "durationTicks": 96,
          "midi": 52,
          "name": "E3",
          "ticks": 27960,
          "time": 97.76214,
          "velocity": 0.6299212598425197
        },
        {
          "duration": 0.3356640000000084,
          "durationTicks": 96,
          "midi": 68,
          "name": "G#4",
          "ticks": 27960,
          "time": 97.76214,
          "velocity": 0.6299212598425197
        },
        {
          "duration": 0.3356640000000084,
          "durationTicks": 96,
          "midi": 52,
          "name": "E3",
          "ticks": 28080,
          "time": 98.18172,
          "velocity": 0.6299212598425197
        },
        {
          "duration": 0.3356640000000084,
          "durationTicks": 96,
          "midi": 61,
          "name": "C#4",
          "ticks": 28080,
          "time": 98.18172,
          "velocity": 0.6299212598425197
        },
        {
          "duration": 0.3356640000000084,
          "durationTicks": 96,
          "midi": 57,
          "name": "A3",
          "ticks": 28080,
          "time": 98.18172,
          "velocity": 0.6299212598425197
        },
        {
          "duration": 0.3356640000000084,
          "durationTicks": 96,
          "midi": 69,
          "name": "A4",
          "ticks": 28080,
          "time": 98.18172,
          "velocity": 0.6299212598425197
        },
        {
          "duration": 0.3356640000000084,
          "durationTicks": 96,
          "midi": 64,
          "name": "E4",
          "ticks": 28080,
          "time": 98.18172,
          "velocity": 0.6299212598425197
        },
        {
          "duration": 0.3356640000000084,
          "durationTicks": 96,
          "midi": 76,
          "name": "E5",
          "ticks": 28080,
          "time": 98.18172,
          "velocity": 0.6299212598425197
        },
        {
          "duration": 0.3356639999999942,
          "durationTicks": 96,
          "midi": 57,
          "name": "A3",
          "ticks": 28200,
          "time": 98.60130000000001,
          "velocity": 0.6299212598425197
        },
        {
          "duration": 0.3356639999999942,
          "durationTicks": 96,
          "midi": 61,
          "name": "C#4",
          "ticks": 28200,
          "time": 98.60130000000001,
          "velocity": 0.6299212598425197
        },
        {
          "duration": 0.3356639999999942,
          "durationTicks": 96,
          "midi": 76,
          "name": "E5",
          "ticks": 28200,
          "time": 98.60130000000001,
          "velocity": 0.6299212598425197
        },
        {
          "duration": 0.3356639999999942,
          "durationTicks": 96,
          "midi": 52,
          "name": "E3",
          "ticks": 28200,
          "time": 98.60130000000001,
          "velocity": 0.6299212598425197
        },
        {
          "duration": 0.3356639999999942,
          "durationTicks": 96,
          "midi": 64,
          "name": "E4",
          "ticks": 28200,
          "time": 98.60130000000001,
          "velocity": 0.6299212598425197
        },
        {
          "duration": 0.3356639999999942,
          "durationTicks": 96,
          "midi": 69,
          "name": "A4",
          "ticks": 28200,
          "time": 98.60130000000001,
          "velocity": 0.6299212598425197
        },
        {
          "duration": 0.1678320000000042,
          "durationTicks": 48,
          "midi": 59,
          "name": "B3",
          "ticks": 28320,
          "time": 99.02088,
          "velocity": 0.6299212598425197
        },
        {
          "duration": 0.1678320000000042,
          "durationTicks": 48,
          "midi": 52,
          "name": "E3",
          "ticks": 28320,
          "time": 99.02088,
          "velocity": 0.6299212598425197
        },
        {
          "duration": 0.1678320000000042,
          "durationTicks": 48,
          "midi": 64,
          "name": "E4",
          "ticks": 28320,
          "time": 99.02088,
          "velocity": 0.6299212598425197
        },
        {
          "duration": 0.1678320000000042,
          "durationTicks": 48,
          "midi": 68,
          "name": "G#4",
          "ticks": 28320,
          "time": 99.02088,
          "velocity": 0.6299212598425197
        },
        {
          "duration": 0.1678320000000042,
          "durationTicks": 48,
          "midi": 71,
          "name": "B4",
          "ticks": 28320,
          "time": 99.02088,
          "velocity": 0.6299212598425197
        },
        {
          "duration": 0.1678320000000042,
          "durationTicks": 48,
          "midi": 76,
          "name": "E5",
          "ticks": 28320,
          "time": 99.02088,
          "velocity": 0.6299212598425197
        },
        {
          "duration": 0.3356640000000084,
          "durationTicks": 96,
          "midi": 64,
          "name": "E4",
          "ticks": 28380,
          "time": 99.23067,
          "velocity": 0.6299212598425197
        },
        {
          "duration": 0.3356640000000084,
          "durationTicks": 96,
          "midi": 68,
          "name": "G#4",
          "ticks": 28380,
          "time": 99.23067,
          "velocity": 0.6299212598425197
        },
        {
          "duration": 0.3356640000000084,
          "durationTicks": 96,
          "midi": 76,
          "name": "E5",
          "ticks": 28380,
          "time": 99.23067,
          "velocity": 0.6299212598425197
        },
        {
          "duration": 0.3356640000000084,
          "durationTicks": 96,
          "midi": 71,
          "name": "B4",
          "ticks": 28380,
          "time": 99.23067,
          "velocity": 0.6299212598425197
        },
        {
          "duration": 0.3356640000000084,
          "durationTicks": 96,
          "midi": 52,
          "name": "E3",
          "ticks": 28380,
          "time": 99.23067,
          "velocity": 0.6299212598425197
        },
        {
          "duration": 0.3356640000000084,
          "durationTicks": 96,
          "midi": 59,
          "name": "B3",
          "ticks": 28380,
          "time": 99.23067,
          "velocity": 0.6299212598425197
        },
        {
          "duration": 0.3356640000000084,
          "durationTicks": 96,
          "midi": 61,
          "name": "C#4",
          "ticks": 28500,
          "time": 99.65025,
          "velocity": 0.6299212598425197
        },
        {
          "duration": 0.3356640000000084,
          "durationTicks": 96,
          "midi": 52,
          "name": "E3",
          "ticks": 28500,
          "time": 99.65025,
          "velocity": 0.6299212598425197
        },
        {
          "duration": 0.3356640000000084,
          "durationTicks": 96,
          "midi": 64,
          "name": "E4",
          "ticks": 28500,
          "time": 99.65025,
          "velocity": 0.6299212598425197
        },
        {
          "duration": 0.3356640000000084,
          "durationTicks": 96,
          "midi": 76,
          "name": "E5",
          "ticks": 28500,
          "time": 99.65025,
          "velocity": 0.6299212598425197
        },
        {
          "duration": 0.3356640000000084,
          "durationTicks": 96,
          "midi": 69,
          "name": "A4",
          "ticks": 28500,
          "time": 99.65025,
          "velocity": 0.6299212598425197
        },
        {
          "duration": 0.3356640000000084,
          "durationTicks": 96,
          "midi": 57,
          "name": "A3",
          "ticks": 28500,
          "time": 99.65025,
          "velocity": 0.6299212598425197
        },
        {
          "duration": 0.1678320000000042,
          "durationTicks": 48,
          "midi": 57,
          "name": "A3",
          "ticks": 28620,
          "time": 100.06983,
          "velocity": 0.6299212598425197
        },
        {
          "duration": 0.1678320000000042,
          "durationTicks": 48,
          "midi": 64,
          "name": "E4",
          "ticks": 28620,
          "time": 100.06983,
          "velocity": 0.6299212598425197
        },
        {
          "duration": 0.1678320000000042,
          "durationTicks": 48,
          "midi": 76,
          "name": "E5",
          "ticks": 28620,
          "time": 100.06983,
          "velocity": 0.6299212598425197
        },
        {
          "duration": 0.1678320000000042,
          "durationTicks": 48,
          "midi": 61,
          "name": "C#4",
          "ticks": 28620,
          "time": 100.06983,
          "velocity": 0.6299212598425197
        },
        {
          "duration": 0.1678320000000042,
          "durationTicks": 48,
          "midi": 52,
          "name": "E3",
          "ticks": 28620,
          "time": 100.06983,
          "velocity": 0.6299212598425197
        },
        {
          "duration": 0.1678320000000042,
          "durationTicks": 48,
          "midi": 69,
          "name": "A4",
          "ticks": 28620,
          "time": 100.06983,
          "velocity": 0.6299212598425197
        },
        {
          "duration": 0.3356639999999942,
          "durationTicks": 96,
          "midi": 61,
          "name": "C#4",
          "ticks": 28680,
          "time": 100.27962000000001,
          "velocity": 0.6299212598425197
        },
        {
          "duration": 0.3356639999999942,
          "durationTicks": 96,
          "midi": 57,
          "name": "A3",
          "ticks": 28680,
          "time": 100.27962000000001,
          "velocity": 0.6299212598425197
        },
        {
          "duration": 0.3356639999999942,
          "durationTicks": 96,
          "midi": 52,
          "name": "E3",
          "ticks": 28680,
          "time": 100.27962000000001,
          "velocity": 0.6299212598425197
        },
        {
          "duration": 0.3356639999999942,
          "durationTicks": 96,
          "midi": 69,
          "name": "A4",
          "ticks": 28680,
          "time": 100.27962000000001,
          "velocity": 0.6299212598425197
        },
        {
          "duration": 0.3356639999999942,
          "durationTicks": 96,
          "midi": 64,
          "name": "E4",
          "ticks": 28680,
          "time": 100.27962000000001,
          "velocity": 0.6299212598425197
        },
        {
          "duration": 0.3356639999999942,
          "durationTicks": 96,
          "midi": 76,
          "name": "E5",
          "ticks": 28680,
          "time": 100.27962000000001,
          "velocity": 0.6299212598425197
        },
        {
          "duration": 0.3356640000000084,
          "durationTicks": 96,
          "midi": 59,
          "name": "B3",
          "ticks": 28800,
          "time": 100.6992,
          "velocity": 0.6299212598425197
        },
        {
          "duration": 0.3356640000000084,
          "durationTicks": 96,
          "midi": 71,
          "name": "B4",
          "ticks": 28800,
          "time": 100.6992,
          "velocity": 0.6299212598425197
        },
        {
          "duration": 0.3356640000000084,
          "durationTicks": 96,
          "midi": 52,
          "name": "E3",
          "ticks": 28800,
          "time": 100.6992,
          "velocity": 0.6299212598425197
        },
        {
          "duration": 0.3356640000000084,
          "durationTicks": 96,
          "midi": 64,
          "name": "E4",
          "ticks": 28800,
          "time": 100.6992,
          "velocity": 0.6299212598425197
        },
        {
          "duration": 0.3356640000000084,
          "durationTicks": 96,
          "midi": 68,
          "name": "G#4",
          "ticks": 28800,
          "time": 100.6992,
          "velocity": 0.6299212598425197
        },
        {
          "duration": 0.3356640000000084,
          "durationTicks": 96,
          "midi": 76,
          "name": "E5",
          "ticks": 28800,
          "time": 100.6992,
          "velocity": 0.6299212598425197
        },
        {
          "duration": 0.3356640000000084,
          "durationTicks": 96,
          "midi": 64,
          "name": "E4",
          "ticks": 28920,
          "time": 101.11878,
          "velocity": 0.6299212598425197
        },
        {
          "duration": 0.3356640000000084,
          "durationTicks": 96,
          "midi": 71,
          "name": "B4",
          "ticks": 28920,
          "time": 101.11878,
          "velocity": 0.6299212598425197
        },
        {
          "duration": 0.3356640000000084,
          "durationTicks": 96,
          "midi": 76,
          "name": "E5",
          "ticks": 28920,
          "time": 101.11878,
          "velocity": 0.6299212598425197
        },
        {
          "duration": 0.3356640000000084,
          "durationTicks": 96,
          "midi": 59,
          "name": "B3",
          "ticks": 28920,
          "time": 101.11878,
          "velocity": 0.6299212598425197
        },
        {
          "duration": 0.3356640000000084,
          "durationTicks": 96,
          "midi": 52,
          "name": "E3",
          "ticks": 28920,
          "time": 101.11878,
          "velocity": 0.6299212598425197
        },
        {
          "duration": 0.3356640000000084,
          "durationTicks": 96,
          "midi": 68,
          "name": "G#4",
          "ticks": 28920,
          "time": 101.11878,
          "velocity": 0.6299212598425197
        },
        {
          "duration": 0.3356640000000084,
          "durationTicks": 96,
          "midi": 76,
          "name": "E5",
          "ticks": 29040,
          "time": 101.53836,
          "velocity": 0.6299212598425197
        },
        {
          "duration": 0.3356640000000084,
          "durationTicks": 96,
          "midi": 69,
          "name": "A4",
          "ticks": 29040,
          "time": 101.53836,
          "velocity": 0.6299212598425197
        },
        {
          "duration": 0.3356640000000084,
          "durationTicks": 96,
          "midi": 57,
          "name": "A3",
          "ticks": 29040,
          "time": 101.53836,
          "velocity": 0.6299212598425197
        },
        {
          "duration": 0.3356640000000084,
          "durationTicks": 96,
          "midi": 64,
          "name": "E4",
          "ticks": 29040,
          "time": 101.53836,
          "velocity": 0.6299212598425197
        },
        {
          "duration": 0.3356640000000084,
          "durationTicks": 96,
          "midi": 52,
          "name": "E3",
          "ticks": 29040,
          "time": 101.53836,
          "velocity": 0.6299212598425197
        },
        {
          "duration": 0.3356640000000084,
          "durationTicks": 96,
          "midi": 61,
          "name": "C#4",
          "ticks": 29040,
          "time": 101.53836,
          "velocity": 0.6299212598425197
        },
        {
          "duration": 0.3356639999999942,
          "durationTicks": 96,
          "midi": 76,
          "name": "E5",
          "ticks": 29160,
          "time": 101.95794000000001,
          "velocity": 0.6299212598425197
        },
        {
          "duration": 0.3356639999999942,
          "durationTicks": 96,
          "midi": 64,
          "name": "E4",
          "ticks": 29160,
          "time": 101.95794000000001,
          "velocity": 0.6299212598425197
        },
        {
          "duration": 0.3356639999999942,
          "durationTicks": 96,
          "midi": 69,
          "name": "A4",
          "ticks": 29160,
          "time": 101.95794000000001,
          "velocity": 0.6299212598425197
        },
        {
          "duration": 0.3356639999999942,
          "durationTicks": 96,
          "midi": 61,
          "name": "C#4",
          "ticks": 29160,
          "time": 101.95794000000001,
          "velocity": 0.6299212598425197
        },
        {
          "duration": 0.3356639999999942,
          "durationTicks": 96,
          "midi": 52,
          "name": "E3",
          "ticks": 29160,
          "time": 101.95794000000001,
          "velocity": 0.6299212598425197
        },
        {
          "duration": 0.3356639999999942,
          "durationTicks": 96,
          "midi": 57,
          "name": "A3",
          "ticks": 29160,
          "time": 101.95794000000001,
          "velocity": 0.6299212598425197
        },
        {
          "duration": 0.1678320000000042,
          "durationTicks": 48,
          "midi": 59,
          "name": "B3",
          "ticks": 29280,
          "time": 102.37752,
          "velocity": 0.6299212598425197
        },
        {
          "duration": 0.1678320000000042,
          "durationTicks": 48,
          "midi": 64,
          "name": "E4",
          "ticks": 29280,
          "time": 102.37752,
          "velocity": 0.6299212598425197
        },
        {
          "duration": 0.1678320000000042,
          "durationTicks": 48,
          "midi": 52,
          "name": "E3",
          "ticks": 29280,
          "time": 102.37752,
          "velocity": 0.6299212598425197
        },
        {
          "duration": 0.1678320000000042,
          "durationTicks": 48,
          "midi": 68,
          "name": "G#4",
          "ticks": 29280,
          "time": 102.37752,
          "velocity": 0.6299212598425197
        },
        {
          "duration": 0.1678320000000042,
          "durationTicks": 48,
          "midi": 71,
          "name": "B4",
          "ticks": 29280,
          "time": 102.37752,
          "velocity": 0.6299212598425197
        },
        {
          "duration": 0.1678320000000042,
          "durationTicks": 48,
          "midi": 76,
          "name": "E5",
          "ticks": 29280,
          "time": 102.37752,
          "velocity": 0.6299212598425197
        },
        {
          "duration": 0.3356640000000084,
          "durationTicks": 96,
          "midi": 64,
          "name": "E4",
          "ticks": 29340,
          "time": 102.58731,
          "velocity": 0.6299212598425197
        },
        {
          "duration": 0.3356640000000084,
          "durationTicks": 96,
          "midi": 68,
          "name": "G#4",
          "ticks": 29340,
          "time": 102.58731,
          "velocity": 0.6299212598425197
        },
        {
          "duration": 0.3356640000000084,
          "durationTicks": 96,
          "midi": 76,
          "name": "E5",
          "ticks": 29340,
          "time": 102.58731,
          "velocity": 0.6299212598425197
        },
        {
          "duration": 0.3356640000000084,
          "durationTicks": 96,
          "midi": 71,
          "name": "B4",
          "ticks": 29340,
          "time": 102.58731,
          "velocity": 0.6299212598425197
        },
        {
          "duration": 0.3356640000000084,
          "durationTicks": 96,
          "midi": 52,
          "name": "E3",
          "ticks": 29340,
          "time": 102.58731,
          "velocity": 0.6299212598425197
        },
        {
          "duration": 0.3356640000000084,
          "durationTicks": 96,
          "midi": 59,
          "name": "B3",
          "ticks": 29340,
          "time": 102.58731,
          "velocity": 0.6299212598425197
        },
        {
          "duration": 0.3356640000000084,
          "durationTicks": 96,
          "midi": 61,
          "name": "C#4",
          "ticks": 29460,
          "time": 103.00689,
          "velocity": 0.6299212598425197
        },
        {
          "duration": 0.3356640000000084,
          "durationTicks": 96,
          "midi": 52,
          "name": "E3",
          "ticks": 29460,
          "time": 103.00689,
          "velocity": 0.6299212598425197
        },
        {
          "duration": 0.3356640000000084,
          "durationTicks": 96,
          "midi": 76,
          "name": "E5",
          "ticks": 29460,
          "time": 103.00689,
          "velocity": 0.6299212598425197
        },
        {
          "duration": 0.3356640000000084,
          "durationTicks": 96,
          "midi": 64,
          "name": "E4",
          "ticks": 29460,
          "time": 103.00689,
          "velocity": 0.6299212598425197
        },
        {
          "duration": 0.3356640000000084,
          "durationTicks": 96,
          "midi": 69,
          "name": "A4",
          "ticks": 29460,
          "time": 103.00689,
          "velocity": 0.6299212598425197
        },
        {
          "duration": 0.3356640000000084,
          "durationTicks": 96,
          "midi": 57,
          "name": "A3",
          "ticks": 29460,
          "time": 103.00689,
          "velocity": 0.6299212598425197
        },
        {
          "duration": 0.16783199999999,
          "durationTicks": 48,
          "midi": 61,
          "name": "C#4",
          "ticks": 29580,
          "time": 103.42647000000001,
          "velocity": 0.6299212598425197
        },
        {
          "duration": 0.16783199999999,
          "durationTicks": 48,
          "midi": 64,
          "name": "E4",
          "ticks": 29580,
          "time": 103.42647000000001,
          "velocity": 0.6299212598425197
        },
        {
          "duration": 0.16783199999999,
          "durationTicks": 48,
          "midi": 76,
          "name": "E5",
          "ticks": 29580,
          "time": 103.42647000000001,
          "velocity": 0.6299212598425197
        },
        {
          "duration": 0.16783199999999,
          "durationTicks": 48,
          "midi": 57,
          "name": "A3",
          "ticks": 29580,
          "time": 103.42647000000001,
          "velocity": 0.6299212598425197
        },
        {
          "duration": 0.16783199999999,
          "durationTicks": 48,
          "midi": 52,
          "name": "E3",
          "ticks": 29580,
          "time": 103.42647000000001,
          "velocity": 0.6299212598425197
        },
        {
          "duration": 0.16783199999999,
          "durationTicks": 48,
          "midi": 69,
          "name": "A4",
          "ticks": 29580,
          "time": 103.42647000000001,
          "velocity": 0.6299212598425197
        },
        {
          "duration": 0.3356639999999942,
          "durationTicks": 96,
          "midi": 61,
          "name": "C#4",
          "ticks": 29640,
          "time": 103.63626000000001,
          "velocity": 0.6299212598425197
        },
        {
          "duration": 0.3356639999999942,
          "durationTicks": 96,
          "midi": 64,
          "name": "E4",
          "ticks": 29640,
          "time": 103.63626000000001,
          "velocity": 0.6299212598425197
        },
        {
          "duration": 0.3356639999999942,
          "durationTicks": 96,
          "midi": 52,
          "name": "E3",
          "ticks": 29640,
          "time": 103.63626000000001,
          "velocity": 0.6299212598425197
        },
        {
          "duration": 0.3356639999999942,
          "durationTicks": 96,
          "midi": 76,
          "name": "E5",
          "ticks": 29640,
          "time": 103.63626000000001,
          "velocity": 0.6299212598425197
        },
        {
          "duration": 0.3356639999999942,
          "durationTicks": 96,
          "midi": 57,
          "name": "A3",
          "ticks": 29640,
          "time": 103.63626000000001,
          "velocity": 0.6299212598425197
        },
        {
          "duration": 0.3356639999999942,
          "durationTicks": 96,
          "midi": 69,
          "name": "A4",
          "ticks": 29640,
          "time": 103.63626000000001,
          "velocity": 0.6299212598425197
        },
        {
          "duration": 0.3356640000000084,
          "durationTicks": 96,
          "midi": 64,
          "name": "E4",
          "ticks": 29760,
          "time": 104.05584,
          "velocity": 0.6299212598425197
        },
        {
          "duration": 0.3356640000000084,
          "durationTicks": 96,
          "midi": 52,
          "name": "E3",
          "ticks": 29760,
          "time": 104.05584,
          "velocity": 0.6299212598425197
        },
        {
          "duration": 0.3356640000000084,
          "durationTicks": 96,
          "midi": 71,
          "name": "B4",
          "ticks": 29760,
          "time": 104.05584,
          "velocity": 0.6299212598425197
        },
        {
          "duration": 0.3356640000000084,
          "durationTicks": 96,
          "midi": 76,
          "name": "E5",
          "ticks": 29760,
          "time": 104.05584,
          "velocity": 0.6299212598425197
        },
        {
          "duration": 0.3356640000000084,
          "durationTicks": 96,
          "midi": 59,
          "name": "B3",
          "ticks": 29760,
          "time": 104.05584,
          "velocity": 0.6299212598425197
        },
        {
          "duration": 0.3356640000000084,
          "durationTicks": 96,
          "midi": 68,
          "name": "G#4",
          "ticks": 29760,
          "time": 104.05584,
          "velocity": 0.6299212598425197
        },
        {
          "duration": 0.3356640000000084,
          "durationTicks": 96,
          "midi": 59,
          "name": "B3",
          "ticks": 29880,
          "time": 104.47542,
          "velocity": 0.6299212598425197
        },
        {
          "duration": 0.3356640000000084,
          "durationTicks": 96,
          "midi": 64,
          "name": "E4",
          "ticks": 29880,
          "time": 104.47542,
          "velocity": 0.6299212598425197
        },
        {
          "duration": 0.3356640000000084,
          "durationTicks": 96,
          "midi": 52,
          "name": "E3",
          "ticks": 29880,
          "time": 104.47542,
          "velocity": 0.6299212598425197
        },
        {
          "duration": 0.3356640000000084,
          "durationTicks": 96,
          "midi": 68,
          "name": "G#4",
          "ticks": 29880,
          "time": 104.47542,
          "velocity": 0.6299212598425197
        },
        {
          "duration": 0.3356640000000084,
          "durationTicks": 96,
          "midi": 76,
          "name": "E5",
          "ticks": 29880,
          "time": 104.47542,
          "velocity": 0.6299212598425197
        },
        {
          "duration": 0.3356640000000084,
          "durationTicks": 96,
          "midi": 71,
          "name": "B4",
          "ticks": 29880,
          "time": 104.47542,
          "velocity": 0.6299212598425197
        },
        {
          "duration": 0.3356640000000084,
          "durationTicks": 96,
          "midi": 52,
          "name": "E3",
          "ticks": 30000,
          "time": 104.895,
          "velocity": 0.6299212598425197
        },
        {
          "duration": 0.3356640000000084,
          "durationTicks": 96,
          "midi": 57,
          "name": "A3",
          "ticks": 30000,
          "time": 104.895,
          "velocity": 0.6299212598425197
        },
        {
          "duration": 0.3356640000000084,
          "durationTicks": 96,
          "midi": 76,
          "name": "E5",
          "ticks": 30000,
          "time": 104.895,
          "velocity": 0.6299212598425197
        },
        {
          "duration": 0.3356640000000084,
          "durationTicks": 96,
          "midi": 69,
          "name": "A4",
          "ticks": 30000,
          "time": 104.895,
          "velocity": 0.6299212598425197
        },
        {
          "duration": 0.3356640000000084,
          "durationTicks": 96,
          "midi": 61,
          "name": "C#4",
          "ticks": 30000,
          "time": 104.895,
          "velocity": 0.6299212598425197
        },
        {
          "duration": 0.3356640000000084,
          "durationTicks": 96,
          "midi": 64,
          "name": "E4",
          "ticks": 30000,
          "time": 104.895,
          "velocity": 0.6299212598425197
        },
        {
          "duration": 0.3356639999999942,
          "durationTicks": 96,
          "midi": 69,
          "name": "A4",
          "ticks": 30120,
          "time": 105.31458,
          "velocity": 0.6299212598425197
        },
        {
          "duration": 0.3356639999999942,
          "durationTicks": 96,
          "midi": 61,
          "name": "C#4",
          "ticks": 30120,
          "time": 105.31458,
          "velocity": 0.6299212598425197
        },
        {
          "duration": 0.3356639999999942,
          "durationTicks": 96,
          "midi": 57,
          "name": "A3",
          "ticks": 30120,
          "time": 105.31458,
          "velocity": 0.6299212598425197
        },
        {
          "duration": 0.3356639999999942,
          "durationTicks": 96,
          "midi": 52,
          "name": "E3",
          "ticks": 30120,
          "time": 105.31458,
          "velocity": 0.6299212598425197
        },
        {
          "duration": 0.3356639999999942,
          "durationTicks": 96,
          "midi": 64,
          "name": "E4",
          "ticks": 30120,
          "time": 105.31458,
          "velocity": 0.6299212598425197
        },
        {
          "duration": 0.3356639999999942,
          "durationTicks": 96,
          "midi": 76,
          "name": "E5",
          "ticks": 30120,
          "time": 105.31458,
          "velocity": 0.6299212598425197
        },
        {
          "duration": 0.1678320000000042,
          "durationTicks": 48,
          "midi": 68,
          "name": "G#4",
          "ticks": 30240,
          "time": 105.73416,
          "velocity": 0.6299212598425197
        },
        {
          "duration": 0.1678320000000042,
          "durationTicks": 48,
          "midi": 71,
          "name": "B4",
          "ticks": 30240,
          "time": 105.73416,
          "velocity": 0.6299212598425197
        },
        {
          "duration": 0.1678320000000042,
          "durationTicks": 48,
          "midi": 76,
          "name": "E5",
          "ticks": 30240,
          "time": 105.73416,
          "velocity": 0.6299212598425197
        },
        {
          "duration": 0.1678320000000042,
          "durationTicks": 48,
          "midi": 64,
          "name": "E4",
          "ticks": 30240,
          "time": 105.73416,
          "velocity": 0.6299212598425197
        },
        {
          "duration": 0.1678320000000042,
          "durationTicks": 48,
          "midi": 52,
          "name": "E3",
          "ticks": 30240,
          "time": 105.73416,
          "velocity": 0.6299212598425197
        },
        {
          "duration": 0.1678320000000042,
          "durationTicks": 48,
          "midi": 59,
          "name": "B3",
          "ticks": 30240,
          "time": 105.73416,
          "velocity": 0.6299212598425197
        },
        {
          "duration": 0.3356640000000084,
          "durationTicks": 96,
          "midi": 76,
          "name": "E5",
          "ticks": 30300,
          "time": 105.94395,
          "velocity": 0.6299212598425197
        },
        {
          "duration": 0.3356640000000084,
          "durationTicks": 96,
          "midi": 52,
          "name": "E3",
          "ticks": 30300,
          "time": 105.94395,
          "velocity": 0.6299212598425197
        },
        {
          "duration": 0.3356640000000084,
          "durationTicks": 96,
          "midi": 71,
          "name": "B4",
          "ticks": 30300,
          "time": 105.94395,
          "velocity": 0.6299212598425197
        },
        {
          "duration": 0.3356640000000084,
          "durationTicks": 96,
          "midi": 68,
          "name": "G#4",
          "ticks": 30300,
          "time": 105.94395,
          "velocity": 0.6299212598425197
        },
        {
          "duration": 0.3356640000000084,
          "durationTicks": 96,
          "midi": 59,
          "name": "B3",
          "ticks": 30300,
          "time": 105.94395,
          "velocity": 0.6299212598425197
        },
        {
          "duration": 0.3356640000000084,
          "durationTicks": 96,
          "midi": 64,
          "name": "E4",
          "ticks": 30300,
          "time": 105.94395,
          "velocity": 0.6299212598425197
        },
        {
          "duration": 0.3356640000000084,
          "durationTicks": 96,
          "midi": 57,
          "name": "A3",
          "ticks": 30420,
          "time": 106.36353,
          "velocity": 0.6299212598425197
        },
        {
          "duration": 0.3356640000000084,
          "durationTicks": 96,
          "midi": 69,
          "name": "A4",
          "ticks": 30420,
          "time": 106.36353,
          "velocity": 0.6299212598425197
        },
        {
          "duration": 0.3356640000000084,
          "durationTicks": 96,
          "midi": 76,
          "name": "E5",
          "ticks": 30420,
          "time": 106.36353,
          "velocity": 0.6299212598425197
        },
        {
          "duration": 0.3356640000000084,
          "durationTicks": 96,
          "midi": 61,
          "name": "C#4",
          "ticks": 30420,
          "time": 106.36353,
          "velocity": 0.6299212598425197
        },
        {
          "duration": 0.3356640000000084,
          "durationTicks": 96,
          "midi": 64,
          "name": "E4",
          "ticks": 30420,
          "time": 106.36353,
          "velocity": 0.6299212598425197
        },
        {
          "duration": 0.3356640000000084,
          "durationTicks": 96,
          "midi": 52,
          "name": "E3",
          "ticks": 30420,
          "time": 106.36353,
          "velocity": 0.6299212598425197
        },
        {
          "duration": 0.16783199999999,
          "durationTicks": 48,
          "midi": 64,
          "name": "E4",
          "ticks": 30540,
          "time": 106.78311000000001,
          "velocity": 0.6299212598425197
        },
        {
          "duration": 0.16783199999999,
          "durationTicks": 48,
          "midi": 61,
          "name": "C#4",
          "ticks": 30540,
          "time": 106.78311000000001,
          "velocity": 0.6299212598425197
        },
        {
          "duration": 0.16783199999999,
          "durationTicks": 48,
          "midi": 76,
          "name": "E5",
          "ticks": 30540,
          "time": 106.78311000000001,
          "velocity": 0.6299212598425197
        },
        {
          "duration": 0.16783199999999,
          "durationTicks": 48,
          "midi": 69,
          "name": "A4",
          "ticks": 30540,
          "time": 106.78311000000001,
          "velocity": 0.6299212598425197
        },
        {
          "duration": 0.16783199999999,
          "durationTicks": 48,
          "midi": 57,
          "name": "A3",
          "ticks": 30540,
          "time": 106.78311000000001,
          "velocity": 0.6299212598425197
        },
        {
          "duration": 0.16783199999999,
          "durationTicks": 48,
          "midi": 52,
          "name": "E3",
          "ticks": 30540,
          "time": 106.78311000000001,
          "velocity": 0.6299212598425197
        },
        {
          "duration": 0.3356639999999942,
          "durationTicks": 96,
          "midi": 69,
          "name": "A4",
          "ticks": 30600,
          "time": 106.9929,
          "velocity": 0.6299212598425197
        },
        {
          "duration": 0.3356639999999942,
          "durationTicks": 96,
          "midi": 64,
          "name": "E4",
          "ticks": 30600,
          "time": 106.9929,
          "velocity": 0.6299212598425197
        },
        {
          "duration": 0.3356639999999942,
          "durationTicks": 96,
          "midi": 52,
          "name": "E3",
          "ticks": 30600,
          "time": 106.9929,
          "velocity": 0.6299212598425197
        },
        {
          "duration": 0.3356639999999942,
          "durationTicks": 96,
          "midi": 57,
          "name": "A3",
          "ticks": 30600,
          "time": 106.9929,
          "velocity": 0.6299212598425197
        },
        {
          "duration": 0.3356639999999942,
          "durationTicks": 96,
          "midi": 61,
          "name": "C#4",
          "ticks": 30600,
          "time": 106.9929,
          "velocity": 0.6299212598425197
        },
        {
          "duration": 0.3356639999999942,
          "durationTicks": 96,
          "midi": 76,
          "name": "E5",
          "ticks": 30600,
          "time": 106.9929,
          "velocity": 0.6299212598425197
        },
        {
          "duration": 0.3356640000000084,
          "durationTicks": 96,
          "midi": 59,
          "name": "B3",
          "ticks": 30720,
          "time": 107.41248,
          "velocity": 0.6299212598425197
        },
        {
          "duration": 0.3356640000000084,
          "durationTicks": 96,
          "midi": 76,
          "name": "E5",
          "ticks": 30720,
          "time": 107.41248,
          "velocity": 0.6299212598425197
        },
        {
          "duration": 0.3356640000000084,
          "durationTicks": 96,
          "midi": 52,
          "name": "E3",
          "ticks": 30720,
          "time": 107.41248,
          "velocity": 0.6299212598425197
        },
        {
          "duration": 0.3356640000000084,
          "durationTicks": 96,
          "midi": 64,
          "name": "E4",
          "ticks": 30720,
          "time": 107.41248,
          "velocity": 0.6299212598425197
        },
        {
          "duration": 0.3356640000000084,
          "durationTicks": 96,
          "midi": 71,
          "name": "B4",
          "ticks": 30720,
          "time": 107.41248,
          "velocity": 0.6299212598425197
        },
        {
          "duration": 0.3356640000000084,
          "durationTicks": 96,
          "midi": 68,
          "name": "G#4",
          "ticks": 30720,
          "time": 107.41248,
          "velocity": 0.6299212598425197
        },
        {
          "duration": 0.3356640000000084,
          "durationTicks": 96,
          "midi": 59,
          "name": "B3",
          "ticks": 30840,
          "time": 107.83206,
          "velocity": 0.6299212598425197
        },
        {
          "duration": 0.3356640000000084,
          "durationTicks": 96,
          "midi": 71,
          "name": "B4",
          "ticks": 30840,
          "time": 107.83206,
          "velocity": 0.6299212598425197
        },
        {
          "duration": 0.3356640000000084,
          "durationTicks": 96,
          "midi": 64,
          "name": "E4",
          "ticks": 30840,
          "time": 107.83206,
          "velocity": 0.6299212598425197
        },
        {
          "duration": 0.3356640000000084,
          "durationTicks": 96,
          "midi": 68,
          "name": "G#4",
          "ticks": 30840,
          "time": 107.83206,
          "velocity": 0.6299212598425197
        },
        {
          "duration": 0.3356640000000084,
          "durationTicks": 96,
          "midi": 76,
          "name": "E5",
          "ticks": 30840,
          "time": 107.83206,
          "velocity": 0.6299212598425197
        },
        {
          "duration": 0.3356640000000084,
          "durationTicks": 96,
          "midi": 52,
          "name": "E3",
          "ticks": 30840,
          "time": 107.83206,
          "velocity": 0.6299212598425197
        },
        {
          "duration": 0.3356639999999942,
          "durationTicks": 96,
          "midi": 57,
          "name": "A3",
          "ticks": 30960,
          "time": 108.25164000000001,
          "velocity": 0.6299212598425197
        },
        {
          "duration": 0.3356639999999942,
          "durationTicks": 96,
          "midi": 52,
          "name": "E3",
          "ticks": 30960,
          "time": 108.25164000000001,
          "velocity": 0.6299212598425197
        },
        {
          "duration": 0.3356639999999942,
          "durationTicks": 96,
          "midi": 64,
          "name": "E4",
          "ticks": 30960,
          "time": 108.25164000000001,
          "velocity": 0.6299212598425197
        },
        {
          "duration": 0.3356639999999942,
          "durationTicks": 96,
          "midi": 61,
          "name": "C#4",
          "ticks": 30960,
          "time": 108.25164000000001,
          "velocity": 0.6299212598425197
        },
        {
          "duration": 0.3356639999999942,
          "durationTicks": 96,
          "midi": 69,
          "name": "A4",
          "ticks": 30960,
          "time": 108.25164000000001,
          "velocity": 0.6299212598425197
        },
        {
          "duration": 0.3356639999999942,
          "durationTicks": 96,
          "midi": 76,
          "name": "E5",
          "ticks": 30960,
          "time": 108.25164000000001,
          "velocity": 0.6299212598425197
        },
        {
          "duration": 0.3356640000000084,
          "durationTicks": 96,
          "midi": 52,
          "name": "E3",
          "ticks": 31080,
          "time": 108.67122,
          "velocity": 0.6299212598425197
        },
        {
          "duration": 0.3356640000000084,
          "durationTicks": 96,
          "midi": 76,
          "name": "E5",
          "ticks": 31080,
          "time": 108.67122,
          "velocity": 0.6299212598425197
        },
        {
          "duration": 0.3356640000000084,
          "durationTicks": 96,
          "midi": 64,
          "name": "E4",
          "ticks": 31080,
          "time": 108.67122,
          "velocity": 0.6299212598425197
        },
        {
          "duration": 0.3356640000000084,
          "durationTicks": 96,
          "midi": 57,
          "name": "A3",
          "ticks": 31080,
          "time": 108.67122,
          "velocity": 0.6299212598425197
        },
        {
          "duration": 0.3356640000000084,
          "durationTicks": 96,
          "midi": 69,
          "name": "A4",
          "ticks": 31080,
          "time": 108.67122,
          "velocity": 0.6299212598425197
        },
        {
          "duration": 0.3356640000000084,
          "durationTicks": 96,
          "midi": 61,
          "name": "C#4",
          "ticks": 31080,
          "time": 108.67122,
          "velocity": 0.6299212598425197
        },
        {
          "duration": 0.16783199999999,
          "durationTicks": 48,
          "midi": 64,
          "name": "E4",
          "ticks": 31200,
          "time": 109.0908,
          "velocity": 0.6299212598425197
        },
        {
          "duration": 0.16783199999999,
          "durationTicks": 48,
          "midi": 59,
          "name": "B3",
          "ticks": 31200,
          "time": 109.0908,
          "velocity": 0.6299212598425197
        },
        {
          "duration": 0.16783199999999,
          "durationTicks": 48,
          "midi": 52,
          "name": "E3",
          "ticks": 31200,
          "time": 109.0908,
          "velocity": 0.6299212598425197
        },
        {
          "duration": 0.16783199999999,
          "durationTicks": 48,
          "midi": 68,
          "name": "G#4",
          "ticks": 31200,
          "time": 109.0908,
          "velocity": 0.6299212598425197
        },
        {
          "duration": 0.16783199999999,
          "durationTicks": 48,
          "midi": 71,
          "name": "B4",
          "ticks": 31200,
          "time": 109.0908,
          "velocity": 0.6299212598425197
        },
        {
          "duration": 0.16783199999999,
          "durationTicks": 48,
          "midi": 76,
          "name": "E5",
          "ticks": 31200,
          "time": 109.0908,
          "velocity": 0.6299212598425197
        },
        {
          "duration": 0.3356640000000084,
          "durationTicks": 96,
          "midi": 64,
          "name": "E4",
          "ticks": 31260,
          "time": 109.30059,
          "velocity": 0.6299212598425197
        },
        {
          "duration": 0.3356640000000084,
          "durationTicks": 96,
          "midi": 52,
          "name": "E3",
          "ticks": 31260,
          "time": 109.30059,
          "velocity": 0.6299212598425197
        },
        {
          "duration": 0.3356640000000084,
          "durationTicks": 96,
          "midi": 59,
          "name": "B3",
          "ticks": 31260,
          "time": 109.30059,
          "velocity": 0.6299212598425197
        },
        {
          "duration": 0.3356640000000084,
          "durationTicks": 96,
          "midi": 71,
          "name": "B4",
          "ticks": 31260,
          "time": 109.30059,
          "velocity": 0.6299212598425197
        },
        {
          "duration": 0.3356640000000084,
          "durationTicks": 96,
          "midi": 76,
          "name": "E5",
          "ticks": 31260,
          "time": 109.30059,
          "velocity": 0.6299212598425197
        },
        {
          "duration": 0.3356640000000084,
          "durationTicks": 96,
          "midi": 68,
          "name": "G#4",
          "ticks": 31260,
          "time": 109.30059,
          "velocity": 0.6299212598425197
        },
        {
          "duration": 0.3356640000000084,
          "durationTicks": 96,
          "midi": 76,
          "name": "E5",
          "ticks": 31380,
          "time": 109.72017,
          "velocity": 0.6299212598425197
        },
        {
          "duration": 0.3356640000000084,
          "durationTicks": 96,
          "midi": 52,
          "name": "E3",
          "ticks": 31380,
          "time": 109.72017,
          "velocity": 0.6299212598425197
        },
        {
          "duration": 0.3356640000000084,
          "durationTicks": 96,
          "midi": 69,
          "name": "A4",
          "ticks": 31380,
          "time": 109.72017,
          "velocity": 0.6299212598425197
        },
        {
          "duration": 0.3356640000000084,
          "durationTicks": 96,
          "midi": 61,
          "name": "C#4",
          "ticks": 31380,
          "time": 109.72017,
          "velocity": 0.6299212598425197
        },
        {
          "duration": 0.3356640000000084,
          "durationTicks": 96,
          "midi": 57,
          "name": "A3",
          "ticks": 31380,
          "time": 109.72017,
          "velocity": 0.6299212598425197
        },
        {
          "duration": 0.3356640000000084,
          "durationTicks": 96,
          "midi": 64,
          "name": "E4",
          "ticks": 31380,
          "time": 109.72017,
          "velocity": 0.6299212598425197
        },
        {
          "duration": 0.16783199999999,
          "durationTicks": 48,
          "midi": 69,
          "name": "A4",
          "ticks": 31500,
          "time": 110.13975,
          "velocity": 0.6299212598425197
        },
        {
          "duration": 0.16783199999999,
          "durationTicks": 48,
          "midi": 76,
          "name": "E5",
          "ticks": 31500,
          "time": 110.13975,
          "velocity": 0.6299212598425197
        },
        {
          "duration": 0.16783199999999,
          "durationTicks": 48,
          "midi": 61,
          "name": "C#4",
          "ticks": 31500,
          "time": 110.13975,
          "velocity": 0.6299212598425197
        },
        {
          "duration": 0.16783199999999,
          "durationTicks": 48,
          "midi": 52,
          "name": "E3",
          "ticks": 31500,
          "time": 110.13975,
          "velocity": 0.6299212598425197
        },
        {
          "duration": 0.16783199999999,
          "durationTicks": 48,
          "midi": 57,
          "name": "A3",
          "ticks": 31500,
          "time": 110.13975,
          "velocity": 0.6299212598425197
        },
        {
          "duration": 0.16783199999999,
          "durationTicks": 48,
          "midi": 64,
          "name": "E4",
          "ticks": 31500,
          "time": 110.13975,
          "velocity": 0.6299212598425197
        },
        {
          "duration": 0.3356640000000084,
          "durationTicks": 96,
          "midi": 57,
          "name": "A3",
          "ticks": 31560,
          "time": 110.34954,
          "velocity": 0.6299212598425197
        },
        {
          "duration": 0.3356640000000084,
          "durationTicks": 96,
          "midi": 52,
          "name": "E3",
          "ticks": 31560,
          "time": 110.34954,
          "velocity": 0.6299212598425197
        },
        {
          "duration": 0.3356640000000084,
          "durationTicks": 96,
          "midi": 61,
          "name": "C#4",
          "ticks": 31560,
          "time": 110.34954,
          "velocity": 0.6299212598425197
        },
        {
          "duration": 0.3356640000000084,
          "durationTicks": 96,
          "midi": 76,
          "name": "E5",
          "ticks": 31560,
          "time": 110.34954,
          "velocity": 0.6299212598425197
        },
        {
          "duration": 0.3356640000000084,
          "durationTicks": 96,
          "midi": 64,
          "name": "E4",
          "ticks": 31560,
          "time": 110.34954,
          "velocity": 0.6299212598425197
        },
        {
          "duration": 0.3356640000000084,
          "durationTicks": 96,
          "midi": 69,
          "name": "A4",
          "ticks": 31560,
          "time": 110.34954,
          "velocity": 0.6299212598425197
        },
        {
          "duration": 0.3356640000000084,
          "durationTicks": 96,
          "midi": 68,
          "name": "G#4",
          "ticks": 31680,
          "time": 110.76912,
          "velocity": 0.6299212598425197
        },
        {
          "duration": 0.3356640000000084,
          "durationTicks": 96,
          "midi": 52,
          "name": "E3",
          "ticks": 31680,
          "time": 110.76912,
          "velocity": 0.6299212598425197
        },
        {
          "duration": 0.3356640000000084,
          "durationTicks": 96,
          "midi": 59,
          "name": "B3",
          "ticks": 31680,
          "time": 110.76912,
          "velocity": 0.6299212598425197
        },
        {
          "duration": 0.3356640000000084,
          "durationTicks": 96,
          "midi": 71,
          "name": "B4",
          "ticks": 31680,
          "time": 110.76912,
          "velocity": 0.6299212598425197
        },
        {
          "duration": 0.3356640000000084,
          "durationTicks": 96,
          "midi": 76,
          "name": "E5",
          "ticks": 31680,
          "time": 110.76912,
          "velocity": 0.6299212598425197
        },
        {
          "duration": 0.3356640000000084,
          "durationTicks": 96,
          "midi": 64,
          "name": "E4",
          "ticks": 31680,
          "time": 110.76912,
          "velocity": 0.6299212598425197
        },
        {
          "duration": 0.3356640000000084,
          "durationTicks": 96,
          "midi": 71,
          "name": "B4",
          "ticks": 31800,
          "time": 111.1887,
          "velocity": 0.6299212598425197
        },
        {
          "duration": 0.3356640000000084,
          "durationTicks": 96,
          "midi": 52,
          "name": "E3",
          "ticks": 31800,
          "time": 111.1887,
          "velocity": 0.6299212598425197
        },
        {
          "duration": 0.3356640000000084,
          "durationTicks": 96,
          "midi": 64,
          "name": "E4",
          "ticks": 31800,
          "time": 111.1887,
          "velocity": 0.6299212598425197
        },
        {
          "duration": 0.3356640000000084,
          "durationTicks": 96,
          "midi": 59,
          "name": "B3",
          "ticks": 31800,
          "time": 111.1887,
          "velocity": 0.6299212598425197
        },
        {
          "duration": 0.3356640000000084,
          "durationTicks": 96,
          "midi": 68,
          "name": "G#4",
          "ticks": 31800,
          "time": 111.1887,
          "velocity": 0.6299212598425197
        },
        {
          "duration": 0.3356640000000084,
          "durationTicks": 96,
          "midi": 76,
          "name": "E5",
          "ticks": 31800,
          "time": 111.1887,
          "velocity": 0.6299212598425197
        },
        {
          "duration": 0.3356639999999942,
          "durationTicks": 96,
          "midi": 69,
          "name": "A4",
          "ticks": 31920,
          "time": 111.60828000000001,
          "velocity": 0.6299212598425197
        },
        {
          "duration": 0.3356639999999942,
          "durationTicks": 96,
          "midi": 64,
          "name": "E4",
          "ticks": 31920,
          "time": 111.60828000000001,
          "velocity": 0.6299212598425197
        },
        {
          "duration": 0.3356639999999942,
          "durationTicks": 96,
          "midi": 76,
          "name": "E5",
          "ticks": 31920,
          "time": 111.60828000000001,
          "velocity": 0.6299212598425197
        },
        {
          "duration": 0.3356639999999942,
          "durationTicks": 96,
          "midi": 61,
          "name": "C#4",
          "ticks": 31920,
          "time": 111.60828000000001,
          "velocity": 0.6299212598425197
        },
        {
          "duration": 0.3356639999999942,
          "durationTicks": 96,
          "midi": 52,
          "name": "E3",
          "ticks": 31920,
          "time": 111.60828000000001,
          "velocity": 0.6299212598425197
        },
        {
          "duration": 0.3356639999999942,
          "durationTicks": 96,
          "midi": 57,
          "name": "A3",
          "ticks": 31920,
          "time": 111.60828000000001,
          "velocity": 0.6299212598425197
        },
        {
          "duration": 0.3356640000000084,
          "durationTicks": 96,
          "midi": 64,
          "name": "E4",
          "ticks": 32040,
          "time": 112.02786,
          "velocity": 0.6299212598425197
        },
        {
          "duration": 0.3356640000000084,
          "durationTicks": 96,
          "midi": 76,
          "name": "E5",
          "ticks": 32040,
          "time": 112.02786,
          "velocity": 0.6299212598425197
        },
        {
          "duration": 0.3356640000000084,
          "durationTicks": 96,
          "midi": 52,
          "name": "E3",
          "ticks": 32040,
          "time": 112.02786,
          "velocity": 0.6299212598425197
        },
        {
          "duration": 0.3356640000000084,
          "durationTicks": 96,
          "midi": 57,
          "name": "A3",
          "ticks": 32040,
          "time": 112.02786,
          "velocity": 0.6299212598425197
        },
        {
          "duration": 0.3356640000000084,
          "durationTicks": 96,
          "midi": 69,
          "name": "A4",
          "ticks": 32040,
          "time": 112.02786,
          "velocity": 0.6299212598425197
        },
        {
          "duration": 0.3356640000000084,
          "durationTicks": 96,
          "midi": 61,
          "name": "C#4",
          "ticks": 32040,
          "time": 112.02786,
          "velocity": 0.6299212598425197
        },
        {
          "duration": 0.16783199999999,
          "durationTicks": 48,
          "midi": 76,
          "name": "E5",
          "ticks": 32160,
          "time": 112.44744,
          "velocity": 0.6299212598425197
        },
        {
          "duration": 0.16783199999999,
          "durationTicks": 48,
          "midi": 64,
          "name": "E4",
          "ticks": 32160,
          "time": 112.44744,
          "velocity": 0.6299212598425197
        },
        {
          "duration": 0.16783199999999,
          "durationTicks": 48,
          "midi": 59,
          "name": "B3",
          "ticks": 32160,
          "time": 112.44744,
          "velocity": 0.6299212598425197
        },
        {
          "duration": 0.16783199999999,
          "durationTicks": 48,
          "midi": 52,
          "name": "E3",
          "ticks": 32160,
          "time": 112.44744,
          "velocity": 0.6299212598425197
        },
        {
          "duration": 0.16783199999999,
          "durationTicks": 48,
          "midi": 68,
          "name": "G#4",
          "ticks": 32160,
          "time": 112.44744,
          "velocity": 0.6299212598425197
        },
        {
          "duration": 0.16783199999999,
          "durationTicks": 48,
          "midi": 71,
          "name": "B4",
          "ticks": 32160,
          "time": 112.44744,
          "velocity": 0.6299212598425197
        },
        {
          "duration": 0.3356640000000084,
          "durationTicks": 96,
          "midi": 68,
          "name": "G#4",
          "ticks": 32220,
          "time": 112.65723,
          "velocity": 0.6299212598425197
        },
        {
          "duration": 0.3356640000000084,
          "durationTicks": 96,
          "midi": 71,
          "name": "B4",
          "ticks": 32220,
          "time": 112.65723,
          "velocity": 0.6299212598425197
        },
        {
          "duration": 0.3356640000000084,
          "durationTicks": 96,
          "midi": 64,
          "name": "E4",
          "ticks": 32220,
          "time": 112.65723,
          "velocity": 0.6299212598425197
        },
        {
          "duration": 0.3356640000000084,
          "durationTicks": 96,
          "midi": 76,
          "name": "E5",
          "ticks": 32220,
          "time": 112.65723,
          "velocity": 0.6299212598425197
        },
        {
          "duration": 0.3356640000000084,
          "durationTicks": 96,
          "midi": 59,
          "name": "B3",
          "ticks": 32220,
          "time": 112.65723,
          "velocity": 0.6299212598425197
        },
        {
          "duration": 0.3356640000000084,
          "durationTicks": 96,
          "midi": 52,
          "name": "E3",
          "ticks": 32220,
          "time": 112.65723,
          "velocity": 0.6299212598425197
        },
        {
          "duration": 0.3356639999999942,
          "durationTicks": 96,
          "midi": 76,
          "name": "E5",
          "ticks": 32340,
          "time": 113.07681000000001,
          "velocity": 0.6299212598425197
        },
        {
          "duration": 0.3356639999999942,
          "durationTicks": 96,
          "midi": 64,
          "name": "E4",
          "ticks": 32340,
          "time": 113.07681000000001,
          "velocity": 0.6299212598425197
        },
        {
          "duration": 0.3356639999999942,
          "durationTicks": 96,
          "midi": 52,
          "name": "E3",
          "ticks": 32340,
          "time": 113.07681000000001,
          "velocity": 0.6299212598425197
        },
        {
          "duration": 0.3356639999999942,
          "durationTicks": 96,
          "midi": 69,
          "name": "A4",
          "ticks": 32340,
          "time": 113.07681000000001,
          "velocity": 0.6299212598425197
        },
        {
          "duration": 0.3356639999999942,
          "durationTicks": 96,
          "midi": 61,
          "name": "C#4",
          "ticks": 32340,
          "time": 113.07681000000001,
          "velocity": 0.6299212598425197
        },
        {
          "duration": 0.3356639999999942,
          "durationTicks": 96,
          "midi": 57,
          "name": "A3",
          "ticks": 32340,
          "time": 113.07681000000001,
          "velocity": 0.6299212598425197
        },
        {
          "duration": 0.16783199999999,
          "durationTicks": 48,
          "midi": 61,
          "name": "C#4",
          "ticks": 32460,
          "time": 113.49639,
          "velocity": 0.6299212598425197
        },
        {
          "duration": 0.16783199999999,
          "durationTicks": 48,
          "midi": 76,
          "name": "E5",
          "ticks": 32460,
          "time": 113.49639,
          "velocity": 0.6299212598425197
        },
        {
          "duration": 0.16783199999999,
          "durationTicks": 48,
          "midi": 57,
          "name": "A3",
          "ticks": 32460,
          "time": 113.49639,
          "velocity": 0.6299212598425197
        },
        {
          "duration": 0.16783199999999,
          "durationTicks": 48,
          "midi": 52,
          "name": "E3",
          "ticks": 32460,
          "time": 113.49639,
          "velocity": 0.6299212598425197
        },
        {
          "duration": 0.16783199999999,
          "durationTicks": 48,
          "midi": 64,
          "name": "E4",
          "ticks": 32460,
          "time": 113.49639,
          "velocity": 0.6299212598425197
        },
        {
          "duration": 0.16783199999999,
          "durationTicks": 48,
          "midi": 69,
          "name": "A4",
          "ticks": 32460,
          "time": 113.49639,
          "velocity": 0.6299212598425197
        },
        {
          "duration": 0.3356640000000084,
          "durationTicks": 96,
          "midi": 57,
          "name": "A3",
          "ticks": 32520,
          "time": 113.70618,
          "velocity": 0.6299212598425197
        },
        {
          "duration": 0.3356640000000084,
          "durationTicks": 96,
          "midi": 61,
          "name": "C#4",
          "ticks": 32520,
          "time": 113.70618,
          "velocity": 0.6299212598425197
        },
        {
          "duration": 0.3356640000000084,
          "durationTicks": 96,
          "midi": 69,
          "name": "A4",
          "ticks": 32520,
          "time": 113.70618,
          "velocity": 0.6299212598425197
        },
        {
          "duration": 0.3356640000000084,
          "durationTicks": 96,
          "midi": 64,
          "name": "E4",
          "ticks": 32520,
          "time": 113.70618,
          "velocity": 0.6299212598425197
        },
        {
          "duration": 0.3356640000000084,
          "durationTicks": 96,
          "midi": 52,
          "name": "E3",
          "ticks": 32520,
          "time": 113.70618,
          "velocity": 0.6299212598425197
        },
        {
          "duration": 0.3356640000000084,
          "durationTicks": 96,
          "midi": 76,
          "name": "E5",
          "ticks": 32520,
          "time": 113.70618,
          "velocity": 0.6299212598425197
        },
        {
          "duration": 0.3356640000000084,
          "durationTicks": 96,
          "midi": 52,
          "name": "E3",
          "ticks": 32640,
          "time": 114.12576,
          "velocity": 0.6299212598425197
        },
        {
          "duration": 0.3356640000000084,
          "durationTicks": 96,
          "midi": 64,
          "name": "E4",
          "ticks": 32640,
          "time": 114.12576,
          "velocity": 0.6299212598425197
        },
        {
          "duration": 0.3356640000000084,
          "durationTicks": 96,
          "midi": 76,
          "name": "E5",
          "ticks": 32640,
          "time": 114.12576,
          "velocity": 0.6299212598425197
        },
        {
          "duration": 0.3356640000000084,
          "durationTicks": 96,
          "midi": 59,
          "name": "B3",
          "ticks": 32640,
          "time": 114.12576,
          "velocity": 0.6299212598425197
        },
        {
          "duration": 0.3356640000000084,
          "durationTicks": 96,
          "midi": 68,
          "name": "G#4",
          "ticks": 32640,
          "time": 114.12576,
          "velocity": 0.6299212598425197
        },
        {
          "duration": 0.3356640000000084,
          "durationTicks": 96,
          "midi": 71,
          "name": "B4",
          "ticks": 32640,
          "time": 114.12576,
          "velocity": 0.6299212598425197
        },
        {
          "duration": 0.3356640000000084,
          "durationTicks": 96,
          "midi": 59,
          "name": "B3",
          "ticks": 32760,
          "time": 114.54534,
          "velocity": 0.6299212598425197
        },
        {
          "duration": 0.3356640000000084,
          "durationTicks": 96,
          "midi": 71,
          "name": "B4",
          "ticks": 32760,
          "time": 114.54534,
          "velocity": 0.6299212598425197
        },
        {
          "duration": 0.3356640000000084,
          "durationTicks": 96,
          "midi": 64,
          "name": "E4",
          "ticks": 32760,
          "time": 114.54534,
          "velocity": 0.6299212598425197
        },
        {
          "duration": 0.3356640000000084,
          "durationTicks": 96,
          "midi": 68,
          "name": "G#4",
          "ticks": 32760,
          "time": 114.54534,
          "velocity": 0.6299212598425197
        },
        {
          "duration": 0.3356640000000084,
          "durationTicks": 96,
          "midi": 76,
          "name": "E5",
          "ticks": 32760,
          "time": 114.54534,
          "velocity": 0.6299212598425197
        },
        {
          "duration": 0.3356640000000084,
          "durationTicks": 96,
          "midi": 52,
          "name": "E3",
          "ticks": 32760,
          "time": 114.54534,
          "velocity": 0.6299212598425197
        },
        {
          "duration": 0.3356639999999942,
          "durationTicks": 96,
          "midi": 52,
          "name": "E3",
          "ticks": 32880,
          "time": 114.96492,
          "velocity": 0.6299212598425197
        },
        {
          "duration": 0.3356639999999942,
          "durationTicks": 96,
          "midi": 64,
          "name": "E4",
          "ticks": 32880,
          "time": 114.96492,
          "velocity": 0.6299212598425197
        },
        {
          "duration": 0.3356639999999942,
          "durationTicks": 96,
          "midi": 61,
          "name": "C#4",
          "ticks": 32880,
          "time": 114.96492,
          "velocity": 0.6299212598425197
        },
        {
          "duration": 0.3356639999999942,
          "durationTicks": 96,
          "midi": 69,
          "name": "A4",
          "ticks": 32880,
          "time": 114.96492,
          "velocity": 0.6299212598425197
        },
        {
          "duration": 0.3356639999999942,
          "durationTicks": 96,
          "midi": 76,
          "name": "E5",
          "ticks": 32880,
          "time": 114.96492,
          "velocity": 0.6299212598425197
        },
        {
          "duration": 0.3356639999999942,
          "durationTicks": 96,
          "midi": 57,
          "name": "A3",
          "ticks": 32880,
          "time": 114.96492,
          "velocity": 0.6299212598425197
        },
        {
          "duration": 0.3356640000000084,
          "durationTicks": 96,
          "midi": 57,
          "name": "A3",
          "ticks": 33000,
          "time": 115.3845,
          "velocity": 0.6299212598425197
        },
        {
          "duration": 0.3356640000000084,
          "durationTicks": 96,
          "midi": 76,
          "name": "E5",
          "ticks": 33000,
          "time": 115.3845,
          "velocity": 0.6299212598425197
        },
        {
          "duration": 0.3356640000000084,
          "durationTicks": 96,
          "midi": 64,
          "name": "E4",
          "ticks": 33000,
          "time": 115.3845,
          "velocity": 0.6299212598425197
        },
        {
          "duration": 0.3356640000000084,
          "durationTicks": 96,
          "midi": 69,
          "name": "A4",
          "ticks": 33000,
          "time": 115.3845,
          "velocity": 0.6299212598425197
        },
        {
          "duration": 0.3356640000000084,
          "durationTicks": 96,
          "midi": 61,
          "name": "C#4",
          "ticks": 33000,
          "time": 115.3845,
          "velocity": 0.6299212598425197
        },
        {
          "duration": 0.3356640000000084,
          "durationTicks": 96,
          "midi": 52,
          "name": "E3",
          "ticks": 33000,
          "time": 115.3845,
          "velocity": 0.6299212598425197
        },
        {
          "duration": 0.16783199999999,
          "durationTicks": 48,
          "midi": 76,
          "name": "E5",
          "ticks": 33120,
          "time": 115.80408,
          "velocity": 0.6299212598425197
        },
        {
          "duration": 0.16783199999999,
          "durationTicks": 48,
          "midi": 52,
          "name": "E3",
          "ticks": 33120,
          "time": 115.80408,
          "velocity": 0.6299212598425197
        },
        {
          "duration": 0.16783199999999,
          "durationTicks": 48,
          "midi": 64,
          "name": "E4",
          "ticks": 33120,
          "time": 115.80408,
          "velocity": 0.6299212598425197
        },
        {
          "duration": 0.16783199999999,
          "durationTicks": 48,
          "midi": 59,
          "name": "B3",
          "ticks": 33120,
          "time": 115.80408,
          "velocity": 0.6299212598425197
        },
        {
          "duration": 0.16783199999999,
          "durationTicks": 48,
          "midi": 68,
          "name": "G#4",
          "ticks": 33120,
          "time": 115.80408,
          "velocity": 0.6299212598425197
        },
        {
          "duration": 0.16783199999999,
          "durationTicks": 48,
          "midi": 71,
          "name": "B4",
          "ticks": 33120,
          "time": 115.80408,
          "velocity": 0.6299212598425197
        },
        {
          "duration": 0.3356640000000084,
          "durationTicks": 96,
          "midi": 76,
          "name": "E5",
          "ticks": 33180,
          "time": 116.01387,
          "velocity": 0.6299212598425197
        },
        {
          "duration": 0.3356640000000084,
          "durationTicks": 96,
          "midi": 59,
          "name": "B3",
          "ticks": 33180,
          "time": 116.01387,
          "velocity": 0.6299212598425197
        },
        {
          "duration": 0.3356640000000084,
          "durationTicks": 96,
          "midi": 71,
          "name": "B4",
          "ticks": 33180,
          "time": 116.01387,
          "velocity": 0.6299212598425197
        },
        {
          "duration": 0.3356640000000084,
          "durationTicks": 96,
          "midi": 68,
          "name": "G#4",
          "ticks": 33180,
          "time": 116.01387,
          "velocity": 0.6299212598425197
        },
        {
          "duration": 0.3356640000000084,
          "durationTicks": 96,
          "midi": 52,
          "name": "E3",
          "ticks": 33180,
          "time": 116.01387,
          "velocity": 0.6299212598425197
        },
        {
          "duration": 0.3356640000000084,
          "durationTicks": 96,
          "midi": 64,
          "name": "E4",
          "ticks": 33180,
          "time": 116.01387,
          "velocity": 0.6299212598425197
        },
        {
          "duration": 0.3356639999999942,
          "durationTicks": 96,
          "midi": 57,
          "name": "A3",
          "ticks": 33300,
          "time": 116.43345000000001,
          "velocity": 0.6299212598425197
        },
        {
          "duration": 0.3356639999999942,
          "durationTicks": 96,
          "midi": 76,
          "name": "E5",
          "ticks": 33300,
          "time": 116.43345000000001,
          "velocity": 0.6299212598425197
        },
        {
          "duration": 0.3356639999999942,
          "durationTicks": 96,
          "midi": 64,
          "name": "E4",
          "ticks": 33300,
          "time": 116.43345000000001,
          "velocity": 0.6299212598425197
        },
        {
          "duration": 0.3356639999999942,
          "durationTicks": 96,
          "midi": 52,
          "name": "E3",
          "ticks": 33300,
          "time": 116.43345000000001,
          "velocity": 0.6299212598425197
        },
        {
          "duration": 0.3356639999999942,
          "durationTicks": 96,
          "midi": 69,
          "name": "A4",
          "ticks": 33300,
          "time": 116.43345000000001,
          "velocity": 0.6299212598425197
        },
        {
          "duration": 0.3356639999999942,
          "durationTicks": 96,
          "midi": 61,
          "name": "C#4",
          "ticks": 33300,
          "time": 116.43345000000001,
          "velocity": 0.6299212598425197
        },
        {
          "duration": 0.16783199999999,
          "durationTicks": 48,
          "midi": 64,
          "name": "E4",
          "ticks": 33420,
          "time": 116.85303,
          "velocity": 0.6299212598425197
        },
        {
          "duration": 0.16783199999999,
          "durationTicks": 48,
          "midi": 61,
          "name": "C#4",
          "ticks": 33420,
          "time": 116.85303,
          "velocity": 0.6299212598425197
        },
        {
          "duration": 0.16783199999999,
          "durationTicks": 48,
          "midi": 76,
          "name": "E5",
          "ticks": 33420,
          "time": 116.85303,
          "velocity": 0.6299212598425197
        },
        {
          "duration": 0.16783199999999,
          "durationTicks": 48,
          "midi": 57,
          "name": "A3",
          "ticks": 33420,
          "time": 116.85303,
          "velocity": 0.6299212598425197
        },
        {
          "duration": 0.16783199999999,
          "durationTicks": 48,
          "midi": 69,
          "name": "A4",
          "ticks": 33420,
          "time": 116.85303,
          "velocity": 0.6299212598425197
        },
        {
          "duration": 0.16783199999999,
          "durationTicks": 48,
          "midi": 52,
          "name": "E3",
          "ticks": 33420,
          "time": 116.85303,
          "velocity": 0.6299212598425197
        },
        {
          "duration": 0.3356640000000084,
          "durationTicks": 96,
          "midi": 61,
          "name": "C#4",
          "ticks": 33480,
          "time": 117.06282,
          "velocity": 0.6299212598425197
        },
        {
          "duration": 0.3356640000000084,
          "durationTicks": 96,
          "midi": 52,
          "name": "E3",
          "ticks": 33480,
          "time": 117.06282,
          "velocity": 0.6299212598425197
        },
        {
          "duration": 0.3356640000000084,
          "durationTicks": 96,
          "midi": 76,
          "name": "E5",
          "ticks": 33480,
          "time": 117.06282,
          "velocity": 0.6299212598425197
        },
        {
          "duration": 0.3356640000000084,
          "durationTicks": 96,
          "midi": 69,
          "name": "A4",
          "ticks": 33480,
          "time": 117.06282,
          "velocity": 0.6299212598425197
        },
        {
          "duration": 0.3356640000000084,
          "durationTicks": 96,
          "midi": 64,
          "name": "E4",
          "ticks": 33480,
          "time": 117.06282,
          "velocity": 0.6299212598425197
        },
        {
          "duration": 0.3356640000000084,
          "durationTicks": 96,
          "midi": 57,
          "name": "A3",
          "ticks": 33480,
          "time": 117.06282,
          "velocity": 0.6299212598425197
        },
        {
          "duration": 0.3356640000000084,
          "durationTicks": 96,
          "midi": 59,
          "name": "B3",
          "ticks": 33600,
          "time": 117.4824,
          "velocity": 0.6299212598425197
        },
        {
          "duration": 0.3356640000000084,
          "durationTicks": 96,
          "midi": 76,
          "name": "E5",
          "ticks": 33600,
          "time": 117.4824,
          "velocity": 0.6299212598425197
        },
        {
          "duration": 0.3356640000000084,
          "durationTicks": 96,
          "midi": 52,
          "name": "E3",
          "ticks": 33600,
          "time": 117.4824,
          "velocity": 0.6299212598425197
        },
        {
          "duration": 0.3356640000000084,
          "durationTicks": 96,
          "midi": 71,
          "name": "B4",
          "ticks": 33600,
          "time": 117.4824,
          "velocity": 0.6299212598425197
        },
        {
          "duration": 0.3356640000000084,
          "durationTicks": 96,
          "midi": 64,
          "name": "E4",
          "ticks": 33600,
          "time": 117.4824,
          "velocity": 0.6299212598425197
        },
        {
          "duration": 0.3356640000000084,
          "durationTicks": 96,
          "midi": 68,
          "name": "G#4",
          "ticks": 33600,
          "time": 117.4824,
          "velocity": 0.6299212598425197
        },
        {
          "duration": 2.391605999999996,
          "durationTicks": 684,
          "midi": 73,
          "name": "C#5",
          "ticks": 33780,
          "time": 118.11177,
          "velocity": 0.6299212598425197
        },
        {
          "duration": 2.391605999999996,
          "durationTicks": 684,
          "midi": 76,
          "name": "E5",
          "ticks": 33780,
          "time": 118.11177,
          "velocity": 0.6299212598425197
        },
        {
          "duration": 2.391605999999996,
          "durationTicks": 684,
          "midi": 64,
          "name": "E4",
          "ticks": 33780,
          "time": 118.11177,
          "velocity": 0.6299212598425197
        },
        {
          "duration": 2.391605999999996,
          "durationTicks": 684,
          "midi": 61,
          "name": "C#4",
          "ticks": 33780,
          "time": 118.11177,
          "velocity": 0.6299212598425197
        },
        {
          "duration": 2.391605999999996,
          "durationTicks": 684,
          "midi": 69,
          "name": "A4",
          "ticks": 33780,
          "time": 118.11177,
          "velocity": 0.6299212598425197
        },
        {
          "duration": 2.391605999999996,
          "durationTicks": 684,
          "midi": 52,
          "name": "E3",
          "ticks": 33780,
          "time": 118.11177,
          "velocity": 0.6299212598425197
        },
        {
          "duration": 0.3356640000000084,
          "durationTicks": 96,
          "midi": 64,
          "name": "E4",
          "ticks": 43200,
          "time": 151.0488,
          "velocity": 0.6299212598425197
        },
        {
          "duration": 0.3356640000000084,
          "durationTicks": 96,
          "midi": 68,
          "name": "G#4",
          "ticks": 43200,
          "time": 151.0488,
          "velocity": 0.6299212598425197
        },
        {
          "duration": 0.3356640000000084,
          "durationTicks": 96,
          "midi": 52,
          "name": "E3",
          "ticks": 43200,
          "time": 151.0488,
          "velocity": 0.6299212598425197
        },
        {
          "duration": 0.3356640000000084,
          "durationTicks": 96,
          "midi": 71,
          "name": "B4",
          "ticks": 43200,
          "time": 151.0488,
          "velocity": 0.6299212598425197
        },
        {
          "duration": 0.3356640000000084,
          "durationTicks": 96,
          "midi": 76,
          "name": "E5",
          "ticks": 43200,
          "time": 151.0488,
          "velocity": 0.6299212598425197
        },
        {
          "duration": 0.3356640000000084,
          "durationTicks": 96,
          "midi": 59,
          "name": "B3",
          "ticks": 43200,
          "time": 151.0488,
          "velocity": 0.6299212598425197
        },
        {
          "duration": 0.3356640000000084,
          "durationTicks": 96,
          "midi": 76,
          "name": "E5",
          "ticks": 43320,
          "time": 151.46838,
          "velocity": 0.6299212598425197
        },
        {
          "duration": 0.3356640000000084,
          "durationTicks": 96,
          "midi": 71,
          "name": "B4",
          "ticks": 43320,
          "time": 151.46838,
          "velocity": 0.6299212598425197
        },
        {
          "duration": 0.3356640000000084,
          "durationTicks": 96,
          "midi": 64,
          "name": "E4",
          "ticks": 43320,
          "time": 151.46838,
          "velocity": 0.6299212598425197
        },
        {
          "duration": 0.3356640000000084,
          "durationTicks": 96,
          "midi": 59,
          "name": "B3",
          "ticks": 43320,
          "time": 151.46838,
          "velocity": 0.6299212598425197
        },
        {
          "duration": 0.3356640000000084,
          "durationTicks": 96,
          "midi": 68,
          "name": "G#4",
          "ticks": 43320,
          "time": 151.46838,
          "velocity": 0.6299212598425197
        },
        {
          "duration": 0.3356640000000084,
          "durationTicks": 96,
          "midi": 52,
          "name": "E3",
          "ticks": 43320,
          "time": 151.46838,
          "velocity": 0.6299212598425197
        },
        {
          "duration": 0.3356640000000084,
          "durationTicks": 96,
          "midi": 57,
          "name": "A3",
          "ticks": 43440,
          "time": 151.88796,
          "velocity": 0.6299212598425197
        },
        {
          "duration": 0.3356640000000084,
          "durationTicks": 96,
          "midi": 76,
          "name": "E5",
          "ticks": 43440,
          "time": 151.88796,
          "velocity": 0.6299212598425197
        },
        {
          "duration": 0.3356640000000084,
          "durationTicks": 96,
          "midi": 61,
          "name": "C#4",
          "ticks": 43440,
          "time": 151.88796,
          "velocity": 0.6299212598425197
        },
        {
          "duration": 0.3356640000000084,
          "durationTicks": 96,
          "midi": 64,
          "name": "E4",
          "ticks": 43440,
          "time": 151.88796,
          "velocity": 0.6299212598425197
        },
        {
          "duration": 0.3356640000000084,
          "durationTicks": 96,
          "midi": 52,
          "name": "E3",
          "ticks": 43440,
          "time": 151.88796,
          "velocity": 0.6299212598425197
        },
        {
          "duration": 0.3356640000000084,
          "durationTicks": 96,
          "midi": 69,
          "name": "A4",
          "ticks": 43440,
          "time": 151.88796,
          "velocity": 0.6299212598425197
        },
        {
          "duration": 0.33566399999998,
          "durationTicks": 96,
          "midi": 69,
          "name": "A4",
          "ticks": 43560,
          "time": 152.30754000000002,
          "velocity": 0.6299212598425197
        },
        {
          "duration": 0.33566399999998,
          "durationTicks": 96,
          "midi": 64,
          "name": "E4",
          "ticks": 43560,
          "time": 152.30754000000002,
          "velocity": 0.6299212598425197
        },
        {
          "duration": 0.33566399999998,
          "durationTicks": 96,
          "midi": 76,
          "name": "E5",
          "ticks": 43560,
          "time": 152.30754000000002,
          "velocity": 0.6299212598425197
        },
        {
          "duration": 0.33566399999998,
          "durationTicks": 96,
          "midi": 57,
          "name": "A3",
          "ticks": 43560,
          "time": 152.30754000000002,
          "velocity": 0.6299212598425197
        },
        {
          "duration": 0.33566399999998,
          "durationTicks": 96,
          "midi": 61,
          "name": "C#4",
          "ticks": 43560,
          "time": 152.30754000000002,
          "velocity": 0.6299212598425197
        },
        {
          "duration": 0.33566399999998,
          "durationTicks": 96,
          "midi": 52,
          "name": "E3",
          "ticks": 43560,
          "time": 152.30754000000002,
          "velocity": 0.6299212598425197
        },
        {
          "duration": 0.16783199999997578,
          "durationTicks": 48,
          "midi": 76,
          "name": "E5",
          "ticks": 43680,
          "time": 152.72712,
          "velocity": 0.6299212598425197
        },
        {
          "duration": 0.16783199999997578,
          "durationTicks": 48,
          "midi": 59,
          "name": "B3",
          "ticks": 43680,
          "time": 152.72712,
          "velocity": 0.6299212598425197
        },
        {
          "duration": 0.16783199999997578,
          "durationTicks": 48,
          "midi": 68,
          "name": "G#4",
          "ticks": 43680,
          "time": 152.72712,
          "velocity": 0.6299212598425197
        },
        {
          "duration": 0.16783199999997578,
          "durationTicks": 48,
          "midi": 71,
          "name": "B4",
          "ticks": 43680,
          "time": 152.72712,
          "velocity": 0.6299212598425197
        },
        {
          "duration": 0.16783199999997578,
          "durationTicks": 48,
          "midi": 52,
          "name": "E3",
          "ticks": 43680,
          "time": 152.72712,
          "velocity": 0.6299212598425197
        },
        {
          "duration": 0.16783199999997578,
          "durationTicks": 48,
          "midi": 64,
          "name": "E4",
          "ticks": 43680,
          "time": 152.72712,
          "velocity": 0.6299212598425197
        },
        {
          "duration": 0.3356640000000084,
          "durationTicks": 96,
          "midi": 59,
          "name": "B3",
          "ticks": 43740,
          "time": 152.93691,
          "velocity": 0.6299212598425197
        },
        {
          "duration": 0.3356640000000084,
          "durationTicks": 96,
          "midi": 52,
          "name": "E3",
          "ticks": 43740,
          "time": 152.93691,
          "velocity": 0.6299212598425197
        },
        {
          "duration": 0.3356640000000084,
          "durationTicks": 96,
          "midi": 76,
          "name": "E5",
          "ticks": 43740,
          "time": 152.93691,
          "velocity": 0.6299212598425197
        },
        {
          "duration": 0.3356640000000084,
          "durationTicks": 96,
          "midi": 71,
          "name": "B4",
          "ticks": 43740,
          "time": 152.93691,
          "velocity": 0.6299212598425197
        },
        {
          "duration": 0.3356640000000084,
          "durationTicks": 96,
          "midi": 68,
          "name": "G#4",
          "ticks": 43740,
          "time": 152.93691,
          "velocity": 0.6299212598425197
        },
        {
          "duration": 0.3356640000000084,
          "durationTicks": 96,
          "midi": 64,
          "name": "E4",
          "ticks": 43740,
          "time": 152.93691,
          "velocity": 0.6299212598425197
        },
        {
          "duration": 0.3356640000000084,
          "durationTicks": 96,
          "midi": 76,
          "name": "E5",
          "ticks": 43860,
          "time": 153.35649,
          "velocity": 0.6299212598425197
        },
        {
          "duration": 0.3356640000000084,
          "durationTicks": 96,
          "midi": 69,
          "name": "A4",
          "ticks": 43860,
          "time": 153.35649,
          "velocity": 0.6299212598425197
        },
        {
          "duration": 0.3356640000000084,
          "durationTicks": 96,
          "midi": 61,
          "name": "C#4",
          "ticks": 43860,
          "time": 153.35649,
          "velocity": 0.6299212598425197
        },
        {
          "duration": 0.3356640000000084,
          "durationTicks": 96,
          "midi": 52,
          "name": "E3",
          "ticks": 43860,
          "time": 153.35649,
          "velocity": 0.6299212598425197
        },
        {
          "duration": 0.3356640000000084,
          "durationTicks": 96,
          "midi": 57,
          "name": "A3",
          "ticks": 43860,
          "time": 153.35649,
          "velocity": 0.6299212598425197
        },
        {
          "duration": 0.3356640000000084,
          "durationTicks": 96,
          "midi": 64,
          "name": "E4",
          "ticks": 43860,
          "time": 153.35649,
          "velocity": 0.6299212598425197
        },
        {
          "duration": 0.16783199999997578,
          "durationTicks": 48,
          "midi": 76,
          "name": "E5",
          "ticks": 43980,
          "time": 153.77607,
          "velocity": 0.6299212598425197
        },
        {
          "duration": 0.16783199999997578,
          "durationTicks": 48,
          "midi": 52,
          "name": "E3",
          "ticks": 43980,
          "time": 153.77607,
          "velocity": 0.6299212598425197
        },
        {
          "duration": 0.16783199999997578,
          "durationTicks": 48,
          "midi": 64,
          "name": "E4",
          "ticks": 43980,
          "time": 153.77607,
          "velocity": 0.6299212598425197
        },
        {
          "duration": 0.16783199999997578,
          "durationTicks": 48,
          "midi": 69,
          "name": "A4",
          "ticks": 43980,
          "time": 153.77607,
          "velocity": 0.6299212598425197
        },
        {
          "duration": 0.16783199999997578,
          "durationTicks": 48,
          "midi": 57,
          "name": "A3",
          "ticks": 43980,
          "time": 153.77607,
          "velocity": 0.6299212598425197
        },
        {
          "duration": 0.16783199999997578,
          "durationTicks": 48,
          "midi": 61,
          "name": "C#4",
          "ticks": 43980,
          "time": 153.77607,
          "velocity": 0.6299212598425197
        },
        {
          "duration": 0.3356640000000084,
          "durationTicks": 96,
          "midi": 76,
          "name": "E5",
          "ticks": 44040,
          "time": 153.98586,
          "velocity": 0.6299212598425197
        },
        {
          "duration": 0.3356640000000084,
          "durationTicks": 96,
          "midi": 52,
          "name": "E3",
          "ticks": 44040,
          "time": 153.98586,
          "velocity": 0.6299212598425197
        },
        {
          "duration": 0.3356640000000084,
          "durationTicks": 96,
          "midi": 57,
          "name": "A3",
          "ticks": 44040,
          "time": 153.98586,
          "velocity": 0.6299212598425197
        },
        {
          "duration": 0.3356640000000084,
          "durationTicks": 96,
          "midi": 64,
          "name": "E4",
          "ticks": 44040,
          "time": 153.98586,
          "velocity": 0.6299212598425197
        },
        {
          "duration": 0.3356640000000084,
          "durationTicks": 96,
          "midi": 61,
          "name": "C#4",
          "ticks": 44040,
          "time": 153.98586,
          "velocity": 0.6299212598425197
        },
        {
          "duration": 0.3356640000000084,
          "durationTicks": 96,
          "midi": 69,
          "name": "A4",
          "ticks": 44040,
          "time": 153.98586,
          "velocity": 0.6299212598425197
        },
        {
          "duration": 0.3356640000000084,
          "durationTicks": 96,
          "midi": 68,
          "name": "G#4",
          "ticks": 44160,
          "time": 154.40544,
          "velocity": 0.6299212598425197
        },
        {
          "duration": 0.3356640000000084,
          "durationTicks": 96,
          "midi": 59,
          "name": "B3",
          "ticks": 44160,
          "time": 154.40544,
          "velocity": 0.6299212598425197
        },
        {
          "duration": 0.3356640000000084,
          "durationTicks": 96,
          "midi": 71,
          "name": "B4",
          "ticks": 44160,
          "time": 154.40544,
          "velocity": 0.6299212598425197
        },
        {
          "duration": 0.3356640000000084,
          "durationTicks": 96,
          "midi": 76,
          "name": "E5",
          "ticks": 44160,
          "time": 154.40544,
          "velocity": 0.6299212598425197
        },
        {
          "duration": 0.3356640000000084,
          "durationTicks": 96,
          "midi": 52,
          "name": "E3",
          "ticks": 44160,
          "time": 154.40544,
          "velocity": 0.6299212598425197
        },
        {
          "duration": 0.3356640000000084,
          "durationTicks": 96,
          "midi": 64,
          "name": "E4",
          "ticks": 44160,
          "time": 154.40544,
          "velocity": 0.6299212598425197
        },
        {
          "duration": 0.3356640000000084,
          "durationTicks": 96,
          "midi": 64,
          "name": "E4",
          "ticks": 44280,
          "time": 154.82502,
          "velocity": 0.6299212598425197
        },
        {
          "duration": 0.3356640000000084,
          "durationTicks": 96,
          "midi": 68,
          "name": "G#4",
          "ticks": 44280,
          "time": 154.82502,
          "velocity": 0.6299212598425197
        },
        {
          "duration": 0.3356640000000084,
          "durationTicks": 96,
          "midi": 71,
          "name": "B4",
          "ticks": 44280,
          "time": 154.82502,
          "velocity": 0.6299212598425197
        },
        {
          "duration": 0.3356640000000084,
          "durationTicks": 96,
          "midi": 76,
          "name": "E5",
          "ticks": 44280,
          "time": 154.82502,
          "velocity": 0.6299212598425197
        },
        {
          "duration": 0.3356640000000084,
          "durationTicks": 96,
          "midi": 52,
          "name": "E3",
          "ticks": 44280,
          "time": 154.82502,
          "velocity": 0.6299212598425197
        },
        {
          "duration": 0.3356640000000084,
          "durationTicks": 96,
          "midi": 59,
          "name": "B3",
          "ticks": 44280,
          "time": 154.82502,
          "velocity": 0.6299212598425197
        },
        {
          "duration": 0.3356640000000084,
          "durationTicks": 96,
          "midi": 52,
          "name": "E3",
          "ticks": 44400,
          "time": 155.2446,
          "velocity": 0.6299212598425197
        },
        {
          "duration": 0.3356640000000084,
          "durationTicks": 96,
          "midi": 61,
          "name": "C#4",
          "ticks": 44400,
          "time": 155.2446,
          "velocity": 0.6299212598425197
        },
        {
          "duration": 0.3356640000000084,
          "durationTicks": 96,
          "midi": 64,
          "name": "E4",
          "ticks": 44400,
          "time": 155.2446,
          "velocity": 0.6299212598425197
        },
        {
          "duration": 0.3356640000000084,
          "durationTicks": 96,
          "midi": 76,
          "name": "E5",
          "ticks": 44400,
          "time": 155.2446,
          "velocity": 0.6299212598425197
        },
        {
          "duration": 0.3356640000000084,
          "durationTicks": 96,
          "midi": 57,
          "name": "A3",
          "ticks": 44400,
          "time": 155.2446,
          "velocity": 0.6299212598425197
        },
        {
          "duration": 0.3356640000000084,
          "durationTicks": 96,
          "midi": 69,
          "name": "A4",
          "ticks": 44400,
          "time": 155.2446,
          "velocity": 0.6299212598425197
        },
        {
          "duration": 0.33566399999998,
          "durationTicks": 96,
          "midi": 57,
          "name": "A3",
          "ticks": 44520,
          "time": 155.66418000000002,
          "velocity": 0.6299212598425197
        },
        {
          "duration": 0.33566399999998,
          "durationTicks": 96,
          "midi": 69,
          "name": "A4",
          "ticks": 44520,
          "time": 155.66418000000002,
          "velocity": 0.6299212598425197
        },
        {
          "duration": 0.33566399999998,
          "durationTicks": 96,
          "midi": 76,
          "name": "E5",
          "ticks": 44520,
          "time": 155.66418000000002,
          "velocity": 0.6299212598425197
        },
        {
          "duration": 0.33566399999998,
          "durationTicks": 96,
          "midi": 64,
          "name": "E4",
          "ticks": 44520,
          "time": 155.66418000000002,
          "velocity": 0.6299212598425197
        },
        {
          "duration": 0.33566399999998,
          "durationTicks": 96,
          "midi": 52,
          "name": "E3",
          "ticks": 44520,
          "time": 155.66418000000002,
          "velocity": 0.6299212598425197
        },
        {
          "duration": 0.33566399999998,
          "durationTicks": 96,
          "midi": 61,
          "name": "C#4",
          "ticks": 44520,
          "time": 155.66418000000002,
          "velocity": 0.6299212598425197
        },
        {
          "duration": 0.16783199999997578,
          "durationTicks": 48,
          "midi": 76,
          "name": "E5",
          "ticks": 44640,
          "time": 156.08376,
          "velocity": 0.6299212598425197
        },
        {
          "duration": 0.16783199999997578,
          "durationTicks": 48,
          "midi": 52,
          "name": "E3",
          "ticks": 44640,
          "time": 156.08376,
          "velocity": 0.6299212598425197
        },
        {
          "duration": 0.16783199999997578,
          "durationTicks": 48,
          "midi": 68,
          "name": "G#4",
          "ticks": 44640,
          "time": 156.08376,
          "velocity": 0.6299212598425197
        },
        {
          "duration": 0.16783199999997578,
          "durationTicks": 48,
          "midi": 71,
          "name": "B4",
          "ticks": 44640,
          "time": 156.08376,
          "velocity": 0.6299212598425197
        },
        {
          "duration": 0.16783199999997578,
          "durationTicks": 48,
          "midi": 59,
          "name": "B3",
          "ticks": 44640,
          "time": 156.08376,
          "velocity": 0.6299212598425197
        },
        {
          "duration": 0.16783199999997578,
          "durationTicks": 48,
          "midi": 64,
          "name": "E4",
          "ticks": 44640,
          "time": 156.08376,
          "velocity": 0.6299212598425197
        },
        {
          "duration": 0.3356640000000084,
          "durationTicks": 96,
          "midi": 64,
          "name": "E4",
          "ticks": 44700,
          "time": 156.29355,
          "velocity": 0.6299212598425197
        },
        {
          "duration": 0.3356640000000084,
          "durationTicks": 96,
          "midi": 71,
          "name": "B4",
          "ticks": 44700,
          "time": 156.29355,
          "velocity": 0.6299212598425197
        },
        {
          "duration": 0.3356640000000084,
          "durationTicks": 96,
          "midi": 59,
          "name": "B3",
          "ticks": 44700,
          "time": 156.29355,
          "velocity": 0.6299212598425197
        },
        {
          "duration": 0.3356640000000084,
          "durationTicks": 96,
          "midi": 52,
          "name": "E3",
          "ticks": 44700,
          "time": 156.29355,
          "velocity": 0.6299212598425197
        },
        {
          "duration": 0.3356640000000084,
          "durationTicks": 96,
          "midi": 68,
          "name": "G#4",
          "ticks": 44700,
          "time": 156.29355,
          "velocity": 0.6299212598425197
        },
        {
          "duration": 0.3356640000000084,
          "durationTicks": 96,
          "midi": 76,
          "name": "E5",
          "ticks": 44700,
          "time": 156.29355,
          "velocity": 0.6299212598425197
        },
        {
          "duration": 0.3356640000000084,
          "durationTicks": 96,
          "midi": 76,
          "name": "E5",
          "ticks": 44820,
          "time": 156.71313,
          "velocity": 0.6299212598425197
        },
        {
          "duration": 0.3356640000000084,
          "durationTicks": 96,
          "midi": 64,
          "name": "E4",
          "ticks": 44820,
          "time": 156.71313,
          "velocity": 0.6299212598425197
        },
        {
          "duration": 0.3356640000000084,
          "durationTicks": 96,
          "midi": 69,
          "name": "A4",
          "ticks": 44820,
          "time": 156.71313,
          "velocity": 0.6299212598425197
        },
        {
          "duration": 0.3356640000000084,
          "durationTicks": 96,
          "midi": 57,
          "name": "A3",
          "ticks": 44820,
          "time": 156.71313,
          "velocity": 0.6299212598425197
        },
        {
          "duration": 0.3356640000000084,
          "durationTicks": 96,
          "midi": 52,
          "name": "E3",
          "ticks": 44820,
          "time": 156.71313,
          "velocity": 0.6299212598425197
        },
        {
          "duration": 0.3356640000000084,
          "durationTicks": 96,
          "midi": 61,
          "name": "C#4",
          "ticks": 44820,
          "time": 156.71313,
          "velocity": 0.6299212598425197
        },
        {
          "duration": 0.1678320000000042,
          "durationTicks": 48,
          "midi": 69,
          "name": "A4",
          "ticks": 44940,
          "time": 157.13271,
          "velocity": 0.6299212598425197
        },
        {
          "duration": 0.1678320000000042,
          "durationTicks": 48,
          "midi": 61,
          "name": "C#4",
          "ticks": 44940,
          "time": 157.13271,
          "velocity": 0.6299212598425197
        },
        {
          "duration": 0.1678320000000042,
          "durationTicks": 48,
          "midi": 57,
          "name": "A3",
          "ticks": 44940,
          "time": 157.13271,
          "velocity": 0.6299212598425197
        },
        {
          "duration": 0.1678320000000042,
          "durationTicks": 48,
          "midi": 64,
          "name": "E4",
          "ticks": 44940,
          "time": 157.13271,
          "velocity": 0.6299212598425197
        },
        {
          "duration": 0.1678320000000042,
          "durationTicks": 48,
          "midi": 76,
          "name": "E5",
          "ticks": 44940,
          "time": 157.13271,
          "velocity": 0.6299212598425197
        },
        {
          "duration": 0.1678320000000042,
          "durationTicks": 48,
          "midi": 52,
          "name": "E3",
          "ticks": 44940,
          "time": 157.13271,
          "velocity": 0.6299212598425197
        },
        {
          "duration": 0.3356640000000084,
          "durationTicks": 96,
          "midi": 52,
          "name": "E3",
          "ticks": 45000,
          "time": 157.3425,
          "velocity": 0.6299212598425197
        },
        {
          "duration": 0.3356640000000084,
          "durationTicks": 96,
          "midi": 57,
          "name": "A3",
          "ticks": 45000,
          "time": 157.3425,
          "velocity": 0.6299212598425197
        },
        {
          "duration": 0.3356640000000084,
          "durationTicks": 96,
          "midi": 64,
          "name": "E4",
          "ticks": 45000,
          "time": 157.3425,
          "velocity": 0.6299212598425197
        },
        {
          "duration": 0.3356640000000084,
          "durationTicks": 96,
          "midi": 76,
          "name": "E5",
          "ticks": 45000,
          "time": 157.3425,
          "velocity": 0.6299212598425197
        },
        {
          "duration": 0.3356640000000084,
          "durationTicks": 96,
          "midi": 69,
          "name": "A4",
          "ticks": 45000,
          "time": 157.3425,
          "velocity": 0.6299212598425197
        },
        {
          "duration": 0.3356640000000084,
          "durationTicks": 96,
          "midi": 61,
          "name": "C#4",
          "ticks": 45000,
          "time": 157.3425,
          "velocity": 0.6299212598425197
        },
        {
          "duration": 0.3356640000000084,
          "durationTicks": 96,
          "midi": 68,
          "name": "G#4",
          "ticks": 45120,
          "time": 157.76208,
          "velocity": 0.6299212598425197
        },
        {
          "duration": 0.3356640000000084,
          "durationTicks": 96,
          "midi": 64,
          "name": "E4",
          "ticks": 45120,
          "time": 157.76208,
          "velocity": 0.6299212598425197
        },
        {
          "duration": 0.3356640000000084,
          "durationTicks": 96,
          "midi": 59,
          "name": "B3",
          "ticks": 45120,
          "time": 157.76208,
          "velocity": 0.6299212598425197
        },
        {
          "duration": 0.3356640000000084,
          "durationTicks": 96,
          "midi": 71,
          "name": "B4",
          "ticks": 45120,
          "time": 157.76208,
          "velocity": 0.6299212598425197
        },
        {
          "duration": 0.3356640000000084,
          "durationTicks": 96,
          "midi": 76,
          "name": "E5",
          "ticks": 45120,
          "time": 157.76208,
          "velocity": 0.6299212598425197
        },
        {
          "duration": 0.3356640000000084,
          "durationTicks": 96,
          "midi": 52,
          "name": "E3",
          "ticks": 45120,
          "time": 157.76208,
          "velocity": 0.6299212598425197
        },
        {
          "duration": 0.3356640000000084,
          "durationTicks": 96,
          "midi": 76,
          "name": "E5",
          "ticks": 45240,
          "time": 158.18166,
          "velocity": 0.6299212598425197
        },
        {
          "duration": 0.3356640000000084,
          "durationTicks": 96,
          "midi": 71,
          "name": "B4",
          "ticks": 45240,
          "time": 158.18166,
          "velocity": 0.6299212598425197
        },
        {
          "duration": 0.3356640000000084,
          "durationTicks": 96,
          "midi": 64,
          "name": "E4",
          "ticks": 45240,
          "time": 158.18166,
          "velocity": 0.6299212598425197
        },
        {
          "duration": 0.3356640000000084,
          "durationTicks": 96,
          "midi": 59,
          "name": "B3",
          "ticks": 45240,
          "time": 158.18166,
          "velocity": 0.6299212598425197
        },
        {
          "duration": 0.3356640000000084,
          "durationTicks": 96,
          "midi": 68,
          "name": "G#4",
          "ticks": 45240,
          "time": 158.18166,
          "velocity": 0.6299212598425197
        },
        {
          "duration": 0.3356640000000084,
          "durationTicks": 96,
          "midi": 52,
          "name": "E3",
          "ticks": 45240,
          "time": 158.18166,
          "velocity": 0.6299212598425197
        },
        {
          "duration": 0.3356640000000084,
          "durationTicks": 96,
          "midi": 76,
          "name": "E5",
          "ticks": 45360,
          "time": 158.60124,
          "velocity": 0.6299212598425197
        },
        {
          "duration": 0.3356640000000084,
          "durationTicks": 96,
          "midi": 57,
          "name": "A3",
          "ticks": 45360,
          "time": 158.60124,
          "velocity": 0.6299212598425197
        },
        {
          "duration": 0.3356640000000084,
          "durationTicks": 96,
          "midi": 64,
          "name": "E4",
          "ticks": 45360,
          "time": 158.60124,
          "velocity": 0.6299212598425197
        },
        {
          "duration": 0.3356640000000084,
          "durationTicks": 96,
          "midi": 61,
          "name": "C#4",
          "ticks": 45360,
          "time": 158.60124,
          "velocity": 0.6299212598425197
        },
        {
          "duration": 0.3356640000000084,
          "durationTicks": 96,
          "midi": 52,
          "name": "E3",
          "ticks": 45360,
          "time": 158.60124,
          "velocity": 0.6299212598425197
        },
        {
          "duration": 0.3356640000000084,
          "durationTicks": 96,
          "midi": 69,
          "name": "A4",
          "ticks": 45360,
          "time": 158.60124,
          "velocity": 0.6299212598425197
        },
        {
          "duration": 0.33566399999998,
          "durationTicks": 96,
          "midi": 64,
          "name": "E4",
          "ticks": 45480,
          "time": 159.02082000000001,
          "velocity": 0.6299212598425197
        },
        {
          "duration": 0.33566399999998,
          "durationTicks": 96,
          "midi": 76,
          "name": "E5",
          "ticks": 45480,
          "time": 159.02082000000001,
          "velocity": 0.6299212598425197
        },
        {
          "duration": 0.33566399999998,
          "durationTicks": 96,
          "midi": 69,
          "name": "A4",
          "ticks": 45480,
          "time": 159.02082000000001,
          "velocity": 0.6299212598425197
        },
        {
          "duration": 0.33566399999998,
          "durationTicks": 96,
          "midi": 57,
          "name": "A3",
          "ticks": 45480,
          "time": 159.02082000000001,
          "velocity": 0.6299212598425197
        },
        {
          "duration": 0.33566399999998,
          "durationTicks": 96,
          "midi": 52,
          "name": "E3",
          "ticks": 45480,
          "time": 159.02082000000001,
          "velocity": 0.6299212598425197
        },
        {
          "duration": 0.33566399999998,
          "durationTicks": 96,
          "midi": 61,
          "name": "C#4",
          "ticks": 45480,
          "time": 159.02082000000001,
          "velocity": 0.6299212598425197
        },
        {
          "duration": 0.16783199999997578,
          "durationTicks": 48,
          "midi": 76,
          "name": "E5",
          "ticks": 45600,
          "time": 159.4404,
          "velocity": 0.6299212598425197
        },
        {
          "duration": 0.16783199999997578,
          "durationTicks": 48,
          "midi": 52,
          "name": "E3",
          "ticks": 45600,
          "time": 159.4404,
          "velocity": 0.6299212598425197
        },
        {
          "duration": 0.16783199999997578,
          "durationTicks": 48,
          "midi": 68,
          "name": "G#4",
          "ticks": 45600,
          "time": 159.4404,
          "velocity": 0.6299212598425197
        },
        {
          "duration": 0.16783199999997578,
          "durationTicks": 48,
          "midi": 71,
          "name": "B4",
          "ticks": 45600,
          "time": 159.4404,
          "velocity": 0.6299212598425197
        },
        {
          "duration": 0.16783199999997578,
          "durationTicks": 48,
          "midi": 59,
          "name": "B3",
          "ticks": 45600,
          "time": 159.4404,
          "velocity": 0.6299212598425197
        },
        {
          "duration": 0.16783199999997578,
          "durationTicks": 48,
          "midi": 64,
          "name": "E4",
          "ticks": 45600,
          "time": 159.4404,
          "velocity": 0.6299212598425197
        },
        {
          "duration": 0.3356640000000084,
          "durationTicks": 96,
          "midi": 64,
          "name": "E4",
          "ticks": 45660,
          "time": 159.65019,
          "velocity": 0.6299212598425197
        },
        {
          "duration": 0.3356640000000084,
          "durationTicks": 96,
          "midi": 52,
          "name": "E3",
          "ticks": 45660,
          "time": 159.65019,
          "velocity": 0.6299212598425197
        },
        {
          "duration": 0.3356640000000084,
          "durationTicks": 96,
          "midi": 71,
          "name": "B4",
          "ticks": 45660,
          "time": 159.65019,
          "velocity": 0.6299212598425197
        },
        {
          "duration": 0.3356640000000084,
          "durationTicks": 96,
          "midi": 76,
          "name": "E5",
          "ticks": 45660,
          "time": 159.65019,
          "velocity": 0.6299212598425197
        },
        {
          "duration": 0.3356640000000084,
          "durationTicks": 96,
          "midi": 68,
          "name": "G#4",
          "ticks": 45660,
          "time": 159.65019,
          "velocity": 0.6299212598425197
        },
        {
          "duration": 0.3356640000000084,
          "durationTicks": 96,
          "midi": 59,
          "name": "B3",
          "ticks": 45660,
          "time": 159.65019,
          "velocity": 0.6299212598425197
        },
        {
          "duration": 0.3356640000000084,
          "durationTicks": 96,
          "midi": 61,
          "name": "C#4",
          "ticks": 45780,
          "time": 160.06977,
          "velocity": 0.6299212598425197
        },
        {
          "duration": 0.3356640000000084,
          "durationTicks": 96,
          "midi": 57,
          "name": "A3",
          "ticks": 45780,
          "time": 160.06977,
          "velocity": 0.6299212598425197
        },
        {
          "duration": 0.3356640000000084,
          "durationTicks": 96,
          "midi": 64,
          "name": "E4",
          "ticks": 45780,
          "time": 160.06977,
          "velocity": 0.6299212598425197
        },
        {
          "duration": 0.3356640000000084,
          "durationTicks": 96,
          "midi": 76,
          "name": "E5",
          "ticks": 45780,
          "time": 160.06977,
          "velocity": 0.6299212598425197
        },
        {
          "duration": 0.3356640000000084,
          "durationTicks": 96,
          "midi": 69,
          "name": "A4",
          "ticks": 45780,
          "time": 160.06977,
          "velocity": 0.6299212598425197
        },
        {
          "duration": 0.3356640000000084,
          "durationTicks": 96,
          "midi": 52,
          "name": "E3",
          "ticks": 45780,
          "time": 160.06977,
          "velocity": 0.6299212598425197
        },
        {
          "duration": 0.1678320000000042,
          "durationTicks": 48,
          "midi": 61,
          "name": "C#4",
          "ticks": 45900,
          "time": 160.48935,
          "velocity": 0.6299212598425197
        },
        {
          "duration": 0.1678320000000042,
          "durationTicks": 48,
          "midi": 52,
          "name": "E3",
          "ticks": 45900,
          "time": 160.48935,
          "velocity": 0.6299212598425197
        },
        {
          "duration": 0.1678320000000042,
          "durationTicks": 48,
          "midi": 69,
          "name": "A4",
          "ticks": 45900,
          "time": 160.48935,
          "velocity": 0.6299212598425197
        },
        {
          "duration": 0.1678320000000042,
          "durationTicks": 48,
          "midi": 76,
          "name": "E5",
          "ticks": 45900,
          "time": 160.48935,
          "velocity": 0.6299212598425197
        },
        {
          "duration": 0.1678320000000042,
          "durationTicks": 48,
          "midi": 57,
          "name": "A3",
          "ticks": 45900,
          "time": 160.48935,
          "velocity": 0.6299212598425197
        },
        {
          "duration": 0.1678320000000042,
          "durationTicks": 48,
          "midi": 64,
          "name": "E4",
          "ticks": 45900,
          "time": 160.48935,
          "velocity": 0.6299212598425197
        },
        {
          "duration": 0.3356640000000084,
          "durationTicks": 96,
          "midi": 69,
          "name": "A4",
          "ticks": 45960,
          "time": 160.69914,
          "velocity": 0.6299212598425197
        },
        {
          "duration": 0.3356640000000084,
          "durationTicks": 96,
          "midi": 57,
          "name": "A3",
          "ticks": 45960,
          "time": 160.69914,
          "velocity": 0.6299212598425197
        },
        {
          "duration": 0.3356640000000084,
          "durationTicks": 96,
          "midi": 52,
          "name": "E3",
          "ticks": 45960,
          "time": 160.69914,
          "velocity": 0.6299212598425197
        },
        {
          "duration": 0.3356640000000084,
          "durationTicks": 96,
          "midi": 76,
          "name": "E5",
          "ticks": 45960,
          "time": 160.69914,
          "velocity": 0.6299212598425197
        },
        {
          "duration": 0.3356640000000084,
          "durationTicks": 96,
          "midi": 64,
          "name": "E4",
          "ticks": 45960,
          "time": 160.69914,
          "velocity": 0.6299212598425197
        },
        {
          "duration": 0.3356640000000084,
          "durationTicks": 96,
          "midi": 61,
          "name": "C#4",
          "ticks": 45960,
          "time": 160.69914,
          "velocity": 0.6299212598425197
        },
        {
          "duration": 0.3356640000000084,
          "durationTicks": 96,
          "midi": 68,
          "name": "G#4",
          "ticks": 46080,
          "time": 161.11872,
          "velocity": 0.6299212598425197
        },
        {
          "duration": 0.3356640000000084,
          "durationTicks": 96,
          "midi": 59,
          "name": "B3",
          "ticks": 46080,
          "time": 161.11872,
          "velocity": 0.6299212598425197
        },
        {
          "duration": 0.3356640000000084,
          "durationTicks": 96,
          "midi": 76,
          "name": "E5",
          "ticks": 46080,
          "time": 161.11872,
          "velocity": 0.6299212598425197
        },
        {
          "duration": 0.3356640000000084,
          "durationTicks": 96,
          "midi": 71,
          "name": "B4",
          "ticks": 46080,
          "time": 161.11872,
          "velocity": 0.6299212598425197
        },
        {
          "duration": 0.3356640000000084,
          "durationTicks": 96,
          "midi": 52,
          "name": "E3",
          "ticks": 46080,
          "time": 161.11872,
          "velocity": 0.6299212598425197
        },
        {
          "duration": 0.3356640000000084,
          "durationTicks": 96,
          "midi": 64,
          "name": "E4",
          "ticks": 46080,
          "time": 161.11872,
          "velocity": 0.6299212598425197
        },
        {
          "duration": 4.0699260000000095,
          "durationTicks": 1164,
          "midi": 61,
          "name": "C#4",
          "ticks": 46260,
          "time": 161.74809,
          "velocity": 0.6299212598425197
        },
        {
          "duration": 4.0699260000000095,
          "durationTicks": 1164,
          "midi": 69,
          "name": "A4",
          "ticks": 46260,
          "time": 161.74809,
          "velocity": 0.6299212598425197
        },
        {
          "duration": 4.0699260000000095,
          "durationTicks": 1164,
          "midi": 52,
          "name": "E3",
          "ticks": 46260,
          "time": 161.74809,
          "velocity": 0.6299212598425197
        },
        {
          "duration": 4.0699260000000095,
          "durationTicks": 1164,
          "midi": 73,
          "name": "C#5",
          "ticks": 46260,
          "time": 161.74809,
          "velocity": 0.6299212598425197
        },
        {
          "duration": 4.0699260000000095,
          "durationTicks": 1164,
          "midi": 76,
          "name": "E5",
          "ticks": 46260,
          "time": 161.74809,
          "velocity": 0.6299212598425197
        },
        {
          "duration": 4.0699260000000095,
          "durationTicks": 1164,
          "midi": 64,
          "name": "E4",
          "ticks": 46260,
          "time": 161.74809,
          "velocity": 0.6299212598425197
        }
      ],
      "endOfTrackTicks": 47424
    },
    {
      "channel": 6,
      "controlChanges": {
        "7": [
          {
            "number": 7,
            "ticks": 0,
            "time": 0,
            "value": 0.16535433070866143
          },
          {
            "number": 7,
            "ticks": 0,
            "time": 0,
            "value": 0.16535433070866143
          },
          {
            "number": 7,
            "ticks": 0,
            "time": 0,
            "value": 0.16535433070866143
          },
          {
            "number": 7,
            "ticks": 0,
            "time": 0,
            "value": 0.16535433070866143
          },
          {
            "number": 7,
            "ticks": 0,
            "time": 0,
            "value": 0.16535433070866143
          },
          {
            "number": 7,
            "ticks": 0,
            "time": 0,
            "value": 0.16535433070866143
          },
          {
            "number": 7,
            "ticks": 0,
            "time": 0,
            "value": 0.16535433070866143
          },
          {
            "number": 7,
            "ticks": 0,
            "time": 0,
            "value": 0.16535433070866143
          }
        ]
      },
      "pitchBends": [],
      "instrument": {
        "family": "guitar",
        "number": 25,
        "name": "acoustic guitar (steel)"
      },
      "name": "Steel Guitar 2 Strum",
      "notes": [
        {
          "duration": 0.5874120000000076,
          "durationTicks": 168,
          "midi": 52,
          "name": "E3",
          "ticks": 11520,
          "time": 40.27968,
          "velocity": 0.6299212598425197
        },
        {
          "duration": 0.5874120000000076,
          "durationTicks": 168,
          "midi": 59,
          "name": "B3",
          "ticks": 11520,
          "time": 40.27968,
          "velocity": 0.6299212598425197
        },
        {
          "duration": 0.5874120000000076,
          "durationTicks": 168,
          "midi": 68,
          "name": "G#4",
          "ticks": 11520,
          "time": 40.27968,
          "velocity": 0.6299212598425197
        },
        {
          "duration": 0.5874120000000076,
          "durationTicks": 168,
          "midi": 64,
          "name": "E4",
          "ticks": 11520,
          "time": 40.27968,
          "velocity": 0.6299212598425197
        },
        {
          "duration": 0.5874120000000076,
          "durationTicks": 168,
          "midi": 76,
          "name": "E5",
          "ticks": 11520,
          "time": 40.27968,
          "velocity": 0.6299212598425197
        },
        {
          "duration": 0.5874120000000076,
          "durationTicks": 168,
          "midi": 71,
          "name": "B4",
          "ticks": 11520,
          "time": 40.27968,
          "velocity": 0.6299212598425197
        },
        {
          "duration": 1.132866,
          "durationTicks": 324,
          "midi": 61,
          "name": "C#4",
          "ticks": 11700,
          "time": 40.90905,
          "velocity": 0.6299212598425197
        },
        {
          "duration": 0.10489499999999907,
          "durationTicks": 30,
          "midi": 52,
          "name": "E3",
          "ticks": 11700,
          "time": 40.90905,
          "velocity": 0.6299212598425197
        },
        {
          "duration": 1.132866,
          "durationTicks": 324,
          "midi": 57,
          "name": "A3",
          "ticks": 11700,
          "time": 40.90905,
          "velocity": 0.6299212598425197
        },
        {
          "duration": 0.10489499999999907,
          "durationTicks": 30,
          "midi": 76,
          "name": "E5",
          "ticks": 11700,
          "time": 40.90905,
          "velocity": 0.6299212598425197
        },
        {
          "duration": 0.10489499999999907,
          "durationTicks": 30,
          "midi": 64,
          "name": "E4",
          "ticks": 11700,
          "time": 40.90905,
          "velocity": 0.6299212598425197
        },
        {
          "duration": 1.132866,
          "durationTicks": 324,
          "midi": 69,
          "name": "A4",
          "ticks": 11700,
          "time": 40.90905,
          "velocity": 0.6299212598425197
        },
        {
          "duration": 0.5454539999999994,
          "durationTicks": 156,
          "midi": 71,
          "name": "B4",
          "ticks": 12000,
          "time": 41.958,
          "velocity": 0.6299212598425197
        },
        {
          "duration": 0.0839160000000021,
          "durationTicks": 24,
          "midi": 76,
          "name": "E5",
          "ticks": 12000,
          "time": 41.958,
          "velocity": 0.6299212598425197
        },
        {
          "duration": 0.0839160000000021,
          "durationTicks": 24,
          "midi": 64,
          "name": "E4",
          "ticks": 12000,
          "time": 41.958,
          "velocity": 0.6299212598425197
        },
        {
          "duration": 0.5454539999999994,
          "durationTicks": 156,
          "midi": 59,
          "name": "B3",
          "ticks": 12000,
          "time": 41.958,
          "velocity": 0.6299212598425197
        },
        {
          "duration": 0.0839160000000021,
          "durationTicks": 24,
          "midi": 52,
          "name": "E3",
          "ticks": 12000,
          "time": 41.958,
          "velocity": 0.6299212598425197
        },
        {
          "duration": 0.5454539999999994,
          "durationTicks": 156,
          "midi": 68,
          "name": "G#4",
          "ticks": 12000,
          "time": 41.958,
          "velocity": 0.6299212598425197
        },
        {
          "duration": 0.9650340000000028,
          "durationTicks": 276,
          "midi": 61,
          "name": "C#4",
          "ticks": 12180,
          "time": 42.58737,
          "velocity": 0.6299212598425197
        },
        {
          "duration": 0.9650340000000028,
          "durationTicks": 276,
          "midi": 52,
          "name": "E3",
          "ticks": 12180,
          "time": 42.58737,
          "velocity": 0.6299212598425197
        },
        {
          "duration": 0.9650340000000028,
          "durationTicks": 276,
          "midi": 57,
          "name": "A3",
          "ticks": 12180,
          "time": 42.58737,
          "velocity": 0.6299212598425197
        },
        {
          "duration": 0.9650340000000028,
          "durationTicks": 276,
          "midi": 69,
          "name": "A4",
          "ticks": 12180,
          "time": 42.58737,
          "velocity": 0.6299212598425197
        },
        {
          "duration": 0.9650340000000028,
          "durationTicks": 276,
          "midi": 64,
          "name": "E4",
          "ticks": 12180,
          "time": 42.58737,
          "velocity": 0.6299212598425197
        },
        {
          "duration": 0.9650340000000028,
          "durationTicks": 276,
          "midi": 76,
          "name": "E5",
          "ticks": 12180,
          "time": 42.58737,
          "velocity": 0.6299212598425197
        },
        {
          "duration": 0.5874120000000076,
          "durationTicks": 168,
          "midi": 52,
          "name": "E3",
          "ticks": 12480,
          "time": 43.63632,
          "velocity": 0.6299212598425197
        },
        {
          "duration": 0.5874120000000076,
          "durationTicks": 168,
          "midi": 68,
          "name": "G#4",
          "ticks": 12480,
          "time": 43.63632,
          "velocity": 0.6299212598425197
        },
        {
          "duration": 0.5874120000000076,
          "durationTicks": 168,
          "midi": 59,
          "name": "B3",
          "ticks": 12480,
          "time": 43.63632,
          "velocity": 0.6299212598425197
        },
        {
          "duration": 0.5874120000000076,
          "durationTicks": 168,
          "midi": 71,
          "name": "B4",
          "ticks": 12480,
          "time": 43.63632,
          "velocity": 0.6299212598425197
        },
        {
          "duration": 0.5874120000000076,
          "durationTicks": 168,
          "midi": 76,
          "name": "E5",
          "ticks": 12480,
          "time": 43.63632,
          "velocity": 0.6299212598425197
        },
        {
          "duration": 0.5874120000000076,
          "durationTicks": 168,
          "midi": 64,
          "name": "E4",
          "ticks": 12480,
          "time": 43.63632,
          "velocity": 0.6299212598425197
        },
        {
          "duration": 0.10489499999999907,
          "durationTicks": 30,
          "midi": 64,
          "name": "E4",
          "ticks": 12660,
          "time": 44.26569,
          "velocity": 0.6299212598425197
        },
        {
          "duration": 0.10489499999999907,
          "durationTicks": 30,
          "midi": 52,
          "name": "E3",
          "ticks": 12660,
          "time": 44.26569,
          "velocity": 0.6299212598425197
        },
        {
          "duration": 1.132866,
          "durationTicks": 324,
          "midi": 61,
          "name": "C#4",
          "ticks": 12660,
          "time": 44.26569,
          "velocity": 0.6299212598425197
        },
        {
          "duration": 1.132866,
          "durationTicks": 324,
          "midi": 57,
          "name": "A3",
          "ticks": 12660,
          "time": 44.26569,
          "velocity": 0.6299212598425197
        },
        {
          "duration": 0.10489499999999907,
          "durationTicks": 30,
          "midi": 76,
          "name": "E5",
          "ticks": 12660,
          "time": 44.26569,
          "velocity": 0.6299212598425197
        },
        {
          "duration": 1.132866,
          "durationTicks": 324,
          "midi": 69,
          "name": "A4",
          "ticks": 12660,
          "time": 44.26569,
          "velocity": 0.6299212598425197
        },
        {
          "duration": 0.5454539999999923,
          "durationTicks": 156,
          "midi": 71,
          "name": "B4",
          "ticks": 12960,
          "time": 45.314640000000004,
          "velocity": 0.6299212598425197
        },
        {
          "duration": 0.083915999999995,
          "durationTicks": 24,
          "midi": 76,
          "name": "E5",
          "ticks": 12960,
          "time": 45.314640000000004,
          "velocity": 0.6299212598425197
        },
        {
          "duration": 0.5454539999999923,
          "durationTicks": 156,
          "midi": 59,
          "name": "B3",
          "ticks": 12960,
          "time": 45.314640000000004,
          "velocity": 0.6299212598425197
        },
        {
          "duration": 0.083915999999995,
          "durationTicks": 24,
          "midi": 64,
          "name": "E4",
          "ticks": 12960,
          "time": 45.314640000000004,
          "velocity": 0.6299212598425197
        },
        {
          "duration": 0.083915999999995,
          "durationTicks": 24,
          "midi": 52,
          "name": "E3",
          "ticks": 12960,
          "time": 45.314640000000004,
          "velocity": 0.6299212598425197
        },
        {
          "duration": 0.5454539999999923,
          "durationTicks": 156,
          "midi": 68,
          "name": "G#4",
          "ticks": 12960,
          "time": 45.314640000000004,
          "velocity": 0.6299212598425197
        },
        {
          "duration": 0.9650340000000028,
          "durationTicks": 276,
          "midi": 64,
          "name": "E4",
          "ticks": 13140,
          "time": 45.94401,
          "velocity": 0.6299212598425197
        },
        {
          "duration": 0.9650340000000028,
          "durationTicks": 276,
          "midi": 76,
          "name": "E5",
          "ticks": 13140,
          "time": 45.94401,
          "velocity": 0.6299212598425197
        },
        {
          "duration": 0.9650340000000028,
          "durationTicks": 276,
          "midi": 61,
          "name": "C#4",
          "ticks": 13140,
          "time": 45.94401,
          "velocity": 0.6299212598425197
        },
        {
          "duration": 0.9650340000000028,
          "durationTicks": 276,
          "midi": 52,
          "name": "E3",
          "ticks": 13140,
          "time": 45.94401,
          "velocity": 0.6299212598425197
        },
        {
          "duration": 0.9650340000000028,
          "durationTicks": 276,
          "midi": 57,
          "name": "A3",
          "ticks": 13140,
          "time": 45.94401,
          "velocity": 0.6299212598425197
        },
        {
          "duration": 0.9650340000000028,
          "durationTicks": 276,
          "midi": 69,
          "name": "A4",
          "ticks": 13140,
          "time": 45.94401,
          "velocity": 0.6299212598425197
        },
        {
          "duration": 0.5874120000000005,
          "durationTicks": 168,
          "midi": 52,
          "name": "E3",
          "ticks": 13440,
          "time": 46.992960000000004,
          "velocity": 0.6299212598425197
        },
        {
          "duration": 0.5874120000000005,
          "durationTicks": 168,
          "midi": 68,
          "name": "G#4",
          "ticks": 13440,
          "time": 46.992960000000004,
          "velocity": 0.6299212598425197
        },
        {
          "duration": 0.5874120000000005,
          "durationTicks": 168,
          "midi": 59,
          "name": "B3",
          "ticks": 13440,
          "time": 46.992960000000004,
          "velocity": 0.6299212598425197
        },
        {
          "duration": 0.5874120000000005,
          "durationTicks": 168,
          "midi": 71,
          "name": "B4",
          "ticks": 13440,
          "time": 46.992960000000004,
          "velocity": 0.6299212598425197
        },
        {
          "duration": 0.5874120000000005,
          "durationTicks": 168,
          "midi": 76,
          "name": "E5",
          "ticks": 13440,
          "time": 46.992960000000004,
          "velocity": 0.6299212598425197
        },
        {
          "duration": 0.5874120000000005,
          "durationTicks": 168,
          "midi": 64,
          "name": "E4",
          "ticks": 13440,
          "time": 46.992960000000004,
          "velocity": 0.6299212598425197
        },
        {
          "duration": 0.10489500000000618,
          "durationTicks": 30,
          "midi": 64,
          "name": "E4",
          "ticks": 13620,
          "time": 47.62233,
          "velocity": 0.6299212598425197
        },
        {
          "duration": 0.10489500000000618,
          "durationTicks": 30,
          "midi": 52,
          "name": "E3",
          "ticks": 13620,
          "time": 47.62233,
          "velocity": 0.6299212598425197
        },
        {
          "duration": 1.132866000000007,
          "durationTicks": 324,
          "midi": 61,
          "name": "C#4",
          "ticks": 13620,
          "time": 47.62233,
          "velocity": 0.6299212598425197
        },
        {
          "duration": 1.132866000000007,
          "durationTicks": 324,
          "midi": 57,
          "name": "A3",
          "ticks": 13620,
          "time": 47.62233,
          "velocity": 0.6299212598425197
        },
        {
          "duration": 0.10489500000000618,
          "durationTicks": 30,
          "midi": 76,
          "name": "E5",
          "ticks": 13620,
          "time": 47.62233,
          "velocity": 0.6299212598425197
        },
        {
          "duration": 1.132866000000007,
          "durationTicks": 324,
          "midi": 69,
          "name": "A4",
          "ticks": 13620,
          "time": 47.62233,
          "velocity": 0.6299212598425197
        },
        {
          "duration": 0.5454539999999994,
          "durationTicks": 156,
          "midi": 71,
          "name": "B4",
          "ticks": 13920,
          "time": 48.67128,
          "velocity": 0.6299212598425197
        },
        {
          "duration": 0.0839160000000021,
          "durationTicks": 24,
          "midi": 76,
          "name": "E5",
          "ticks": 13920,
          "time": 48.67128,
          "velocity": 0.6299212598425197
        },
        {
          "duration": 0.5454539999999994,
          "durationTicks": 156,
          "midi": 59,
          "name": "B3",
          "ticks": 13920,
          "time": 48.67128,
          "velocity": 0.6299212598425197
        },
        {
          "duration": 0.0839160000000021,
          "durationTicks": 24,
          "midi": 64,
          "name": "E4",
          "ticks": 13920,
          "time": 48.67128,
          "velocity": 0.6299212598425197
        },
        {
          "duration": 0.0839160000000021,
          "durationTicks": 24,
          "midi": 52,
          "name": "E3",
          "ticks": 13920,
          "time": 48.67128,
          "velocity": 0.6299212598425197
        },
        {
          "duration": 0.5454539999999994,
          "durationTicks": 156,
          "midi": 68,
          "name": "G#4",
          "ticks": 13920,
          "time": 48.67128,
          "velocity": 0.6299212598425197
        },
        {
          "duration": 0.9650339999999957,
          "durationTicks": 276,
          "midi": 76,
          "name": "E5",
          "ticks": 14100,
          "time": 49.300650000000005,
          "velocity": 0.6299212598425197
        },
        {
          "duration": 0.9650339999999957,
          "durationTicks": 276,
          "midi": 61,
          "name": "C#4",
          "ticks": 14100,
          "time": 49.300650000000005,
          "velocity": 0.6299212598425197
        },
        {
          "duration": 0.9650339999999957,
          "durationTicks": 276,
          "midi": 52,
          "name": "E3",
          "ticks": 14100,
          "time": 49.300650000000005,
          "velocity": 0.6299212598425197
        },
        {
          "duration": 0.9650339999999957,
          "durationTicks": 276,
          "midi": 57,
          "name": "A3",
          "ticks": 14100,
          "time": 49.300650000000005,
          "velocity": 0.6299212598425197
        },
        {
          "duration": 0.9650339999999957,
          "durationTicks": 276,
          "midi": 69,
          "name": "A4",
          "ticks": 14100,
          "time": 49.300650000000005,
          "velocity": 0.6299212598425197
        },
        {
          "duration": 0.9650339999999957,
          "durationTicks": 276,
          "midi": 64,
          "name": "E4",
          "ticks": 14100,
          "time": 49.300650000000005,
          "velocity": 0.6299212598425197
        },
        {
          "duration": 0.5874120000000005,
          "durationTicks": 168,
          "midi": 52,
          "name": "E3",
          "ticks": 14400,
          "time": 50.3496,
          "velocity": 0.6299212598425197
        },
        {
          "duration": 0.5874120000000005,
          "durationTicks": 168,
          "midi": 68,
          "name": "G#4",
          "ticks": 14400,
          "time": 50.3496,
          "velocity": 0.6299212598425197
        },
        {
          "duration": 0.5874120000000005,
          "durationTicks": 168,
          "midi": 59,
          "name": "B3",
          "ticks": 14400,
          "time": 50.3496,
          "velocity": 0.6299212598425197
        },
        {
          "duration": 0.5874120000000005,
          "durationTicks": 168,
          "midi": 71,
          "name": "B4",
          "ticks": 14400,
          "time": 50.3496,
          "velocity": 0.6299212598425197
        },
        {
          "duration": 0.5874120000000005,
          "durationTicks": 168,
          "midi": 76,
          "name": "E5",
          "ticks": 14400,
          "time": 50.3496,
          "velocity": 0.6299212598425197
        },
        {
          "duration": 0.5874120000000005,
          "durationTicks": 168,
          "midi": 64,
          "name": "E4",
          "ticks": 14400,
          "time": 50.3496,
          "velocity": 0.6299212598425197
        },
        {
          "duration": 0.10489499999999907,
          "durationTicks": 30,
          "midi": 76,
          "name": "E5",
          "ticks": 14580,
          "time": 50.978970000000004,
          "velocity": 0.6299212598425197
        },
        {
          "duration": 1.132866,
          "durationTicks": 324,
          "midi": 61,
          "name": "C#4",
          "ticks": 14580,
          "time": 50.978970000000004,
          "velocity": 0.6299212598425197
        },
        {
          "duration": 0.10489499999999907,
          "durationTicks": 30,
          "midi": 52,
          "name": "E3",
          "ticks": 14580,
          "time": 50.978970000000004,
          "velocity": 0.6299212598425197
        },
        {
          "duration": 1.132866,
          "durationTicks": 324,
          "midi": 57,
          "name": "A3",
          "ticks": 14580,
          "time": 50.978970000000004,
          "velocity": 0.6299212598425197
        },
        {
          "duration": 1.132866,
          "durationTicks": 324,
          "midi": 69,
          "name": "A4",
          "ticks": 14580,
          "time": 50.978970000000004,
          "velocity": 0.6299212598425197
        },
        {
          "duration": 0.10489499999999907,
          "durationTicks": 30,
          "midi": 64,
          "name": "E4",
          "ticks": 14580,
          "time": 50.978970000000004,
          "velocity": 0.6299212598425197
        },
        {
          "duration": 0.5454539999999994,
          "durationTicks": 156,
          "midi": 71,
          "name": "B4",
          "ticks": 14880,
          "time": 52.02792,
          "velocity": 0.6299212598425197
        },
        {
          "duration": 0.0839160000000021,
          "durationTicks": 24,
          "midi": 76,
          "name": "E5",
          "ticks": 14880,
          "time": 52.02792,
          "velocity": 0.6299212598425197
        },
        {
          "duration": 0.5454539999999994,
          "durationTicks": 156,
          "midi": 59,
          "name": "B3",
          "ticks": 14880,
          "time": 52.02792,
          "velocity": 0.6299212598425197
        },
        {
          "duration": 0.0839160000000021,
          "durationTicks": 24,
          "midi": 64,
          "name": "E4",
          "ticks": 14880,
          "time": 52.02792,
          "velocity": 0.6299212598425197
        },
        {
          "duration": 0.0839160000000021,
          "durationTicks": 24,
          "midi": 52,
          "name": "E3",
          "ticks": 14880,
          "time": 52.02792,
          "velocity": 0.6299212598425197
        },
        {
          "duration": 0.5454539999999994,
          "durationTicks": 156,
          "midi": 68,
          "name": "G#4",
          "ticks": 14880,
          "time": 52.02792,
          "velocity": 0.6299212598425197
        },
        {
          "duration": 0.9650339999999957,
          "durationTicks": 276,
          "midi": 64,
          "name": "E4",
          "ticks": 15060,
          "time": 52.65729,
          "velocity": 0.6299212598425197
        },
        {
          "duration": 0.9650339999999957,
          "durationTicks": 276,
          "midi": 76,
          "name": "E5",
          "ticks": 15060,
          "time": 52.65729,
          "velocity": 0.6299212598425197
        },
        {
          "duration": 0.9650339999999957,
          "durationTicks": 276,
          "midi": 61,
          "name": "C#4",
          "ticks": 15060,
          "time": 52.65729,
          "velocity": 0.6299212598425197
        },
        {
          "duration": 0.9650339999999957,
          "durationTicks": 276,
          "midi": 52,
          "name": "E3",
          "ticks": 15060,
          "time": 52.65729,
          "velocity": 0.6299212598425197
        },
        {
          "duration": 0.9650339999999957,
          "durationTicks": 276,
          "midi": 57,
          "name": "A3",
          "ticks": 15060,
          "time": 52.65729,
          "velocity": 0.6299212598425197
        },
        {
          "duration": 0.9650339999999957,
          "durationTicks": 276,
          "midi": 69,
          "name": "A4",
          "ticks": 15060,
          "time": 52.65729,
          "velocity": 0.6299212598425197
        },
        {
          "duration": 0.5874120000000005,
          "durationTicks": 168,
          "midi": 52,
          "name": "E3",
          "ticks": 15360,
          "time": 53.70624,
          "velocity": 0.6299212598425197
        },
        {
          "duration": 0.5874120000000005,
          "durationTicks": 168,
          "midi": 64,
          "name": "E4",
          "ticks": 15360,
          "time": 53.70624,
          "velocity": 0.6299212598425197
        },
        {
          "duration": 0.5874120000000005,
          "durationTicks": 168,
          "midi": 68,
          "name": "G#4",
          "ticks": 15360,
          "time": 53.70624,
          "velocity": 0.6299212598425197
        },
        {
          "duration": 0.5874120000000005,
          "durationTicks": 168,
          "midi": 59,
          "name": "B3",
          "ticks": 15360,
          "time": 53.70624,
          "velocity": 0.6299212598425197
        },
        {
          "duration": 0.5874120000000005,
          "durationTicks": 168,
          "midi": 71,
          "name": "B4",
          "ticks": 15360,
          "time": 53.70624,
          "velocity": 0.6299212598425197
        },
        {
          "duration": 0.5874120000000005,
          "durationTicks": 168,
          "midi": 76,
          "name": "E5",
          "ticks": 15360,
          "time": 53.70624,
          "velocity": 0.6299212598425197
        },
        {
          "duration": 0.10489499999999907,
          "durationTicks": 30,
          "midi": 64,
          "name": "E4",
          "ticks": 15540,
          "time": 54.33561,
          "velocity": 0.6299212598425197
        },
        {
          "duration": 0.10489499999999907,
          "durationTicks": 30,
          "midi": 52,
          "name": "E3",
          "ticks": 15540,
          "time": 54.33561,
          "velocity": 0.6299212598425197
        },
        {
          "duration": 1.1328659999999928,
          "durationTicks": 324,
          "midi": 61,
          "name": "C#4",
          "ticks": 15540,
          "time": 54.33561,
          "velocity": 0.6299212598425197
        },
        {
          "duration": 1.1328659999999928,
          "durationTicks": 324,
          "midi": 57,
          "name": "A3",
          "ticks": 15540,
          "time": 54.33561,
          "velocity": 0.6299212598425197
        },
        {
          "duration": 0.10489499999999907,
          "durationTicks": 30,
          "midi": 76,
          "name": "E5",
          "ticks": 15540,
          "time": 54.33561,
          "velocity": 0.6299212598425197
        },
        {
          "duration": 1.1328659999999928,
          "durationTicks": 324,
          "midi": 69,
          "name": "A4",
          "ticks": 15540,
          "time": 54.33561,
          "velocity": 0.6299212598425197
        },
        {
          "duration": 0.5454540000000065,
          "durationTicks": 156,
          "midi": 71,
          "name": "B4",
          "ticks": 15840,
          "time": 55.38456,
          "velocity": 0.6299212598425197
        },
        {
          "duration": 0.083915999999995,
          "durationTicks": 24,
          "midi": 76,
          "name": "E5",
          "ticks": 15840,
          "time": 55.38456,
          "velocity": 0.6299212598425197
        },
        {
          "duration": 0.5454540000000065,
          "durationTicks": 156,
          "midi": 59,
          "name": "B3",
          "ticks": 15840,
          "time": 55.38456,
          "velocity": 0.6299212598425197
        },
        {
          "duration": 0.083915999999995,
          "durationTicks": 24,
          "midi": 64,
          "name": "E4",
          "ticks": 15840,
          "time": 55.38456,
          "velocity": 0.6299212598425197
        },
        {
          "duration": 0.083915999999995,
          "durationTicks": 24,
          "midi": 52,
          "name": "E3",
          "ticks": 15840,
          "time": 55.38456,
          "velocity": 0.6299212598425197
        },
        {
          "duration": 0.5454540000000065,
          "durationTicks": 156,
          "midi": 68,
          "name": "G#4",
          "ticks": 15840,
          "time": 55.38456,
          "velocity": 0.6299212598425197
        },
        {
          "duration": 0.9650340000000028,
          "durationTicks": 276,
          "midi": 64,
          "name": "E4",
          "ticks": 16020,
          "time": 56.01393,
          "velocity": 0.6299212598425197
        },
        {
          "duration": 0.9650340000000028,
          "durationTicks": 276,
          "midi": 76,
          "name": "E5",
          "ticks": 16020,
          "time": 56.01393,
          "velocity": 0.6299212598425197
        },
        {
          "duration": 0.9650340000000028,
          "durationTicks": 276,
          "midi": 61,
          "name": "C#4",
          "ticks": 16020,
          "time": 56.01393,
          "velocity": 0.6299212598425197
        },
        {
          "duration": 0.9650340000000028,
          "durationTicks": 276,
          "midi": 52,
          "name": "E3",
          "ticks": 16020,
          "time": 56.01393,
          "velocity": 0.6299212598425197
        },
        {
          "duration": 0.9650340000000028,
          "durationTicks": 276,
          "midi": 57,
          "name": "A3",
          "ticks": 16020,
          "time": 56.01393,
          "velocity": 0.6299212598425197
        },
        {
          "duration": 0.9650340000000028,
          "durationTicks": 276,
          "midi": 69,
          "name": "A4",
          "ticks": 16020,
          "time": 56.01393,
          "velocity": 0.6299212598425197
        },
        {
          "duration": 0.5874120000000005,
          "durationTicks": 168,
          "midi": 52,
          "name": "E3",
          "ticks": 16320,
          "time": 57.06288,
          "velocity": 0.6299212598425197
        },
        {
          "duration": 0.5874120000000005,
          "durationTicks": 168,
          "midi": 64,
          "name": "E4",
          "ticks": 16320,
          "time": 57.06288,
          "velocity": 0.6299212598425197
        },
        {
          "duration": 0.5874120000000005,
          "durationTicks": 168,
          "midi": 68,
          "name": "G#4",
          "ticks": 16320,
          "time": 57.06288,
          "velocity": 0.6299212598425197
        },
        {
          "duration": 0.5874120000000005,
          "durationTicks": 168,
          "midi": 59,
          "name": "B3",
          "ticks": 16320,
          "time": 57.06288,
          "velocity": 0.6299212598425197
        },
        {
          "duration": 0.5874120000000005,
          "durationTicks": 168,
          "midi": 71,
          "name": "B4",
          "ticks": 16320,
          "time": 57.06288,
          "velocity": 0.6299212598425197
        },
        {
          "duration": 0.5874120000000005,
          "durationTicks": 168,
          "midi": 76,
          "name": "E5",
          "ticks": 16320,
          "time": 57.06288,
          "velocity": 0.6299212598425197
        },
        {
          "duration": 0.10489499999999907,
          "durationTicks": 30,
          "midi": 64,
          "name": "E4",
          "ticks": 16500,
          "time": 57.69225,
          "velocity": 0.6299212598425197
        },
        {
          "duration": 0.10489499999999907,
          "durationTicks": 30,
          "midi": 52,
          "name": "E3",
          "ticks": 16500,
          "time": 57.69225,
          "velocity": 0.6299212598425197
        },
        {
          "duration": 1.1328659999999928,
          "durationTicks": 324,
          "midi": 61,
          "name": "C#4",
          "ticks": 16500,
          "time": 57.69225,
          "velocity": 0.6299212598425197
        },
        {
          "duration": 1.1328659999999928,
          "durationTicks": 324,
          "midi": 57,
          "name": "A3",
          "ticks": 16500,
          "time": 57.69225,
          "velocity": 0.6299212598425197
        },
        {
          "duration": 0.10489499999999907,
          "durationTicks": 30,
          "midi": 76,
          "name": "E5",
          "ticks": 16500,
          "time": 57.69225,
          "velocity": 0.6299212598425197
        },
        {
          "duration": 1.1328659999999928,
          "durationTicks": 324,
          "midi": 69,
          "name": "A4",
          "ticks": 16500,
          "time": 57.69225,
          "velocity": 0.6299212598425197
        },
        {
          "duration": 0.5454540000000065,
          "durationTicks": 156,
          "midi": 71,
          "name": "B4",
          "ticks": 16800,
          "time": 58.7412,
          "velocity": 0.6299212598425197
        },
        {
          "duration": 0.083915999999995,
          "durationTicks": 24,
          "midi": 76,
          "name": "E5",
          "ticks": 16800,
          "time": 58.7412,
          "velocity": 0.6299212598425197
        },
        {
          "duration": 0.5454540000000065,
          "durationTicks": 156,
          "midi": 59,
          "name": "B3",
          "ticks": 16800,
          "time": 58.7412,
          "velocity": 0.6299212598425197
        },
        {
          "duration": 0.083915999999995,
          "durationTicks": 24,
          "midi": 64,
          "name": "E4",
          "ticks": 16800,
          "time": 58.7412,
          "velocity": 0.6299212598425197
        },
        {
          "duration": 0.083915999999995,
          "durationTicks": 24,
          "midi": 52,
          "name": "E3",
          "ticks": 16800,
          "time": 58.7412,
          "velocity": 0.6299212598425197
        },
        {
          "duration": 0.5454540000000065,
          "durationTicks": 156,
          "midi": 68,
          "name": "G#4",
          "ticks": 16800,
          "time": 58.7412,
          "velocity": 0.6299212598425197
        },
        {
          "duration": 0.9650340000000028,
          "durationTicks": 276,
          "midi": 64,
          "name": "E4",
          "ticks": 16980,
          "time": 59.37057,
          "velocity": 0.6299212598425197
        },
        {
          "duration": 0.9650340000000028,
          "durationTicks": 276,
          "midi": 76,
          "name": "E5",
          "ticks": 16980,
          "time": 59.37057,
          "velocity": 0.6299212598425197
        },
        {
          "duration": 0.9650340000000028,
          "durationTicks": 276,
          "midi": 61,
          "name": "C#4",
          "ticks": 16980,
          "time": 59.37057,
          "velocity": 0.6299212598425197
        },
        {
          "duration": 0.9650340000000028,
          "durationTicks": 276,
          "midi": 52,
          "name": "E3",
          "ticks": 16980,
          "time": 59.37057,
          "velocity": 0.6299212598425197
        },
        {
          "duration": 0.9650340000000028,
          "durationTicks": 276,
          "midi": 57,
          "name": "A3",
          "ticks": 16980,
          "time": 59.37057,
          "velocity": 0.6299212598425197
        },
        {
          "duration": 0.9650340000000028,
          "durationTicks": 276,
          "midi": 69,
          "name": "A4",
          "ticks": 16980,
          "time": 59.37057,
          "velocity": 0.6299212598425197
        },
        {
          "duration": 0.5874120000000076,
          "durationTicks": 168,
          "midi": 52,
          "name": "E3",
          "ticks": 17280,
          "time": 60.41952,
          "velocity": 0.6299212598425197
        },
        {
          "duration": 0.5874120000000076,
          "durationTicks": 168,
          "midi": 64,
          "name": "E4",
          "ticks": 17280,
          "time": 60.41952,
          "velocity": 0.6299212598425197
        },
        {
          "duration": 0.5874120000000076,
          "durationTicks": 168,
          "midi": 68,
          "name": "G#4",
          "ticks": 17280,
          "time": 60.41952,
          "velocity": 0.6299212598425197
        },
        {
          "duration": 0.5874120000000076,
          "durationTicks": 168,
          "midi": 59,
          "name": "B3",
          "ticks": 17280,
          "time": 60.41952,
          "velocity": 0.6299212598425197
        },
        {
          "duration": 0.5874120000000076,
          "durationTicks": 168,
          "midi": 71,
          "name": "B4",
          "ticks": 17280,
          "time": 60.41952,
          "velocity": 0.6299212598425197
        },
        {
          "duration": 0.5874120000000076,
          "durationTicks": 168,
          "midi": 76,
          "name": "E5",
          "ticks": 17280,
          "time": 60.41952,
          "velocity": 0.6299212598425197
        },
        {
          "duration": 0.10489499999999907,
          "durationTicks": 30,
          "midi": 64,
          "name": "E4",
          "ticks": 17460,
          "time": 61.04889,
          "velocity": 0.6299212598425197
        },
        {
          "duration": 0.10489499999999907,
          "durationTicks": 30,
          "midi": 52,
          "name": "E3",
          "ticks": 17460,
          "time": 61.04889,
          "velocity": 0.6299212598425197
        },
        {
          "duration": 1.132866,
          "durationTicks": 324,
          "midi": 61,
          "name": "C#4",
          "ticks": 17460,
          "time": 61.04889,
          "velocity": 0.6299212598425197
        },
        {
          "duration": 1.132866,
          "durationTicks": 324,
          "midi": 57,
          "name": "A3",
          "ticks": 17460,
          "time": 61.04889,
          "velocity": 0.6299212598425197
        },
        {
          "duration": 0.10489499999999907,
          "durationTicks": 30,
          "midi": 76,
          "name": "E5",
          "ticks": 17460,
          "time": 61.04889,
          "velocity": 0.6299212598425197
        },
        {
          "duration": 1.132866,
          "durationTicks": 324,
          "midi": 69,
          "name": "A4",
          "ticks": 17460,
          "time": 61.04889,
          "velocity": 0.6299212598425197
        },
        {
          "duration": 0.5454540000000065,
          "durationTicks": 156,
          "midi": 68,
          "name": "G#4",
          "ticks": 17760,
          "time": 62.09784,
          "velocity": 0.6299212598425197
        },
        {
          "duration": 0.5454540000000065,
          "durationTicks": 156,
          "midi": 71,
          "name": "B4",
          "ticks": 17760,
          "time": 62.09784,
          "velocity": 0.6299212598425197
        },
        {
          "duration": 0.0839160000000021,
          "durationTicks": 24,
          "midi": 76,
          "name": "E5",
          "ticks": 17760,
          "time": 62.09784,
          "velocity": 0.6299212598425197
        },
        {
          "duration": 0.0839160000000021,
          "durationTicks": 24,
          "midi": 64,
          "name": "E4",
          "ticks": 17760,
          "time": 62.09784,
          "velocity": 0.6299212598425197
        },
        {
          "duration": 0.0839160000000021,
          "durationTicks": 24,
          "midi": 52,
          "name": "E3",
          "ticks": 17760,
          "time": 62.09784,
          "velocity": 0.6299212598425197
        },
        {
          "duration": 0.5454540000000065,
          "durationTicks": 156,
          "midi": 59,
          "name": "B3",
          "ticks": 17760,
          "time": 62.09784,
          "velocity": 0.6299212598425197
        },
        {
          "duration": 0.9650340000000099,
          "durationTicks": 276,
          "midi": 69,
          "name": "A4",
          "ticks": 17940,
          "time": 62.72721,
          "velocity": 0.6299212598425197
        },
        {
          "duration": 0.9650340000000099,
          "durationTicks": 276,
          "midi": 57,
          "name": "A3",
          "ticks": 17940,
          "time": 62.72721,
          "velocity": 0.6299212598425197
        },
        {
          "duration": 0.9650340000000099,
          "durationTicks": 276,
          "midi": 76,
          "name": "E5",
          "ticks": 17940,
          "time": 62.72721,
          "velocity": 0.6299212598425197
        },
        {
          "duration": 0.9650340000000099,
          "durationTicks": 276,
          "midi": 61,
          "name": "C#4",
          "ticks": 17940,
          "time": 62.72721,
          "velocity": 0.6299212598425197
        },
        {
          "duration": 0.9650340000000099,
          "durationTicks": 276,
          "midi": 52,
          "name": "E3",
          "ticks": 17940,
          "time": 62.72721,
          "velocity": 0.6299212598425197
        },
        {
          "duration": 0.9650340000000099,
          "durationTicks": 276,
          "midi": 64,
          "name": "E4",
          "ticks": 17940,
          "time": 62.72721,
          "velocity": 0.6299212598425197
        },
        {
          "duration": 0.5874120000000005,
          "durationTicks": 168,
          "midi": 52,
          "name": "E3",
          "ticks": 18240,
          "time": 63.776160000000004,
          "velocity": 0.6299212598425197
        },
        {
          "duration": 0.5874120000000005,
          "durationTicks": 168,
          "midi": 71,
          "name": "B4",
          "ticks": 18240,
          "time": 63.776160000000004,
          "velocity": 0.6299212598425197
        },
        {
          "duration": 0.5874120000000005,
          "durationTicks": 168,
          "midi": 76,
          "name": "E5",
          "ticks": 18240,
          "time": 63.776160000000004,
          "velocity": 0.6299212598425197
        },
        {
          "duration": 0.5874120000000005,
          "durationTicks": 168,
          "midi": 59,
          "name": "B3",
          "ticks": 18240,
          "time": 63.776160000000004,
          "velocity": 0.6299212598425197
        },
        {
          "duration": 0.5874120000000005,
          "durationTicks": 168,
          "midi": 64,
          "name": "E4",
          "ticks": 18240,
          "time": 63.776160000000004,
          "velocity": 0.6299212598425197
        },
        {
          "duration": 0.5874120000000005,
          "durationTicks": 168,
          "midi": 68,
          "name": "G#4",
          "ticks": 18240,
          "time": 63.776160000000004,
          "velocity": 0.6299212598425197
        },
        {
          "duration": 0.10489499999999907,
          "durationTicks": 30,
          "midi": 76,
          "name": "E5",
          "ticks": 18420,
          "time": 64.40553,
          "velocity": 0.6299212598425197
        },
        {
          "duration": 1.1328659999999928,
          "durationTicks": 324,
          "midi": 61,
          "name": "C#4",
          "ticks": 18420,
          "time": 64.40553,
          "velocity": 0.6299212598425197
        },
        {
          "duration": 0.10489499999999907,
          "durationTicks": 30,
          "midi": 52,
          "name": "E3",
          "ticks": 18420,
          "time": 64.40553,
          "velocity": 0.6299212598425197
        },
        {
          "duration": 1.1328659999999928,
          "durationTicks": 324,
          "midi": 57,
          "name": "A3",
          "ticks": 18420,
          "time": 64.40553,
          "velocity": 0.6299212598425197
        },
        {
          "duration": 1.1328659999999928,
          "durationTicks": 324,
          "midi": 69,
          "name": "A4",
          "ticks": 18420,
          "time": 64.40553,
          "velocity": 0.6299212598425197
        },
        {
          "duration": 0.10489499999999907,
          "durationTicks": 30,
          "midi": 64,
          "name": "E4",
          "ticks": 18420,
          "time": 64.40553,
          "velocity": 0.6299212598425197
        },
        {
          "duration": 0.5454540000000065,
          "durationTicks": 156,
          "midi": 71,
          "name": "B4",
          "ticks": 18720,
          "time": 65.45448,
          "velocity": 0.6299212598425197
        },
        {
          "duration": 0.08391599999998789,
          "durationTicks": 24,
          "midi": 76,
          "name": "E5",
          "ticks": 18720,
          "time": 65.45448,
          "velocity": 0.6299212598425197
        },
        {
          "duration": 0.5454540000000065,
          "durationTicks": 156,
          "midi": 59,
          "name": "B3",
          "ticks": 18720,
          "time": 65.45448,
          "velocity": 0.6299212598425197
        },
        {
          "duration": 0.08391599999998789,
          "durationTicks": 24,
          "midi": 64,
          "name": "E4",
          "ticks": 18720,
          "time": 65.45448,
          "velocity": 0.6299212598425197
        },
        {
          "duration": 0.08391599999998789,
          "durationTicks": 24,
          "midi": 52,
          "name": "E3",
          "ticks": 18720,
          "time": 65.45448,
          "velocity": 0.6299212598425197
        },
        {
          "duration": 0.5454540000000065,
          "durationTicks": 156,
          "midi": 68,
          "name": "G#4",
          "ticks": 18720,
          "time": 65.45448,
          "velocity": 0.6299212598425197
        },
        {
          "duration": 0.9650340000000028,
          "durationTicks": 276,
          "midi": 61,
          "name": "C#4",
          "ticks": 18900,
          "time": 66.08385,
          "velocity": 0.6299212598425197
        },
        {
          "duration": 0.9650340000000028,
          "durationTicks": 276,
          "midi": 52,
          "name": "E3",
          "ticks": 18900,
          "time": 66.08385,
          "velocity": 0.6299212598425197
        },
        {
          "duration": 0.9650340000000028,
          "durationTicks": 276,
          "midi": 57,
          "name": "A3",
          "ticks": 18900,
          "time": 66.08385,
          "velocity": 0.6299212598425197
        },
        {
          "duration": 0.9650340000000028,
          "durationTicks": 276,
          "midi": 69,
          "name": "A4",
          "ticks": 18900,
          "time": 66.08385,
          "velocity": 0.6299212598425197
        },
        {
          "duration": 0.9650340000000028,
          "durationTicks": 276,
          "midi": 64,
          "name": "E4",
          "ticks": 18900,
          "time": 66.08385,
          "velocity": 0.6299212598425197
        },
        {
          "duration": 0.9650340000000028,
          "durationTicks": 276,
          "midi": 76,
          "name": "E5",
          "ticks": 18900,
          "time": 66.08385,
          "velocity": 0.6299212598425197
        },
        {
          "duration": 0.5874120000000005,
          "durationTicks": 168,
          "midi": 52,
          "name": "E3",
          "ticks": 35520,
          "time": 124.19568,
          "velocity": 0.6299212598425197
        },
        {
          "duration": 0.5874120000000005,
          "durationTicks": 168,
          "midi": 64,
          "name": "E4",
          "ticks": 35520,
          "time": 124.19568,
          "velocity": 0.6299212598425197
        },
        {
          "duration": 0.5874120000000005,
          "durationTicks": 168,
          "midi": 68,
          "name": "G#4",
          "ticks": 35520,
          "time": 124.19568,
          "velocity": 0.6299212598425197
        },
        {
          "duration": 0.5874120000000005,
          "durationTicks": 168,
          "midi": 59,
          "name": "B3",
          "ticks": 35520,
          "time": 124.19568,
          "velocity": 0.6299212598425197
        },
        {
          "duration": 0.5874120000000005,
          "durationTicks": 168,
          "midi": 71,
          "name": "B4",
          "ticks": 35520,
          "time": 124.19568,
          "velocity": 0.6299212598425197
        },
        {
          "duration": 0.5874120000000005,
          "durationTicks": 168,
          "midi": 76,
          "name": "E5",
          "ticks": 35520,
          "time": 124.19568,
          "velocity": 0.6299212598425197
        },
        {
          "duration": 0.10489499999999907,
          "durationTicks": 30,
          "midi": 64,
          "name": "E4",
          "ticks": 35700,
          "time": 124.82505,
          "velocity": 0.6299212598425197
        },
        {
          "duration": 0.10489499999999907,
          "durationTicks": 30,
          "midi": 52,
          "name": "E3",
          "ticks": 35700,
          "time": 124.82505,
          "velocity": 0.6299212598425197
        },
        {
          "duration": 1.1328659999999928,
          "durationTicks": 324,
          "midi": 61,
          "name": "C#4",
          "ticks": 35700,
          "time": 124.82505,
          "velocity": 0.6299212598425197
        },
        {
          "duration": 1.1328659999999928,
          "durationTicks": 324,
          "midi": 57,
          "name": "A3",
          "ticks": 35700,
          "time": 124.82505,
          "velocity": 0.6299212598425197
        },
        {
          "duration": 0.10489499999999907,
          "durationTicks": 30,
          "midi": 76,
          "name": "E5",
          "ticks": 35700,
          "time": 124.82505,
          "velocity": 0.6299212598425197
        },
        {
          "duration": 1.1328659999999928,
          "durationTicks": 324,
          "midi": 69,
          "name": "A4",
          "ticks": 35700,
          "time": 124.82505,
          "velocity": 0.6299212598425197
        },
        {
          "duration": 0.5454539999999923,
          "durationTicks": 156,
          "midi": 71,
          "name": "B4",
          "ticks": 36000,
          "time": 125.87400000000001,
          "velocity": 0.6299212598425197
        },
        {
          "duration": 0.08391599999998789,
          "durationTicks": 24,
          "midi": 76,
          "name": "E5",
          "ticks": 36000,
          "time": 125.87400000000001,
          "velocity": 0.6299212598425197
        },
        {
          "duration": 0.5454539999999923,
          "durationTicks": 156,
          "midi": 59,
          "name": "B3",
          "ticks": 36000,
          "time": 125.87400000000001,
          "velocity": 0.6299212598425197
        },
        {
          "duration": 0.08391599999998789,
          "durationTicks": 24,
          "midi": 64,
          "name": "E4",
          "ticks": 36000,
          "time": 125.87400000000001,
          "velocity": 0.6299212598425197
        },
        {
          "duration": 0.08391599999998789,
          "durationTicks": 24,
          "midi": 52,
          "name": "E3",
          "ticks": 36000,
          "time": 125.87400000000001,
          "velocity": 0.6299212598425197
        },
        {
          "duration": 0.5454539999999923,
          "durationTicks": 156,
          "midi": 68,
          "name": "G#4",
          "ticks": 36000,
          "time": 125.87400000000001,
          "velocity": 0.6299212598425197
        },
        {
          "duration": 0.9650340000000028,
          "durationTicks": 276,
          "midi": 64,
          "name": "E4",
          "ticks": 36180,
          "time": 126.50337,
          "velocity": 0.6299212598425197
        },
        {
          "duration": 0.9650340000000028,
          "durationTicks": 276,
          "midi": 76,
          "name": "E5",
          "ticks": 36180,
          "time": 126.50337,
          "velocity": 0.6299212598425197
        },
        {
          "duration": 0.9650340000000028,
          "durationTicks": 276,
          "midi": 61,
          "name": "C#4",
          "ticks": 36180,
          "time": 126.50337,
          "velocity": 0.6299212598425197
        },
        {
          "duration": 0.9650340000000028,
          "durationTicks": 276,
          "midi": 52,
          "name": "E3",
          "ticks": 36180,
          "time": 126.50337,
          "velocity": 0.6299212598425197
        },
        {
          "duration": 0.9650340000000028,
          "durationTicks": 276,
          "midi": 57,
          "name": "A3",
          "ticks": 36180,
          "time": 126.50337,
          "velocity": 0.6299212598425197
        },
        {
          "duration": 0.9650340000000028,
          "durationTicks": 276,
          "midi": 69,
          "name": "A4",
          "ticks": 36180,
          "time": 126.50337,
          "velocity": 0.6299212598425197
        },
        {
          "duration": 0.5874119999999721,
          "durationTicks": 168,
          "midi": 52,
          "name": "E3",
          "ticks": 36480,
          "time": 127.55232000000001,
          "velocity": 0.6299212598425197
        },
        {
          "duration": 0.5874119999999721,
          "durationTicks": 168,
          "midi": 64,
          "name": "E4",
          "ticks": 36480,
          "time": 127.55232000000001,
          "velocity": 0.6299212598425197
        },
        {
          "duration": 0.5874119999999721,
          "durationTicks": 168,
          "midi": 68,
          "name": "G#4",
          "ticks": 36480,
          "time": 127.55232000000001,
          "velocity": 0.6299212598425197
        },
        {
          "duration": 0.5874119999999721,
          "durationTicks": 168,
          "midi": 59,
          "name": "B3",
          "ticks": 36480,
          "time": 127.55232000000001,
          "velocity": 0.6299212598425197
        },
        {
          "duration": 0.5874119999999721,
          "durationTicks": 168,
          "midi": 71,
          "name": "B4",
          "ticks": 36480,
          "time": 127.55232000000001,
          "velocity": 0.6299212598425197
        },
        {
          "duration": 0.5874119999999721,
          "durationTicks": 168,
          "midi": 76,
          "name": "E5",
          "ticks": 36480,
          "time": 127.55232000000001,
          "velocity": 0.6299212598425197
        },
        {
          "duration": 0.10489499999999907,
          "durationTicks": 30,
          "midi": 64,
          "name": "E4",
          "ticks": 36660,
          "time": 128.18169,
          "velocity": 0.6299212598425197
        },
        {
          "duration": 0.10489499999999907,
          "durationTicks": 30,
          "midi": 52,
          "name": "E3",
          "ticks": 36660,
          "time": 128.18169,
          "velocity": 0.6299212598425197
        },
        {
          "duration": 1.132866000000007,
          "durationTicks": 324,
          "midi": 61,
          "name": "C#4",
          "ticks": 36660,
          "time": 128.18169,
          "velocity": 0.6299212598425197
        },
        {
          "duration": 1.132866000000007,
          "durationTicks": 324,
          "midi": 57,
          "name": "A3",
          "ticks": 36660,
          "time": 128.18169,
          "velocity": 0.6299212598425197
        },
        {
          "duration": 0.10489499999999907,
          "durationTicks": 30,
          "midi": 76,
          "name": "E5",
          "ticks": 36660,
          "time": 128.18169,
          "velocity": 0.6299212598425197
        },
        {
          "duration": 1.132866000000007,
          "durationTicks": 324,
          "midi": 69,
          "name": "A4",
          "ticks": 36660,
          "time": 128.18169,
          "velocity": 0.6299212598425197
        },
        {
          "duration": 0.5454540000000065,
          "durationTicks": 156,
          "midi": 71,
          "name": "B4",
          "ticks": 36960,
          "time": 129.23064,
          "velocity": 0.6299212598425197
        },
        {
          "duration": 0.08391600000001631,
          "durationTicks": 24,
          "midi": 76,
          "name": "E5",
          "ticks": 36960,
          "time": 129.23064,
          "velocity": 0.6299212598425197
        },
        {
          "duration": 0.5454540000000065,
          "durationTicks": 156,
          "midi": 59,
          "name": "B3",
          "ticks": 36960,
          "time": 129.23064,
          "velocity": 0.6299212598425197
        },
        {
          "duration": 0.08391600000001631,
          "durationTicks": 24,
          "midi": 64,
          "name": "E4",
          "ticks": 36960,
          "time": 129.23064,
          "velocity": 0.6299212598425197
        },
        {
          "duration": 0.08391600000001631,
          "durationTicks": 24,
          "midi": 52,
          "name": "E3",
          "ticks": 36960,
          "time": 129.23064,
          "velocity": 0.6299212598425197
        },
        {
          "duration": 0.5454540000000065,
          "durationTicks": 156,
          "midi": 68,
          "name": "G#4",
          "ticks": 36960,
          "time": 129.23064,
          "velocity": 0.6299212598425197
        },
        {
          "duration": 0.9650340000000028,
          "durationTicks": 276,
          "midi": 64,
          "name": "E4",
          "ticks": 37140,
          "time": 129.86001000000002,
          "velocity": 0.6299212598425197
        },
        {
          "duration": 0.9650340000000028,
          "durationTicks": 276,
          "midi": 76,
          "name": "E5",
          "ticks": 37140,
          "time": 129.86001000000002,
          "velocity": 0.6299212598425197
        },
        {
          "duration": 0.9650340000000028,
          "durationTicks": 276,
          "midi": 61,
          "name": "C#4",
          "ticks": 37140,
          "time": 129.86001000000002,
          "velocity": 0.6299212598425197
        },
        {
          "duration": 0.9650340000000028,
          "durationTicks": 276,
          "midi": 52,
          "name": "E3",
          "ticks": 37140,
          "time": 129.86001000000002,
          "velocity": 0.6299212598425197
        },
        {
          "duration": 0.9650340000000028,
          "durationTicks": 276,
          "midi": 57,
          "name": "A3",
          "ticks": 37140,
          "time": 129.86001000000002,
          "velocity": 0.6299212598425197
        },
        {
          "duration": 0.9650340000000028,
          "durationTicks": 276,
          "midi": 69,
          "name": "A4",
          "ticks": 37140,
          "time": 129.86001000000002,
          "velocity": 0.6299212598425197
        },
        {
          "duration": 0.5874119999999721,
          "durationTicks": 168,
          "midi": 52,
          "name": "E3",
          "ticks": 37440,
          "time": 130.90896,
          "velocity": 0.6299212598425197
        },
        {
          "duration": 0.5874119999999721,
          "durationTicks": 168,
          "midi": 64,
          "name": "E4",
          "ticks": 37440,
          "time": 130.90896,
          "velocity": 0.6299212598425197
        },
        {
          "duration": 0.5874119999999721,
          "durationTicks": 168,
          "midi": 68,
          "name": "G#4",
          "ticks": 37440,
          "time": 130.90896,
          "velocity": 0.6299212598425197
        },
        {
          "duration": 0.5874119999999721,
          "durationTicks": 168,
          "midi": 59,
          "name": "B3",
          "ticks": 37440,
          "time": 130.90896,
          "velocity": 0.6299212598425197
        },
        {
          "duration": 0.5874119999999721,
          "durationTicks": 168,
          "midi": 71,
          "name": "B4",
          "ticks": 37440,
          "time": 130.90896,
          "velocity": 0.6299212598425197
        },
        {
          "duration": 0.5874119999999721,
          "durationTicks": 168,
          "midi": 76,
          "name": "E5",
          "ticks": 37440,
          "time": 130.90896,
          "velocity": 0.6299212598425197
        },
        {
          "duration": 0.10489499999999907,
          "durationTicks": 30,
          "midi": 64,
          "name": "E4",
          "ticks": 37620,
          "time": 131.53833,
          "velocity": 0.6299212598425197
        },
        {
          "duration": 0.10489499999999907,
          "durationTicks": 30,
          "midi": 52,
          "name": "E3",
          "ticks": 37620,
          "time": 131.53833,
          "velocity": 0.6299212598425197
        },
        {
          "duration": 1.132866000000007,
          "durationTicks": 324,
          "midi": 61,
          "name": "C#4",
          "ticks": 37620,
          "time": 131.53833,
          "velocity": 0.6299212598425197
        },
        {
          "duration": 1.132866000000007,
          "durationTicks": 324,
          "midi": 57,
          "name": "A3",
          "ticks": 37620,
          "time": 131.53833,
          "velocity": 0.6299212598425197
        },
        {
          "duration": 0.10489499999999907,
          "durationTicks": 30,
          "midi": 76,
          "name": "E5",
          "ticks": 37620,
          "time": 131.53833,
          "velocity": 0.6299212598425197
        },
        {
          "duration": 1.132866000000007,
          "durationTicks": 324,
          "midi": 69,
          "name": "A4",
          "ticks": 37620,
          "time": 131.53833,
          "velocity": 0.6299212598425197
        },
        {
          "duration": 0.5454540000000065,
          "durationTicks": 156,
          "midi": 68,
          "name": "G#4",
          "ticks": 37920,
          "time": 132.58728,
          "velocity": 0.6299212598425197
        },
        {
          "duration": 0.5454540000000065,
          "durationTicks": 156,
          "midi": 71,
          "name": "B4",
          "ticks": 37920,
          "time": 132.58728,
          "velocity": 0.6299212598425197
        },
        {
          "duration": 0.08391600000001631,
          "durationTicks": 24,
          "midi": 76,
          "name": "E5",
          "ticks": 37920,
          "time": 132.58728,
          "velocity": 0.6299212598425197
        },
        {
          "duration": 0.08391600000001631,
          "durationTicks": 24,
          "midi": 64,
          "name": "E4",
          "ticks": 37920,
          "time": 132.58728,
          "velocity": 0.6299212598425197
        },
        {
          "duration": 0.08391600000001631,
          "durationTicks": 24,
          "midi": 52,
          "name": "E3",
          "ticks": 37920,
          "time": 132.58728,
          "velocity": 0.6299212598425197
        },
        {
          "duration": 0.5454540000000065,
          "durationTicks": 156,
          "midi": 59,
          "name": "B3",
          "ticks": 37920,
          "time": 132.58728,
          "velocity": 0.6299212598425197
        },
        {
          "duration": 0.9650340000000028,
          "durationTicks": 276,
          "midi": 69,
          "name": "A4",
          "ticks": 38100,
          "time": 133.21665000000002,
          "velocity": 0.6299212598425197
        },
        {
          "duration": 0.9650340000000028,
          "durationTicks": 276,
          "midi": 57,
          "name": "A3",
          "ticks": 38100,
          "time": 133.21665000000002,
          "velocity": 0.6299212598425197
        },
        {
          "duration": 0.9650340000000028,
          "durationTicks": 276,
          "midi": 76,
          "name": "E5",
          "ticks": 38100,
          "time": 133.21665000000002,
          "velocity": 0.6299212598425197
        },
        {
          "duration": 0.9650340000000028,
          "durationTicks": 276,
          "midi": 61,
          "name": "C#4",
          "ticks": 38100,
          "time": 133.21665000000002,
          "velocity": 0.6299212598425197
        },
        {
          "duration": 0.9650340000000028,
          "durationTicks": 276,
          "midi": 52,
          "name": "E3",
          "ticks": 38100,
          "time": 133.21665000000002,
          "velocity": 0.6299212598425197
        },
        {
          "duration": 0.9650340000000028,
          "durationTicks": 276,
          "midi": 64,
          "name": "E4",
          "ticks": 38100,
          "time": 133.21665000000002,
          "velocity": 0.6299212598425197
        },
        {
          "duration": 0.5874120000000005,
          "durationTicks": 168,
          "midi": 52,
          "name": "E3",
          "ticks": 38400,
          "time": 134.2656,
          "velocity": 0.6299212598425197
        },
        {
          "duration": 0.5874120000000005,
          "durationTicks": 168,
          "midi": 71,
          "name": "B4",
          "ticks": 38400,
          "time": 134.2656,
          "velocity": 0.6299212598425197
        },
        {
          "duration": 0.5874120000000005,
          "durationTicks": 168,
          "midi": 76,
          "name": "E5",
          "ticks": 38400,
          "time": 134.2656,
          "velocity": 0.6299212598425197
        },
        {
          "duration": 0.5874120000000005,
          "durationTicks": 168,
          "midi": 59,
          "name": "B3",
          "ticks": 38400,
          "time": 134.2656,
          "velocity": 0.6299212598425197
        },
        {
          "duration": 0.5874120000000005,
          "durationTicks": 168,
          "midi": 64,
          "name": "E4",
          "ticks": 38400,
          "time": 134.2656,
          "velocity": 0.6299212598425197
        },
        {
          "duration": 0.5874120000000005,
          "durationTicks": 168,
          "midi": 68,
          "name": "G#4",
          "ticks": 38400,
          "time": 134.2656,
          "velocity": 0.6299212598425197
        },
        {
          "duration": 0.10489499999999907,
          "durationTicks": 30,
          "midi": 76,
          "name": "E5",
          "ticks": 38580,
          "time": 134.89497,
          "velocity": 0.6299212598425197
        },
        {
          "duration": 1.132866000000007,
          "durationTicks": 324,
          "midi": 61,
          "name": "C#4",
          "ticks": 38580,
          "time": 134.89497,
          "velocity": 0.6299212598425197
        },
        {
          "duration": 0.10489499999999907,
          "durationTicks": 30,
          "midi": 52,
          "name": "E3",
          "ticks": 38580,
          "time": 134.89497,
          "velocity": 0.6299212598425197
        },
        {
          "duration": 1.132866000000007,
          "durationTicks": 324,
          "midi": 57,
          "name": "A3",
          "ticks": 38580,
          "time": 134.89497,
          "velocity": 0.6299212598425197
        },
        {
          "duration": 1.132866000000007,
          "durationTicks": 324,
          "midi": 69,
          "name": "A4",
          "ticks": 38580,
          "time": 134.89497,
          "velocity": 0.6299212598425197
        },
        {
          "duration": 0.10489499999999907,
          "durationTicks": 30,
          "midi": 64,
          "name": "E4",
          "ticks": 38580,
          "time": 134.89497,
          "velocity": 0.6299212598425197
        },
        {
          "duration": 0.5454540000000065,
          "durationTicks": 156,
          "midi": 71,
          "name": "B4",
          "ticks": 38880,
          "time": 135.94392,
          "velocity": 0.6299212598425197
        },
        {
          "duration": 0.08391600000001631,
          "durationTicks": 24,
          "midi": 76,
          "name": "E5",
          "ticks": 38880,
          "time": 135.94392,
          "velocity": 0.6299212598425197
        },
        {
          "duration": 0.5454540000000065,
          "durationTicks": 156,
          "midi": 59,
          "name": "B3",
          "ticks": 38880,
          "time": 135.94392,
          "velocity": 0.6299212598425197
        },
        {
          "duration": 0.08391600000001631,
          "durationTicks": 24,
          "midi": 64,
          "name": "E4",
          "ticks": 38880,
          "time": 135.94392,
          "velocity": 0.6299212598425197
        },
        {
          "duration": 0.08391600000001631,
          "durationTicks": 24,
          "midi": 52,
          "name": "E3",
          "ticks": 38880,
          "time": 135.94392,
          "velocity": 0.6299212598425197
        },
        {
          "duration": 0.5454540000000065,
          "durationTicks": 156,
          "midi": 68,
          "name": "G#4",
          "ticks": 38880,
          "time": 135.94392,
          "velocity": 0.6299212598425197
        },
        {
          "duration": 0.9650340000000028,
          "durationTicks": 276,
          "midi": 64,
          "name": "E4",
          "ticks": 39060,
          "time": 136.57329000000001,
          "velocity": 0.6299212598425197
        },
        {
          "duration": 0.9650340000000028,
          "durationTicks": 276,
          "midi": 76,
          "name": "E5",
          "ticks": 39060,
          "time": 136.57329000000001,
          "velocity": 0.6299212598425197
        },
        {
          "duration": 0.9650340000000028,
          "durationTicks": 276,
          "midi": 61,
          "name": "C#4",
          "ticks": 39060,
          "time": 136.57329000000001,
          "velocity": 0.6299212598425197
        },
        {
          "duration": 0.9650340000000028,
          "durationTicks": 276,
          "midi": 52,
          "name": "E3",
          "ticks": 39060,
          "time": 136.57329000000001,
          "velocity": 0.6299212598425197
        },
        {
          "duration": 0.9650340000000028,
          "durationTicks": 276,
          "midi": 57,
          "name": "A3",
          "ticks": 39060,
          "time": 136.57329000000001,
          "velocity": 0.6299212598425197
        },
        {
          "duration": 0.9650340000000028,
          "durationTicks": 276,
          "midi": 69,
          "name": "A4",
          "ticks": 39060,
          "time": 136.57329000000001,
          "velocity": 0.6299212598425197
        },
        {
          "duration": 0.5874120000000005,
          "durationTicks": 168,
          "midi": 52,
          "name": "E3",
          "ticks": 39360,
          "time": 137.62224,
          "velocity": 0.6299212598425197
        },
        {
          "duration": 0.5874120000000005,
          "durationTicks": 168,
          "midi": 64,
          "name": "E4",
          "ticks": 39360,
          "time": 137.62224,
          "velocity": 0.6299212598425197
        },
        {
          "duration": 0.5874120000000005,
          "durationTicks": 168,
          "midi": 68,
          "name": "G#4",
          "ticks": 39360,
          "time": 137.62224,
          "velocity": 0.6299212598425197
        },
        {
          "duration": 0.5874120000000005,
          "durationTicks": 168,
          "midi": 59,
          "name": "B3",
          "ticks": 39360,
          "time": 137.62224,
          "velocity": 0.6299212598425197
        },
        {
          "duration": 0.5874120000000005,
          "durationTicks": 168,
          "midi": 71,
          "name": "B4",
          "ticks": 39360,
          "time": 137.62224,
          "velocity": 0.6299212598425197
        },
        {
          "duration": 0.5874120000000005,
          "durationTicks": 168,
          "midi": 76,
          "name": "E5",
          "ticks": 39360,
          "time": 137.62224,
          "velocity": 0.6299212598425197
        },
        {
          "duration": 0.10489499999999907,
          "durationTicks": 30,
          "midi": 64,
          "name": "E4",
          "ticks": 39540,
          "time": 138.25161,
          "velocity": 0.6299212598425197
        },
        {
          "duration": 0.10489499999999907,
          "durationTicks": 30,
          "midi": 52,
          "name": "E3",
          "ticks": 39540,
          "time": 138.25161,
          "velocity": 0.6299212598425197
        },
        {
          "duration": 1.132866000000007,
          "durationTicks": 324,
          "midi": 61,
          "name": "C#4",
          "ticks": 39540,
          "time": 138.25161,
          "velocity": 0.6299212598425197
        },
        {
          "duration": 1.132866000000007,
          "durationTicks": 324,
          "midi": 57,
          "name": "A3",
          "ticks": 39540,
          "time": 138.25161,
          "velocity": 0.6299212598425197
        },
        {
          "duration": 0.10489499999999907,
          "durationTicks": 30,
          "midi": 76,
          "name": "E5",
          "ticks": 39540,
          "time": 138.25161,
          "velocity": 0.6299212598425197
        },
        {
          "duration": 1.132866000000007,
          "durationTicks": 324,
          "midi": 69,
          "name": "A4",
          "ticks": 39540,
          "time": 138.25161,
          "velocity": 0.6299212598425197
        },
        {
          "duration": 0.5454540000000065,
          "durationTicks": 156,
          "midi": 71,
          "name": "B4",
          "ticks": 39840,
          "time": 139.30056,
          "velocity": 0.6299212598425197
        },
        {
          "duration": 0.08391600000001631,
          "durationTicks": 24,
          "midi": 76,
          "name": "E5",
          "ticks": 39840,
          "time": 139.30056,
          "velocity": 0.6299212598425197
        },
        {
          "duration": 0.5454540000000065,
          "durationTicks": 156,
          "midi": 59,
          "name": "B3",
          "ticks": 39840,
          "time": 139.30056,
          "velocity": 0.6299212598425197
        },
        {
          "duration": 0.08391600000001631,
          "durationTicks": 24,
          "midi": 64,
          "name": "E4",
          "ticks": 39840,
          "time": 139.30056,
          "velocity": 0.6299212598425197
        },
        {
          "duration": 0.08391600000001631,
          "durationTicks": 24,
          "midi": 52,
          "name": "E3",
          "ticks": 39840,
          "time": 139.30056,
          "velocity": 0.6299212598425197
        },
        {
          "duration": 0.5454540000000065,
          "durationTicks": 156,
          "midi": 68,
          "name": "G#4",
          "ticks": 39840,
          "time": 139.30056,
          "velocity": 0.6299212598425197
        },
        {
          "duration": 0.9650340000000028,
          "durationTicks": 276,
          "midi": 64,
          "name": "E4",
          "ticks": 40020,
          "time": 139.92993,
          "velocity": 0.6299212598425197
        },
        {
          "duration": 0.9650340000000028,
          "durationTicks": 276,
          "midi": 76,
          "name": "E5",
          "ticks": 40020,
          "time": 139.92993,
          "velocity": 0.6299212598425197
        },
        {
          "duration": 0.9650340000000028,
          "durationTicks": 276,
          "midi": 61,
          "name": "C#4",
          "ticks": 40020,
          "time": 139.92993,
          "velocity": 0.6299212598425197
        },
        {
          "duration": 0.9650340000000028,
          "durationTicks": 276,
          "midi": 52,
          "name": "E3",
          "ticks": 40020,
          "time": 139.92993,
          "velocity": 0.6299212598425197
        },
        {
          "duration": 0.9650340000000028,
          "durationTicks": 276,
          "midi": 57,
          "name": "A3",
          "ticks": 40020,
          "time": 139.92993,
          "velocity": 0.6299212598425197
        },
        {
          "duration": 0.9650340000000028,
          "durationTicks": 276,
          "midi": 69,
          "name": "A4",
          "ticks": 40020,
          "time": 139.92993,
          "velocity": 0.6299212598425197
        },
        {
          "duration": 0.5874120000000005,
          "durationTicks": 168,
          "midi": 52,
          "name": "E3",
          "ticks": 40320,
          "time": 140.97888,
          "velocity": 0.6299212598425197
        },
        {
          "duration": 0.5874120000000005,
          "durationTicks": 168,
          "midi": 64,
          "name": "E4",
          "ticks": 40320,
          "time": 140.97888,
          "velocity": 0.6299212598425197
        },
        {
          "duration": 0.5874120000000005,
          "durationTicks": 168,
          "midi": 68,
          "name": "G#4",
          "ticks": 40320,
          "time": 140.97888,
          "velocity": 0.6299212598425197
        },
        {
          "duration": 0.5874120000000005,
          "durationTicks": 168,
          "midi": 59,
          "name": "B3",
          "ticks": 40320,
          "time": 140.97888,
          "velocity": 0.6299212598425197
        },
        {
          "duration": 0.5874120000000005,
          "durationTicks": 168,
          "midi": 71,
          "name": "B4",
          "ticks": 40320,
          "time": 140.97888,
          "velocity": 0.6299212598425197
        },
        {
          "duration": 0.5874120000000005,
          "durationTicks": 168,
          "midi": 76,
          "name": "E5",
          "ticks": 40320,
          "time": 140.97888,
          "velocity": 0.6299212598425197
        },
        {
          "duration": 0.10489499999999907,
          "durationTicks": 30,
          "midi": 64,
          "name": "E4",
          "ticks": 40500,
          "time": 141.60825,
          "velocity": 0.6299212598425197
        },
        {
          "duration": 0.10489499999999907,
          "durationTicks": 30,
          "midi": 52,
          "name": "E3",
          "ticks": 40500,
          "time": 141.60825,
          "velocity": 0.6299212598425197
        },
        {
          "duration": 1.132866000000007,
          "durationTicks": 324,
          "midi": 61,
          "name": "C#4",
          "ticks": 40500,
          "time": 141.60825,
          "velocity": 0.6299212598425197
        },
        {
          "duration": 1.132866000000007,
          "durationTicks": 324,
          "midi": 57,
          "name": "A3",
          "ticks": 40500,
          "time": 141.60825,
          "velocity": 0.6299212598425197
        },
        {
          "duration": 0.10489499999999907,
          "durationTicks": 30,
          "midi": 76,
          "name": "E5",
          "ticks": 40500,
          "time": 141.60825,
          "velocity": 0.6299212598425197
        },
        {
          "duration": 1.132866000000007,
          "durationTicks": 324,
          "midi": 69,
          "name": "A4",
          "ticks": 40500,
          "time": 141.60825,
          "velocity": 0.6299212598425197
        },
        {
          "duration": 0.5454540000000065,
          "durationTicks": 156,
          "midi": 71,
          "name": "B4",
          "ticks": 40800,
          "time": 142.6572,
          "velocity": 0.6299212598425197
        },
        {
          "duration": 0.08391600000001631,
          "durationTicks": 24,
          "midi": 76,
          "name": "E5",
          "ticks": 40800,
          "time": 142.6572,
          "velocity": 0.6299212598425197
        },
        {
          "duration": 0.5454540000000065,
          "durationTicks": 156,
          "midi": 59,
          "name": "B3",
          "ticks": 40800,
          "time": 142.6572,
          "velocity": 0.6299212598425197
        },
        {
          "duration": 0.08391600000001631,
          "durationTicks": 24,
          "midi": 64,
          "name": "E4",
          "ticks": 40800,
          "time": 142.6572,
          "velocity": 0.6299212598425197
        },
        {
          "duration": 0.08391600000001631,
          "durationTicks": 24,
          "midi": 52,
          "name": "E3",
          "ticks": 40800,
          "time": 142.6572,
          "velocity": 0.6299212598425197
        },
        {
          "duration": 0.5454540000000065,
          "durationTicks": 156,
          "midi": 68,
          "name": "G#4",
          "ticks": 40800,
          "time": 142.6572,
          "velocity": 0.6299212598425197
        },
        {
          "duration": 0.9650340000000028,
          "durationTicks": 276,
          "midi": 64,
          "name": "E4",
          "ticks": 40980,
          "time": 143.28657,
          "velocity": 0.6299212598425197
        },
        {
          "duration": 0.9650340000000028,
          "durationTicks": 276,
          "midi": 76,
          "name": "E5",
          "ticks": 40980,
          "time": 143.28657,
          "velocity": 0.6299212598425197
        },
        {
          "duration": 0.9650340000000028,
          "durationTicks": 276,
          "midi": 61,
          "name": "C#4",
          "ticks": 40980,
          "time": 143.28657,
          "velocity": 0.6299212598425197
        },
        {
          "duration": 0.9650340000000028,
          "durationTicks": 276,
          "midi": 52,
          "name": "E3",
          "ticks": 40980,
          "time": 143.28657,
          "velocity": 0.6299212598425197
        },
        {
          "duration": 0.9650340000000028,
          "durationTicks": 276,
          "midi": 57,
          "name": "A3",
          "ticks": 40980,
          "time": 143.28657,
          "velocity": 0.6299212598425197
        },
        {
          "duration": 0.9650340000000028,
          "durationTicks": 276,
          "midi": 69,
          "name": "A4",
          "ticks": 40980,
          "time": 143.28657,
          "velocity": 0.6299212598425197
        },
        {
          "duration": 0.5874120000000005,
          "durationTicks": 168,
          "midi": 52,
          "name": "E3",
          "ticks": 41280,
          "time": 144.33552,
          "velocity": 0.6299212598425197
        },
        {
          "duration": 0.5874120000000005,
          "durationTicks": 168,
          "midi": 64,
          "name": "E4",
          "ticks": 41280,
          "time": 144.33552,
          "velocity": 0.6299212598425197
        },
        {
          "duration": 0.5874120000000005,
          "durationTicks": 168,
          "midi": 68,
          "name": "G#4",
          "ticks": 41280,
          "time": 144.33552,
          "velocity": 0.6299212598425197
        },
        {
          "duration": 0.5874120000000005,
          "durationTicks": 168,
          "midi": 59,
          "name": "B3",
          "ticks": 41280,
          "time": 144.33552,
          "velocity": 0.6299212598425197
        },
        {
          "duration": 0.5874120000000005,
          "durationTicks": 168,
          "midi": 71,
          "name": "B4",
          "ticks": 41280,
          "time": 144.33552,
          "velocity": 0.6299212598425197
        },
        {
          "duration": 0.5874120000000005,
          "durationTicks": 168,
          "midi": 76,
          "name": "E5",
          "ticks": 41280,
          "time": 144.33552,
          "velocity": 0.6299212598425197
        },
        {
          "duration": 0.10489499999999907,
          "durationTicks": 30,
          "midi": 64,
          "name": "E4",
          "ticks": 41460,
          "time": 144.96489,
          "velocity": 0.6299212598425197
        },
        {
          "duration": 0.10489499999999907,
          "durationTicks": 30,
          "midi": 52,
          "name": "E3",
          "ticks": 41460,
          "time": 144.96489,
          "velocity": 0.6299212598425197
        },
        {
          "duration": 1.132866000000007,
          "durationTicks": 324,
          "midi": 61,
          "name": "C#4",
          "ticks": 41460,
          "time": 144.96489,
          "velocity": 0.6299212598425197
        },
        {
          "duration": 1.132866000000007,
          "durationTicks": 324,
          "midi": 57,
          "name": "A3",
          "ticks": 41460,
          "time": 144.96489,
          "velocity": 0.6299212598425197
        },
        {
          "duration": 0.10489499999999907,
          "durationTicks": 30,
          "midi": 76,
          "name": "E5",
          "ticks": 41460,
          "time": 144.96489,
          "velocity": 0.6299212598425197
        },
        {
          "duration": 1.132866000000007,
          "durationTicks": 324,
          "midi": 69,
          "name": "A4",
          "ticks": 41460,
          "time": 144.96489,
          "velocity": 0.6299212598425197
        },
        {
          "duration": 0.5454539999999781,
          "durationTicks": 156,
          "midi": 68,
          "name": "G#4",
          "ticks": 41760,
          "time": 146.01384000000002,
          "velocity": 0.6299212598425197
        },
        {
          "duration": 0.5454539999999781,
          "durationTicks": 156,
          "midi": 71,
          "name": "B4",
          "ticks": 41760,
          "time": 146.01384000000002,
          "velocity": 0.6299212598425197
        },
        {
          "duration": 0.08391599999998789,
          "durationTicks": 24,
          "midi": 76,
          "name": "E5",
          "ticks": 41760,
          "time": 146.01384000000002,
          "velocity": 0.6299212598425197
        },
        {
          "duration": 0.08391599999998789,
          "durationTicks": 24,
          "midi": 64,
          "name": "E4",
          "ticks": 41760,
          "time": 146.01384000000002,
          "velocity": 0.6299212598425197
        },
        {
          "duration": 0.08391599999998789,
          "durationTicks": 24,
          "midi": 52,
          "name": "E3",
          "ticks": 41760,
          "time": 146.01384000000002,
          "velocity": 0.6299212598425197
        },
        {
          "duration": 0.5454539999999781,
          "durationTicks": 156,
          "midi": 59,
          "name": "B3",
          "ticks": 41760,
          "time": 146.01384000000002,
          "velocity": 0.6299212598425197
        },
        {
          "duration": 0.9650340000000028,
          "durationTicks": 276,
          "midi": 69,
          "name": "A4",
          "ticks": 41940,
          "time": 146.64321,
          "velocity": 0.6299212598425197
        },
        {
          "duration": 0.9650340000000028,
          "durationTicks": 276,
          "midi": 57,
          "name": "A3",
          "ticks": 41940,
          "time": 146.64321,
          "velocity": 0.6299212598425197
        },
        {
          "duration": 0.9650340000000028,
          "durationTicks": 276,
          "midi": 76,
          "name": "E5",
          "ticks": 41940,
          "time": 146.64321,
          "velocity": 0.6299212598425197
        },
        {
          "duration": 0.9650340000000028,
          "durationTicks": 276,
          "midi": 61,
          "name": "C#4",
          "ticks": 41940,
          "time": 146.64321,
          "velocity": 0.6299212598425197
        },
        {
          "duration": 0.9650340000000028,
          "durationTicks": 276,
          "midi": 52,
          "name": "E3",
          "ticks": 41940,
          "time": 146.64321,
          "velocity": 0.6299212598425197
        },
        {
          "duration": 0.9650340000000028,
          "durationTicks": 276,
          "midi": 64,
          "name": "E4",
          "ticks": 41940,
          "time": 146.64321,
          "velocity": 0.6299212598425197
        },
        {
          "duration": 0.5874120000000005,
          "durationTicks": 168,
          "midi": 52,
          "name": "E3",
          "ticks": 42240,
          "time": 147.69216,
          "velocity": 0.6299212598425197
        },
        {
          "duration": 0.5874120000000005,
          "durationTicks": 168,
          "midi": 71,
          "name": "B4",
          "ticks": 42240,
          "time": 147.69216,
          "velocity": 0.6299212598425197
        },
        {
          "duration": 0.5874120000000005,
          "durationTicks": 168,
          "midi": 76,
          "name": "E5",
          "ticks": 42240,
          "time": 147.69216,
          "velocity": 0.6299212598425197
        },
        {
          "duration": 0.5874120000000005,
          "durationTicks": 168,
          "midi": 59,
          "name": "B3",
          "ticks": 42240,
          "time": 147.69216,
          "velocity": 0.6299212598425197
        },
        {
          "duration": 0.5874120000000005,
          "durationTicks": 168,
          "midi": 64,
          "name": "E4",
          "ticks": 42240,
          "time": 147.69216,
          "velocity": 0.6299212598425197
        },
        {
          "duration": 0.5874120000000005,
          "durationTicks": 168,
          "midi": 68,
          "name": "G#4",
          "ticks": 42240,
          "time": 147.69216,
          "velocity": 0.6299212598425197
        },
        {
          "duration": 0.10489499999999907,
          "durationTicks": 30,
          "midi": 76,
          "name": "E5",
          "ticks": 42420,
          "time": 148.32153,
          "velocity": 0.6299212598425197
        },
        {
          "duration": 1.132866000000007,
          "durationTicks": 324,
          "midi": 61,
          "name": "C#4",
          "ticks": 42420,
          "time": 148.32153,
          "velocity": 0.6299212598425197
        },
        {
          "duration": 0.10489499999999907,
          "durationTicks": 30,
          "midi": 52,
          "name": "E3",
          "ticks": 42420,
          "time": 148.32153,
          "velocity": 0.6299212598425197
        },
        {
          "duration": 1.132866000000007,
          "durationTicks": 324,
          "midi": 57,
          "name": "A3",
          "ticks": 42420,
          "time": 148.32153,
          "velocity": 0.6299212598425197
        },
        {
          "duration": 1.132866000000007,
          "durationTicks": 324,
          "midi": 69,
          "name": "A4",
          "ticks": 42420,
          "time": 148.32153,
          "velocity": 0.6299212598425197
        },
        {
          "duration": 0.10489499999999907,
          "durationTicks": 30,
          "midi": 64,
          "name": "E4",
          "ticks": 42420,
          "time": 148.32153,
          "velocity": 0.6299212598425197
        },
        {
          "duration": 0.5454540000000065,
          "durationTicks": 156,
          "midi": 71,
          "name": "B4",
          "ticks": 42720,
          "time": 149.37048000000001,
          "velocity": 0.6299212598425197
        },
        {
          "duration": 0.08391599999998789,
          "durationTicks": 24,
          "midi": 76,
          "name": "E5",
          "ticks": 42720,
          "time": 149.37048000000001,
          "velocity": 0.6299212598425197
        },
        {
          "duration": 0.5454540000000065,
          "durationTicks": 156,
          "midi": 59,
          "name": "B3",
          "ticks": 42720,
          "time": 149.37048000000001,
          "velocity": 0.6299212598425197
        },
        {
          "duration": 0.08391599999998789,
          "durationTicks": 24,
          "midi": 64,
          "name": "E4",
          "ticks": 42720,
          "time": 149.37048000000001,
          "velocity": 0.6299212598425197
        },
        {
          "duration": 0.08391599999998789,
          "durationTicks": 24,
          "midi": 52,
          "name": "E3",
          "ticks": 42720,
          "time": 149.37048000000001,
          "velocity": 0.6299212598425197
        },
        {
          "duration": 0.5454540000000065,
          "durationTicks": 156,
          "midi": 68,
          "name": "G#4",
          "ticks": 42720,
          "time": 149.37048000000001,
          "velocity": 0.6299212598425197
        },
        {
          "duration": 0.9650340000000028,
          "durationTicks": 276,
          "midi": 61,
          "name": "C#4",
          "ticks": 42900,
          "time": 149.99985,
          "velocity": 0.6299212598425197
        },
        {
          "duration": 0.9650340000000028,
          "durationTicks": 276,
          "midi": 52,
          "name": "E3",
          "ticks": 42900,
          "time": 149.99985,
          "velocity": 0.6299212598425197
        },
        {
          "duration": 0.9650340000000028,
          "durationTicks": 276,
          "midi": 57,
          "name": "A3",
          "ticks": 42900,
          "time": 149.99985,
          "velocity": 0.6299212598425197
        },
        {
          "duration": 0.9650340000000028,
          "durationTicks": 276,
          "midi": 69,
          "name": "A4",
          "ticks": 42900,
          "time": 149.99985,
          "velocity": 0.6299212598425197
        },
        {
          "duration": 0.9650340000000028,
          "durationTicks": 276,
          "midi": 64,
          "name": "E4",
          "ticks": 42900,
          "time": 149.99985,
          "velocity": 0.6299212598425197
        },
        {
          "duration": 0.9650340000000028,
          "durationTicks": 276,
          "midi": 76,
          "name": "E5",
          "ticks": 42900,
          "time": 149.99985,
          "velocity": 0.6299212598425197
        }
      ],
      "endOfTrackTicks": 43176
    },
    {
      "channel": 9,
      "controlChanges": {
        "7": [
          {
            "number": 7,
            "ticks": 0,
            "time": 0,
            "value": 0.5748031496062992
          },
          {
            "number": 7,
            "ticks": 0,
            "time": 0,
            "value": 0.5748031496062992
          },
          {
            "number": 7,
            "ticks": 0,
            "time": 0,
            "value": 0.5748031496062992
          },
          {
            "number": 7,
            "ticks": 0,
            "time": 0,
            "value": 0.5748031496062992
          },
          {
            "number": 7,
            "ticks": 0,
            "time": 0,
            "value": 0.5748031496062992
          },
          {
            "number": 7,
            "ticks": 0,
            "time": 0,
            "value": 0.5748031496062992
          },
          {
            "number": 7,
            "ticks": 0,
            "time": 0,
            "value": 0.5748031496062992
          },
          {
            "number": 7,
            "ticks": 0,
            "time": 0,
            "value": 0.5748031496062992
          }
        ]
      },
      "pitchBends": [],
      "instrument": {
        "family": "drums",
        "number": 0,
        "name": "standard kit"
      },
      "name": "Drums",
      "notes": [
        {
          "duration": 0.16783199999999887,
          "durationTicks": 48,
          "midi": 42,
          "name": "F#2",
          "ticks": 3600,
          "time": 12.5874,
          "velocity": 0.6299212598425197
        },
        {
          "duration": 0.3356639999999995,
          "durationTicks": 96,
          "midi": 46,
          "name": "A#2",
          "ticks": 3660,
          "time": 12.79719,
          "velocity": 0.6299212598425197
        },
        {
          "duration": 0.3356639999999995,
          "durationTicks": 96,
          "midi": 42,
          "name": "F#2",
          "ticks": 3840,
          "time": 13.42656,
          "velocity": 0.6299212598425197
        },
        {
          "duration": 0.3356639999999995,
          "durationTicks": 96,
          "midi": 42,
          "name": "F#2",
          "ticks": 3960,
          "time": 13.84614,
          "velocity": 0.6299212598425197
        },
        {
          "duration": 0.3356639999999995,
          "durationTicks": 96,
          "midi": 42,
          "name": "F#2",
          "ticks": 4080,
          "time": 14.26572,
          "velocity": 0.6299212598425197
        },
        {
          "duration": 0.3356639999999995,
          "durationTicks": 96,
          "midi": 42,
          "name": "F#2",
          "ticks": 4200,
          "time": 14.6853,
          "velocity": 0.6299212598425197
        },
        {
          "duration": 0.3356639999999995,
          "durationTicks": 96,
          "midi": 42,
          "name": "F#2",
          "ticks": 4320,
          "time": 15.10488,
          "velocity": 0.6299212598425197
        },
        {
          "duration": 0.3356639999999995,
          "durationTicks": 96,
          "midi": 42,
          "name": "F#2",
          "ticks": 4440,
          "time": 15.52446,
          "velocity": 0.6299212598425197
        },
        {
          "duration": 0.1678319999999971,
          "durationTicks": 48,
          "midi": 42,
          "name": "F#2",
          "ticks": 4560,
          "time": 15.944040000000001,
          "velocity": 0.6299212598425197
        },
        {
          "duration": 0.16783200000000065,
          "durationTicks": 48,
          "midi": 46,
          "name": "A#2",
          "ticks": 4620,
          "time": 16.15383,
          "velocity": 0.6299212598425197
        },
        {
          "duration": 0.1678319999999971,
          "durationTicks": 48,
          "midi": 42,
          "name": "F#2",
          "ticks": 4680,
          "time": 16.36362,
          "velocity": 0.6299212598425197
        },
        {
          "duration": 0.16783200000000065,
          "durationTicks": 48,
          "midi": 46,
          "name": "A#2",
          "ticks": 4740,
          "time": 16.57341,
          "velocity": 0.6299212598425197
        },
        {
          "duration": 0.33566399999999774,
          "durationTicks": 96,
          "midi": 42,
          "name": "F#2",
          "ticks": 4800,
          "time": 16.7832,
          "velocity": 0.6299212598425197
        },
        {
          "duration": 0.33566399999999774,
          "durationTicks": 96,
          "midi": 42,
          "name": "F#2",
          "ticks": 4920,
          "time": 17.20278,
          "velocity": 0.6299212598425197
        },
        {
          "duration": 0.33566399999999774,
          "durationTicks": 96,
          "midi": 42,
          "name": "F#2",
          "ticks": 5040,
          "time": 17.62236,
          "velocity": 0.6299212598425197
        },
        {
          "duration": 0.33566399999999774,
          "durationTicks": 96,
          "midi": 42,
          "name": "F#2",
          "ticks": 5160,
          "time": 18.04194,
          "velocity": 0.6299212598425197
        },
        {
          "duration": 0.33566399999999774,
          "durationTicks": 96,
          "midi": 42,
          "name": "F#2",
          "ticks": 5280,
          "time": 18.46152,
          "velocity": 0.6299212598425197
        },
        {
          "duration": 0.33566399999999774,
          "durationTicks": 96,
          "midi": 42,
          "name": "F#2",
          "ticks": 5400,
          "time": 18.8811,
          "velocity": 0.6299212598425197
        },
        {
          "duration": 0.16783200000000065,
          "durationTicks": 48,
          "midi": 42,
          "name": "F#2",
          "ticks": 5520,
          "time": 19.30068,
          "velocity": 0.6299212598425197
        },
        {
          "duration": 0.1678319999999971,
          "durationTicks": 48,
          "midi": 46,
          "name": "A#2",
          "ticks": 5580,
          "time": 19.51047,
          "velocity": 0.6299212598425197
        },
        {
          "duration": 0.16783200000000065,
          "durationTicks": 48,
          "midi": 42,
          "name": "F#2",
          "ticks": 5640,
          "time": 19.72026,
          "velocity": 0.6299212598425197
        },
        {
          "duration": 0.1678319999999971,
          "durationTicks": 48,
          "midi": 46,
          "name": "A#2",
          "ticks": 5700,
          "time": 19.93005,
          "velocity": 0.6299212598425197
        },
        {
          "duration": 0.3356640000000013,
          "durationTicks": 96,
          "midi": 42,
          "name": "F#2",
          "ticks": 5760,
          "time": 20.13984,
          "velocity": 0.6299212598425197
        },
        {
          "duration": 0.3356640000000013,
          "durationTicks": 96,
          "midi": 42,
          "name": "F#2",
          "ticks": 5880,
          "time": 20.55942,
          "velocity": 0.6299212598425197
        },
        {
          "duration": 0.3356640000000013,
          "durationTicks": 96,
          "midi": 42,
          "name": "F#2",
          "ticks": 6000,
          "time": 20.979,
          "velocity": 0.6299212598425197
        },
        {
          "duration": 0.3356640000000013,
          "durationTicks": 96,
          "midi": 42,
          "name": "F#2",
          "ticks": 6120,
          "time": 21.39858,
          "velocity": 0.6299212598425197
        },
        {
          "duration": 0.3356640000000013,
          "durationTicks": 96,
          "midi": 42,
          "name": "F#2",
          "ticks": 6240,
          "time": 21.81816,
          "velocity": 0.6299212598425197
        },
        {
          "duration": 0.3356640000000013,
          "durationTicks": 96,
          "midi": 42,
          "name": "F#2",
          "ticks": 6360,
          "time": 22.23774,
          "velocity": 0.6299212598425197
        },
        {
          "duration": 0.1678319999999971,
          "durationTicks": 48,
          "midi": 42,
          "name": "F#2",
          "ticks": 6480,
          "time": 22.657320000000002,
          "velocity": 0.6299212598425197
        },
        {
          "duration": 0.16783200000000065,
          "durationTicks": 48,
          "midi": 46,
          "name": "A#2",
          "ticks": 6540,
          "time": 22.86711,
          "velocity": 0.6299212598425197
        },
        {
          "duration": 0.1678319999999971,
          "durationTicks": 48,
          "midi": 42,
          "name": "F#2",
          "ticks": 6600,
          "time": 23.076900000000002,
          "velocity": 0.6299212598425197
        },
        {
          "duration": 0.16783200000000065,
          "durationTicks": 48,
          "midi": 46,
          "name": "A#2",
          "ticks": 6660,
          "time": 23.28669,
          "velocity": 0.6299212598425197
        },
        {
          "duration": 0.33566399999999774,
          "durationTicks": 96,
          "midi": 42,
          "name": "F#2",
          "ticks": 6720,
          "time": 23.496480000000002,
          "velocity": 0.6299212598425197
        },
        {
          "duration": 0.33566399999999774,
          "durationTicks": 96,
          "midi": 42,
          "name": "F#2",
          "ticks": 6840,
          "time": 23.91606,
          "velocity": 0.6299212598425197
        },
        {
          "duration": 0.33566399999999774,
          "durationTicks": 96,
          "midi": 42,
          "name": "F#2",
          "ticks": 6960,
          "time": 24.33564,
          "velocity": 0.6299212598425197
        },
        {
          "duration": 0.33566399999999774,
          "durationTicks": 96,
          "midi": 42,
          "name": "F#2",
          "ticks": 7080,
          "time": 24.75522,
          "velocity": 0.6299212598425197
        },
        {
          "duration": 0.33566399999999774,
          "durationTicks": 96,
          "midi": 42,
          "name": "F#2",
          "ticks": 7200,
          "time": 25.1748,
          "velocity": 0.6299212598425197
        },
        {
          "duration": 0.33566399999999774,
          "durationTicks": 96,
          "midi": 42,
          "name": "F#2",
          "ticks": 7320,
          "time": 25.59438,
          "velocity": 0.6299212598425197
        },
        {
          "duration": 0.16783200000000065,
          "durationTicks": 48,
          "midi": 42,
          "name": "F#2",
          "ticks": 7440,
          "time": 26.01396,
          "velocity": 0.6299212598425197
        },
        {
          "duration": 0.16783200000000065,
          "durationTicks": 48,
          "midi": 46,
          "name": "A#2",
          "ticks": 7500,
          "time": 26.22375,
          "velocity": 0.6299212598425197
        },
        {
          "duration": 0.16783200000000065,
          "durationTicks": 48,
          "midi": 42,
          "name": "F#2",
          "ticks": 7560,
          "time": 26.43354,
          "velocity": 0.6299212598425197
        },
        {
          "duration": 0.0839160000000021,
          "durationTicks": 24,
          "midi": 46,
          "name": "A#2",
          "ticks": 7620,
          "time": 26.64333,
          "velocity": 0.6299212598425197
        },
        {
          "duration": 0.0839160000000021,
          "durationTicks": 24,
          "midi": 38,
          "name": "D2",
          "ticks": 7620,
          "time": 26.64333,
          "velocity": 0.6299212598425197
        },
        {
          "duration": 0.08391599999999855,
          "durationTicks": 24,
          "midi": 38,
          "name": "D2",
          "ticks": 7650,
          "time": 26.748225,
          "velocity": 0.6299212598425197
        },
        {
          "duration": 0.33566399999999774,
          "durationTicks": 96,
          "midi": 46,
          "name": "A#2",
          "ticks": 7680,
          "time": 26.85312,
          "velocity": 0.6299212598425197
        },
        {
          "duration": 0.33566399999999774,
          "durationTicks": 96,
          "midi": 55,
          "name": "G3",
          "ticks": 7680,
          "time": 26.85312,
          "velocity": 0.6299212598425197
        },
        {
          "duration": 0.33566399999999774,
          "durationTicks": 96,
          "midi": 35,
          "name": "B1",
          "ticks": 7680,
          "time": 26.85312,
          "velocity": 0.6299212598425197
        },
        {
          "duration": 0.33566399999999774,
          "durationTicks": 96,
          "midi": 46,
          "name": "A#2",
          "ticks": 7800,
          "time": 27.2727,
          "velocity": 0.6299212598425197
        },
        {
          "duration": 0.33566399999999774,
          "durationTicks": 96,
          "midi": 38,
          "name": "D2",
          "ticks": 7800,
          "time": 27.2727,
          "velocity": 0.6299212598425197
        },
        {
          "duration": 0.1678320000000042,
          "durationTicks": 48,
          "midi": 46,
          "name": "A#2",
          "ticks": 7920,
          "time": 27.69228,
          "velocity": 0.6299212598425197
        },
        {
          "duration": 0.16783200000000065,
          "durationTicks": 48,
          "midi": 35,
          "name": "B1",
          "ticks": 7980,
          "time": 27.902070000000002,
          "velocity": 0.6299212598425197
        },
        {
          "duration": 0.16783200000000065,
          "durationTicks": 48,
          "midi": 46,
          "name": "A#2",
          "ticks": 7980,
          "time": 27.902070000000002,
          "velocity": 0.6299212598425197
        },
        {
          "duration": 0.1678320000000042,
          "durationTicks": 48,
          "midi": 38,
          "name": "D2",
          "ticks": 8040,
          "time": 28.11186,
          "velocity": 0.6299212598425197
        },
        {
          "duration": 0.1678320000000042,
          "durationTicks": 48,
          "midi": 46,
          "name": "A#2",
          "ticks": 8040,
          "time": 28.11186,
          "velocity": 0.6299212598425197
        },
        {
          "duration": 0.16783200000000065,
          "durationTicks": 48,
          "midi": 46,
          "name": "A#2",
          "ticks": 8100,
          "time": 28.32165,
          "velocity": 0.6299212598425197
        },
        {
          "duration": 0.1678320000000042,
          "durationTicks": 48,
          "midi": 35,
          "name": "B1",
          "ticks": 8160,
          "time": 28.53144,
          "velocity": 0.6299212598425197
        },
        {
          "duration": 0.1678320000000042,
          "durationTicks": 48,
          "midi": 46,
          "name": "A#2",
          "ticks": 8160,
          "time": 28.53144,
          "velocity": 0.6299212598425197
        },
        {
          "duration": 0.16783200000000065,
          "durationTicks": 48,
          "midi": 46,
          "name": "A#2",
          "ticks": 8220,
          "time": 28.74123,
          "velocity": 0.6299212598425197
        },
        {
          "duration": 0.1678320000000042,
          "durationTicks": 48,
          "midi": 46,
          "name": "A#2",
          "ticks": 8280,
          "time": 28.95102,
          "velocity": 0.6299212598425197
        },
        {
          "duration": 0.1678320000000042,
          "durationTicks": 48,
          "midi": 38,
          "name": "D2",
          "ticks": 8280,
          "time": 28.95102,
          "velocity": 0.6299212598425197
        },
        {
          "duration": 0.33566399999999774,
          "durationTicks": 96,
          "midi": 46,
          "name": "A#2",
          "ticks": 8340,
          "time": 29.16081,
          "velocity": 0.6299212598425197
        },
        {
          "duration": 0.16783200000000065,
          "durationTicks": 48,
          "midi": 35,
          "name": "B1",
          "ticks": 8460,
          "time": 29.58039,
          "velocity": 0.6299212598425197
        },
        {
          "duration": 0.16783200000000065,
          "durationTicks": 48,
          "midi": 46,
          "name": "A#2",
          "ticks": 8460,
          "time": 29.58039,
          "velocity": 0.6299212598425197
        },
        {
          "duration": 0.1678320000000042,
          "durationTicks": 48,
          "midi": 46,
          "name": "A#2",
          "ticks": 8520,
          "time": 29.79018,
          "velocity": 0.6299212598425197
        },
        {
          "duration": 0.1678320000000042,
          "durationTicks": 48,
          "midi": 38,
          "name": "D2",
          "ticks": 8520,
          "time": 29.79018,
          "velocity": 0.6299212598425197
        },
        {
          "duration": 0.0839160000000021,
          "durationTicks": 24,
          "midi": 38,
          "name": "D2",
          "ticks": 8580,
          "time": 29.99997,
          "velocity": 0.6299212598425197
        },
        {
          "duration": 0.0839160000000021,
          "durationTicks": 24,
          "midi": 42,
          "name": "F#2",
          "ticks": 8580,
          "time": 29.99997,
          "velocity": 0.6299212598425197
        },
        {
          "duration": 0.0839160000000021,
          "durationTicks": 24,
          "midi": 38,
          "name": "D2",
          "ticks": 8610,
          "time": 30.104865,
          "velocity": 0.6299212598425197
        },
        {
          "duration": 0.3356640000000013,
          "durationTicks": 96,
          "midi": 55,
          "name": "G3",
          "ticks": 8640,
          "time": 30.20976,
          "velocity": 0.6299212598425197
        },
        {
          "duration": 0.3356640000000013,
          "durationTicks": 96,
          "midi": 35,
          "name": "B1",
          "ticks": 8640,
          "time": 30.20976,
          "velocity": 0.6299212598425197
        },
        {
          "duration": 0.3356640000000013,
          "durationTicks": 96,
          "midi": 46,
          "name": "A#2",
          "ticks": 8640,
          "time": 30.20976,
          "velocity": 0.6299212598425197
        },
        {
          "duration": 0.3356640000000013,
          "durationTicks": 96,
          "midi": 46,
          "name": "A#2",
          "ticks": 8760,
          "time": 30.62934,
          "velocity": 0.6299212598425197
        },
        {
          "duration": 0.3356640000000013,
          "durationTicks": 96,
          "midi": 38,
          "name": "D2",
          "ticks": 8760,
          "time": 30.62934,
          "velocity": 0.6299212598425197
        },
        {
          "duration": 0.1678320000000042,
          "durationTicks": 48,
          "midi": 46,
          "name": "A#2",
          "ticks": 8880,
          "time": 31.04892,
          "velocity": 0.6299212598425197
        },
        {
          "duration": 0.16783200000000065,
          "durationTicks": 48,
          "midi": 46,
          "name": "A#2",
          "ticks": 8940,
          "time": 31.25871,
          "velocity": 0.6299212598425197
        },
        {
          "duration": 0.16783200000000065,
          "durationTicks": 48,
          "midi": 35,
          "name": "B1",
          "ticks": 8940,
          "time": 31.25871,
          "velocity": 0.6299212598425197
        },
        {
          "duration": 0.16783200000000065,
          "durationTicks": 48,
          "midi": 46,
          "name": "A#2",
          "ticks": 9000,
          "time": 31.468500000000002,
          "velocity": 0.6299212598425197
        },
        {
          "duration": 0.16783200000000065,
          "durationTicks": 48,
          "midi": 38,
          "name": "D2",
          "ticks": 9000,
          "time": 31.468500000000002,
          "velocity": 0.6299212598425197
        },
        {
          "duration": 0.1678320000000042,
          "durationTicks": 48,
          "midi": 46,
          "name": "A#2",
          "ticks": 9060,
          "time": 31.67829,
          "velocity": 0.6299212598425197
        },
        {
          "duration": 0.1678320000000042,
          "durationTicks": 48,
          "midi": 35,
          "name": "B1",
          "ticks": 9120,
          "time": 31.888080000000002,
          "velocity": 0.6299212598425197
        },
        {
          "duration": 0.1678320000000042,
          "durationTicks": 48,
          "midi": 46,
          "name": "A#2",
          "ticks": 9120,
          "time": 31.888080000000002,
          "velocity": 0.6299212598425197
        },
        {
          "duration": 0.1678320000000042,
          "durationTicks": 48,
          "midi": 46,
          "name": "A#2",
          "ticks": 9180,
          "time": 32.09787,
          "velocity": 0.6299212598425197
        },
        {
          "duration": 0.1678320000000042,
          "durationTicks": 48,
          "midi": 46,
          "name": "A#2",
          "ticks": 9240,
          "time": 32.30766,
          "velocity": 0.6299212598425197
        },
        {
          "duration": 0.1678320000000042,
          "durationTicks": 48,
          "midi": 38,
          "name": "D2",
          "ticks": 9240,
          "time": 32.30766,
          "velocity": 0.6299212598425197
        },
        {
          "duration": 0.3356639999999942,
          "durationTicks": 96,
          "midi": 46,
          "name": "A#2",
          "ticks": 9300,
          "time": 32.517450000000004,
          "velocity": 0.6299212598425197
        },
        {
          "duration": 0.1678320000000042,
          "durationTicks": 48,
          "midi": 46,
          "name": "A#2",
          "ticks": 9420,
          "time": 32.93703,
          "velocity": 0.6299212598425197
        },
        {
          "duration": 0.1678320000000042,
          "durationTicks": 48,
          "midi": 35,
          "name": "B1",
          "ticks": 9420,
          "time": 32.93703,
          "velocity": 0.6299212598425197
        },
        {
          "duration": 0.1678320000000042,
          "durationTicks": 48,
          "midi": 46,
          "name": "A#2",
          "ticks": 9480,
          "time": 33.14682,
          "velocity": 0.6299212598425197
        },
        {
          "duration": 0.1678320000000042,
          "durationTicks": 48,
          "midi": 38,
          "name": "D2",
          "ticks": 9480,
          "time": 33.14682,
          "velocity": 0.6299212598425197
        },
        {
          "duration": 0.083915999999995,
          "durationTicks": 24,
          "midi": 42,
          "name": "F#2",
          "ticks": 9540,
          "time": 33.35661,
          "velocity": 0.6299212598425197
        },
        {
          "duration": 0.083915999999995,
          "durationTicks": 24,
          "midi": 38,
          "name": "D2",
          "ticks": 9540,
          "time": 33.35661,
          "velocity": 0.6299212598425197
        },
        {
          "duration": 0.0839160000000021,
          "durationTicks": 24,
          "midi": 38,
          "name": "D2",
          "ticks": 9570,
          "time": 33.461505,
          "velocity": 0.6299212598425197
        },
        {
          "duration": 0.3356640000000013,
          "durationTicks": 96,
          "midi": 55,
          "name": "G3",
          "ticks": 9600,
          "time": 33.5664,
          "velocity": 0.6299212598425197
        },
        {
          "duration": 0.3356640000000013,
          "durationTicks": 96,
          "midi": 35,
          "name": "B1",
          "ticks": 9600,
          "time": 33.5664,
          "velocity": 0.6299212598425197
        },
        {
          "duration": 0.3356640000000013,
          "durationTicks": 96,
          "midi": 46,
          "name": "A#2",
          "ticks": 9600,
          "time": 33.5664,
          "velocity": 0.6299212598425197
        },
        {
          "duration": 0.3356640000000013,
          "durationTicks": 96,
          "midi": 46,
          "name": "A#2",
          "ticks": 9720,
          "time": 33.98598,
          "velocity": 0.6299212598425197
        },
        {
          "duration": 0.3356640000000013,
          "durationTicks": 96,
          "midi": 38,
          "name": "D2",
          "ticks": 9720,
          "time": 33.98598,
          "velocity": 0.6299212598425197
        },
        {
          "duration": 0.1678320000000042,
          "durationTicks": 48,
          "midi": 46,
          "name": "A#2",
          "ticks": 9840,
          "time": 34.40556,
          "velocity": 0.6299212598425197
        },
        {
          "duration": 0.1678320000000042,
          "durationTicks": 48,
          "midi": 35,
          "name": "B1",
          "ticks": 9900,
          "time": 34.61535,
          "velocity": 0.6299212598425197
        },
        {
          "duration": 0.1678320000000042,
          "durationTicks": 48,
          "midi": 46,
          "name": "A#2",
          "ticks": 9900,
          "time": 34.61535,
          "velocity": 0.6299212598425197
        },
        {
          "duration": 0.1678320000000042,
          "durationTicks": 48,
          "midi": 46,
          "name": "A#2",
          "ticks": 9960,
          "time": 34.82514,
          "velocity": 0.6299212598425197
        },
        {
          "duration": 0.1678320000000042,
          "durationTicks": 48,
          "midi": 38,
          "name": "D2",
          "ticks": 9960,
          "time": 34.82514,
          "velocity": 0.6299212598425197
        },
        {
          "duration": 0.1678319999999971,
          "durationTicks": 48,
          "midi": 46,
          "name": "A#2",
          "ticks": 10020,
          "time": 35.03493,
          "velocity": 0.6299212598425197
        },
        {
          "duration": 0.1678320000000042,
          "durationTicks": 48,
          "midi": 35,
          "name": "B1",
          "ticks": 10080,
          "time": 35.24472,
          "velocity": 0.6299212598425197
        },
        {
          "duration": 0.1678320000000042,
          "durationTicks": 48,
          "midi": 46,
          "name": "A#2",
          "ticks": 10080,
          "time": 35.24472,
          "velocity": 0.6299212598425197
        },
        {
          "duration": 0.1678320000000042,
          "durationTicks": 48,
          "midi": 46,
          "name": "A#2",
          "ticks": 10140,
          "time": 35.45451,
          "velocity": 0.6299212598425197
        },
        {
          "duration": 0.1678320000000042,
          "durationTicks": 48,
          "midi": 38,
          "name": "D2",
          "ticks": 10200,
          "time": 35.6643,
          "velocity": 0.6299212598425197
        },
        {
          "duration": 0.1678320000000042,
          "durationTicks": 48,
          "midi": 46,
          "name": "A#2",
          "ticks": 10200,
          "time": 35.6643,
          "velocity": 0.6299212598425197
        },
        {
          "duration": 0.3356639999999942,
          "durationTicks": 96,
          "midi": 46,
          "name": "A#2",
          "ticks": 10260,
          "time": 35.87409,
          "velocity": 0.6299212598425197
        },
        {
          "duration": 0.1678320000000042,
          "durationTicks": 48,
          "midi": 35,
          "name": "B1",
          "ticks": 10380,
          "time": 36.29367,
          "velocity": 0.6299212598425197
        },
        {
          "duration": 0.1678320000000042,
          "durationTicks": 48,
          "midi": 46,
          "name": "A#2",
          "ticks": 10380,
          "time": 36.29367,
          "velocity": 0.6299212598425197
        },
        {
          "duration": 0.1678319999999971,
          "durationTicks": 48,
          "midi": 38,
          "name": "D2",
          "ticks": 10440,
          "time": 36.503460000000004,
          "velocity": 0.6299212598425197
        },
        {
          "duration": 0.1678319999999971,
          "durationTicks": 48,
          "midi": 46,
          "name": "A#2",
          "ticks": 10440,
          "time": 36.503460000000004,
          "velocity": 0.6299212598425197
        },
        {
          "duration": 0.0839160000000021,
          "durationTicks": 24,
          "midi": 38,
          "name": "D2",
          "ticks": 10500,
          "time": 36.71325,
          "velocity": 0.6299212598425197
        },
        {
          "duration": 0.0839160000000021,
          "durationTicks": 24,
          "midi": 42,
          "name": "F#2",
          "ticks": 10500,
          "time": 36.71325,
          "velocity": 0.6299212598425197
        },
        {
          "duration": 0.0839160000000021,
          "durationTicks": 24,
          "midi": 38,
          "name": "D2",
          "ticks": 10530,
          "time": 36.818145,
          "velocity": 0.6299212598425197
        },
        {
          "duration": 0.3356640000000013,
          "durationTicks": 96,
          "midi": 55,
          "name": "G3",
          "ticks": 10560,
          "time": 36.92304,
          "velocity": 0.6299212598425197
        },
        {
          "duration": 0.3356640000000013,
          "durationTicks": 96,
          "midi": 46,
          "name": "A#2",
          "ticks": 10560,
          "time": 36.92304,
          "velocity": 0.6299212598425197
        },
        {
          "duration": 0.3356640000000013,
          "durationTicks": 96,
          "midi": 35,
          "name": "B1",
          "ticks": 10560,
          "time": 36.92304,
          "velocity": 0.6299212598425197
        },
        {
          "duration": 0.1678319999999971,
          "durationTicks": 48,
          "midi": 46,
          "name": "A#2",
          "ticks": 10680,
          "time": 37.342620000000004,
          "velocity": 0.6299212598425197
        },
        {
          "duration": 0.1678319999999971,
          "durationTicks": 48,
          "midi": 38,
          "name": "D2",
          "ticks": 10680,
          "time": 37.342620000000004,
          "velocity": 0.6299212598425197
        },
        {
          "duration": 0.1678320000000042,
          "durationTicks": 48,
          "midi": 46,
          "name": "A#2",
          "ticks": 10740,
          "time": 37.55241,
          "velocity": 0.6299212598425197
        },
        {
          "duration": 0.1678320000000042,
          "durationTicks": 48,
          "midi": 57,
          "name": "A3",
          "ticks": 10740,
          "time": 37.55241,
          "velocity": 0.6299212598425197
        },
        {
          "duration": 0.1678320000000042,
          "durationTicks": 48,
          "midi": 35,
          "name": "B1",
          "ticks": 10740,
          "time": 37.55241,
          "velocity": 0.6299212598425197
        },
        {
          "duration": 0.1678320000000042,
          "durationTicks": 48,
          "midi": 42,
          "name": "F#2",
          "ticks": 11340,
          "time": 39.65031,
          "velocity": 0.6299212598425197
        },
        {
          "duration": 0.1678319999999971,
          "durationTicks": 48,
          "midi": 46,
          "name": "A#2",
          "ticks": 11400,
          "time": 39.8601,
          "velocity": 0.6299212598425197
        },
        {
          "duration": 0.1678320000000042,
          "durationTicks": 48,
          "midi": 42,
          "name": "F#2",
          "ticks": 11520,
          "time": 40.27968,
          "velocity": 0.6299212598425197
        },
        {
          "duration": 0.1678320000000042,
          "durationTicks": 48,
          "midi": 35,
          "name": "B1",
          "ticks": 11520,
          "time": 40.27968,
          "velocity": 0.6299212598425197
        },
        {
          "duration": 0.1678319999999971,
          "durationTicks": 48,
          "midi": 42,
          "name": "F#2",
          "ticks": 11580,
          "time": 40.489470000000004,
          "velocity": 0.6299212598425197
        },
        {
          "duration": 0.1678320000000042,
          "durationTicks": 48,
          "midi": 42,
          "name": "F#2",
          "ticks": 11640,
          "time": 40.69926,
          "velocity": 0.6299212598425197
        },
        {
          "duration": 0.1678320000000042,
          "durationTicks": 48,
          "midi": 42,
          "name": "F#2",
          "ticks": 11700,
          "time": 40.90905,
          "velocity": 0.6299212598425197
        },
        {
          "duration": 0.1678320000000042,
          "durationTicks": 48,
          "midi": 35,
          "name": "B1",
          "ticks": 11700,
          "time": 40.90905,
          "velocity": 0.6299212598425197
        },
        {
          "duration": 0.1678320000000042,
          "durationTicks": 48,
          "midi": 42,
          "name": "F#2",
          "ticks": 11760,
          "time": 41.11884,
          "velocity": 0.6299212598425197
        },
        {
          "duration": 0.1678319999999971,
          "durationTicks": 48,
          "midi": 42,
          "name": "F#2",
          "ticks": 11820,
          "time": 41.328630000000004,
          "velocity": 0.6299212598425197
        },
        {
          "duration": 0.1678320000000042,
          "durationTicks": 48,
          "midi": 42,
          "name": "F#2",
          "ticks": 11880,
          "time": 41.53842,
          "velocity": 0.6299212598425197
        },
        {
          "duration": 0.1678320000000042,
          "durationTicks": 48,
          "midi": 37,
          "name": "C#2",
          "ticks": 11880,
          "time": 41.53842,
          "velocity": 0.6299212598425197
        },
        {
          "duration": 0.1678320000000042,
          "durationTicks": 48,
          "midi": 42,
          "name": "F#2",
          "ticks": 11940,
          "time": 41.74821,
          "velocity": 0.6299212598425197
        },
        {
          "duration": 0.1678320000000042,
          "durationTicks": 48,
          "midi": 35,
          "name": "B1",
          "ticks": 11940,
          "time": 41.74821,
          "velocity": 0.6299212598425197
        },
        {
          "duration": 0.1678320000000042,
          "durationTicks": 48,
          "midi": 42,
          "name": "F#2",
          "ticks": 12000,
          "time": 41.958,
          "velocity": 0.6299212598425197
        },
        {
          "duration": 0.1678320000000042,
          "durationTicks": 48,
          "midi": 35,
          "name": "B1",
          "ticks": 12000,
          "time": 41.958,
          "velocity": 0.6299212598425197
        },
        {
          "duration": 0.1678319999999971,
          "durationTicks": 48,
          "midi": 35,
          "name": "B1",
          "ticks": 12060,
          "time": 42.167790000000004,
          "velocity": 0.6299212598425197
        },
        {
          "duration": 0.1678319999999971,
          "durationTicks": 48,
          "midi": 42,
          "name": "F#2",
          "ticks": 12060,
          "time": 42.167790000000004,
          "velocity": 0.6299212598425197
        },
        {
          "duration": 0.1678320000000042,
          "durationTicks": 48,
          "midi": 42,
          "name": "F#2",
          "ticks": 12120,
          "time": 42.37758,
          "velocity": 0.6299212598425197
        },
        {
          "duration": 0.1678320000000042,
          "durationTicks": 48,
          "midi": 35,
          "name": "B1",
          "ticks": 12180,
          "time": 42.58737,
          "velocity": 0.6299212598425197
        },
        {
          "duration": 0.1678320000000042,
          "durationTicks": 48,
          "midi": 42,
          "name": "F#2",
          "ticks": 12180,
          "time": 42.58737,
          "velocity": 0.6299212598425197
        },
        {
          "duration": 0.1678320000000042,
          "durationTicks": 48,
          "midi": 42,
          "name": "F#2",
          "ticks": 12240,
          "time": 42.79716,
          "velocity": 0.6299212598425197
        },
        {
          "duration": 0.1678319999999971,
          "durationTicks": 48,
          "midi": 42,
          "name": "F#2",
          "ticks": 12300,
          "time": 43.00695,
          "velocity": 0.6299212598425197
        },
        {
          "duration": 0.1678319999999971,
          "durationTicks": 48,
          "midi": 35,
          "name": "B1",
          "ticks": 12300,
          "time": 43.00695,
          "velocity": 0.6299212598425197
        },
        {
          "duration": 0.1678320000000042,
          "durationTicks": 48,
          "midi": 37,
          "name": "C#2",
          "ticks": 12360,
          "time": 43.21674,
          "velocity": 0.6299212598425197
        },
        {
          "duration": 0.1678320000000042,
          "durationTicks": 48,
          "midi": 42,
          "name": "F#2",
          "ticks": 12360,
          "time": 43.21674,
          "velocity": 0.6299212598425197
        },
        {
          "duration": 0.1678320000000042,
          "durationTicks": 48,
          "midi": 46,
          "name": "A#2",
          "ticks": 12420,
          "time": 43.42653,
          "velocity": 0.6299212598425197
        },
        {
          "duration": 0.1678320000000042,
          "durationTicks": 48,
          "midi": 42,
          "name": "F#2",
          "ticks": 12480,
          "time": 43.63632,
          "velocity": 0.6299212598425197
        },
        {
          "duration": 0.1678320000000042,
          "durationTicks": 48,
          "midi": 35,
          "name": "B1",
          "ticks": 12480,
          "time": 43.63632,
          "velocity": 0.6299212598425197
        },
        {
          "duration": 0.1678319999999971,
          "durationTicks": 48,
          "midi": 42,
          "name": "F#2",
          "ticks": 12540,
          "time": 43.84611,
          "velocity": 0.6299212598425197
        },
        {
          "duration": 0.1678320000000042,
          "durationTicks": 48,
          "midi": 42,
          "name": "F#2",
          "ticks": 12600,
          "time": 44.0559,
          "velocity": 0.6299212598425197
        },
        {
          "duration": 0.1678320000000042,
          "durationTicks": 48,
          "midi": 35,
          "name": "B1",
          "ticks": 12660,
          "time": 44.26569,
          "velocity": 0.6299212598425197
        },
        {
          "duration": 0.1678320000000042,
          "durationTicks": 48,
          "midi": 42,
          "name": "F#2",
          "ticks": 12660,
          "time": 44.26569,
          "velocity": 0.6299212598425197
        },
        {
          "duration": 0.1678320000000042,
          "durationTicks": 48,
          "midi": 42,
          "name": "F#2",
          "ticks": 12720,
          "time": 44.47548,
          "velocity": 0.6299212598425197
        },
        {
          "duration": 0.1678319999999971,
          "durationTicks": 48,
          "midi": 42,
          "name": "F#2",
          "ticks": 12780,
          "time": 44.68527,
          "velocity": 0.6299212598425197
        },
        {
          "duration": 0.1678320000000042,
          "durationTicks": 48,
          "midi": 37,
          "name": "C#2",
          "ticks": 12840,
          "time": 44.89506,
          "velocity": 0.6299212598425197
        },
        {
          "duration": 0.1678320000000042,
          "durationTicks": 48,
          "midi": 42,
          "name": "F#2",
          "ticks": 12840,
          "time": 44.89506,
          "velocity": 0.6299212598425197
        },
        {
          "duration": 0.1678320000000042,
          "durationTicks": 48,
          "midi": 35,
          "name": "B1",
          "ticks": 12900,
          "time": 45.10485,
          "velocity": 0.6299212598425197
        },
        {
          "duration": 0.1678320000000042,
          "durationTicks": 48,
          "midi": 42,
          "name": "F#2",
          "ticks": 12900,
          "time": 45.10485,
          "velocity": 0.6299212598425197
        },
        {
          "duration": 0.1678319999999971,
          "durationTicks": 48,
          "midi": 42,
          "name": "F#2",
          "ticks": 12960,
          "time": 45.314640000000004,
          "velocity": 0.6299212598425197
        },
        {
          "duration": 0.1678319999999971,
          "durationTicks": 48,
          "midi": 35,
          "name": "B1",
          "ticks": 12960,
          "time": 45.314640000000004,
          "velocity": 0.6299212598425197
        },
        {
          "duration": 0.1678320000000042,
          "durationTicks": 48,
          "midi": 42,
          "name": "F#2",
          "ticks": 13020,
          "time": 45.52443,
          "velocity": 0.6299212598425197
        },
        {
          "duration": 0.1678320000000042,
          "durationTicks": 48,
          "midi": 35,
          "name": "B1",
          "ticks": 13020,
          "time": 45.52443,
          "velocity": 0.6299212598425197
        },
        {
          "duration": 0.1678320000000042,
          "durationTicks": 48,
          "midi": 42,
          "name": "F#2",
          "ticks": 13080,
          "time": 45.73422,
          "velocity": 0.6299212598425197
        },
        {
          "duration": 0.1678320000000042,
          "durationTicks": 48,
          "midi": 42,
          "name": "F#2",
          "ticks": 13140,
          "time": 45.94401,
          "velocity": 0.6299212598425197
        },
        {
          "duration": 0.1678320000000042,
          "durationTicks": 48,
          "midi": 35,
          "name": "B1",
          "ticks": 13140,
          "time": 45.94401,
          "velocity": 0.6299212598425197
        },
        {
          "duration": 0.1678319999999971,
          "durationTicks": 48,
          "midi": 42,
          "name": "F#2",
          "ticks": 13200,
          "time": 46.153800000000004,
          "velocity": 0.6299212598425197
        },
        {
          "duration": 0.1678320000000042,
          "durationTicks": 48,
          "midi": 35,
          "name": "B1",
          "ticks": 13260,
          "time": 46.36359,
          "velocity": 0.6299212598425197
        },
        {
          "duration": 0.1678320000000042,
          "durationTicks": 48,
          "midi": 42,
          "name": "F#2",
          "ticks": 13260,
          "time": 46.36359,
          "velocity": 0.6299212598425197
        },
        {
          "duration": 0.1678320000000042,
          "durationTicks": 48,
          "midi": 42,
          "name": "F#2",
          "ticks": 13320,
          "time": 46.57338,
          "velocity": 0.6299212598425197
        },
        {
          "duration": 0.1678320000000042,
          "durationTicks": 48,
          "midi": 37,
          "name": "C#2",
          "ticks": 13320,
          "time": 46.57338,
          "velocity": 0.6299212598425197
        },
        {
          "duration": 0.1678320000000042,
          "durationTicks": 48,
          "midi": 46,
          "name": "A#2",
          "ticks": 13380,
          "time": 46.78317,
          "velocity": 0.6299212598425197
        },
        {
          "duration": 0.1678319999999971,
          "durationTicks": 48,
          "midi": 42,
          "name": "F#2",
          "ticks": 13440,
          "time": 46.992960000000004,
          "velocity": 0.6299212598425197
        },
        {
          "duration": 0.1678319999999971,
          "durationTicks": 48,
          "midi": 35,
          "name": "B1",
          "ticks": 13440,
          "time": 46.992960000000004,
          "velocity": 0.6299212598425197
        },
        {
          "duration": 0.1678320000000042,
          "durationTicks": 48,
          "midi": 42,
          "name": "F#2",
          "ticks": 13500,
          "time": 47.20275,
          "velocity": 0.6299212598425197
        },
        {
          "duration": 0.1678320000000042,
          "durationTicks": 48,
          "midi": 42,
          "name": "F#2",
          "ticks": 13560,
          "time": 47.41254,
          "velocity": 0.6299212598425197
        },
        {
          "duration": 0.1678320000000042,
          "durationTicks": 48,
          "midi": 35,
          "name": "B1",
          "ticks": 13620,
          "time": 47.62233,
          "velocity": 0.6299212598425197
        },
        {
          "duration": 0.1678320000000042,
          "durationTicks": 48,
          "midi": 42,
          "name": "F#2",
          "ticks": 13620,
          "time": 47.62233,
          "velocity": 0.6299212598425197
        },
        {
          "duration": 0.1678319999999971,
          "durationTicks": 48,
          "midi": 42,
          "name": "F#2",
          "ticks": 13680,
          "time": 47.83212,
          "velocity": 0.6299212598425197
        },
        {
          "duration": 0.1678320000000042,
          "durationTicks": 48,
          "midi": 42,
          "name": "F#2",
          "ticks": 13740,
          "time": 48.04191,
          "velocity": 0.6299212598425197
        },
        {
          "duration": 0.1678320000000042,
          "durationTicks": 48,
          "midi": 37,
          "name": "C#2",
          "ticks": 13800,
          "time": 48.2517,
          "velocity": 0.6299212598425197
        },
        {
          "duration": 0.1678320000000042,
          "durationTicks": 48,
          "midi": 42,
          "name": "F#2",
          "ticks": 13800,
          "time": 48.2517,
          "velocity": 0.6299212598425197
        },
        {
          "duration": 0.1678320000000042,
          "durationTicks": 48,
          "midi": 35,
          "name": "B1",
          "ticks": 13860,
          "time": 48.46149,
          "velocity": 0.6299212598425197
        },
        {
          "duration": 0.1678320000000042,
          "durationTicks": 48,
          "midi": 42,
          "name": "F#2",
          "ticks": 13860,
          "time": 48.46149,
          "velocity": 0.6299212598425197
        },
        {
          "duration": 0.1678319999999971,
          "durationTicks": 48,
          "midi": 42,
          "name": "F#2",
          "ticks": 13920,
          "time": 48.67128,
          "velocity": 0.6299212598425197
        },
        {
          "duration": 0.1678319999999971,
          "durationTicks": 48,
          "midi": 35,
          "name": "B1",
          "ticks": 13920,
          "time": 48.67128,
          "velocity": 0.6299212598425197
        },
        {
          "duration": 0.1678320000000042,
          "durationTicks": 48,
          "midi": 42,
          "name": "F#2",
          "ticks": 13980,
          "time": 48.88107,
          "velocity": 0.6299212598425197
        },
        {
          "duration": 0.1678320000000042,
          "durationTicks": 48,
          "midi": 35,
          "name": "B1",
          "ticks": 13980,
          "time": 48.88107,
          "velocity": 0.6299212598425197
        },
        {
          "duration": 0.1678320000000042,
          "durationTicks": 48,
          "midi": 42,
          "name": "F#2",
          "ticks": 14040,
          "time": 49.09086,
          "velocity": 0.6299212598425197
        },
        {
          "duration": 0.1678319999999971,
          "durationTicks": 48,
          "midi": 35,
          "name": "B1",
          "ticks": 14100,
          "time": 49.300650000000005,
          "velocity": 0.6299212598425197
        },
        {
          "duration": 0.1678319999999971,
          "durationTicks": 48,
          "midi": 42,
          "name": "F#2",
          "ticks": 14100,
          "time": 49.300650000000005,
          "velocity": 0.6299212598425197
        },
        {
          "duration": 0.1678320000000042,
          "durationTicks": 48,
          "midi": 42,
          "name": "F#2",
          "ticks": 14160,
          "time": 49.51044,
          "velocity": 0.6299212598425197
        },
        {
          "duration": 0.1678320000000042,
          "durationTicks": 48,
          "midi": 35,
          "name": "B1",
          "ticks": 14220,
          "time": 49.72023,
          "velocity": 0.6299212598425197
        },
        {
          "duration": 0.1678320000000042,
          "durationTicks": 48,
          "midi": 42,
          "name": "F#2",
          "ticks": 14220,
          "time": 49.72023,
          "velocity": 0.6299212598425197
        },
        {
          "duration": 0.1678320000000042,
          "durationTicks": 48,
          "midi": 42,
          "name": "F#2",
          "ticks": 14280,
          "time": 49.93002,
          "velocity": 0.6299212598425197
        },
        {
          "duration": 0.1678320000000042,
          "durationTicks": 48,
          "midi": 37,
          "name": "C#2",
          "ticks": 14280,
          "time": 49.93002,
          "velocity": 0.6299212598425197
        },
        {
          "duration": 0.1678319999999971,
          "durationTicks": 48,
          "midi": 46,
          "name": "A#2",
          "ticks": 14340,
          "time": 50.139810000000004,
          "velocity": 0.6299212598425197
        },
        {
          "duration": 0.1678320000000042,
          "durationTicks": 48,
          "midi": 35,
          "name": "B1",
          "ticks": 14400,
          "time": 50.3496,
          "velocity": 0.6299212598425197
        },
        {
          "duration": 0.1678320000000042,
          "durationTicks": 48,
          "midi": 42,
          "name": "F#2",
          "ticks": 14400,
          "time": 50.3496,
          "velocity": 0.6299212598425197
        },
        {
          "duration": 0.1678320000000042,
          "durationTicks": 48,
          "midi": 42,
          "name": "F#2",
          "ticks": 14460,
          "time": 50.55939,
          "velocity": 0.6299212598425197
        },
        {
          "duration": 0.1678320000000042,
          "durationTicks": 48,
          "midi": 42,
          "name": "F#2",
          "ticks": 14520,
          "time": 50.76918,
          "velocity": 0.6299212598425197
        },
        {
          "duration": 0.1678319999999971,
          "durationTicks": 48,
          "midi": 35,
          "name": "B1",
          "ticks": 14580,
          "time": 50.978970000000004,
          "velocity": 0.6299212598425197
        },
        {
          "duration": 0.1678319999999971,
          "durationTicks": 48,
          "midi": 42,
          "name": "F#2",
          "ticks": 14580,
          "time": 50.978970000000004,
          "velocity": 0.6299212598425197
        },
        {
          "duration": 0.1678320000000042,
          "durationTicks": 48,
          "midi": 42,
          "name": "F#2",
          "ticks": 14640,
          "time": 51.18876,
          "velocity": 0.6299212598425197
        },
        {
          "duration": 0.1678320000000042,
          "durationTicks": 48,
          "midi": 42,
          "name": "F#2",
          "ticks": 14700,
          "time": 51.39855,
          "velocity": 0.6299212598425197
        },
        {
          "duration": 0.1678320000000042,
          "durationTicks": 48,
          "midi": 37,
          "name": "C#2",
          "ticks": 14760,
          "time": 51.60834,
          "velocity": 0.6299212598425197
        },
        {
          "duration": 0.1678320000000042,
          "durationTicks": 48,
          "midi": 42,
          "name": "F#2",
          "ticks": 14760,
          "time": 51.60834,
          "velocity": 0.6299212598425197
        },
        {
          "duration": 0.1678319999999971,
          "durationTicks": 48,
          "midi": 35,
          "name": "B1",
          "ticks": 14820,
          "time": 51.818130000000004,
          "velocity": 0.6299212598425197
        },
        {
          "duration": 0.1678319999999971,
          "durationTicks": 48,
          "midi": 42,
          "name": "F#2",
          "ticks": 14820,
          "time": 51.818130000000004,
          "velocity": 0.6299212598425197
        },
        {
          "duration": 0.1678320000000042,
          "durationTicks": 48,
          "midi": 42,
          "name": "F#2",
          "ticks": 14880,
          "time": 52.02792,
          "velocity": 0.6299212598425197
        },
        {
          "duration": 0.1678320000000042,
          "durationTicks": 48,
          "midi": 35,
          "name": "B1",
          "ticks": 14880,
          "time": 52.02792,
          "velocity": 0.6299212598425197
        },
        {
          "duration": 0.1678320000000042,
          "durationTicks": 48,
          "midi": 35,
          "name": "B1",
          "ticks": 14940,
          "time": 52.23771,
          "velocity": 0.6299212598425197
        },
        {
          "duration": 0.1678320000000042,
          "durationTicks": 48,
          "midi": 42,
          "name": "F#2",
          "ticks": 14940,
          "time": 52.23771,
          "velocity": 0.6299212598425197
        },
        {
          "duration": 0.1678320000000042,
          "durationTicks": 48,
          "midi": 42,
          "name": "F#2",
          "ticks": 15000,
          "time": 52.4475,
          "velocity": 0.6299212598425197
        },
        {
          "duration": 0.1678319999999971,
          "durationTicks": 48,
          "midi": 42,
          "name": "F#2",
          "ticks": 15060,
          "time": 52.65729,
          "velocity": 0.6299212598425197
        },
        {
          "duration": 0.1678319999999971,
          "durationTicks": 48,
          "midi": 35,
          "name": "B1",
          "ticks": 15060,
          "time": 52.65729,
          "velocity": 0.6299212598425197
        },
        {
          "duration": 0.1678320000000042,
          "durationTicks": 48,
          "midi": 42,
          "name": "F#2",
          "ticks": 15120,
          "time": 52.86708,
          "velocity": 0.6299212598425197
        },
        {
          "duration": 0.1678320000000042,
          "durationTicks": 48,
          "midi": 35,
          "name": "B1",
          "ticks": 15180,
          "time": 53.07687,
          "velocity": 0.6299212598425197
        },
        {
          "duration": 0.1678320000000042,
          "durationTicks": 48,
          "midi": 42,
          "name": "F#2",
          "ticks": 15180,
          "time": 53.07687,
          "velocity": 0.6299212598425197
        },
        {
          "duration": 0.1678320000000042,
          "durationTicks": 48,
          "midi": 42,
          "name": "F#2",
          "ticks": 15240,
          "time": 53.28666,
          "velocity": 0.6299212598425197
        },
        {
          "duration": 0.1678320000000042,
          "durationTicks": 48,
          "midi": 37,
          "name": "C#2",
          "ticks": 15240,
          "time": 53.28666,
          "velocity": 0.6299212598425197
        },
        {
          "duration": 0.1678319999999971,
          "durationTicks": 48,
          "midi": 46,
          "name": "A#2",
          "ticks": 15300,
          "time": 53.49645,
          "velocity": 0.6299212598425197
        },
        {
          "duration": 0.1678320000000042,
          "durationTicks": 48,
          "midi": 42,
          "name": "F#2",
          "ticks": 15360,
          "time": 53.70624,
          "velocity": 0.6299212598425197
        },
        {
          "duration": 0.1678320000000042,
          "durationTicks": 48,
          "midi": 35,
          "name": "B1",
          "ticks": 15360,
          "time": 53.70624,
          "velocity": 0.6299212598425197
        },
        {
          "duration": 0.1678320000000042,
          "durationTicks": 48,
          "midi": 42,
          "name": "F#2",
          "ticks": 15420,
          "time": 53.91603,
          "velocity": 0.6299212598425197
        },
        {
          "duration": 0.1678319999999971,
          "durationTicks": 48,
          "midi": 42,
          "name": "F#2",
          "ticks": 15480,
          "time": 54.125820000000004,
          "velocity": 0.6299212598425197
        },
        {
          "duration": 0.1678320000000042,
          "durationTicks": 48,
          "midi": 35,
          "name": "B1",
          "ticks": 15540,
          "time": 54.33561,
          "velocity": 0.6299212598425197
        },
        {
          "duration": 0.1678320000000042,
          "durationTicks": 48,
          "midi": 42,
          "name": "F#2",
          "ticks": 15540,
          "time": 54.33561,
          "velocity": 0.6299212598425197
        },
        {
          "duration": 0.1678320000000042,
          "durationTicks": 48,
          "midi": 42,
          "name": "F#2",
          "ticks": 15600,
          "time": 54.5454,
          "velocity": 0.6299212598425197
        },
        {
          "duration": 0.1678320000000042,
          "durationTicks": 48,
          "midi": 42,
          "name": "F#2",
          "ticks": 15660,
          "time": 54.75519,
          "velocity": 0.6299212598425197
        },
        {
          "duration": 0.1678319999999971,
          "durationTicks": 48,
          "midi": 42,
          "name": "F#2",
          "ticks": 15720,
          "time": 54.964980000000004,
          "velocity": 0.6299212598425197
        },
        {
          "duration": 0.1678319999999971,
          "durationTicks": 48,
          "midi": 37,
          "name": "C#2",
          "ticks": 15720,
          "time": 54.964980000000004,
          "velocity": 0.6299212598425197
        },
        {
          "duration": 0.1678320000000042,
          "durationTicks": 48,
          "midi": 35,
          "name": "B1",
          "ticks": 15780,
          "time": 55.17477,
          "velocity": 0.6299212598425197
        },
        {
          "duration": 0.1678320000000042,
          "durationTicks": 48,
          "midi": 42,
          "name": "F#2",
          "ticks": 15780,
          "time": 55.17477,
          "velocity": 0.6299212598425197
        },
        {
          "duration": 0.1678320000000042,
          "durationTicks": 48,
          "midi": 42,
          "name": "F#2",
          "ticks": 15840,
          "time": 55.38456,
          "velocity": 0.6299212598425197
        },
        {
          "duration": 0.1678320000000042,
          "durationTicks": 48,
          "midi": 35,
          "name": "B1",
          "ticks": 15840,
          "time": 55.38456,
          "velocity": 0.6299212598425197
        },
        {
          "duration": 0.1678320000000042,
          "durationTicks": 48,
          "midi": 35,
          "name": "B1",
          "ticks": 15900,
          "time": 55.59435,
          "velocity": 0.6299212598425197
        },
        {
          "duration": 0.1678320000000042,
          "durationTicks": 48,
          "midi": 42,
          "name": "F#2",
          "ticks": 15900,
          "time": 55.59435,
          "velocity": 0.6299212598425197
        },
        {
          "duration": 0.1678319999999971,
          "durationTicks": 48,
          "midi": 42,
          "name": "F#2",
          "ticks": 15960,
          "time": 55.804140000000004,
          "velocity": 0.6299212598425197
        },
        {
          "duration": 0.1678320000000042,
          "durationTicks": 48,
          "midi": 42,
          "name": "F#2",
          "ticks": 16020,
          "time": 56.01393,
          "velocity": 0.6299212598425197
        },
        {
          "duration": 0.1678320000000042,
          "durationTicks": 48,
          "midi": 35,
          "name": "B1",
          "ticks": 16020,
          "time": 56.01393,
          "velocity": 0.6299212598425197
        },
        {
          "duration": 0.1678320000000042,
          "durationTicks": 48,
          "midi": 42,
          "name": "F#2",
          "ticks": 16080,
          "time": 56.22372,
          "velocity": 0.6299212598425197
        },
        {
          "duration": 0.1678320000000042,
          "durationTicks": 48,
          "midi": 35,
          "name": "B1",
          "ticks": 16140,
          "time": 56.43351,
          "velocity": 0.6299212598425197
        },
        {
          "duration": 0.1678320000000042,
          "durationTicks": 48,
          "midi": 42,
          "name": "F#2",
          "ticks": 16140,
          "time": 56.43351,
          "velocity": 0.6299212598425197
        },
        {
          "duration": 0.1678319999999971,
          "durationTicks": 48,
          "midi": 42,
          "name": "F#2",
          "ticks": 16200,
          "time": 56.6433,
          "velocity": 0.6299212598425197
        },
        {
          "duration": 0.1678319999999971,
          "durationTicks": 48,
          "midi": 37,
          "name": "C#2",
          "ticks": 16200,
          "time": 56.6433,
          "velocity": 0.6299212598425197
        },
        {
          "duration": 0.1678320000000042,
          "durationTicks": 48,
          "midi": 46,
          "name": "A#2",
          "ticks": 16260,
          "time": 56.85309,
          "velocity": 0.6299212598425197
        },
        {
          "duration": 0.1678320000000042,
          "durationTicks": 48,
          "midi": 42,
          "name": "F#2",
          "ticks": 16320,
          "time": 57.06288,
          "velocity": 0.6299212598425197
        },
        {
          "duration": 0.1678320000000042,
          "durationTicks": 48,
          "midi": 35,
          "name": "B1",
          "ticks": 16320,
          "time": 57.06288,
          "velocity": 0.6299212598425197
        },
        {
          "duration": 0.1678320000000042,
          "durationTicks": 48,
          "midi": 42,
          "name": "F#2",
          "ticks": 16380,
          "time": 57.27267,
          "velocity": 0.6299212598425197
        },
        {
          "duration": 0.1678319999999971,
          "durationTicks": 48,
          "midi": 42,
          "name": "F#2",
          "ticks": 16440,
          "time": 57.48246,
          "velocity": 0.6299212598425197
        },
        {
          "duration": 0.1678320000000042,
          "durationTicks": 48,
          "midi": 35,
          "name": "B1",
          "ticks": 16500,
          "time": 57.69225,
          "velocity": 0.6299212598425197
        },
        {
          "duration": 0.1678320000000042,
          "durationTicks": 48,
          "midi": 42,
          "name": "F#2",
          "ticks": 16500,
          "time": 57.69225,
          "velocity": 0.6299212598425197
        },
        {
          "duration": 0.1678320000000042,
          "durationTicks": 48,
          "midi": 42,
          "name": "F#2",
          "ticks": 16560,
          "time": 57.90204,
          "velocity": 0.6299212598425197
        },
        {
          "duration": 0.1678320000000042,
          "durationTicks": 48,
          "midi": 42,
          "name": "F#2",
          "ticks": 16620,
          "time": 58.11183,
          "velocity": 0.6299212598425197
        },
        {
          "duration": 0.1678320000000042,
          "durationTicks": 48,
          "midi": 42,
          "name": "F#2",
          "ticks": 16680,
          "time": 58.32162,
          "velocity": 0.6299212598425197
        },
        {
          "duration": 0.1678320000000042,
          "durationTicks": 48,
          "midi": 37,
          "name": "C#2",
          "ticks": 16680,
          "time": 58.32162,
          "velocity": 0.6299212598425197
        },
        {
          "duration": 0.1678320000000042,
          "durationTicks": 48,
          "midi": 35,
          "name": "B1",
          "ticks": 16740,
          "time": 58.53141,
          "velocity": 0.6299212598425197
        },
        {
          "duration": 0.1678320000000042,
          "durationTicks": 48,
          "midi": 42,
          "name": "F#2",
          "ticks": 16740,
          "time": 58.53141,
          "velocity": 0.6299212598425197
        },
        {
          "duration": 0.1678320000000042,
          "durationTicks": 48,
          "midi": 42,
          "name": "F#2",
          "ticks": 16800,
          "time": 58.7412,
          "velocity": 0.6299212598425197
        },
        {
          "duration": 0.1678320000000042,
          "durationTicks": 48,
          "midi": 35,
          "name": "B1",
          "ticks": 16800,
          "time": 58.7412,
          "velocity": 0.6299212598425197
        },
        {
          "duration": 0.1678319999999971,
          "durationTicks": 48,
          "midi": 35,
          "name": "B1",
          "ticks": 16860,
          "time": 58.950990000000004,
          "velocity": 0.6299212598425197
        },
        {
          "duration": 0.1678319999999971,
          "durationTicks": 48,
          "midi": 42,
          "name": "F#2",
          "ticks": 16860,
          "time": 58.950990000000004,
          "velocity": 0.6299212598425197
        },
        {
          "duration": 0.1678320000000042,
          "durationTicks": 48,
          "midi": 42,
          "name": "F#2",
          "ticks": 16920,
          "time": 59.16078,
          "velocity": 0.6299212598425197
        },
        {
          "duration": 0.1678320000000042,
          "durationTicks": 48,
          "midi": 42,
          "name": "F#2",
          "ticks": 16980,
          "time": 59.37057,
          "velocity": 0.6299212598425197
        },
        {
          "duration": 0.1678320000000042,
          "durationTicks": 48,
          "midi": 35,
          "name": "B1",
          "ticks": 16980,
          "time": 59.37057,
          "velocity": 0.6299212598425197
        },
        {
          "duration": 0.1678320000000042,
          "durationTicks": 48,
          "midi": 42,
          "name": "F#2",
          "ticks": 17040,
          "time": 59.58036,
          "velocity": 0.6299212598425197
        },
        {
          "duration": 0.1678319999999971,
          "durationTicks": 48,
          "midi": 35,
          "name": "B1",
          "ticks": 17100,
          "time": 59.790150000000004,
          "velocity": 0.6299212598425197
        },
        {
          "duration": 0.1678319999999971,
          "durationTicks": 48,
          "midi": 42,
          "name": "F#2",
          "ticks": 17100,
          "time": 59.790150000000004,
          "velocity": 0.6299212598425197
        },
        {
          "duration": 0.1678320000000042,
          "durationTicks": 48,
          "midi": 42,
          "name": "F#2",
          "ticks": 17160,
          "time": 59.99994,
          "velocity": 0.6299212598425197
        },
        {
          "duration": 0.1678320000000042,
          "durationTicks": 48,
          "midi": 37,
          "name": "C#2",
          "ticks": 17160,
          "time": 59.99994,
          "velocity": 0.6299212598425197
        },
        {
          "duration": 0.1678320000000042,
          "durationTicks": 48,
          "midi": 46,
          "name": "A#2",
          "ticks": 17220,
          "time": 60.20973,
          "velocity": 0.6299212598425197
        },
        {
          "duration": 0.1678320000000042,
          "durationTicks": 48,
          "midi": 42,
          "name": "F#2",
          "ticks": 17280,
          "time": 60.41952,
          "velocity": 0.6299212598425197
        },
        {
          "duration": 0.1678320000000042,
          "durationTicks": 48,
          "midi": 35,
          "name": "B1",
          "ticks": 17280,
          "time": 60.41952,
          "velocity": 0.6299212598425197
        },
        {
          "duration": 0.1678319999999971,
          "durationTicks": 48,
          "midi": 42,
          "name": "F#2",
          "ticks": 17340,
          "time": 60.629310000000004,
          "velocity": 0.6299212598425197
        },
        {
          "duration": 0.1678320000000042,
          "durationTicks": 48,
          "midi": 42,
          "name": "F#2",
          "ticks": 17400,
          "time": 60.8391,
          "velocity": 0.6299212598425197
        },
        {
          "duration": 0.1678320000000042,
          "durationTicks": 48,
          "midi": 35,
          "name": "B1",
          "ticks": 17460,
          "time": 61.04889,
          "velocity": 0.6299212598425197
        },
        {
          "duration": 0.1678320000000042,
          "durationTicks": 48,
          "midi": 42,
          "name": "F#2",
          "ticks": 17460,
          "time": 61.04889,
          "velocity": 0.6299212598425197
        },
        {
          "duration": 0.1678320000000042,
          "durationTicks": 48,
          "midi": 42,
          "name": "F#2",
          "ticks": 17520,
          "time": 61.25868,
          "velocity": 0.6299212598425197
        },
        {
          "duration": 0.1678319999999971,
          "durationTicks": 48,
          "midi": 42,
          "name": "F#2",
          "ticks": 17580,
          "time": 61.46847,
          "velocity": 0.6299212598425197
        },
        {
          "duration": 0.1678320000000042,
          "durationTicks": 48,
          "midi": 42,
          "name": "F#2",
          "ticks": 17640,
          "time": 61.67826,
          "velocity": 0.6299212598425197
        },
        {
          "duration": 0.1678320000000042,
          "durationTicks": 48,
          "midi": 37,
          "name": "C#2",
          "ticks": 17640,
          "time": 61.67826,
          "velocity": 0.6299212598425197
        },
        {
          "duration": 0.1678320000000042,
          "durationTicks": 48,
          "midi": 35,
          "name": "B1",
          "ticks": 17700,
          "time": 61.88805,
          "velocity": 0.6299212598425197
        },
        {
          "duration": 0.1678320000000042,
          "durationTicks": 48,
          "midi": 42,
          "name": "F#2",
          "ticks": 17700,
          "time": 61.88805,
          "velocity": 0.6299212598425197
        },
        {
          "duration": 0.1678320000000042,
          "durationTicks": 48,
          "midi": 35,
          "name": "B1",
          "ticks": 17760,
          "time": 62.09784,
          "velocity": 0.6299212598425197
        },
        {
          "duration": 0.1678320000000042,
          "durationTicks": 48,
          "midi": 42,
          "name": "F#2",
          "ticks": 17760,
          "time": 62.09784,
          "velocity": 0.6299212598425197
        },
        {
          "duration": 0.1678319999999971,
          "durationTicks": 48,
          "midi": 42,
          "name": "F#2",
          "ticks": 17820,
          "time": 62.30763,
          "velocity": 0.6299212598425197
        },
        {
          "duration": 0.1678319999999971,
          "durationTicks": 48,
          "midi": 35,
          "name": "B1",
          "ticks": 17820,
          "time": 62.30763,
          "velocity": 0.6299212598425197
        },
        {
          "duration": 0.1678320000000042,
          "durationTicks": 48,
          "midi": 42,
          "name": "F#2",
          "ticks": 17880,
          "time": 62.51742,
          "velocity": 0.6299212598425197
        },
        {
          "duration": 0.1678320000000042,
          "durationTicks": 48,
          "midi": 42,
          "name": "F#2",
          "ticks": 17940,
          "time": 62.72721,
          "velocity": 0.6299212598425197
        },
        {
          "duration": 0.1678320000000042,
          "durationTicks": 48,
          "midi": 35,
          "name": "B1",
          "ticks": 17940,
          "time": 62.72721,
          "velocity": 0.6299212598425197
        },
        {
          "duration": 0.1678319999999971,
          "durationTicks": 48,
          "midi": 42,
          "name": "F#2",
          "ticks": 18000,
          "time": 62.937000000000005,
          "velocity": 0.6299212598425197
        },
        {
          "duration": 0.1678320000000042,
          "durationTicks": 48,
          "midi": 35,
          "name": "B1",
          "ticks": 18060,
          "time": 63.14679,
          "velocity": 0.6299212598425197
        },
        {
          "duration": 0.1678320000000042,
          "durationTicks": 48,
          "midi": 42,
          "name": "F#2",
          "ticks": 18060,
          "time": 63.14679,
          "velocity": 0.6299212598425197
        },
        {
          "duration": 0.1678320000000042,
          "durationTicks": 48,
          "midi": 37,
          "name": "C#2",
          "ticks": 18120,
          "time": 63.35658,
          "velocity": 0.6299212598425197
        },
        {
          "duration": 0.1678320000000042,
          "durationTicks": 48,
          "midi": 42,
          "name": "F#2",
          "ticks": 18120,
          "time": 63.35658,
          "velocity": 0.6299212598425197
        },
        {
          "duration": 0.1678320000000042,
          "durationTicks": 48,
          "midi": 46,
          "name": "A#2",
          "ticks": 18180,
          "time": 63.56637,
          "velocity": 0.6299212598425197
        },
        {
          "duration": 0.1678319999999971,
          "durationTicks": 48,
          "midi": 42,
          "name": "F#2",
          "ticks": 18240,
          "time": 63.776160000000004,
          "velocity": 0.6299212598425197
        },
        {
          "duration": 0.1678319999999971,
          "durationTicks": 48,
          "midi": 35,
          "name": "B1",
          "ticks": 18240,
          "time": 63.776160000000004,
          "velocity": 0.6299212598425197
        },
        {
          "duration": 0.1678320000000042,
          "durationTicks": 48,
          "midi": 42,
          "name": "F#2",
          "ticks": 18300,
          "time": 63.98595,
          "velocity": 0.6299212598425197
        },
        {
          "duration": 0.1678320000000042,
          "durationTicks": 48,
          "midi": 42,
          "name": "F#2",
          "ticks": 18360,
          "time": 64.19574,
          "velocity": 0.6299212598425197
        },
        {
          "duration": 0.1678320000000042,
          "durationTicks": 48,
          "midi": 42,
          "name": "F#2",
          "ticks": 18420,
          "time": 64.40553,
          "velocity": 0.6299212598425197
        },
        {
          "duration": 0.1678320000000042,
          "durationTicks": 48,
          "midi": 35,
          "name": "B1",
          "ticks": 18420,
          "time": 64.40553,
          "velocity": 0.6299212598425197
        },
        {
          "duration": 0.1678320000000042,
          "durationTicks": 48,
          "midi": 42,
          "name": "F#2",
          "ticks": 18480,
          "time": 64.61532,
          "velocity": 0.6299212598425197
        },
        {
          "duration": 0.1678320000000042,
          "durationTicks": 48,
          "midi": 42,
          "name": "F#2",
          "ticks": 18540,
          "time": 64.82511,
          "velocity": 0.6299212598425197
        },
        {
          "duration": 0.16783199999999,
          "durationTicks": 48,
          "midi": 37,
          "name": "C#2",
          "ticks": 18600,
          "time": 65.03490000000001,
          "velocity": 0.6299212598425197
        },
        {
          "duration": 0.16783199999999,
          "durationTicks": 48,
          "midi": 42,
          "name": "F#2",
          "ticks": 18600,
          "time": 65.03490000000001,
          "velocity": 0.6299212598425197
        },
        {
          "duration": 0.1678320000000042,
          "durationTicks": 48,
          "midi": 35,
          "name": "B1",
          "ticks": 18660,
          "time": 65.24469,
          "velocity": 0.6299212598425197
        },
        {
          "duration": 0.1678320000000042,
          "durationTicks": 48,
          "midi": 42,
          "name": "F#2",
          "ticks": 18660,
          "time": 65.24469,
          "velocity": 0.6299212598425197
        },
        {
          "duration": 0.1678320000000042,
          "durationTicks": 48,
          "midi": 42,
          "name": "F#2",
          "ticks": 18720,
          "time": 65.45448,
          "velocity": 0.6299212598425197
        },
        {
          "duration": 0.1678320000000042,
          "durationTicks": 48,
          "midi": 35,
          "name": "B1",
          "ticks": 18720,
          "time": 65.45448,
          "velocity": 0.6299212598425197
        },
        {
          "duration": 0.1678320000000042,
          "durationTicks": 48,
          "midi": 42,
          "name": "F#2",
          "ticks": 18780,
          "time": 65.66427,
          "velocity": 0.6299212598425197
        },
        {
          "duration": 0.1678320000000042,
          "durationTicks": 48,
          "midi": 35,
          "name": "B1",
          "ticks": 18780,
          "time": 65.66427,
          "velocity": 0.6299212598425197
        },
        {
          "duration": 0.1678320000000042,
          "durationTicks": 48,
          "midi": 42,
          "name": "F#2",
          "ticks": 18840,
          "time": 65.87406,
          "velocity": 0.6299212598425197
        },
        {
          "duration": 0.1678320000000042,
          "durationTicks": 48,
          "midi": 35,
          "name": "B1",
          "ticks": 18900,
          "time": 66.08385,
          "velocity": 0.6299212598425197
        },
        {
          "duration": 0.1678320000000042,
          "durationTicks": 48,
          "midi": 42,
          "name": "F#2",
          "ticks": 18900,
          "time": 66.08385,
          "velocity": 0.6299212598425197
        },
        {
          "duration": 0.1678320000000042,
          "durationTicks": 48,
          "midi": 42,
          "name": "F#2",
          "ticks": 18960,
          "time": 66.29364,
          "velocity": 0.6299212598425197
        },
        {
          "duration": 0.1678320000000042,
          "durationTicks": 48,
          "midi": 42,
          "name": "F#2",
          "ticks": 19020,
          "time": 66.50343,
          "velocity": 0.6299212598425197
        },
        {
          "duration": 0.1678320000000042,
          "durationTicks": 48,
          "midi": 35,
          "name": "B1",
          "ticks": 19020,
          "time": 66.50343,
          "velocity": 0.6299212598425197
        },
        {
          "duration": 0.16783199999999,
          "durationTicks": 48,
          "midi": 38,
          "name": "D2",
          "ticks": 19080,
          "time": 66.71322,
          "velocity": 0.6299212598425197
        },
        {
          "duration": 0.16783199999999,
          "durationTicks": 48,
          "midi": 42,
          "name": "F#2",
          "ticks": 19080,
          "time": 66.71322,
          "velocity": 0.6299212598425197
        },
        {
          "duration": 0.08391599999998789,
          "durationTicks": 24,
          "midi": 38,
          "name": "D2",
          "ticks": 19140,
          "time": 66.92301,
          "velocity": 0.6299212598425197
        },
        {
          "duration": 0.08391599999998789,
          "durationTicks": 24,
          "midi": 46,
          "name": "A#2",
          "ticks": 19140,
          "time": 66.92301,
          "velocity": 0.6299212598425197
        },
        {
          "duration": 0.08391599999998789,
          "durationTicks": 24,
          "midi": 38,
          "name": "D2",
          "ticks": 19170,
          "time": 67.027905,
          "velocity": 0.6299212598425197
        },
        {
          "duration": 0.3356640000000084,
          "durationTicks": 96,
          "midi": 46,
          "name": "A#2",
          "ticks": 19200,
          "time": 67.1328,
          "velocity": 0.6299212598425197
        },
        {
          "duration": 0.3356640000000084,
          "durationTicks": 96,
          "midi": 55,
          "name": "G3",
          "ticks": 19200,
          "time": 67.1328,
          "velocity": 0.6299212598425197
        },
        {
          "duration": 0.3356640000000084,
          "durationTicks": 96,
          "midi": 35,
          "name": "B1",
          "ticks": 19200,
          "time": 67.1328,
          "velocity": 0.6299212598425197
        },
        {
          "duration": 0.3356640000000084,
          "durationTicks": 96,
          "midi": 38,
          "name": "D2",
          "ticks": 19320,
          "time": 67.55238,
          "velocity": 0.6299212598425197
        },
        {
          "duration": 0.3356640000000084,
          "durationTicks": 96,
          "midi": 46,
          "name": "A#2",
          "ticks": 19320,
          "time": 67.55238,
          "velocity": 0.6299212598425197
        },
        {
          "duration": 0.1678320000000042,
          "durationTicks": 48,
          "midi": 46,
          "name": "A#2",
          "ticks": 19440,
          "time": 67.97196,
          "velocity": 0.6299212598425197
        },
        {
          "duration": 0.16783199999999,
          "durationTicks": 48,
          "midi": 46,
          "name": "A#2",
          "ticks": 19500,
          "time": 68.18175000000001,
          "velocity": 0.6299212598425197
        },
        {
          "duration": 0.16783199999999,
          "durationTicks": 48,
          "midi": 35,
          "name": "B1",
          "ticks": 19500,
          "time": 68.18175000000001,
          "velocity": 0.6299212598425197
        },
        {
          "duration": 0.1678320000000042,
          "durationTicks": 48,
          "midi": 38,
          "name": "D2",
          "ticks": 19560,
          "time": 68.39154,
          "velocity": 0.6299212598425197
        },
        {
          "duration": 0.1678320000000042,
          "durationTicks": 48,
          "midi": 46,
          "name": "A#2",
          "ticks": 19560,
          "time": 68.39154,
          "velocity": 0.6299212598425197
        },
        {
          "duration": 0.1678320000000042,
          "durationTicks": 48,
          "midi": 46,
          "name": "A#2",
          "ticks": 19620,
          "time": 68.60133,
          "velocity": 0.6299212598425197
        },
        {
          "duration": 0.1678320000000042,
          "durationTicks": 48,
          "midi": 46,
          "name": "A#2",
          "ticks": 19680,
          "time": 68.81112,
          "velocity": 0.6299212598425197
        },
        {
          "duration": 0.1678320000000042,
          "durationTicks": 48,
          "midi": 35,
          "name": "B1",
          "ticks": 19680,
          "time": 68.81112,
          "velocity": 0.6299212598425197
        },
        {
          "duration": 0.1678320000000042,
          "durationTicks": 48,
          "midi": 46,
          "name": "A#2",
          "ticks": 19740,
          "time": 69.02091,
          "velocity": 0.6299212598425197
        },
        {
          "duration": 0.1678320000000042,
          "durationTicks": 48,
          "midi": 38,
          "name": "D2",
          "ticks": 19800,
          "time": 69.2307,
          "velocity": 0.6299212598425197
        },
        {
          "duration": 0.1678320000000042,
          "durationTicks": 48,
          "midi": 46,
          "name": "A#2",
          "ticks": 19800,
          "time": 69.2307,
          "velocity": 0.6299212598425197
        },
        {
          "duration": 0.3356640000000084,
          "durationTicks": 96,
          "midi": 46,
          "name": "A#2",
          "ticks": 19860,
          "time": 69.44049,
          "velocity": 0.6299212598425197
        },
        {
          "duration": 0.16783199999999,
          "durationTicks": 48,
          "midi": 35,
          "name": "B1",
          "ticks": 19980,
          "time": 69.86007000000001,
          "velocity": 0.6299212598425197
        },
        {
          "duration": 0.16783199999999,
          "durationTicks": 48,
          "midi": 46,
          "name": "A#2",
          "ticks": 19980,
          "time": 69.86007000000001,
          "velocity": 0.6299212598425197
        },
        {
          "duration": 0.1678320000000042,
          "durationTicks": 48,
          "midi": 46,
          "name": "A#2",
          "ticks": 20040,
          "time": 70.06986,
          "velocity": 0.6299212598425197
        },
        {
          "duration": 0.1678320000000042,
          "durationTicks": 48,
          "midi": 38,
          "name": "D2",
          "ticks": 20040,
          "time": 70.06986,
          "velocity": 0.6299212598425197
        },
        {
          "duration": 0.08391599999998789,
          "durationTicks": 24,
          "midi": 38,
          "name": "D2",
          "ticks": 20100,
          "time": 70.27965,
          "velocity": 0.6299212598425197
        },
        {
          "duration": 0.08391599999998789,
          "durationTicks": 24,
          "midi": 42,
          "name": "F#2",
          "ticks": 20100,
          "time": 70.27965,
          "velocity": 0.6299212598425197
        },
        {
          "duration": 0.08391599999998789,
          "durationTicks": 24,
          "midi": 38,
          "name": "D2",
          "ticks": 20130,
          "time": 70.384545,
          "velocity": 0.6299212598425197
        },
        {
          "duration": 0.3356640000000084,
          "durationTicks": 96,
          "midi": 46,
          "name": "A#2",
          "ticks": 20160,
          "time": 70.48944,
          "velocity": 0.6299212598425197
        },
        {
          "duration": 0.3356640000000084,
          "durationTicks": 96,
          "midi": 55,
          "name": "G3",
          "ticks": 20160,
          "time": 70.48944,
          "velocity": 0.6299212598425197
        },
        {
          "duration": 0.3356640000000084,
          "durationTicks": 96,
          "midi": 35,
          "name": "B1",
          "ticks": 20160,
          "time": 70.48944,
          "velocity": 0.6299212598425197
        },
        {
          "duration": 0.3356640000000084,
          "durationTicks": 96,
          "midi": 38,
          "name": "D2",
          "ticks": 20280,
          "time": 70.90902,
          "velocity": 0.6299212598425197
        },
        {
          "duration": 0.3356640000000084,
          "durationTicks": 96,
          "midi": 46,
          "name": "A#2",
          "ticks": 20280,
          "time": 70.90902,
          "velocity": 0.6299212598425197
        },
        {
          "duration": 0.1678320000000042,
          "durationTicks": 48,
          "midi": 46,
          "name": "A#2",
          "ticks": 20400,
          "time": 71.3286,
          "velocity": 0.6299212598425197
        },
        {
          "duration": 0.16783199999999,
          "durationTicks": 48,
          "midi": 46,
          "name": "A#2",
          "ticks": 20460,
          "time": 71.53839,
          "velocity": 0.6299212598425197
        },
        {
          "duration": 0.16783199999999,
          "durationTicks": 48,
          "midi": 35,
          "name": "B1",
          "ticks": 20460,
          "time": 71.53839,
          "velocity": 0.6299212598425197
        },
        {
          "duration": 0.1678320000000042,
          "durationTicks": 48,
          "midi": 38,
          "name": "D2",
          "ticks": 20520,
          "time": 71.74818,
          "velocity": 0.6299212598425197
        },
        {
          "duration": 0.1678320000000042,
          "durationTicks": 48,
          "midi": 46,
          "name": "A#2",
          "ticks": 20520,
          "time": 71.74818,
          "velocity": 0.6299212598425197
        },
        {
          "duration": 0.1678320000000042,
          "durationTicks": 48,
          "midi": 46,
          "name": "A#2",
          "ticks": 20580,
          "time": 71.95797,
          "velocity": 0.6299212598425197
        },
        {
          "duration": 0.1678320000000042,
          "durationTicks": 48,
          "midi": 46,
          "name": "A#2",
          "ticks": 20640,
          "time": 72.16776,
          "velocity": 0.6299212598425197
        },
        {
          "duration": 0.1678320000000042,
          "durationTicks": 48,
          "midi": 35,
          "name": "B1",
          "ticks": 20640,
          "time": 72.16776,
          "velocity": 0.6299212598425197
        },
        {
          "duration": 0.1678320000000042,
          "durationTicks": 48,
          "midi": 46,
          "name": "A#2",
          "ticks": 20700,
          "time": 72.37755,
          "velocity": 0.6299212598425197
        },
        {
          "duration": 0.1678320000000042,
          "durationTicks": 48,
          "midi": 46,
          "name": "A#2",
          "ticks": 20760,
          "time": 72.58734,
          "velocity": 0.6299212598425197
        },
        {
          "duration": 0.1678320000000042,
          "durationTicks": 48,
          "midi": 38,
          "name": "D2",
          "ticks": 20760,
          "time": 72.58734,
          "velocity": 0.6299212598425197
        },
        {
          "duration": 0.3356640000000084,
          "durationTicks": 96,
          "midi": 46,
          "name": "A#2",
          "ticks": 20820,
          "time": 72.79713,
          "velocity": 0.6299212598425197
        },
        {
          "duration": 0.1678320000000042,
          "durationTicks": 48,
          "midi": 35,
          "name": "B1",
          "ticks": 20940,
          "time": 73.21671,
          "velocity": 0.6299212598425197
        },
        {
          "duration": 0.1678320000000042,
          "durationTicks": 48,
          "midi": 46,
          "name": "A#2",
          "ticks": 20940,
          "time": 73.21671,
          "velocity": 0.6299212598425197
        },
        {
          "duration": 0.1678320000000042,
          "durationTicks": 48,
          "midi": 46,
          "name": "A#2",
          "ticks": 21000,
          "time": 73.4265,
          "velocity": 0.6299212598425197
        },
        {
          "duration": 0.1678320000000042,
          "durationTicks": 48,
          "midi": 38,
          "name": "D2",
          "ticks": 21000,
          "time": 73.4265,
          "velocity": 0.6299212598425197
        },
        {
          "duration": 0.08391599999998789,
          "durationTicks": 24,
          "midi": 38,
          "name": "D2",
          "ticks": 21060,
          "time": 73.63629,
          "velocity": 0.6299212598425197
        },
        {
          "duration": 0.08391599999998789,
          "durationTicks": 24,
          "midi": 42,
          "name": "F#2",
          "ticks": 21060,
          "time": 73.63629,
          "velocity": 0.6299212598425197
        },
        {
          "duration": 0.0839160000000021,
          "durationTicks": 24,
          "midi": 38,
          "name": "D2",
          "ticks": 21090,
          "time": 73.741185,
          "velocity": 0.6299212598425197
        },
        {
          "duration": 0.3356640000000084,
          "durationTicks": 96,
          "midi": 46,
          "name": "A#2",
          "ticks": 21120,
          "time": 73.84608,
          "velocity": 0.6299212598425197
        },
        {
          "duration": 0.3356640000000084,
          "durationTicks": 96,
          "midi": 55,
          "name": "G3",
          "ticks": 21120,
          "time": 73.84608,
          "velocity": 0.6299212598425197
        },
        {
          "duration": 0.3356640000000084,
          "durationTicks": 96,
          "midi": 35,
          "name": "B1",
          "ticks": 21120,
          "time": 73.84608,
          "velocity": 0.6299212598425197
        },
        {
          "duration": 0.3356640000000084,
          "durationTicks": 96,
          "midi": 38,
          "name": "D2",
          "ticks": 21240,
          "time": 74.26566,
          "velocity": 0.6299212598425197
        },
        {
          "duration": 0.3356640000000084,
          "durationTicks": 96,
          "midi": 46,
          "name": "A#2",
          "ticks": 21240,
          "time": 74.26566,
          "velocity": 0.6299212598425197
        },
        {
          "duration": 0.16783199999999,
          "durationTicks": 48,
          "midi": 46,
          "name": "A#2",
          "ticks": 21360,
          "time": 74.68524000000001,
          "velocity": 0.6299212598425197
        },
        {
          "duration": 0.1678320000000042,
          "durationTicks": 48,
          "midi": 46,
          "name": "A#2",
          "ticks": 21420,
          "time": 74.89503,
          "velocity": 0.6299212598425197
        },
        {
          "duration": 0.1678320000000042,
          "durationTicks": 48,
          "midi": 35,
          "name": "B1",
          "ticks": 21420,
          "time": 74.89503,
          "velocity": 0.6299212598425197
        },
        {
          "duration": 0.1678320000000042,
          "durationTicks": 48,
          "midi": 38,
          "name": "D2",
          "ticks": 21480,
          "time": 75.10482,
          "velocity": 0.6299212598425197
        },
        {
          "duration": 0.1678320000000042,
          "durationTicks": 48,
          "midi": 46,
          "name": "A#2",
          "ticks": 21480,
          "time": 75.10482,
          "velocity": 0.6299212598425197
        },
        {
          "duration": 0.1678320000000042,
          "durationTicks": 48,
          "midi": 46,
          "name": "A#2",
          "ticks": 21540,
          "time": 75.31461,
          "velocity": 0.6299212598425197
        },
        {
          "duration": 0.1678320000000042,
          "durationTicks": 48,
          "midi": 46,
          "name": "A#2",
          "ticks": 21600,
          "time": 75.5244,
          "velocity": 0.6299212598425197
        },
        {
          "duration": 0.1678320000000042,
          "durationTicks": 48,
          "midi": 35,
          "name": "B1",
          "ticks": 21600,
          "time": 75.5244,
          "velocity": 0.6299212598425197
        },
        {
          "duration": 0.1678320000000042,
          "durationTicks": 48,
          "midi": 46,
          "name": "A#2",
          "ticks": 21660,
          "time": 75.73419,
          "velocity": 0.6299212598425197
        },
        {
          "duration": 0.1678320000000042,
          "durationTicks": 48,
          "midi": 46,
          "name": "A#2",
          "ticks": 21720,
          "time": 75.94398,
          "velocity": 0.6299212598425197
        },
        {
          "duration": 0.1678320000000042,
          "durationTicks": 48,
          "midi": 38,
          "name": "D2",
          "ticks": 21720,
          "time": 75.94398,
          "velocity": 0.6299212598425197
        },
        {
          "duration": 0.3356639999999942,
          "durationTicks": 96,
          "midi": 46,
          "name": "A#2",
          "ticks": 21780,
          "time": 76.15377000000001,
          "velocity": 0.6299212598425197
        },
        {
          "duration": 0.1678320000000042,
          "durationTicks": 48,
          "midi": 35,
          "name": "B1",
          "ticks": 21900,
          "time": 76.57335,
          "velocity": 0.6299212598425197
        },
        {
          "duration": 0.1678320000000042,
          "durationTicks": 48,
          "midi": 46,
          "name": "A#2",
          "ticks": 21900,
          "time": 76.57335,
          "velocity": 0.6299212598425197
        },
        {
          "duration": 0.1678320000000042,
          "durationTicks": 48,
          "midi": 46,
          "name": "A#2",
          "ticks": 21960,
          "time": 76.78314,
          "velocity": 0.6299212598425197
        },
        {
          "duration": 0.1678320000000042,
          "durationTicks": 48,
          "midi": 38,
          "name": "D2",
          "ticks": 21960,
          "time": 76.78314,
          "velocity": 0.6299212598425197
        },
        {
          "duration": 0.0839160000000021,
          "durationTicks": 24,
          "midi": 42,
          "name": "F#2",
          "ticks": 22020,
          "time": 76.99293,
          "velocity": 0.6299212598425197
        },
        {
          "duration": 0.0839160000000021,
          "durationTicks": 24,
          "midi": 38,
          "name": "D2",
          "ticks": 22020,
          "time": 76.99293,
          "velocity": 0.6299212598425197
        },
        {
          "duration": 0.0839160000000021,
          "durationTicks": 24,
          "midi": 38,
          "name": "D2",
          "ticks": 22050,
          "time": 77.097825,
          "velocity": 0.6299212598425197
        },
        {
          "duration": 0.3356640000000084,
          "durationTicks": 96,
          "midi": 55,
          "name": "G3",
          "ticks": 22080,
          "time": 77.20272,
          "velocity": 0.6299212598425197
        },
        {
          "duration": 0.3356640000000084,
          "durationTicks": 96,
          "midi": 46,
          "name": "A#2",
          "ticks": 22080,
          "time": 77.20272,
          "velocity": 0.6299212598425197
        },
        {
          "duration": 0.3356640000000084,
          "durationTicks": 96,
          "midi": 35,
          "name": "B1",
          "ticks": 22080,
          "time": 77.20272,
          "velocity": 0.6299212598425197
        },
        {
          "duration": 0.3356640000000084,
          "durationTicks": 96,
          "midi": 46,
          "name": "A#2",
          "ticks": 22200,
          "time": 77.6223,
          "velocity": 0.6299212598425197
        },
        {
          "duration": 0.3356640000000084,
          "durationTicks": 96,
          "midi": 38,
          "name": "D2",
          "ticks": 22200,
          "time": 77.6223,
          "velocity": 0.6299212598425197
        },
        {
          "duration": 0.1678320000000042,
          "durationTicks": 48,
          "midi": 46,
          "name": "A#2",
          "ticks": 22320,
          "time": 78.04188,
          "velocity": 0.6299212598425197
        },
        {
          "duration": 0.1678320000000042,
          "durationTicks": 48,
          "midi": 35,
          "name": "B1",
          "ticks": 22380,
          "time": 78.25167,
          "velocity": 0.6299212598425197
        },
        {
          "duration": 0.1678320000000042,
          "durationTicks": 48,
          "midi": 46,
          "name": "A#2",
          "ticks": 22380,
          "time": 78.25167,
          "velocity": 0.6299212598425197
        },
        {
          "duration": 0.1678320000000042,
          "durationTicks": 48,
          "midi": 38,
          "name": "D2",
          "ticks": 22440,
          "time": 78.46146,
          "velocity": 0.6299212598425197
        },
        {
          "duration": 0.1678320000000042,
          "durationTicks": 48,
          "midi": 46,
          "name": "A#2",
          "ticks": 22440,
          "time": 78.46146,
          "velocity": 0.6299212598425197
        },
        {
          "duration": 0.1678320000000042,
          "durationTicks": 48,
          "midi": 46,
          "name": "A#2",
          "ticks": 22500,
          "time": 78.67125,
          "velocity": 0.6299212598425197
        },
        {
          "duration": 0.1678320000000042,
          "durationTicks": 48,
          "midi": 46,
          "name": "A#2",
          "ticks": 22560,
          "time": 78.88104,
          "velocity": 0.6299212598425197
        },
        {
          "duration": 0.1678320000000042,
          "durationTicks": 48,
          "midi": 35,
          "name": "B1",
          "ticks": 22560,
          "time": 78.88104,
          "velocity": 0.6299212598425197
        },
        {
          "duration": 0.1678320000000042,
          "durationTicks": 48,
          "midi": 46,
          "name": "A#2",
          "ticks": 22620,
          "time": 79.09083,
          "velocity": 0.6299212598425197
        },
        {
          "duration": 0.1678320000000042,
          "durationTicks": 48,
          "midi": 38,
          "name": "D2",
          "ticks": 22680,
          "time": 79.30062,
          "velocity": 0.6299212598425197
        },
        {
          "duration": 0.1678320000000042,
          "durationTicks": 48,
          "midi": 46,
          "name": "A#2",
          "ticks": 22680,
          "time": 79.30062,
          "velocity": 0.6299212598425197
        },
        {
          "duration": 0.3356639999999942,
          "durationTicks": 96,
          "midi": 46,
          "name": "A#2",
          "ticks": 22740,
          "time": 79.51041000000001,
          "velocity": 0.6299212598425197
        },
        {
          "duration": 0.1678320000000042,
          "durationTicks": 48,
          "midi": 46,
          "name": "A#2",
          "ticks": 22860,
          "time": 79.92999,
          "velocity": 0.6299212598425197
        },
        {
          "duration": 0.1678320000000042,
          "durationTicks": 48,
          "midi": 35,
          "name": "B1",
          "ticks": 22860,
          "time": 79.92999,
          "velocity": 0.6299212598425197
        },
        {
          "duration": 0.1678320000000042,
          "durationTicks": 48,
          "midi": 38,
          "name": "D2",
          "ticks": 22920,
          "time": 80.13978,
          "velocity": 0.6299212598425197
        },
        {
          "duration": 0.1678320000000042,
          "durationTicks": 48,
          "midi": 46,
          "name": "A#2",
          "ticks": 22920,
          "time": 80.13978,
          "velocity": 0.6299212598425197
        },
        {
          "duration": 0.0839160000000021,
          "durationTicks": 24,
          "midi": 42,
          "name": "F#2",
          "ticks": 22980,
          "time": 80.34957,
          "velocity": 0.6299212598425197
        },
        {
          "duration": 0.0839160000000021,
          "durationTicks": 24,
          "midi": 38,
          "name": "D2",
          "ticks": 22980,
          "time": 80.34957,
          "velocity": 0.6299212598425197
        },
        {
          "duration": 0.0839160000000021,
          "durationTicks": 24,
          "midi": 38,
          "name": "D2",
          "ticks": 23010,
          "time": 80.454465,
          "velocity": 0.6299212598425197
        },
        {
          "duration": 0.3356640000000084,
          "durationTicks": 96,
          "midi": 35,
          "name": "B1",
          "ticks": 23040,
          "time": 80.55936,
          "velocity": 0.6299212598425197
        },
        {
          "duration": 0.3356640000000084,
          "durationTicks": 96,
          "midi": 55,
          "name": "G3",
          "ticks": 23040,
          "time": 80.55936,
          "velocity": 0.6299212598425197
        },
        {
          "duration": 0.3356640000000084,
          "durationTicks": 96,
          "midi": 46,
          "name": "A#2",
          "ticks": 23040,
          "time": 80.55936,
          "velocity": 0.6299212598425197
        },
        {
          "duration": 0.3356639999999942,
          "durationTicks": 96,
          "midi": 46,
          "name": "A#2",
          "ticks": 23160,
          "time": 80.97894000000001,
          "velocity": 0.6299212598425197
        },
        {
          "duration": 0.3356639999999942,
          "durationTicks": 96,
          "midi": 38,
          "name": "D2",
          "ticks": 23160,
          "time": 80.97894000000001,
          "velocity": 0.6299212598425197
        },
        {
          "duration": 0.1678320000000042,
          "durationTicks": 48,
          "midi": 46,
          "name": "A#2",
          "ticks": 23280,
          "time": 81.39852,
          "velocity": 0.6299212598425197
        },
        {
          "duration": 0.1678320000000042,
          "durationTicks": 48,
          "midi": 35,
          "name": "B1",
          "ticks": 23340,
          "time": 81.60831,
          "velocity": 0.6299212598425197
        },
        {
          "duration": 0.1678320000000042,
          "durationTicks": 48,
          "midi": 46,
          "name": "A#2",
          "ticks": 23340,
          "time": 81.60831,
          "velocity": 0.6299212598425197
        },
        {
          "duration": 0.1678320000000042,
          "durationTicks": 48,
          "midi": 46,
          "name": "A#2",
          "ticks": 23400,
          "time": 81.8181,
          "velocity": 0.6299212598425197
        },
        {
          "duration": 0.1678320000000042,
          "durationTicks": 48,
          "midi": 38,
          "name": "D2",
          "ticks": 23400,
          "time": 81.8181,
          "velocity": 0.6299212598425197
        },
        {
          "duration": 0.1678320000000042,
          "durationTicks": 48,
          "midi": 46,
          "name": "A#2",
          "ticks": 23460,
          "time": 82.02789,
          "velocity": 0.6299212598425197
        },
        {
          "duration": 0.1678320000000042,
          "durationTicks": 48,
          "midi": 35,
          "name": "B1",
          "ticks": 23520,
          "time": 82.23768,
          "velocity": 0.6299212598425197
        },
        {
          "duration": 0.1678320000000042,
          "durationTicks": 48,
          "midi": 46,
          "name": "A#2",
          "ticks": 23520,
          "time": 82.23768,
          "velocity": 0.6299212598425197
        },
        {
          "duration": 0.1678320000000042,
          "durationTicks": 48,
          "midi": 46,
          "name": "A#2",
          "ticks": 23580,
          "time": 82.44747,
          "velocity": 0.6299212598425197
        },
        {
          "duration": 0.16783199999999,
          "durationTicks": 48,
          "midi": 38,
          "name": "D2",
          "ticks": 23640,
          "time": 82.65726000000001,
          "velocity": 0.6299212598425197
        },
        {
          "duration": 0.16783199999999,
          "durationTicks": 48,
          "midi": 46,
          "name": "A#2",
          "ticks": 23640,
          "time": 82.65726000000001,
          "velocity": 0.6299212598425197
        },
        {
          "duration": 0.3356639999999942,
          "durationTicks": 96,
          "midi": 46,
          "name": "A#2",
          "ticks": 23700,
          "time": 82.86705,
          "velocity": 0.6299212598425197
        },
        {
          "duration": 0.1678320000000042,
          "durationTicks": 48,
          "midi": 46,
          "name": "A#2",
          "ticks": 23820,
          "time": 83.28663,
          "velocity": 0.6299212598425197
        },
        {
          "duration": 0.1678320000000042,
          "durationTicks": 48,
          "midi": 35,
          "name": "B1",
          "ticks": 23820,
          "time": 83.28663,
          "velocity": 0.6299212598425197
        },
        {
          "duration": 0.1678320000000042,
          "durationTicks": 48,
          "midi": 38,
          "name": "D2",
          "ticks": 23880,
          "time": 83.49642,
          "velocity": 0.6299212598425197
        },
        {
          "duration": 0.1678320000000042,
          "durationTicks": 48,
          "midi": 46,
          "name": "A#2",
          "ticks": 23880,
          "time": 83.49642,
          "velocity": 0.6299212598425197
        },
        {
          "duration": 0.0839160000000021,
          "durationTicks": 24,
          "midi": 42,
          "name": "F#2",
          "ticks": 23940,
          "time": 83.70621,
          "velocity": 0.6299212598425197
        },
        {
          "duration": 0.0839160000000021,
          "durationTicks": 24,
          "midi": 38,
          "name": "D2",
          "ticks": 23940,
          "time": 83.70621,
          "velocity": 0.6299212598425197
        },
        {
          "duration": 0.0839160000000021,
          "durationTicks": 24,
          "midi": 38,
          "name": "D2",
          "ticks": 23970,
          "time": 83.811105,
          "velocity": 0.6299212598425197
        },
        {
          "duration": 0.3356640000000084,
          "durationTicks": 96,
          "midi": 55,
          "name": "G3",
          "ticks": 24000,
          "time": 83.916,
          "velocity": 0.6299212598425197
        },
        {
          "duration": 0.3356640000000084,
          "durationTicks": 96,
          "midi": 35,
          "name": "B1",
          "ticks": 24000,
          "time": 83.916,
          "velocity": 0.6299212598425197
        },
        {
          "duration": 0.3356640000000084,
          "durationTicks": 96,
          "midi": 46,
          "name": "A#2",
          "ticks": 24000,
          "time": 83.916,
          "velocity": 0.6299212598425197
        },
        {
          "duration": 0.3356639999999942,
          "durationTicks": 96,
          "midi": 46,
          "name": "A#2",
          "ticks": 24120,
          "time": 84.33558000000001,
          "velocity": 0.6299212598425197
        },
        {
          "duration": 0.3356639999999942,
          "durationTicks": 96,
          "midi": 38,
          "name": "D2",
          "ticks": 24120,
          "time": 84.33558000000001,
          "velocity": 0.6299212598425197
        },
        {
          "duration": 0.1678320000000042,
          "durationTicks": 48,
          "midi": 46,
          "name": "A#2",
          "ticks": 24240,
          "time": 84.75516,
          "velocity": 0.6299212598425197
        },
        {
          "duration": 0.1678320000000042,
          "durationTicks": 48,
          "midi": 46,
          "name": "A#2",
          "ticks": 24300,
          "time": 84.96495,
          "velocity": 0.6299212598425197
        },
        {
          "duration": 0.1678320000000042,
          "durationTicks": 48,
          "midi": 35,
          "name": "B1",
          "ticks": 24300,
          "time": 84.96495,
          "velocity": 0.6299212598425197
        },
        {
          "duration": 0.1678320000000042,
          "durationTicks": 48,
          "midi": 46,
          "name": "A#2",
          "ticks": 24360,
          "time": 85.17474,
          "velocity": 0.6299212598425197
        },
        {
          "duration": 0.1678320000000042,
          "durationTicks": 48,
          "midi": 38,
          "name": "D2",
          "ticks": 24360,
          "time": 85.17474,
          "velocity": 0.6299212598425197
        },
        {
          "duration": 0.1678320000000042,
          "durationTicks": 48,
          "midi": 46,
          "name": "A#2",
          "ticks": 24420,
          "time": 85.38453,
          "velocity": 0.6299212598425197
        },
        {
          "duration": 0.1678320000000042,
          "durationTicks": 48,
          "midi": 35,
          "name": "B1",
          "ticks": 24480,
          "time": 85.59432,
          "velocity": 0.6299212598425197
        },
        {
          "duration": 0.1678320000000042,
          "durationTicks": 48,
          "midi": 46,
          "name": "A#2",
          "ticks": 24480,
          "time": 85.59432,
          "velocity": 0.6299212598425197
        },
        {
          "duration": 0.16783199999999,
          "durationTicks": 48,
          "midi": 46,
          "name": "A#2",
          "ticks": 24540,
          "time": 85.80411000000001,
          "velocity": 0.6299212598425197
        },
        {
          "duration": 0.1678320000000042,
          "durationTicks": 48,
          "midi": 46,
          "name": "A#2",
          "ticks": 24600,
          "time": 86.0139,
          "velocity": 0.6299212598425197
        },
        {
          "duration": 0.1678320000000042,
          "durationTicks": 48,
          "midi": 38,
          "name": "D2",
          "ticks": 24600,
          "time": 86.0139,
          "velocity": 0.6299212598425197
        },
        {
          "duration": 0.3356640000000084,
          "durationTicks": 96,
          "midi": 46,
          "name": "A#2",
          "ticks": 24660,
          "time": 86.22369,
          "velocity": 0.6299212598425197
        },
        {
          "duration": 0.1678320000000042,
          "durationTicks": 48,
          "midi": 35,
          "name": "B1",
          "ticks": 24780,
          "time": 86.64327,
          "velocity": 0.6299212598425197
        },
        {
          "duration": 0.1678320000000042,
          "durationTicks": 48,
          "midi": 46,
          "name": "A#2",
          "ticks": 24780,
          "time": 86.64327,
          "velocity": 0.6299212598425197
        },
        {
          "duration": 0.1678320000000042,
          "durationTicks": 48,
          "midi": 38,
          "name": "D2",
          "ticks": 24840,
          "time": 86.85306,
          "velocity": 0.6299212598425197
        },
        {
          "duration": 0.1678320000000042,
          "durationTicks": 48,
          "midi": 46,
          "name": "A#2",
          "ticks": 24840,
          "time": 86.85306,
          "velocity": 0.6299212598425197
        },
        {
          "duration": 0.0839160000000021,
          "durationTicks": 24,
          "midi": 38,
          "name": "D2",
          "ticks": 24900,
          "time": 87.06285,
          "velocity": 0.6299212598425197
        },
        {
          "duration": 0.0839160000000021,
          "durationTicks": 24,
          "midi": 42,
          "name": "F#2",
          "ticks": 24900,
          "time": 87.06285,
          "velocity": 0.6299212598425197
        },
        {
          "duration": 0.0839160000000021,
          "durationTicks": 24,
          "midi": 38,
          "name": "D2",
          "ticks": 24930,
          "time": 87.167745,
          "velocity": 0.6299212598425197
        },
        {
          "duration": 0.3356640000000084,
          "durationTicks": 96,
          "midi": 35,
          "name": "B1",
          "ticks": 24960,
          "time": 87.27264,
          "velocity": 0.6299212598425197
        },
        {
          "duration": 0.3356640000000084,
          "durationTicks": 96,
          "midi": 55,
          "name": "G3",
          "ticks": 24960,
          "time": 87.27264,
          "velocity": 0.6299212598425197
        },
        {
          "duration": 0.3356640000000084,
          "durationTicks": 96,
          "midi": 46,
          "name": "A#2",
          "ticks": 24960,
          "time": 87.27264,
          "velocity": 0.6299212598425197
        },
        {
          "duration": 0.3356639999999942,
          "durationTicks": 96,
          "midi": 38,
          "name": "D2",
          "ticks": 25080,
          "time": 87.69222,
          "velocity": 0.6299212598425197
        },
        {
          "duration": 0.3356639999999942,
          "durationTicks": 96,
          "midi": 46,
          "name": "A#2",
          "ticks": 25080,
          "time": 87.69222,
          "velocity": 0.6299212598425197
        },
        {
          "duration": 0.1678320000000042,
          "durationTicks": 48,
          "midi": 46,
          "name": "A#2",
          "ticks": 25200,
          "time": 88.1118,
          "velocity": 0.6299212598425197
        },
        {
          "duration": 0.1678320000000042,
          "durationTicks": 48,
          "midi": 46,
          "name": "A#2",
          "ticks": 25260,
          "time": 88.32159,
          "velocity": 0.6299212598425197
        },
        {
          "duration": 0.1678320000000042,
          "durationTicks": 48,
          "midi": 35,
          "name": "B1",
          "ticks": 25260,
          "time": 88.32159,
          "velocity": 0.6299212598425197
        },
        {
          "duration": 0.1678320000000042,
          "durationTicks": 48,
          "midi": 38,
          "name": "D2",
          "ticks": 25320,
          "time": 88.53138,
          "velocity": 0.6299212598425197
        },
        {
          "duration": 0.1678320000000042,
          "durationTicks": 48,
          "midi": 46,
          "name": "A#2",
          "ticks": 25320,
          "time": 88.53138,
          "velocity": 0.6299212598425197
        },
        {
          "duration": 0.1678320000000042,
          "durationTicks": 48,
          "midi": 46,
          "name": "A#2",
          "ticks": 25380,
          "time": 88.74117,
          "velocity": 0.6299212598425197
        },
        {
          "duration": 0.1678320000000042,
          "durationTicks": 48,
          "midi": 35,
          "name": "B1",
          "ticks": 25440,
          "time": 88.95096,
          "velocity": 0.6299212598425197
        },
        {
          "duration": 0.1678320000000042,
          "durationTicks": 48,
          "midi": 46,
          "name": "A#2",
          "ticks": 25440,
          "time": 88.95096,
          "velocity": 0.6299212598425197
        },
        {
          "duration": 0.16783199999999,
          "durationTicks": 48,
          "midi": 46,
          "name": "A#2",
          "ticks": 25500,
          "time": 89.16075000000001,
          "velocity": 0.6299212598425197
        },
        {
          "duration": 0.1678320000000042,
          "durationTicks": 48,
          "midi": 38,
          "name": "D2",
          "ticks": 25560,
          "time": 89.37054,
          "velocity": 0.6299212598425197
        },
        {
          "duration": 0.1678320000000042,
          "durationTicks": 48,
          "midi": 46,
          "name": "A#2",
          "ticks": 25560,
          "time": 89.37054,
          "velocity": 0.6299212598425197
        },
        {
          "duration": 0.3356640000000084,
          "durationTicks": 96,
          "midi": 46,
          "name": "A#2",
          "ticks": 25620,
          "time": 89.58033,
          "velocity": 0.6299212598425197
        },
        {
          "duration": 0.1678320000000042,
          "durationTicks": 48,
          "midi": 35,
          "name": "B1",
          "ticks": 25740,
          "time": 89.99991,
          "velocity": 0.6299212598425197
        },
        {
          "duration": 0.1678320000000042,
          "durationTicks": 48,
          "midi": 46,
          "name": "A#2",
          "ticks": 25740,
          "time": 89.99991,
          "velocity": 0.6299212598425197
        },
        {
          "duration": 0.1678320000000042,
          "durationTicks": 48,
          "midi": 38,
          "name": "D2",
          "ticks": 25800,
          "time": 90.2097,
          "velocity": 0.6299212598425197
        },
        {
          "duration": 0.1678320000000042,
          "durationTicks": 48,
          "midi": 46,
          "name": "A#2",
          "ticks": 25800,
          "time": 90.2097,
          "velocity": 0.6299212598425197
        },
        {
          "duration": 0.0839160000000021,
          "durationTicks": 24,
          "midi": 42,
          "name": "F#2",
          "ticks": 25860,
          "time": 90.41949,
          "velocity": 0.6299212598425197
        },
        {
          "duration": 0.0839160000000021,
          "durationTicks": 24,
          "midi": 38,
          "name": "D2",
          "ticks": 25860,
          "time": 90.41949,
          "velocity": 0.6299212598425197
        },
        {
          "duration": 0.0839160000000021,
          "durationTicks": 24,
          "midi": 38,
          "name": "D2",
          "ticks": 25890,
          "time": 90.524385,
          "velocity": 0.6299212598425197
        },
        {
          "duration": 0.3356639999999942,
          "durationTicks": 96,
          "midi": 35,
          "name": "B1",
          "ticks": 25920,
          "time": 90.62928000000001,
          "velocity": 0.6299212598425197
        },
        {
          "duration": 0.3356639999999942,
          "durationTicks": 96,
          "midi": 55,
          "name": "G3",
          "ticks": 25920,
          "time": 90.62928000000001,
          "velocity": 0.6299212598425197
        },
        {
          "duration": 0.3356639999999942,
          "durationTicks": 96,
          "midi": 46,
          "name": "A#2",
          "ticks": 25920,
          "time": 90.62928000000001,
          "velocity": 0.6299212598425197
        },
        {
          "duration": 0.3356640000000084,
          "durationTicks": 96,
          "midi": 38,
          "name": "D2",
          "ticks": 26040,
          "time": 91.04886,
          "velocity": 0.6299212598425197
        },
        {
          "duration": 0.3356640000000084,
          "durationTicks": 96,
          "midi": 46,
          "name": "A#2",
          "ticks": 26040,
          "time": 91.04886,
          "velocity": 0.6299212598425197
        },
        {
          "duration": 0.1678320000000042,
          "durationTicks": 48,
          "midi": 46,
          "name": "A#2",
          "ticks": 26160,
          "time": 91.46844,
          "velocity": 0.6299212598425197
        },
        {
          "duration": 0.1678320000000042,
          "durationTicks": 48,
          "midi": 46,
          "name": "A#2",
          "ticks": 26220,
          "time": 91.67823,
          "velocity": 0.6299212598425197
        },
        {
          "duration": 0.1678320000000042,
          "durationTicks": 48,
          "midi": 35,
          "name": "B1",
          "ticks": 26220,
          "time": 91.67823,
          "velocity": 0.6299212598425197
        },
        {
          "duration": 0.1678320000000042,
          "durationTicks": 48,
          "midi": 46,
          "name": "A#2",
          "ticks": 26280,
          "time": 91.88802,
          "velocity": 0.6299212598425197
        },
        {
          "duration": 0.1678320000000042,
          "durationTicks": 48,
          "midi": 38,
          "name": "D2",
          "ticks": 26280,
          "time": 91.88802,
          "velocity": 0.6299212598425197
        },
        {
          "duration": 0.1678320000000042,
          "durationTicks": 48,
          "midi": 46,
          "name": "A#2",
          "ticks": 26340,
          "time": 92.09781,
          "velocity": 0.6299212598425197
        },
        {
          "duration": 0.16783199999999,
          "durationTicks": 48,
          "midi": 35,
          "name": "B1",
          "ticks": 26400,
          "time": 92.30760000000001,
          "velocity": 0.6299212598425197
        },
        {
          "duration": 0.16783199999999,
          "durationTicks": 48,
          "midi": 46,
          "name": "A#2",
          "ticks": 26400,
          "time": 92.30760000000001,
          "velocity": 0.6299212598425197
        },
        {
          "duration": 0.1678320000000042,
          "durationTicks": 48,
          "midi": 46,
          "name": "A#2",
          "ticks": 26460,
          "time": 92.51739,
          "velocity": 0.6299212598425197
        },
        {
          "duration": 0.1678320000000042,
          "durationTicks": 48,
          "midi": 46,
          "name": "A#2",
          "ticks": 26520,
          "time": 92.72718,
          "velocity": 0.6299212598425197
        },
        {
          "duration": 0.1678320000000042,
          "durationTicks": 48,
          "midi": 38,
          "name": "D2",
          "ticks": 26520,
          "time": 92.72718,
          "velocity": 0.6299212598425197
        },
        {
          "duration": 0.3356640000000084,
          "durationTicks": 96,
          "midi": 46,
          "name": "A#2",
          "ticks": 26580,
          "time": 92.93697,
          "velocity": 0.6299212598425197
        },
        {
          "duration": 0.1678320000000042,
          "durationTicks": 48,
          "midi": 46,
          "name": "A#2",
          "ticks": 26700,
          "time": 93.35655,
          "velocity": 0.6299212598425197
        },
        {
          "duration": 0.1678320000000042,
          "durationTicks": 48,
          "midi": 35,
          "name": "B1",
          "ticks": 26700,
          "time": 93.35655,
          "velocity": 0.6299212598425197
        },
        {
          "duration": 0.1678320000000042,
          "durationTicks": 48,
          "midi": 46,
          "name": "A#2",
          "ticks": 26760,
          "time": 93.56634,
          "velocity": 0.6299212598425197
        },
        {
          "duration": 0.1678320000000042,
          "durationTicks": 48,
          "midi": 38,
          "name": "D2",
          "ticks": 26760,
          "time": 93.56634,
          "velocity": 0.6299212598425197
        },
        {
          "duration": 0.0839160000000021,
          "durationTicks": 24,
          "midi": 38,
          "name": "D2",
          "ticks": 26820,
          "time": 93.77613,
          "velocity": 0.6299212598425197
        },
        {
          "duration": 0.0839160000000021,
          "durationTicks": 24,
          "midi": 42,
          "name": "F#2",
          "ticks": 26820,
          "time": 93.77613,
          "velocity": 0.6299212598425197
        },
        {
          "duration": 0.08391599999998789,
          "durationTicks": 24,
          "midi": 38,
          "name": "D2",
          "ticks": 26850,
          "time": 93.88102500000001,
          "velocity": 0.6299212598425197
        },
        {
          "duration": 0.3356639999999942,
          "durationTicks": 96,
          "midi": 55,
          "name": "G3",
          "ticks": 26880,
          "time": 93.98592000000001,
          "velocity": 0.6299212598425197
        },
        {
          "duration": 0.3356639999999942,
          "durationTicks": 96,
          "midi": 46,
          "name": "A#2",
          "ticks": 26880,
          "time": 93.98592000000001,
          "velocity": 0.6299212598425197
        },
        {
          "duration": 0.3356639999999942,
          "durationTicks": 96,
          "midi": 35,
          "name": "B1",
          "ticks": 26880,
          "time": 93.98592000000001,
          "velocity": 0.6299212598425197
        },
        {
          "duration": 0.3356640000000084,
          "durationTicks": 96,
          "midi": 38,
          "name": "D2",
          "ticks": 27000,
          "time": 94.4055,
          "velocity": 0.6299212598425197
        },
        {
          "duration": 0.3356640000000084,
          "durationTicks": 96,
          "midi": 46,
          "name": "A#2",
          "ticks": 27000,
          "time": 94.4055,
          "velocity": 0.6299212598425197
        },
        {
          "duration": 0.1678320000000042,
          "durationTicks": 48,
          "midi": 46,
          "name": "A#2",
          "ticks": 27120,
          "time": 94.82508,
          "velocity": 0.6299212598425197
        },
        {
          "duration": 0.1678320000000042,
          "durationTicks": 48,
          "midi": 46,
          "name": "A#2",
          "ticks": 27180,
          "time": 95.03487,
          "velocity": 0.6299212598425197
        },
        {
          "duration": 0.1678320000000042,
          "durationTicks": 48,
          "midi": 35,
          "name": "B1",
          "ticks": 27180,
          "time": 95.03487,
          "velocity": 0.6299212598425197
        },
        {
          "duration": 0.1678320000000042,
          "durationTicks": 48,
          "midi": 38,
          "name": "D2",
          "ticks": 27240,
          "time": 95.24466,
          "velocity": 0.6299212598425197
        },
        {
          "duration": 0.1678320000000042,
          "durationTicks": 48,
          "midi": 46,
          "name": "A#2",
          "ticks": 27240,
          "time": 95.24466,
          "velocity": 0.6299212598425197
        },
        {
          "duration": 0.16783199999999,
          "durationTicks": 48,
          "midi": 46,
          "name": "A#2",
          "ticks": 27300,
          "time": 95.45445000000001,
          "velocity": 0.6299212598425197
        },
        {
          "duration": 0.1678320000000042,
          "durationTicks": 48,
          "midi": 35,
          "name": "B1",
          "ticks": 27360,
          "time": 95.66424,
          "velocity": 0.6299212598425197
        },
        {
          "duration": 0.1678320000000042,
          "durationTicks": 48,
          "midi": 46,
          "name": "A#2",
          "ticks": 27360,
          "time": 95.66424,
          "velocity": 0.6299212598425197
        },
        {
          "duration": 0.1678320000000042,
          "durationTicks": 48,
          "midi": 46,
          "name": "A#2",
          "ticks": 27420,
          "time": 95.87403,
          "velocity": 0.6299212598425197
        },
        {
          "duration": 0.1678320000000042,
          "durationTicks": 48,
          "midi": 46,
          "name": "A#2",
          "ticks": 27480,
          "time": 96.08382,
          "velocity": 0.6299212598425197
        },
        {
          "duration": 0.1678320000000042,
          "durationTicks": 48,
          "midi": 38,
          "name": "D2",
          "ticks": 27480,
          "time": 96.08382,
          "velocity": 0.6299212598425197
        },
        {
          "duration": 0.3356640000000084,
          "durationTicks": 96,
          "midi": 46,
          "name": "A#2",
          "ticks": 27540,
          "time": 96.29361,
          "velocity": 0.6299212598425197
        },
        {
          "duration": 0.1678320000000042,
          "durationTicks": 48,
          "midi": 46,
          "name": "A#2",
          "ticks": 27660,
          "time": 96.71319,
          "velocity": 0.6299212598425197
        },
        {
          "duration": 0.1678320000000042,
          "durationTicks": 48,
          "midi": 35,
          "name": "B1",
          "ticks": 27660,
          "time": 96.71319,
          "velocity": 0.6299212598425197
        },
        {
          "duration": 0.1678320000000042,
          "durationTicks": 48,
          "midi": 38,
          "name": "D2",
          "ticks": 27720,
          "time": 96.92298,
          "velocity": 0.6299212598425197
        },
        {
          "duration": 0.1678320000000042,
          "durationTicks": 48,
          "midi": 46,
          "name": "A#2",
          "ticks": 27720,
          "time": 96.92298,
          "velocity": 0.6299212598425197
        },
        {
          "duration": 0.08391599999998789,
          "durationTicks": 24,
          "midi": 38,
          "name": "D2",
          "ticks": 27780,
          "time": 97.13277000000001,
          "velocity": 0.6299212598425197
        },
        {
          "duration": 0.08391599999998789,
          "durationTicks": 24,
          "midi": 42,
          "name": "F#2",
          "ticks": 27780,
          "time": 97.13277000000001,
          "velocity": 0.6299212598425197
        },
        {
          "duration": 0.08391599999998789,
          "durationTicks": 24,
          "midi": 38,
          "name": "D2",
          "ticks": 27810,
          "time": 97.237665,
          "velocity": 0.6299212598425197
        },
        {
          "duration": 0.3356639999999942,
          "durationTicks": 96,
          "midi": 55,
          "name": "G3",
          "ticks": 27840,
          "time": 97.34256,
          "velocity": 0.6299212598425197
        },
        {
          "duration": 0.3356639999999942,
          "durationTicks": 96,
          "midi": 46,
          "name": "A#2",
          "ticks": 27840,
          "time": 97.34256,
          "velocity": 0.6299212598425197
        },
        {
          "duration": 0.3356639999999942,
          "durationTicks": 96,
          "midi": 35,
          "name": "B1",
          "ticks": 27840,
          "time": 97.34256,
          "velocity": 0.6299212598425197
        },
        {
          "duration": 0.3356640000000084,
          "durationTicks": 96,
          "midi": 46,
          "name": "A#2",
          "ticks": 27960,
          "time": 97.76214,
          "velocity": 0.6299212598425197
        },
        {
          "duration": 0.3356640000000084,
          "durationTicks": 96,
          "midi": 38,
          "name": "D2",
          "ticks": 27960,
          "time": 97.76214,
          "velocity": 0.6299212598425197
        },
        {
          "duration": 0.1678320000000042,
          "durationTicks": 48,
          "midi": 46,
          "name": "A#2",
          "ticks": 28080,
          "time": 98.18172,
          "velocity": 0.6299212598425197
        },
        {
          "duration": 0.1678320000000042,
          "durationTicks": 48,
          "midi": 35,
          "name": "B1",
          "ticks": 28140,
          "time": 98.39151,
          "velocity": 0.6299212598425197
        },
        {
          "duration": 0.1678320000000042,
          "durationTicks": 48,
          "midi": 46,
          "name": "A#2",
          "ticks": 28140,
          "time": 98.39151,
          "velocity": 0.6299212598425197
        },
        {
          "duration": 0.16783199999999,
          "durationTicks": 48,
          "midi": 46,
          "name": "A#2",
          "ticks": 28200,
          "time": 98.60130000000001,
          "velocity": 0.6299212598425197
        },
        {
          "duration": 0.16783199999999,
          "durationTicks": 48,
          "midi": 38,
          "name": "D2",
          "ticks": 28200,
          "time": 98.60130000000001,
          "velocity": 0.6299212598425197
        },
        {
          "duration": 0.1678320000000042,
          "durationTicks": 48,
          "midi": 46,
          "name": "A#2",
          "ticks": 28260,
          "time": 98.81109000000001,
          "velocity": 0.6299212598425197
        },
        {
          "duration": 0.1678320000000042,
          "durationTicks": 48,
          "midi": 35,
          "name": "B1",
          "ticks": 28320,
          "time": 99.02088,
          "velocity": 0.6299212598425197
        },
        {
          "duration": 0.1678320000000042,
          "durationTicks": 48,
          "midi": 46,
          "name": "A#2",
          "ticks": 28320,
          "time": 99.02088,
          "velocity": 0.6299212598425197
        },
        {
          "duration": 0.1678320000000042,
          "durationTicks": 48,
          "midi": 46,
          "name": "A#2",
          "ticks": 28380,
          "time": 99.23067,
          "velocity": 0.6299212598425197
        },
        {
          "duration": 0.1678320000000042,
          "durationTicks": 48,
          "midi": 38,
          "name": "D2",
          "ticks": 28440,
          "time": 99.44046,
          "velocity": 0.6299212598425197
        },
        {
          "duration": 0.1678320000000042,
          "durationTicks": 48,
          "midi": 46,
          "name": "A#2",
          "ticks": 28440,
          "time": 99.44046,
          "velocity": 0.6299212598425197
        },
        {
          "duration": 0.3356640000000084,
          "durationTicks": 96,
          "midi": 46,
          "name": "A#2",
          "ticks": 28500,
          "time": 99.65025,
          "velocity": 0.6299212598425197
        },
        {
          "duration": 0.1678320000000042,
          "durationTicks": 48,
          "midi": 35,
          "name": "B1",
          "ticks": 28620,
          "time": 100.06983,
          "velocity": 0.6299212598425197
        },
        {
          "duration": 0.1678320000000042,
          "durationTicks": 48,
          "midi": 46,
          "name": "A#2",
          "ticks": 28620,
          "time": 100.06983,
          "velocity": 0.6299212598425197
        },
        {
          "duration": 0.16783199999999,
          "durationTicks": 48,
          "midi": 46,
          "name": "A#2",
          "ticks": 28680,
          "time": 100.27962000000001,
          "velocity": 0.6299212598425197
        },
        {
          "duration": 0.16783199999999,
          "durationTicks": 48,
          "midi": 38,
          "name": "D2",
          "ticks": 28680,
          "time": 100.27962000000001,
          "velocity": 0.6299212598425197
        },
        {
          "duration": 0.08391599999998789,
          "durationTicks": 24,
          "midi": 42,
          "name": "F#2",
          "ticks": 28740,
          "time": 100.48941,
          "velocity": 0.6299212598425197
        },
        {
          "duration": 0.08391599999998789,
          "durationTicks": 24,
          "midi": 38,
          "name": "D2",
          "ticks": 28740,
          "time": 100.48941,
          "velocity": 0.6299212598425197
        },
        {
          "duration": 0.08391599999998789,
          "durationTicks": 24,
          "midi": 38,
          "name": "D2",
          "ticks": 28770,
          "time": 100.594305,
          "velocity": 0.6299212598425197
        },
        {
          "duration": 0.3356640000000084,
          "durationTicks": 96,
          "midi": 55,
          "name": "G3",
          "ticks": 28800,
          "time": 100.6992,
          "velocity": 0.6299212598425197
        },
        {
          "duration": 0.3356640000000084,
          "durationTicks": 96,
          "midi": 46,
          "name": "A#2",
          "ticks": 28800,
          "time": 100.6992,
          "velocity": 0.6299212598425197
        },
        {
          "duration": 0.3356640000000084,
          "durationTicks": 96,
          "midi": 35,
          "name": "B1",
          "ticks": 28800,
          "time": 100.6992,
          "velocity": 0.6299212598425197
        },
        {
          "duration": 0.3356640000000084,
          "durationTicks": 96,
          "midi": 38,
          "name": "D2",
          "ticks": 28920,
          "time": 101.11878,
          "velocity": 0.6299212598425197
        },
        {
          "duration": 0.3356640000000084,
          "durationTicks": 96,
          "midi": 46,
          "name": "A#2",
          "ticks": 28920,
          "time": 101.11878,
          "velocity": 0.6299212598425197
        },
        {
          "duration": 0.1678320000000042,
          "durationTicks": 48,
          "midi": 46,
          "name": "A#2",
          "ticks": 29040,
          "time": 101.53836,
          "velocity": 0.6299212598425197
        },
        {
          "duration": 0.1678320000000042,
          "durationTicks": 48,
          "midi": 46,
          "name": "A#2",
          "ticks": 29100,
          "time": 101.74815,
          "velocity": 0.6299212598425197
        },
        {
          "duration": 0.1678320000000042,
          "durationTicks": 48,
          "midi": 35,
          "name": "B1",
          "ticks": 29100,
          "time": 101.74815,
          "velocity": 0.6299212598425197
        },
        {
          "duration": 0.16783199999999,
          "durationTicks": 48,
          "midi": 38,
          "name": "D2",
          "ticks": 29160,
          "time": 101.95794000000001,
          "velocity": 0.6299212598425197
        },
        {
          "duration": 0.16783199999999,
          "durationTicks": 48,
          "midi": 46,
          "name": "A#2",
          "ticks": 29160,
          "time": 101.95794000000001,
          "velocity": 0.6299212598425197
        },
        {
          "duration": 0.1678320000000042,
          "durationTicks": 48,
          "midi": 46,
          "name": "A#2",
          "ticks": 29220,
          "time": 102.16773,
          "velocity": 0.6299212598425197
        },
        {
          "duration": 0.1678320000000042,
          "durationTicks": 48,
          "midi": 35,
          "name": "B1",
          "ticks": 29280,
          "time": 102.37752,
          "velocity": 0.6299212598425197
        },
        {
          "duration": 0.1678320000000042,
          "durationTicks": 48,
          "midi": 46,
          "name": "A#2",
          "ticks": 29280,
          "time": 102.37752,
          "velocity": 0.6299212598425197
        },
        {
          "duration": 0.1678320000000042,
          "durationTicks": 48,
          "midi": 46,
          "name": "A#2",
          "ticks": 29340,
          "time": 102.58731,
          "velocity": 0.6299212598425197
        },
        {
          "duration": 0.1678320000000042,
          "durationTicks": 48,
          "midi": 46,
          "name": "A#2",
          "ticks": 29400,
          "time": 102.7971,
          "velocity": 0.6299212598425197
        },
        {
          "duration": 0.1678320000000042,
          "durationTicks": 48,
          "midi": 38,
          "name": "D2",
          "ticks": 29400,
          "time": 102.7971,
          "velocity": 0.6299212598425197
        },
        {
          "duration": 0.3356640000000084,
          "durationTicks": 96,
          "midi": 46,
          "name": "A#2",
          "ticks": 29460,
          "time": 103.00689,
          "velocity": 0.6299212598425197
        },
        {
          "duration": 0.16783199999999,
          "durationTicks": 48,
          "midi": 35,
          "name": "B1",
          "ticks": 29580,
          "time": 103.42647000000001,
          "velocity": 0.6299212598425197
        },
        {
          "duration": 0.16783199999999,
          "durationTicks": 48,
          "midi": 46,
          "name": "A#2",
          "ticks": 29580,
          "time": 103.42647000000001,
          "velocity": 0.6299212598425197
        },
        {
          "duration": 0.1678320000000042,
          "durationTicks": 48,
          "midi": 46,
          "name": "A#2",
          "ticks": 29640,
          "time": 103.63626000000001,
          "velocity": 0.6299212598425197
        },
        {
          "duration": 0.1678320000000042,
          "durationTicks": 48,
          "midi": 38,
          "name": "D2",
          "ticks": 29640,
          "time": 103.63626000000001,
          "velocity": 0.6299212598425197
        },
        {
          "duration": 0.08391599999998789,
          "durationTicks": 24,
          "midi": 38,
          "name": "D2",
          "ticks": 29700,
          "time": 103.84605,
          "velocity": 0.6299212598425197
        },
        {
          "duration": 0.08391599999998789,
          "durationTicks": 24,
          "midi": 42,
          "name": "F#2",
          "ticks": 29700,
          "time": 103.84605,
          "velocity": 0.6299212598425197
        },
        {
          "duration": 0.08391599999998789,
          "durationTicks": 24,
          "midi": 38,
          "name": "D2",
          "ticks": 29730,
          "time": 103.950945,
          "velocity": 0.6299212598425197
        },
        {
          "duration": 0.3356640000000084,
          "durationTicks": 96,
          "midi": 55,
          "name": "G3",
          "ticks": 29760,
          "time": 104.05584,
          "velocity": 0.6299212598425197
        },
        {
          "duration": 0.3356640000000084,
          "durationTicks": 96,
          "midi": 46,
          "name": "A#2",
          "ticks": 29760,
          "time": 104.05584,
          "velocity": 0.6299212598425197
        },
        {
          "duration": 0.3356640000000084,
          "durationTicks": 96,
          "midi": 35,
          "name": "B1",
          "ticks": 29760,
          "time": 104.05584,
          "velocity": 0.6299212598425197
        },
        {
          "duration": 0.3356640000000084,
          "durationTicks": 96,
          "midi": 46,
          "name": "A#2",
          "ticks": 29880,
          "time": 104.47542,
          "velocity": 0.6299212598425197
        },
        {
          "duration": 0.3356640000000084,
          "durationTicks": 96,
          "midi": 38,
          "name": "D2",
          "ticks": 29880,
          "time": 104.47542,
          "velocity": 0.6299212598425197
        },
        {
          "duration": 0.1678320000000042,
          "durationTicks": 48,
          "midi": 46,
          "name": "A#2",
          "ticks": 30000,
          "time": 104.895,
          "velocity": 0.6299212598425197
        },
        {
          "duration": 0.16783199999999,
          "durationTicks": 48,
          "midi": 35,
          "name": "B1",
          "ticks": 30060,
          "time": 105.10479000000001,
          "velocity": 0.6299212598425197
        },
        {
          "duration": 0.16783199999999,
          "durationTicks": 48,
          "midi": 46,
          "name": "A#2",
          "ticks": 30060,
          "time": 105.10479000000001,
          "velocity": 0.6299212598425197
        },
        {
          "duration": 0.1678320000000042,
          "durationTicks": 48,
          "midi": 46,
          "name": "A#2",
          "ticks": 30120,
          "time": 105.31458,
          "velocity": 0.6299212598425197
        },
        {
          "duration": 0.1678320000000042,
          "durationTicks": 48,
          "midi": 38,
          "name": "D2",
          "ticks": 30120,
          "time": 105.31458,
          "velocity": 0.6299212598425197
        },
        {
          "duration": 0.1678320000000042,
          "durationTicks": 48,
          "midi": 46,
          "name": "A#2",
          "ticks": 30180,
          "time": 105.52437,
          "velocity": 0.6299212598425197
        },
        {
          "duration": 0.1678320000000042,
          "durationTicks": 48,
          "midi": 35,
          "name": "B1",
          "ticks": 30240,
          "time": 105.73416,
          "velocity": 0.6299212598425197
        },
        {
          "duration": 0.1678320000000042,
          "durationTicks": 48,
          "midi": 46,
          "name": "A#2",
          "ticks": 30240,
          "time": 105.73416,
          "velocity": 0.6299212598425197
        },
        {
          "duration": 0.1678320000000042,
          "durationTicks": 48,
          "midi": 46,
          "name": "A#2",
          "ticks": 30300,
          "time": 105.94395,
          "velocity": 0.6299212598425197
        },
        {
          "duration": 0.1678320000000042,
          "durationTicks": 48,
          "midi": 46,
          "name": "A#2",
          "ticks": 30360,
          "time": 106.15374,
          "velocity": 0.6299212598425197
        },
        {
          "duration": 0.1678320000000042,
          "durationTicks": 48,
          "midi": 38,
          "name": "D2",
          "ticks": 30360,
          "time": 106.15374,
          "velocity": 0.6299212598425197
        },
        {
          "duration": 0.3356640000000084,
          "durationTicks": 96,
          "midi": 46,
          "name": "A#2",
          "ticks": 30420,
          "time": 106.36353,
          "velocity": 0.6299212598425197
        },
        {
          "duration": 0.16783199999999,
          "durationTicks": 48,
          "midi": 46,
          "name": "A#2",
          "ticks": 30540,
          "time": 106.78311000000001,
          "velocity": 0.6299212598425197
        },
        {
          "duration": 0.16783199999999,
          "durationTicks": 48,
          "midi": 35,
          "name": "B1",
          "ticks": 30540,
          "time": 106.78311000000001,
          "velocity": 0.6299212598425197
        },
        {
          "duration": 0.1678320000000042,
          "durationTicks": 48,
          "midi": 38,
          "name": "D2",
          "ticks": 30600,
          "time": 106.9929,
          "velocity": 0.6299212598425197
        },
        {
          "duration": 0.1678320000000042,
          "durationTicks": 48,
          "midi": 46,
          "name": "A#2",
          "ticks": 30600,
          "time": 106.9929,
          "velocity": 0.6299212598425197
        },
        {
          "duration": 0.08391599999998789,
          "durationTicks": 24,
          "midi": 42,
          "name": "F#2",
          "ticks": 30660,
          "time": 107.20269,
          "velocity": 0.6299212598425197
        },
        {
          "duration": 0.08391599999998789,
          "durationTicks": 24,
          "midi": 38,
          "name": "D2",
          "ticks": 30660,
          "time": 107.20269,
          "velocity": 0.6299212598425197
        },
        {
          "duration": 0.08391599999998789,
          "durationTicks": 24,
          "midi": 38,
          "name": "D2",
          "ticks": 30690,
          "time": 107.307585,
          "velocity": 0.6299212598425197
        },
        {
          "duration": 0.3356640000000084,
          "durationTicks": 96,
          "midi": 55,
          "name": "G3",
          "ticks": 30720,
          "time": 107.41248,
          "velocity": 0.6299212598425197
        },
        {
          "duration": 0.3356640000000084,
          "durationTicks": 96,
          "midi": 35,
          "name": "B1",
          "ticks": 30720,
          "time": 107.41248,
          "velocity": 0.6299212598425197
        },
        {
          "duration": 0.3356640000000084,
          "durationTicks": 96,
          "midi": 46,
          "name": "A#2",
          "ticks": 30720,
          "time": 107.41248,
          "velocity": 0.6299212598425197
        },
        {
          "duration": 0.3356640000000084,
          "durationTicks": 96,
          "midi": 38,
          "name": "D2",
          "ticks": 30840,
          "time": 107.83206,
          "velocity": 0.6299212598425197
        },
        {
          "duration": 0.3356640000000084,
          "durationTicks": 96,
          "midi": 46,
          "name": "A#2",
          "ticks": 30840,
          "time": 107.83206,
          "velocity": 0.6299212598425197
        },
        {
          "duration": 0.16783199999999,
          "durationTicks": 48,
          "midi": 46,
          "name": "A#2",
          "ticks": 30960,
          "time": 108.25164000000001,
          "velocity": 0.6299212598425197
        },
        {
          "duration": 0.16783199999999,
          "durationTicks": 48,
          "midi": 35,
          "name": "B1",
          "ticks": 31020,
          "time": 108.46143000000001,
          "velocity": 0.6299212598425197
        },
        {
          "duration": 0.16783199999999,
          "durationTicks": 48,
          "midi": 46,
          "name": "A#2",
          "ticks": 31020,
          "time": 108.46143000000001,
          "velocity": 0.6299212598425197
        },
        {
          "duration": 0.16783199999999,
          "durationTicks": 48,
          "midi": 46,
          "name": "A#2",
          "ticks": 31080,
          "time": 108.67122,
          "velocity": 0.6299212598425197
        },
        {
          "duration": 0.16783199999999,
          "durationTicks": 48,
          "midi": 38,
          "name": "D2",
          "ticks": 31080,
          "time": 108.67122,
          "velocity": 0.6299212598425197
        },
        {
          "duration": 0.16783199999999,
          "durationTicks": 48,
          "midi": 46,
          "name": "A#2",
          "ticks": 31140,
          "time": 108.88101,
          "velocity": 0.6299212598425197
        },
        {
          "duration": 0.16783199999999,
          "durationTicks": 48,
          "midi": 35,
          "name": "B1",
          "ticks": 31200,
          "time": 109.0908,
          "velocity": 0.6299212598425197
        },
        {
          "duration": 0.16783199999999,
          "durationTicks": 48,
          "midi": 46,
          "name": "A#2",
          "ticks": 31200,
          "time": 109.0908,
          "velocity": 0.6299212598425197
        },
        {
          "duration": 0.16783199999999,
          "durationTicks": 48,
          "midi": 46,
          "name": "A#2",
          "ticks": 31260,
          "time": 109.30059,
          "velocity": 0.6299212598425197
        },
        {
          "duration": 0.16783199999999,
          "durationTicks": 48,
          "midi": 46,
          "name": "A#2",
          "ticks": 31320,
          "time": 109.51038,
          "velocity": 0.6299212598425197
        },
        {
          "duration": 0.16783199999999,
          "durationTicks": 48,
          "midi": 38,
          "name": "D2",
          "ticks": 31320,
          "time": 109.51038,
          "velocity": 0.6299212598425197
        },
        {
          "duration": 0.3356640000000084,
          "durationTicks": 96,
          "midi": 46,
          "name": "A#2",
          "ticks": 31380,
          "time": 109.72017,
          "velocity": 0.6299212598425197
        },
        {
          "duration": 0.16783199999999,
          "durationTicks": 48,
          "midi": 35,
          "name": "B1",
          "ticks": 31500,
          "time": 110.13975,
          "velocity": 0.6299212598425197
        },
        {
          "duration": 0.16783199999999,
          "durationTicks": 48,
          "midi": 46,
          "name": "A#2",
          "ticks": 31500,
          "time": 110.13975,
          "velocity": 0.6299212598425197
        },
        {
          "duration": 0.16783199999999,
          "durationTicks": 48,
          "midi": 38,
          "name": "D2",
          "ticks": 31560,
          "time": 110.34954,
          "velocity": 0.6299212598425197
        },
        {
          "duration": 0.16783199999999,
          "durationTicks": 48,
          "midi": 46,
          "name": "A#2",
          "ticks": 31560,
          "time": 110.34954,
          "velocity": 0.6299212598425197
        },
        {
          "duration": 0.08391599999998789,
          "durationTicks": 24,
          "midi": 38,
          "name": "D2",
          "ticks": 31620,
          "time": 110.55933,
          "velocity": 0.6299212598425197
        },
        {
          "duration": 0.08391599999998789,
          "durationTicks": 24,
          "midi": 42,
          "name": "F#2",
          "ticks": 31620,
          "time": 110.55933,
          "velocity": 0.6299212598425197
        },
        {
          "duration": 0.0839160000000021,
          "durationTicks": 24,
          "midi": 38,
          "name": "D2",
          "ticks": 31650,
          "time": 110.664225,
          "velocity": 0.6299212598425197
        },
        {
          "duration": 0.3356640000000084,
          "durationTicks": 96,
          "midi": 35,
          "name": "B1",
          "ticks": 31680,
          "time": 110.76912,
          "velocity": 0.6299212598425197
        },
        {
          "duration": 0.3356640000000084,
          "durationTicks": 96,
          "midi": 46,
          "name": "A#2",
          "ticks": 31680,
          "time": 110.76912,
          "velocity": 0.6299212598425197
        },
        {
          "duration": 0.3356640000000084,
          "durationTicks": 96,
          "midi": 55,
          "name": "G3",
          "ticks": 31680,
          "time": 110.76912,
          "velocity": 0.6299212598425197
        },
        {
          "duration": 0.3356640000000084,
          "durationTicks": 96,
          "midi": 38,
          "name": "D2",
          "ticks": 31800,
          "time": 111.1887,
          "velocity": 0.6299212598425197
        },
        {
          "duration": 0.3356640000000084,
          "durationTicks": 96,
          "midi": 46,
          "name": "A#2",
          "ticks": 31800,
          "time": 111.1887,
          "velocity": 0.6299212598425197
        },
        {
          "duration": 0.16783199999999,
          "durationTicks": 48,
          "midi": 46,
          "name": "A#2",
          "ticks": 31920,
          "time": 111.60828000000001,
          "velocity": 0.6299212598425197
        },
        {
          "duration": 0.16783199999999,
          "durationTicks": 48,
          "midi": 35,
          "name": "B1",
          "ticks": 31980,
          "time": 111.81807,
          "velocity": 0.6299212598425197
        },
        {
          "duration": 0.16783199999999,
          "durationTicks": 48,
          "midi": 46,
          "name": "A#2",
          "ticks": 31980,
          "time": 111.81807,
          "velocity": 0.6299212598425197
        },
        {
          "duration": 0.16783199999999,
          "durationTicks": 48,
          "midi": 46,
          "name": "A#2",
          "ticks": 32040,
          "time": 112.02786,
          "velocity": 0.6299212598425197
        },
        {
          "duration": 0.16783199999999,
          "durationTicks": 48,
          "midi": 38,
          "name": "D2",
          "ticks": 32040,
          "time": 112.02786,
          "velocity": 0.6299212598425197
        },
        {
          "duration": 0.16783199999999,
          "durationTicks": 48,
          "midi": 46,
          "name": "A#2",
          "ticks": 32100,
          "time": 112.23765,
          "velocity": 0.6299212598425197
        },
        {
          "duration": 0.16783199999999,
          "durationTicks": 48,
          "midi": 35,
          "name": "B1",
          "ticks": 32160,
          "time": 112.44744,
          "velocity": 0.6299212598425197
        },
        {
          "duration": 0.16783199999999,
          "durationTicks": 48,
          "midi": 46,
          "name": "A#2",
          "ticks": 32160,
          "time": 112.44744,
          "velocity": 0.6299212598425197
        },
        {
          "duration": 0.16783199999999,
          "durationTicks": 48,
          "midi": 46,
          "name": "A#2",
          "ticks": 32220,
          "time": 112.65723,
          "velocity": 0.6299212598425197
        },
        {
          "duration": 0.16783199999999,
          "durationTicks": 48,
          "midi": 46,
          "name": "A#2",
          "ticks": 32280,
          "time": 112.86702,
          "velocity": 0.6299212598425197
        },
        {
          "duration": 0.16783199999999,
          "durationTicks": 48,
          "midi": 38,
          "name": "D2",
          "ticks": 32280,
          "time": 112.86702,
          "velocity": 0.6299212598425197
        },
        {
          "duration": 0.3356639999999942,
          "durationTicks": 96,
          "midi": 46,
          "name": "A#2",
          "ticks": 32340,
          "time": 113.07681000000001,
          "velocity": 0.6299212598425197
        },
        {
          "duration": 0.16783199999999,
          "durationTicks": 48,
          "midi": 46,
          "name": "A#2",
          "ticks": 32460,
          "time": 113.49639,
          "velocity": 0.6299212598425197
        },
        {
          "duration": 0.16783199999999,
          "durationTicks": 48,
          "midi": 35,
          "name": "B1",
          "ticks": 32460,
          "time": 113.49639,
          "velocity": 0.6299212598425197
        },
        {
          "duration": 0.16783199999999,
          "durationTicks": 48,
          "midi": 38,
          "name": "D2",
          "ticks": 32520,
          "time": 113.70618,
          "velocity": 0.6299212598425197
        },
        {
          "duration": 0.16783199999999,
          "durationTicks": 48,
          "midi": 46,
          "name": "A#2",
          "ticks": 32520,
          "time": 113.70618,
          "velocity": 0.6299212598425197
        },
        {
          "duration": 0.0839160000000021,
          "durationTicks": 24,
          "midi": 38,
          "name": "D2",
          "ticks": 32580,
          "time": 113.91597,
          "velocity": 0.6299212598425197
        },
        {
          "duration": 0.0839160000000021,
          "durationTicks": 24,
          "midi": 42,
          "name": "F#2",
          "ticks": 32580,
          "time": 113.91597,
          "velocity": 0.6299212598425197
        },
        {
          "duration": 0.0839160000000021,
          "durationTicks": 24,
          "midi": 38,
          "name": "D2",
          "ticks": 32610,
          "time": 114.020865,
          "velocity": 0.6299212598425197
        },
        {
          "duration": 0.3356640000000084,
          "durationTicks": 96,
          "midi": 46,
          "name": "A#2",
          "ticks": 32640,
          "time": 114.12576,
          "velocity": 0.6299212598425197
        },
        {
          "duration": 0.3356640000000084,
          "durationTicks": 96,
          "midi": 55,
          "name": "G3",
          "ticks": 32640,
          "time": 114.12576,
          "velocity": 0.6299212598425197
        },
        {
          "duration": 0.3356640000000084,
          "durationTicks": 96,
          "midi": 35,
          "name": "B1",
          "ticks": 32640,
          "time": 114.12576,
          "velocity": 0.6299212598425197
        },
        {
          "duration": 0.3356640000000084,
          "durationTicks": 96,
          "midi": 46,
          "name": "A#2",
          "ticks": 32760,
          "time": 114.54534,
          "velocity": 0.6299212598425197
        },
        {
          "duration": 0.3356640000000084,
          "durationTicks": 96,
          "midi": 38,
          "name": "D2",
          "ticks": 32760,
          "time": 114.54534,
          "velocity": 0.6299212598425197
        },
        {
          "duration": 0.16783199999999,
          "durationTicks": 48,
          "midi": 46,
          "name": "A#2",
          "ticks": 32880,
          "time": 114.96492,
          "velocity": 0.6299212598425197
        },
        {
          "duration": 0.16783199999999,
          "durationTicks": 48,
          "midi": 46,
          "name": "A#2",
          "ticks": 32940,
          "time": 115.17471,
          "velocity": 0.6299212598425197
        },
        {
          "duration": 0.16783199999999,
          "durationTicks": 48,
          "midi": 35,
          "name": "B1",
          "ticks": 32940,
          "time": 115.17471,
          "velocity": 0.6299212598425197
        },
        {
          "duration": 0.16783199999999,
          "durationTicks": 48,
          "midi": 46,
          "name": "A#2",
          "ticks": 33000,
          "time": 115.3845,
          "velocity": 0.6299212598425197
        },
        {
          "duration": 0.16783199999999,
          "durationTicks": 48,
          "midi": 38,
          "name": "D2",
          "ticks": 33000,
          "time": 115.3845,
          "velocity": 0.6299212598425197
        },
        {
          "duration": 0.16783199999999,
          "durationTicks": 48,
          "midi": 46,
          "name": "A#2",
          "ticks": 33060,
          "time": 115.59429,
          "velocity": 0.6299212598425197
        },
        {
          "duration": 0.16783199999999,
          "durationTicks": 48,
          "midi": 35,
          "name": "B1",
          "ticks": 33120,
          "time": 115.80408,
          "velocity": 0.6299212598425197
        },
        {
          "duration": 0.16783199999999,
          "durationTicks": 48,
          "midi": 46,
          "name": "A#2",
          "ticks": 33120,
          "time": 115.80408,
          "velocity": 0.6299212598425197
        },
        {
          "duration": 0.16783199999999,
          "durationTicks": 48,
          "midi": 46,
          "name": "A#2",
          "ticks": 33180,
          "time": 116.01387,
          "velocity": 0.6299212598425197
        },
        {
          "duration": 0.1678320000000042,
          "durationTicks": 48,
          "midi": 38,
          "name": "D2",
          "ticks": 33240,
          "time": 116.22366,
          "velocity": 0.6299212598425197
        },
        {
          "duration": 0.1678320000000042,
          "durationTicks": 48,
          "midi": 46,
          "name": "A#2",
          "ticks": 33240,
          "time": 116.22366,
          "velocity": 0.6299212598425197
        },
        {
          "duration": 0.3356639999999942,
          "durationTicks": 96,
          "midi": 46,
          "name": "A#2",
          "ticks": 33300,
          "time": 116.43345000000001,
          "velocity": 0.6299212598425197
        },
        {
          "duration": 0.16783199999999,
          "durationTicks": 48,
          "midi": 46,
          "name": "A#2",
          "ticks": 33420,
          "time": 116.85303,
          "velocity": 0.6299212598425197
        },
        {
          "duration": 0.16783199999999,
          "durationTicks": 48,
          "midi": 35,
          "name": "B1",
          "ticks": 33420,
          "time": 116.85303,
          "velocity": 0.6299212598425197
        },
        {
          "duration": 0.16783199999999,
          "durationTicks": 48,
          "midi": 38,
          "name": "D2",
          "ticks": 33480,
          "time": 117.06282,
          "velocity": 0.6299212598425197
        },
        {
          "duration": 0.16783199999999,
          "durationTicks": 48,
          "midi": 46,
          "name": "A#2",
          "ticks": 33480,
          "time": 117.06282,
          "velocity": 0.6299212598425197
        },
        {
          "duration": 0.0839160000000021,
          "durationTicks": 24,
          "midi": 42,
          "name": "F#2",
          "ticks": 33540,
          "time": 117.27261,
          "velocity": 0.6299212598425197
        },
        {
          "duration": 0.0839160000000021,
          "durationTicks": 24,
          "midi": 38,
          "name": "D2",
          "ticks": 33540,
          "time": 117.27261,
          "velocity": 0.6299212598425197
        },
        {
          "duration": 0.0839160000000021,
          "durationTicks": 24,
          "midi": 38,
          "name": "D2",
          "ticks": 33570,
          "time": 117.377505,
          "velocity": 0.6299212598425197
        },
        {
          "duration": 0.3356640000000084,
          "durationTicks": 96,
          "midi": 46,
          "name": "A#2",
          "ticks": 33600,
          "time": 117.4824,
          "velocity": 0.6299212598425197
        },
        {
          "duration": 0.3356640000000084,
          "durationTicks": 96,
          "midi": 35,
          "name": "B1",
          "ticks": 33600,
          "time": 117.4824,
          "velocity": 0.6299212598425197
        },
        {
          "duration": 0.3356640000000084,
          "durationTicks": 96,
          "midi": 55,
          "name": "G3",
          "ticks": 33600,
          "time": 117.4824,
          "velocity": 0.6299212598425197
        },
        {
          "duration": 0.16783199999999,
          "durationTicks": 48,
          "midi": 46,
          "name": "A#2",
          "ticks": 33720,
          "time": 117.90198000000001,
          "velocity": 0.6299212598425197
        },
        {
          "duration": 0.16783199999999,
          "durationTicks": 48,
          "midi": 38,
          "name": "D2",
          "ticks": 33720,
          "time": 117.90198000000001,
          "velocity": 0.6299212598425197
        },
        {
          "duration": 0.16783199999999,
          "durationTicks": 48,
          "midi": 57,
          "name": "A3",
          "ticks": 33780,
          "time": 118.11177,
          "velocity": 0.6299212598425197
        },
        {
          "duration": 0.16783199999999,
          "durationTicks": 48,
          "midi": 46,
          "name": "A#2",
          "ticks": 33780,
          "time": 118.11177,
          "velocity": 0.6299212598425197
        },
        {
          "duration": 0.16783199999999,
          "durationTicks": 48,
          "midi": 35,
          "name": "B1",
          "ticks": 33780,
          "time": 118.11177,
          "velocity": 0.6299212598425197
        },
        {
          "duration": 0.16783199999999,
          "durationTicks": 48,
          "midi": 55,
          "name": "G3",
          "ticks": 34740,
          "time": 121.46841,
          "velocity": 0.6299212598425197
        },
        {
          "duration": 0.16783199999999,
          "durationTicks": 48,
          "midi": 35,
          "name": "B1",
          "ticks": 34920,
          "time": 122.09778,
          "velocity": 0.6299212598425197
        },
        {
          "duration": 0.16783199999999,
          "durationTicks": 48,
          "midi": 57,
          "name": "A3",
          "ticks": 34980,
          "time": 122.30757,
          "velocity": 0.6299212598425197
        },
        {
          "duration": 0.5034959999999984,
          "durationTicks": 144,
          "midi": 47,
          "name": "B2",
          "ticks": 35040,
          "time": 122.51736,
          "velocity": 0.6299212598425197
        },
        {
          "duration": 0.16783199999999,
          "durationTicks": 48,
          "midi": 45,
          "name": "A2",
          "ticks": 35220,
          "time": 123.14673,
          "velocity": 0.6299212598425197
        },
        {
          "duration": 0.16783199999999,
          "durationTicks": 48,
          "midi": 42,
          "name": "F#2",
          "ticks": 35340,
          "time": 123.56631,
          "velocity": 0.6299212598425197
        },
        {
          "duration": 0.16783199999999,
          "durationTicks": 48,
          "midi": 35,
          "name": "B1",
          "ticks": 35340,
          "time": 123.56631,
          "velocity": 0.6299212598425197
        },
        {
          "duration": 0.16783199999999,
          "durationTicks": 48,
          "midi": 46,
          "name": "A#2",
          "ticks": 35400,
          "time": 123.7761,
          "velocity": 0.6299212598425197
        },
        {
          "duration": 0.16783199999999,
          "durationTicks": 48,
          "midi": 37,
          "name": "C#2",
          "ticks": 35400,
          "time": 123.7761,
          "velocity": 0.6299212598425197
        },
        {
          "duration": 0.1678320000000042,
          "durationTicks": 48,
          "midi": 35,
          "name": "B1",
          "ticks": 35520,
          "time": 124.19568,
          "velocity": 0.6299212598425197
        },
        {
          "duration": 0.1678320000000042,
          "durationTicks": 48,
          "midi": 42,
          "name": "F#2",
          "ticks": 35520,
          "time": 124.19568,
          "velocity": 0.6299212598425197
        },
        {
          "duration": 0.16783199999999,
          "durationTicks": 48,
          "midi": 42,
          "name": "F#2",
          "ticks": 35580,
          "time": 124.40547000000001,
          "velocity": 0.6299212598425197
        },
        {
          "duration": 0.16783199999999,
          "durationTicks": 48,
          "midi": 42,
          "name": "F#2",
          "ticks": 35640,
          "time": 124.61526,
          "velocity": 0.6299212598425197
        },
        {
          "duration": 0.16783199999999,
          "durationTicks": 48,
          "midi": 42,
          "name": "F#2",
          "ticks": 35700,
          "time": 124.82505,
          "velocity": 0.6299212598425197
        },
        {
          "duration": 0.16783199999999,
          "durationTicks": 48,
          "midi": 35,
          "name": "B1",
          "ticks": 35700,
          "time": 124.82505,
          "velocity": 0.6299212598425197
        },
        {
          "duration": 0.16783199999999,
          "durationTicks": 48,
          "midi": 42,
          "name": "F#2",
          "ticks": 35760,
          "time": 125.03484,
          "velocity": 0.6299212598425197
        },
        {
          "duration": 0.16783199999999,
          "durationTicks": 48,
          "midi": 42,
          "name": "F#2",
          "ticks": 35820,
          "time": 125.24463,
          "velocity": 0.6299212598425197
        },
        {
          "duration": 0.16783199999999,
          "durationTicks": 48,
          "midi": 37,
          "name": "C#2",
          "ticks": 35880,
          "time": 125.45442,
          "velocity": 0.6299212598425197
        },
        {
          "duration": 0.16783199999999,
          "durationTicks": 48,
          "midi": 42,
          "name": "F#2",
          "ticks": 35880,
          "time": 125.45442,
          "velocity": 0.6299212598425197
        },
        {
          "duration": 0.16783199999999,
          "durationTicks": 48,
          "midi": 35,
          "name": "B1",
          "ticks": 35940,
          "time": 125.66421,
          "velocity": 0.6299212598425197
        },
        {
          "duration": 0.16783199999999,
          "durationTicks": 48,
          "midi": 42,
          "name": "F#2",
          "ticks": 35940,
          "time": 125.66421,
          "velocity": 0.6299212598425197
        },
        {
          "duration": 0.16783199999999,
          "durationTicks": 48,
          "midi": 42,
          "name": "F#2",
          "ticks": 36000,
          "time": 125.87400000000001,
          "velocity": 0.6299212598425197
        },
        {
          "duration": 0.16783199999999,
          "durationTicks": 48,
          "midi": 35,
          "name": "B1",
          "ticks": 36000,
          "time": 125.87400000000001,
          "velocity": 0.6299212598425197
        },
        {
          "duration": 0.16783199999999,
          "durationTicks": 48,
          "midi": 42,
          "name": "F#2",
          "ticks": 36060,
          "time": 126.08379000000001,
          "velocity": 0.6299212598425197
        },
        {
          "duration": 0.16783199999999,
          "durationTicks": 48,
          "midi": 35,
          "name": "B1",
          "ticks": 36060,
          "time": 126.08379000000001,
          "velocity": 0.6299212598425197
        },
        {
          "duration": 0.16783199999999,
          "durationTicks": 48,
          "midi": 42,
          "name": "F#2",
          "ticks": 36120,
          "time": 126.29358,
          "velocity": 0.6299212598425197
        },
        {
          "duration": 0.16783199999999,
          "durationTicks": 48,
          "midi": 42,
          "name": "F#2",
          "ticks": 36180,
          "time": 126.50337,
          "velocity": 0.6299212598425197
        },
        {
          "duration": 0.16783199999999,
          "durationTicks": 48,
          "midi": 35,
          "name": "B1",
          "ticks": 36180,
          "time": 126.50337,
          "velocity": 0.6299212598425197
        },
        {
          "duration": 0.16783199999999,
          "durationTicks": 48,
          "midi": 42,
          "name": "F#2",
          "ticks": 36240,
          "time": 126.71316,
          "velocity": 0.6299212598425197
        },
        {
          "duration": 0.16783199999999,
          "durationTicks": 48,
          "midi": 35,
          "name": "B1",
          "ticks": 36300,
          "time": 126.92295,
          "velocity": 0.6299212598425197
        },
        {
          "duration": 0.16783199999999,
          "durationTicks": 48,
          "midi": 42,
          "name": "F#2",
          "ticks": 36300,
          "time": 126.92295,
          "velocity": 0.6299212598425197
        },
        {
          "duration": 0.16783199999999,
          "durationTicks": 48,
          "midi": 37,
          "name": "C#2",
          "ticks": 36360,
          "time": 127.13274,
          "velocity": 0.6299212598425197
        },
        {
          "duration": 0.16783199999999,
          "durationTicks": 48,
          "midi": 42,
          "name": "F#2",
          "ticks": 36360,
          "time": 127.13274,
          "velocity": 0.6299212598425197
        },
        {
          "duration": 0.16783199999999,
          "durationTicks": 48,
          "midi": 46,
          "name": "A#2",
          "ticks": 36420,
          "time": 127.34253,
          "velocity": 0.6299212598425197
        },
        {
          "duration": 0.16783199999999,
          "durationTicks": 48,
          "midi": 35,
          "name": "B1",
          "ticks": 36480,
          "time": 127.55232000000001,
          "velocity": 0.6299212598425197
        },
        {
          "duration": 0.16783199999999,
          "durationTicks": 48,
          "midi": 42,
          "name": "F#2",
          "ticks": 36480,
          "time": 127.55232000000001,
          "velocity": 0.6299212598425197
        },
        {
          "duration": 0.16783199999999,
          "durationTicks": 48,
          "midi": 42,
          "name": "F#2",
          "ticks": 36540,
          "time": 127.76211,
          "velocity": 0.6299212598425197
        },
        {
          "duration": 0.16783199999997578,
          "durationTicks": 48,
          "midi": 42,
          "name": "F#2",
          "ticks": 36600,
          "time": 127.9719,
          "velocity": 0.6299212598425197
        },
        {
          "duration": 0.16783199999997578,
          "durationTicks": 48,
          "midi": 42,
          "name": "F#2",
          "ticks": 36660,
          "time": 128.18169,
          "velocity": 0.6299212598425197
        },
        {
          "duration": 0.16783199999997578,
          "durationTicks": 48,
          "midi": 35,
          "name": "B1",
          "ticks": 36660,
          "time": 128.18169,
          "velocity": 0.6299212598425197
        },
        {
          "duration": 0.1678320000000042,
          "durationTicks": 48,
          "midi": 42,
          "name": "F#2",
          "ticks": 36720,
          "time": 128.39148,
          "velocity": 0.6299212598425197
        },
        {
          "duration": 0.1678320000000042,
          "durationTicks": 48,
          "midi": 42,
          "name": "F#2",
          "ticks": 36780,
          "time": 128.60127,
          "velocity": 0.6299212598425197
        },
        {
          "duration": 0.1678320000000042,
          "durationTicks": 48,
          "midi": 37,
          "name": "C#2",
          "ticks": 36840,
          "time": 128.81106,
          "velocity": 0.6299212598425197
        },
        {
          "duration": 0.1678320000000042,
          "durationTicks": 48,
          "midi": 42,
          "name": "F#2",
          "ticks": 36840,
          "time": 128.81106,
          "velocity": 0.6299212598425197
        },
        {
          "duration": 0.1678320000000042,
          "durationTicks": 48,
          "midi": 35,
          "name": "B1",
          "ticks": 36900,
          "time": 129.02085,
          "velocity": 0.6299212598425197
        },
        {
          "duration": 0.1678320000000042,
          "durationTicks": 48,
          "midi": 42,
          "name": "F#2",
          "ticks": 36900,
          "time": 129.02085,
          "velocity": 0.6299212598425197
        },
        {
          "duration": 0.1678320000000042,
          "durationTicks": 48,
          "midi": 42,
          "name": "F#2",
          "ticks": 36960,
          "time": 129.23064,
          "velocity": 0.6299212598425197
        },
        {
          "duration": 0.1678320000000042,
          "durationTicks": 48,
          "midi": 35,
          "name": "B1",
          "ticks": 36960,
          "time": 129.23064,
          "velocity": 0.6299212598425197
        },
        {
          "duration": 0.1678320000000042,
          "durationTicks": 48,
          "midi": 42,
          "name": "F#2",
          "ticks": 37020,
          "time": 129.44043,
          "velocity": 0.6299212598425197
        },
        {
          "duration": 0.1678320000000042,
          "durationTicks": 48,
          "midi": 35,
          "name": "B1",
          "ticks": 37020,
          "time": 129.44043,
          "velocity": 0.6299212598425197
        },
        {
          "duration": 0.1678320000000042,
          "durationTicks": 48,
          "midi": 42,
          "name": "F#2",
          "ticks": 37080,
          "time": 129.65022,
          "velocity": 0.6299212598425197
        },
        {
          "duration": 0.16783199999997578,
          "durationTicks": 48,
          "midi": 42,
          "name": "F#2",
          "ticks": 37140,
          "time": 129.86001000000002,
          "velocity": 0.6299212598425197
        },
        {
          "duration": 0.16783199999997578,
          "durationTicks": 48,
          "midi": 35,
          "name": "B1",
          "ticks": 37140,
          "time": 129.86001000000002,
          "velocity": 0.6299212598425197
        },
        {
          "duration": 0.16783199999997578,
          "durationTicks": 48,
          "midi": 42,
          "name": "F#2",
          "ticks": 37200,
          "time": 130.06980000000001,
          "velocity": 0.6299212598425197
        },
        {
          "duration": 0.16783199999997578,
          "durationTicks": 48,
          "midi": 42,
          "name": "F#2",
          "ticks": 37260,
          "time": 130.27959,
          "velocity": 0.6299212598425197
        },
        {
          "duration": 0.16783199999997578,
          "durationTicks": 48,
          "midi": 35,
          "name": "B1",
          "ticks": 37260,
          "time": 130.27959,
          "velocity": 0.6299212598425197
        },
        {
          "duration": 0.16783199999997578,
          "durationTicks": 48,
          "midi": 37,
          "name": "C#2",
          "ticks": 37320,
          "time": 130.48938,
          "velocity": 0.6299212598425197
        },
        {
          "duration": 0.16783199999997578,
          "durationTicks": 48,
          "midi": 42,
          "name": "F#2",
          "ticks": 37320,
          "time": 130.48938,
          "velocity": 0.6299212598425197
        },
        {
          "duration": 0.16783199999997578,
          "durationTicks": 48,
          "midi": 46,
          "name": "A#2",
          "ticks": 37380,
          "time": 130.69917,
          "velocity": 0.6299212598425197
        },
        {
          "duration": 0.16783199999997578,
          "durationTicks": 48,
          "midi": 35,
          "name": "B1",
          "ticks": 37440,
          "time": 130.90896,
          "velocity": 0.6299212598425197
        },
        {
          "duration": 0.16783199999997578,
          "durationTicks": 48,
          "midi": 42,
          "name": "F#2",
          "ticks": 37440,
          "time": 130.90896,
          "velocity": 0.6299212598425197
        },
        {
          "duration": 0.16783199999997578,
          "durationTicks": 48,
          "midi": 42,
          "name": "F#2",
          "ticks": 37500,
          "time": 131.11875,
          "velocity": 0.6299212598425197
        },
        {
          "duration": 0.16783199999997578,
          "durationTicks": 48,
          "midi": 42,
          "name": "F#2",
          "ticks": 37560,
          "time": 131.32854,
          "velocity": 0.6299212598425197
        },
        {
          "duration": 0.1678320000000042,
          "durationTicks": 48,
          "midi": 42,
          "name": "F#2",
          "ticks": 37620,
          "time": 131.53833,
          "velocity": 0.6299212598425197
        },
        {
          "duration": 0.1678320000000042,
          "durationTicks": 48,
          "midi": 35,
          "name": "B1",
          "ticks": 37620,
          "time": 131.53833,
          "velocity": 0.6299212598425197
        },
        {
          "duration": 0.1678320000000042,
          "durationTicks": 48,
          "midi": 42,
          "name": "F#2",
          "ticks": 37680,
          "time": 131.74812,
          "velocity": 0.6299212598425197
        },
        {
          "duration": 0.1678320000000042,
          "durationTicks": 48,
          "midi": 42,
          "name": "F#2",
          "ticks": 37740,
          "time": 131.95791,
          "velocity": 0.6299212598425197
        },
        {
          "duration": 0.1678320000000042,
          "durationTicks": 48,
          "midi": 37,
          "name": "C#2",
          "ticks": 37800,
          "time": 132.1677,
          "velocity": 0.6299212598425197
        },
        {
          "duration": 0.1678320000000042,
          "durationTicks": 48,
          "midi": 42,
          "name": "F#2",
          "ticks": 37800,
          "time": 132.1677,
          "velocity": 0.6299212598425197
        },
        {
          "duration": 0.1678320000000042,
          "durationTicks": 48,
          "midi": 35,
          "name": "B1",
          "ticks": 37860,
          "time": 132.37749,
          "velocity": 0.6299212598425197
        },
        {
          "duration": 0.1678320000000042,
          "durationTicks": 48,
          "midi": 42,
          "name": "F#2",
          "ticks": 37860,
          "time": 132.37749,
          "velocity": 0.6299212598425197
        },
        {
          "duration": 0.1678320000000042,
          "durationTicks": 48,
          "midi": 35,
          "name": "B1",
          "ticks": 37920,
          "time": 132.58728,
          "velocity": 0.6299212598425197
        },
        {
          "duration": 0.1678320000000042,
          "durationTicks": 48,
          "midi": 42,
          "name": "F#2",
          "ticks": 37920,
          "time": 132.58728,
          "velocity": 0.6299212598425197
        },
        {
          "duration": 0.1678320000000042,
          "durationTicks": 48,
          "midi": 42,
          "name": "F#2",
          "ticks": 37980,
          "time": 132.79707,
          "velocity": 0.6299212598425197
        },
        {
          "duration": 0.1678320000000042,
          "durationTicks": 48,
          "midi": 35,
          "name": "B1",
          "ticks": 37980,
          "time": 132.79707,
          "velocity": 0.6299212598425197
        },
        {
          "duration": 0.1678320000000042,
          "durationTicks": 48,
          "midi": 42,
          "name": "F#2",
          "ticks": 38040,
          "time": 133.00686,
          "velocity": 0.6299212598425197
        },
        {
          "duration": 0.16783199999997578,
          "durationTicks": 48,
          "midi": 35,
          "name": "B1",
          "ticks": 38100,
          "time": 133.21665000000002,
          "velocity": 0.6299212598425197
        },
        {
          "duration": 0.16783199999997578,
          "durationTicks": 48,
          "midi": 42,
          "name": "F#2",
          "ticks": 38100,
          "time": 133.21665000000002,
          "velocity": 0.6299212598425197
        },
        {
          "duration": 0.16783199999997578,
          "durationTicks": 48,
          "midi": 42,
          "name": "F#2",
          "ticks": 38160,
          "time": 133.42644,
          "velocity": 0.6299212598425197
        },
        {
          "duration": 0.16783199999997578,
          "durationTicks": 48,
          "midi": 35,
          "name": "B1",
          "ticks": 38220,
          "time": 133.63623,
          "velocity": 0.6299212598425197
        },
        {
          "duration": 0.16783199999997578,
          "durationTicks": 48,
          "midi": 42,
          "name": "F#2",
          "ticks": 38220,
          "time": 133.63623,
          "velocity": 0.6299212598425197
        },
        {
          "duration": 0.16783199999997578,
          "durationTicks": 48,
          "midi": 37,
          "name": "C#2",
          "ticks": 38280,
          "time": 133.84602,
          "velocity": 0.6299212598425197
        },
        {
          "duration": 0.16783199999997578,
          "durationTicks": 48,
          "midi": 42,
          "name": "F#2",
          "ticks": 38280,
          "time": 133.84602,
          "velocity": 0.6299212598425197
        },
        {
          "duration": 0.16783199999997578,
          "durationTicks": 48,
          "midi": 46,
          "name": "A#2",
          "ticks": 38340,
          "time": 134.05581,
          "velocity": 0.6299212598425197
        },
        {
          "duration": 0.16783199999997578,
          "durationTicks": 48,
          "midi": 42,
          "name": "F#2",
          "ticks": 38400,
          "time": 134.2656,
          "velocity": 0.6299212598425197
        },
        {
          "duration": 0.16783199999997578,
          "durationTicks": 48,
          "midi": 35,
          "name": "B1",
          "ticks": 38400,
          "time": 134.2656,
          "velocity": 0.6299212598425197
        },
        {
          "duration": 0.16783199999997578,
          "durationTicks": 48,
          "midi": 42,
          "name": "F#2",
          "ticks": 38460,
          "time": 134.47539,
          "velocity": 0.6299212598425197
        },
        {
          "duration": 0.1678320000000042,
          "durationTicks": 48,
          "midi": 42,
          "name": "F#2",
          "ticks": 38520,
          "time": 134.68518,
          "velocity": 0.6299212598425197
        },
        {
          "duration": 0.1678320000000042,
          "durationTicks": 48,
          "midi": 35,
          "name": "B1",
          "ticks": 38580,
          "time": 134.89497,
          "velocity": 0.6299212598425197
        },
        {
          "duration": 0.1678320000000042,
          "durationTicks": 48,
          "midi": 42,
          "name": "F#2",
          "ticks": 38580,
          "time": 134.89497,
          "velocity": 0.6299212598425197
        },
        {
          "duration": 0.1678320000000042,
          "durationTicks": 48,
          "midi": 42,
          "name": "F#2",
          "ticks": 38640,
          "time": 135.10476,
          "velocity": 0.6299212598425197
        },
        {
          "duration": 0.1678320000000042,
          "durationTicks": 48,
          "midi": 42,
          "name": "F#2",
          "ticks": 38700,
          "time": 135.31455,
          "velocity": 0.6299212598425197
        },
        {
          "duration": 0.1678320000000042,
          "durationTicks": 48,
          "midi": 37,
          "name": "C#2",
          "ticks": 38760,
          "time": 135.52434,
          "velocity": 0.6299212598425197
        },
        {
          "duration": 0.1678320000000042,
          "durationTicks": 48,
          "midi": 42,
          "name": "F#2",
          "ticks": 38760,
          "time": 135.52434,
          "velocity": 0.6299212598425197
        },
        {
          "duration": 0.1678320000000042,
          "durationTicks": 48,
          "midi": 42,
          "name": "F#2",
          "ticks": 38820,
          "time": 135.73413,
          "velocity": 0.6299212598425197
        },
        {
          "duration": 0.1678320000000042,
          "durationTicks": 48,
          "midi": 35,
          "name": "B1",
          "ticks": 38820,
          "time": 135.73413,
          "velocity": 0.6299212598425197
        },
        {
          "duration": 0.1678320000000042,
          "durationTicks": 48,
          "midi": 42,
          "name": "F#2",
          "ticks": 38880,
          "time": 135.94392,
          "velocity": 0.6299212598425197
        },
        {
          "duration": 0.1678320000000042,
          "durationTicks": 48,
          "midi": 35,
          "name": "B1",
          "ticks": 38880,
          "time": 135.94392,
          "velocity": 0.6299212598425197
        },
        {
          "duration": 0.1678320000000042,
          "durationTicks": 48,
          "midi": 35,
          "name": "B1",
          "ticks": 38940,
          "time": 136.15371,
          "velocity": 0.6299212598425197
        },
        {
          "duration": 0.1678320000000042,
          "durationTicks": 48,
          "midi": 42,
          "name": "F#2",
          "ticks": 38940,
          "time": 136.15371,
          "velocity": 0.6299212598425197
        },
        {
          "duration": 0.16783199999997578,
          "durationTicks": 48,
          "midi": 42,
          "name": "F#2",
          "ticks": 39000,
          "time": 136.36350000000002,
          "velocity": 0.6299212598425197
        },
        {
          "duration": 0.16783199999997578,
          "durationTicks": 48,
          "midi": 42,
          "name": "F#2",
          "ticks": 39060,
          "time": 136.57329000000001,
          "velocity": 0.6299212598425197
        },
        {
          "duration": 0.16783199999997578,
          "durationTicks": 48,
          "midi": 35,
          "name": "B1",
          "ticks": 39060,
          "time": 136.57329000000001,
          "velocity": 0.6299212598425197
        },
        {
          "duration": 0.16783199999997578,
          "durationTicks": 48,
          "midi": 42,
          "name": "F#2",
          "ticks": 39120,
          "time": 136.78308,
          "velocity": 0.6299212598425197
        },
        {
          "duration": 0.16783199999997578,
          "durationTicks": 48,
          "midi": 42,
          "name": "F#2",
          "ticks": 39180,
          "time": 136.99287,
          "velocity": 0.6299212598425197
        },
        {
          "duration": 0.16783199999997578,
          "durationTicks": 48,
          "midi": 35,
          "name": "B1",
          "ticks": 39180,
          "time": 136.99287,
          "velocity": 0.6299212598425197
        },
        {
          "duration": 0.16783199999997578,
          "durationTicks": 48,
          "midi": 37,
          "name": "C#2",
          "ticks": 39240,
          "time": 137.20266,
          "velocity": 0.6299212598425197
        },
        {
          "duration": 0.16783199999997578,
          "durationTicks": 48,
          "midi": 42,
          "name": "F#2",
          "ticks": 39240,
          "time": 137.20266,
          "velocity": 0.6299212598425197
        },
        {
          "duration": 0.16783199999997578,
          "durationTicks": 48,
          "midi": 46,
          "name": "A#2",
          "ticks": 39300,
          "time": 137.41245,
          "velocity": 0.6299212598425197
        },
        {
          "duration": 0.16783199999997578,
          "durationTicks": 48,
          "midi": 35,
          "name": "B1",
          "ticks": 39360,
          "time": 137.62224,
          "velocity": 0.6299212598425197
        },
        {
          "duration": 0.16783199999997578,
          "durationTicks": 48,
          "midi": 42,
          "name": "F#2",
          "ticks": 39360,
          "time": 137.62224,
          "velocity": 0.6299212598425197
        },
        {
          "duration": 0.1678320000000042,
          "durationTicks": 48,
          "midi": 42,
          "name": "F#2",
          "ticks": 39420,
          "time": 137.83203,
          "velocity": 0.6299212598425197
        },
        {
          "duration": 0.1678320000000042,
          "durationTicks": 48,
          "midi": 42,
          "name": "F#2",
          "ticks": 39480,
          "time": 138.04182,
          "velocity": 0.6299212598425197
        },
        {
          "duration": 0.1678320000000042,
          "durationTicks": 48,
          "midi": 42,
          "name": "F#2",
          "ticks": 39540,
          "time": 138.25161,
          "velocity": 0.6299212598425197
        },
        {
          "duration": 0.1678320000000042,
          "durationTicks": 48,
          "midi": 35,
          "name": "B1",
          "ticks": 39540,
          "time": 138.25161,
          "velocity": 0.6299212598425197
        },
        {
          "duration": 0.1678320000000042,
          "durationTicks": 48,
          "midi": 42,
          "name": "F#2",
          "ticks": 39600,
          "time": 138.4614,
          "velocity": 0.6299212598425197
        },
        {
          "duration": 0.1678320000000042,
          "durationTicks": 48,
          "midi": 42,
          "name": "F#2",
          "ticks": 39660,
          "time": 138.67119,
          "velocity": 0.6299212598425197
        },
        {
          "duration": 0.1678320000000042,
          "durationTicks": 48,
          "midi": 37,
          "name": "C#2",
          "ticks": 39720,
          "time": 138.88098,
          "velocity": 0.6299212598425197
        },
        {
          "duration": 0.1678320000000042,
          "durationTicks": 48,
          "midi": 42,
          "name": "F#2",
          "ticks": 39720,
          "time": 138.88098,
          "velocity": 0.6299212598425197
        },
        {
          "duration": 0.1678320000000042,
          "durationTicks": 48,
          "midi": 35,
          "name": "B1",
          "ticks": 39780,
          "time": 139.09077,
          "velocity": 0.6299212598425197
        },
        {
          "duration": 0.1678320000000042,
          "durationTicks": 48,
          "midi": 42,
          "name": "F#2",
          "ticks": 39780,
          "time": 139.09077,
          "velocity": 0.6299212598425197
        },
        {
          "duration": 0.1678320000000042,
          "durationTicks": 48,
          "midi": 42,
          "name": "F#2",
          "ticks": 39840,
          "time": 139.30056,
          "velocity": 0.6299212598425197
        },
        {
          "duration": 0.1678320000000042,
          "durationTicks": 48,
          "midi": 35,
          "name": "B1",
          "ticks": 39840,
          "time": 139.30056,
          "velocity": 0.6299212598425197
        },
        {
          "duration": 0.16783199999997578,
          "durationTicks": 48,
          "midi": 35,
          "name": "B1",
          "ticks": 39900,
          "time": 139.51035000000002,
          "velocity": 0.6299212598425197
        },
        {
          "duration": 0.16783199999997578,
          "durationTicks": 48,
          "midi": 42,
          "name": "F#2",
          "ticks": 39900,
          "time": 139.51035000000002,
          "velocity": 0.6299212598425197
        },
        {
          "duration": 0.16783199999997578,
          "durationTicks": 48,
          "midi": 42,
          "name": "F#2",
          "ticks": 39960,
          "time": 139.72014000000001,
          "velocity": 0.6299212598425197
        },
        {
          "duration": 0.16783199999997578,
          "durationTicks": 48,
          "midi": 42,
          "name": "F#2",
          "ticks": 40020,
          "time": 139.92993,
          "velocity": 0.6299212598425197
        },
        {
          "duration": 0.16783199999997578,
          "durationTicks": 48,
          "midi": 35,
          "name": "B1",
          "ticks": 40020,
          "time": 139.92993,
          "velocity": 0.6299212598425197
        },
        {
          "duration": 0.16783199999997578,
          "durationTicks": 48,
          "midi": 42,
          "name": "F#2",
          "ticks": 40080,
          "time": 140.13972,
          "velocity": 0.6299212598425197
        },
        {
          "duration": 0.16783199999997578,
          "durationTicks": 48,
          "midi": 42,
          "name": "F#2",
          "ticks": 40140,
          "time": 140.34951,
          "velocity": 0.6299212598425197
        },
        {
          "duration": 0.16783199999997578,
          "durationTicks": 48,
          "midi": 35,
          "name": "B1",
          "ticks": 40140,
          "time": 140.34951,
          "velocity": 0.6299212598425197
        },
        {
          "duration": 0.16783199999997578,
          "durationTicks": 48,
          "midi": 37,
          "name": "C#2",
          "ticks": 40200,
          "time": 140.5593,
          "velocity": 0.6299212598425197
        },
        {
          "duration": 0.16783199999997578,
          "durationTicks": 48,
          "midi": 42,
          "name": "F#2",
          "ticks": 40200,
          "time": 140.5593,
          "velocity": 0.6299212598425197
        },
        {
          "duration": 0.16783199999997578,
          "durationTicks": 48,
          "midi": 46,
          "name": "A#2",
          "ticks": 40260,
          "time": 140.76909,
          "velocity": 0.6299212598425197
        },
        {
          "duration": 0.16783199999997578,
          "durationTicks": 48,
          "midi": 35,
          "name": "B1",
          "ticks": 40320,
          "time": 140.97888,
          "velocity": 0.6299212598425197
        },
        {
          "duration": 0.16783199999997578,
          "durationTicks": 48,
          "midi": 42,
          "name": "F#2",
          "ticks": 40320,
          "time": 140.97888,
          "velocity": 0.6299212598425197
        },
        {
          "duration": 0.1678320000000042,
          "durationTicks": 48,
          "midi": 42,
          "name": "F#2",
          "ticks": 40380,
          "time": 141.18867,
          "velocity": 0.6299212598425197
        },
        {
          "duration": 0.1678320000000042,
          "durationTicks": 48,
          "midi": 42,
          "name": "F#2",
          "ticks": 40440,
          "time": 141.39846,
          "velocity": 0.6299212598425197
        },
        {
          "duration": 0.1678320000000042,
          "durationTicks": 48,
          "midi": 42,
          "name": "F#2",
          "ticks": 40500,
          "time": 141.60825,
          "velocity": 0.6299212598425197
        },
        {
          "duration": 0.1678320000000042,
          "durationTicks": 48,
          "midi": 35,
          "name": "B1",
          "ticks": 40500,
          "time": 141.60825,
          "velocity": 0.6299212598425197
        },
        {
          "duration": 0.1678320000000042,
          "durationTicks": 48,
          "midi": 42,
          "name": "F#2",
          "ticks": 40560,
          "time": 141.81804,
          "velocity": 0.6299212598425197
        },
        {
          "duration": 0.1678320000000042,
          "durationTicks": 48,
          "midi": 42,
          "name": "F#2",
          "ticks": 40620,
          "time": 142.02783,
          "velocity": 0.6299212598425197
        },
        {
          "duration": 0.1678320000000042,
          "durationTicks": 48,
          "midi": 37,
          "name": "C#2",
          "ticks": 40680,
          "time": 142.23762,
          "velocity": 0.6299212598425197
        },
        {
          "duration": 0.1678320000000042,
          "durationTicks": 48,
          "midi": 42,
          "name": "F#2",
          "ticks": 40680,
          "time": 142.23762,
          "velocity": 0.6299212598425197
        },
        {
          "duration": 0.1678320000000042,
          "durationTicks": 48,
          "midi": 35,
          "name": "B1",
          "ticks": 40740,
          "time": 142.44741,
          "velocity": 0.6299212598425197
        },
        {
          "duration": 0.1678320000000042,
          "durationTicks": 48,
          "midi": 42,
          "name": "F#2",
          "ticks": 40740,
          "time": 142.44741,
          "velocity": 0.6299212598425197
        },
        {
          "duration": 0.1678320000000042,
          "durationTicks": 48,
          "midi": 42,
          "name": "F#2",
          "ticks": 40800,
          "time": 142.6572,
          "velocity": 0.6299212598425197
        },
        {
          "duration": 0.1678320000000042,
          "durationTicks": 48,
          "midi": 35,
          "name": "B1",
          "ticks": 40800,
          "time": 142.6572,
          "velocity": 0.6299212598425197
        },
        {
          "duration": 0.16783199999997578,
          "durationTicks": 48,
          "midi": 35,
          "name": "B1",
          "ticks": 40860,
          "time": 142.86699000000002,
          "velocity": 0.6299212598425197
        },
        {
          "duration": 0.16783199999997578,
          "durationTicks": 48,
          "midi": 42,
          "name": "F#2",
          "ticks": 40860,
          "time": 142.86699000000002,
          "velocity": 0.6299212598425197
        },
        {
          "duration": 0.16783199999997578,
          "durationTicks": 48,
          "midi": 42,
          "name": "F#2",
          "ticks": 40920,
          "time": 143.07678,
          "velocity": 0.6299212598425197
        },
        {
          "duration": 0.16783199999997578,
          "durationTicks": 48,
          "midi": 42,
          "name": "F#2",
          "ticks": 40980,
          "time": 143.28657,
          "velocity": 0.6299212598425197
        },
        {
          "duration": 0.16783199999997578,
          "durationTicks": 48,
          "midi": 35,
          "name": "B1",
          "ticks": 40980,
          "time": 143.28657,
          "velocity": 0.6299212598425197
        },
        {
          "duration": 0.16783199999997578,
          "durationTicks": 48,
          "midi": 42,
          "name": "F#2",
          "ticks": 41040,
          "time": 143.49636,
          "velocity": 0.6299212598425197
        },
        {
          "duration": 0.16783199999997578,
          "durationTicks": 48,
          "midi": 42,
          "name": "F#2",
          "ticks": 41100,
          "time": 143.70615,
          "velocity": 0.6299212598425197
        },
        {
          "duration": 0.16783199999997578,
          "durationTicks": 48,
          "midi": 35,
          "name": "B1",
          "ticks": 41100,
          "time": 143.70615,
          "velocity": 0.6299212598425197
        },
        {
          "duration": 0.16783199999997578,
          "durationTicks": 48,
          "midi": 37,
          "name": "C#2",
          "ticks": 41160,
          "time": 143.91594,
          "velocity": 0.6299212598425197
        },
        {
          "duration": 0.16783199999997578,
          "durationTicks": 48,
          "midi": 42,
          "name": "F#2",
          "ticks": 41160,
          "time": 143.91594,
          "velocity": 0.6299212598425197
        },
        {
          "duration": 0.16783199999997578,
          "durationTicks": 48,
          "midi": 46,
          "name": "A#2",
          "ticks": 41220,
          "time": 144.12573,
          "velocity": 0.6299212598425197
        },
        {
          "duration": 0.1678320000000042,
          "durationTicks": 48,
          "midi": 35,
          "name": "B1",
          "ticks": 41280,
          "time": 144.33552,
          "velocity": 0.6299212598425197
        },
        {
          "duration": 0.1678320000000042,
          "durationTicks": 48,
          "midi": 42,
          "name": "F#2",
          "ticks": 41280,
          "time": 144.33552,
          "velocity": 0.6299212598425197
        },
        {
          "duration": 0.1678320000000042,
          "durationTicks": 48,
          "midi": 42,
          "name": "F#2",
          "ticks": 41340,
          "time": 144.54531,
          "velocity": 0.6299212598425197
        },
        {
          "duration": 0.1678320000000042,
          "durationTicks": 48,
          "midi": 42,
          "name": "F#2",
          "ticks": 41400,
          "time": 144.7551,
          "velocity": 0.6299212598425197
        },
        {
          "duration": 0.1678320000000042,
          "durationTicks": 48,
          "midi": 42,
          "name": "F#2",
          "ticks": 41460,
          "time": 144.96489,
          "velocity": 0.6299212598425197
        },
        {
          "duration": 0.1678320000000042,
          "durationTicks": 48,
          "midi": 35,
          "name": "B1",
          "ticks": 41460,
          "time": 144.96489,
          "velocity": 0.6299212598425197
        },
        {
          "duration": 0.1678320000000042,
          "durationTicks": 48,
          "midi": 42,
          "name": "F#2",
          "ticks": 41520,
          "time": 145.17468,
          "velocity": 0.6299212598425197
        },
        {
          "duration": 0.1678320000000042,
          "durationTicks": 48,
          "midi": 42,
          "name": "F#2",
          "ticks": 41580,
          "time": 145.38447,
          "velocity": 0.6299212598425197
        },
        {
          "duration": 0.1678320000000042,
          "durationTicks": 48,
          "midi": 37,
          "name": "C#2",
          "ticks": 41640,
          "time": 145.59426,
          "velocity": 0.6299212598425197
        },
        {
          "duration": 0.1678320000000042,
          "durationTicks": 48,
          "midi": 42,
          "name": "F#2",
          "ticks": 41640,
          "time": 145.59426,
          "velocity": 0.6299212598425197
        },
        {
          "duration": 0.1678320000000042,
          "durationTicks": 48,
          "midi": 35,
          "name": "B1",
          "ticks": 41700,
          "time": 145.80405,
          "velocity": 0.6299212598425197
        },
        {
          "duration": 0.1678320000000042,
          "durationTicks": 48,
          "midi": 42,
          "name": "F#2",
          "ticks": 41700,
          "time": 145.80405,
          "velocity": 0.6299212598425197
        },
        {
          "duration": 0.16783199999997578,
          "durationTicks": 48,
          "midi": 35,
          "name": "B1",
          "ticks": 41760,
          "time": 146.01384000000002,
          "velocity": 0.6299212598425197
        },
        {
          "duration": 0.16783199999997578,
          "durationTicks": 48,
          "midi": 42,
          "name": "F#2",
          "ticks": 41760,
          "time": 146.01384000000002,
          "velocity": 0.6299212598425197
        },
        {
          "duration": 0.16783199999997578,
          "durationTicks": 48,
          "midi": 35,
          "name": "B1",
          "ticks": 41820,
          "time": 146.22363,
          "velocity": 0.6299212598425197
        },
        {
          "duration": 0.16783199999997578,
          "durationTicks": 48,
          "midi": 42,
          "name": "F#2",
          "ticks": 41820,
          "time": 146.22363,
          "velocity": 0.6299212598425197
        },
        {
          "duration": 0.16783199999997578,
          "durationTicks": 48,
          "midi": 42,
          "name": "F#2",
          "ticks": 41880,
          "time": 146.43342,
          "velocity": 0.6299212598425197
        },
        {
          "duration": 0.16783199999997578,
          "durationTicks": 48,
          "midi": 35,
          "name": "B1",
          "ticks": 41940,
          "time": 146.64321,
          "velocity": 0.6299212598425197
        },
        {
          "duration": 0.16783199999997578,
          "durationTicks": 48,
          "midi": 42,
          "name": "F#2",
          "ticks": 41940,
          "time": 146.64321,
          "velocity": 0.6299212598425197
        },
        {
          "duration": 0.16783199999997578,
          "durationTicks": 48,
          "midi": 42,
          "name": "F#2",
          "ticks": 42000,
          "time": 146.853,
          "velocity": 0.6299212598425197
        },
        {
          "duration": 0.16783199999997578,
          "durationTicks": 48,
          "midi": 35,
          "name": "B1",
          "ticks": 42060,
          "time": 147.06279,
          "velocity": 0.6299212598425197
        },
        {
          "duration": 0.16783199999997578,
          "durationTicks": 48,
          "midi": 42,
          "name": "F#2",
          "ticks": 42060,
          "time": 147.06279,
          "velocity": 0.6299212598425197
        },
        {
          "duration": 0.16783199999997578,
          "durationTicks": 48,
          "midi": 37,
          "name": "C#2",
          "ticks": 42120,
          "time": 147.27258,
          "velocity": 0.6299212598425197
        },
        {
          "duration": 0.16783199999997578,
          "durationTicks": 48,
          "midi": 42,
          "name": "F#2",
          "ticks": 42120,
          "time": 147.27258,
          "velocity": 0.6299212598425197
        },
        {
          "duration": 0.1678320000000042,
          "durationTicks": 48,
          "midi": 46,
          "name": "A#2",
          "ticks": 42180,
          "time": 147.48237,
          "velocity": 0.6299212598425197
        },
        {
          "duration": 0.1678320000000042,
          "durationTicks": 48,
          "midi": 35,
          "name": "B1",
          "ticks": 42240,
          "time": 147.69216,
          "velocity": 0.6299212598425197
        },
        {
          "duration": 0.1678320000000042,
          "durationTicks": 48,
          "midi": 42,
          "name": "F#2",
          "ticks": 42240,
          "time": 147.69216,
          "velocity": 0.6299212598425197
        },
        {
          "duration": 0.1678320000000042,
          "durationTicks": 48,
          "midi": 42,
          "name": "F#2",
          "ticks": 42300,
          "time": 147.90195,
          "velocity": 0.6299212598425197
        },
        {
          "duration": 0.1678320000000042,
          "durationTicks": 48,
          "midi": 42,
          "name": "F#2",
          "ticks": 42360,
          "time": 148.11174,
          "velocity": 0.6299212598425197
        },
        {
          "duration": 0.1678320000000042,
          "durationTicks": 48,
          "midi": 35,
          "name": "B1",
          "ticks": 42420,
          "time": 148.32153,
          "velocity": 0.6299212598425197
        },
        {
          "duration": 0.1678320000000042,
          "durationTicks": 48,
          "midi": 42,
          "name": "F#2",
          "ticks": 42420,
          "time": 148.32153,
          "velocity": 0.6299212598425197
        },
        {
          "duration": 0.1678320000000042,
          "durationTicks": 48,
          "midi": 42,
          "name": "F#2",
          "ticks": 42480,
          "time": 148.53132,
          "velocity": 0.6299212598425197
        },
        {
          "duration": 0.1678320000000042,
          "durationTicks": 48,
          "midi": 42,
          "name": "F#2",
          "ticks": 42540,
          "time": 148.74111,
          "velocity": 0.6299212598425197
        },
        {
          "duration": 0.1678320000000042,
          "durationTicks": 48,
          "midi": 42,
          "name": "F#2",
          "ticks": 42600,
          "time": 148.9509,
          "velocity": 0.6299212598425197
        },
        {
          "duration": 0.1678320000000042,
          "durationTicks": 48,
          "midi": 37,
          "name": "C#2",
          "ticks": 42600,
          "time": 148.9509,
          "velocity": 0.6299212598425197
        },
        {
          "duration": 0.16783199999997578,
          "durationTicks": 48,
          "midi": 35,
          "name": "B1",
          "ticks": 42660,
          "time": 149.16069000000002,
          "velocity": 0.6299212598425197
        },
        {
          "duration": 0.16783199999997578,
          "durationTicks": 48,
          "midi": 42,
          "name": "F#2",
          "ticks": 42660,
          "time": 149.16069000000002,
          "velocity": 0.6299212598425197
        },
        {
          "duration": 0.16783199999997578,
          "durationTicks": 48,
          "midi": 35,
          "name": "B1",
          "ticks": 42720,
          "time": 149.37048000000001,
          "velocity": 0.6299212598425197
        },
        {
          "duration": 0.16783199999997578,
          "durationTicks": 48,
          "midi": 42,
          "name": "F#2",
          "ticks": 42720,
          "time": 149.37048000000001,
          "velocity": 0.6299212598425197
        },
        {
          "duration": 0.16783199999997578,
          "durationTicks": 48,
          "midi": 35,
          "name": "B1",
          "ticks": 42780,
          "time": 149.58027,
          "velocity": 0.6299212598425197
        },
        {
          "duration": 0.16783199999997578,
          "durationTicks": 48,
          "midi": 42,
          "name": "F#2",
          "ticks": 42780,
          "time": 149.58027,
          "velocity": 0.6299212598425197
        },
        {
          "duration": 0.16783199999997578,
          "durationTicks": 48,
          "midi": 42,
          "name": "F#2",
          "ticks": 42840,
          "time": 149.79006,
          "velocity": 0.6299212598425197
        },
        {
          "duration": 0.16783199999997578,
          "durationTicks": 48,
          "midi": 35,
          "name": "B1",
          "ticks": 42900,
          "time": 149.99985,
          "velocity": 0.6299212598425197
        },
        {
          "duration": 0.16783199999997578,
          "durationTicks": 48,
          "midi": 42,
          "name": "F#2",
          "ticks": 42900,
          "time": 149.99985,
          "velocity": 0.6299212598425197
        },
        {
          "duration": 0.16783199999997578,
          "durationTicks": 48,
          "midi": 42,
          "name": "F#2",
          "ticks": 42960,
          "time": 150.20964,
          "velocity": 0.6299212598425197
        },
        {
          "duration": 0.16783199999997578,
          "durationTicks": 48,
          "midi": 35,
          "name": "B1",
          "ticks": 43020,
          "time": 150.41943,
          "velocity": 0.6299212598425197
        },
        {
          "duration": 0.16783199999997578,
          "durationTicks": 48,
          "midi": 42,
          "name": "F#2",
          "ticks": 43020,
          "time": 150.41943,
          "velocity": 0.6299212598425197
        },
        {
          "duration": 0.16783199999997578,
          "durationTicks": 48,
          "midi": 42,
          "name": "F#2",
          "ticks": 43080,
          "time": 150.62922,
          "velocity": 0.6299212598425197
        },
        {
          "duration": 0.16783199999997578,
          "durationTicks": 48,
          "midi": 38,
          "name": "D2",
          "ticks": 43080,
          "time": 150.62922,
          "velocity": 0.6299212598425197
        },
        {
          "duration": 0.08391599999998789,
          "durationTicks": 24,
          "midi": 38,
          "name": "D2",
          "ticks": 43140,
          "time": 150.83901,
          "velocity": 0.6299212598425197
        },
        {
          "duration": 0.08391599999998789,
          "durationTicks": 24,
          "midi": 46,
          "name": "A#2",
          "ticks": 43140,
          "time": 150.83901,
          "velocity": 0.6299212598425197
        },
        {
          "duration": 0.08391599999998789,
          "durationTicks": 24,
          "midi": 38,
          "name": "D2",
          "ticks": 43170,
          "time": 150.943905,
          "velocity": 0.6299212598425197
        },
        {
          "duration": 0.3356640000000084,
          "durationTicks": 96,
          "midi": 46,
          "name": "A#2",
          "ticks": 43200,
          "time": 151.0488,
          "velocity": 0.6299212598425197
        },
        {
          "duration": 0.3356640000000084,
          "durationTicks": 96,
          "midi": 35,
          "name": "B1",
          "ticks": 43200,
          "time": 151.0488,
          "velocity": 0.6299212598425197
        },
        {
          "duration": 0.3356640000000084,
          "durationTicks": 96,
          "midi": 55,
          "name": "G3",
          "ticks": 43200,
          "time": 151.0488,
          "velocity": 0.6299212598425197
        },
        {
          "duration": 0.3356640000000084,
          "durationTicks": 96,
          "midi": 46,
          "name": "A#2",
          "ticks": 43320,
          "time": 151.46838,
          "velocity": 0.6299212598425197
        },
        {
          "duration": 0.3356640000000084,
          "durationTicks": 96,
          "midi": 38,
          "name": "D2",
          "ticks": 43320,
          "time": 151.46838,
          "velocity": 0.6299212598425197
        },
        {
          "duration": 0.1678320000000042,
          "durationTicks": 48,
          "midi": 46,
          "name": "A#2",
          "ticks": 43440,
          "time": 151.88796,
          "velocity": 0.6299212598425197
        },
        {
          "duration": 0.1678320000000042,
          "durationTicks": 48,
          "midi": 35,
          "name": "B1",
          "ticks": 43500,
          "time": 152.09775,
          "velocity": 0.6299212598425197
        },
        {
          "duration": 0.1678320000000042,
          "durationTicks": 48,
          "midi": 46,
          "name": "A#2",
          "ticks": 43500,
          "time": 152.09775,
          "velocity": 0.6299212598425197
        },
        {
          "duration": 0.16783199999997578,
          "durationTicks": 48,
          "midi": 46,
          "name": "A#2",
          "ticks": 43560,
          "time": 152.30754000000002,
          "velocity": 0.6299212598425197
        },
        {
          "duration": 0.16783199999997578,
          "durationTicks": 48,
          "midi": 38,
          "name": "D2",
          "ticks": 43560,
          "time": 152.30754000000002,
          "velocity": 0.6299212598425197
        },
        {
          "duration": 0.16783199999997578,
          "durationTicks": 48,
          "midi": 46,
          "name": "A#2",
          "ticks": 43620,
          "time": 152.51733000000002,
          "velocity": 0.6299212598425197
        },
        {
          "duration": 0.16783199999997578,
          "durationTicks": 48,
          "midi": 35,
          "name": "B1",
          "ticks": 43680,
          "time": 152.72712,
          "velocity": 0.6299212598425197
        },
        {
          "duration": 0.16783199999997578,
          "durationTicks": 48,
          "midi": 46,
          "name": "A#2",
          "ticks": 43680,
          "time": 152.72712,
          "velocity": 0.6299212598425197
        },
        {
          "duration": 0.16783199999997578,
          "durationTicks": 48,
          "midi": 46,
          "name": "A#2",
          "ticks": 43740,
          "time": 152.93691,
          "velocity": 0.6299212598425197
        },
        {
          "duration": 0.16783199999997578,
          "durationTicks": 48,
          "midi": 46,
          "name": "A#2",
          "ticks": 43800,
          "time": 153.1467,
          "velocity": 0.6299212598425197
        },
        {
          "duration": 0.16783199999997578,
          "durationTicks": 48,
          "midi": 38,
          "name": "D2",
          "ticks": 43800,
          "time": 153.1467,
          "velocity": 0.6299212598425197
        },
        {
          "duration": 0.3356640000000084,
          "durationTicks": 96,
          "midi": 46,
          "name": "A#2",
          "ticks": 43860,
          "time": 153.35649,
          "velocity": 0.6299212598425197
        },
        {
          "duration": 0.16783199999997578,
          "durationTicks": 48,
          "midi": 35,
          "name": "B1",
          "ticks": 43980,
          "time": 153.77607,
          "velocity": 0.6299212598425197
        },
        {
          "duration": 0.16783199999997578,
          "durationTicks": 48,
          "midi": 46,
          "name": "A#2",
          "ticks": 43980,
          "time": 153.77607,
          "velocity": 0.6299212598425197
        },
        {
          "duration": 0.1678320000000042,
          "durationTicks": 48,
          "midi": 46,
          "name": "A#2",
          "ticks": 44040,
          "time": 153.98586,
          "velocity": 0.6299212598425197
        },
        {
          "duration": 0.1678320000000042,
          "durationTicks": 48,
          "midi": 38,
          "name": "D2",
          "ticks": 44040,
          "time": 153.98586,
          "velocity": 0.6299212598425197
        },
        {
          "duration": 0.08391599999998789,
          "durationTicks": 24,
          "midi": 38,
          "name": "D2",
          "ticks": 44100,
          "time": 154.19565,
          "velocity": 0.6299212598425197
        },
        {
          "duration": 0.08391599999998789,
          "durationTicks": 24,
          "midi": 42,
          "name": "F#2",
          "ticks": 44100,
          "time": 154.19565,
          "velocity": 0.6299212598425197
        },
        {
          "duration": 0.08391599999998789,
          "durationTicks": 24,
          "midi": 38,
          "name": "D2",
          "ticks": 44130,
          "time": 154.300545,
          "velocity": 0.6299212598425197
        },
        {
          "duration": 0.3356640000000084,
          "durationTicks": 96,
          "midi": 46,
          "name": "A#2",
          "ticks": 44160,
          "time": 154.40544,
          "velocity": 0.6299212598425197
        },
        {
          "duration": 0.3356640000000084,
          "durationTicks": 96,
          "midi": 35,
          "name": "B1",
          "ticks": 44160,
          "time": 154.40544,
          "velocity": 0.6299212598425197
        },
        {
          "duration": 0.3356640000000084,
          "durationTicks": 96,
          "midi": 55,
          "name": "G3",
          "ticks": 44160,
          "time": 154.40544,
          "velocity": 0.6299212598425197
        },
        {
          "duration": 0.3356640000000084,
          "durationTicks": 96,
          "midi": 46,
          "name": "A#2",
          "ticks": 44280,
          "time": 154.82502,
          "velocity": 0.6299212598425197
        },
        {
          "duration": 0.3356640000000084,
          "durationTicks": 96,
          "midi": 38,
          "name": "D2",
          "ticks": 44280,
          "time": 154.82502,
          "velocity": 0.6299212598425197
        },
        {
          "duration": 0.1678320000000042,
          "durationTicks": 48,
          "midi": 46,
          "name": "A#2",
          "ticks": 44400,
          "time": 155.2446,
          "velocity": 0.6299212598425197
        },
        {
          "duration": 0.1678320000000042,
          "durationTicks": 48,
          "midi": 35,
          "name": "B1",
          "ticks": 44460,
          "time": 155.45439,
          "velocity": 0.6299212598425197
        },
        {
          "duration": 0.1678320000000042,
          "durationTicks": 48,
          "midi": 46,
          "name": "A#2",
          "ticks": 44460,
          "time": 155.45439,
          "velocity": 0.6299212598425197
        },
        {
          "duration": 0.16783199999997578,
          "durationTicks": 48,
          "midi": 38,
          "name": "D2",
          "ticks": 44520,
          "time": 155.66418000000002,
          "velocity": 0.6299212598425197
        },
        {
          "duration": 0.16783199999997578,
          "durationTicks": 48,
          "midi": 46,
          "name": "A#2",
          "ticks": 44520,
          "time": 155.66418000000002,
          "velocity": 0.6299212598425197
        },
        {
          "duration": 0.16783199999997578,
          "durationTicks": 48,
          "midi": 46,
          "name": "A#2",
          "ticks": 44580,
          "time": 155.87397,
          "velocity": 0.6299212598425197
        },
        {
          "duration": 0.16783199999997578,
          "durationTicks": 48,
          "midi": 35,
          "name": "B1",
          "ticks": 44640,
          "time": 156.08376,
          "velocity": 0.6299212598425197
        },
        {
          "duration": 0.16783199999997578,
          "durationTicks": 48,
          "midi": 46,
          "name": "A#2",
          "ticks": 44640,
          "time": 156.08376,
          "velocity": 0.6299212598425197
        },
        {
          "duration": 0.16783199999997578,
          "durationTicks": 48,
          "midi": 46,
          "name": "A#2",
          "ticks": 44700,
          "time": 156.29355,
          "velocity": 0.6299212598425197
        },
        {
          "duration": 0.16783199999997578,
          "durationTicks": 48,
          "midi": 38,
          "name": "D2",
          "ticks": 44760,
          "time": 156.50334,
          "velocity": 0.6299212598425197
        },
        {
          "duration": 0.16783199999997578,
          "durationTicks": 48,
          "midi": 46,
          "name": "A#2",
          "ticks": 44760,
          "time": 156.50334,
          "velocity": 0.6299212598425197
        },
        {
          "duration": 0.3356640000000084,
          "durationTicks": 96,
          "midi": 46,
          "name": "A#2",
          "ticks": 44820,
          "time": 156.71313,
          "velocity": 0.6299212598425197
        },
        {
          "duration": 0.1678320000000042,
          "durationTicks": 48,
          "midi": 46,
          "name": "A#2",
          "ticks": 44940,
          "time": 157.13271,
          "velocity": 0.6299212598425197
        },
        {
          "duration": 0.1678320000000042,
          "durationTicks": 48,
          "midi": 35,
          "name": "B1",
          "ticks": 44940,
          "time": 157.13271,
          "velocity": 0.6299212598425197
        },
        {
          "duration": 0.1678320000000042,
          "durationTicks": 48,
          "midi": 38,
          "name": "D2",
          "ticks": 45000,
          "time": 157.3425,
          "velocity": 0.6299212598425197
        },
        {
          "duration": 0.1678320000000042,
          "durationTicks": 48,
          "midi": 46,
          "name": "A#2",
          "ticks": 45000,
          "time": 157.3425,
          "velocity": 0.6299212598425197
        },
        {
          "duration": 0.08391599999998789,
          "durationTicks": 24,
          "midi": 42,
          "name": "F#2",
          "ticks": 45060,
          "time": 157.55229,
          "velocity": 0.6299212598425197
        },
        {
          "duration": 0.08391599999998789,
          "durationTicks": 24,
          "midi": 38,
          "name": "D2",
          "ticks": 45060,
          "time": 157.55229,
          "velocity": 0.6299212598425197
        },
        {
          "duration": 0.08391599999998789,
          "durationTicks": 24,
          "midi": 38,
          "name": "D2",
          "ticks": 45090,
          "time": 157.657185,
          "velocity": 0.6299212598425197
        },
        {
          "duration": 0.3356640000000084,
          "durationTicks": 96,
          "midi": 46,
          "name": "A#2",
          "ticks": 45120,
          "time": 157.76208,
          "velocity": 0.6299212598425197
        },
        {
          "duration": 0.3356640000000084,
          "durationTicks": 96,
          "midi": 35,
          "name": "B1",
          "ticks": 45120,
          "time": 157.76208,
          "velocity": 0.6299212598425197
        },
        {
          "duration": 0.3356640000000084,
          "durationTicks": 96,
          "midi": 55,
          "name": "G3",
          "ticks": 45120,
          "time": 157.76208,
          "velocity": 0.6299212598425197
        },
        {
          "duration": 0.3356640000000084,
          "durationTicks": 96,
          "midi": 46,
          "name": "A#2",
          "ticks": 45240,
          "time": 158.18166,
          "velocity": 0.6299212598425197
        },
        {
          "duration": 0.3356640000000084,
          "durationTicks": 96,
          "midi": 38,
          "name": "D2",
          "ticks": 45240,
          "time": 158.18166,
          "velocity": 0.6299212598425197
        },
        {
          "duration": 0.1678320000000042,
          "durationTicks": 48,
          "midi": 46,
          "name": "A#2",
          "ticks": 45360,
          "time": 158.60124,
          "velocity": 0.6299212598425197
        },
        {
          "duration": 0.16783199999997578,
          "durationTicks": 48,
          "midi": 46,
          "name": "A#2",
          "ticks": 45420,
          "time": 158.81103000000002,
          "velocity": 0.6299212598425197
        },
        {
          "duration": 0.16783199999997578,
          "durationTicks": 48,
          "midi": 35,
          "name": "B1",
          "ticks": 45420,
          "time": 158.81103000000002,
          "velocity": 0.6299212598425197
        },
        {
          "duration": 0.16783199999997578,
          "durationTicks": 48,
          "midi": 46,
          "name": "A#2",
          "ticks": 45480,
          "time": 159.02082000000001,
          "velocity": 0.6299212598425197
        },
        {
          "duration": 0.16783199999997578,
          "durationTicks": 48,
          "midi": 38,
          "name": "D2",
          "ticks": 45480,
          "time": 159.02082000000001,
          "velocity": 0.6299212598425197
        },
        {
          "duration": 0.16783199999997578,
          "durationTicks": 48,
          "midi": 46,
          "name": "A#2",
          "ticks": 45540,
          "time": 159.23061,
          "velocity": 0.6299212598425197
        },
        {
          "duration": 0.16783199999997578,
          "durationTicks": 48,
          "midi": 35,
          "name": "B1",
          "ticks": 45600,
          "time": 159.4404,
          "velocity": 0.6299212598425197
        },
        {
          "duration": 0.16783199999997578,
          "durationTicks": 48,
          "midi": 46,
          "name": "A#2",
          "ticks": 45600,
          "time": 159.4404,
          "velocity": 0.6299212598425197
        },
        {
          "duration": 0.16783199999997578,
          "durationTicks": 48,
          "midi": 46,
          "name": "A#2",
          "ticks": 45660,
          "time": 159.65019,
          "velocity": 0.6299212598425197
        },
        {
          "duration": 0.16783199999997578,
          "durationTicks": 48,
          "midi": 38,
          "name": "D2",
          "ticks": 45720,
          "time": 159.85998,
          "velocity": 0.6299212598425197
        },
        {
          "duration": 0.16783199999997578,
          "durationTicks": 48,
          "midi": 46,
          "name": "A#2",
          "ticks": 45720,
          "time": 159.85998,
          "velocity": 0.6299212598425197
        },
        {
          "duration": 0.3356640000000084,
          "durationTicks": 96,
          "midi": 46,
          "name": "A#2",
          "ticks": 45780,
          "time": 160.06977,
          "velocity": 0.6299212598425197
        },
        {
          "duration": 0.1678320000000042,
          "durationTicks": 48,
          "midi": 35,
          "name": "B1",
          "ticks": 45900,
          "time": 160.48935,
          "velocity": 0.6299212598425197
        },
        {
          "duration": 0.1678320000000042,
          "durationTicks": 48,
          "midi": 46,
          "name": "A#2",
          "ticks": 45900,
          "time": 160.48935,
          "velocity": 0.6299212598425197
        },
        {
          "duration": 0.1678320000000042,
          "durationTicks": 48,
          "midi": 38,
          "name": "D2",
          "ticks": 45960,
          "time": 160.69914,
          "velocity": 0.6299212598425197
        },
        {
          "duration": 0.1678320000000042,
          "durationTicks": 48,
          "midi": 46,
          "name": "A#2",
          "ticks": 45960,
          "time": 160.69914,
          "velocity": 0.6299212598425197
        },
        {
          "duration": 0.08391599999998789,
          "durationTicks": 24,
          "midi": 38,
          "name": "D2",
          "ticks": 46020,
          "time": 160.90893,
          "velocity": 0.6299212598425197
        },
        {
          "duration": 0.08391599999998789,
          "durationTicks": 24,
          "midi": 42,
          "name": "F#2",
          "ticks": 46020,
          "time": 160.90893,
          "velocity": 0.6299212598425197
        },
        {
          "duration": 0.08391599999998789,
          "durationTicks": 24,
          "midi": 38,
          "name": "D2",
          "ticks": 46050,
          "time": 161.013825,
          "velocity": 0.6299212598425197
        },
        {
          "duration": 0.3356640000000084,
          "durationTicks": 96,
          "midi": 46,
          "name": "A#2",
          "ticks": 46080,
          "time": 161.11872,
          "velocity": 0.6299212598425197
        },
        {
          "duration": 0.3356640000000084,
          "durationTicks": 96,
          "midi": 35,
          "name": "B1",
          "ticks": 46080,
          "time": 161.11872,
          "velocity": 0.6299212598425197
        },
        {
          "duration": 0.3356640000000084,
          "durationTicks": 96,
          "midi": 55,
          "name": "G3",
          "ticks": 46080,
          "time": 161.11872,
          "velocity": 0.6299212598425197
        },
        {
          "duration": 0.1678320000000042,
          "durationTicks": 48,
          "midi": 46,
          "name": "A#2",
          "ticks": 46200,
          "time": 161.5383,
          "velocity": 0.6299212598425197
        },
        {
          "duration": 0.1678320000000042,
          "durationTicks": 48,
          "midi": 38,
          "name": "D2",
          "ticks": 46200,
          "time": 161.5383,
          "velocity": 0.6299212598425197
        },
        {
          "duration": 0.1678320000000042,
          "durationTicks": 48,
          "midi": 57,
          "name": "A3",
          "ticks": 46260,
          "time": 161.74809,
          "velocity": 0.6299212598425197
        },
        {
          "duration": 0.1678320000000042,
          "durationTicks": 48,
          "midi": 46,
          "name": "A#2",
          "ticks": 46260,
          "time": 161.74809,
          "velocity": 0.6299212598425197
        },
        {
          "duration": 0.1678320000000042,
          "durationTicks": 48,
          "midi": 35,
          "name": "B1",
          "ticks": 46260,
          "time": 161.74809,
          "velocity": 0.6299212598425197
        }
      ],
      "endOfTrackTicks": 46308
    },
    {
      "channel": 0,
      "controlChanges": {},
      "pitchBends": [],
      "instrument": {
        "family": "piano",
        "number": 0,
        "name": "acoustic grand piano"
      },
      "name": "-",
      "notes": [],
      "endOfTrackTicks": 0
    },
    {
      "channel": 0,
      "controlChanges": {},
      "pitchBends": [],
      "instrument": {
        "family": "piano",
        "number": 0,
        "name": "acoustic grand piano"
      },
      "name": "Fu2 Zao4 (Impatient)",
      "notes": [],
      "endOfTrackTicks": 0
    },
    {
      "channel": 0,
      "controlChanges": {},
      "pitchBends": [],
      "instrument": {
        "family": "piano",
        "number": 0,
        "name": "acoustic grand piano"
      },
      "name": "-",
      "notes": [],
      "endOfTrackTicks": 0
    },
    {
      "channel": 0,
      "controlChanges": {},
      "pitchBends": [],
      "instrument": {
        "family": "piano",
        "number": 0,
        "name": "acoustic grand piano"
      },
      "name": "By: Faye Wong",
      "notes": [],
      "endOfTrackTicks": 0
    },
    {
      "channel": 0,
      "controlChanges": {},
      "pitchBends": [],
      "instrument": {
        "family": "piano",
        "number": 0,
        "name": "acoustic grand piano"
      },
      "name": "Lyrics and music by:",
      "notes": [],
      "endOfTrackTicks": 0
    },
    {
      "channel": 0,
      "controlChanges": {},
      "pitchBends": [],
      "instrument": {
        "family": "piano",
        "number": 0,
        "name": "acoustic grand piano"
      },
      "name": "Faye Wong",
      "notes": [],
      "endOfTrackTicks": 0
    },
    {
      "channel": 0,
      "controlChanges": {},
      "pitchBends": [],
      "instrument": {
        "family": "piano",
        "number": 0,
        "name": "acoustic grand piano"
      },
      "name": "-",
      "notes": [],
      "endOfTrackTicks": 0
    },
    {
      "channel": 0,
      "controlChanges": {},
      "pitchBends": [],
      "instrument": {
        "family": "piano",
        "number": 0,
        "name": "acoustic grand piano"
      },
      "name": "Transcribed by",
      "notes": [],
      "endOfTrackTicks": 0
    },
    {
      "channel": 0,
      "controlChanges": {},
      "pitchBends": [],
      "instrument": {
        "family": "piano",
        "number": 0,
        "name": "acoustic grand piano"
      },
      "name": "Aaron Christopher Yap",
      "notes": [],
      "endOfTrackTicks": 0
    },
    {
      "channel": 0,
      "controlChanges": {},
      "pitchBends": [],
      "instrument": {
        "family": "piano",
        "number": 0,
        "name": "acoustic grand piano"
      },
      "name": "on 23th Oct. 1996AD",
      "notes": [],
      "endOfTrackTicks": 0
    },
    {
      "channel": 0,
      "controlChanges": {},
      "pitchBends": [],
      "instrument": {
        "family": "piano",
        "number": 0,
        "name": "acoustic grand piano"
      },
      "name": "-",
      "notes": [],
      "endOfTrackTicks": 0
    },
    {
      "channel": 0,
      "controlChanges": {},
      "pitchBends": [],
      "instrument": {
        "family": "piano",
        "number": 0,
        "name": "acoustic grand piano"
      },
      "name": "Brought to you by",
      "notes": [],
      "endOfTrackTicks": 0
    },
    {
      "channel": 0,
      "controlChanges": {},
      "pitchBends": [],
      "instrument": {
        "family": "piano",
        "number": 0,
        "name": "acoustic grand piano"
      },
      "name": "It's Music! Workshop",
      "notes": [],
      "endOfTrackTicks": 0
    },
    {
      "channel": 0,
      "controlChanges": {},
      "pitchBends": [],
      "instrument": {
        "family": "piano",
        "number": 0,
        "name": "acoustic grand piano"
      },
      "name": "-",
      "notes": [],
      "endOfTrackTicks": 0
    }
  ]
}